<svg width="24" height="24" viewBox="0 0 24 24" fill="none" xmlns="http://www.w3.org/2000/svg">
<path d="M12 16.9978C14.7614 16.9978 17 14.7592 17 11.9978C17 9.23638 14.7614 6.9978 12 6.9978C9.23858 6.9978 7 9.23638 7 11.9978C7 14.7592 9.23858 16.9978 12 16.9978Z" fill="white"/>
<path d="M12.0002 7.00002H20.659C19.7816 5.47976 18.5194 4.21731 16.9993 3.3396C15.4792 2.4619 13.7548 1.99988 11.9996 2C10.2443 2.00012 8.51994 2.46238 6.99997 3.3403C5.48 4.21822 4.21797 5.48085 3.34076 7.00123L7.67018 14.5L7.67405 14.499C7.23363 13.7395 7.00122 12.8774 7.00023 11.9995C6.99924 11.1215 7.22972 10.2589 7.66843 9.49839C8.10714 8.73794 8.73857 8.10657 9.49908 7.66795C10.2596 7.22932 11.1223 6.99894 12.0002 7.00002Z" fill="url(#paint0_linear_49_10428)"/>
<path d="M12 15.9584C14.1861 15.9584 15.9584 14.1862 15.9584 12.0001C15.9584 9.81395 14.1861 8.04175 12 8.04175C9.81389 8.04175 8.04169 9.81395 8.04169 12.0001C8.04169 14.1862 9.81389 15.9584 12 15.9584Z" fill="#1A73E8"/>
<path d="M16.3296 14.5011L12.0001 21.9999C13.7554 22.0002 15.4798 21.5383 17 20.6607C18.5201 19.7831 19.7824 18.5207 20.66 17.0005C21.5375 15.4804 21.9993 13.7559 21.999 12.0006C21.9987 10.2454 21.5363 8.52109 20.6582 7.00122H11.9994L11.9984 7.0051C12.8763 7.0034 13.7391 7.23319 14.5 7.6713C15.2608 8.1094 15.8926 8.74034 16.3319 9.5005C16.7711 10.2607 17.0021 11.1232 17.0017 12.0011C17.0013 12.8791 16.7695 13.7414 16.3296 14.5011Z" fill="url(#paint1_linear_49_10428)"/>
<path d="M7.67034 14.5012L3.34093 7.00244C2.46306 8.52244 2.00086 10.2468 2.00079 12.0021C2.00073 13.7574 2.4628 15.4817 3.34055 17.0018C4.21831 18.5219 5.48079 19.784 7.00108 20.6614C8.52136 21.5388 10.2458 22.0004 12.0011 21.9999L16.3306 14.5011L16.3278 14.4983C15.8902 15.2595 15.2598 15.8918 14.5 16.3316C13.7402 16.7715 12.8778 17.0032 11.9999 17.0035C11.122 17.0038 10.2595 16.7726 9.49935 16.3333C8.73924 15.894 8.10837 15.2621 7.67034 14.5012Z" fill="url(#paint2_linear_49_10428)"/>
<defs>
<linearGradient id="paint0_linear_49_10428" x1="3.34076" y1="8.25002" x2="20.659" y2="8.25002" gradientUnits="userSpaceOnUse">
<stop stop-color="#D93025"/>
<stop offset="1" stop-color="#EA4335"/>
</linearGradient>
<linearGradient id="paint1_linear_49_10428" x1="10.634" y1="21.8662" x2="19.2931" y2="6.86814" gradientUnits="userSpaceOnUse">
<stop stop-color="#FCC934"/>
<stop offset="1" stop-color="#FBBC04"/>
</linearGradient>
<linearGradient id="paint2_linear_49_10428" x1="13.0826" y1="21.3756" x2="4.42347" y2="6.37744" gradientUnits="userSpaceOnUse">
<stop stop-color="#1E8E3E"/>
<stop offset="1" stop-color="#34A853"/>
</linearGradient>
</defs>
</svg>
