<svg width="24" height="24" viewBox="0 0 24 24" fill="none" xmlns="http://www.w3.org/2000/svg">
<path d="M3.51472 3.51482C3.90524 3.1243 4.53841 3.1243 4.92893 3.51482L20.4853 19.0712C20.8758 19.4617 20.8758 20.0949 20.4853 20.4854C20.0948 20.8759 19.4616 20.8759 19.0711 20.4854L3.51472 4.92904C3.12419 4.53851 3.12419 3.90535 3.51472 3.51482Z" fill="#0F0F0F"/>
<path d="M3.51472 20.4854C3.12419 20.0949 3.1242 19.4617 3.51472 19.0712L19.0711 3.51482C19.4616 3.1243 20.0948 3.1243 20.4853 3.51482C20.8758 3.90535 20.8758 4.53851 20.4853 4.92904L4.92893 20.4854C4.53841 20.8759 3.90524 20.8759 3.51472 20.4854Z" fill="#0F0F0F"/>
</svg>
