<svg width="24" height="24" viewBox="0 0 24 24" fill="none" xmlns="http://www.w3.org/2000/svg">
<path d="M19.6239 4.79141C18.2217 4.14802 16.7181 3.674 15.1459 3.40251C15.1173 3.39727 15.0887 3.41036 15.0739 3.43655C14.8805 3.7805 14.6663 4.2292 14.5163 4.58189C12.8254 4.32873 11.1431 4.32873 9.48679 4.58189C9.33676 4.22136 9.11478 3.7805 8.92053 3.43655C8.90578 3.41123 8.87718 3.39814 8.84855 3.40251C7.27725 3.67313 5.7736 4.14715 4.37052 4.79141C4.35838 4.79665 4.34797 4.80539 4.34106 4.81673C1.48894 9.07773 0.707629 13.234 1.09092 17.3387C1.09265 17.3588 1.10392 17.378 1.11953 17.3902C3.00127 18.7721 4.82406 19.6111 6.61301 20.1672C6.64164 20.1759 6.67197 20.1654 6.69019 20.1418C7.11337 19.5639 7.49059 18.9546 7.81402 18.3138C7.83311 18.2763 7.81489 18.2318 7.77588 18.2169C7.17754 17.99 6.6078 17.7132 6.05975 17.399C6.0164 17.3736 6.01293 17.3116 6.05281 17.282C6.16814 17.1955 6.2835 17.1056 6.39363 17.0148C6.41355 16.9983 6.44131 16.9948 6.46474 17.0052C10.0652 18.6491 13.9631 18.6491 17.521 17.0052C17.5445 16.9939 17.5722 16.9974 17.593 17.014C17.7032 17.1048 17.8185 17.1955 17.9347 17.282C17.9746 17.3116 17.972 17.3736 17.9286 17.399C17.3806 17.7193 16.8108 17.99 16.2116 18.2161C16.1726 18.2309 16.1553 18.2763 16.1744 18.3138C16.5047 18.9537 16.882 19.563 17.2973 20.141C17.3147 20.1654 17.3459 20.1759 17.3745 20.1672C19.1721 19.6111 20.9949 18.7721 22.8766 17.3902C22.8931 17.378 22.9035 17.3597 22.9053 17.3396C23.364 12.5941 22.1369 8.47189 19.6525 4.8176C19.6465 4.80539 19.6361 4.79665 19.6239 4.79141ZM8.35169 14.8394C7.26771 14.8394 6.37454 13.8442 6.37454 12.622C6.37454 11.3998 7.25039 10.4047 8.35169 10.4047C9.46163 10.4047 10.3462 11.4086 10.3288 12.622C10.3288 13.8442 9.45296 14.8394 8.35169 14.8394ZM15.6619 14.8394C14.5779 14.8394 13.6847 13.8442 13.6847 12.622C13.6847 11.3998 14.5606 10.4047 15.6619 10.4047C16.7718 10.4047 17.6563 11.4086 17.639 12.622C17.639 13.8442 16.7718 14.8394 15.6619 14.8394Z" fill="#5865F2"/>
</svg>
