<svg width="24" height="24" viewBox="0 0 24 24" fill="none" xmlns="http://www.w3.org/2000/svg">
<path d="M0 2C0 1.44772 0.447715 1 1 1H23C23.5523 1 24 1.44772 24 2C24 2.55228 23.5523 3 23 3H1C0.447716 3 0 2.55228 0 2Z" fill="#0F0F0F"/>
<path d="M0 12C0 11.4477 0.447715 11 1 11H23C23.5523 11 24 11.4477 24 12C24 12.5523 23.5523 13 23 13H1C0.447716 13 0 12.5523 0 12Z" fill="#0F0F0F"/>
<path d="M0 22C0 21.4477 0.447715 21 1 21H23C23.5523 21 24 21.4477 24 22C24 22.5523 23.5523 23 23 23H1C0.447716 23 0 22.5523 0 22Z" fill="#0F0F0F"/>
</svg>
