<svg width="600" height="336" viewBox="0 0 600 336" fill="none" xmlns="http://www.w3.org/2000/svg">
<path d="M306.732 259.136C365.456 187.096 294.479 19.1377 167.126 13.622C133.214 12.1515 101.892 27.775 69.1415 43.9914C52.0774 52.441 37.6548 58.2282 26.5465 72.3771C9.39579 94.2173 6.52896 127.245 8.4757 154.39C14.2538 235.285 88.0988 327.238 171.33 324.374C203.983 323.249 286.221 284.296 306.732 259.136Z" fill="#FDFE1F"/>
<path d="M159.488 9.69906C118.238 10.7162 44.3228 51.6865 37.0818 56.9143C-9.77355 91.537 -0.743873 175.383 26.522 227.715C66.656 304.511 131.621 332.937 176.087 327.972C207.298 324.962 295.147 284.838 312.049 258.361C367.373 186.276 296.258 10.1745 159.488 9.69906ZM69.9457 54.2473C59.5273 69.117 53.6536 86.5708 53.0417 104.478C37.8551 112.289 40.2656 114.394 19.4843 118.013C25.6973 73.1609 47.7653 65.4819 69.9457 54.2473ZM18.4922 128.471C35.5356 118.932 32.6582 119.204 52.8791 115.46C53.7984 135.521 58.049 155.227 65.4614 173.793C48.3448 181.084 55.1124 183.632 25.9255 188.782C19.7463 169.37 17.2273 148.932 18.4922 128.471ZM28.9354 197.694C54.6815 183.498 54.5219 188.79 69.7124 184.172C78.5187 203.943 89.7982 222.506 103.292 239.435C79.214 252.493 92.5761 248.047 61.529 255.593C47.7792 238.061 36.7941 218.547 28.9354 197.694ZM68.3923 263.804C73.7524 260.426 79.3385 257.42 85.1093 254.808C95.7624 251.883 110.479 248.406 110.479 248.406C109.018 244.18 123.823 267.349 154.356 285.531C134.158 299.28 136.9 295.132 117.423 302.151C98.6043 292.751 81.9392 279.717 68.3923 263.804ZM197.752 308.968C180.811 314.358 162.374 319.498 128.737 306.975C147.332 293.835 152.529 296.886 165.585 291.493C205.022 309.855 241.022 295.066 197.759 308.966L197.752 308.968ZM302.438 251.119C293.085 265.803 254.54 285.413 238.691 292.835C193.642 299.885 160.841 285.487 129.567 255.158C74.8244 201.3 30.3576 95.2202 89.2882 44.6213C124.24 27.7418 152.311 17.1383 187.53 24.5871C298.255 45.2048 349.913 190.966 302.444 251.117L302.438 251.119Z" fill="#0F0F0F"/>
<path d="M274.321 120.963C251.464 86.399 325.963 195.358 269.209 252.773C262.999 259.543 255.213 264.717 246.553 267.829C237.893 270.942 228.63 271.895 219.599 270.602C186.246 266.929 139.605 221.152 121.258 192.867C38.9184 66.7477 153.37 -13.9682 252.216 94.203C262.656 105.735 275.83 124.204 266.316 108.152C249.807 81.5766 226.211 60.0746 198.042 45.9363C156.032 25.3209 93.621 35.6088 85.6294 100.029C76.1257 179.62 164.874 272.717 218.383 278.816C286.885 287.389 323.57 195.385 274.321 120.963Z" fill="#0F0F0F"/>
<path d="M205.542 142.639C200.211 141.237 200.622 142.575 202.425 139.935C205.947 134.397 207.903 128.055 208.088 121.58C208.272 115.105 206.676 108.738 203.471 103.155C200.263 97.5729 195.564 92.983 189.872 89.8724C184.18 86.7619 177.707 85.2466 171.141 85.4874C167.605 74.0187 158.393 68.8154 156.61 70.6701C154.866 72.3969 158.096 78.2183 161.544 85.0209C162.913 87.7159 163.416 85.3536 150.642 89.3744C142.817 70.4491 133.098 73.5419 142.469 92.3946C139.321 94.3827 136.315 96.5854 133.466 98.9795C140.103 112.688 158.796 140.351 170.332 163.717C170.491 164.323 195.148 220.45 202.449 231.804C211.048 226.436 209.457 227.249 211.226 226.862C217.438 241.149 233.786 247.506 219.732 224.531C223.931 223.23 227.976 221.467 231.791 219.275C243.777 242.485 248.681 229.347 238.802 214.153C265.872 189.432 235.791 151.327 205.542 142.639ZM154.737 104.521C171.576 95.3532 183.312 91.7273 195.861 105.715C198.681 109.743 199.894 114.678 199.273 119.596C198.651 124.514 196.238 129.077 192.484 132.433C185.792 137.683 178.24 141.749 170.173 144.447C164.478 130.61 159.194 115.939 154.744 104.552L154.737 104.521ZM208.767 210.284C197.4 195.039 187.15 179.002 178.093 162.292C185.638 157.655 194.279 155.107 203.087 154.923C235.443 157.622 265.042 203.411 208.767 210.284Z" fill="#0F0F0F"/>
<path d="M570.732 259.136C629.456 187.096 558.48 19.1377 431.126 13.622C397.214 12.1515 365.892 27.775 333.142 43.9914C316.077 52.441 301.655 58.2282 290.547 72.3771C273.396 94.2173 270.529 127.245 272.476 154.39C278.254 235.285 352.099 327.238 435.331 324.374C467.983 323.249 550.221 284.296 570.732 259.136Z" fill="#FDFE1F"/>
<path d="M423.488 9.69906C382.238 10.7162 308.323 51.6865 301.082 56.9143C254.226 91.537 263.256 175.383 290.522 227.715C330.656 304.511 395.621 332.937 440.087 327.972C471.298 324.962 559.147 284.838 576.049 258.361C631.373 186.276 560.258 10.1745 423.488 9.69906ZM333.946 54.2473C323.527 69.117 317.654 86.5708 317.042 104.478C301.855 112.289 304.266 114.394 283.484 118.013C289.697 73.1609 311.765 65.4819 333.946 54.2473ZM282.492 128.471C299.536 118.932 296.658 119.204 316.879 115.46C317.798 135.521 322.049 155.227 329.461 173.793C312.345 181.084 319.112 183.632 289.925 188.782C283.746 169.37 281.227 148.932 282.492 128.471ZM292.935 197.694C318.682 183.498 318.522 188.79 333.712 184.172C342.519 203.943 353.798 222.506 367.292 239.435C343.214 252.493 356.576 248.047 325.529 255.593C311.779 238.061 300.794 218.547 292.935 197.694ZM332.392 263.804C337.752 260.426 343.339 257.42 349.109 254.808C359.762 251.883 374.48 248.406 374.48 248.406C373.018 244.18 387.823 267.349 418.356 285.531C398.158 299.28 400.9 295.132 381.423 302.151C362.604 292.751 345.939 279.717 332.392 263.804ZM461.752 308.968C444.811 314.358 426.374 319.498 392.737 306.975C411.332 293.835 416.529 296.886 429.585 291.493C469.023 309.855 505.022 295.066 461.759 308.966L461.752 308.968ZM566.438 251.119C557.085 265.803 518.54 285.413 502.691 292.835C457.642 299.885 424.841 285.487 393.567 255.158C338.824 201.3 294.358 95.2202 353.288 44.6213C388.24 27.7418 416.311 17.1383 451.53 24.5871C562.255 45.2048 613.913 190.966 566.444 251.117L566.438 251.119Z" fill="#0F0F0F"/>
<path d="M538.321 120.963C515.464 86.399 589.963 195.358 533.209 252.773C526.999 259.543 519.213 264.717 510.553 267.829C501.893 270.942 492.63 271.895 483.599 270.602C450.246 266.929 403.605 221.152 385.258 192.867C302.918 66.7477 417.37 -13.9682 516.216 94.203C526.656 105.735 539.83 124.204 530.316 108.152C513.807 81.5766 490.211 60.0746 462.042 45.9363C420.032 25.3209 357.621 35.6088 349.629 100.029C340.126 179.62 428.874 272.717 482.383 278.816C550.885 287.389 587.57 195.385 538.321 120.963Z" fill="#0F0F0F"/>
<path d="M456.284 164.66C445.838 165.632 435.376 163.914 425.942 159.675C423.618 158.627 424.171 159.331 423.539 156.827C414.773 121.941 415.118 128.244 409.257 74.7806C429.216 85.3831 436.691 88.9783 482.861 126.3C489.758 131.87 475.749 147.115 472.371 152.49C470.742 155.532 468.457 158.201 465.679 160.308C462.895 162.408 459.688 163.893 456.284 164.66ZM431.688 152.511C438.965 155.465 446.896 156.681 454.826 156.066C456.942 155.459 458.917 154.433 460.626 153.052C462.335 151.671 463.741 149.966 464.756 148.042C468.708 142.897 472.295 137.498 475.493 131.884C439.934 103.297 431.494 97.609 420.018 90.8344C421.779 111.761 425.684 132.419 431.685 152.491L431.688 152.511Z" fill="#0F0F0F"/>
<path d="M498.753 236.757C474.993 231.383 455.026 200.775 427.82 171.678C462.938 172.161 463.93 185.558 479.242 161.583C485.276 152.155 479.217 160.348 493.582 138.471C503.919 164.838 507.237 229.622 500.643 235.128L498.753 236.757ZM449.272 182.675C454.093 188.841 481.824 220.23 494.706 226.21C495.127 210.787 494.683 195.377 493.378 180.041C489.568 155.018 492.84 156.6 486.766 166.088C474.235 185.729 466.147 186.75 449.272 182.675Z" fill="#0F0F0F"/>
</svg>
