<svg width="320" height="320" viewBox="0 0 320 320" fill="none" xmlns="http://www.w3.org/2000/svg">
<path d="M29.6351 301.017C29.0618 300.929 28.5294 300.667 28.1099 300.266C27.6904 299.866 27.404 299.346 27.2895 298.777C26.6751 295.46 33.3407 281.035 33.3407 281.035C33.3407 281.035 29.7743 277.296 31.6431 270.27C32.4095 267.39 38.1791 255.142 42.1727 250.985C44.8511 248.196 49.6927 245.484 53.6927 246.433C53.8527 246.47 52.7103 247.515 60.7151 238.056C69.5151 227.656 91.0863 209.96 109.285 201.668C128.382 192.968 160.579 185.828 189.125 190.892C227.173 197.652 251.883 219.635 267.752 236.515C274.101 236.427 279.568 241.436 283.752 246.209C290.354 253.729 296.382 262.596 296.798 272.595C297.094 275.475 296.357 278.367 294.718 280.755C296.614 285.321 298.23 289.998 299.558 294.76C299.681 295.236 299.706 295.731 299.633 296.217C299.561 296.703 299.391 297.169 299.134 297.588C298.877 298.007 298.538 298.37 298.137 298.655C297.737 298.94 297.283 299.141 296.803 299.248C276.35 303.78 170.454 324.456 29.6351 301.017Z" fill="white"/>
<path d="M283.785 256.073C283.001 256.692 294.017 271.635 287.81 272.271C287.719 270.181 287.173 268.135 286.21 266.278C284.433 262.58 276.77 252.665 274.94 250.639C273.323 248.67 271.124 247.262 268.658 246.617C269.724 240.601 278.098 249.463 278.759 248.537C279.041 248.116 273.214 241.3 269.268 242.747C267.028 243.523 265.588 246.537 266.825 250.014C268.801 255.596 281.532 271.031 282.345 271.836C284.444 273.806 286.679 275.161 289.367 274.196C297.138 270.215 284.404 255.575 283.785 256.073ZM278.505 263.495C276.105 260.428 268.958 251.719 268.599 247.831C272.663 249.172 275.233 253.803 279.404 259.289C282.284 263.195 285.874 267.347 286.489 272.06C283.639 271.001 280.748 266.239 278.513 263.495H278.505Z" fill="#0F0F0F"/>
<path d="M246.419 283.185C245.576 267.985 220.944 259.919 220.637 262.246C220.443 263.057 229.453 264.905 237.568 273.019C245.309 280.868 243.575 287.875 239.968 289.092C240.799 284.545 237.911 280.292 234.33 277.399C229.325 273.337 222.578 271.734 216.296 270.199C207.575 268.147 194.399 265.83 189.002 273.179C185.576 258.923 213.205 262.907 213.435 261.915C213.997 260.062 186.943 255.638 185.362 269.662C185.104 271.978 185.537 274.319 186.605 276.391C187.673 278.462 189.33 280.172 191.367 281.305C196.571 284.505 202.821 283.743 208.565 284.479C223.331 286.228 228.501 292.305 236.976 292.83C243.314 293.135 246.642 289.196 246.419 283.185ZM217.523 282.75C203.845 279.019 194.978 282.636 190.099 275.583C193.423 268.34 208.319 271.225 215.637 272.966C223.365 274.82 234.271 277.351 237.426 285.078C238.026 286.443 238.184 287.961 237.88 289.422C232.115 289.524 227.027 285.34 217.523 282.75Z" fill="#0F0F0F"/>
<path d="M180.108 225.969C176.45 219.38 165.309 220.302 165.525 221.406C165.564 221.838 167.698 221.779 170.785 222.72C174.337 223.84 178.913 226.347 177.953 229.968C177.269 232.755 177.617 230.478 171.623 228.02C163.263 224.544 150.17 225.841 146.274 231.729C144.453 228.26 147.173 225.329 150.655 223.603C153.503 222.294 158.015 220.798 154.028 220.985C139.869 221.816 140.215 235.716 149.817 237.55C153.425 238.24 157.221 237.155 163.044 237.156C167.303 237.083 173.444 238.726 177.631 235.252C180.993 232.555 181.677 228.704 180.108 225.969ZM163.041 234.307C155.074 234.307 150.561 236.275 147.276 233.064C150.468 228.46 165.036 225.392 176.329 232.609C173.001 235.787 168.146 234.273 163.041 234.307Z" fill="#0F0F0F"/>
<path d="M43.6887 264.339C40.3767 270.475 38.0695 275.687 37.3735 275.467C36.7335 275.26 38.0135 269.494 41.4455 263.126C44.8775 256.758 49.0295 252.539 49.5575 252.971C50.1175 253.439 47.0039 258.203 43.6887 264.339Z" fill="#0F0F0F"/>
<path d="M124.16 267.839C116.351 257.855 97.9365 267.435 98.7829 268.763C99.2117 269.526 110.741 264.499 118.071 267.247C122.25 269.182 122.354 271.308 120.578 273.647C120.077 274.308 118.308 272.438 111.778 272.513C100.343 272.606 88.0981 279.135 82.2661 288.337C79.2629 286.974 78.7877 284.79 80.1541 281.777C82.9029 275.716 90.6837 271.55 90.3029 270.783C89.7365 269.449 74.8165 276.825 76.2229 286.07C77.3637 291.416 83.2133 293.062 89.1557 292.207C95.3877 291.252 131.535 279.425 124.16 267.839ZM84.3109 288.91C92.1157 279.438 106.663 273.195 118.762 275.507C112.8 280.699 91.7701 289.983 84.3109 288.91Z" fill="#0F0F0F"/>
<path d="M219.725 245.892C217.224 243.3 217.791 240.726 219.971 240.251C223.136 240.094 226.265 240.974 228.884 242.756C231.604 244.516 237.147 248.547 228.109 244.147C222.973 241.646 219.781 242.465 220.293 242.444C220.293 242.444 220.282 242.422 220.304 242.548C220.205 245.4 235.863 253.355 233.643 248.003C232.616 245.851 233.589 246.611 234.381 247.532C236.152 249.59 234.25 254.924 223.095 248.26C221.861 247.641 220.726 246.843 219.725 245.892Z" fill="#0F0F0F"/>
<path d="M100.565 239.74C96.5175 240.049 89.5735 242.688 91.7895 246.056C93.7223 248.9 99.1751 247.95 102.578 247.19C112.14 244.9 111.817 239.049 100.565 239.74ZM107.34 243.473C103.881 245.897 88.8503 246.979 95.5207 243.225C102.09 239.528 111.201 240.764 107.34 243.473Z" fill="#0F0F0F"/>
<path d="M144.709 256.745C138.503 262.36 133.546 259.465 134.387 255.988C134.707 254.651 136.648 252.582 135.701 255.028C135.533 255.323 135.437 255.653 135.422 255.992C135.407 256.331 135.472 256.669 135.612 256.977C135.753 257.286 135.965 257.557 136.231 257.768C136.496 257.979 136.808 258.123 137.141 258.19C139.267 258.691 143.92 255.518 144.213 254.022C144.407 252.504 144.418 251.124 139.96 252.571C131.952 255.167 139 251.227 141.56 250.507C143.893 250.027 145.821 250.329 146.163 252.694C146.294 253.437 146.229 254.202 145.974 254.913C145.719 255.623 145.283 256.255 144.709 256.745Z" fill="#0F0F0F"/>
<path d="M57.057 288.608C54.4074 286.489 57.7162 282.548 61.2458 281.088C64.0362 279.936 65.017 281.158 64.8106 281.283C63.7527 281.358 62.7346 281.717 61.8634 282.321C57.929 284.772 56.9034 287.998 59.6106 287.073C61.2814 286.378 62.7759 285.318 63.985 283.971C64.3619 283.646 64.6393 283.222 64.7854 282.746C64.9315 282.27 64.9402 281.763 64.8106 281.283C64.9706 280.851 66.7162 282.243 65.089 284.803C63.4618 287.363 59.3882 290.473 57.057 288.608Z" fill="#0F0F0F"/>
<path d="M268.437 289.969C268.116 290.507 267.609 290.908 267.011 291.096C266.413 291.284 265.767 291.245 265.196 290.986C261.412 289.559 259.261 284.161 260.313 282.951C260.705 282.414 260.658 283.188 260.815 283.658C261.555 285.449 262.735 287.023 264.245 288.236C266.645 290.226 267.956 289.223 265.605 285.881C264.813 284.761 262.809 282.455 261.37 282.55C260.932 282.577 260.695 282.85 260.57 282.778C260.469 282.764 260.41 282.222 261.129 281.83C263.717 280.43 270.146 286.45 268.437 289.969Z" fill="#0F0F0F"/>
<path d="M176.985 278.08C175.422 273.788 175.771 270.908 175.988 270.923C176.596 270.851 177.748 283.91 189.795 288.683C195.065 290.774 200.699 290.779 206.34 291.844C210.742 292.676 213.228 294.044 213.111 294.278C212.988 294.579 210.431 293.76 206.123 293.329C197.663 292.488 182.598 293.475 176.985 278.08Z" fill="#0F0F0F"/>
<path d="M151.386 243.597C142.41 242.595 137.66 236.781 138.245 236.328C138.78 235.848 142.293 240.608 151.61 241.659C158.703 242.459 166.33 241.032 166.436 241.819C166.519 242.457 157.839 244.32 151.386 243.597Z" fill="#0F0F0F"/>
<path d="M129.156 280.89C123.05 288.03 110.583 293.612 110.145 292.58C109.857 291.9 121.153 286.463 127.265 279.289C131.18 274.694 131.575 270.57 129.54 266.06C128.26 263.21 126.26 260.65 126.585 260.375C127.012 260.01 138.764 269.657 129.156 280.89Z" fill="#0F0F0F"/>
<path d="M222.78 254.025C217.625 251.451 214.522 247.222 214.975 246.825C215.428 246.428 218.655 249.771 223.652 252.28C228.649 254.788 233.265 255.268 233.239 255.846C233.21 256.52 227.946 256.606 222.78 254.025Z" fill="#0F0F0F"/>
<path d="M299.165 288C296.026 278.744 296.177 281.771 297.354 279.217C302.871 266.646 285.393 236.931 267.754 234.672C211.034 166.937 107.442 173.392 53.7397 244.74C42.6789 241.92 29.8245 263.94 29.4389 273.947C29.4095 276.56 30.1867 279.119 31.6645 281.275C30.5504 283.836 29.4968 286.423 28.5045 289.033C26.6197 293.993 26.1413 298.352 27.0501 298.608C28.6277 299.057 32.0261 289.099 34.4421 283.468C41.4261 286.443 50.4181 274.963 49.0773 274.067C48.4261 273.632 39.8213 282.604 35.8885 280.441C27.8885 276.587 38.5013 257.134 43.9365 251.984C46.9765 249.032 52.7893 246.374 54.4965 248.984C57.1861 251.988 54.3877 263.96 55.2005 264.275C56.0757 264.641 58.5381 258.452 58.6757 253.264C97.9349 201.182 165.311 184.062 222.063 210.275C233.341 215.459 236.023 217.635 236.178 217.379C236.26 217.252 230.978 213.992 230.849 213.916C175.431 181.472 101.825 194.448 58.4261 249.897C58.1614 248.332 57.3446 246.913 56.1237 245.897C108.965 180.244 205.922 170.425 264.237 234.652C263.027 234.774 261.853 235.137 260.786 235.721C259.719 236.305 258.781 237.098 258.026 238.052C251.847 246.15 264.511 262.38 265.433 261.72C266.357 261.097 256.05 245.74 260.679 240.097C262.402 237.9 265.545 237.697 268.277 238.219C271.801 239.038 275.084 240.669 277.866 242.98C286.073 249.51 293.757 260.872 294.941 272.961C295.513 278.779 292.045 281.694 287.679 281.39C282.972 281.038 279.127 276.878 275.745 273.673C270.175 268.307 263.841 263.136 273.973 275.32C277.709 279.688 281.626 284.153 287.365 284.726C289.617 284.98 291.888 284.473 293.818 283.286C294.556 285.206 295.257 287.14 295.919 289.091C300.321 301.98 302.145 296.724 299.165 288Z" fill="#0F0F0F"/>
<path d="M89.2801 200.64C92.0865 197.891 96.7793 191.761 96.1281 187.915C95.4081 183.67 82.4161 170.966 69.1041 168.939C63.0017 161.073 47.5665 151.414 42.4961 149.385C37.9649 147.574 31.7489 146.873 28.1425 149.251C21.3569 153.731 23.9025 169.101 23.9825 172.566C24.1809 182.134 31.7377 194.95 31.4689 197.678C31.2641 199.769 28.6513 199.649 30.3105 207.379C31.3525 212.473 32.688 217.502 34.3105 222.441C35.2033 225.073 36.4481 227.913 38.9825 229.049C42.6785 230.701 50.0385 228.653 53.8225 226.592C55.1249 225.883 55.7777 225.782 56.8625 227.097C58.9953 229.699 61.5585 234.838 66.0465 234.486C67.3265 234.385 67.6465 233.697 67.5857 232.435C67.4686 229.722 66.7482 227.07 65.4769 224.67C67.016 224.057 68.4065 223.123 69.5553 221.929C71.2177 223.6 76.6497 228.649 79.0433 228.821C81.4401 228.992 83.0881 226.193 82.8449 223.821C82.3301 221.484 81.3638 219.271 80.0001 217.305C79.0401 215.529 79.4273 215.624 83.2673 210.477C86.0929 214.275 87.2785 216.174 89.0273 217.113C89.6845 217.511 90.4516 217.687 91.2163 217.617C91.9809 217.546 92.703 217.233 93.2769 216.723C95.4257 214.395 92.6369 209.87 88.7681 203.547C88.0353 202.355 88.0561 201.827 89.2801 200.64Z" fill="#FFC5F6"/>
<path d="M41.6321 185.667C41.3368 188.283 41.9336 190.922 43.3258 193.156C44.7181 195.39 46.8241 197.089 49.3025 197.976C50.9839 198.588 52.7993 198.734 54.5571 198.401C56.3148 198.067 57.9499 197.264 59.2897 196.078C60.63 194.894 61.6261 193.369 62.1735 191.666C62.7208 189.963 62.7991 188.144 62.4001 186.4C60.1697 175.885 43.8001 174.093 41.6321 185.667Z" fill="#92FCFF"/>
<path d="M59.396 193.76C57.8561 195.652 55.634 196.863 53.2093 197.131C50.7846 197.399 48.3518 196.702 46.436 195.192C42.164 192.106 42.3576 187.672 41.7032 187.709C41.2536 187.73 40.9032 193.053 45.1704 196.759C46.3721 197.847 47.7939 198.664 49.3392 199.154C50.8845 199.645 52.5173 199.797 54.1266 199.601C55.736 199.405 57.2844 198.865 58.6668 198.018C60.0491 197.171 61.2331 196.036 62.1384 194.691C63.3501 192.894 64.0198 190.786 64.068 188.619C64.1368 181.562 57.78 175.407 50.6712 176.541C45.5304 177.29 41.8712 181.002 41.4728 184.325C41.2152 186.066 41.5144 186.994 41.684 186.991C41.9032 186.999 42.004 186.066 42.5432 184.611C44.0664 180.231 50.7192 177.32 55.6472 179.707C60.7784 182.13 63.1064 189.12 59.396 193.76Z" fill="#0F0F0F"/>
<path d="M54.8226 204.909C68.7426 203.667 74.9442 187.437 65.3202 176.609C62.5011 173.403 58.5831 171.369 54.3385 170.908C50.0939 170.447 45.8306 171.593 42.389 174.12C41.3332 174.756 40.4428 175.634 39.7906 176.68C39.8994 176.793 40.8002 175.856 42.7618 174.693C57.5026 165.92 72.0002 180.48 67.3394 193.502C63.901 203.413 50.6018 206.997 41.8802 198.853C36.3682 193.771 36.6242 187.257 36.149 187.296C35.829 187.296 35.741 194.485 41.0178 199.747C42.8119 201.55 44.974 202.945 47.3565 203.835C49.739 204.726 52.2857 205.092 54.8226 204.909Z" fill="#0F0F0F"/>
<path d="M93.6706 181.473C87.0943 174.694 78.8228 169.799 69.7154 167.297C61.8915 159.101 52.6031 152.442 42.3298 147.662C16.4098 137.326 17.3106 171.465 29.3442 196.326C27.9752 206.564 29.614 216.98 34.061 226.304C34.4676 227.534 35.1996 228.631 36.1794 229.478C37.1591 230.326 38.3501 230.892 39.6258 231.118C44.5522 232.176 51.3298 230.027 55.8594 227.417C56.8194 228.616 59.8834 232.272 60.9346 233.313C65.7586 238.097 70.0738 233.771 68.3218 228.833C66.4018 223.393 64.869 226.689 70.2162 223.553C72.9986 226.601 76.2674 230.958 80.125 229.752C81.0986 229.418 81.9519 228.804 82.5781 227.987C83.2042 227.17 83.5754 226.186 83.645 225.16C83.9202 222.371 82.3986 219.399 80.8338 216.502C80.0834 215.107 80.453 216.742 83.2962 212.182C86.5138 216.092 87.973 217.998 90.277 218.484C91.2531 218.65 92.2552 218.426 93.0672 217.859C93.8793 217.293 94.4362 216.43 94.6178 215.457C95.2466 212.859 93.6242 209.84 92.0578 207.137C88.3618 200.801 88.2066 205.414 94.2802 197.084C100.443 188.267 97.7074 185.643 93.6706 181.473ZM25.2802 171.614C27.7408 170.666 30.1104 169.498 32.3602 168.123C34.6546 166.67 35.8802 165.497 35.709 165.243C35.4546 164.846 33.4162 166.107 24.9746 169.331C23.9074 160.096 25.0914 148.707 34.373 149.159C38.7762 149.34 44.0242 151.996 47.813 154.244C37.341 163.74 36.9714 163.963 37.1378 164.225C37.3042 164.487 39.1666 163.681 41.8498 161.846C44.6273 159.88 47.2869 157.752 49.8146 155.473C70.4082 168.505 81.861 186.652 83.6322 196.593C81.0722 198.526 74.9474 203.572 72.4962 205.791C66.773 202.404 61.7986 207.377 62.3506 212.427C59.4482 213.78 53.005 217.132 50.1906 218.761C39.9522 211.175 28.5442 193.164 25.2802 171.614ZM37.981 226.459C36.2818 224.004 31.8514 213.156 31.5618 200.568C36.605 209.528 45.5474 221.161 55.6386 224.624C51.2002 226.92 40.565 230.19 37.981 226.459ZM65.397 226.843C66.045 228.361 67.0626 230.476 66.4418 232.001C64.9794 235.593 61.277 230.392 57.2498 226.561C59.5506 225.072 57.9266 225.524 61.3282 225.889C65.7282 226.331 64.4802 224.678 65.397 226.843ZM61.5906 223.443C58.2491 222.985 55.0383 221.841 52.1602 220.083C55.9455 218.63 59.5441 216.731 62.8802 214.427C63.8674 216.804 66.0386 218.977 68.669 221.856C66.5266 223.094 64.0567 223.648 61.5906 223.443ZM80.9042 224.835C80.653 227.024 78.9106 228.079 76.3922 225.944C74.1963 223.91 72.1289 221.742 70.2018 219.452C67.2066 216.204 61.989 211.951 66.3122 207.806C66.9284 207.217 67.7093 206.831 68.5508 206.697C69.3924 206.564 70.2546 206.69 71.0226 207.059C74.3794 208.94 81.293 221.392 80.9042 224.835ZM74.0914 206.991C77.6903 204.753 81.0023 202.084 83.9538 199.043C84.187 201.692 83.8936 204.362 83.0907 206.898C82.2878 209.434 80.9911 211.786 79.2754 213.819C77.8067 211.357 76.0679 209.067 74.0914 206.991ZM91.8706 211.531C93.365 215.068 91.9218 216.574 90.6466 216.352C89.1106 216.118 87.8562 214.348 84.1074 210.752C84.853 209.328 85.4386 207.825 85.8514 206.272C86.5538 205.632 87.301 204.929 88.0754 204.171C89.5308 206.521 90.7998 208.982 91.8706 211.531ZM86.5602 202.104C87.3938 191.56 79.661 179.166 73.0754 171.137C84.6178 176.467 94.5154 186.067 94.5538 188.512C94.1554 192.945 89.485 198.667 86.5602 202.104Z" fill="#0F0F0F"/>
<path d="M207.067 108.865C211.751 103.496 211.728 104.436 215.738 106.129C230.365 112.296 279.058 137.24 279.218 137.329C287.807 142.273 291.639 142.755 287.912 151.553C284.072 160.628 273.736 180.756 267.645 188.283C264.808 191.483 262.31 194.968 260.192 198.683C256.915 204.892 248.192 209.253 250.853 210.39C261.813 215.067 264.304 219.75 267.227 229.569C267.379 230.08 267.33 230.294 266.8 230.6C264.899 231.701 260.4 233.95 258.541 232.764C257.002 231.78 256.563 228.304 253.528 224.084C251.762 221.795 249.413 220.021 246.728 218.948C244.043 217.875 241.119 217.542 238.261 217.984C232.981 219.161 235.463 219.148 183.861 247.529C169.53 255.411 165.941 253.798 161.981 261.806C158.837 268.161 158.738 275.477 154.162 277.155C152.307 277.835 148.123 277.508 146.482 275.819C143.68 272.939 146.347 262.795 147.509 258.94C148.799 254.664 147.819 255.865 151.922 252.163C155.103 249.293 151.05 247.131 102.333 212.859C101.615 212.477 100.796 212.327 99.9889 212.43C94.1745 225.163 102.191 234.001 90.3185 232.846C88.0337 232.625 87.4097 232.153 86.6385 230.446C81.0481 217.99 86.6865 202.396 100.719 194.926C107.759 191.179 91.7057 200.252 160.579 164.516C178.787 155.08 184.082 135.22 207.067 108.865Z" fill="#92FCFF"/>
<path d="M286.693 140.219C275.41 132.848 261.13 127.172 248.862 120.187C239.397 114.632 228.925 110.462 218.966 105.171C209.037 99.8909 208.979 102.675 181.736 140.691C167.32 160.872 164.12 160.091 138.376 173.669C100.982 193.12 93.784 195.185 91.2 200.64C82.1104 210.965 81.3824 227.153 85.44 232.888C86.9984 234.997 89.2384 235.387 91.856 235.128C102.336 233.881 96.3664 228.88 100.691 214.233C112.31 222.333 97.9632 210.873 150.867 250.713C145.392 254.832 143.773 262.622 143.178 269.433C142.949 273.401 143.178 277.259 148.202 278.944C152.438 280.422 157.141 278.64 158.618 275.2C159.888 272.248 161.043 262.72 167.757 256.649C171.485 255.656 175.083 254.227 178.477 252.393C181.12 251.065 218.517 230.529 236.989 219.478C238.98 219.118 241.023 219.164 242.997 219.613C244.97 220.062 246.831 220.906 248.47 222.093C256.922 228.285 253.27 239.129 265.165 234.093C268.142 232.833 269.541 231.533 268.685 228.189C266.422 219.731 261.053 212.349 252.61 209.408C266.635 197.299 288.906 155.141 291.341 147.438C292.579 143.454 289.078 141.87 286.693 140.219ZM95.1456 226.896C94.8832 230.816 95.24 230.907 91.4656 231.264C90.2272 231.379 89.3024 231.377 88.5856 230.485C86.304 227.261 86.1856 215.107 91.4528 206.091C93.4645 208.543 95.7907 210.72 98.3712 212.565C96.5094 217.13 95.4193 221.973 95.1456 226.896ZM157.968 265.661C156.091 270.129 155.578 272.861 155.19 273.627C154.17 276.011 149.174 276.347 147.49 273.947C146.258 272.517 146.552 257.689 153.186 252.406C155.867 254.376 158.913 255.794 162.147 256.577C165.226 257.192 161.85 256.32 157.968 265.661ZM260.394 219.321C262.511 222.52 264.059 226.061 264.97 229.787C263.846 230.395 262.667 230.894 261.45 231.278C256.882 232.312 259.715 225.337 250.466 219.118C241.536 213.401 238.176 219.888 250.077 211.413C254.24 212.939 257.839 215.698 260.394 219.321ZM288.216 146.504C286.694 151.702 264.886 196.286 249.976 208.061C243.576 213.213 183.906 245.806 176.902 249.269C169.786 252.781 166.582 253.809 162.899 253.046C157.619 251.952 159.067 251.862 115.034 219.165C107.973 214.057 93.5168 205.929 94.6304 202.621C95.9664 198.781 107.134 194.333 110.763 192.512C177.458 157.792 168.419 166.822 195.243 128.032C197.896 124.212 210.198 106.281 213.822 106.933C215.63 107.253 277.608 138.649 281.779 141.085C288.358 145.049 288.594 145.249 288.216 146.504Z" fill="#0F0F0F"/>
<path d="M271.304 127.853C271.405 120.932 270.089 114.064 267.436 107.671C264.783 101.278 260.85 95.4958 255.879 90.6799C238.82 73.7407 211.959 84.6319 211.959 84.6319L209.416 87.6559C209.416 87.6559 207.844 84.6319 201.189 86.0831C194.535 87.5359 184.287 103.085 183.069 107.869C181.375 114.525 186.186 120.808 186.186 120.808C186.186 120.808 185.65 120.606 183.015 125.437C180.38 130.269 184.717 144.269 184.717 144.269C184.717 144.269 177.037 132.355 176.92 123.569C176.887 120.952 176.692 112.209 174.658 110.577C174.199 109.787 171.655 108.065 172.847 102.449C173.957 97.0095 179.034 96.8415 181.061 94.0047C181.776 92.8311 182.041 91.4378 181.805 90.084C181.57 88.7301 180.85 87.5079 179.781 86.6447C172.261 80.9295 165.823 92.0847 165.484 91.5967C163.397 88.416 160.85 85.5634 157.924 83.1327C150.98 77.9087 144.954 79.3647 143.474 82.0719C142.364 84.0463 143.916 86.0607 145.109 88.0079C138.456 87.1503 131.293 88.8303 133.884 93.9279C134.693 95.5279 136.968 95.7567 142.266 98.2063C137.514 99.3071 132.506 100.046 133.087 103.614C134.01 108.539 140.821 106.203 146.996 109.945C148.152 110.493 149.1 111.4 149.699 112.531C150.297 113.662 150.513 114.957 150.316 116.221C149.648 120.637 148.141 122.752 152.098 127.693C155.25 131.53 157.434 136.068 158.466 140.925C159.125 145.536 165.879 156.901 165.879 156.901L155.501 164.533L144.781 161.723C144.781 161.723 147.12 149.265 143.831 143.024C140.541 136.784 137.856 133.222 129.197 131.947C120.538 130.672 116.578 131.275 116.645 137.787C116.712 144.299 117.853 168.262 117.988 172.827C118.122 177.392 124.834 178.936 127.519 179.067C139.181 179.651 124.248 177.057 123.912 187.819C123.668 195.67 122.712 211.11 122.712 211.11C118.112 211.24 113.666 212.798 109.991 215.568C103.871 220.197 103.087 228.121 106.151 231.417C109.215 234.713 134.951 235.097 134.951 235.097C134.951 235.097 144.208 235.881 146.799 232.115C149.389 228.349 149.308 216.581 149.308 216.581C149.308 216.581 159.508 227.094 167.589 228.821C175.671 230.547 190.028 223.643 196.696 219.641C203.365 215.64 230.432 192.182 230.432 192.182C230.432 192.182 247.301 193.515 255.303 189.513C263.304 185.512 268.248 177.353 268.17 170.528C268.123 166.418 267.703 162.321 266.914 158.288C277.056 146.605 275.25 130.72 271.304 127.853Z" fill="white"/>
<path d="M201.253 96.3196C197.957 98.872 194.844 101.652 191.936 104.64C189.16 107.965 187.434 112.039 186.975 116.347C186.514 120.654 187.342 125 189.352 128.836C190.17 130.332 190.538 132.256 191.503 133.662C197.383 142.227 204.589 150.318 214.863 151.902C222.735 153.113 232.162 150.635 237.178 144.448C238.735 142.528 239.738 140.656 241.364 138.792C247.552 131.684 248.903 120.785 239.536 107.372C236.596 103.61 233.183 100.242 229.381 97.3516C221.541 90.6636 208.632 90.1516 206.48 90.9708C203.84 91.9564 203.404 94.5084 201.253 96.3196Z" fill="#92FCFF"/>
<path d="M156.496 212.159C166.061 225.809 179.056 220.275 179.344 221.259C180.003 222.39 164.279 228.499 154.08 213.843C144.416 199.953 152.93 186.137 153.997 187.092C154.823 187.571 147.28 199.017 156.496 212.159Z" fill="#0F0F0F"/>
<path d="M272.946 129.06C275.066 124.908 270.944 108.807 267.956 103.492C257.92 85.652 242.24 78.7192 222.162 80.4792C214.527 81.7592 211.746 82.2232 208.584 85.4808C200.143 81.5192 192.463 88.6648 186.866 96.1688C180.887 104.169 177.832 113.001 183.936 120.954C180.084 124.66 180.244 129.446 181.351 134.77C176.039 119.263 179.844 116.778 177.511 111.382C176.391 108.742 172.431 103.014 177.24 99.4312C179.074 98.0456 182.335 96.9288 183.495 93.7224C186.154 85.9784 174.816 77.3592 166.141 89.6104C155.253 70.0904 137.981 76.372 140.581 85.276C131.314 84.1112 126.648 94.1032 134.279 97.8872C133.28 98.2007 132.385 98.7804 131.691 99.5641C130.997 100.348 130.53 101.306 130.34 102.335C129.757 111.468 141.941 110.191 145.54 112.353C150.429 115.196 144.842 118.862 147.023 123.842C148.722 127.914 151.9 127.342 155.424 136.679C157.812 143.036 158.578 147.854 164.085 156.22C160.679 157.625 157.546 159.617 154.828 162.105C151.761 161.11 148.64 160.295 145.479 159.663C148.405 149.302 145.716 134.383 133.816 130.783C129.471 129.542 119.232 127.841 116.165 131.263C114.085 133.586 114.421 133.983 114.682 150.489C114.863 161.857 115.357 166.798 115.839 173.049C116.663 178.129 120.365 180.116 125.492 180.729C116.44 189.674 121.032 210.745 119.447 210.793C107.994 211.215 101.252 219.99 102.384 228.326C103.287 237.084 117.669 236.054 125.584 236.783C147.744 238.594 151.556 234.937 151.269 221.004C151.239 219.572 150.712 220.404 155.404 224.252C162.698 230.172 171.272 232.964 180.168 229.782C192.648 225.318 212.205 213.332 231.351 194.084C251.479 195.902 269.391 189.874 269.94 170.244C269.924 166.106 269.501 161.98 268.679 157.924C274.858 149.588 279.309 136.772 272.946 129.06ZM208 92.4248C212.32 90.524 228.516 95.332 239.253 110.798C243.413 116.822 245.986 122.478 243.44 129.302C239.976 138.913 231.989 149.142 221.863 150.567C209.968 152.487 192.37 140.382 188.461 120.831C189.261 118.202 188.591 110.921 198.557 101.05C203.2 96.5 205.351 95.5736 208 92.4264V92.4248ZM184.231 110.719C185.148 103.561 196.804 85.5272 206.565 87.8392C200.444 95.556 187.56 101.59 185.213 117.522C184.256 115.391 183.916 113.034 184.231 110.719ZM134.72 91.1832C135.647 89.5928 138.72 88.6552 140.568 88.916C144.783 89.6408 143.458 89.9768 146.575 91.7128C149.792 93.4728 152.52 95.0728 154.781 96.5816C148.775 101.575 153.381 101.734 147.952 99.5432C146.312 98.9192 147.821 99.34 137.976 95.1688C136.861 94.8565 135.834 94.2897 134.975 93.5128C134.503 92.6296 134.264 91.9992 134.72 91.1816V91.1832ZM151.813 124.358C148.685 120.903 151.431 119.569 151.503 115.518C157.456 116.689 162.392 114.436 162.197 113.854C161.978 113.151 157.16 114.678 151.157 113.108C149.479 107.895 141.642 106.628 136.62 105.785C131.89 103.657 134.229 100.281 140.62 100.33C149.388 103.646 149.871 102.998 149.61 103.724C149.058 105.266 149.01 106.302 149.29 106.406C149.911 106.625 151.554 103.191 154.64 99.8456C157.68 96.4552 160.94 94.4952 160.661 93.8968C160.533 93.6248 159.506 93.7688 158.023 94.4664C155.992 95.412 159.077 95.2664 148.448 88.6424C139.968 83.0744 146.029 79.148 152.468 81.3672C157.516 83.1 161.493 87.884 164.541 92.2472C162.264 96.756 162.141 100.366 162.621 100.354C163.023 100.386 163.471 96.7032 166.813 92.0904C172.815 83.9144 178.532 85.5304 180.298 89.1352C183 94.5112 175.781 94.8952 173.026 99.1416C172.252 100.286 171.745 101.59 171.543 102.957C171.341 104.324 171.45 105.718 171.861 107.038C171.444 107.994 170.797 108.833 169.976 109.478C167.367 111.449 162.37 113.081 162.578 113.722C162.762 114.303 170.309 112.866 172.876 109.644C174.292 112.638 175.096 112.188 174.933 117.313C170.4 123.409 158.423 126.801 151.813 124.358ZM164.072 126.998C168.218 126.035 171.992 123.88 174.928 120.799C175.036 124.324 175.645 127.816 176.738 131.169C171.104 133.865 165.173 135.89 159.066 137.201C154.301 121.788 150.733 130.529 164.072 126.996V126.998ZM159.432 138.399C165.684 137.649 171.715 135.626 177.156 132.457C177.604 133.801 178.17 135.337 178.741 136.721C173.003 139.48 166.961 141.556 160.738 142.906C160.309 141.479 159.895 139.97 159.428 138.399H159.432ZM147.053 226.62C146.093 235.761 133.213 232.895 117.293 232.522C113.66 232.398 106.848 231.857 105.882 228.348C124.104 230.353 141.106 229.796 141.1 229.065C141.093 228.334 126.506 228.348 105.695 225.961C105.759 224.502 106.053 223.062 106.567 221.695C109.784 213.974 120.127 211.31 127.607 214.031C131.852 215.577 133.482 217.862 133.773 217.567C134.093 217.298 130.839 212.524 123.871 211.154C123.911 204.041 122.967 190.722 127.223 184.991C129.423 182.03 133.392 180.29 136.812 181.719C146.58 185.806 147.784 220.082 147.048 226.62H147.053ZM214.68 191.23C214.629 191.996 226.813 193.593 227.653 193.694C214.362 205.143 195.132 219.934 178.839 225.996C168.439 229.871 158.719 224.097 151.109 216.026C148.869 163.282 130.117 181.511 121.349 175.3C120.91 175.009 120.543 174.622 120.278 174.167C120.012 173.712 119.855 173.202 119.818 172.676C119.338 166.463 118.858 161.761 118.679 150.409C118.424 134.305 118.309 134.508 119.252 133.881C120.26 133.42 121.356 133.184 122.464 133.188C123.416 145.905 122.964 170.908 124.056 170.882C124.684 170.868 125.768 146.29 124.826 133.223C127.496 133.411 130.146 133.817 132.751 134.434C144.232 137.67 145.973 154.974 141.112 165.634C139.789 168.409 138.77 169.846 139.008 170.049C139.384 170.369 142.266 167.329 144.024 163.593C155.141 165.718 167.064 170.258 174.556 178.926C181.149 186.462 191.676 210.766 193.61 209.634C194.108 209.35 192.596 205.561 190.111 199.434C189.58 198.124 189.349 198.855 194.636 201.994C201.631 206.095 201.808 205.087 195.826 200.287C186.386 192.415 187.666 193.345 185.399 188.713C179.741 177.217 173.986 169.59 159.101 163.644C161.554 162.301 163.805 160.618 165.788 158.646C166.957 160.225 170.704 164.689 171.172 164.266C171.744 163.767 166.085 157.783 161.647 145.751C160.588 142.754 160.508 145.348 170.152 142.071C183.621 137.511 176.018 134.452 183.97 146.652C188.191 153.079 196.597 163.154 206.103 167.772C210.695 169.966 213.511 170.364 213.559 170.172C213.879 169.212 201.672 166.516 192.072 152.289C188.506 147.026 185.78 139.969 186.61 141.337C190.396 148.038 196.051 153.492 202.885 157.033C212.853 162.153 226.368 163.282 235.7 157.81C239.054 155.743 242.004 153.083 244.408 149.961C243.228 154.857 243.09 160.225 246.181 164.15C239.879 167.653 232.935 169.85 225.765 170.61C219.322 171.191 215.304 170.1 215.164 170.655C214.908 171.218 224.967 175.838 240.487 170.351C240.376 171.549 240.025 172.712 239.453 173.77C238.229 176.089 217.132 175.85 217.095 176.999C217.053 178.385 232.445 178.559 236.335 177.959C237.737 180.838 239.814 183.335 242.388 185.239C244.963 187.143 247.959 188.396 251.122 188.894C236.984 193.716 214.81 189.137 214.676 191.23H214.68ZM253.783 187.839C250.499 187.477 247.339 186.378 244.539 184.623C241.739 182.869 239.372 180.505 237.613 177.708C238.887 177.48 240.084 176.942 241.1 176.14C246.375 181.038 253.369 183.657 260.564 183.431C258.558 185.261 256.265 186.75 253.778 187.839H253.783ZM261.783 182.175C254.57 182.079 247.588 179.617 241.909 175.169C242.413 174.292 242.756 173.333 242.922 172.335C243.797 167.617 241.436 170.721 248.951 166.518C254.405 169.513 261.045 166.38 265.652 161.542C266.525 169.047 266.692 176.582 261.775 182.175H261.783ZM273.2 138.793C272.368 148.073 262.447 164.042 253.215 163.655C242.221 163.196 247.952 138.071 262.58 127.975C264.679 126.623 266.173 126.57 266.162 126.241C266.274 125.753 261.948 124.625 254.602 131.783C258.196 119.98 253.445 112.34 253.133 112.487C251.912 112.946 261.341 124.127 244.365 146.151C237.634 154.841 231.357 159.063 219.861 158.615C196.436 157.831 183.173 135.047 184.741 126.209C185.116 125.163 185.765 124.237 186.621 123.529C191.952 147.729 221.892 168.526 241.264 140.858C250.14 127.85 249.669 119.982 241.893 108.938C232.672 95.9896 218.564 89.3016 210.351 89.5C211.199 88.3846 212.237 87.428 213.418 86.6744C216.54 86.1308 219.752 86.4722 222.69 87.66C241.655 94.4024 252.546 112.23 252.93 112.047C254.557 111.535 243.053 91.8968 223.626 84.9688C221.935 84.38 221.968 84.5544 222.677 84.4344C245.052 82.484 260.279 92.7992 266.72 110.684C268.012 114.546 269.836 123.494 269.54 126.502C269.54 126.617 267.871 126.047 267.788 126.428C267.62 126.967 274.149 128.86 273.192 138.793H273.2Z" fill="#0F0F0F"/>
<path d="M113.139 98.8558C111.043 109.075 111.048 108.894 111.081 109.056C111.401 110.656 116.305 104.547 121.862 103.936C119.51 106.872 117.686 110.195 116.47 113.755L123.99 112.293C126.126 111.877 128.097 112.501 127.413 113.299C123.802 116.023 120.381 118.989 117.173 122.177C103.867 135.208 104.373 137.521 102.254 140.465C101.173 141.717 100.161 143.025 99.2255 144.389C97.8559 146.829 97.4543 150.659 94.2767 149.432C91.3519 148.302 85.5071 147.382 85.2975 143.414C84.9887 137.625 94.2975 113.92 113.137 98.8542L113.139 98.8558Z" fill="#92FCFF"/>
<path d="M78.2751 144.395C76.3711 140.224 85.5775 143.52 86.3999 143.528C88.9599 143.542 89.6079 140.448 93.8447 138.513C96.1151 137.476 95.7295 145.958 96.5759 147.174C96.8703 147.532 97.2383 147.822 97.6559 148.025C99.506 149.101 101.267 150.323 102.923 151.68C103.931 152.507 103.627 153.2 102.494 153.8C97.8895 156.23 96.024 156.47 95.6416 156.904C95.4303 157.147 95.5327 156.96 93.4143 165.051C92.8591 167.174 89.0399 162.244 87.4623 160.456C87.1854 160.024 86.7776 159.692 86.2986 159.509C85.8195 159.325 85.2944 159.3 84.7999 159.436C83.7567 159.537 77.7391 160.129 77.0719 159.318C75.9199 157.916 81.088 152.473 81.1728 150.976C81.2592 149.536 78.2751 145.76 78.2751 144.395Z" fill="#FDFE1F"/>
<path d="M127.978 112.734C128.287 111.853 121.477 110.541 116.863 113.237C116.975 113.077 123.496 103.029 123.067 102.677C122.715 101.861 114.816 105.528 111.447 109.166C111.675 108.493 114.327 98.6063 113.543 98.3599C113.322 98.0671 95.9427 108.449 86.3747 134.774C85.4617 137.117 84.8176 139.555 84.4547 142.043C80.7251 141.203 78.5811 140.169 77.2547 142.243C76.2019 143.888 77.0419 144.739 80.0227 151.203C76.4035 157.299 75.3971 158.176 76.4067 159.955C77.5827 162.021 79.3475 161.262 86.0499 160.47L90.6899 165.75C90.9381 166.032 91.2426 166.259 91.5837 166.416C91.9247 166.573 92.2949 166.657 92.6704 166.663C93.0459 166.668 93.4184 166.595 93.764 166.448C94.1095 166.301 94.4206 166.084 94.6771 165.809C95.0211 165.443 95.2547 164.989 95.3539 164.496L96.7235 157.6L103.183 154.819C103.644 154.62 104.04 154.296 104.326 153.883C104.612 153.471 104.778 152.987 104.804 152.485C104.83 151.984 104.715 151.485 104.473 151.046C104.23 150.606 103.87 150.243 103.432 149.997L98.7203 147.36C112.125 123.888 128.765 113.664 127.978 112.734ZM102.288 152.725C94.3363 156.147 94.7459 155.889 94.6867 156.194C93.0435 164.563 93.1987 164.385 92.7187 164.385C92.1587 164.385 87.3459 158.011 86.7635 158.088C79.7875 159 78.9235 159.035 78.7539 159.035C77.7203 159.035 78.6147 158.054 82.4931 151.515C82.6531 151.246 82.7811 151.715 79.1571 143.856C79.1242 143.786 79.1116 143.708 79.1208 143.632C79.1299 143.555 79.1605 143.483 79.2089 143.423C79.2573 143.363 79.3216 143.317 79.3945 143.292C79.4674 143.267 79.5459 143.263 79.6211 143.28C85.6147 144.613 87.3651 145.053 87.5299 145.053C87.7651 145.053 87.3571 145.358 93.6931 139.501C93.7495 139.448 93.8196 139.412 93.8955 139.397C93.9713 139.382 94.0498 139.389 94.122 139.417C94.1942 139.444 94.2571 139.492 94.3034 139.554C94.3498 139.616 94.3779 139.689 94.3843 139.766C95.1987 148.406 95.0643 147.917 95.3347 148.067C101.376 151.453 103.424 152.237 102.288 152.725ZM97.2531 146.025L96.6547 139.56C96.5942 138.891 96.285 138.269 95.7881 137.818C95.2913 137.366 94.643 137.117 93.9715 137.12C92.4995 137.12 92.2659 137.725 86.9827 142.611L86.3171 142.461C86.7269 140.07 87.3987 137.733 88.3203 135.489C94.9443 118.141 101.6 110.581 112.699 99.4191C110.575 103.624 110.139 110.021 110.919 110.064C111.195 110.421 113.906 108.761 117.223 106.739C122.698 103.369 120.823 103.936 118.48 107.627C116.447 110.8 115.696 113.829 116.112 113.966C116.283 114.398 118.871 113.682 122.064 113.301C124.352 112.995 126.344 113.061 127.331 112.961C120.184 116.721 105.93 129.739 97.2515 146.025H97.2531Z" fill="#0F0F0F"/>
<path d="M271.408 34.0539C269.141 30.0539 266.608 29.4715 262.564 28.0267C256.108 25.7179 250.941 24.0107 245.212 25.3611C227.368 29.5659 218.277 55.9611 227.464 67.0987C230.949 71.3259 244.847 75.7531 249.752 75.7531C266.322 75.7531 279.629 48.8763 271.408 34.0539Z" fill="#FDFE1F"/>
<path d="M272.247 33.5858C269.732 28.9458 265.986 28.3218 262.889 27.1154C258.249 25.4578 252.41 23.4226 247.489 23.9698C225.473 27.1378 217.191 57.453 227.041 68.0418C230.3 72.1714 246.621 77.6946 251.653 76.5218C268.879 74.1986 280.185 48.133 272.247 33.5858ZM263.009 38.2418C264.289 38.4738 266.071 38.6738 267.489 39.0418C269.044 39.4386 270.889 40.2178 272.145 40.6098C272.664 43.9327 272.588 47.3216 271.919 50.6178C265.066 50.0354 266.649 49.6258 262.293 48.1826C263.077 44.9298 263.319 41.5714 263.009 38.2402V38.2418ZM271.794 38.8018C265.964 38.2738 267.081 37.9122 262.695 36.2898C262.142 33.1824 260.586 30.3416 258.266 28.2018C257.423 27.5234 255.706 26.8306 262.137 29.189C265.863 30.645 269.951 31.1042 271.794 38.797V38.8002V38.8018ZM224.97 59.0578C224.263 53.9079 224.874 48.6627 226.746 43.8133C228.618 38.9639 231.69 34.6687 235.674 31.3298C250.074 19.3298 268.5 27.7794 259.425 52.9426C249.221 79.8722 227.113 73.221 224.97 59.0546V59.0562V59.0578ZM239.922 72.4242C243.184 72.3558 246.371 71.4375 249.169 69.7602C251.569 70.733 252.458 69.8338 257.276 72.301C251.277 75.469 247.02 74.7202 239.922 72.421V72.4242ZM259.082 71.2274C255.133 70.1762 256.077 71.1714 250.809 68.4818C253.069 66.4933 255.039 64.1966 256.66 61.6594C259.906 62.4594 258.831 61.1394 266.287 63.9234C264.376 66.7967 261.93 69.2754 259.082 71.2242V71.2274ZM267.284 62.3794C266.004 62.181 263.943 62.0594 262.351 61.6754C260.759 61.293 258.873 60.4338 257.647 60.0178C259.461 56.8604 260.87 53.4872 261.841 49.9778C265.881 50.9378 262.988 49.4578 271.554 52.2434C270.628 55.8091 269.19 59.2217 267.284 62.3746V62.3778V62.3794Z" fill="#0F0F0F"/>
<path d="M236.172 68.3868C244.028 71.1644 252.231 60.4044 255.405 53.478C260.132 43.0156 259.596 28.702 248.247 28.358C237.612 28.0124 230.583 42.8908 231.145 43.1388C231.49 43.2988 233.879 36.4764 241.079 31.5516C242.678 30.428 244.542 29.7421 246.488 29.5619C248.434 29.3817 250.392 29.7135 252.17 30.5244C266.537 37.9324 245.673 77.8108 233.101 65.062C224.573 56.8188 232.959 39.0844 230.519 44.2812C226.599 52.6092 227.484 65.4012 236.172 68.3868Z" fill="#0F0F0F"/>
<path d="M238.293 49.3965L235.413 51.8765L238.116 62.1293C238.424 61.8765 237.192 62.9293 245.875 55.4381C245.928 55.4054 245.966 55.3547 245.983 55.2957C246.001 55.2372 245.997 55.1738 245.971 55.1181C245.664 53.9821 245.039 51.6141 245.011 51.5293C244.467 52.0333 245.864 50.8205 240.195 55.7245C239.781 56.0797 240.221 55.9837 238.293 49.3965Z" fill="#0F0F0F"/>
<path d="M238.7 41.0923L239.689 44.8219C239.815 44.7147 243.089 41.8891 244.575 40.5995C244.796 40.4075 244.597 40.4523 246.393 46.9995L249.273 44.5195L246.58 34.2891L238.7 41.0923Z" fill="#0F0F0F"/>
<path d="M241.397 51.3246L244.284 48.8238L243.295 45.0574L240.404 47.5534L241.397 51.3246Z" fill="#0F0F0F"/>
<path d="M250.962 50.9837L249.994 47.2781L247.14 49.7453L248.12 53.4509L250.962 50.9837Z" fill="#0F0F0F"/>
<path d="M236.491 42.971C233.567 45.491 233.66 45.3118 233.726 45.5534C234.731 49.3086 234.612 49.2174 234.791 49.0606C235.963 48.0446 237.444 46.7758 237.559 46.6606C236.518 42.7086 236.651 42.8286 236.491 42.971Z" fill="#0F0F0F"/>
<path d="M204.32 55.2191C218.111 45.3503 210.433 7.99988 189.034 7.99988C183.544 8.41984 178.12 9.4639 172.866 11.1119C159.143 16.3583 159.676 53.5375 180.522 60.0719C186.08 61.8223 199.959 58.3359 204.32 55.2191Z" fill="#FDFE1F"/>
<path d="M192.354 7.34692C187.629 6.36292 181.33 7.91012 176.583 9.08612C172.504 10.1789 169.621 10.6093 166.776 15.0829C157.437 29.7709 164.141 56.6141 180.933 61.1981C185.912 62.6765 197.808 59.6269 203.282 57.0077C218.906 49.5325 213.309 11.0509 192.354 7.34692ZM177.12 11.2461C184.749 9.28932 182.72 9.84772 181.552 10.6461C178.996 12.6078 177.093 15.2975 176.095 18.3613C171.688 19.4813 172.621 20.0125 166.911 19.8909C169.65 12.8733 172.927 12.3677 177.12 11.2461ZM166.295 21.6621C171.743 20.5869 167.367 20.8813 175.49 20.2973C174.662 23.6843 174.365 27.1793 174.61 30.6573C170.386 31.5517 171.677 32.2381 164.901 32.0509C164.782 28.5341 165.254 25.0222 166.299 21.6621H166.295ZM164.997 33.7325C166.266 33.4669 167.947 33.0029 169.368 32.8205C171.173 32.5901 173.498 32.6813 174.767 32.5309C175.155 36.2429 175.999 39.8909 177.279 43.3949C176.029 43.6733 174.047 44.3357 172.41 44.5549C170.826 44.7677 168.821 44.6637 167.535 44.7149C166.17 41.194 165.317 37.4955 165.002 33.7325H164.997ZM168.245 46.3997C175.85 44.4557 174.68 45.5869 177.986 45.1805C179.118 47.98 180.679 50.5861 182.613 52.9053C177.003 55.0669 178.213 54.1613 174.077 54.7965C171.587 52.4191 169.603 49.563 168.245 46.3997ZM175.643 56.1069C176.667 55.6749 177.727 55.3277 178.807 55.0669C180.594 54.7021 184.099 54.6109 184.027 54.3517C186.452 56.4782 189.457 57.8311 192.656 58.2365C182.603 60.3933 179.442 58.9597 175.643 56.0989V56.1069ZM209.312 45.8029C208.127 49.6781 205.981 53.5165 202.315 55.2013C199.719 56.6987 196.74 57.4023 193.747 57.2253C174.533 55.4237 168.01 12.3869 188.29 9.16932C201.92 8.52932 214.747 26.7805 209.312 45.7949V45.8029Z" fill="#0F0F0F"/>
<path d="M206.173 30.3421C204.167 23.1069 210.288 42.9054 200.724 51.1422C190.431 60.3006 180.084 39.9933 180.767 26.0013C181.596 10.6189 196.127 6.82215 204.183 25.1613C205.255 27.6541 205.623 29.1277 205.743 29.0957C205.577 27.6765 205.224 26.2854 204.695 24.9581C199.116 9.84615 187.397 9.07655 182.584 16.0541C176.135 25.0893 179.773 41.9421 188.096 51.3005C197.218 61.5246 210.898 47.4925 206.173 30.3405V30.3421Z" fill="#0F0F0F"/>
<path d="M191.102 33.8106C191.911 34.1546 192.772 34.3591 193.649 34.4154C195.845 34.4154 197.969 31.7946 198.851 30.0586C199.083 29.6058 199.133 30.0394 198.238 27.8698C196.512 23.7392 194.41 19.7759 191.958 16.0298C189.979 21.0894 188.455 26.3155 187.403 31.6458C187.701 32.4586 187.979 32.8378 191.102 33.8106ZM192.205 19.497C194.226 22.7103 195.927 26.1143 197.283 29.6602C194.825 33.9226 193.123 32.801 191.568 32.3114C190.702 32.0662 189.859 31.745 189.049 31.3514C189.804 27.3267 190.858 23.3641 192.205 19.497Z" fill="#0F0F0F"/>
<path d="M199.864 31.8654C193.18 37.2526 198.015 38.163 187.188 34.1214C187.636 36.017 188.429 37.814 189.528 39.4222C190.308 40.7422 195.194 48.8446 196.728 48.9182C199.68 48.8382 199.599 35.1294 199.864 31.8654ZM198.06 37.483C197.639 42.3038 197.623 44.9022 196.592 46.9758C194.474 44.3448 192.564 41.5529 190.879 38.6254C188.717 34.9454 190.44 38.2782 194.621 38.1582C197.76 38.0798 198.412 33.4398 198.06 37.483Z" fill="#0F0F0F"/>
<path d="M142.284 65.8193C158.361 51.9297 143.255 8.13293 116.885 8.13293C109.153 8.13293 94.5061 15.4113 93.6437 15.9265C87.4245 19.6257 85.4837 28.5137 85.4677 35.6673C85.3957 59.9521 104.177 78.9441 118.561 76.2769C126.314 74.8193 138.026 69.4929 142.284 65.8193Z" fill="#FDFE1F"/>
<path d="M123.914 8.31975C115.375 5.18695 106.49 9.07175 98.0164 12.7998C93.8468 14.7294 89.9284 15.7406 86.986 22.4814C77.61 44.579 96.0356 83.259 122.207 76.3854C128.349 74.6958 138.09 70.659 143.295 66.1534C157.359 53.987 147.258 14.8798 123.916 8.31975H123.914ZM93.3764 18.4638C95.1204 16.9614 103.903 13.2958 105.893 12.5166C102.366 15.6353 100.069 19.9124 99.418 24.5758C94.1988 26.9134 95.3972 27.4142 88.2052 28.499C88.7578 24.6691 90.5786 21.1352 93.3764 18.4622V18.4638ZM87.8164 30.8606C94.2868 28.3822 88.9492 29.6606 99.0964 27.139C98.7996 31.5805 99.1849 36.0413 100.239 40.3662C95.1188 42.4158 96.8788 42.9934 88.3284 44.235C87.4092 39.837 87.2361 35.3159 87.8164 30.8606ZM88.8132 46.3326C90.3524 45.7198 92.3652 44.7694 94.1156 44.2318C96.3348 43.5486 99.282 43.155 100.836 42.691C102.134 47.2739 103.99 51.6802 106.362 55.811C104.85 56.4318 102.501 57.699 100.49 58.3294C98.5412 58.9438 95.994 59.251 94.3892 59.5934C91.9074 55.4612 90.0297 50.9951 88.8132 46.331V46.3326ZM95.6532 61.5518C97.3297 60.7159 99.0519 59.9749 100.812 59.3326C103.132 58.603 106.252 58.3166 107.64 57.8926C109.676 61.1683 112.209 64.1074 115.148 66.6046C108.548 70.5518 109.884 69.1422 104.82 70.8446C101.168 68.3971 98.0495 65.236 95.6516 61.5518H95.6532ZM107.076 72.1598C108.271 71.394 109.526 70.7262 110.829 70.163C113.132 69.2622 117.389 68.451 117.242 68.1246C120.753 70.2869 124.836 71.3356 128.954 71.1326C116.72 76.0606 112.442 74.9086 107.076 72.1598ZM140.434 65.2094C136.933 67.6094 134.301 69.3054 130.096 69.6222C121.136 70.3214 115.216 65.7998 110.136 58.467C91.8004 31.8398 101.674 -0.55705 128.455 12.9598C150.471 25.8078 151.824 57.3886 140.436 65.2014V65.2094H140.434Z" fill="#0F0F0F"/>
<path d="M139.876 33.094C138.204 29.5564 139.944 34.2636 140.656 37.062C142.533 44.6684 142.496 54.4332 137.549 60.4444C126.596 74.2124 109.156 50.9308 106.964 33.1612C104.671 13.7308 122.042 5.574 136.244 27.0028C138.135 29.9052 138.922 31.6796 139.063 31.614C138.546 29.8636 137.8 28.1893 136.844 26.6348C126.52 8.8124 111.612 10.4476 107.084 20.2492C98.97 37.678 116.57 64.4524 127.775 66.1836C140.047 68.3196 147.575 49.4092 139.876 33.094Z" fill="#0F0F0F"/>
<path d="M126.895 36.8474C127.928 35.8936 128.673 34.6707 129.048 33.3163C129.423 31.9619 129.413 30.5297 129.018 29.1808C128.624 27.8319 127.861 26.6199 126.815 25.681C125.769 24.7422 124.482 24.1138 123.099 23.8666C122.847 21.337 121.188 19.8474 120.75 20.1546C120.324 20.433 120.75 21.7818 121.167 23.3434C121.34 23.9578 121.515 23.5034 118.767 23.7594C117.921 19.4522 115.857 19.7466 116.985 24.0186C116.265 24.2906 115.564 24.6106 114.887 24.9786C115.678 28.1114 118.407 34.6522 119.735 40.0186C121.063 45.385 122.31 52.4634 123.486 55.5386C125.871 54.6554 125.339 54.6666 125.679 55.6634C126.583 58.3242 128.959 59.7274 127.39 55.081C127.276 54.7434 127.247 54.809 127.449 54.7866C130.329 54.4666 129.839 53.8858 130.06 54.6074C131.523 59.289 132.737 57.1146 131.788 54.0794C131.571 53.3626 131.502 53.5674 131.844 53.3466C138.211 49.3626 132.908 39.065 126.895 36.8474ZM118.99 27.0874C121.196 26.4154 123.255 25.8666 125.193 26.8826C126.135 27.3627 126.876 28.1621 127.284 29.1381C127.691 30.1141 127.738 31.203 127.417 32.2106C126.342 35.289 122.649 35.5914 120.516 36.121C119.913 32.969 119.435 29.6618 118.99 27.0842V27.0874ZM125.657 51.3594C123.968 47.6988 122.538 43.9236 121.38 40.0618C123.102 39.4385 124.961 39.2958 126.758 39.649C133.193 41.6458 137.393 52.449 125.657 51.3594Z" fill="#0F0F0F"/>
<path d="M42.5764 45.8727C37.0932 47.7111 25.2804 55.8983 23.3604 58.3063C10.8804 73.8887 32.7844 121.439 61.242 120.836C67.1732 120.711 79.4148 112.594 85.162 106.732C102.485 89.0471 71.3604 36.2183 42.5764 45.8727Z" fill="#FDFE1F"/>
<path d="M49.4887 87.9993C53.6007 93.9673 64.2599 105.151 71.4599 105.654C75.7799 105.954 78.8391 103.225 80.5655 99.3177C87.0167 84.7257 71.4455 62.6297 76.0279 69.0377C83.1863 79.0297 87.6439 97.5817 78.1575 105.331C74.9095 107.983 69.8375 108.458 64.3767 105.023C41.2903 90.5049 29.9031 55.8009 47.4775 50.5369C61.2919 46.3993 75.4727 67.1513 74.8535 67.5737C74.4215 67.8681 69.1911 58.6281 58.3383 53.1641C52.1527 50.0489 45.9447 51.7241 43.1895 55.2121C36.9879 63.0665 43.2135 78.8953 49.4887 87.9993Z" fill="#0F0F0F"/>
<path d="M40.5413 45.6447C34.9798 48.4937 29.6794 51.826 24.7013 55.6031C8.91733 68.4607 26.9653 115.358 56.1541 121.523C58.9093 122.019 61.7381 121.928 64.4565 121.258C68.9621 119.854 76.5813 115.71 84.8453 108.41C86.2238 107.149 87.3965 105.681 88.3205 104.058C100.364 83.1199 69.1205 33.2095 40.5413 45.6447ZM29.6005 55.8559C31.9301 54.2031 34.2165 52.5871 36.5205 51.1567C33.4553 55.3935 32.0726 60.6175 32.6405 65.8159C27.8709 69.1999 29.0501 69.5279 22.2053 71.7855C21.7829 61.0047 25.6981 58.6415 29.6005 55.8559ZM22.3733 74.2879C23.8229 73.3919 25.8277 71.8575 27.6101 70.8895C29.2373 70.0063 31.3669 69.2287 32.8901 68.5423C33.6658 73.6032 35.1626 78.5268 37.3349 83.1631C32.9397 86.0143 34.1893 86.6047 26.2437 89.1535C24.2012 84.4248 22.8959 79.4108 22.3733 74.2863V74.2879ZM27.2005 91.2479C28.6165 90.3535 30.4133 89.0591 32.0309 88.2207C34.1109 87.1455 36.9717 86.2431 38.4661 85.5007C40.9146 90.4203 43.9118 95.047 47.4005 99.2927C45.9701 100.15 43.8549 101.794 41.9749 102.784C40.1717 103.733 37.7509 104.52 36.2149 105.197C32.624 100.953 29.5943 96.2651 27.2005 91.2479ZM37.8533 107.029C45.1509 101.542 44.5029 103.336 49.1157 101.298C52.0027 104.629 55.3551 107.527 59.0693 109.902C53.4549 115.03 54.5253 113.397 49.6165 116.115C45.163 113.843 41.1713 110.762 37.8453 107.029H37.8533ZM60.2533 118.677C57.4655 118.656 54.7031 118.144 52.0933 117.163C57.3733 112.283 58.8261 113.211 61.5205 111.213C65.6057 113.089 70.1865 113.599 74.5845 112.669C71.1029 114.941 64.3637 118.838 60.2373 118.675H60.2533V118.677ZM85.8805 102.651C85.0748 103.99 84.0782 105.204 82.9221 106.256C79.5621 109.157 78.5461 110.344 74.4421 111.12C64.9493 112.963 58.0581 108.067 51.4757 101.085C37.9061 86.1247 25.3733 57.3503 42.9413 47.8223C67.5061 38.2223 97.8581 82.4751 85.8805 102.651Z" fill="#0F0F0F"/>
<path d="M66.1028 80.7357C59.738 85.1277 60.2244 85.0941 59.4116 84.6717C53.6388 81.6733 53.7108 81.8893 53.5492 81.4253C53.3876 80.9613 52.5892 81.7645 65.3716 72.8909C65.8516 72.5597 65.818 72.7197 71.6676 75.6973C72.9844 76.3677 72.234 76.5021 66.1028 80.7357Z" fill="#0F0F0F"/>
<path d="M51.1684 77.9753C50.8052 77.6681 50.9812 77.9753 50.2084 71.3193C50.1028 70.4089 49.3956 71.1593 62.1316 62.4489C62.994 61.8601 63.0308 63.8025 63.13 64.6969C63.6244 69.1769 63.8372 69.6361 63.3332 69.9769C50.5284 78.7193 51.5204 78.2729 51.1684 77.9769V77.9753Z" fill="#0F0F0F"/>
<path d="M74.551 79.6511C74.8966 79.9711 74.7702 79.7471 75.511 86.4351C75.5926 87.1679 76.3462 86.4159 63.5254 95.1983C63.1206 95.4751 62.8134 95.0383 62.759 94.5439C62.0726 88.2527 61.871 87.9839 62.3638 87.6527C75.2598 78.7759 74.2486 79.3759 74.551 79.6527V79.6511Z" fill="#0F0F0F"/>
<path d="M296.762 211.59L290.799 208.957C286.5 218.33 254.319 292.986 253.528 294.077C253.165 293.382 242.303 250.917 242.287 250.597C242.287 250.557 242.16 251.354 242.154 251.296C242.116 251.32 242.178 250.515 242.096 250.594C233.693 261.366 232.964 262.619 228.244 269.094C227.73 267.214 221.696 245.653 221.647 245.4C219.087 246.77 200.244 262.752 199.629 262.133C198.954 261.454 208.909 250.133 224.01 237.973C224.421 239.312 226.487 245.93 226.487 245.93C230.788 258.594 230.133 257.411 230.714 256.293L244.912 236.976L255.004 275.619C255.004 275.619 282.498 212.317 285.175 206.48L279.277 203.877C278.963 203.736 278.694 203.509 278.503 203.222C278.312 202.936 278.205 202.601 278.196 202.256C278.187 201.912 278.275 201.571 278.45 201.275C278.626 200.978 278.881 200.737 279.188 200.579L292.994 193.558C293.239 193.434 293.508 193.367 293.783 193.361C294.057 193.356 294.329 193.412 294.579 193.526C294.828 193.64 295.049 193.808 295.224 194.019C295.4 194.23 295.526 194.478 295.592 194.744L299.272 209.483C299.353 209.814 299.339 210.161 299.233 210.485C299.127 210.809 298.932 211.097 298.671 211.316C298.41 211.535 298.093 211.677 297.756 211.725C297.418 211.774 297.074 211.727 296.762 211.59Z" fill="#FDFE1F"/>
<path d="M293.82 193.355C295.74 193.355 295.341 193.744 299.271 209.478C299.354 209.809 299.343 210.158 299.237 210.483C299.132 210.808 298.937 211.097 298.676 211.316C298.414 211.537 298.096 211.68 297.758 211.728C297.42 211.777 297.074 211.729 296.762 211.59L290.799 208.956C286.501 218.329 254.319 292.985 253.528 294.076C253.112 293.276 242.349 250.593 242.096 250.593C231.314 264.601 235.832 258.684 228.243 269.094C227.73 267.214 221.696 245.654 221.647 245.4C219.293 246.659 200.207 262.712 199.629 262.132C198.4 260.902 214.592 245.931 217.517 243.339C217.813 243.076 222.402 239.268 224.01 237.974C224.421 239.313 226.487 245.931 226.487 245.931C230.791 258.611 230.133 257.411 230.714 256.294L244.912 236.977L255.004 275.62C255.004 275.62 282.498 212.318 285.175 206.481L279.277 203.878C278.961 203.738 278.692 203.512 278.499 203.225C278.306 202.938 278.199 202.603 278.189 202.257C278.18 201.912 278.268 201.571 278.445 201.274C278.622 200.977 278.879 200.737 279.188 200.58C294.199 192.942 293.2 193.355 293.82 193.355ZM293.82 190.668C292.292 190.668 292.652 190.715 277.97 198.18C277.401 198.47 276.901 198.877 276.501 199.374C276.101 199.871 275.811 200.448 275.651 201.065C275.49 201.683 275.462 202.327 275.569 202.956C275.675 203.585 275.914 204.185 276.269 204.715C276.744 205.424 277.412 205.984 278.192 206.328L281.6 207.833C279.348 212.774 258.644 260.452 255.648 267.379L246.08 230.849L231.098 251.152C227.56 240.531 228.858 244.604 225.413 233.392C217.419 239.605 209.876 246.378 202.842 253.66C197.413 259.46 195.575 261.86 197.722 264.022C200.724 267.043 204.088 262.136 220.004 249.878C220.324 250.998 227.124 275.184 227.124 275.184L240.962 256.404C252.308 300.539 249.861 292.86 253.149 299.144C256.62 294.39 256.997 294.264 259.3 288.142C261.138 283.248 291.869 213.076 292.136 212.486C295.784 214.097 296.26 214.436 297.501 214.436C298.186 214.435 298.861 214.278 299.476 213.978C300.091 213.677 300.629 213.24 301.051 212.701C301.472 212.161 301.765 211.533 301.908 210.864C302.05 210.194 302.039 209.501 301.874 208.836L298.194 194.099C297.953 193.12 297.391 192.251 296.598 191.629C295.805 191.008 294.827 190.669 293.82 190.668Z" fill="#0F0F0F"/>
</svg>
