<svg width="320" height="320" viewBox="0 0 320 320" fill="none" xmlns="http://www.w3.org/2000/svg">
<path d="M109.317 214.711C119.784 209.899 123.28 204.843 126.799 205.699C127.661 206.024 128.421 206.573 129 207.29C129.579 208.007 129.957 208.865 130.093 209.776C133.056 221.96 117.015 242.48 103.759 244.194C102.509 244.354 97.9076 244.328 97.1572 243.323C96.4324 242.354 97.3828 240.995 97.1716 233.315C96.9012 223.525 95.0756 221.746 96.7252 219.603C98.5092 217.28 102.167 217.997 109.317 214.711Z" fill="#FFC5F6"/>
<path d="M97.7986 241.227C97.322 244.689 95.9871 247.976 93.9154 250.79C92.8573 252.178 91.4228 253.232 89.7828 253.828C88.1427 254.423 86.3661 254.535 84.6642 254.15C83.1426 253.685 82.7442 253.437 81.3826 254.531C73.7122 260.677 72.4226 262.248 61.7922 261.686C51.1618 261.125 31.4466 260.534 33.9394 250.779C34.8018 247.406 38.7282 246.062 41.5186 243.979C44.4434 241.797 38.549 240.829 37.7954 235.819C37.4162 233.301 38.8498 230.589 37.8098 228.265C36.8354 226.091 33.0098 224.522 35.0274 219.397C36.4098 215.877 46.2114 203.397 55.3474 200.152C56.0198 200.04 56.6334 199.701 57.0852 199.19C57.537 198.68 57.7997 198.03 57.829 197.349C58.629 193.669 58.7122 189.813 60.141 186.334C63.573 177.979 72.9266 178.005 75.341 187.201C77.0642 193.762 74.541 195.787 79.0002 208.033C79.8146 210.273 79.717 210.754 82.1666 209.742C90.4002 206.344 102.039 219.386 97.7986 241.227Z" fill="white"/>
<path d="M72.8927 227.477C70.2143 220.878 69.9391 214.923 68.9663 214.88C67.0927 214.8 66.8191 230.469 76.4383 238.28C70.1391 237.71 66.0655 245.227 67.1119 246.12C67.9823 246.861 71.4015 243.678 73.0127 242.454C75.1775 240.827 78.6687 240.36 78.6671 239.339C79.3455 238.642 75.4639 234.117 72.8927 227.477Z" fill="#0F0F0F"/>
<path d="M126.096 202.648C118.522 202.454 116.607 215.424 96.3492 216.366C92.93 209.835 86.8548 205.712 80.5684 209.557C75.8372 201.854 79.1284 194.056 77.4164 187.081C77.0644 185.267 76.2327 183.581 75.0078 182.197C73.7829 180.813 72.2096 179.783 70.4516 179.214C68.1508 178.6 65.7358 178.55 63.4116 179.069C59.5716 180.208 58.5652 184.189 57.9716 188.078C55.0052 207.457 58.9028 189.838 47.034 203.741C41.2228 210.72 36.5604 211.537 34.5044 216.437C33.6263 218.569 33.4089 220.916 33.8805 223.173C34.3521 225.43 35.4908 227.493 37.1492 229.096C36.5159 230.207 36.1135 231.435 35.9661 232.706C35.8188 233.977 35.9294 235.264 36.2916 236.491C37.159 239.276 38.6873 241.809 40.746 243.875C31.4932 245.422 31.0148 256.541 36.834 259.715C39.45 261.155 42.3412 260.817 45.1028 260.835C54.2932 260.805 71.3428 269.955 83.7444 254.691C90.9876 257.304 95.8276 253.205 98.0916 245.805C130.668 247.485 142.314 203.03 126.096 202.648ZM38.9684 227.069C37.9264 225.806 37.2571 224.278 37.0358 222.656C36.8145 221.035 37.0499 219.383 37.7156 217.888C39.3156 214.353 44.0868 213.374 50.0356 206.238C51.8868 204.019 53.0292 201.896 55.6996 201.667C59.9972 201.36 64.538 206.627 59.7812 216.045C54.8836 217.179 50.1012 221.645 45.9636 223.936C43.1796 225.486 41.298 225.192 38.9684 227.069ZM80.6884 252.289C71.0708 264.475 57.098 258.63 49.306 257.717C46.6362 257.472 43.9518 257.428 41.2756 257.587C37.4788 257.536 35.7908 255.219 35.8964 252.419C36.2164 244.099 45.6772 245.709 53.8532 246.933C72.642 249.867 50.714 244.232 45.4916 243.761C43.2932 240.422 38.274 236.198 40.1828 231.691C41.1572 229.51 43.178 229.221 45.1636 228.566C51.074 226.63 58.8756 217.837 63.578 220.048C64.9016 220.931 65.9577 222.16 66.6311 223.602C67.3045 225.043 67.5695 226.642 67.3972 228.224C66.0596 238.742 50.106 241.891 50.2068 242.697C50.234 242.944 51.4356 243.129 53.586 242.845C65.8228 241.201 75.586 230.365 68.9748 220.045C68.3404 218.927 67.4602 217.969 66.4007 217.242C65.3413 216.514 64.1304 216.038 62.8596 215.848C67.122 208.217 64.8868 201.817 60.2996 199.131C62.3444 185.137 61.7716 182.331 66.8596 182.622C76.1396 183.088 73.6836 192.928 73.9684 199.582C74.5092 212.483 80.5284 213.685 83.4644 221.79C85.3332 226.68 88.0292 243.32 80.6884 252.289ZM93.5076 247.824C91.73 251.824 89.0116 253.017 85.3876 252.365C88.9236 246.595 89.7636 239.473 89.3268 232.753C88.6868 222.219 86.8564 218.401 82.1412 211.808C93.9316 206.267 99.482 234.24 93.5076 247.824ZM98.8948 242.505C100.243 235.215 99.9584 227.717 98.0612 220.55C97.3588 218.273 97.2932 220.83 106.221 218.901C117.244 216.688 123.463 207.147 125.936 207.469C132.936 207.769 126.176 240.817 98.8948 242.505Z" fill="#0F0F0F"/>
<path d="M188.027 31.179C206.931 24.651 228.839 36.1838 233.43 55.6494C237.486 72.8494 226.774 90.9422 209.844 96.3342C192.084 101.99 171.604 92.3614 165.916 73.9342C160.382 55.9838 171.135 37.0142 188.027 31.179Z" fill="white"/>
<path d="M199.398 99.0557C184.185 99.0557 169.575 89.5837 164.851 74.2557C162.262 65.3774 163.186 55.8434 167.433 47.628C171.68 39.4126 178.923 33.145 187.663 30.1229C207.302 23.3405 229.799 35.4029 234.515 55.3901C239.455 76.3469 223.009 99.0541 199.398 99.0541V99.0557ZM166.98 73.5997C172.483 91.4445 192.345 100.739 209.505 95.2733C236.244 86.7565 242.823 49.6525 215.951 34.8573C188.342 19.6541 158.451 45.9421 166.98 73.5997Z" fill="#0F0F0F"/>
<path d="M186.537 85.7457C190.618 87.1813 194.884 88.0219 199.204 88.2417C219.27 89.0705 225.788 48.3473 212.127 42.6001C210.767 42.0273 199.836 39.1313 194.687 40.8097C176.321 46.7905 172.346 80.9217 186.537 85.7457Z" fill="#FDFE1F"/>
<path d="M217.189 46.0348C214.629 41.5964 211.734 41.4172 208.433 40.622C204.166 39.7244 198.339 38.4924 194.193 40.0092C176.145 46.374 171.045 80.0716 185.696 86.3852C189.977 88.23 199.616 90.0988 203.542 88.9196C218.355 84.1596 224.673 59.7292 217.189 46.0348ZM218.254 61.2812C212.734 61.7036 214.014 61.2012 209.949 60.4476C210.243 57.2476 210.051 54.0188 209.377 50.8748C210.485 50.91 212.001 50.862 213.235 50.9724C213.662 50.9724 216.595 51.598 217.285 51.71C218.123 54.8268 218.449 58.0588 218.254 61.2796V61.2812ZM216.814 50.1676C211.997 50.5036 212.681 50.046 208.917 49.19C208.054 46.0286 206.019 43.3145 203.227 41.5996C211.448 42.9404 214.47 43.3756 216.813 50.1676H216.814ZM185.454 84.2764C178.515 80.6604 177.905 69.2764 179.472 61.6476C184.992 34.7676 214.001 32.9372 208.035 65.214C205.955 75.5004 200.753 86.6188 190.19 85.8636C188.564 85.4869 186.978 84.9554 185.453 84.2764H185.454ZM193.614 86.6268C196.53 86.1065 199.222 84.723 201.342 82.6556C203.462 83.2028 204.289 82.3356 208.513 83.8508C203.793 87.8588 200.141 87.806 193.617 86.6268H193.614ZM209.824 82.6268C205.275 82.118 206.829 82.806 202.563 81.2828C204.312 79.0331 205.728 76.5437 206.768 73.8908C209.709 74.1324 208.723 73.166 215.088 74.5628C213.844 77.5535 212.061 80.2897 209.827 82.6348L209.824 82.6268ZM215.694 73.0572C209.28 73.1116 212.899 73.3324 207.384 72.2924C208.567 68.9974 209.372 65.5787 209.784 62.102C213.294 62.382 210.865 61.5164 218.142 62.7596C217.777 66.2862 216.955 69.7504 215.697 73.0652L215.694 73.0572Z" fill="#0F0F0F"/>
<path d="M194.605 82.7006C198.845 80.6414 206.23 69.4383 205.933 56.5055C205.509 39.8959 190.261 38.8942 184.013 56.603C182.914 59.7342 182.141 62.3918 184.47 56.779C190.346 42.867 199.168 42.7758 202.448 48.075C208.458 57.4798 201.405 78.0686 194.094 81.6623C188.216 84.667 181.462 77.5438 182.574 64.3662C183.005 59.9422 182.952 58.7663 182.094 64.3055C180.027 78.3855 188.07 86.0046 194.605 82.7006Z" fill="#0F0F0F"/>
<path d="M191.921 65.1516C192.416 65.4293 192.966 65.5928 193.532 65.6299C194.098 65.667 194.665 65.5768 195.192 65.366C200.459 63.662 199.478 65.3116 198.232 57.3404C197.766 54.453 196.997 51.6228 195.936 48.8972C193.171 52.5723 190.806 56.5324 188.883 60.71C188.691 61.0908 188.697 60.9404 188.865 61.3228C189.536 62.8418 190.589 64.161 191.921 65.1516ZM195.517 52.0572C196.55 55.6776 197.303 59.3723 197.768 63.1084C197.007 63.4149 196.221 63.6542 195.419 63.8236C194.001 64.1644 192.358 65.1308 190.321 61.0428C191.755 57.884 193.497 54.8743 195.521 52.0572H195.517Z" fill="#0F0F0F"/>
<path d="M189.789 78.7066C191.211 78.7162 199.845 67.5706 198.688 66.353C197.888 65.505 195.051 67.793 192.427 67.5562C191.112 67.4346 190.245 65.1066 189.082 64.0362C188.978 63.9413 188.848 63.8791 188.709 63.8572C188.57 63.8352 188.427 63.8546 188.299 63.9128C188.171 63.9711 188.062 64.0656 187.987 64.1848C187.912 64.304 187.874 64.4426 187.877 64.5834C187.901 65.681 187.115 78.689 189.789 78.7066ZM189.238 66.5786C190.909 69.0106 191.99 69.8426 196.718 68.0906C194.754 71.2321 192.514 74.1931 190.026 76.9386C189.109 74.7866 189.157 67.8602 189.238 66.5802V66.5786Z" fill="#0F0F0F"/>
<path d="M207.884 47.0988C213.004 44.9676 214.095 42.7036 215.404 37.918C216.614 33.5164 217.465 26.6316 215.767 22.374C213.623 26.3468 214.609 27.982 210.618 31.03C206.26 34.358 204.986 28.5948 204.999 23.11C204.999 20.638 207.126 17.9388 205.652 14.102C205.59 13.942 200.798 8.08123 198.575 8.41883C198.358 8.62043 199.631 10.078 199.855 10.83C201.226 15.5148 194.842 17.5884 194.534 17.774C191.609 19.534 190.116 19.0748 189.593 20.7436C189.321 21.4156 189.251 22.1526 189.394 22.8635C189.536 23.5744 189.883 24.2281 190.393 24.7436C191.673 26.63 190.953 26.0684 191.82 27.3148C192.999 29.014 194.01 28.7436 194.305 31.4652C194.594 34.1292 191.641 35.03 189.399 34.4508C187.807 34.0396 187.31 32.5052 186.37 32.2332C184.63 31.7276 183.777 28.5852 183.17 28.0892C182.646 27.264 182.194 26.3946 181.82 25.4908C181.593 23.974 180.54 28.5596 180.54 28.9372C180.66 45.782 194.07 52.8524 207.884 47.0972V47.0988Z" fill="#FFC5F6"/>
<path d="M216.695 23.9344C216.084 22.1344 215.452 21.2768 215.351 21.328C214.994 21.2912 214.967 23.8096 213.122 27.0432C210.065 32.1744 205.18 31.8432 206.369 25.544C206.881 22.7744 207.778 19.7408 207.137 16.88C205.564 9.21597 197.737 7.18877 197.594 7.99997C197.382 8.27037 200.489 10.9184 198.554 14.4C196.246 18.6112 189.377 16.0816 188.594 22.3088C187.98 26.7264 192.77 28.2864 193.484 31.4432C193.985 33.456 191.724 34.8656 188.524 32.968C182.911 29.6192 182.284 24.488 181.766 24.672C181.526 24.5456 178.878 28.7568 180.326 35.3472C181.242 39.8545 183.813 43.8557 187.531 46.5636C191.249 49.2714 195.846 50.4898 200.417 49.9792C214.866 48.6752 220.038 33.728 216.695 23.9344ZM216.015 31.7312C212.084 57.76 176.086 49.9712 181.692 25.4784C182.033 27.8177 183.031 30.0118 184.572 31.8048C189.937 38.2912 196.724 35.9648 195.572 31.0048C194.802 27.1376 190.292 25.6176 190.713 22.5648C191.049 19.4816 194.406 19.4752 196.978 18.1632C197.817 17.7732 198.554 17.1933 199.13 16.4693C199.706 15.7453 200.106 14.8971 200.297 13.992C200.487 13.0863 200.463 12.1489 200.228 11.254C199.992 10.3591 199.551 9.53144 198.94 8.83677C200.547 9.67388 201.942 10.8666 203.019 12.3242C204.095 13.7818 204.825 15.4658 205.153 17.248C205.953 21.4976 202.796 26.0928 204.513 30.072C206.959 35.6576 215.359 31.6432 215.62 23.0032C216.298 25.8624 216.431 28.8224 216.015 31.7312Z" fill="#0F0F0F"/>
<path d="M108.653 17.8378C127.557 11.3082 149.466 22.8426 154.056 42.3082C158.112 59.5066 147.4 77.5994 130.471 82.9914C112.711 88.6474 92.2307 79.0186 86.5427 60.5914C81.0083 42.6394 91.7619 23.6794 108.653 17.8378Z" fill="white"/>
<path d="M120.024 85.7132C104.811 85.7132 90.2028 76.2396 85.4764 60.9132C82.8893 52.0355 83.8148 42.503 88.0613 34.2888C92.3078 26.0746 99.5501 19.8076 108.289 16.7852C127.934 9.99962 150.427 22.0652 155.14 42.0524C160.081 63.006 143.633 85.7132 120.024 85.7132ZM119.68 17.1196C85.6188 17.1196 72.9036 63.3356 103.84 79.5084C130.267 93.3228 159.262 69.2684 152.96 42.566C149.44 27.5836 135.04 17.1196 119.68 17.1196Z" fill="#0F0F0F"/>
<path d="M134.456 72.2078C129.896 73.6478 125.168 74.4878 120.39 74.7038C98.1119 75.5326 90.8799 34.811 106.043 29.0622C107.826 28.3854 119.85 25.6414 125.403 27.2718C145.76 33.2398 150.254 67.3694 134.456 72.2078Z" fill="#FDFE1F"/>
<path d="M120.799 25.7086C115.673 25.9486 110.588 26.7454 105.633 28.083C91.6426 33.5582 94.833 68.675 114.535 75.0798C119.975 77.1758 135.598 74.051 138.911 70.907C151.486 60.883 142.747 25.8734 120.799 25.707V25.7086ZM111.199 28.9598C117.406 27.7278 115.847 28.0526 114.756 28.7134C112.347 30.3892 110.554 32.8088 109.652 35.6014C105.286 36.4894 106.334 36.9726 100.803 36.5886C103.519 29.5998 107.286 29.8206 111.199 28.9598ZM100.244 38.2238C101.471 38.0462 103.295 37.6158 104.795 37.4558C112.247 37.4558 107.473 35.3038 108.484 46.8638C103.897 47.6286 105.566 48.179 99.1706 47.699C98.9681 44.5022 99.3338 41.2947 100.251 38.2254H100.244V38.2238ZM99.313 49.2798C107.484 47.9902 104.867 48.9166 108.686 48.6142C109.145 52.0782 110.03 55.4718 111.316 58.7198C104.756 59.8638 109.38 59.5358 102.014 59.483C100.633 56.2278 99.7232 52.7921 99.313 49.2798ZM102.74 61.0766C103.073 61.0094 106.1 60.3342 106.775 60.3342C108.814 60.1902 112.025 60.579 112.014 60.3566C113.178 63.029 114.734 65.5133 116.63 67.7278C111.764 69.3166 113.651 68.5358 108.556 69.059C106.133 66.787 104.16 64.0783 102.74 61.075V61.0766ZM110.091 70.3294C114.497 68.8766 115.969 69.6366 117.988 69.1678C117.828 68.4638 120.041 71.9886 126.347 73.0814C117.006 74.5598 114.011 73.2558 110.091 70.3294ZM142.043 62.7198C141.347 65.3522 139.84 67.6982 137.734 69.4238C137.19 69.8538 136.606 70.229 135.988 70.5438C114.996 80.5262 104.244 45.219 112.446 32.6766C122.521 17.659 148.932 39.0126 142.043 62.7198Z" fill="#0F0F0F"/>
<path d="M138.745 47.9818C136.752 41.5114 143.112 60.4778 133.6 67.2266C123.809 74.5018 113.872 55.0554 114.268 42.6394C114.851 28.537 128.817 26.2778 136.737 43.1674C137.808 45.481 138.198 46.8474 138.307 46.8202C138.109 45.4934 137.742 44.1975 137.214 42.9642C131.614 28.8458 120.481 27.7322 116.134 33.3642C109.614 41.385 113.6 57.0314 121.64 66.2394C130.681 76.5514 143.67 63.9834 138.745 47.9818Z" fill="#0F0F0F"/>
<path d="M130.754 51.7569C128.151 58.0209 128.449 57.5825 128.213 57.3073C123.826 52.1665 124.721 53.2209 124.245 52.6289C124.141 52.8529 123.53 54.3393 122.887 55.8625C122.772 56.1329 122.309 55.4465 129.201 63.5073C129.388 63.7297 128.93 64.6273 133.188 54.4049C130.549 51.3297 130.834 51.5649 130.754 51.7569Z" fill="#0F0F0F"/>
<path d="M123.597 48.0124C126.077 42.0428 125.914 42.2172 126.063 42.3964C127.096 43.6092 129.176 46.0412 130.093 47.1116L131.501 43.7516L125 36.1516L121.16 45.3836C123.866 48.534 123.52 48.2108 123.597 48.0124Z" fill="#0F0F0F"/>
<path d="M127.655 52.979L129.071 49.5774L126.686 46.7886L125.274 50.1886L127.655 52.979Z" fill="#0F0F0F"/>
<path d="M118.743 51.2138L121.087 53.9674L122.481 50.6234L120.129 47.8682L118.743 51.2138Z" fill="#0F0F0F"/>
<path d="M135.529 48.425C134.478 47.2026 133.353 45.8762 133.257 45.7834C131.713 49.4922 131.804 49.1242 131.92 49.257C134.329 52.0778 134.195 52.0331 134.284 51.8171C135.705 48.3723 135.696 48.6186 135.529 48.425Z" fill="#0F0F0F"/>
<path d="M93.7397 33.3932C97.5173 37.0876 104.3 37.6268 110.426 33.0076C113.501 30.6876 113.863 28.9548 113.957 25.4492C114.013 23.5729 113.872 21.696 113.537 19.8492C112.949 18.6219 112.228 17.463 111.388 16.3932C111.042 16.3276 111.05 16.798 110.836 17.486C110.252 19.3564 108.738 21.2604 107.284 20.974C103.351 20.1996 105.807 14.0332 101.321 11.1004C99.8501 10.1404 96.2661 8.70837 97.3877 10.3164C98.4725 11.87 98.6789 11.8492 97.7605 13.5164C95.8053 17.0684 94.1637 16.006 93.7509 18.4092C93.1925 21.654 96.9317 21.7084 98.1333 24.4684C98.4533 25.2236 97.2245 27.2316 95.1205 27.358C91.9989 27.5468 89.4309 23.2412 89.4245 24.0188C89.3957 27.8956 92.4981 32.1772 93.7397 33.3932Z" fill="#FFC5F6"/>
<path d="M114.616 21.3064C113.544 17.1816 110.835 14.844 110.562 15.14C110.195 15.2568 110.827 20.1928 107.453 20.1C103.773 20.0888 107.923 10.0344 99.1475 9.14959C94.9875 8.72719 97.5219 10.0968 97.6579 11.764C97.8755 14.108 92.0947 15.7448 93.0595 20.4344C93.6131 23.3032 97.0803 23.8568 97.1347 25.0056C97.4003 26.236 95.0371 27.4808 92.3843 25.9448C90.1299 24.6136 89.6195 22.756 89.2995 22.8728C88.2659 22.5304 87.5011 31.5704 96.1955 35.7768C106.002 40.7048 117.408 31.6792 114.616 21.3064ZM112.056 28.652C106.501 39.372 91.2883 35.1576 89.5731 24.8504C91.9331 30.0152 99.6995 29.6232 99.3059 24.7432C99.0003 22.0328 95.6419 21.7992 95.1987 19.9832C94.3987 16.612 100.01 14.8632 98.8787 11.476C98.2691 9.73359 96.3523 9.42319 98.8691 10.3672C103.077 11.9224 102.84 13.8664 103.407 17.9128C104.443 24.9752 112.405 22.3256 111.453 16.8776C112.505 18.6427 113.11 20.6383 113.214 22.6905C113.318 24.7427 112.919 26.7893 112.051 28.652H112.056Z" fill="#0F0F0F"/>
<path d="M104.685 112C100.884 117.357 99.85 124.693 100.32 131.211C100.981 140.349 105.6 155.397 114.36 156.141C110.349 161.243 107.807 167.344 107.012 173.785C105.978 179.973 107.922 186.123 110.672 191.235C111.282 192.366 113.253 193.03 113.856 193.821C114.058 194.085 113.906 193.945 117.044 196.251C119.042 197.72 118.84 200.062 119.173 201.392C120.812 207.929 118.57 209.061 114.269 218.6C112.047 223.936 110.725 229.603 110.356 235.371C110.391 237.673 111.895 237.758 106.676 241.931C101.008 246.467 96.546 253.078 92.9508 259.385C91.2582 262.896 90.2514 266.697 89.9844 270.585C88.906 280.838 88.7604 289.465 96.7044 296.965C100.175 299.89 104.212 302.068 108.562 303.365C144.93 314.286 179.933 314.192 214.68 306.267C229.461 302.896 232.216 294.043 235.048 280.507C238.22 265.345 229.277 221.27 212.506 205.467C211.756 204.76 207.604 201.977 207.141 201.057C206.661 200.107 206.453 199.937 207.244 198.337C208.844 195.137 220.684 182.062 220.434 159.79C220.391 156.08 219.351 156.126 222.12 153.109C241.6 131.883 235.36 109.214 228.368 105.44C219.906 100.861 212.956 111.443 211.261 111.211C210.621 111.125 209.21 109.59 208.772 109.115C185.711 84.0591 162.504 95.1999 161.92 91.7215C161.17 87.3087 139.602 76.1471 124.736 83.5967C123.959 83.8465 123.271 84.3161 122.755 84.9487C122.238 85.5813 121.916 86.3499 121.828 87.1615C121.637 88.6575 122.948 89.4511 123.108 90.2527C123.367 91.5039 120.548 90.9055 116.292 93.4207C114.725 94.3471 113.226 95.2799 112.932 96.6927C112.58 97.6847 112.444 98.7407 112.53 99.7887C112.669 100.472 113.053 101.432 113.81 101.609C118.588 102.729 123.89 103.209 128.071 106.637C128.455 106.957 128.49 107.213 128.01 107.577C119.565 114.025 120.17 115.981 118.855 117.102C117.164 118.542 117.188 116.521 116.384 114.349C114.767 109.982 108.844 106.139 104.685 112Z" fill="#FFC5F6"/>
<path d="M120.8 204.48C123.705 211.766 125.901 215.35 133.886 218.08C149.163 223.312 164.678 217.325 171.179 205.073C174.977 197.915 178.841 182.211 172.765 173.592C171.769 172.181 170.883 172.312 169.185 173.155C158.773 178.344 156.933 171.512 152.545 172.723C150.957 173.163 146.024 177.872 141.857 175.102C139.792 173.728 138.921 170.803 136.577 169.982C135.788 169.769 134.975 169.657 134.158 169.649C128.409 169.169 126.07 165.659 125.47 165.649C124.846 165.637 124.262 166.355 124.107 166.784C123.379 168.376 122.782 170.025 122.32 171.713C119.84 184.376 113.785 186.88 120.8 204.48Z" fill="white"/>
<path d="M153.92 126.281C151.734 110.804 137.106 111.241 130.443 121.091C123.563 131.265 125.483 150.563 140.28 150.422C150.08 150.328 155.403 136.832 153.92 126.281Z" fill="white"/>
<path d="M185.712 132.343C183.282 117.046 166.911 117.143 159.298 127.153C151.557 137.327 153.723 156.625 170.367 156.484C181.402 156.388 187.387 142.894 185.712 132.343Z" fill="white"/>
<path d="M186.837 132.16C183.957 113.552 162.028 115.283 155.328 130.587C155.378 106.075 132.783 110.091 127.455 123.128C121.191 135.681 126.893 153.292 140.575 151.985C142.168 151.926 143.734 151.551 145.182 150.883C146.629 150.214 147.93 149.265 149.008 148.091C154.989 141.83 152.453 138.388 153.66 144.651C154.095 147.411 155.244 150.01 156.992 152.19C158.739 154.371 161.026 156.057 163.625 157.083C166.225 158.109 169.047 158.439 171.812 158.04C174.578 157.641 177.192 156.528 179.396 154.809C185.636 149.716 188.096 140.281 186.837 132.16ZM141.92 148.656C125.44 151.856 123.175 122.108 139.162 116.288C157.28 109.814 156.564 145.896 141.92 148.656ZM171.869 154.678C157.071 155.745 153.655 140.71 159.405 130.142C163.349 122.782 174.295 119.041 180.045 124.049C189.388 131.86 183.768 153.072 171.866 154.678H171.869Z" fill="#0F0F0F"/>
<path d="M136.903 130.184C132.322 130.184 132.263 144.962 136.903 144.962C141.543 144.962 141.455 130.184 136.903 130.184Z" fill="#0F0F0F"/>
<path d="M167.718 136C162.531 136 162.526 150.776 167.718 150.776C172.91 150.776 172.909 136 167.718 136Z" fill="#0F0F0F"/>
<path d="M210.223 147.472C216.368 155.264 230.863 132.656 215.951 128.379C217.111 125.552 219.349 119.87 221.797 119.232C226.48 118.008 225.341 126.955 225.797 127.072C226.295 127.2 228.415 121.152 225.555 118.184C224.997 117.643 224.314 117.249 223.567 117.035C222.82 116.821 222.032 116.794 221.272 116.957C218.223 117.629 216.434 121.197 215.131 124.038C212.189 130.289 206.981 141.822 210.223 147.472ZM214.738 131.502C224.658 133.609 215.698 146.609 213.394 146.344C212.32 146.611 210.533 142.958 214.738 131.502Z" fill="#0F0F0F"/>
<path d="M192.904 124.384C192.488 123.376 186.248 126.156 179.64 120.224C173.56 115.019 173.21 107.836 172.146 107.851C171.408 107.86 170.831 112.904 173.413 117.611C176.384 123.494 183.034 127.401 188.535 126.51C191.626 126.062 193.085 124.715 192.904 124.384Z" fill="#0F0F0F"/>
<path d="M142.185 107.079C151.974 104.915 155.405 113.247 156.563 112.915C156.974 112.796 157.113 111.406 156.158 109.433C155.49 108.152 154.573 107.017 153.462 106.094C152.351 105.17 151.068 104.477 149.687 104.053C148.305 103.63 146.854 103.485 145.416 103.628C143.978 103.77 142.583 104.197 141.312 104.883C139.414 105.98 138.752 107.211 139.025 107.539C139.336 107.911 140.457 107.443 142.185 107.079Z" fill="#0F0F0F"/>
<path d="M174.915 161.899C165.864 146.207 114.042 142.726 122.378 162.753C124.79 168.62 130.738 170.659 136.795 172.353C139.685 177.873 147.245 179.852 153.075 174.297C156.178 175.396 159.418 176.06 162.702 176.27C171.875 176.511 179.478 170.334 174.915 161.899ZM172.765 167.617C172.417 168.685 171.825 169.657 171.035 170.456C170.245 171.254 169.28 171.857 168.216 172.217C164.056 173.977 159.342 173.228 154.96 172.163C155.51 171.406 156.299 170.858 157.2 170.607C158.978 170.15 163.315 170.447 163.25 169.622C163.214 169.171 159.05 168.111 156.786 168.279C153.771 168.577 152.722 170.719 150.691 172.303C146.267 175.879 141.046 174.211 139.171 170.166C138.118 168.004 138.171 162.457 131.574 161.611C130.426 161.471 129.784 161.611 129.746 161.835C129.707 162.059 130.27 162.345 131.186 162.854C134.866 164.895 134.946 165.254 135.781 169.398C133.2 168.607 130.767 167.395 128.581 165.811C125.642 163.5 123.853 159.803 125.923 156.691C132.243 147.267 174.742 155.359 172.765 167.617Z" fill="#0F0F0F"/>
<path d="M191.634 147.24C190.846 147.098 189.643 151.587 186.051 155.551C182.518 159.565 178.114 161.064 178.315 161.831C178.517 162.597 183.968 162.061 188.125 157.411C192.234 152.882 192.411 147.381 191.634 147.24Z" fill="#0F0F0F"/>
<path d="M124.055 150.478C124.535 150.081 123.407 147.894 122.751 144.947C122.047 142.009 121.631 139.432 120.98 139.441C119.949 139.429 119.549 145.952 122.444 149.429C123.168 150.309 123.826 150.667 124.055 150.478Z" fill="#0F0F0F"/>
<path d="M150.484 197.318C147.948 183.843 138.855 181.811 135.924 198.392C132.732 217.958 153.692 216.494 150.484 197.318ZM140.701 207.934C137.434 204.774 139.285 194.243 141.151 190.579C143.22 186.518 147.391 187.365 148.041 197.632C148.607 207.955 143.375 210.584 140.701 207.934Z" fill="#0F0F0F"/>
<path d="M208.393 200.419C213.823 194.432 217.882 187.332 220.286 179.615C222.69 171.898 223.382 163.75 222.313 155.738C225.691 153.178 228.443 149.884 230.363 146.106C235.291 135.765 240.403 118.746 234.512 108.722C230.533 101.855 221.329 100.651 213.776 106.749C209.041 110.613 213.761 110.343 204.299 101.655C193.363 91.485 175.869 88.1954 163.12 91.2162C151.304 72.0626 120.137 78.2786 120.113 86.7058C120.057 87.9966 120.495 89.2602 121.339 90.2386C115.848 91.7074 108.432 95.6514 111.051 100.624C114.595 106.544 119.341 101.819 127.453 107.712C124.111 109.766 121.252 112.517 119.072 115.778C117.152 107.698 109.209 105.218 104.113 110.053C93.1022 120.37 99.283 154.173 112.113 157.264C102.145 167.603 101.526 191.538 115.897 196.677C116.213 200.068 117.138 203.374 118.627 206.437C112.16 215.53 107.857 227.776 108.8 238.931C84.2782 254.085 78.0686 294.611 105.549 304.271C144.909 317.674 192.193 315.581 217.069 307.546C228.145 303.939 234.419 298.059 236.733 281.773C239.656 260.091 232.013 218.847 208.393 200.419ZM102.909 120.935C105.454 107.859 115.499 108.555 116.769 119.735C111.638 130.339 112.329 143.223 114.542 154.799C104.8 154.541 101.04 130.352 102.909 120.935ZM233.089 281.255C230.896 296.018 225.625 300.775 215.881 303.888C191.037 311.816 144.921 313.522 106.713 300.848C82.7134 292.584 87.8126 256.517 109.155 241.746C109.613 244.363 110.275 245.839 110.67 245.781C112.411 245.549 109.569 227.194 120.8 210.157C131.989 226.328 157.182 224.96 168.488 213.448C174.577 213.219 179.987 212.087 184.227 207.707C189.056 202.723 190.03 195.757 189.325 195.547C188.459 195.227 187.016 201.042 182.014 205.343C179.141 207.709 175.587 209.096 171.87 209.303C176.182 202.735 178.27 194.955 177.83 187.111C177.593 181.199 176.16 177.775 175.721 177.879C174.413 178.106 179.275 214.327 150.56 217.856C155.462 214.093 155.646 207.797 154.776 207.936C154.337 207.901 154.136 210.029 152.36 212.613C147.061 220.09 137.105 218.735 133.198 210.853C131.837 207.947 131.214 205.867 130.798 205.979C130.225 206.123 130.576 212.251 133.784 215.997C132.11 215.286 130.531 214.368 129.086 213.264C110.686 199.288 124.729 172.117 122.478 171.28C121.593 170.938 115.968 182.091 115.758 192.771C104.838 186.285 107.294 163.509 118.182 154.821C119.502 153.767 120.334 153.235 120.214 152.952C120.137 152.755 119.246 152.784 117.784 153.359C116.485 143.266 115.824 131.952 119.486 122.408C124.23 109.787 134.046 106.587 133.406 105.339C133.293 105.115 132.382 105.339 130.769 105.979C124.529 100.135 118.013 100.608 116.086 100.059C109.606 98.2434 124.973 89.0402 140.995 94.5954C147.608 96.8834 151.96 100.533 152.393 100.035C152.971 99.3794 142.473 88.1506 126.811 89.3282C114.209 86.1778 144.025 75.0594 159.241 90.501C163.846 95.1698 165.389 100.443 166.086 100.235C166.457 100.13 166.057 97.1106 164.405 93.6034C172.889 92.9286 181.418 94.1113 189.398 97.069C198.664 100.287 205.035 106.795 209.443 111.448C204.203 118.928 201.334 131.842 202.505 132.146C203.377 132.379 206.144 124.363 210.088 117.44C218.758 102.336 231.461 104.093 233.045 116.432C234.291 126.154 229.144 140.933 225.667 146.605C220.569 154.941 210.075 160.463 210.843 161.667C211.36 162.488 217.63 158.925 219.07 158.008C220.915 194.559 192.049 209.922 192.909 211.323C193.241 211.979 200.259 208.567 206.621 202.25C229.973 221.143 235.616 263.383 233.089 281.258V281.255Z" fill="#0F0F0F"/>
<path d="M115.113 279.244C114.555 278.711 113.87 278.328 113.123 278.132C112.377 277.936 111.592 277.934 110.844 278.124C107.004 279.516 106.294 286.712 108.382 290.212C110.087 293.163 113.366 292.464 113.091 291.881C112.995 291.577 110.895 291.905 109.891 289.42C108.687 286.7 109.655 279.603 112.537 280.433C115.716 281.787 115.631 289.11 113.297 291.516C112.641 292.193 113.718 292.057 114.511 291.524C117.313 289.64 118.047 282.352 115.113 279.244Z" fill="#0F0F0F"/>
<path d="M88.4225 165.817L53.1697 171.982C50.9823 172.365 49.0367 173.601 47.7606 175.419C46.4845 177.236 45.9825 179.486 46.3649 181.673L58.0897 248.701C58.4724 250.888 59.7082 252.833 61.5253 254.11C63.3424 255.386 65.592 255.888 67.7793 255.505L103.031 249.339C104.114 249.15 105.149 248.749 106.077 248.159C107.005 247.57 107.809 246.804 108.441 245.904C109.073 245.004 109.521 243.989 109.761 242.915C110 241.842 110.026 240.732 109.837 239.649L98.1121 172.622C97.7295 170.435 96.4937 168.489 94.6765 167.213C92.8594 165.937 90.6098 165.435 88.4225 165.817Z" fill="#92FCFF"/>
<path d="M111.482 239.36L99.7585 172.336C99.2962 169.714 97.8125 167.382 95.6331 165.852C93.4536 164.322 90.7562 163.719 88.1329 164.176L52.8817 170.341C50.2597 170.804 47.9284 172.288 46.3987 174.467C44.8691 176.646 44.266 179.343 44.7217 181.966L56.4433 248.992C56.8521 251.319 58.0672 253.429 59.8755 254.95C61.6838 256.471 63.9698 257.307 66.3329 257.312C67.5905 257.312 65.1713 257.664 103.32 250.995C104.621 250.769 105.864 250.288 106.978 249.58C108.093 248.872 109.057 247.952 109.814 246.87C110.573 245.79 111.11 244.57 111.396 243.281C111.682 241.993 111.711 240.66 111.482 239.36ZM102.288 246.378C100.698 248.64 103.554 247.554 67.4913 253.858C65.7405 254.16 63.9413 253.756 62.4873 252.735C61.0333 251.714 60.0429 250.159 59.7329 248.41L48.0113 181.384C47.7062 179.634 48.1077 177.835 49.1276 176.381C50.1474 174.928 51.7024 173.938 53.4513 173.629L86.6305 167.826C87.9523 168.238 89.1351 169.007 90.0495 170.046C90.9638 171.086 91.5744 172.358 91.8145 173.722C104.443 245.893 104.8 242.811 102.288 246.381V246.378ZM107.07 244.938C106.214 246.164 104.969 247.065 103.538 247.498C106.824 242.989 106.018 245.194 93.4673 173.429C92.5937 168.432 88.7009 167.349 89.8673 167.349C91.443 167.353 92.967 167.911 94.1731 168.925C95.3792 169.939 96.1907 171.345 96.4657 172.896C109.12 245.29 109.309 241.76 107.07 244.946V244.938Z" fill="#0F0F0F"/>
<path d="M69.8816 175.937C70.6412 175.939 71.376 176.208 71.9571 176.697C72.5382 177.186 72.9284 177.864 73.0592 178.612L75.7792 194.187C75.8529 194.605 75.8433 195.033 75.7512 195.447C75.6591 195.861 75.4863 196.253 75.2425 196.6C74.9988 196.947 74.689 197.243 74.3308 197.47C73.9726 197.697 73.5732 197.852 73.1552 197.924L59.224 200.361C58.8062 200.434 58.3781 200.425 57.9641 200.332C57.5501 200.24 57.1583 200.067 56.8112 199.823C56.4641 199.579 56.1685 199.269 55.9412 198.911C55.7138 198.553 55.5593 198.154 55.4864 197.736L52.7664 182.161C52.6196 181.318 52.8136 180.45 53.3059 179.749C53.7982 179.048 54.5485 178.572 55.392 178.424C70.56 175.769 69.48 175.937 69.8816 175.937ZM68.9536 173.891C46.9872 177.716 49.2736 174.608 53.392 198.102C53.5731 199.147 54.0607 200.115 54.7928 200.882C55.525 201.649 56.4687 202.181 57.504 202.411C58.1904 202.563 58.9008 202.579 59.5936 202.457L73.5248 200.02C74.9243 199.775 76.1691 198.984 76.9857 197.822C77.8023 196.659 78.124 195.22 77.88 193.82L75.16 178.246C75.0481 177.549 74.7975 176.881 74.423 176.282C74.0485 175.683 73.5578 175.165 72.9798 174.759C72.4018 174.353 71.7483 174.067 71.0578 173.918C70.3674 173.769 69.6541 173.76 68.96 173.891H68.9536Z" fill="#0F0F0F"/>
<path d="M68.5341 183.869C67.6084 183.908 66.7351 184.309 66.1016 184.985C65.4681 185.661 65.125 186.558 65.1459 187.485C65.1669 188.411 65.5502 189.292 66.2136 189.939C66.877 190.586 67.7676 190.946 68.6941 190.944C69.6197 190.905 70.4931 190.504 71.1266 189.828C71.7601 189.152 72.1032 188.254 72.0822 187.328C72.0613 186.402 71.6779 185.52 71.0145 184.874C70.3511 184.227 69.4606 183.866 68.5341 183.869Z" fill="white"/>
<path d="M63.0275 184.489C63.017 184.025 62.9151 183.567 62.7277 183.142C62.5403 182.717 62.271 182.333 61.9353 182.012C61.5995 181.691 61.2038 181.44 60.7708 181.272C60.3377 181.104 59.8758 181.023 59.4115 181.033C58.9471 181.044 58.4894 181.145 58.0644 181.333C57.6394 181.52 57.2555 181.79 56.9346 182.125C56.6137 182.461 56.362 182.857 56.194 183.29C56.026 183.723 55.945 184.185 55.9555 184.649C55.9767 185.587 56.3696 186.478 57.0477 187.126C57.7259 187.774 58.6337 188.126 59.5715 188.105C60.5093 188.084 61.4003 187.691 62.0484 187.013C62.6965 186.335 63.0487 185.427 63.0275 184.489Z" fill="white"/>
<path d="M60.9501 190.141C60.0244 190.18 59.1511 190.581 58.5176 191.257C57.8841 191.933 57.541 192.831 57.5619 193.757C57.5829 194.683 57.9662 195.564 58.6296 196.211C59.293 196.858 60.1836 197.219 61.1101 197.216C62.0358 197.177 62.9091 196.776 63.5426 196.1C64.1761 195.424 64.5192 194.526 64.4982 193.6C64.4773 192.674 64.094 191.793 63.4306 191.146C62.7672 190.499 61.8766 190.138 60.9501 190.141Z" fill="white"/>
<path d="M68.5151 183.04C62.7935 183.169 62.8959 191.785 68.6143 191.785C74.4687 191.781 74.3631 182.91 68.5151 183.04ZM68.6752 190.112C68.1479 190.107 67.6334 189.948 67.1953 189.655C66.7572 189.361 66.4146 188.946 66.2098 188.46C66.005 187.974 65.9468 187.439 66.0426 186.921C66.1384 186.402 66.3839 185.923 66.7487 185.542C67.2367 185.03 67.9071 184.731 68.6127 184.709C69.3068 184.733 69.9648 185.024 70.4503 185.52C70.9359 186.017 71.2117 186.681 71.2207 187.376C71.2306 188.071 70.9719 188.742 70.4985 189.251C70.0252 189.76 69.3737 190.067 68.6799 190.107L68.6752 190.112Z" fill="#0F0F0F"/>
<path d="M59.5914 188.944C65.3674 188.809 65.1802 180.078 59.3882 180.198C53.5274 180.336 53.9034 189.201 59.5914 188.944ZM56.7882 184.64C56.7753 183.926 57.0459 183.236 57.5407 182.721C58.0355 182.206 58.7142 181.908 59.4282 181.892C60.1413 181.876 60.8319 182.143 61.3494 182.634C61.867 183.125 62.1696 183.8 62.1914 184.513C62.2042 185.227 61.9336 185.917 61.4388 186.432C60.944 186.947 60.2653 187.245 59.5514 187.26C58.8382 187.276 58.1477 187.01 57.6301 186.519C57.1126 186.028 56.8099 185.353 56.7882 184.64Z" fill="#0F0F0F"/>
<path d="M60.9312 189.306C55.2112 189.44 55.3104 198.053 61.0304 198.053C66.9184 198.053 66.6944 189.165 60.9312 189.306ZM62.9872 195.546C62.5225 196.026 61.8965 196.317 61.2299 196.363C60.5632 196.409 59.9031 196.207 59.3769 195.795C58.8507 195.383 58.4956 194.791 58.3802 194.133C58.2648 193.474 58.3973 192.797 58.752 192.23C58.9908 191.856 59.3179 191.546 59.7045 191.327C60.0912 191.109 60.5256 190.989 60.9695 190.978C61.5036 190.965 62.0294 191.112 62.4803 191.398C62.9312 191.685 63.2871 192.098 63.503 192.587C63.719 193.076 63.7852 193.617 63.6934 194.144C63.6015 194.67 63.3558 195.157 62.9872 195.544V195.546Z" fill="#0F0F0F"/>
<path d="M69.6298 177.92C69.3196 177.921 69.0168 178.015 68.7593 178.188C68.5018 178.361 68.3011 178.606 68.1824 178.892C68.0637 179.179 68.0322 179.494 68.092 179.799C68.1518 180.103 68.3001 180.383 68.5183 180.604C68.7388 180.822 69.0188 180.97 69.3232 181.03C69.6276 181.09 69.9429 181.058 70.2295 180.939C70.5161 180.821 70.7613 180.62 70.9343 180.363C71.1073 180.105 71.2004 179.802 71.2019 179.492C71.2021 179.286 71.1616 179.081 71.0827 178.89C71.0038 178.699 70.888 178.526 70.742 178.38C70.5959 178.234 70.4225 178.118 70.2317 178.039C70.0409 177.96 69.8364 177.92 69.6298 177.92Z" fill="#0F0F0F"/>
<path d="M72.3325 216.579C73.0733 216.969 78.1741 218.499 78.8109 217.945C81.7021 215.723 85.5901 214.681 83.2589 211.414C81.8109 209.387 80.7645 213.318 78.7789 210.592C77.6061 208.884 79.8141 207.446 78.5197 206.089C77.9357 205.476 76.1949 203.665 76.0205 203.82C75.8205 203.737 70.1805 215.662 72.3325 216.579ZM77.5357 216.875C75.9486 216.581 74.3894 216.153 72.8749 215.595C72.7149 215.435 72.9645 215.435 77.4733 213.612C78.2397 217.496 78.5453 217.084 77.5357 216.875ZM78.4253 216.841C78.0093 212.072 76.5901 213.707 82.8077 213.481C82.4477 214.492 79.5741 216.019 78.4253 216.841ZM77.8813 206.624C78.3389 207.19 77.7213 207.614 77.4157 208.987C77.3061 209.783 77.4853 210.592 77.921 211.267C78.3566 211.942 79.0197 212.439 79.7901 212.667C80.2957 212.787 80.7005 212.827 82.2701 211.955C82.4877 212.227 82.6621 212.531 82.7869 212.856C82.9373 213.336 82.9581 213.204 81.8013 213.092C80.5024 212.89 79.1852 212.83 77.8733 212.913C76.2509 203.054 75.3165 203.451 77.8813 206.624ZM75.9821 204.505C76.1421 206.44 76.9501 210.934 77.3629 213.056C75.8125 213.676 74.3021 214.392 72.8381 215.196C72.9277 213.51 75.2669 208.22 75.9821 204.505Z" fill="#0F0F0F"/>
<path d="M83.8668 215.473C78.2556 219.633 78.8236 219.214 78.5868 219.176C76.4598 219.001 74.3971 218.361 72.5452 217.3C72.469 217.255 72.3815 217.233 72.293 217.236C72.2046 217.239 72.1189 217.268 72.046 217.318C71.974 217.369 71.9181 217.44 71.885 217.522C71.8518 217.604 71.8427 217.694 71.8588 217.78C72.4332 220.68 80.0492 227.974 80.454 227.46C81.3452 227.956 87.4348 212.828 83.8668 215.473ZM74.3996 220.072C73.2796 218.58 73.2428 219.307 76.4428 219.921C77.2332 220.159 78.0528 220.285 78.878 220.297C79.118 222.55 79.5516 224.777 80.1724 226.956C79.35 225.907 76.8908 223.374 74.3996 220.072ZM83.7308 216.955C82.8991 220.364 81.7925 223.7 80.422 226.931C80.302 224.15 79.054 220.281 79.214 220.211C79.4876 220.08 84.0812 216.686 83.7324 216.96L83.7308 216.955Z" fill="#0F0F0F"/>
<path d="M84.2677 174.952C82.2901 174.742 80.8406 171.177 80.0054 169.734C79.8003 169.204 79.434 168.751 78.9581 168.44C78.4822 168.129 77.9206 167.975 77.3526 168C74.0774 167.627 70.0358 167.2 67.4758 164.883C63.4758 161.254 65.5669 155.188 70.2565 153.347C75.903 151.128 82.2661 151.201 88.2341 150.87C93.2629 150.592 99.7654 151.094 101.333 157.04C103.722 166.092 90.5157 167.048 89.1013 168.129C87.3701 169.452 87.7045 175.316 84.2677 174.952Z" fill="white"/>
<path d="M86.6712 171.89C88.4312 172.518 87.8552 172.794 88.7512 170.242C89.3432 168.566 89.7224 168.65 90.6296 168.427C94.4984 167.482 99.9944 166.003 101.844 162.277C103.937 158.056 102.004 150.973 93.044 149.874C90.924 149.613 76.8968 149.434 69.6984 152.39C62.7128 155.259 61.8856 165.058 70.7592 167.811C73.1704 168.408 75.6216 168.829 78.0936 169.067C78.8728 169.286 79.0536 169.906 80.0664 171.725C83.1192 177.245 86.4664 176.845 88.0248 172.365L86.6744 171.885C84.3224 178.221 81.308 169.906 80.212 168.365C78.484 165.941 69.8664 167.757 67.0408 162.64C65.548 159.938 66.676 155.539 72.1144 153.861C76.6642 152.701 81.339 152.102 86.0344 152.078C89.732 151.906 95.252 151.406 98.364 154.074C100.658 156.042 101.895 160.594 98.5128 163.318C96.3828 164.826 93.9788 165.902 91.436 166.488C88.1016 167.43 88.1256 167.054 86.6712 171.89Z" fill="#0F0F0F"/>
<path d="M75.7905 157.315C75.0647 157.315 74.3685 157.603 73.8553 158.117C73.342 158.63 73.0537 159.326 73.0537 160.052C73.0537 160.778 73.342 161.474 73.8553 161.987C74.3685 162.5 75.0647 162.789 75.7905 162.789C76.5045 162.77 77.1831 162.474 77.6821 161.963C78.1811 161.452 78.4611 160.767 78.4625 160.053C78.4627 159.338 78.1833 158.651 77.684 158.14C77.1847 157.628 76.5051 157.332 75.7905 157.315Z" fill="#0F0F0F"/>
<path d="M83.8869 157.024C83.1612 157.024 82.4653 157.312 81.9522 157.825C81.4391 158.338 81.1509 159.034 81.1509 159.76C81.1509 160.485 81.4391 161.181 81.9522 161.694C82.4653 162.207 83.1612 162.496 83.8869 162.496C84.6125 162.496 85.3084 162.207 85.8215 161.694C86.3346 161.181 86.6229 160.485 86.6229 159.76C86.6229 159.034 86.3346 158.338 85.8215 157.825C85.3084 157.312 84.6125 157.024 83.8869 157.024Z" fill="#0F0F0F"/>
<path d="M91.8488 156.63C91.1232 156.63 90.4272 156.918 89.9141 157.431C89.401 157.945 89.1128 158.64 89.1128 159.366C89.1128 160.092 89.401 160.788 89.9141 161.301C90.4272 161.814 91.1232 162.102 91.8488 162.102C92.5744 162.102 93.2703 161.814 93.7834 161.301C94.2965 160.788 94.5848 160.092 94.5848 159.366C94.5848 158.64 94.2965 157.945 93.7834 157.431C93.2703 156.918 92.5744 156.63 91.8488 156.63Z" fill="#0F0F0F"/>
<path d="M257.191 85.6C271.663 80.6016 288.437 89.432 291.953 104.334C295.057 117.502 286.857 131.357 273.893 135.485C260.293 139.814 244.613 132.445 240.261 118.33C236.025 104.594 244.257 90.0704 257.191 85.6Z" fill="white"/>
<path d="M265.897 137.88C260.993 137.995 256.149 136.789 251.871 134.39C247.593 131.99 244.039 128.485 241.58 124.24C239.122 119.996 237.849 115.169 237.896 110.264C237.943 105.359 239.307 100.557 241.846 96.3603C245.248 90.7392 250.56 86.5307 256.811 84.5043C272.028 79.2467 289.435 88.5939 293.086 104.072C293.942 108.134 293.885 112.335 292.919 116.373C291.953 120.41 290.102 124.182 287.5 127.416C284.899 130.651 281.611 133.268 277.875 135.078C274.139 136.888 270.048 137.845 265.897 137.88ZM257.577 86.7043C237.028 93.8019 233.782 122.151 253.662 132.544C273.687 143.011 295.582 124.787 290.827 104.605C287.489 90.4819 271.495 81.8931 257.571 86.7043H257.577Z" fill="#0F0F0F"/>
<path d="M251.607 123.592C253.603 126.078 256.735 125.008 265.659 126.12C268.779 126.691 271.931 127.065 275.099 127.24C281.724 127.216 281.151 114.846 281.876 110.206C282.243 107.849 285.017 98.7982 279.137 96.6798C278.297 96.4273 277.427 96.2853 276.55 96.2574C263.796 95.179 252.939 90.3374 251.923 98.6303C249.583 117.688 248.287 119.457 251.607 123.592Z" fill="#92FCFF"/>
<path d="M258.82 92.9598C257.875 92.8429 256.916 92.9135 255.998 93.1678C255.081 93.4221 254.222 93.8549 253.472 94.4416C252.722 95.0283 252.095 95.7572 251.627 96.5866C251.159 97.416 250.859 98.3296 250.745 99.275C247.159 128.544 244.235 124.864 273.577 128.467C275.485 128.697 277.405 128.161 278.919 126.977C280.432 125.794 281.415 124.059 281.652 122.152C285.23 92.8798 288.161 96.5374 258.82 92.9598ZM274.29 122.641L259.361 120.817C257.967 120.645 256.699 119.926 255.833 118.82C254.968 117.714 254.577 116.309 254.745 114.915L256.569 99.987C256.706 98.8872 257.184 97.8578 257.935 97.043C258.687 96.2282 259.674 95.6688 260.759 95.443C285.796 98.5022 282.769 94.643 279.71 119.675C279.227 120.672 278.446 121.493 277.474 122.023C276.503 122.554 275.39 122.768 274.29 122.635V122.641ZM273.847 126.254C253.815 123.814 253.394 124.249 251.686 122.064C249.977 119.878 250.462 119.969 252.966 99.5454C253.105 98.3992 253.636 97.3362 254.468 96.5358C255.3 95.7353 256.383 95.2465 257.534 95.1518C254.546 97.4958 254.998 99.1406 253.094 114.712C252.874 116.547 253.39 118.395 254.53 119.85C255.669 121.306 257.339 122.25 259.174 122.477C274.694 124.376 276.217 125.224 279.228 122.878C278.855 123.973 278.116 124.905 277.136 125.519C276.156 126.132 274.995 126.39 273.847 126.248V126.254Z" fill="#0F0F0F"/>
<path d="M277.016 107.92C276.216 102.067 275.864 101.739 273.114 103.104C270.84 104.224 267.083 104.992 271.514 108.027C271.813 108.235 272.064 107.611 268.69 113.122C267.197 106.378 267.25 105.259 265.683 105.336C264.815 105.387 264.517 105.976 264.04 106.549C258.92 112.738 255.976 117.707 261.271 112.296C266.517 106.933 265.271 106.734 265.947 109.832C267.192 115.536 267.098 115.413 267.583 115.768C267.811 115.95 268.091 116.053 268.383 116.064C268.674 116.074 268.961 115.991 269.202 115.826C269.362 115.716 269.496 115.573 269.595 115.406L273.331 109.304C274.104 109.808 274.947 110.194 275.832 110.451C277.067 110.451 277.184 109.144 277.016 107.92ZM271.315 105.76C271.818 105.528 272.623 105.144 273.491 104.774C274.952 104.166 274.578 103.734 274.952 105.672C275.112 106.472 275.352 107.936 275.405 108.533C273.948 107.755 272.577 106.826 271.315 105.76Z" fill="#0F0F0F"/>
<path d="M260.127 78.5246C260.659 81.1646 258.687 85.0702 260.032 87.107C260.422 87.5885 260.96 87.9278 261.563 88.0725C262.166 88.2171 262.799 88.159 263.365 87.907C264.486 87.3762 265.462 86.5831 266.212 85.595C270.607 97.5502 254.236 105.933 245.232 97.0366C240.96 92.8174 241.824 80.1822 243.736 84.9774C244.128 86.0324 244.766 86.9788 245.597 87.7384C246.427 88.498 247.427 89.0488 248.512 89.3454C250.388 89.4734 251.778 87.1694 250.469 84.7182C249.239 82.4174 247.909 81.1054 251.6 79.211C255.727 77.0942 255.997 77.1214 255.938 75.691C255.897 75.0647 255.981 74.4364 256.186 73.843C256.56 73.3358 259.603 75.9438 260.127 78.5246Z" fill="#FDFE1F"/>
<path d="M267.079 85.8492C266.693 84.6012 266.248 84.014 266.119 84.0684C265.959 84.0524 265.799 84.398 265.52 84.9548C263.458 88.9964 259.44 88.1948 260.591 84.3244C261.916 79.51 262.7 76.118 257.032 73.4124C255.912 72.8636 255.592 73.0604 255.724 74.5484C256.013 77.8444 252.909 76.7996 250.044 78.8428C249.199 79.375 248.551 80.1672 248.196 81.0999C247.842 82.0327 247.8 83.0554 248.077 84.014C248.605 85.5452 250.157 86.926 249.853 87.694C249.693 88.5052 248.349 89.0701 246.592 87.998C243.752 86.2541 243.872 82.6061 243.541 82.5853C243.18 82.2573 240.877 85.0012 241.375 89.5996C241.693 92.7511 243.097 95.6939 245.346 97.924C247.596 100.154 250.55 101.533 253.704 101.824C255.744 102.013 257.8 101.704 259.694 100.924C261.588 100.143 263.265 98.9147 264.58 97.3436C265.895 95.7728 266.809 93.9063 267.245 91.9042C267.68 89.9022 267.623 87.8244 267.079 85.8492ZM242.938 89.3788C242.596 87.7686 242.615 86.1024 242.994 84.5004C242.999 86.0417 243.579 87.5256 244.621 88.6614C245.663 89.7973 247.091 90.5033 248.626 90.6413C249.186 90.6685 249.743 90.5516 250.245 90.3017C250.746 90.0517 251.175 89.6771 251.491 89.2138C251.806 88.7505 251.997 88.2139 252.045 87.6556C252.093 87.0973 251.998 86.5359 251.767 86.0252C251.012 84.2812 248.621 82.6236 251.287 80.4796C253.18 78.9452 258.197 78.5133 256.567 74.342C256.349 73.862 256.36 73.9277 256.512 74.1069C257.388 75.0989 257.741 75.334 258.33 76.0668C261.541 80.0188 257.292 83.198 258.29 86.8604C259.165 90.4028 265.064 90.7004 266.228 86.0156C267.52 102.289 245.844 104.617 242.938 89.3788Z" fill="#0F0F0F"/>
<path d="M52.7993 74.6394C73.1785 67.5994 96.7993 80.0378 101.747 101.023C106.126 119.564 94.5769 139.071 76.3193 144.886C57.1769 150.982 35.0905 140.603 28.9593 120.726C23.0025 101.382 34.5961 80.9322 52.7993 74.641V74.6394Z" fill="white"/>
<path d="M65.0636 147.817C48.6316 147.817 32.9036 137.577 27.8204 121.084C21.8156 101.607 32.8475 80.265 52.4139 73.5066C52.6859 74.2906 53.142 75.6122 52.4139 73.5066C57.6069 71.769 63.1061 71.1376 68.5578 71.6529C74.0094 72.1682 79.2929 73.8188 84.0684 76.4986C119.286 95.8906 103.827 147.815 65.0636 147.817ZM30.1164 120.375C36.0252 139.532 57.374 149.655 75.9612 143.735C104.788 134.559 111.88 94.5594 82.91 78.6042C53.2796 62.2938 20.9116 90.5194 30.1164 120.375Z" fill="#0F0F0F"/>
<path d="M82.1258 130.08C78.0581 132.504 73.6657 134.336 69.081 135.52C47.841 140.779 33.761 98.3085 47.241 89.1789C49.0554 87.9501 59.9738 82.8029 65.4922 83.4589C86.113 85.9069 96.3706 121.801 82.1258 130.08Z" fill="#FDFE1F"/>
<path d="M60.2416 82.8509C57.056 83.5805 47.6976 87.0733 45.5216 89.1565C39.3968 94.8077 40.2272 108.39 43.6464 117.259C49.5952 132.715 60.6064 138.017 66.5824 137.137C71.576 136.517 83.0256 132.355 86.9792 126.721C95.8864 112.078 80.8752 78.2797 60.2416 82.8509ZM56.5024 86.1917C53.8445 88.6394 52.1789 91.9786 51.8224 95.5741C47.8848 97.3341 48.8416 97.6541 43.608 98.3485C44.92 90.4653 48.144 89.3629 56.5024 86.1917ZM43.3824 100.112C48.608 98.1549 44.4608 99.1885 51.632 97.4973C51.4777 101.008 51.8465 104.521 52.7264 107.923C48.496 109.608 50.1104 109.881 44.0336 110.633C43.2555 107.183 43.0335 103.631 43.376 100.11L43.3824 100.112ZM44.4176 112.211C52.2576 109.179 48.8432 110.913 53.1984 109.681C54.2441 113.32 55.7094 116.825 57.5648 120.125C50.7984 122.862 55.1648 121.541 48.832 122.768C46.8948 119.461 45.4081 115.91 44.4112 112.209L44.4176 112.211ZM49.76 124.259C56.7584 121.166 54.5104 122.854 58.5056 121.717C60.0737 124.336 62.0212 126.708 64.2848 128.757C59.552 131.6 60.5024 130.587 56.7408 131.809C53.9611 129.752 51.593 127.191 49.76 124.259ZM58.3728 132.837C59.2513 132.277 60.1732 131.788 61.1296 131.374C61.2896 131.374 65.6832 130.043 65.8432 129.966C68.4692 131.73 71.5768 132.637 74.7392 132.563C65.9472 136.085 62.6608 135.248 58.3648 132.837H58.3728ZM82.3072 128.731C59.0752 145.28 39.36 81.5901 65.2272 84.4461C86.6656 86.8141 93.944 121.672 82.2992 128.731H82.3072Z" fill="#0F0F0F"/>
<path d="M81.9486 103.133C79.995 98.9965 84.539 108.493 83.4206 117.329C82.4014 125.365 77.4222 128.369 73.6014 127.39C65.9214 125.433 53.6494 105.141 58.4702 93.1277C61.0702 86.4637 70.4702 84.7229 79.1886 98.4077C80.547 100.573 82.0686 103.646 80.9966 100.949C74.8158 85.4525 61.1198 83.1389 57.2958 92.6589C53.9694 100.688 57.5838 116.227 68.7854 126.163C79.3006 135.446 89.6302 119.381 81.9486 103.133Z" fill="#0F0F0F"/>
<path d="M72.855 105.794C76.063 101.829 74.239 96.2863 69.5334 96.1615C69.2454 94.3103 67.9558 93.3135 67.6342 93.5711C67.3126 93.8287 67.7734 95.0767 68.1686 96.2767C66.0422 96.6495 66.3446 96.8959 66.239 96.5231C65.4166 93.6719 64.0726 94.0271 64.9046 96.9087C65.0934 97.5583 65.0166 96.7663 63.415 98.0767C63.9478 99.8367 67.5926 108.49 67.5926 109.202C71.3814 122.518 70.2422 121.042 72.319 120.152C72.5222 120.109 72.4006 120.056 72.6086 120.578C73.3606 122.483 75.2294 123.458 73.9014 120.066C73.7542 119.701 73.7126 119.811 74.135 119.669C75.991 119.054 75.7238 118.757 75.839 119.07C77.119 122.55 77.9638 120.83 77.1462 118.602C76.9366 118.011 76.8838 118.213 77.1686 117.95C81.7062 113.792 77.4406 106.675 72.855 105.794ZM71.3606 98.1551C73.5382 98.9647 73.9414 102.254 71.5286 104.235C70.4711 105.046 69.3037 105.702 68.0614 106.184C67.495 103.794 67.0198 101.28 66.5942 99.3519C68.127 98.4879 69.823 97.5551 71.3606 98.1551ZM72.4182 117.355C71.0311 114.713 69.8401 111.973 68.855 109.157C70.0865 108.379 71.5018 107.94 72.9574 107.886C77.775 108.43 81.1206 116.33 72.4118 117.362L72.4182 117.355Z" fill="#0F0F0F"/>
<path d="M36.7487 94.0539C42.2639 99.4491 52.1807 100.236 61.1183 93.4923C65.6079 90.1035 66.1375 87.5723 66.2735 82.4523C66.3983 77.8123 66.2975 74.9643 62.2015 69.0939C61.3711 72.3643 60.0271 75.7691 57.1839 77.6059C55.5983 78.6299 54.2255 76.5035 53.7503 74.8459C52.2927 69.7579 56.0351 64.0539 50.7215 60.5787C50.5615 60.4731 47.0415 55.5531 42.7215 57.0587C43.6474 57.9517 44.2397 59.1349 44.3998 60.4113C44.5599 61.6878 44.2782 62.9806 43.6015 64.0747C42.7841 65.5297 41.7376 66.8436 40.5023 67.9659C38.7567 69.6779 37.0175 69.7899 36.9055 71.6027C36.6703 75.3979 45.3679 80.6267 42.6735 82.4107C35.4399 87.1979 34.3375 81.5403 32.0287 80.2955C31.0687 79.7787 31.1855 79.5163 30.5775 78.8891C29.7599 78.0427 29.6783 81.0667 30.8431 83.7179C32.1855 86.7899 33.6415 91.0155 36.7487 94.0539Z" fill="#FFC5F6"/>
<path d="M67.0761 77.1739C65.9769 71.4843 61.8681 67.4459 61.4585 67.8507C60.9961 68.0315 61.8873 70.1883 59.9993 73.3115C59.1657 74.6811 57.1913 76.5115 56.0409 76.0315C54.3641 75.6443 54.6489 72.0571 54.8249 70.3307C55.1289 67.1803 55.4089 64.6411 53.7433 61.6779C52.7822 59.8775 51.3314 58.3857 49.5586 57.3747C47.7857 56.3637 45.763 55.8747 43.7241 55.9643C41.1641 56.2315 42.1081 56.7403 43.0409 58.2731C43.7278 59.3619 44.0017 60.6607 43.813 61.9342C43.6242 63.2076 42.9853 64.3712 42.0121 65.2139C40.6905 66.4267 37.8905 66.7819 36.5721 69.3451C36.075 70.2694 35.8289 71.308 35.8584 72.3571C35.8879 73.4062 36.1919 74.4293 36.7401 75.3243C37.8921 76.7339 39.2681 77.9467 40.8121 78.9115C43.7161 81.3851 41.4697 83.6955 37.9769 83.1787C32.8377 82.4731 30.5161 77.0779 29.9641 77.3099C29.3577 77.2619 27.0697 89.8763 39.2681 97.0859C52.4137 104.724 70.5497 93.9099 67.0761 77.1739ZM63.3385 88.1003C56.6905 101.439 33.4841 99.7707 30.4841 80.1595C30.1849 77.9707 30.4553 81.1659 33.8569 83.7483C40.1241 88.3883 46.6265 83.8203 44.4777 79.2331C42.8777 75.6299 38.6681 75.3931 38.5865 72.2235C38.5305 68.9195 41.5593 69.0555 43.6121 66.8731C44.3178 66.2306 44.8713 65.4389 45.2325 64.5556C45.5936 63.6722 45.7532 62.7194 45.6997 61.7666C45.6463 60.8138 45.381 59.8849 44.9233 59.0475C44.4655 58.2101 43.8269 57.4853 43.0537 56.9259C44.8359 57.1496 46.5357 57.808 48.0035 58.8431C49.4714 59.8782 50.6622 61.2583 51.4713 62.8619C53.6825 67.4219 50.2649 73.1099 53.1337 77.0011C55.2649 79.9931 59.7929 78.6379 61.7481 74.2059C63.3017 70.6187 61.7593 68.5259 62.8201 70.3883C64.344 73.0746 65.1879 76.0928 65.2783 79.1799C65.3686 82.2671 64.7027 85.3295 63.3385 88.1003Z" fill="#0F0F0F"/>
<path d="M242.966 228.137C262.248 221.477 284.598 233.243 289.28 253.097C293.417 270.64 282.491 289.097 265.22 294.6C247.107 300.369 226.209 290.547 220.411 271.744C214.766 253.44 225.734 234.089 242.966 228.137Z" fill="white"/>
<path d="M254.561 297.789C238.807 297.789 223.782 287.954 218.924 272.202C209.508 241.668 242.556 212.914 272.743 229.533C306.322 248.021 291.841 297.789 254.561 297.789ZM254.218 227.818C219.895 227.818 207.082 274.378 238.254 290.677C264.934 304.626 294.108 280.344 287.767 253.455C284.22 238.4 269.727 227.818 254.222 227.818H254.218Z" fill="#0F0F0F"/>
<path d="M231.738 276.528C231.826 277.683 232.202 278.797 232.831 279.77C233.459 280.742 234.321 281.542 235.338 282.096C236.255 282.457 237.22 282.68 238.202 282.758C264.303 286.152 271.081 288.614 272.377 281.01C273.177 276.347 278.084 248.459 275.762 244.395C273.226 239.962 259.311 240.288 250.882 238.298C248.508 237.736 245.57 238.234 243.121 238.03C242.033 237.922 240.936 238.033 239.891 238.355C238.847 238.677 237.878 239.204 237.041 239.906C235.234 241.456 235.797 242.786 234.812 248.694C234.212 252.256 231.389 273.806 231.738 276.528Z" fill="#92FCFF"/>
<path d="M278.547 248.072C278.671 247.07 278.596 246.054 278.326 245.081C278.056 244.109 277.597 243.199 276.974 242.405C275.718 240.8 273.875 239.759 271.851 239.512C241.266 235.779 240.456 234.872 237.066 237.528C233.706 240.155 234.531 239.726 230.15 275.547C230.027 276.549 230.102 277.566 230.372 278.538C230.643 279.511 231.102 280.421 231.725 281.216C232.347 282.01 233.119 282.675 233.998 283.171C234.877 283.667 235.845 283.985 236.847 284.107C268.567 287.985 266.224 287.723 266.903 287.723C268.778 287.72 270.588 287.031 271.992 285.788C273.395 284.544 274.297 282.831 274.527 280.969L278.547 248.072ZM242.048 243.611C242.165 242.639 242.566 241.724 243.202 240.98C243.838 240.236 244.681 239.698 245.623 239.432C273.059 242.792 272.914 242.254 274.528 244.317C276.143 246.379 275.706 245.745 271.903 276.854C271.418 277.704 270.692 278.392 269.817 278.83C268.942 279.268 267.957 279.437 266.986 279.317C240.699 276.101 241.432 276.688 239.738 274.517C238.003 272.304 238.44 273.15 242.048 243.611ZM266.341 284.587L237.221 281.029C236.623 280.957 236.044 280.768 235.519 280.472C234.994 280.177 234.533 279.78 234.162 279.305C233.789 278.832 233.514 278.289 233.352 277.709C233.191 277.128 233.146 276.521 233.221 275.923C237.541 240.609 236.901 241.59 238.967 239.971C239.793 239.323 240.817 238.98 241.867 239C240.681 240.156 239.926 241.684 239.73 243.329C236.168 272.489 235.41 272.785 237.895 275.952C240.379 279.118 240.999 278.491 266.695 281.625C268.35 281.834 270.027 281.462 271.44 280.574C271.37 281.173 271.182 281.752 270.887 282.278C270.592 282.804 270.196 283.266 269.722 283.638C268.765 284.39 267.549 284.731 266.341 284.587Z" fill="#0F0F0F"/>
<path d="M248.252 256.061C247.612 251.075 250.281 251.921 248.229 247.541C247.802 246.627 250.029 246.058 251.013 245.848C253.413 251.39 255.745 250.566 256.677 254.115C257.195 256.205 258.235 258.13 259.7 259.708C261.165 261.286 263.007 262.466 265.053 263.138C266.665 263.677 269.154 263.298 269.631 264.898C270.889 269.128 263.605 272.59 256.117 267.981C254.015 266.69 252.221 264.953 250.862 262.894C249.503 260.834 248.612 258.502 248.252 256.061Z" fill="#FDFE1F"/>
<path d="M243.373 262.845C245.625 260.738 246.71 259.557 248.129 259.082C249.579 258.602 252.04 258.982 254.193 256.522C256.347 254.061 255.621 252.093 261.507 248.302C262.601 247.598 262.222 247.608 262.627 248.168C266.014 252.87 265.558 252.526 266.673 253.928C267.715 255.238 268.093 255.314 268.179 255.688C268.366 256.498 264.849 259.026 264.339 259.347C262.078 260.768 262.309 260.787 261.808 262.707C260.573 267.424 256.368 266.576 253.136 268.555C247.405 272.075 249.435 274.458 245.966 269.117C242.361 263.552 241.369 264.72 243.373 262.845Z" fill="white"/>
<path d="M270.613 265.939C270.576 260.702 265.333 264.933 260.127 258.934C256.597 254.859 258.527 253.275 254.744 249.984C250.093 246.07 253.44 243.864 249.01 245.726C246.858 246.648 247.424 247.402 248.021 248.677C248.288 249.155 248.428 249.693 248.428 250.24C248.428 250.787 248.288 251.325 248.021 251.803C246.471 256.963 249.396 265.254 256.796 269.243C264.447 273.266 270.72 269.522 270.613 265.939ZM248.906 247.336C249.424 247.013 250.008 246.808 250.616 246.738C251.314 248.366 251.114 247.043 249.279 248.253C249.136 247.955 249.012 247.649 248.906 247.336ZM249.191 252.171C249.664 251.254 249.808 250.201 249.599 249.19C250.254 249.047 250.86 248.736 251.359 248.288C253.565 252.288 254.591 250.238 256.117 255.035C256.775 257.268 258.012 259.287 259.702 260.887C261.393 262.487 263.477 263.611 265.743 264.144C269.252 264.734 267.183 264.002 266.652 265.882C266.556 266.312 266.574 266.759 266.704 267.18C266.834 267.601 267.072 267.981 267.394 268.282C259.261 273.357 246.154 261.253 249.191 252.171ZM267.884 267.933C267.591 266.482 267.44 265.781 268.752 264.893C268.982 265.422 269.021 266.014 268.863 266.569C268.704 267.123 268.358 267.605 267.884 267.933Z" fill="#0F0F0F"/>
<path d="M264.301 266.168C263.143 265.974 262.014 265.635 260.941 265.156C261.798 264.151 262.398 262.954 262.69 261.667C262.938 260.84 263.098 260.888 268.988 256.243C268.1 255.036 263.642 248.907 262.546 247.852C262.279 247.595 262.327 247.272 257.849 250.699C255.226 252.704 256.189 252.18 255.325 254.209C254.823 255.383 254.005 256.395 252.962 257.132C251.588 254.572 251.407 253.011 251.109 253.04C250.748 253.07 250.828 255.355 252.017 257.705C251.005 258.155 249.921 258.422 248.817 258.496C247.735 258.702 247.5 259.033 241.577 263.936C249.972 275.336 249.885 274.486 242.922 264.121C248.234 259.931 248.29 259.724 249.05 259.59C250.338 259.506 251.594 259.158 252.741 258.568C254.337 257.686 255.574 256.274 256.239 254.577C257.039 252.497 256.162 253.206 258.335 251.326C263.311 247.232 262.132 247.82 262.335 247.854C262.495 247.878 261.332 246.691 267.628 256.043C262.753 259.723 261.986 260.147 261.645 261.305C261.41 262.411 260.917 263.446 260.206 264.325C259.495 265.204 258.586 265.903 257.554 266.364C256.585 266.703 255.584 266.94 254.565 267.072C252.94 267.628 242.329 276.921 252.676 269.339C253.297 268.75 254.021 268.283 254.815 267.961C256.737 267.884 258.585 267.201 260.095 266.009C263.108 267.427 266.135 266.908 266.119 266.606C266.103 266.438 265.394 266.361 264.301 266.168Z" fill="#0F0F0F"/>
<path d="M224.627 230.65C224.435 234.824 224.723 236.376 227.448 239.492C231.843 244.522 236.613 245.612 240.861 244.578C249.686 242.429 251.315 231.34 249.289 227.607C248.749 226.613 248.561 229.162 246.473 230.495C244.329 231.863 241.881 230.78 241.941 227.706C241.968 226.314 243.717 220.768 238.654 217.581C238.174 217.279 236.869 216.676 236.539 216.917C236.123 217.221 236.84 218.677 236.744 219.421C236.624 220.359 235.841 220.882 232.723 223.77C228.051 228.098 234.297 230.911 233.598 233.05C233.224 234.192 230.629 235.093 228.278 233.501C226.118 232.036 225.496 229.834 225.166 229.78C224.781 229.712 224.64 230.4 224.627 230.65Z" fill="#FDFE1F"/>
<path d="M251.152 232.915C251.067 228.677 248.949 225.477 248.555 225.739C248.15 225.77 247.611 230.886 244.235 229.987C240.483 229.08 247.192 219.995 238.51 216.979C234.41 215.539 236.648 217.52 236.384 219.251C236.038 221.651 229.832 221.902 229.677 226.869C229.546 229.885 232.901 231.277 232.68 232.445C232.651 233.742 229.976 234.432 227.675 232.248C225.726 230.37 225.659 228.376 225.31 228.419C224.325 227.806 221.454 236.77 229.15 243.053C237.84 250.366 251.47 244 251.152 232.915ZM225.952 235.438C225.305 233.864 225.016 232.166 225.106 230.467C225.397 232.034 226.263 233.435 227.534 234.397C228.804 235.359 230.387 235.812 231.974 235.669C232.549 235.593 233.095 235.371 233.559 235.024C234.024 234.676 234.391 234.215 234.626 233.685C234.861 233.155 234.955 232.573 234.901 231.996C234.846 231.419 234.644 230.865 234.314 230.389C233.227 228.762 230.483 227.509 232.795 224.834C234.435 222.925 239.461 221.555 237.032 217.611C236.712 217.15 236.757 217.24 236.933 217.382C238.019 218.242 238.373 218.378 239.146 219.038C243.146 222.466 239.411 226.485 241.106 230.029C242.662 233.491 248.712 232.654 249.024 227.698C253.384 244.134 231.68 250.28 225.952 235.438Z" fill="#0F0F0F"/>
<path d="M191.601 184.512C192.543 185.66 194.281 185.56 195.747 185.811C198.602 186.544 201.086 188.306 202.721 190.76C206.939 196.224 209.226 202.933 209.223 209.836C225.883 204.196 223.998 204.356 235.235 205.662C242.584 208.926 249.208 213.622 254.721 219.476C255.496 214.151 258.11 209.264 262.109 205.662C266.108 202.061 271.241 199.972 276.619 199.756C277.731 199.713 278.844 199.776 279.943 199.942C281.478 200.448 283.295 200.646 282.473 199.201C278.729 192.624 276.15 181.806 278.433 176.276C278.507 176.102 281.975 168.58 282.079 165.672C281.636 165.624 274.131 164.595 273.15 164.188C270.843 162.902 268.718 161.315 266.83 159.468C261.43 153.803 262.169 146.489 261.163 145.318C260.523 144.58 259.505 146.089 255.484 147.6C247.417 150.63 237.217 148.006 232.529 143.832C231.193 142.643 230.169 140.952 226.625 137.222C225.719 136.262 225.092 136.432 224.577 137.654C219.996 148.494 209.174 152.075 198.547 150.87C197.604 154.64 202.895 157.094 199.494 171.408C198.953 174.936 197.332 178.211 194.854 180.78C193.619 182.004 193.171 183.12 191.974 183.891C191.872 183.963 191.787 184.055 191.722 184.162C191.658 184.269 191.617 184.388 191.601 184.512Z" fill="#FDFE1F"/>
<path d="M281.687 195.338C279.952 191.382 279.03 187.118 278.975 182.799C278.92 178.48 279.733 174.194 281.367 170.195C284.313 163.187 285.314 165.406 278.542 164.357C274.765 163.767 271.265 162.02 268.524 159.355C261.358 152.558 262.881 144.774 261.66 144.626C261.238 143.802 255.026 147.277 249.734 147.722C244.698 147.942 239.722 146.556 235.526 143.763C231.58 141.142 226.201 135.536 225.538 136.186C223.754 135.322 219.567 149.805 203.226 150.211C197.175 150.371 197.481 149.27 198.502 156.234C199.794 165.235 199.22 172.888 193.898 180.309C189.63 186.328 189.343 184.035 195.406 186.912C208.898 193.312 207.513 210.288 209.212 210.283C209.874 211.45 231.006 199.206 249.967 215.944C258.756 224 253.487 223.002 258.548 213.424C261.46 207.909 270.516 201.963 277.894 201.16C285.001 200.387 284.686 202.848 281.687 195.338ZM254.7 218.795C253.572 216.596 252.093 214.597 250.321 212.875C239.518 201.328 217.761 201.851 209.618 209.664C210.679 206.121 210.009 198.344 206.514 192.661C205.406 190.714 203.919 189.008 202.142 187.645C200.365 186.28 198.334 185.284 196.167 184.715C191.118 183.426 191.614 185.808 195.67 181.819C201.394 176.285 204.274 166.299 200.766 155.709C198.59 149.157 197.218 151.549 203.07 152.538C207.348 153.261 211.746 152.494 215.527 150.365C221.127 147.165 225.255 140.475 225.652 136.886C227.764 140.471 230.512 143.64 233.761 146.24C242.484 152.811 253.817 152.306 261.071 145.504C257.446 156.141 270.167 169.664 281.67 166.174C273.244 174.2 274.094 191.418 282.033 199.614C271.177 195.587 253.911 206.627 254.7 218.795Z" fill="#0F0F0F"/>
<path d="M245.647 164.243C245.886 161.878 240.196 160.109 238.974 165.222C235.614 179.272 235.419 180.702 234.236 182.734C233.036 184.798 230.977 183.515 233.463 174.504C234.443 170.681 235.059 166.774 235.303 162.835C235.157 162.148 234.785 161.53 234.247 161.078C233.709 160.626 233.036 160.367 232.334 160.341C231.632 160.312 230.941 160.519 230.37 160.928C229.799 161.336 229.38 161.923 229.18 162.597C228.507 167.383 227.491 172.114 226.14 176.755C225.415 176.595 225.199 175.622 223.799 172.373C223.663 172.153 223.591 171.9 223.591 171.641C223.591 171.383 223.663 171.13 223.799 170.91C224.515 169.416 225.995 167.403 225.764 165.691C225.168 162.899 223.754 160.348 221.703 158.363C217.863 155.248 214.243 157.497 211.161 156.777C210.411 156.601 209.955 157.568 209.804 158.323C209.051 162.136 206.14 180.849 206.998 183.312C207.783 185.579 212.519 186.238 214.897 186.624C216.183 187.004 217.556 186.966 218.818 186.514C220.081 186.062 221.167 185.221 221.919 184.112C223.999 181.531 224.572 178.661 225.732 178.784C224.171 191.561 236.398 193.709 240.82 182.598C242.793 176.581 244.405 170.452 245.647 164.243ZM217.315 180.083C215.54 181.309 213.228 181.334 213.601 178.779C213.883 177.445 214.06 176.089 214.132 174.726C214.116 173.44 221.292 177.339 217.315 180.081V180.083ZM218.785 167.68C217.685 168.232 216.422 168.367 215.23 168.061C215.19 168.059 215.151 168.049 215.115 168.032C215.061 168.004 215.018 167.959 214.993 167.903C214.968 167.848 214.963 167.786 214.977 167.728C215.345 165.936 215.537 162.248 215.897 162.189C218.422 161.768 221.846 165.465 218.785 167.68Z" fill="white"/>
<path d="M258.495 178.504C260.46 176.949 264.714 172.632 264.879 170.6C264.892 170.123 264.81 169.647 264.638 169.202C264.465 168.757 264.206 168.35 263.876 168.005C263.545 167.661 263.149 167.386 262.711 167.195C262.273 167.005 261.801 166.904 261.324 166.898C259.898 166.976 255.279 171.642 254.3 172.658C252.84 174.158 253.632 168.877 252.893 166.776C252.711 166.188 252.377 165.658 251.926 165.239C251.475 164.82 250.922 164.527 250.322 164.389C243.842 163.653 248.071 179.395 247.749 181C247.279 183.37 243.228 188.307 242.3 190.862C240.887 194.741 244.439 196.752 246.676 195.47C248.229 194.579 248.714 192.624 249.522 191.027C250.437 189.219 251.895 187.731 252.812 185.925C254.772 182.053 253.28 182.64 258.495 178.504Z" fill="white"/>
<path d="M268.026 171.424C266.329 172.694 259.666 186.445 258.716 189.153C258.15 190.777 260.854 194.273 263.433 192.182C265.833 190.233 272.425 174.867 272.487 174.625C272.687 174.043 272.693 173.411 272.505 172.824C272.317 172.238 271.945 171.728 271.444 171.369C270.944 171.011 270.342 170.823 269.726 170.832C269.111 170.842 268.515 171.049 268.026 171.424Z" fill="white"/>
<path d="M260.495 196.134C258.692 193.468 255.068 193.998 254.392 195.608C253.973 196.424 253.857 197.363 254.065 198.257C254.273 199.152 254.792 199.943 255.528 200.491C258.4 202.339 262.2 198.651 260.495 196.134Z" fill="white"/>
<path d="M212.23 187.401C204.359 185.371 205.126 186.052 207.326 171.161C207.85 167.601 209.132 160.843 209.666 157.66C209.953 155.961 211.114 155.928 214.038 156.016C215.741 155.933 217.436 156.306 218.946 157.097C218.846 157.446 216.985 156.468 211.524 157.376C210.954 157.47 211.172 156.14 209.297 171.417C209.278 171.577 207.674 183.168 208.177 183.665C210.835 184.924 213.719 185.635 216.657 185.758C220.337 185.577 222.97 182.34 223.697 178.92C224.065 177.666 224.116 176.341 223.846 175.064C223.574 173.786 222.989 172.597 222.145 171.601C222.786 170.893 223.332 170.105 223.772 169.257C224.543 167.577 224.779 165.7 224.448 163.881C224.117 162.063 223.235 160.39 221.921 159.089C220.359 157.649 219.234 157.505 219.327 157.211C220.479 157.267 221.583 157.691 222.474 158.422C224.405 159.98 225.676 162.209 226.033 164.663C226.391 167.118 225.808 169.617 224.402 171.66C225.143 172.776 225.641 174.034 225.867 175.354C226.092 176.674 226.038 178.026 225.71 179.324C224.852 183.819 221.414 187.737 216.777 187.964C215.241 188.01 213.708 187.82 212.23 187.401Z" fill="#0F0F0F"/>
<path d="M213.842 180.192C213.829 180.276 213.795 180.309 213.874 180.325C214.52 180.373 215.17 180.384 215.818 180.362C218.026 180.202 218.133 178.146 218.493 178.191C218.912 178.136 218.813 181.172 216.01 181.685C215.293 181.795 214.569 181.852 213.843 181.855C211.661 181.916 212.243 179.775 212.502 177.375C212.587 176.306 212.755 175.245 213.008 174.202C213.603 172.183 216.862 173.882 217.83 174.933C218.274 175.322 218.579 175.844 218.699 176.422C218.819 176.999 218.749 177.6 218.498 178.133C218.144 178.175 218.304 176.088 215.851 175.159C215.635 175.077 214.411 174.711 214.469 174.901C214.52 174.72 213.91 179.756 213.842 180.192Z" fill="#0F0F0F"/>
<path d="M215.318 167.821C215.306 167.903 215.272 167.936 215.35 167.952C215.997 168 216.645 168.013 217.293 167.991C219.501 167.831 219.608 165.773 219.97 165.818C220.389 165.763 220.29 168.8 217.486 169.312C216.77 169.424 216.045 169.482 215.318 169.482C213.138 169.543 213.718 167.402 213.977 165.002C214.057 163.89 214.24 162.787 214.522 161.709C215.077 160.043 218.137 161.285 219.305 162.559C219.75 162.947 220.055 163.469 220.176 164.046C220.297 164.624 220.226 165.225 219.974 165.759C219.619 165.8 219.781 163.711 217.326 162.784C217.117 162.704 215.886 162.336 215.946 162.525C216 162.351 215.342 167.659 215.318 167.821Z" fill="#0F0F0F"/>
<path d="M225.289 186.022C224.615 183.704 224.582 181.246 225.195 178.91C226.122 173.15 227.372 167.446 228.939 161.825C229.951 159.553 233.065 159.852 233.001 160.225C233.017 160.42 231.871 160.206 230.617 161.22C229.817 161.86 229.921 162.411 229.681 163.881C227.855 175.046 226.223 182.337 227.35 185.217C227.72 186.162 228.321 186.998 229.098 187.649C229.876 188.3 230.805 188.745 231.799 188.944C232.793 189.144 233.822 189.092 234.79 188.791C235.759 188.49 236.636 187.952 237.342 187.224C239.902 184.832 242.679 174.625 243.582 171.256C245.119 165.462 246.019 164.105 244.259 162.616C243.919 162.331 243.697 162.201 243.724 162.12C243.838 161.777 246.66 162.76 246.217 165.587C245.351 171.099 242.891 184.972 238.868 188.825C237.908 189.823 236.711 190.561 235.389 190.972C234.066 191.382 232.661 191.451 231.305 191.172C229.949 190.892 228.686 190.273 227.633 189.372C226.581 188.472 225.775 187.319 225.289 186.022Z" fill="#0F0F0F"/>
<path d="M233.203 182.784C233.132 182.944 234.155 181.613 235.972 174.65C238.918 163.365 238.824 162.232 241.448 161.702C242.942 161.4 243.688 161.992 243.625 162.101C243.584 162.27 242.825 162.078 241.705 162.544C239.739 163.363 240.676 163.138 238.001 175.139C237.44 177.659 235.854 185.032 233.32 185.496C232.153 185.71 230.713 184.491 230.961 182.336C231.176 178.264 234.089 167.136 234.945 163.389C235.459 161.149 232.992 160.48 233.073 160.238C232.99 159.797 236.416 160.398 236.2 163.544C235.769 166.867 232.865 183.122 233.203 182.784Z" fill="#0F0F0F"/>
<path d="M244.882 196.8C244.266 196.754 243.671 196.561 243.145 196.238C242.62 195.916 242.179 195.472 241.859 194.944C241.539 194.416 241.351 193.818 241.31 193.202C241.269 192.586 241.378 191.969 241.626 191.403C248.078 175.342 246.79 187.218 246.381 172.958C246.28 170.833 246.334 168.703 246.541 166.586C247.259 163.957 250.33 164.038 250.301 164.384C250.285 164.586 247.867 164.613 247.477 166.806C247.371 167.4 247.758 172.28 247.808 172.886C248.67 183.067 249.33 180.086 247.168 184.504C244.158 190.621 243.587 191.896 243.502 192.117C243.369 192.397 243.307 192.705 243.322 193.015C243.337 193.325 243.429 193.626 243.589 193.891C243.749 194.157 243.971 194.379 244.237 194.538C244.503 194.697 244.804 194.788 245.114 194.803C247.118 195.005 247.221 193.893 248.845 190.667C250.567 186.619 252.866 182.842 255.67 179.453C258.675 176.187 264.338 172.285 264.576 170.358C264.758 168.896 263.691 168.045 263.794 167.902C263.922 167.723 265.299 168.654 265.362 170.394C265.448 172.851 259.723 177.274 256.926 180.558C250.102 188.547 250.632 197.304 244.882 196.8Z" fill="#0F0F0F"/>
<path d="M254.345 171.921C256.078 170.093 257.968 168.422 259.995 166.927C262.15 166.012 263.995 167.542 263.752 167.868C263.566 168.113 262.041 167.273 260.641 168.199C260.161 168.511 258.358 170.831 252.544 176.563C252.248 176.905 252.429 166.975 252.373 166.702C252.038 165.041 250.323 164.7 250.347 164.385C250.381 163.927 252.835 164.073 253.729 166.26C254.041 168.134 254.246 170.023 254.345 171.921Z" fill="#0F0F0F"/>
<path d="M257.994 188.526C258.509 187.021 264.453 175.811 266.666 171.998C268.182 169.384 271.742 170.894 271.264 171.234C271.194 171.394 268.552 170.586 267.694 172.536C260.832 188.154 259.709 188.68 259.843 190.098C259.874 190.403 259.976 190.697 260.142 190.955C260.309 191.213 260.534 191.428 260.8 191.582C261.066 191.735 261.364 191.823 261.671 191.839C261.977 191.854 262.283 191.797 262.563 191.67C263.835 191.162 263.179 190.419 271.826 175.069C272.142 174.45 272.258 173.747 272.158 173.059C272.057 172.371 271.745 171.731 271.264 171.229C271.35 171.069 272.446 171.501 272.954 172.752C273.666 174.512 272.717 175.952 271.514 178.635C271.08 179.606 265.51 191.685 264.83 192.504C264.371 193.032 263.783 193.431 263.122 193.662C262.462 193.893 261.753 193.949 261.065 193.823C260.377 193.696 259.733 193.393 259.198 192.943C258.662 192.493 258.253 191.911 258.011 191.254C257.688 190.375 257.682 189.41 257.994 188.526Z" fill="#0F0F0F"/>
<path d="M252.64 197.411C252.657 196.452 252.979 195.523 253.561 194.761C254.142 193.998 254.952 193.441 255.872 193.171C256.462 193 257.081 192.957 257.689 193.045C258.296 193.134 258.877 193.351 259.394 193.683C259.909 194.016 260.347 194.456 260.678 194.973C261.009 195.49 261.225 196.072 261.312 196.68C261.352 197.344 261.176 197.683 261.055 197.677C260.759 197.71 260.688 196.267 259.175 195.259C258.69 194.904 258.106 194.71 257.505 194.705C256.904 194.7 256.316 194.884 255.826 195.232C255.336 195.58 254.968 196.072 254.772 196.64C254.576 197.207 254.562 197.822 254.733 198.398C254.848 198.78 255.041 199.133 255.3 199.437C255.559 199.74 255.878 199.986 256.237 200.16C259.06 201.477 260.893 197.678 261.055 197.677C261.303 197.677 261.524 198.797 260.784 199.854C257.714 204.273 252.607 201.6 252.64 197.411Z" fill="#0F0F0F"/>
<path d="M39.273 229.404C39.273 229.404 32.817 223.756 36.2858 216.897C39.7546 210.038 47.5034 207.214 50.7306 202.775C53.9578 198.337 62.513 200.514 63.3194 204.631C64.1258 208.748 60.8986 217.058 60.8986 217.058C60.8986 217.058 68.161 219.318 69.1306 223.918C70.1002 228.518 64.8522 240.137 54.4426 241.913C44.033 243.689 41.4506 242.073 41.4506 242.073C41.4506 242.073 34.8346 236.748 39.273 229.404Z" fill="white"/>
<path d="M65.2809 216.565C61.4297 214.611 62.8649 218.165 64.6521 211.473C67.4889 200.365 56.4377 194.385 50.2665 200.035C47.6841 202.331 46.7001 205.185 40.7913 209.75C38.5945 211.451 35.7993 213.337 34.4985 216.437C33.6204 218.569 33.403 220.916 33.8746 223.173C34.3462 225.43 35.4849 227.494 37.1433 229.096C35.2137 232.168 35.3673 237.28 39.0089 241.776C40.0985 243.022 41.1209 244.326 42.0665 245.685L45.3785 243.624C43.4137 240.47 40.8825 238.845 40.0665 235.534C39.3497 232.737 40.1129 230.329 42.7865 229.333C44.5369 228.853 46.2297 228.185 47.8377 227.344C54.9257 223.393 61.5561 215.824 65.7753 222.155C68.3929 225.987 67.7545 230.187 64.9913 233.745C59.9113 240.182 50.1017 241.971 50.1929 242.697C50.2649 243.35 56.2729 243.201 62.2713 239.857C74.1865 233.52 72.7257 220.345 65.2809 216.565ZM43.9417 224.864C42.1518 225.254 40.46 226.004 38.9689 227.069C37.9269 225.806 37.2576 224.278 37.0363 222.656C36.815 221.035 37.0504 219.383 37.7161 217.888C39.3161 214.353 44.0873 213.374 50.0361 206.238C51.8873 204.019 53.0297 201.896 55.7001 201.667C59.9977 201.36 64.5385 206.627 59.7817 216.045C53.9897 217.384 48.0649 223.539 43.9417 224.864Z" fill="#0F0F0F"/>
<path d="M186.708 248.64C179.55 251.408 169.394 250.72 165.457 249.71C163.494 249.014 161.451 248.566 159.377 248.379C156.14 247.392 158.921 255.822 153.911 266.752C152.578 269.659 152.578 271.088 155.524 272.276C186.916 284.961 216.994 257.556 213.708 239.296C212.314 231.547 208.615 223.179 205.345 229.747C201.311 237.857 195.151 245.379 186.708 248.64Z" fill="#FFC5F6"/>
<path d="M114.079 198.901C116.605 202.581 115.801 209.19 123.695 214.901C130.297 219.677 126.943 217.362 130.095 220.702C133.721 224.542 140.495 225.211 142.511 230.094C142.793 231.176 143.237 232.206 143.829 233.154C144.629 234.114 146.505 234.166 147.703 234.523C155.457 236.834 158.127 244.84 157.682 252.4C157.522 255.056 157.885 257.789 157.042 260.312C155.835 264.365 153.978 268.196 151.545 271.654C144.733 280.667 134.372 280.627 129.965 274.595C128.962 273.224 128.685 272.547 126.781 272.125C124.284 271.574 121.57 272.022 119.22 271.005C116.258 269.725 114.657 266.49 112.02 264.632C107.167 261.216 99.9447 263.101 91.8599 253.957C86.8999 248.339 87.9831 243.322 90.8711 241.344C91.6598 240.952 92.3809 240.437 93.0071 239.818C94.1415 238.315 93.0711 236.218 92.8983 234.342C92.8861 232.904 93.2866 231.493 94.0523 230.275C94.818 229.058 95.9168 228.086 97.2183 227.474C102.018 224.902 107.481 226.274 106.241 224.526C92.9175 205.798 108.277 190.445 114.079 198.901Z" fill="white"/>
<path d="M214.344 244.034C213.395 243.698 209.731 258.061 194.824 267.311C183.473 274.351 166.213 276.312 154.184 270.005C157.879 264.101 159.722 257.225 159.477 250.264C166.674 253.326 174.687 253.902 182.249 251.903C189.811 249.904 196.492 245.443 201.237 239.224C204.645 234.688 206.75 228.629 205.987 228.335C205.027 227.962 201.542 238.333 189.705 244.928C185.027 247.456 179.836 248.888 174.524 249.115C169.211 249.343 163.916 248.359 159.04 246.24C157.71 238.975 153.47 233.336 145.92 233.059C145.103 230.732 143.809 228.601 142.121 226.802C140.134 225.241 137.95 223.947 135.627 222.952C130.847 219.453 126.439 215.473 122.472 211.074C116.361 204.325 119.23 199.583 114.707 195.93C107.027 189.72 94.3453 199.93 100.321 216.042C101.375 218.782 102.691 221.414 104.251 223.901C95.8669 222.767 89.5949 227.517 92.1181 237.711C86.2653 239.224 84.7933 247.319 88.2125 252.771C92.1437 259.04 100.088 262.371 107.558 264.013C111.333 268.202 116.043 271.442 121.305 273.469C123.715 274.362 126.289 274.727 128.853 274.536C130.592 276.651 132.935 278.186 135.569 278.936C138.203 279.686 141.003 279.616 143.597 278.735C146.92 277.555 149.863 275.498 152.113 272.783C172.113 284.81 206.07 274.346 213.734 248.162C214.486 245.589 214.574 244.096 214.344 244.034ZM113.774 265.027C119.907 265.704 124.621 265.29 124.654 264.669C124.731 263.49 112.437 263.299 102.389 258.839C86.3581 251.723 89.2333 242.101 93.3997 241.146C96.0077 240.549 98.7917 242.011 103.96 244.114C110.36 246.717 114.254 248.487 114.539 248.018C115.144 247.024 101.286 238.933 96.7613 237.805C96.3983 237.717 96.0322 237.643 95.6637 237.583C95.269 236.124 95.1145 234.611 95.2061 233.103C95.7789 227.093 102.005 226.805 107.541 228.397C114.901 230.512 122.261 236.863 122.952 236.018C123.446 235.411 117.04 228.103 109.043 225.122C105.089 218.298 100.243 209.898 103.968 202.152C105.501 198.952 108.233 197.619 110.721 198.143C115.969 199.245 112.31 205.455 120.117 213.295C122.099 215.289 124.197 217.166 126.4 218.914C122.305 217.25 119.04 216.066 118.998 216.131C118.358 217.175 133.345 224.634 136.376 226.333C137.775 226.959 139.031 227.867 140.064 229C141.097 230.133 141.885 231.467 142.379 232.919C152.176 257.76 134.995 281.669 113.774 265.027ZM149.699 270.602C144.139 277.322 136.205 277.698 131.779 274.063C139.248 272.202 145.441 265.56 147.645 256.923C149.077 249.88 148.789 242.595 146.805 235.687C160.16 238.56 156.878 261.935 149.699 270.602Z" fill="#0F0F0F"/>
</svg>
