<svg width="320" height="320" viewBox="0 0 320 320" fill="none" xmlns="http://www.w3.org/2000/svg">
<path d="M291.762 159.65C306.793 165.885 302.853 185.215 304.062 189.917C306.236 198.337 314.404 199.426 306.862 217.18C284.003 270.957 281.794 246.62 260.605 255.867C251.037 260.038 246.114 275.572 195.037 252.097C177.058 243.825 185.382 236.067 181.042 227.08C177.641 220.019 167.255 218.225 164.515 210.876C161.558 202.952 169.482 195.133 170.239 186.713C171.152 176.525 158.365 162.08 172.848 148.601C186.835 135.592 197.76 148.714 205.223 144.021C212.182 139.667 206.302 126.188 219.749 121.564C224.968 119.771 267.694 120.128 274.905 134.094C280.776 145.396 278.463 154.104 291.762 159.65Z" fill="white"/>
<path d="M309.132 189.316C305.897 182.751 305.27 183.569 306.262 179.607C307.13 176.916 307.333 174.054 306.854 171.267C306.375 168.48 305.229 165.85 303.513 163.603C295.12 151.317 293.562 155.514 286.804 152.109C278.775 148.078 285.517 131.812 263.145 123.375C243.921 116.409 216.783 112.447 205.866 130.01C202.866 136.166 205.658 140.755 197.168 139.588C188.983 138.508 177.945 131.22 166.463 148.592C151.154 171.962 164.115 172.676 165.985 180.809C169.003 191.389 147.884 206.252 166.246 221.603C170.421 224.999 175.17 227.489 175.901 230.633C175.284 235.805 176.402 241.036 179.078 245.503C181.755 249.97 185.839 253.419 190.688 255.31C241.138 282.207 256.212 259.184 266.006 258C272.087 258.03 278.094 256.678 283.577 254.047C298.799 244.869 319.692 210.701 309.132 189.316ZM302.913 204.606C301.695 216.666 286.891 244.965 272.678 246.855C266.614 246.732 260.603 248.004 255.107 250.573C251.019 253.516 246.444 255.693 241.59 257.007C228.595 259.62 189.401 247.865 186.991 236.832C187.43 233.409 187.003 229.931 185.749 226.716C184.495 223.501 182.455 220.653 179.815 218.434C169.603 210.475 165.967 210.397 172.682 197.344C184.964 173.686 164.75 171.814 171.152 160.477C173.613 155.984 177.649 147.843 182.746 147.007C188.392 146.093 196.925 151.718 205.292 148.017C215.904 143.324 210.042 136.036 217.079 130.506C229.117 121.05 263.232 128.895 269.268 134.259C274.087 138.535 273.374 146.519 277.41 153.642C278.766 155.715 280.527 157.493 282.587 158.868C284.646 160.243 286.963 161.188 289.396 161.644C291.519 162.764 293.388 164.311 294.885 166.189C296.382 168.066 297.475 170.234 298.094 172.554C298.634 177.091 295.189 181.183 297.564 186.678C301.043 192.007 302.904 198.233 302.913 204.606Z" fill="#0F0F0F"/>
<path d="M290.005 191.797C279.993 187.548 268.12 218.024 264.31 228.308C260.831 238.243 269.764 244.582 275.061 239.531C277.871 236.771 287.022 219.417 279.211 228.76C277.21 231.538 275.001 234.15 272.6 236.597C270.382 238.704 266.642 234.768 268.99 230.049C269.947 227.715 271.747 224.772 273.07 221.733C276.118 212.745 280.727 204.365 286.682 196.978C289.779 194.505 291.319 199.39 290.362 203.605C287.752 211.781 285.552 217.432 286.404 217.65C288.126 218.085 301.435 196.212 290.005 191.797Z" fill="#0F0F0F"/>
<path d="M244.548 141.303C255.072 142.644 263.397 144.603 263.988 143.219C264.58 141.834 256.377 137.35 245.287 135.931C228.499 133.71 210.711 136.819 244.548 141.303Z" fill="#0F0F0F"/>
<path d="M255.786 172.781C253.368 171.562 251.758 171.71 251.715 172.049C251.671 172.389 252.863 172.981 254.611 174.54C258.334 177.936 261.744 184.335 257.221 185.772C246.783 189.342 210.494 169.228 225.437 165.136C234.04 162.576 244.8 169.637 245.374 168.218C242.674 165.444 239.373 163.328 235.726 162.036C232.079 160.743 228.183 160.308 224.341 160.765C218.879 162.01 216.774 165.231 216.774 168.192C216.774 180.382 247.035 194.828 258.926 189.96C265.189 187.418 265.276 178.266 255.786 172.781Z" fill="#0F0F0F"/>
<path d="M204.101 203.265C204.657 202.847 202.535 199.547 204.101 194.558C207.719 186.059 217.2 209.857 215.408 215.36C214.356 217.476 213.129 217.815 211.494 215.36C208.337 210.51 206.153 207.262 205.492 207.645C204.622 208.15 207.302 220.506 213.216 221.577C225.603 222.866 220.61 199.321 211.999 190.605C206.423 186.19 201.491 188.175 200.421 193.644C199.404 200.879 203.796 203.997 204.101 203.265Z" fill="#0F0F0F"/>
<path d="M244.217 240.803C237.858 243.459 230.757 243.737 224.211 241.586C208.258 236.693 195.272 231.138 194.637 232.731C202.764 239.601 212.415 244.425 222.784 246.802C226.531 248.062 230.503 248.501 234.434 248.089C238.364 247.678 242.161 246.425 245.565 244.416C250.575 242.074 253.715 241.334 253.759 240.576C253.802 239.819 249.845 239.262 244.217 240.803Z" fill="#0F0F0F"/>
<path d="M241.843 124.107C238.668 127.494 243.061 132.962 235.171 134.26C213.33 137.838 214.382 146.624 212.556 158.771C207.406 192.495 175.327 182.995 188.923 213.88C190.166 216.814 191.758 219.592 193.663 222.143C212.53 243.72 194.994 261.675 158.583 236.946C132.14 218.991 143.187 210.615 131.314 197.005C120.197 184.266 100.278 188.603 85.5086 183.561C81.4879 182.47 77.9399 180.08 75.4166 176.762C72.8933 173.444 71.5363 169.385 71.5566 165.215C71.574 162.446 72.2002 159.72 73.3832 157.221C77.2105 171.58 96.3467 176.273 109.855 174C131.253 170.378 133.514 153.599 120.45 144.874C108.429 136.855 78.5761 135.635 56.8565 120.563C51.8057 116.026 47.1175 111.1 42.8348 105.83C38.962 100.537 36.1121 94.5655 34.4323 88.2237C23.8117 56.3807 12.3387 59.4893 9.6422 55.0833C8.26787 52.8542 34.7541 48.5353 54.2905 72.9073C61.3796 81.754 64.5371 92.9344 73.3136 100.101C84.7432 109.435 104.427 110.071 118.075 115.669C131.209 121.059 149.737 139.179 156.869 131.169C167.22 125.892 153.39 105.168 146.431 98.5942C131.279 84.2096 112.726 92.1159 98.0428 85.5331C93.3015 83.5714 89.1188 80.4655 85.8679 76.4925C82.6169 72.5195 80.3987 67.8029 79.4111 62.7632C88.6139 72.3936 98.7561 80.3957 125.251 71.6709C134.508 69.4503 144.193 69.7813 153.277 72.6287C159.018 75.389 162.619 81.2839 167.925 84.8191C177.226 90.1585 187.081 94.4652 197.316 97.6625C215.496 101.224 210.677 93.8312 243.73 110.306C247.488 112.178 255.038 115.251 256.082 119.945C256.726 122.766 253.238 123.68 251.089 123.558C248.201 123.419 244.217 121.564 241.843 124.107Z" fill="#FDFE1F"/>
<path d="M254.707 114.546C239.633 97.2008 203.335 97.6274 184.46 90.6702C157.843 80.5522 161.201 62.554 127.973 68.6927C115.378 71.305 100.539 76.4249 89.2574 70.086C82.2466 66.1328 78.8891 60.3162 78.0192 61.0477C76.4709 61.0477 78.8891 74.4483 90.0229 84.0352C101.331 94.0139 118.675 91.0621 129.53 93.8223C143.639 97.4794 160.27 121.181 154.755 126.223C148.823 131.647 140.047 123.288 133.601 118.734C111.377 102.53 93.6761 108.442 79.0456 99.395C66.3287 91.7848 61.7621 74.6573 50.4457 63.3812C32.6838 45.653 6.95425 52.7408 8.03284 55.0918C8.7113 57.3732 25.1945 64.4261 29.2914 80.6045C31.2645 93.8174 37.0718 106.159 45.9921 116.096C71.713 144.256 120.049 136.715 124.999 156.341C128.652 170.578 88.1788 173.939 78.3411 163.307C74.2268 158.875 74.2964 154.879 73.5222 155.863C71.0887 158.739 69.8008 162.412 69.9051 166.18C70.0094 169.948 71.4987 173.545 74.0876 176.281C88.0744 192.825 110.707 184.318 125.834 197.867C145.039 215.055 126.704 228.822 176.179 248.918C186.174 252.819 196.62 254.221 202.822 245.375C209.198 233.132 194.437 218.817 189.705 207.645C185.06 197.345 192.097 190.866 200.648 184.858C220.741 170.465 212.303 147.93 219.427 141.687C222.837 138.691 229.778 140.86 235.954 137.229C240.712 134.616 240.799 129.392 241.573 127.703C243.365 125.195 243.939 127.102 250.15 127.111C251.59 127.076 252.987 126.606 254.156 125.762C255.325 124.918 256.212 123.74 256.699 122.383C257.191 121.026 257.262 119.553 256.906 118.156C256.549 116.758 255.78 115.5 254.699 114.546H254.707ZM248.271 119.265C231.57 116.435 235.223 127.973 231.866 130.454C227.725 133.023 220.314 130.176 214.2 135.679C205.762 142.88 209.172 155.627 206.006 163.69C199.778 182.42 186 179.695 181.268 195.176C175.57 213.601 201.57 233.167 196.316 241.587C190.392 251.069 158.652 234.734 150.946 226.784C141.691 217.72 142.108 203.623 129.539 193.627C118.997 184.762 108.428 185.015 97.5469 183.421C84.369 181.793 69.5384 173.991 72.4088 161.087C73.731 155.105 71.8695 159.781 75.7142 165.528C85.1518 179.407 119.31 178.31 129.156 167.792C136.411 159.702 135.132 145.893 114.561 137.02C100.026 130.785 82.7511 128.974 68.799 122.618C26.0557 103.148 47.6796 66.6291 10.3727 55.2659C55.0732 51.4608 50.7675 90.8183 74.8183 106.256C91.6059 117.019 107.176 110.61 128.626 125.926C134.41 129.906 142.213 137.351 151.346 136.576C154.903 136.437 158.263 134.906 160.704 132.312C163.144 129.717 164.469 126.267 164.393 122.705C162.765 115.067 159.115 108.008 153.825 102.268C137.785 81.7277 121.18 86.8303 108.759 85.3239C102.548 84.6692 96.617 82.3948 91.5587 78.7277C86.5004 75.0607 82.4917 70.1293 79.9328 64.4261C101.322 93.2824 132.505 61.5004 154.207 77.6265C162.179 85.8048 171.65 92.368 182.103 96.957C200.056 103.923 220.497 103.54 237.076 111.603C240.642 113.179 249.428 118.917 248.271 119.274V119.265Z" fill="#0F0F0F"/>
</svg>
