<svg width="320" height="320" viewBox="0 0 320 320" fill="none" xmlns="http://www.w3.org/2000/svg">
<path d="M279.345 226.08C280.833 230.664 284.945 247.14 284.479 255.551C284.159 261.519 281.894 263.38 281.983 264.285C282.073 265.191 284.972 267.645 286.534 269.216C293.639 276.372 294.26 285.048 290.58 290.656C286.58 296.736 274.116 301.946 266.63 303.122C259.487 304.242 237.482 310.525 228.766 297.885C227.034 295.373 227.77 292.351 228.822 283.519C229.119 281.01 228.554 280.498 226.932 279.711C212.796 272.852 214.902 261.57 212.652 253.007C210.782 245.888 210.814 245.823 210.412 245.231C207.118 240.455 186.252 231.181 187.247 221.535C187.778 216.415 191.068 214.148 191.279 213.439C191.479 212.762 178.959 198.399 199.772 195.124C198.742 189.949 192.159 185.304 204.838 177.813C208.785 175.482 214.438 176.316 219.014 176.642C225.639 177.122 231.974 179.431 238.214 181.725C245.055 184.244 247.615 185.338 257.062 192.711C267.199 200.64 275.164 213.213 279.345 226.08Z" fill="white"/>
<path d="M226.39 268.035C220.659 262.64 219.288 255.641 220.15 255.395C220.95 255.168 222.987 260.969 228.31 265.99C233.633 271.011 239.557 272.694 239.379 273.502C239.211 274.286 232.35 273.645 226.39 268.035Z" fill="#0F0F0F"/>
<path d="M283.339 263.907C293.474 244.846 278.326 205.76 255.958 188.956C243.427 179.609 212.83 169.318 200.598 177.904C198.456 179.255 196.817 181.273 195.934 183.647C195.051 186.021 194.972 188.62 195.71 191.043C197.046 194.984 198.242 193.496 194.942 194.356C185.867 196.712 182.32 206.265 189.278 213.163C184.614 216.416 185.032 223.057 187.579 228.116C192.01 237.076 209.101 243.868 209.792 247.982C211.846 261.441 213.397 275.899 227.586 281.659C226.165 290.352 224.627 298.07 231.864 302.732C241.81 309.281 256.494 308.004 268.133 304.736C295.899 297.072 304.526 282.569 283.339 263.907ZM267.078 300.95C256.602 303.896 242.739 305.465 233.699 299.803C228.389 296.603 229.189 290.633 230.066 282.523C234.933 283.921 241.962 284.094 241.962 283.358C241.971 282.841 236.819 282.678 231.162 280.548C216.602 275.198 215.642 261.92 213.597 247.368C212.467 240.313 195.347 234.86 190.971 226.417C188.958 222.507 188.251 217.6 192.203 215.409C194.793 216.825 197.607 217.782 200.523 218.238L201.106 215.777C196.096 214.316 191.147 212.265 189.573 207.262C188.142 203.017 191.643 199.198 195.922 198.142C205.282 195.8 224.834 204.702 235.912 208.502C234.912 210.451 234.09 212.486 233.454 214.582L236.68 215.56C240.2 203.907 246.893 198.07 246.098 197.227C245.586 196.659 240.789 200.267 237.166 206.256C229.026 202.611 221.026 198.71 212.33 196.136C208.509 195.04 195.774 194.257 199.61 185.057C204.624 172.971 231.378 180.59 243.179 185.956C273.669 199.993 288.746 243.876 280.874 261.577C276.554 271.363 263.312 278.4 252.992 281.344C248.166 282.7 245.35 282.944 245.376 283.264C245.408 285.024 271.642 281.324 281.963 266.187C299.861 284.084 291.598 293.867 267.078 300.95Z" fill="#0F0F0F"/>
<path d="M74.914 65.2238C74.0788 57.155 77.8356 48.4798 84.8884 44.4798C94.25 39.1646 110.564 41.2894 160.12 34.6222C179.386 32.0302 186.65 29.7902 195.778 29.2542C206.461 28.627 208.824 31.8254 212.525 34.1854C217.548 37.3854 219.647 46.0574 220.503 51.9582L240.93 244.464C240.93 244.464 237.391 253.681 233.079 256.048C228.767 258.414 117.119 272.096 117.119 272.096C117.119 272.096 102.053 274.094 98.338 262.385C95.5908 253.715 96.3588 274.286 74.914 65.2238Z" fill="#FFC5F6"/>
<path d="M99.9687 74.5037C97.8887 67.4461 101.127 60.8013 106.67 58.6029C111.586 56.6541 118.535 56.1821 192.198 47.5469C192.198 47.5469 202.054 46.0957 204.508 51.2989C208.188 59.1021 207.055 55.6189 226.292 231.76C226.948 237.761 223.942 243.747 217.562 245.16C217.225 245.235 220.818 244.785 130.066 255.737C130.066 255.737 123.446 255.718 121.506 251.737C117.662 243.84 120.788 263.904 99.9687 74.5037Z" fill="white"/>
<path d="M242.24 237.841L221.28 46.4205C220.027 34.9853 210.369 26.5805 199.558 27.8765L90.7724 40.9693C80.0748 42.2493 72.3964 52.6493 73.6524 64.1501L94.6124 255.571C95.766 266.112 104.131 274.246 114.132 274.246C115.747 274.246 108.683 275.046 225.116 261.022C235.817 259.734 243.497 249.334 242.24 237.841ZM95.8844 43.7501C206.798 30.3997 200.353 31.1101 201.75 31.1101C210.142 31.1101 216.977 38.0541 217.932 46.7805L238.54 235.021C237.571 243.405 231.438 250.289 223.36 251.262L123.929 263.229C114.232 264.392 105.768 256.713 104.66 246.589L84.6236 63.5725C84.0833 59.4924 84.891 55.3475 86.9238 51.7689C88.9566 48.1902 92.1032 45.3739 95.8844 43.7485V43.7501ZM224.718 257.67L115.931 270.768C106.91 271.853 98.9996 264.688 97.9612 255.205L77.0044 63.7837C75.9868 54.4813 81.8348 46.0445 90.1836 44.4701C87.3623 46.7794 85.1691 49.763 83.8068 53.1447C82.4445 56.5265 81.9572 60.1973 82.39 63.8173L102.427 246.841C103.672 258.211 113.265 266.784 124.196 265.465L223.628 253.499C226.962 253.046 230.123 251.741 232.805 249.709C235.487 247.676 237.598 244.986 238.936 241.899C238.259 250.006 232.441 256.745 224.718 257.675V257.67Z" fill="#0F0F0F"/>
<path d="M213.142 101.656C207.963 54.4364 208.342 57.1596 207.784 55.2332C207.132 52.7382 205.719 50.5086 203.739 48.8556C201.76 47.2027 199.315 46.2087 196.744 46.0124C195.284 45.9772 201.348 45.5644 108.777 56.4844C102.396 57.2364 97.4955 63.8956 98.5163 71.6668C98.5163 71.6668 117.076 240.596 117.633 245.236C117.902 247.716 118.867 250.068 120.415 252.023C121.964 253.978 124.033 255.455 126.385 256.284C128.667 256.853 131.05 256.879 133.344 256.363C133.504 256.345 217.024 245.654 216.969 245.251C216.912 244.788 132.329 254.595 129.916 254.691C124.563 254.896 120.344 250.12 119.76 244.953C113.412 187.11 107.074 129.267 100.745 71.422C99.8683 64.67 104.009 59.31 109.041 58.7148C202.364 47.6636 197.008 47.3836 200.582 49.374C202.109 50.2764 203.401 51.5253 204.356 53.0199C205.31 54.5145 205.9 56.2127 206.076 57.9772C206.126 58.3484 205.468 51.6508 225.772 231.996C226.112 234.4 225.721 236.85 224.649 239.028C223.577 241.206 221.874 243.011 219.763 244.208C218.096 245.032 215.688 245.449 217.743 245.227C219.594 244.88 221.321 244.055 222.753 242.833C224.184 241.611 225.271 240.035 225.904 238.262C227.388 234.611 228.609 242.668 213.142 101.654V101.656Z" fill="#0F0F0F"/>
<path d="M198.523 67.139C197.52 63.601 195.163 60.6007 191.963 58.7886C188.059 56.7358 190.884 56.963 121.854 65.531C116.902 66.147 113.321 70.563 112.312 75.5278C111.866 77.836 111.833 80.2049 112.214 82.5246C125.084 199.979 124.23 192.957 125.04 195.465C127.24 202.275 132.542 205.299 136.87 204.846C149.657 203.505 198.014 196.707 199.417 196.462C213.048 194.096 158.74 200.691 136.697 202.782C133.251 203.102 128.944 200.595 127.113 194.814C126.414 192.606 127.459 200.629 114.444 82.2782C114.096 80.1965 114.116 78.0696 114.505 75.995C115.305 72.035 118.089 68.2734 122.121 67.7614C190.569 59.0862 186.988 59.8174 188.15 59.9406C191.35 60.2814 194.792 62.8494 196.377 67.8142C197.028 69.8526 196.019 62.8318 209.758 182.054C210.478 188.294 207.456 193.451 203.552 195.222C202.321 195.779 200.636 196.107 202.104 195.985C206.406 195.878 211.713 190.005 211.009 181.937C210.704 178.422 199.772 71.0478 198.523 67.139Z" fill="#0F0F0F"/>
<path d="M130.303 229.812C130.303 210.163 134.288 217.257 199.964 207.952C201.719 207.541 203.553 207.611 205.272 208.155C217.767 213.444 217.272 234.564 205.572 237.899C202.412 238.8 211.156 236.998 141.007 246.059C141.007 246.059 133.984 247.772 132.338 242.508C130.99 238.411 130.303 234.126 130.303 229.812Z" fill="#92FCFF"/>
<path d="M149.84 235.94C149.557 235.317 149.152 234.754 148.904 234.117C148.521 233.136 148.531 232.037 148.152 231.053C147.751 230.239 147.297 229.452 146.792 228.698C145.718 226.733 143.949 219.612 141.31 219.869C138.889 220.104 138.11 226.604 138.209 226.416C138.147 226.576 135.809 236.607 136.334 238.552C136.966 240.852 139.573 240.999 140.507 238.605C142.046 234.658 139.115 235.679 144.038 234.695C144.67 234.568 144.859 234.749 144.95 235.407C145.862 241.93 151.325 239.2 149.84 235.94ZM143.35 230.66C143.075 231.676 140.867 232.46 140.913 229.85C140.909 228.658 141.103 227.474 141.488 226.346C141.516 226.306 141.555 226.275 141.6 226.256C141.644 226.236 141.693 226.229 141.741 226.236C141.789 226.242 141.834 226.262 141.872 226.293C141.91 226.324 141.939 226.364 141.955 226.41C142.4 227.637 143.704 229.346 143.35 230.66Z" fill="white"/>
<path d="M151.425 236.96C151.987 237.577 152.697 238.041 153.488 238.308C154.279 238.575 155.125 238.635 155.946 238.484C156.768 238.333 157.537 237.975 158.181 237.443C158.825 236.91 159.323 236.223 159.626 235.444C161.204 231.984 158.013 230.04 156.545 231.48C155.62 232.387 155.829 234.76 154.796 233.931C152.173 231.827 152.901 223.987 153.724 223.702C154.057 223.587 156.145 224.528 157.098 222.963C158.052 221.398 156.38 218.857 153.705 219.009C147.167 219.371 146.929 231.401 151.425 236.96Z" fill="white"/>
<path d="M163.529 223.431C162.409 230.811 165.499 234.165 166.107 232.05C166.169 231.835 166.107 229.533 168.214 229.56C168.876 229.636 169.49 229.944 169.946 230.431C170.402 230.917 170.67 231.55 170.702 232.216C170.721 232.658 170.636 233.098 170.454 233.501C170.063 234.543 169.357 235.437 168.434 236.059C167.51 236.68 166.416 236.997 165.303 236.967C164.115 236.761 162.983 236.31 161.98 235.64C159.603 233.56 157.195 223.266 160.526 219.373C164.081 215.213 169.179 219.407 167.231 221.715C165.382 223.912 163.919 220.867 163.529 223.431Z" fill="white"/>
<path d="M169.809 220.728C170.425 227.288 170.903 227.523 170.919 229.099C170.771 230.179 170.98 231.277 171.515 232.227C171.937 233.337 172.207 235.081 173.519 235.717C175.441 236.171 177.462 235.929 179.222 235.032C180.004 234.656 180.195 234.333 180.131 233.297C180.049 231.957 179.777 231.208 178.387 230.965C175.473 230.457 175.919 232.505 175.247 228.849C175.046 227.747 178.558 228.553 178.751 225.92C178.857 224.489 177.643 223.11 174.883 223.582C174.612 223.629 174.534 223.563 174.487 223.325C174.219 221.942 174.118 221.627 174.19 221.453C174.54 220.625 178.822 221.403 176.643 217.51C175.753 215.923 174.099 216.328 172.103 216.758C171.703 216.722 171.3 216.784 170.928 216.938C170.557 217.093 170.229 217.335 169.972 217.645C169.714 217.953 169.534 218.318 169.448 218.711C169.362 219.104 169.372 219.511 169.478 219.899C169.523 220.213 170.11 223.017 169.809 220.728Z" fill="white"/>
<path d="M188.16 217.587C185.405 213.28 180.197 214.749 179.115 217.31C178.715 218.257 179.034 219.819 179.461 222.309C181.355 233.376 181.791 234.025 182.803 234.52C183.143 234.667 183.518 234.709 183.882 234.64C184.245 234.572 184.58 234.397 184.843 234.137C185.018 233.965 185.155 233.76 185.25 233.533C185.416 232.878 185.405 232.191 185.216 231.542C183.818 224.097 185.931 229.173 188.715 225.433C190.415 223.139 189.719 220.037 188.16 217.587ZM184.816 222.728C182.92 225.547 182.165 218.421 183.336 219.235C184.864 218.68 186.24 220.601 184.808 222.728H184.816Z" fill="white"/>
<path d="M191.84 218.24C192.992 229.336 193.04 230.24 193.414 231.744C194.172 234.784 196.628 234.003 197.209 232.224C197.825 230.341 196.646 229.937 196.2 218.421C196.137 216.805 198.742 218.379 199.587 216.753C199.772 216.3 199.845 215.808 199.799 215.32C199.754 214.832 199.592 214.362 199.326 213.95C198.067 212.568 190.289 213.771 189.283 214.398C187.76 215.349 187.721 218.144 189.947 218.256C190.12 218.257 191.819 218.067 191.84 218.24Z" fill="white"/>
<path d="M132.409 217.365C130.027 220.1 128.789 223.647 128.951 227.27C128.668 253.08 138.466 247.123 151.69 245.51C198.89 239.75 204.05 238.584 204.01 238.245C203.945 237.688 175.945 240.229 151.422 243.28C143.242 244.298 136.594 246.984 133.782 242.71C130.969 238.437 130.857 227.67 131.484 224.213C131.726 222.228 132.614 220.377 134.011 218.946C135.409 217.515 137.238 216.583 139.217 216.294L202.038 208.934C213.526 208.614 218.327 230.776 207.774 236.693C205.62 237.901 202.215 238.504 205.113 238.293C220.841 237.118 217.838 205.026 200.606 206.818C133.414 213.789 135.974 213.678 132.409 217.365Z" fill="#0F0F0F"/>
<path d="M141.643 236.069C141.509 236.782 141.418 237.502 141.368 238.225C141.362 238.897 141.128 239.546 140.706 240.067C140.283 240.589 139.696 240.952 139.04 241.096C138.385 241.241 137.7 241.16 137.097 240.865C136.494 240.57 136.008 240.08 135.72 239.473C135.374 237.981 135.447 236.423 135.931 234.969C136.623 230.352 137.72 225.804 139.211 221.379C139.766 220.011 141.275 219.813 141.302 219.982C141.312 220.04 141.097 220.104 140.763 220.313C139.841 220.894 139.448 221.64 138.39 228.086C138.365 228.246 136.907 237.377 136.889 237.811C136.808 239.744 138.595 240.229 139.449 239.091C139.827 238.592 139.826 238.225 140.035 236.481C140.229 234.865 140.216 234.865 140.398 234.859C141.182 234.557 141.989 234.32 142.811 234.15C145.64 233.662 145.211 234.008 145.392 234.39C146.698 237.84 146.653 237.902 147.053 238.315C147.23 238.483 147.45 238.601 147.688 238.656C147.927 238.711 148.176 238.7 148.409 238.626C148.642 238.552 148.851 238.416 149.014 238.234C149.177 238.052 149.288 237.829 149.336 237.589C149.667 236.457 143.982 223.313 143.141 221.209C142.624 219.913 141.422 220.125 141.409 219.963C141.397 219.801 142.907 219.512 143.682 220.947C144.773 222.968 151.361 235.752 150.729 237.989C149.997 240.614 146.325 241.339 145.041 237.797C144.893 237.387 144.242 235.683 144.171 235.523C143.308 235.589 142.457 235.772 141.643 236.069Z" fill="#0F0F0F"/>
<path d="M160.783 232.197C160.606 231.729 160.31 231.316 159.926 230.997C159.542 230.677 159.081 230.463 158.589 230.373C158.098 230.284 157.591 230.324 157.119 230.488C156.647 230.652 156.226 230.935 155.895 231.31C155.452 231.811 155.195 232.45 155.169 233.118C154.983 235.142 152.665 227.541 153.831 224.261C154.378 224.547 155.007 224.637 155.612 224.514C156.217 224.391 156.761 224.063 157.153 223.585C157.546 223.109 157.763 222.512 157.768 221.895C157.772 221.278 157.563 220.678 157.177 220.197C156.651 219.55 155.922 219.101 155.109 218.922C154.295 218.744 153.445 218.846 152.697 219.213C153.654 219.158 154.609 219.347 155.473 219.761C158.617 221.513 155.804 224.665 154.162 223.061C151.442 220.405 151.407 236.608 155.689 234.67C155.994 234.52 156.252 234.287 156.431 233.997C156.611 233.708 156.706 233.374 156.705 233.033C156.739 232.844 156.812 232.664 156.92 232.505C157.028 232.346 157.167 232.21 157.33 232.108C157.493 232.006 157.675 231.938 157.865 231.91C158.055 231.882 158.249 231.894 158.435 231.945C158.62 231.997 158.793 232.086 158.942 232.207C159.091 232.329 159.213 232.48 159.3 232.651C159.387 232.823 159.438 233.01 159.449 233.202C159.459 233.394 159.43 233.586 159.362 233.766C159.292 234.43 159.073 235.07 158.72 235.637C158.367 236.204 157.89 236.684 157.326 237.04C156.761 237.397 156.123 237.621 155.459 237.695C154.795 237.769 154.123 237.693 153.494 237.47C149.098 235.677 147.759 223.897 150.662 220.782C151.665 219.648 152.566 219.395 152.508 219.27C152.508 219.197 151.503 219.233 150.23 220.363C146.535 223.521 147.463 236.55 152.95 238.841C158.137 240.894 161.937 235.017 160.783 232.197Z" fill="#0F0F0F"/>
<path d="M171.285 232.201C170.622 239.401 158.504 242.182 158.379 225.95C158.326 218.888 162.4 217.83 162.421 218.061C162.68 218.512 159.069 218.843 159.472 225.918C160.296 240.371 169.274 237.32 169.747 232.037C170.058 230.488 167.333 229.525 167 231.96C166.977 232.241 166.88 232.511 166.72 232.743C166.559 232.975 166.34 233.161 166.084 233.281C165.829 233.401 165.547 233.451 165.265 233.427C164.984 233.403 164.714 233.305 164.483 233.144C162.491 231.646 161.661 222.712 163.843 221.576C164.307 221.334 164.136 221.309 164.515 221.683C164.74 221.877 165.014 222.007 165.307 222.057C165.6 222.108 165.902 222.078 166.179 221.971C166.458 221.864 166.699 221.683 166.882 221.446C167.064 221.211 167.179 220.931 167.213 220.635C167.493 219.47 165.92 217.755 163.506 217.915C162.997 217.949 162.718 218.014 162.696 217.95C163.436 217.508 164.305 217.334 165.158 217.458C166.011 217.582 166.795 217.997 167.378 218.632C167.837 219.133 168.09 219.789 168.085 220.469C168.081 221.148 167.82 221.801 167.354 222.296C166.888 222.791 166.252 223.092 165.574 223.138C164.896 223.184 164.226 222.972 163.698 222.544C164.803 222.72 164.114 222.302 163.958 224.025C163.65 227.464 164.998 232.96 165.509 231.856C165.497 231.453 165.57 231.053 165.722 230.68C165.874 230.307 166.102 229.97 166.392 229.691C166.681 229.411 167.025 229.194 167.403 229.054C167.781 228.914 168.184 228.855 168.586 228.88C168.987 228.903 169.38 229.01 169.738 229.194C170.097 229.378 170.413 229.634 170.667 229.946C170.92 230.259 171.107 230.62 171.213 231.009C171.319 231.397 171.344 231.803 171.285 232.201Z" fill="#0F0F0F"/>
<path d="M178.4 236.23C173.005 237.013 171.403 237.531 170.617 231.299C169.262 220.555 167.883 217.699 170.485 216.792C171.125 216.489 173.894 216.43 172.165 216.792C170.96 217.237 171.045 217.129 170.725 217.301C169.101 218.187 169.984 220.389 170.369 222.371C172.363 232.653 171.969 235.011 174.11 235.211C175.843 235.216 177.56 234.875 179.16 234.208C179.411 233.997 179.587 233.711 179.662 233.392C179.736 233.073 179.705 232.738 179.573 232.438C179.442 232.138 179.217 231.888 178.932 231.726C178.647 231.565 178.317 231.5 177.992 231.542C177.822 231.561 175.325 232.04 175.165 232.07C175.129 232.07 175.142 231.997 175.129 231.963L174.411 227.582C175.878 227.405 176.761 227.422 177.395 226.942C177.595 226.742 177.741 226.494 177.819 226.222C177.897 225.95 177.904 225.662 177.84 225.386C177.776 225.11 177.643 224.855 177.453 224.645C177.263 224.435 177.023 224.277 176.755 224.185C175.836 224.218 174.92 224.307 174.013 224.453L173.413 220.539C178.176 220.883 176.789 216.992 175.414 216.766C175.142 216.683 171.174 216.798 173.449 216.381C174.131 216.189 174.84 216.11 175.547 216.149C176.047 216.273 176.502 216.537 176.857 216.91C177.213 217.283 177.455 217.75 177.555 218.256C177.656 218.761 177.611 219.285 177.425 219.766C177.24 220.247 176.921 220.666 176.507 220.973C174.598 222.313 174.547 220.437 175.019 222.936C175.083 223.171 176.069 222.811 176.939 222.873C179.632 223.288 180.897 228.166 176.171 228.864H176.147C176.157 228.894 176.36 230.069 176.366 230.099C176.406 230.331 176.31 230.289 176.736 230.211C177.539 229.944 178.404 229.923 179.219 230.152C182.225 231.117 181.721 235.747 178.4 236.23Z" fill="#0F0F0F"/>
<path d="M186.112 233.846C185.902 234.404 185.524 234.883 185.031 235.218C184.538 235.553 183.953 235.726 183.357 235.715C182.761 235.703 182.183 235.506 181.704 235.152C181.224 234.798 180.866 234.304 180.68 233.737C179.997 229.897 178.787 220.667 178.563 219.07C178.426 218.556 178.423 218.015 178.554 217.5C178.685 216.984 178.945 216.51 179.31 216.123C180.16 215.323 182.35 214.761 182.35 215.061C182.397 215.221 181.523 215.275 180.443 216.153C178.808 217.923 178.976 215.033 182.133 233.312C182.465 234.592 185.163 234.675 184.718 232.129C184.627 231.609 184.078 228.04 183.881 226.808C186.761 226.459 188.92 225.688 189.001 222.4C189.081 219.04 187.033 215.757 183.832 215.261C182.92 215.12 182.392 215.157 182.379 215.056C182.363 214.981 182.87 214.763 183.875 214.747C186.904 214.696 190.217 217.765 190.299 222.413C190.362 223.771 189.918 225.105 189.052 226.154C188.187 227.203 186.963 227.894 185.617 228.091C186.216 231.795 186.529 232.667 186.112 233.846Z" fill="#0F0F0F"/>
<path d="M196.688 234.338C196.257 234.602 195.765 234.748 195.259 234.761C194.754 234.774 194.255 234.653 193.811 234.411C193.368 234.17 192.996 233.816 192.732 233.385C192.468 232.955 192.322 232.463 192.307 231.959C190.589 214.171 192.202 220.375 189.027 218.543C188.716 218.35 188.448 218.096 188.238 217.796C188.028 217.496 187.881 217.157 187.807 216.799C187.732 216.441 187.73 216.071 187.803 215.712C187.875 215.354 188.019 215.013 188.227 214.712C188.944 213.541 189.818 213.661 190.904 213.592C193.944 213.413 194.054 213.623 190.976 214.191C189.912 214.386 189.41 214.298 188.974 215.143C188.808 215.392 188.711 215.68 188.693 215.979C188.675 216.278 188.738 216.577 188.874 216.843C189.008 217.111 189.211 217.338 189.463 217.501C189.714 217.664 190.005 217.757 190.304 217.77C193.024 217.93 192.043 214.323 193.824 231.787C193.823 232.147 193.963 232.493 194.213 232.751C194.464 233.008 194.805 233.158 195.165 233.167C195.524 233.176 195.873 233.044 196.136 232.8C196.4 232.555 196.557 232.217 196.574 231.858C195.2 212.451 194.59 218.232 198.197 217.112C199.73 216.632 199.59 214.072 198.197 213.808C197.333 213.744 196.466 213.736 195.6 213.784C189.402 213.802 197.568 212.864 198.357 212.959C199.025 213.153 199.596 213.589 199.959 214.182C200.323 214.775 200.453 215.482 200.323 216.165C200.195 216.848 199.817 217.46 199.263 217.879C198.708 218.299 198.017 218.497 197.325 218.435C197.134 218.44 196.944 218.455 196.755 218.48C198.205 232.107 198.774 233.055 196.688 234.338Z" fill="#0F0F0F"/>
<path d="M183.936 222.995C184.995 222.765 185.331 220.48 185.331 220.48C185.729 220.27 186.225 223.186 184.225 223.955C182.305 224.693 181.921 220.115 182.213 219.506C182.366 219.205 182.607 218.957 182.904 218.797C183.201 218.637 183.54 218.571 183.876 218.608C184.212 218.645 184.528 218.784 184.783 219.005C185.038 219.227 185.219 219.521 185.302 219.848C185.4 220.158 185.365 220.344 185.302 220.365C185.158 220.456 184.866 219.715 184.101 219.474C183.717 219.354 183.032 219.6 183.129 220.155C183.283 221.04 183.539 223.008 183.936 222.995Z" fill="#0F0F0F"/>
<path d="M142.19 232.07C140.164 232.458 140.473 230.981 140.569 229.973C140.63 229.325 141.114 226.112 141.564 226.206C141.777 226.253 141.633 227.525 141.542 231.042C141.903 231.094 142.857 230.755 142.695 230.738C142.969 230.406 142.298 228.498 142.164 228.102C140.522 223.285 144.345 229.446 143.644 231.219C143.452 231.707 142.703 231.971 142.19 232.07Z" fill="#0F0F0F"/>
<path d="M203.477 31.7801C200.131 35.8425 193.214 37.1625 195.566 38.0201C200.357 39.7705 203.912 38.9577 208.066 46.7977C209.245 49.3898 210.629 51.8841 212.203 54.2569C212.623 50.8784 213.707 47.6163 215.392 44.6583C217.078 41.7004 219.331 39.105 222.024 37.0217C223.355 35.9769 224.877 35.2004 226.504 34.7353C228.786 32.5369 215.27 34.3049 210.966 20.8921C208.136 12.0777 208.477 20.6697 208.134 22.1977C207.352 25.712 205.757 28.9939 203.477 31.7801Z" fill="white"/>
<path d="M226.666 33.0911C222.957 31.6783 218.218 30.7423 215.181 27.0799C210.221 21.1087 209.869 12.7263 208.747 12.8735C206.949 12.9439 209.445 27.7407 199.379 34.2335C195.8 36.6927 192.08 37.2959 192.199 37.9519C192.189 38.5919 195.783 38.7023 199.64 40.3199C211.147 44.7743 210.531 58.8703 212.28 58.5887C213.541 58.2959 212.855 45.2959 222.143 38.2095C227.336 34.3055 231.487 34.8975 226.666 33.0911ZM211.928 51.9615C211.012 48.7656 209.406 45.8096 207.223 43.3023C202.035 37.4447 196.053 37.8831 197.437 37.4431C204.746 34.2015 208.317 27.8127 209.314 20.2559C211.85 28.5295 217.248 33.0959 225.579 34.3503C218.472 36.2671 213.293 44.6799 211.928 51.9615Z" fill="#0F0F0F"/>
<path d="M117.617 301.686C119.697 302.936 121.628 308.352 128.555 310.659C134.489 312.637 138.923 310.672 142.742 307.045C149.578 300.525 154.422 292.198 156.71 283.032C158.612 275.339 164.619 265.733 156.081 256.632C150.657 250.853 144.081 251.85 138.471 250.858C131.993 249.712 138.193 246.763 125.734 237.315C120.283 233.241 114.631 229.443 108.799 225.936C104.959 222.736 103.983 223.335 92.9162 214.76C76.7434 202.231 72.5802 197.056 63.3258 199.32C60.4842 200.016 58.4234 200.957 57.5818 205.786C56.7162 210.852 57.6093 216.062 60.113 220.55C56.985 219.045 54.529 216.293 51.265 215.11C45.9162 213.19 39.4522 216.501 37.3738 221.794C36.4471 224.491 36.3823 227.41 37.1884 230.146C37.9946 232.882 39.6317 235.3 41.873 237.064C28.4154 231.989 23.6554 242.154 28.5146 251.41C33.3514 260.622 44.545 265.552 56.473 272.059C54.3354 275.034 50.2714 276.131 48.1082 279.087C46.4266 281.386 44.5562 288.426 45.7386 292.083C47.4986 297.498 54.1418 300.069 59.3562 300.051C63.0938 300.038 66.7802 299.195 70.5114 298.958C82.4986 298.2 94.0682 303.702 106.164 303.448C116.046 303.246 115.142 300.198 117.617 301.686Z" fill="white"/>
<path d="M115.909 257.92C109.946 247.134 112.432 241.28 111.171 241.067C109.445 240.686 107.077 258.294 122.906 270.081C119.392 268.975 115.694 268.579 112.026 268.917C103.235 269.782 98.2257 275.354 98.7009 275.907C99.3409 276.685 103.762 272.568 112.301 271.712C120.063 270.963 126.461 273.032 126.749 272.102C127.328 271.334 120.786 266.518 115.909 257.92Z" fill="#0F0F0F"/>
<path d="M161.641 265.053C159.851 248.509 141.361 250.242 136.211 249.373C131.188 234.56 119.999 231.57 97.0954 215.461C85.7225 207.36 78.6873 198.944 70.2297 197.074C60.3385 194.818 52.6185 202.232 56.6777 214.485C57.3881 216.509 57.5049 215.047 52.8377 213.471C41.5465 209.744 30.7417 221.509 35.8425 231.871C36.7817 233.791 37.2089 233.919 36.9817 233.884C24.6617 232.245 17.7353 249.931 36.9385 263.028C58.7097 277.221 55.5097 267.893 48.2073 276.503C39.1449 286.855 43.9961 300.228 56.4745 301.757C59.8601 302.032 63.2665 301.922 66.6281 301.426C83.2521 298.677 100.42 310.285 116.983 302.706C138.494 335.04 164.11 287.248 161.641 265.053ZM38.1417 226.447C38.2128 224.932 38.6276 223.453 39.3547 222.123C40.0818 220.792 41.1022 219.645 42.3385 218.767C53.5273 210.631 57.5673 226.023 83.7785 235.887C79.5714 241.982 76.1432 248.58 73.5737 255.527C63.8457 249.629 54.4617 242.415 44.3673 236.831C41.9017 235.467 37.8745 230.933 38.1417 226.447ZM157.587 272.45C155.894 282.316 152.171 292.943 146.148 300.884C136.828 313.277 128.471 313.364 119.35 301.471C130.604 294.751 134.185 280.917 133.283 280.584C132.279 280.183 128.534 291.637 118.403 297.788C102.862 307.172 85.9945 294.996 66.2137 297.52C61.8937 297.986 56.7641 298.626 52.9593 296.711C41.3497 290.895 47.8889 270.367 74.8905 270.858C81.7369 270.935 85.7929 272.578 86.0409 271.991C86.9385 270.613 71.1865 264.311 56.7737 270.504C48.5641 266.447 34.3833 259.098 30.4201 250.875C26.6617 243.296 30.4457 236.956 36.4841 237.756C42.3385 238.514 60.4121 251.724 72.7289 258.036C72.3225 259.324 70.5145 265.498 71.3033 265.741C72.2489 266.029 75.8921 255.882 82.4265 244.432C88.9193 232.968 95.3993 224.328 94.6265 223.675C94.1673 223.287 90.1065 227.122 85.3817 233.626C80.6722 231.458 76.1184 228.967 71.7529 226.17C65.6601 222.248 62.3913 220.25 60.1241 213.332C58.5913 208.562 58.6985 203.892 63.1113 201.412C68.6601 198.735 74.8137 202.88 79.7177 206.65C89.8777 214.605 83.5305 211.629 117.086 232.767C123.255 236.653 128.286 239.751 132.286 247.116C138.98 259.325 134.473 273.543 135.387 273.771C135.828 273.883 139.639 263.18 137.009 252.122C146.708 253.903 160.734 253.388 157.587 272.45Z" fill="#0F0F0F"/>
<path d="M112.319 121.6C114.399 136.578 114.359 137.44 115.324 139.2C118.224 144.515 129.381 145.69 135.255 142.907C137.203 142.046 138.872 140.655 140.07 138.894C141.269 137.132 141.95 135.07 142.036 132.941C141.916 131.114 141.523 129.316 140.869 127.606C128.869 90.9024 129.373 98.4352 131.535 90.2544C134.388 87.778 136.942 84.9766 139.144 81.9072C139.435 81.5879 139.643 81.2022 139.75 80.7837C139.858 80.3653 139.86 79.927 139.759 79.5072C138.844 71.6096 137.999 76.3728 145.359 68.8416C146.536 67.6352 146.352 66.5712 145.007 65.6C142.996 64.1456 142.57 64.64 141.944 61.12C141.671 59.584 141.208 58.0864 140.567 56.664C136.646 58.169 132.82 59.9109 129.111 61.88C128.781 60.3968 130.372 58.0144 130.94 56.6544C134.476 48.2064 137.21 50.7344 127.687 46.5376C125.111 52.9012 122.254 59.1474 119.124 65.2576C118.204 62.7412 117.77 60.0733 117.844 57.3952C118.144 55.7952 118.576 56.3712 121.044 48.552C121.301 47.736 121.314 47.9984 114.34 46.5648C111.267 53.2947 110.024 60.7162 110.736 68.08C108.922 65.2912 105.4 64.5072 104.144 60.168C103.724 58.7136 103.439 58.2256 101.821 58.472C97.8947 59.072 97.8307 59.0336 97.5859 59.2432C96.4659 60.2032 100.037 67.7552 101.021 69.4592C109.468 84.12 105.044 69.1472 112.319 121.6Z" fill="white"/>
<path d="M182.138 131.891C181.06 126.646 178.039 126.34 173.178 128.643C172.503 128.963 172.407 129.225 172.495 129.875C172.672 131.201 172.932 132.515 173.271 133.809C167.229 136.188 167.351 135.908 167.57 136.753C171.831 152.953 171.73 152.153 171.482 152.555C170.148 153.35 168.699 153.936 167.186 154.291C166.271 154.539 165.94 154.755 165.84 155.796C165.68 157.5 165.904 159.217 166.5 160.822L167.596 199.528L192.514 196.648C194.188 192.547 196.245 200.416 182.138 131.891Z" fill="white"/>
<path d="M154.76 72.3758C154.579 73.7134 154.049 75.395 152.702 75.4654C151.685 75.5198 149.6 73.7758 148.925 76.6366C148.841 77.3539 148.643 78.0531 148.336 78.707C143.038 78.963 146.096 76.147 143.729 85.3662C148.961 86.9998 146.6 85.467 146.08 90.0494C146.019 90.587 150.229 90.947 150.672 91.715C151.049 92.3678 151.043 91.643 147.662 109.981C146.848 114.403 146.749 116.086 149.262 122.478C157.678 143.918 156.302 144.171 160.929 147.733C162.75 149.134 165.249 150.057 165.963 152.24C166.336 153.376 166.341 154.096 167.629 154.141C169.119 154.075 170.573 153.665 171.878 152.942L167.398 136.117C168.693 135.769 173.062 134.289 173.577 133.533C174.155 132.688 173.283 129.888 172.683 128.717C181.405 127.093 175.713 127.973 178.843 119.376C180.368 115.185 180.384 114.936 180.8 114.657C181.568 114.145 186.182 114.926 187.075 115.097C188.942 97.4654 190.859 96.3086 192.515 81.5182C193.238 75.027 192.501 73.7998 184.278 68.835C180.008 66.2558 178.657 65.7662 172.893 65.3966C164.702 64.8734 155.8 64.683 154.76 72.3758Z" fill="white"/>
<path d="M181.21 108.307L164.465 106.231L164.986 102.127L167.158 102.403L166.913 104.329L181.479 106.134L181.21 108.307Z" fill="#0F0F0F"/>
<path d="M169.243 109.03L168.947 111.201L175.486 112.093L175.782 109.923L169.243 109.03Z" fill="#0F0F0F"/>
<path d="M190.467 85.4625L190.812 83.4577L179.623 81.5201L179.275 83.5249L177.835 83.2753L177.435 85.5841L174.908 85.1713L175.334 82.7153L173.894 82.4657L174.259 80.3041L149.558 75.8977L149.263 77.5585L162.801 79.9713C162.671 80.7137 162.991 80.5777 161.263 80.2785L160.097 86.9985L161.537 87.2481L161.191 89.2513L172.382 91.2001L172.729 89.1985L174.169 89.4465L174.553 87.2289L177.079 87.6401L176.668 90.0065L178.108 90.2577L177.761 92.2609L188.959 94.1921L189.307 92.1889L190.747 92.4369L191.911 85.7169L190.467 85.4625Z" fill="#0F0F0F"/>
<path d="M150.151 147.664L131.577 95.9022C132.697 90.699 131.025 93.7246 140.99 81.3566L140.403 75.6206L148.403 67.563C142.553 61.251 144.225 64.0542 141.414 55.0318L131.039 59.5502L136.431 49.6142L127.951 44.1406C119.676 60.4078 121.204 57.2606 119.511 61.1806C119.068 57.171 118.526 59.9438 123.179 47.3246L113.899 44.3582C108.708 57.6878 109.579 52.8542 109.579 65.5358C105.956 61.5198 107.124 63.5822 104.595 56.1678L95.5674 57.651C97.5306 66.5726 95.777 62.4142 103.868 76.3406C107.297 84.923 105.087 72.3406 114.633 151.369L119.643 150.528L121.975 160.301L129.585 157.966L130.995 163.445L146.675 158.059L144.689 150.56L150.151 147.664ZM106.363 75.2286C98.6362 62.0462 100.041 65.2878 98.8522 59.8846L102.742 59.2446C104.683 64.9326 102.678 61.9822 112.305 72.6606C112.305 52.643 111.475 58.1134 115.505 47.7502L119.606 49.0606L116.372 57.8302L117.91 71.7502C121.143 63.6476 124.846 55.7408 129.001 48.0702L132.803 50.523C125.206 64.5246 126.985 60.1886 124.499 69.9102C134.012 60.3102 130.54 62.7326 139.699 58.7454L140.937 62.7166L125.236 74.3198L124.486 78.3406L118.98 77.5406L117.201 90.0078L119.911 90.3934L121.302 80.643L126.695 81.427L127.729 75.8814L142.361 65.067L144.601 67.483L137.54 74.5966L138.143 80.5006C128.223 92.8206 130.167 89.3966 128.731 96.0702L139.537 126.72L135.172 127.957L136.292 131.673L131.287 133.165L132.799 137.878L128.121 139.437L126.361 135.539L120.483 137.123L119.471 133.603L115.545 135.005C107.931 73.3518 109.87 84.1726 106.363 75.2286Z" fill="#0F0F0F"/>
<path d="M205.619 193.001L204.704 176.575L185.723 118.846L181.174 118.111L181.522 115.779L187.986 116.307L196.246 64.7641L192.886 64.0393L193.768 58.9369L189.224 58.0409L189.922 53.9481L165.648 49.7209L164.795 54.0409L160.237 53.2041L159.437 57.6617L155.597 57.0297L152.638 73.8985L148.118 72.9257L147.33 77.2649L143.861 76.4649L141.904 86.4169L145.472 87.2169L144.602 91.2617L149.029 92.5033L145.061 117.633L141.701 118.956L152.901 149.163L147.4 151.839L149.688 159.545L130.878 165.998L132.843 201.964C132.885 202.756 133.23 203.502 133.807 204.046C134.384 204.59 135.149 204.891 135.942 204.886C136.25 204.886 134.061 205.147 169.086 200.758L168.306 188.758L176.256 187.923L168.256 155.283L172.954 153.907L168.722 136.51L174.838 134.558L173.678 129.59L176.362 128.881L177.882 136.42L171.838 138.42L183.432 185.892L188.056 185.495L190.989 197.519L203.898 195.323C204.43 195.234 204.906 194.943 205.228 194.51C205.549 194.076 205.689 193.536 205.619 193.001ZM178.546 117.182L163.864 115.307L164.427 111.11L158.955 110.339L159.198 108.591L156.478 108.227L155.883 112.67L161.205 113.422C160.653 117.483 160.016 122.417 159.48 126.478L162.266 126.846L162.8 122.793L175.427 124.265L175.923 126.731L171.058 128.011L172.242 133.083L166.104 135.039L170.326 152.387L167.726 153.148L164.366 139.449L160.837 140.249L157.926 128.83L154.477 129.659L149.259 115.983L148.013 116.475L152.109 90.5337L147.816 89.3289L148.715 85.1497L145.099 84.3353L145.998 79.7689L149.506 80.5689L150.306 76.1897L152.136 76.5849L150.638 84.1305L157.117 85.3545L159.707 71.2633L163.944 72.0905L164.534 68.8697L176.214 71.0905L175.926 73.5993L183.206 74.8409L182.661 77.4505L191.202 78.9417L187.451 102.351L185.301 102.089L185.829 98.1897L161.715 95.2873L161.154 99.4217L157.856 98.9593L157.216 103.47L159.928 103.851L160.181 102.051L163.488 102.513L164.059 98.3257L182.736 100.575L182.208 104.47L187.008 105.057L185.675 113.377L179.198 112.841L178.546 117.182Z" fill="#0F0F0F"/>
<path d="M163.897 81.4346L163.495 83.7535L165.814 84.1565L166.217 81.8376L163.897 81.4346Z" fill="white"/>
<path d="M165.814 84.1582L165.413 86.4772L167.732 86.8786L168.133 84.5596L165.814 84.1582Z" fill="white"/>
<path d="M180.466 84.4316L180.064 86.7522L182.385 87.1536L182.786 84.8347L180.466 84.4332V84.4316Z" fill="white"/>
<path d="M182.386 87.1545L181.985 89.4735L184.304 89.8765L184.705 87.5576L182.386 87.1545Z" fill="white"/>
<path d="M86.651 227.011C88.5838 225.591 102.598 215.359 102.427 215.171C108.152 221.659 107.4 224.11 109.344 222.222C110.304 221.291 114.521 217.582 115.827 217.881C118.365 218.452 127.753 234.382 133.366 240.473C133.886 241.036 133.923 241.377 133.261 241.923C126.981 247.107 126.72 247.143 126.71 247.775C126.697 248.475 128.008 249.513 130.745 254.459C132.334 257.329 119.753 261.716 114.277 267.457C113.535 268.233 112.719 268.934 111.84 269.55C107.544 272.563 104.886 263.521 102.312 262.964C101.318 262.748 100.953 263.148 94.355 267.078C93.4814 267.599 92.9918 267.631 92.1422 266.553C89.123 262.732 79.5678 249.966 77.6542 246.62C77.5602 246.502 77.5171 246.351 77.5342 246.201C77.5513 246.051 77.6272 245.914 77.7454 245.82C81.1438 241.871 82.6094 242.363 83.0478 241.217C83.7166 239.475 75.4526 234.931 79.9166 231.471C82.0606 229.809 84.2286 228.787 86.651 227.011Z" fill="#FDFE1F"/>
<path d="M74.1337 134.879C73.8585 135.138 74.0681 134.533 71.2073 146.37C70.7273 148.372 73.3257 147.205 73.8377 148.324C73.9476 149.521 73.9068 150.726 73.7161 151.913C76.5049 152.794 81.7161 153.711 82.3561 153.421C82.8729 153.189 83.6361 150.285 83.7609 149.775C84.3769 147.258 87.0489 151.535 87.7721 147.799C89.3065 139.879 90.0297 137.949 88.6425 137.613C87.0009 137.215 86.9993 138.669 87.6569 133.412C78.7209 131.029 77.8265 130.983 77.3849 133.295C76.8649 135.988 75.4649 133.628 74.1337 134.879Z" fill="#FDFE1F"/>
<path d="M109.128 119.484C109.214 120.055 108.499 120.267 106.39 121.609C106.109 121.787 106.07 121.921 106.259 122.206C108.235 125.303 108.392 125.435 108.357 125.827C108.265 126.801 99.9343 131.203 99.0767 131.646C98.6799 131.852 98.4799 131.838 98.1551 131.382C94.8735 126.755 96.0447 127.052 93.0863 128.948C92.2095 129.51 91.6671 129.543 90.8335 128.34C89.8479 126.916 84.0159 117.94 84.0399 116.94C84.0735 115.649 87.1887 115.926 85.9375 114.137C84.7423 112.425 84.0495 111.622 84.0335 110.843C84.0207 110.275 84.4991 109.662 85.0591 109.759C89.0495 108.075 93.2703 102.351 95.2991 104.887C97.4879 107.619 97.6175 107.887 97.9007 107.908C98.1087 107.924 98.0607 107.908 100.621 106.083C103.956 110.212 106.81 114.709 109.128 119.484Z" fill="#FDFE1F"/>
<path d="M118.941 104.073C113.958 105.644 116.461 106.371 116.675 107.987C116.835 109.251 115.488 108.899 115.421 109.539C115.401 109.726 115.277 109.363 118.008 115.641C119.128 118.214 120.216 115.948 121.107 116.473C121.341 116.611 121.344 116.687 122.557 118.905C122.936 119.601 127.757 117.305 128.465 116.937C129.149 116.579 128.933 116.467 127.867 114.151C130.929 112.587 130.094 113.526 128.037 109.175C125.574 103.975 126.325 104.438 124.208 105.175C123.91 105.281 123.808 105.236 123.653 104.993C121.813 102.118 123.051 102.777 118.941 104.073Z" fill="#FDFE1F"/>
<path d="M58.0379 174.945C57.9915 175.265 57.9227 174.988 61.5019 182.513C56.6763 186.401 56.4171 186.513 56.2635 186.951C55.6971 188.579 60.5515 195.238 61.8635 197.74C63.5659 200.985 65.6907 207.871 67.8315 208.14C69.9115 208.403 74.1627 202.724 75.8763 205.294C78.9243 209.865 80.5579 213.151 82.3195 212.239C83.1995 211.785 82.7995 210.942 85.9531 209.246C100.384 201.494 100.496 201.468 100.694 200.879C101.028 199.895 99.6011 199.071 97.2811 193.558C97.0587 193.028 97.1211 192.803 97.6603 192.487C102.248 189.827 103.673 188.967 103.625 187.737C103.582 186.603 92.0187 166.111 91.4299 165.078C91.0219 164.359 90.7163 164.305 90.0859 164.598C87.9435 165.607 85.8697 166.755 83.8779 168.036L79.5675 160.836C62.9867 171.116 58.1467 174.188 58.0379 174.945Z" fill="#FDFE1F"/>
<path d="M104.662 186.817C91.2856 162.094 92.2168 161.905 89.2616 163.808C89.2616 163.808 84.6072 166.772 84.58 166.793C83.5501 165.093 82.6283 163.329 81.82 161.513C80.86 159.579 79.7208 159.31 77.98 160.678C77.636 160.942 79.356 159.756 57.6824 173.398C57.2791 173.658 56.9878 174.059 56.8658 174.523C56.7438 174.988 56.7999 175.48 57.0232 175.905L60.3464 182.507C56.5528 184.984 54.1816 185.843 55.2616 187.916C66.9416 210.316 66.0408 209.344 67.1432 209.638C68.1128 209.897 67.9864 209.752 74.9832 205.664C79.7928 213.598 79.5112 213.457 80.444 213.707C81.4792 213.98 80.412 214.744 100.978 202.112C101.376 201.862 101.667 201.473 101.794 201.021C101.921 200.569 101.876 200.086 101.666 199.665C101.61 199.537 100.29 196.483 98.5976 193.214L103.801 190.128C104.34 189.79 104.729 189.259 104.889 188.643C105.049 188.028 104.968 187.375 104.662 186.817ZM92.7992 186.627L96.196 193.083L81.8344 202.182C77.0344 193.052 79.0584 193.702 70.7944 198.937L62.5592 183.296C62.7352 182.825 61.9192 183.456 68.3192 179.4C69.9544 178.363 68.4536 176.763 65.5112 171.169C81.292 161.296 79.628 162.139 79.78 162.467C79.932 162.795 79.78 162.502 82.6152 167.899C83.756 170.433 85.0872 169.179 90.724 165.539L98.98 181.084C93.3768 184.64 91.9496 185.016 92.7992 186.627ZM59.1496 175.139L64.0808 172.064L67.2488 178.086L62.2392 181.262L59.1496 175.139ZM99.5192 200.372L81.0488 211.36C74.7784 201.014 77.4056 201.652 67.78 207.28L57.38 187.136L61.324 184.56C70.0328 201.108 69.484 200.483 70.3304 200.71C71.108 200.921 71.0216 200.79 77.1496 196.908C79.892 202.116 80.7016 204.891 82.4456 203.788L96.7672 194.716C97.748 196.57 98.6659 198.457 99.5192 200.372ZM102.654 188.203C97.3544 191.326 97.4008 191.307 97.2344 191.435L94.3736 185.995L99.7928 182.563C102.831 188.16 102.879 188.072 102.65 188.203H102.654Z" fill="#0F0F0F"/>
<path d="M77.7383 191.256C76.5095 191.992 75.1319 193.176 74.6599 192.112C74.3879 191.496 74.7287 173.145 74.7351 172.985C74.7815 172 75.4023 171.606 76.1751 172.112C79.7751 174.481 81.0647 175.008 81.0311 177.102C80.8103 190.609 81.5031 188.997 77.7383 191.256Z" fill="#0F0F0F"/>
<path d="M87.9694 185.082C83.3022 187.885 83.9534 187.997 84.1486 179.376C84.1742 178.243 84.8926 177.936 85.6414 178.434C92.2702 182.893 92.7438 182.211 87.9694 185.082Z" fill="#0F0F0F"/>
<path d="M120.031 204.827C119.892 205.852 120.078 206.302 121.254 206.575C124.962 207.439 126.791 206.63 127.153 207.855C127.337 208.483 126.711 209.545 126.65 213.103C126.591 216.583 136.842 215.195 142.879 216.761C145.714 217.497 147.58 217.753 148.036 214.775C148.906 209.092 148.836 208.974 149.23 208.62C149.753 208.14 150.039 208.334 157.134 209.42C158.126 202.316 158.881 195.092 159.65 187.961C157.672 188.034 155.695 187.798 153.79 187.262C153.876 185.876 155.041 180.614 153.895 179.71C153.551 179.484 153.155 179.348 152.745 179.315C131.548 175.87 132.823 176.001 132.29 176.164C129.345 177.062 133.233 183.897 128.54 183.174C121.233 182.051 123.508 179.217 120.031 204.827Z" fill="#FDFE1F"/>
<path d="M155.003 186.227L155.715 180.099C155.78 179.634 155.658 179.162 155.376 178.787C155.093 178.412 154.674 178.164 154.209 178.097C130.094 174.728 131.561 174.737 130.76 175.625C130.23 176.214 130.339 176.347 129.544 182.307C124.633 181.593 122.558 180.814 122.067 183.035C122.03 183.195 122.251 182.334 118.902 205.171C118.856 205.466 118.87 205.767 118.943 206.056C119.015 206.346 119.145 206.617 119.325 206.856C119.505 207.094 119.731 207.293 119.99 207.442C120.248 207.591 120.534 207.687 120.83 207.723L126.008 208.31C125.731 210.251 125.534 212.203 125.416 214.16C125.383 214.392 125.398 214.628 125.457 214.855C125.517 215.081 125.62 215.294 125.762 215.48C125.904 215.667 126.082 215.823 126.285 215.94C126.487 216.058 126.711 216.134 126.944 216.165C148.12 218.885 146.993 218.675 147.79 218.073C148.539 217.507 148.366 217.473 149.87 209.854C157.033 210.622 156.942 210.771 157.678 210.216C158.52 209.576 158.076 210.637 160.918 188.921C161.224 186.611 158.475 186.773 155.003 186.227ZM148.561 179.597L153.435 180.261L152.779 185.901L147.806 185.19L148.561 179.597ZM124.43 183.84C129.15 184.563 131.545 185.614 131.771 182.614C131.771 182.614 132.46 177.381 132.464 177.334C133.622 177.579 130.524 177.131 146.891 179.379C145.729 187.984 144.683 186.454 153.027 187.646C153.187 187.888 153.307 186.549 151.107 202.817C142.467 201.582 144.051 200.389 142.857 209.235L128.172 207.136C129.356 198.371 130.545 199.878 122.158 198.68C124.044 186.286 123.96 183.763 124.43 183.84ZM126.611 206.133C126.451 206.099 126.281 206.086 121.124 205.512L121.908 200.342L127.289 201.112L126.611 206.133ZM156.203 208.278C146.494 207.238 148.388 205.805 146.342 216.136L127.68 213.987C127.737 213.147 127.897 211.043 128.208 208.833C144.18 211.117 142.992 210.957 143.155 210.957C144.755 210.957 144.531 209.472 145.313 203.683L151.214 204.526C153.099 204.803 152.702 203.653 154.753 188.461L158.641 189.072L156.203 208.278Z" fill="#0F0F0F"/>
<path d="M142.62 184.905C143.532 186.95 143.5 186.796 143.479 186.932C143.032 189.902 143.042 190.545 142.88 190.519C139.133 189.915 139.36 190.028 139.384 189.868C139.497 189.287 139.569 188.699 139.599 188.108C137.069 187.715 137.277 187.692 137.258 187.828C136.807 190.839 136.618 191.406 136.778 191.431C141.514 192.179 141.394 192.086 141.466 192.246C142.386 194.303 142.351 194.15 142.332 194.279C142.082 196.742 141.701 199.189 141.191 201.611C140.17 202.758 139.88 203.227 139.72 203.201C132.799 202.1 132.73 202.183 132.658 202.023C131.725 199.943 131.765 200.103 131.783 199.98C132.216 197.1 132.218 196.355 132.38 196.38C136.045 196.971 135.9 196.86 135.879 197.028C135.765 197.609 135.694 198.197 135.668 198.788C138.14 199.174 137.941 199.196 137.962 199.065C138.423 195.979 138.602 195.483 138.442 195.457C133.829 194.731 133.832 194.817 133.76 194.657C132.839 192.596 132.871 192.745 132.892 192.611C133.143 190.172 133.52 187.748 134.023 185.348C134.54 184.838 135.016 184.286 135.447 183.7L135.455 183.694C135.457 183.692 135.46 183.691 135.463 183.691H135.472C143.072 184.895 142.548 184.745 142.62 184.905Z" fill="#0F0F0F"/>
<path d="M108.773 168.32C109.122 162.6 109.212 162.581 108.933 162.334C108.732 162.158 108.58 162.2 104.173 161.755C103.685 161.632 103.234 161.391 102.86 161.054C106.954 133.744 106.196 137.102 106.69 136.549C107.855 135.243 110.719 136.443 112.215 136.494C113.711 136.545 113.184 134.929 113.194 134.045C113.215 132.446 113.376 130.854 113.674 129.285C114.069 128.837 113.226 128.875 132.162 131.384C134.242 131.659 134.546 132.549 133.167 139.821C134.68 140.198 136.197 140.558 137.717 140.902C135.932 158.67 136.052 163.689 133.543 163.353C129.09 162.757 129.1 162.696 128.695 162.941C127.074 163.921 127.415 171.976 125.138 171.877C119.474 171.632 116.231 170.539 114.015 170.397C112.042 170.264 106.892 170.547 108.773 168.32Z" fill="#FDFE1F"/>
<path d="M134.044 138.987C134.756 132.998 135.583 130.643 133.413 130.347C112.479 127.432 113.759 127.408 113.004 128.433C112.607 128.969 112.703 128.804 111.816 135.512C107.301 134.723 105.618 134.088 105.229 137.168C102.095 162.048 101.632 160.838 102.472 161.923C103.135 162.777 103.492 162.643 108.093 163.131C107.799 165.225 107.573 167.328 107.416 169.436C107.373 169.665 107.377 169.9 107.426 170.127C107.476 170.354 107.571 170.569 107.705 170.759C107.839 170.949 108.011 171.11 108.208 171.232C108.406 171.355 108.627 171.436 108.856 171.472C123.618 173.308 125.743 173.297 125.914 173.297C127.904 173.297 127.743 170.939 129.005 164.102L134.455 164.636C134.685 164.66 134.917 164.638 135.138 164.571C135.359 164.503 135.564 164.392 135.741 164.244C135.919 164.097 136.066 163.916 136.173 163.711C136.28 163.506 136.345 163.282 136.364 163.052L139.101 141.6C139.407 139.323 137.092 139.473 134.044 138.987ZM110.192 162.019C111.439 152.712 112.432 154.232 105.301 153.219L107.493 137.166C111.584 137.756 113.784 138.82 114.053 135.748C114.053 135.748 114.789 130.134 114.797 130.054C115.22 130.179 114.352 130.041 127.012 131.755C125.808 140.728 124.772 139.288 131.997 140.315C132.261 140.78 132.423 138.785 130.087 156.747C122.5 155.667 123.949 154.404 122.781 163.812L110.192 162.019ZM131.815 138.692L127.748 138.115L128.572 131.961L132.552 132.492L131.815 138.692ZM104.226 160.462C104.303 160.302 104.572 158.155 105.069 154.777L109.485 155.404L108.743 160.945C108.628 160.924 107.581 160.817 104.226 160.462ZM134.194 162.355C125.768 161.529 127.474 160.043 125.453 170.995L109.679 169.296C109.748 168.42 109.948 166.075 110.292 163.624C123.175 165.456 122.839 165.422 123.007 165.422C124.629 165.422 124.372 163.22 125.068 157.62L130.151 158.344C131.88 158.6 131.554 157.153 133.692 141.203L136.823 141.704L134.194 162.355Z" fill="#0F0F0F"/>
<path d="M119.075 148.307C117.267 148.307 115.744 146.185 115.059 144.756C114.899 144.436 114.87 144.732 115.493 143.294C116.521 140.896 117.799 138.612 119.304 136.48C120.045 135.337 119.769 135.348 120.264 136.571C121.5 139.966 122.419 143.469 123.009 147.035C122.72 147.931 119.413 148.307 119.075 148.307ZM116.16 144.505C116.651 145.448 117.332 146.279 118.161 146.945C118.394 147.089 118.656 147.179 118.928 147.21C119.2 147.241 119.475 147.212 119.734 147.124C120.467 147.017 121.193 146.862 121.905 146.66C121.344 143.72 120.587 140.82 119.64 137.98C118.242 140.02 117.075 142.208 116.16 144.505Z" fill="#0F0F0F"/>
<path d="M122.921 149.676C123.308 148.396 121.141 149.316 120.157 149.556C117.932 150.088 117.546 149.692 116.37 148.009C113.914 144.5 114.434 148.308 114.791 152.59C114.761 154.533 115.278 156.444 116.284 158.107C118.293 158.088 122.671 150.502 122.921 149.675V149.676ZM120.671 151.564C119.513 153.413 118.199 155.158 116.741 156.78C115.986 155.224 115.973 153.56 115.644 149.889C115.407 147.264 115.82 150.42 117.964 150.793C120.997 151.32 122.295 149.022 120.671 151.566V151.564Z" fill="#0F0F0F"/>
<path d="M109.792 118.654C99.9564 103.357 102.038 104.059 97.5612 106.931C95.6412 103.869 95.126 102.085 93.2556 103.627C83.27 109.928 82.3404 109.968 83.2668 111.438L85.4108 114.958C81.7308 117.406 81.6396 115.448 90.4988 129.603C91.3292 130.931 92.3084 129.987 95.0988 128.362L97.8524 132.286C98.7772 133.754 99.534 132.963 108.83 127.221C109.097 127.044 109.284 126.768 109.348 126.454C109.412 126.14 109.349 125.813 109.172 125.546C109.134 125.475 108.252 123.856 107.158 122.141C108.894 121.12 110.88 120.357 109.792 118.654ZM105.385 121.992L98.7196 126.27C95.5324 121.211 96.5852 121.576 92.6252 124.115L87.1996 115.494C87.342 115.054 86.806 115.494 89.7596 113.606C90.7324 112.984 89.6972 111.938 87.8636 109.027C92.3324 106.206 94.1804 105.048 94.326 104.934C97.3452 109.757 96.5388 109.592 100.424 107.101L105.864 115.629C102.027 118.08 102.24 116.992 105.385 121.992ZM84.9052 110.891L86.9068 109.627L88.9132 112.811L86.8716 114.12L84.9052 110.891ZM107.52 126.04L99.0556 131.07C95.0124 125.31 96.2652 125.736 91.7212 128.381L84.87 117.341L86.3996 116.331C92.2252 125.579 91.8556 125.203 92.3836 125.322C92.8636 125.427 92.9132 125.269 95.6572 123.509C97.5052 126.442 98.1148 127.989 99.0876 127.371L105.76 123.088C106.529 124.291 107.2 125.469 107.52 126.04ZM106.006 120.867L104.212 118.019L106.46 116.579L108.32 119.494C108.289 119.52 106.038 120.846 106.006 120.867Z" fill="#0F0F0F"/>
<path d="M100.79 116.533C96.8109 113.189 93.7741 108.517 93.2173 110.741C93.1373 111.061 93.1293 110.853 94.3725 115.137C94.0253 115.334 93.6813 115.537 93.3421 115.75C93.2135 115.825 93.1201 115.949 93.0824 116.093C93.0448 116.237 93.066 116.39 93.1413 116.519C93.2166 116.647 93.3399 116.741 93.4841 116.779C93.6283 116.816 93.7815 116.795 93.9101 116.72L94.6957 116.24L95.6237 119.43C95.6713 119.564 95.7679 119.675 95.894 119.741C96.0201 119.806 96.1664 119.822 96.3035 119.784C96.4406 119.747 96.5584 119.659 96.6332 119.538C96.708 119.417 96.7343 119.272 96.7069 119.133L95.7037 115.683C96.1021 115.477 96.9117 115.189 96.5309 114.598C96.2109 114.104 95.7309 114.409 95.3853 114.585C93.9853 109.769 94.1741 112.425 99.9965 117.318C100.545 117.789 101.344 116.998 100.79 116.534V116.533Z" fill="#0F0F0F"/>
<path d="M88.1791 136.942C89.2623 131.673 90.5167 133.024 78.8207 130.702C77.1503 130.145 77.0863 131.198 76.3855 134.36C73.9503 133.862 73.2543 133.484 72.8495 135.369C69.9007 149.139 69.0815 147.982 73.2015 148.675C72.0703 153.76 71.5183 152.443 82.1071 154.4C82.4017 154.453 82.7056 154.39 82.9546 154.224C83.2037 154.058 83.3782 153.801 83.4415 153.508L84.4255 149.928C89.1359 150.683 87.7215 151.945 90.6111 138.702C90.9231 137.27 89.2783 137.187 88.1791 136.942ZM74.8431 147.84C75.8527 143.267 76.1423 143.964 72.8015 143.283L74.5023 135.708C78.0079 136.432 77.5807 136.776 78.5551 132.392L84.3375 133.529C83.6479 136.638 83.5503 136.694 83.8063 137.089C84.2367 137.753 86.2191 137.512 86.6431 138.07L84.9391 145.76C81.2351 145.003 81.8991 144.492 80.8911 149.076L74.8431 147.84ZM86.5039 136.728L84.8543 136.39L85.4399 133.747L87.0511 134.067L86.5039 136.728ZM71.9791 146.772L72.5439 144.372L74.3743 144.747L73.8559 147.084L71.9791 146.772ZM86.7631 148.603C82.5135 147.923 83.3455 147.502 81.9279 152.667L74.3919 151.387C74.4799 150.862 74.6447 149.947 74.8607 148.987C82.7999 150.609 81.5167 151.448 82.6287 146.427C86.5759 147.227 85.5087 148.358 87.6847 138.555L88.8623 138.817L86.7631 148.603Z" fill="#0F0F0F"/>
<path d="M130.335 112.467C125.788 102.778 126.815 103.363 124.095 104.56C122.602 101.304 123.973 101.536 115.624 105.125C114.626 105.749 115.365 106.59 116.122 108.309C115.197 108.733 114.232 108.981 114.669 109.938C118.845 119.11 117.615 118.21 120.778 116.978C121.864 119.058 122.173 120.187 123.098 119.8C128.983 117.333 129.906 117.4 129.41 116.334C128.468 113.866 128.152 114.538 129.864 113.859C129.99 113.802 130.102 113.72 130.194 113.618C130.286 113.515 130.357 113.395 130.401 113.265C130.445 113.134 130.462 112.996 130.45 112.859C130.439 112.722 130.4 112.589 130.335 112.467ZM126.804 113.357L123.274 114.902C121.983 112.083 122.365 112.237 120.056 113.248L117.919 108.571C120.239 107.555 120.061 107.883 118.799 105.126L122.271 103.634C123.588 106.514 123.24 106.426 125.616 105.386L127.679 109.904C125.354 110.928 125.527 110.568 126.804 113.357ZM117.696 105.6L118.368 107.069L117.17 107.597L116.516 106.109L117.696 105.6ZM122.976 118.499C121.12 114.939 121.73 115.262 118.925 116.355L115.957 109.76L116.938 109.312C119.738 115.424 118.98 115.026 121.508 113.917C122.354 115.762 122.54 116.53 123.359 116.173C127.848 114.21 127.199 114.387 127.33 114.67C127.658 115.365 127.94 116.048 128.101 116.453L122.976 118.499ZM128.06 113.219L127.228 111.403L128.288 110.939L129.164 112.781L128.06 113.219Z" fill="#0F0F0F"/>
<path d="M134.59 239.92C134.59 239.92 117.959 217.35 117.767 217.12C116.74 215.937 115.438 215.916 113.767 217.14C113.767 217.14 108.807 220.745 108.698 220.835C104.716 215.328 103.636 212.137 100.175 215.198C99.8313 215.502 101.658 214.068 77.8089 231.273C77.3099 231.634 76.9737 232.177 76.8736 232.784C76.7735 233.391 76.9176 234.013 77.2745 234.515L81.7033 240.868C77.1817 244.243 76.3561 244.521 76.1449 245.843C75.9321 247.192 75.3929 246.148 91.4697 268.484C91.8272 268.981 92.3657 269.316 92.9687 269.419C93.5717 269.521 94.1908 269.382 94.6921 269.032L101.769 264.254C108.042 271.836 107.95 272.168 109.42 272.168C110.438 272.168 108.862 273.494 131.937 257.212C132.429 256.867 132.765 256.342 132.875 255.751C132.985 255.16 132.859 254.55 132.524 254.051C131.217 251.931 129.825 249.865 128.351 247.857C134.291 243.796 134.87 243.724 135.132 242.132C135.195 241.746 135.179 241.351 135.086 240.971C134.993 240.591 134.824 240.233 134.59 239.92ZM120.521 241.492L125.106 247.812L109.418 259.2C102.769 250.038 105.217 250.48 96.1161 257.088L84.8985 241.633C85.0681 241.001 84.1545 241.82 91.0473 236.811C91.2305 236.679 91.3856 236.511 91.5037 236.319C91.6218 236.126 91.7005 235.912 91.7353 235.689C91.8056 235.239 91.6945 234.779 91.4265 234.411L87.0489 228.379C104.198 216.07 102.276 217.124 102.695 217.702C108.746 226.054 106.932 225.968 115.74 219.441L126.926 234.72L120.902 239.091C120.719 239.223 120.563 239.39 120.445 239.583C120.327 239.775 120.248 239.989 120.214 240.212C120.178 240.435 120.186 240.663 120.239 240.883C120.292 241.103 120.388 241.31 120.521 241.492ZM80.1289 233.332L85.3321 229.609L89.4841 235.332L84.2041 239.172L80.1289 233.332ZM129.646 255.132L109.54 268.918C101.034 258.64 104.03 259.094 93.5401 266.18L79.4057 246.361L83.5065 243.3C95.5289 259.864 94.7625 259.172 95.7641 259.334C96.6921 259.481 96.3769 259.51 103.361 254.44C107.142 259.649 108.426 262.537 110.345 261.14L126.015 249.766C127.615 251.953 129.006 254.118 129.646 255.134V255.132ZM126.446 245.51C126.068 245.768 126.737 246.462 122.462 240.571L128.191 236.411L132.105 241.638L126.446 245.51Z" fill="#0F0F0F"/>
<path d="M113.57 245.985C113.23 245.505 113.237 245.7 113.426 245.393C116.405 240.593 110.954 235.187 106.456 235.547C108.443 230.907 105.066 226.692 101.016 227.719C100.272 226.119 98.8639 225.558 98.6495 225.871C98.4351 226.185 99.0031 226.951 99.6223 227.883C99.9423 228.363 99.9903 227.937 98.2399 229.046C96.6239 226.326 95.4751 227.286 97.1823 229.788C96.7663 230.171 96.3695 230.574 95.9951 230.996C97.2159 232.916 100.504 236.662 102.579 239.948C109.475 250.867 107.877 250.014 109.619 248.606C109.789 248.515 109.672 248.5 109.989 248.915C111.149 250.439 113.08 250.835 111.021 248.126C110.806 247.846 110.77 247.956 111.133 247.71C112.616 246.703 112.334 246.487 112.512 246.739C114.538 249.545 114.878 247.795 113.57 245.985ZM102.238 237.119C101.118 235.111 100.056 232.969 99.1823 231.34C99.7772 230.73 100.419 230.167 101.102 229.657C104.171 227.542 107.09 231.281 104.858 234.484C104.114 235.482 103.232 236.369 102.238 237.119ZM108.998 246.079C107.079 244.054 105.311 241.89 103.709 239.606C104.619 238.593 105.782 237.84 107.078 237.422C111.501 236.679 116.626 242.9 108.995 246.07L108.998 246.079Z" fill="#0F0F0F"/>
<path d="M142.72 179.869C144.16 180.593 144.723 182.109 146.291 185.385C146.905 184.045 147.288 179.979 151.705 178.696C152.185 178.558 152.443 178.235 152.012 177.976C150.969 177.349 147.84 176.987 146.604 173.392C144.705 167.865 146.868 177.049 139.894 178.595C140.758 179.174 141.713 179.605 142.72 179.869Z" fill="white"/>
<path d="M60.363 166.47C61.4606 164.249 62.3611 161.937 63.0542 159.559C63.8062 161.639 64.8301 163.612 66.0941 165.428C67.7949 167.457 72.0253 168.291 72.2813 168.822C72.6013 169.491 69.2414 169.956 67.5101 172.078C67.3054 172.327 64.8989 176.249 64.7901 176.545C64.4173 177.519 64.4094 178.755 63.5518 179.348C62.8574 177.908 62.7261 176.252 61.9917 174.838C60.5021 171.974 57.4221 171.318 55.9117 170.601C53.6157 169.515 58.2398 169.627 60.363 166.47Z" fill="white"/>
<path d="M69.5101 167.139C68.2036 166.592 67.048 165.739 66.141 164.651C65.2339 163.563 64.6021 162.273 64.2989 160.889C62.6685 155.39 63.3389 155.011 61.9357 161.104C59.9389 170.014 53.0909 169.029 53.2045 170.088C53.2957 170.931 60.1437 170.329 62.4589 177.833C63.1645 180.073 63.4077 182.024 63.7389 182.011C64.0701 181.998 64.2829 180.091 65.0109 177.851C68.7213 166.293 79.2141 171.213 69.5101 167.139ZM63.7309 178.339C63.3839 176.674 62.6611 175.11 61.6177 173.766C60.5742 172.423 59.2377 171.335 57.7101 170.587C55.2285 169.427 55.4109 170.619 57.8301 169.157C59.2605 168.214 60.473 166.977 61.3864 165.528C62.2997 164.079 62.8929 162.452 63.1261 160.755C63.5385 162.844 64.5862 164.755 66.1258 166.226C67.6654 167.697 69.6219 168.657 71.7277 168.974C67.7325 169.857 64.6701 174.39 63.7309 178.342V178.339Z" fill="#0F0F0F"/>
<path d="M117.253 124.929C114.672 127.462 112.498 126.4 113.989 127.539C114.976 128.307 115.771 129.293 116.313 130.42C116.854 131.547 117.126 132.785 117.108 134.035C121.004 128.31 122.88 129.461 123.434 128.915C123.956 128.401 122.346 127.587 122.076 127.401C119.685 125.763 120.308 122.889 119.722 121.742C118.775 122.629 118.21 123.989 117.253 124.929Z" fill="white"/>
<path d="M122.656 127.171C118.518 124.086 121.781 115.737 118.514 122.428C118.165 123.259 117.65 124.009 117 124.633C116.35 125.256 115.579 125.74 114.734 126.054C113.358 126.526 112.062 126.481 112.014 126.828C111.792 127.638 116.061 128.076 116.419 132.968C116.71 136.636 116.544 136.499 118.39 133.432C121.99 127.4 127.941 130.984 122.656 127.171ZM117.536 132.696C117.465 131.712 117.192 130.754 116.733 129.88C116.275 129.007 115.641 128.238 114.872 127.62C114.232 127.116 114.205 127.411 115.085 127.124C116.953 126.457 118.483 125.08 119.344 123.292C119.418 124.418 119.786 125.504 120.412 126.442C121.038 127.381 121.899 128.138 122.909 128.64C121.776 128.897 120.711 129.392 119.784 130.091C118.856 130.79 118.087 131.678 117.528 132.696H117.536Z" fill="#0F0F0F"/>
<path d="M96.1965 218.11C101.064 218.302 101.55 219.119 104.416 222.388C104.736 216.857 105.696 215.668 107.953 213.443C107.344 212.655 104.822 213.668 102.592 212.215C101.283 211.363 100.192 209.476 99.7213 209.167C98.8413 208.596 99.5229 210.983 99.4893 211.625C99.1961 214.109 98.0289 216.407 96.1965 218.11Z" fill="white"/>
<path d="M150.431 176.626C144.991 174.243 146.692 164.315 144.815 172.458C143.418 178.678 138.674 177.898 138.78 178.872C138.741 179.747 143.543 179.11 145.189 184.43C146.457 188.442 146.098 188.219 147.327 184.442C149.794 176.758 157.21 179.475 150.431 176.626ZM146.26 184.091C145.952 183.006 145.418 181.998 144.693 181.134C143.968 180.269 143.069 179.568 142.053 179.077C140.996 178.586 141.055 179.029 142.154 178.366C143.1 177.754 143.915 176.96 144.55 176.029C145.185 175.099 145.628 174.051 145.853 172.947C146.205 174.225 146.902 175.382 147.867 176.291C148.832 177.2 150.029 177.826 151.325 178.101C148.881 178.88 147.079 181.566 146.26 184.091Z" fill="#0F0F0F"/>
<path d="M105.59 212.448C99.4733 211.968 97.8316 201.753 98.7564 210.286C99.5036 216.804 94.6204 217.62 95.0572 218.54C95.31 219.393 99.7548 217.144 103.155 221.758C107.955 228.195 102.924 220.592 106.79 215.32C108.603 212.817 110.705 212.771 105.59 212.448ZM104.083 221.124C103.423 220.165 102.565 219.358 101.567 218.758C100.568 218.159 99.4528 217.781 98.2957 217.649C97.0525 217.523 97.2669 217.956 98.1437 216.902C98.8586 215.984 99.382 214.933 99.6827 213.809C99.9834 212.686 100.055 211.513 99.894 210.361C100.668 211.498 101.743 212.397 102.998 212.959C104.253 213.521 105.639 213.723 107.003 213.544C104.891 215.091 103.976 218.4 104.083 221.12V221.124Z" fill="#0F0F0F"/>
<path d="M107.329 98.7192C109.865 101.03 112.217 100.514 112.355 100.919C112.483 101.294 111.382 102.558 111.108 103.185C110.659 104.215 110.907 105.474 110.34 106.444C108.441 103.404 105.511 104.244 105.503 103.663C105.503 103.41 106.83 102.223 107.174 100.842C107.257 100.513 107.627 98.9976 107.329 98.7192Z" fill="white"/>
<path d="M113.307 100.757C113.296 100.139 110.777 100.46 109.603 99.6365C108.163 98.6333 107.392 96.5837 106.857 96.8029C105.944 97.1037 107.768 100.222 105.768 102.549C105.104 103.32 104.337 103.854 104.47 104.166C104.566 104.486 105.467 104.416 106.446 104.547C109.44 104.848 109.942 108.067 110.838 107.921C111.699 107.689 110.315 104.788 112.164 102.36C112.752 101.58 113.419 101.061 113.307 100.757ZM110.022 105.345C109.158 104.291 107.924 103.608 106.572 103.437C107.416 102.333 107.873 100.985 107.878 99.5965C108.327 100.146 108.894 100.587 109.537 100.886C110.18 101.185 110.882 101.335 111.592 101.325C110.605 102.434 110.049 103.861 110.022 105.345Z" fill="#0F0F0F"/>
<path d="M228.115 160.723C231.272 163.603 235.445 165.054 239.491 166.429C246.61 168.848 255.151 165.629 259.795 159.709C266.125 151.648 266.355 142.122 264.551 139.773C262.843 143.262 258.679 147.453 254.922 146.563C254.006 146.343 253.204 145.793 252.669 145.019C252.133 144.244 251.903 143.299 252.021 142.365C252.687 138.67 258.12 132.696 257.589 130.232C257.359 129.163 258.263 127.662 258.069 125.778C257.955 124.699 257.578 124.043 255.589 119.73C255.437 119.299 255.202 118.902 254.897 118.562C254.591 118.222 254.222 117.946 253.81 117.749C252.611 116.922 251.547 115.618 250.091 115.632C254.283 131.152 236.227 122.182 235.083 131.08C234.594 134.888 238.679 136.435 237.264 142.504C236.992 143.667 236.707 144.059 235.439 144.277C234.176 144.613 232.851 144.636 231.577 144.345C230.303 144.053 229.12 143.455 228.13 142.603C226.768 141.208 224.319 135.794 224.77 132.643C225.25 129.27 220.106 137.818 221.41 149.547C220.611 149.28 223.914 156.888 228.115 160.723Z" fill="#FDFE1F"/>
<path d="M133.673 20.2785C131.374 20.4065 131.633 36.2785 143.726 38.5889C147.764 39.3569 151.342 39.5489 155.932 36.3297C159.537 33.8065 160.273 31.3057 160.871 26.9185C161.319 25.1857 161.084 23.3471 160.215 21.7825C158.225 26.5153 152.62 25.9601 152.055 22.4417C152.054 21.038 152.364 19.6515 152.964 18.3825C153.476 16.4837 153.342 14.4688 152.584 12.6541C151.826 10.8395 150.487 9.32802 148.777 8.35693C148.587 9.54253 149.219 10.8113 148.767 11.9249C148.076 13.6369 145.942 13.4385 142.721 15.6049C139.958 17.4689 140.123 19.0577 141.431 21.9153C142.231 23.6609 142.654 25.8945 141.369 26.5649C140.415 26.6923 139.445 26.5854 138.542 26.2533C137.639 25.9213 136.831 25.3742 136.187 24.6593C135.16 23.3155 134.315 21.8426 133.673 20.2785Z" fill="#FDFE1F"/>
<path d="M80.4781 54.8356C80.1421 54.2788 79.8861 53.81 79.1117 53.7156C79.5853 55.746 79.7661 57.8324 79.6445 59.914C79.6631 60.6688 79.5224 61.4189 79.2315 62.1156C78.9407 62.8123 78.5062 63.4398 77.9565 63.9572C77.6712 64.4328 77.2411 64.8046 76.7292 65.0183C76.2173 65.2319 75.6505 65.2761 75.1117 65.1444C69.4301 64.45 71.2413 58.5732 69.2765 55.1572C67.7053 52.4228 67.5165 51.1876 64.6029 49.7876C61.0349 48.0772 56.1005 47.7444 58.1261 49.2148C59.1667 49.8935 59.9821 50.866 60.4689 52.0089C60.9558 53.1518 61.0921 54.4135 60.8605 55.634C60.0157 58.6324 56.4845 60.0964 55.6749 62.1732C55.4448 63.0281 55.4829 63.9329 55.7839 64.7654C56.085 65.5979 56.6345 66.3178 57.3581 66.8276C60.6445 69.4756 65.3469 68.7076 64.0333 73.69C63.9784 74.0944 63.8058 74.4737 63.537 74.7806C63.2681 75.0876 62.9149 75.3087 62.5213 75.4164C58.2573 77.1412 57.0061 75.586 55.3869 74.8852C54.7373 74.6036 54.0365 74.4468 53.4045 74.13C51.9373 73.3924 50.9949 71.8756 49.5549 71.09C49.5613 71.8932 49.6269 72.6964 49.7517 73.49C52.0317 79.946 54.4077 82.3172 58.6861 84.6036C66.6141 88.8388 70.4589 87.8868 75.6141 85.4308C81.3629 82.69 83.3181 78.7764 85.0541 73.9188C86.3805 69.858 86.1741 65.4516 84.4781 61.53C83.4957 59.1068 82.1466 56.849 80.4781 54.8356Z" fill="#FDFE1F"/>
<path d="M265.08 139.547C264.44 137.977 264.495 138.859 263.547 140.449C260.363 145.873 251.559 147.585 253.429 141.649C254.352 138.769 256.992 136.032 258.403 132.801C259.313 130.59 259.622 128.178 259.298 125.808C258.975 123.439 258.03 121.198 256.56 119.312C254.053 116.112 250.106 114.683 249.92 115.294C249.399 115.517 251.594 119.816 248.32 122.998C243.576 127.813 238.04 121.915 234.4 128.974C231.7 134.161 236.671 137.577 236.48 141.176C236.328 144.237 230.967 145.118 227.287 139.152C224.706 134.846 225.435 131.003 224.81 130.95C224.472 130.734 220.32 135.953 219.931 143.403C218.834 163.803 242.287 174.942 256.68 164.217C265.031 158.005 267.976 146.689 265.08 139.545V139.547ZM263.267 151.419C256.751 169.419 234.671 169.325 225.987 156.283C223.808 153.099 222.451 149.426 222.039 145.59C221.626 141.754 222.169 137.875 223.621 134.301C224.531 131.931 224.261 132.577 224.21 133.373C223.743 143.043 232.631 148.829 237.49 144.853C238.002 144.419 238.42 143.886 238.719 143.286C239.018 142.686 239.191 142.031 239.229 141.361C239.565 136.312 233.386 132.025 238.295 128.504C240.317 127.043 242.863 128.097 245.616 127.16C250.451 125.616 253.152 120.309 250.533 115.936C255.32 119.392 256.989 123.616 256.848 127.549C256.679 133.885 249.685 138.171 250.544 143.88C251.472 150.837 262.92 147.691 264.624 140.565C265.017 144.24 264.552 147.955 263.267 151.421V151.419Z" fill="#0F0F0F"/>
<path d="M160.175 20.4417C159.717 20.3921 158.124 25.8657 154.62 24.2145C151.288 22.7393 157.092 17.1249 154.119 11.9217C152.548 9.15689 148.679 7.56969 148.487 8.00009C148.007 7.96329 148.45 10.2065 148.192 10.9489C147.773 12.2001 146.13 12.6273 144.864 13.0017C139.893 14.5089 137.712 18.2225 140.535 22.3121C141.288 23.4049 141.7 24.1633 141.532 24.6001C141.245 26.0081 138.188 26.2289 136.114 23.3905C134.364 20.9553 134.685 18.7681 134.296 18.7505C134.184 18.6497 133.458 19.1441 132.759 20.5105C130.924 24.1025 131.362 30.5281 135.575 35.4721C144.093 45.4353 159.783 40.5569 161.581 28.7889C162.36 23.9601 160.599 20.2577 160.175 20.4417ZM133.599 26.5265C133.207 24.6823 133.228 22.774 133.663 20.9393C133.668 22.7061 134.333 24.4072 135.528 25.7094C136.722 27.0116 138.359 27.821 140.119 27.9793C140.76 28.0114 141.4 27.8779 141.975 27.5917C142.55 27.3055 143.042 26.8762 143.404 26.3451C143.765 25.8139 143.984 25.1987 144.039 24.5586C144.094 23.9185 143.984 23.2749 143.719 22.6897C142.856 20.6993 140.111 18.7873 143.165 16.3313C145.335 14.5713 151.087 14.0785 149.221 9.29129C148.965 8.73289 148.992 8.82889 149.159 9.02089C150.141 10.1409 150.536 10.3937 151.239 11.2609C154.919 15.7889 150.05 19.4369 151.192 23.6337C152.218 27.7841 158.989 27.9409 160.29 22.6641C161.799 41.4017 136.912 43.9233 133.599 26.5265Z" fill="#0F0F0F"/>
<path d="M78.457 52.8322C78.1178 52.957 79.209 55.2498 78.969 58.9954C78.489 64.9378 73.9146 66.8946 72.1898 60.6306C70.9098 56.029 70.1322 50.5041 63.001 48.2881C59.569 47.2321 56.3514 48.2065 56.473 48.6289C56.3994 48.9649 60.385 49.989 60.1754 53.9954C60.0394 56.925 57.8234 57.8193 55.8682 60.0465C53.2458 63.0529 53.7882 67.429 59.1418 69.4738C60.6475 69.8389 62.0284 70.5995 63.1418 71.677C64.4778 73.2674 63.0778 75.5602 59.3258 75.253C53.0026 74.7314 49.8714 70.3937 49.5322 70.7345C49.257 70.7265 48.7322 75.7138 52.9498 81.0434C66.1466 97.5522 93.5402 83.5458 85.1306 61.4402C82.9658 55.949 78.7706 52.421 78.457 52.8322ZM84.3402 73.0066C82.3418 81.8754 72.1498 88.0081 63.5306 85.7361C60.1436 84.8782 57.064 83.09 54.6401 80.5736C52.2161 78.0572 50.5444 74.9129 49.8138 71.4962C53.4138 77.3538 64.5914 79.5986 65.697 73.4866C66.2762 70.3186 62.977 68.5026 59.921 67.4066C56.121 66.0354 55.7418 63.3521 57.433 61.3265C58.9642 59.3937 61.937 57.7025 61.7322 53.9793C61.7042 52.846 61.3409 51.7463 60.6882 50.8194C60.0355 49.8924 59.1226 49.1797 58.065 48.7713C59.5812 48.8229 61.0751 49.1515 62.473 49.7409C68.4906 52.3009 68.873 56.8113 70.0746 61.2273C73.2298 72.0849 84.3146 64.7713 79.4842 54.2801C79.3162 53.9201 86.7562 62.4994 84.3402 73.0066Z" fill="#0F0F0F"/>
<path d="M200.487 217.119C201.127 231.494 215.772 238.615 227.235 244.331C229.075 245.247 229.599 245.827 229.387 249.025C228.652 260.046 236.791 272.166 239.967 274.225C245.286 277.673 256.315 269.516 258.969 263.233C262.039 255.961 259.804 246.084 257.492 238.569C256.611 235.7 253.779 226.787 252.011 224.382C249.519 220.998 238.071 215.291 234.123 213.788C229.134 211.889 223.611 210.811 219.623 207.262C215.303 203.422 212.15 200.044 206.603 204.035C204.604 205.561 203.004 207.548 201.939 209.826C200.874 212.105 200.376 214.607 200.487 217.119Z" fill="white"/>
<path d="M256.894 231.312C252.574 214.938 234.989 214.208 223.864 207.549C219.963 205.291 217.981 202.211 214.363 200.915C208.867 198.787 198.894 205.349 199.174 216.613C199.683 230.136 214.501 243.421 227.654 246.373C226.976 262.787 237.945 274.795 239.081 273.813C239.857 273.173 234.665 266.466 232.153 256.638C229.483 246.854 230.624 238.441 229.632 238.281C229.265 238.213 228.561 239.736 228.08 242.442C211.246 238.374 195.213 217.082 207.28 206.68C213.84 201.211 214.947 207.041 221.859 210.907C233.79 217.96 249.513 217.72 254.23 232.085C261.92 258.366 262.742 256.6 256.894 231.312Z" fill="#0F0F0F"/>
<path d="M204.915 201.453C206.534 203.501 212.125 202.563 215.142 200.323C217.92 205.309 224.605 204.83 224.873 203.811C225.033 203.208 223.342 202.258 222.176 200.963C219.349 197.826 219.581 192.483 218.2 190.61C216.734 191.814 215.973 193.699 214.55 194.952C212.574 196.592 210.062 197.447 207.496 197.352C205.71 197.125 198.712 193.427 198.073 193.203C198.736 199.078 201.87 199.539 199.881 203.813C198.173 207.493 193.944 211.173 193.686 211.619C199.526 211.277 203.963 210.71 204.613 204.259C204.808 203.336 204.909 202.396 204.915 201.453Z" fill="#FDFE1F"/>
<path d="M217.945 192.045C219.057 195.267 218.12 197.662 220.953 200.669C221.875 201.541 222.734 202.478 223.523 203.472C222.683 203.675 221.81 203.706 220.958 203.561C220.107 203.416 219.293 203.098 218.568 202.628C217.843 202.158 217.221 201.545 216.741 200.827C216.261 200.108 215.932 199.299 215.776 198.449C214.355 200.206 212.32 201.356 210.082 201.666C207.844 201.975 205.573 201.421 203.729 200.115C205.057 205.096 201.956 211.4 195.54 210.8C198.795 207.257 201.097 205.672 200.942 200.787C200.857 198.081 199.4 196.513 198.812 194.217C203.894 196.137 209.016 202.003 216.136 194.625C216.499 193.62 217.124 192.729 217.945 192.045ZM218.761 189.245C216.841 190.776 215.644 191.485 214.702 193.681C208.707 199.621 205.945 195.104 196.379 191.499C198.224 198.715 199.259 198.713 199.259 200.84C199.56 205.041 197.088 206.629 192 212.165L195.387 212.485C201.688 213.07 205.523 208.133 205.7 202.91C207.97 203.654 210.427 203.59 212.654 202.728C216.459 201.262 214.052 200.608 216.206 202.853C219.862 206.662 223.956 205.107 226.275 204.453C221.867 198.213 221.032 199.672 220.366 195.544C220.14 193.377 219.6 191.255 218.761 189.245Z" fill="#0F0F0F"/>
</svg>
