<svg width="320" height="320" viewBox="0 0 320 320" fill="none" xmlns="http://www.w3.org/2000/svg">
<path d="M261.726 270.122C268.277 221.789 272.792 177.536 274.259 169.023C276.019 158.832 277.395 148.555 268.331 142.442C254.544 133.152 201.554 139.776 143.051 128.975C101.165 121.242 81.2287 107.307 66.8911 117.263C61.0959 121.288 59.2911 126.808 58.3807 133.742C58.3599 133.902 51.1999 221.613 51.1519 255.056C51.1519 266.736 50.9311 279.216 61.7999 281.973C75.1268 283.894 88.5849 284.756 102.048 284.549C111.224 284.413 113.096 284.016 121.888 284.258C122.048 284.258 154.688 285.714 154.848 285.743C173.088 288.987 177.677 295.117 218.083 305.423C225.586 307.343 238.182 311.792 245.05 310.272C257.643 307.482 259.752 284.68 261.726 270.122Z" fill="white"/>
<path d="M51.5904 272.381L54.2864 271.619C50.0352 255.888 58.7904 168.013 60.424 145.203C61.2464 133.707 61.0176 121.565 72.304 117.973C83.8576 114.293 98.7344 121.333 117.904 126.518C177.181 142.56 244.8 138.123 260.8 142.72C270.4 145.478 273.034 151.712 271.958 161.683C271.288 167.923 272.211 157.054 266.838 202.106C254.643 304.277 257.222 312.666 230.37 305.685C174.562 291.195 183.581 290.683 164.432 285.184C160.819 284.019 157.079 283.288 153.293 283.008C142.792 282.958 132.28 282.002 121.944 281.794C112.184 281.597 109.208 282.099 102.011 282.232C85.7872 282.528 64.5456 280.826 61.2864 279.808C57.4368 278.606 55.4128 275.478 54.2944 271.619L51.5984 272.381C53.2336 278.229 56.6384 282.291 62.7504 283.143C79.0359 285.402 95.4998 286.102 111.918 285.235C126.05 284.765 138.158 286.488 154.464 286.675C172.878 289.95 177.245 296.234 217.842 306.378C226.678 308.586 240.914 314.339 248.707 309.933C260.525 303.253 261.848 276.664 264.605 255.006C264.627 254.827 276.792 158.638 276.41 154.83C274.957 140.414 262.45 137.333 247.979 136.63C194.008 134.011 154.662 133.734 107.242 119.19C93.0784 114.834 77.28 108.374 65.3312 117.168C55.8624 124.139 57.2688 137.144 55.8288 155.968C54.4928 173.421 47.0752 256.208 51.5904 272.381Z" fill="#0F0F0F"/>
<path d="M73.7922 102.496C77.1266 106.736 80.3106 108.285 87.5522 111.274C92.4338 113.311 104.458 117.367 109.687 116.65C142.571 112.133 154.213 62.1554 136.011 49.461C133.413 47.6498 122.288 43.8914 120.226 43.2418C114.507 41.4402 109.331 40.2018 103.488 41.1234C73.9906 45.8018 61.0146 86.2402 73.7922 102.496Z" fill="#FDFE1F"/>
<path d="M144.775 62.8562C141.951 49.0642 134.57 47.3538 127.96 44.9042C121.12 42.3778 112.515 39.2722 105.221 39.9202C72.9602 43.709 59.189 88.2722 74.2738 104.514C78.4594 109.887 94.9634 115.355 102.123 116.887C128.053 122.432 149.931 89.293 144.775 62.8562ZM133.149 62.7058C137.421 63.0114 136.851 62.8434 141.68 64.9298C142.444 69.8672 142.302 74.9027 141.259 79.789C134.144 79.3266 135.645 78.509 131.45 77.229C132.819 72.5158 133.393 67.6076 133.149 62.7058ZM141.199 62.4146C136.119 62.0946 136.479 61.4546 132.856 60.0434C132.308 55.7091 130.509 51.6283 127.68 48.2994C132.738 50.2306 138.642 51.4226 141.199 62.4146ZM76.4162 102.496C63.3074 88.7746 73.2802 52.1954 98.8402 44.2994C107.064 41.5426 113.951 43.2914 122.829 46.4834C138.056 57.1602 129.861 84.1186 117.919 98.7554C110.989 107.125 103.359 111.403 92.6386 110.891C88.6786 109.525 78.9842 105.805 76.4162 102.495V102.496ZM97.9282 112.528C102.232 112.126 106.394 110.773 110.112 108.568C113.296 109.504 114.544 108.655 119.282 111.325C110.925 115.581 105.885 114.695 97.9282 112.527V112.528ZM121.888 109.84C117.119 108.685 117.789 109.594 112.667 106.816C116.415 103.862 119.692 100.356 122.386 96.4162C122.255 96.965 125.896 96.7794 128.56 97.4594C130.003 97.9322 131.41 98.5103 132.768 99.189C129.881 103.424 126.183 107.044 121.888 109.84ZM134.221 96.9986C126.655 96.0114 130.299 96.877 123.855 94.2146C126.707 89.7319 128.993 84.9127 130.659 79.8674C134.89 80.6674 133.989 79.1746 140.731 82.037C139.319 87.3207 137.124 92.3636 134.221 96.9986Z" fill="#0F0F0F"/>
<path d="M89.509 105.819C111.455 110.695 135.221 72.0081 121.624 52.5297C115.395 43.5345 96.4994 43.2001 83.5202 62.4289C82.2284 64.2043 81.1936 66.1531 80.4466 68.2177C80.9954 68.5169 85.1538 58.4401 97.1874 51.3361C104.557 47.0897 115.679 47.1457 119.984 53.6897C128.314 65.9265 120.514 86.0241 109.584 96.6241C91.9362 113.8 70.845 100.256 78.2066 74.6433C79.2786 71.0401 81.5666 65.8769 79.3714 69.9249C71.6914 84.0369 75.2178 102.898 89.509 105.819Z" fill="#0F0F0F"/>
<path d="M102.53 78.8963C105.09 78.9619 108.245 79.9603 109.85 78.0851C111.975 65.8515 112.555 62.293 112.419 53.925C100.503 62.7586 102.263 61.5634 94.9138 68.6946C95.0512 71.5945 95.9882 74.3998 97.621 76.8003C98.2284 77.4969 98.9854 78.0473 99.8354 78.4103C100.685 78.7732 101.607 78.9394 102.53 78.8963ZM110.096 58.5602C109.978 62.6354 109.616 65.6178 107.696 76.8162C106.367 76.8738 105.034 76.8163 103.714 76.6435C102.211 76.4835 100.427 76.5891 99.485 75.3635C98.3305 73.6369 97.5992 71.6624 97.3506 69.6003C101.223 65.5075 105.493 61.8093 110.096 58.5602Z" fill="#0F0F0F"/>
<path d="M93.8578 73.549L92.5474 71.1187C88.3874 84.1363 85.173 89.8642 86.3186 95.5602C86.5778 96.453 86.3746 96.2451 87.1538 96.5203C89.3218 97.3027 103.523 87.4387 106.805 84.0067C107.159 83.6371 107.207 83.5539 108.672 81.7234C105.771 81.5875 105.194 81.5379 103.141 81.5747C93.4402 81.7491 96.5458 78.5458 93.8578 73.549ZM101.4 83.9219C104.389 84.0227 104.311 83.0659 99.0098 87.3443C95.6162 89.7315 92.0947 91.9316 88.461 93.9347C88.487 90.9512 89.0732 87.9993 90.189 85.2323C91.389 81.5971 91.629 80.2291 92.749 77.5523C93.9618 81.9955 95.2306 83.7059 101.4 83.9219Z" fill="#0F0F0F"/>
<path d="M231.694 56.1873C240.026 44.2849 236.621 39.4097 234.094 35.0065C230.506 28.7665 226.832 22.1713 220.558 19.2801C197.494 8.65612 159.478 34.3201 159.578 53.5473C160.058 60.4641 168.078 73.7441 173.283 77.5617C184.846 86.0497 215.963 78.4305 231.694 56.1873Z" fill="#FDFE1F"/>
<path d="M237.885 41.8162C237.488 39.1843 236.477 36.6828 234.934 34.5138C231.549 28.6322 227.254 21.0434 220.95 18.4114C198.4 7.56657 156.054 33.869 158.794 55.3794C159.434 60.3618 164.797 69.9042 169.834 75.6178C175.149 81.6882 184.014 82.7234 191.974 81.6578C217.21 77.9474 239.125 54.9042 237.885 41.8162ZM219.797 20.8946C224.171 22.7874 227.512 27.6818 229.974 31.7938C234.307 52.3474 185.555 81.221 166.482 66.1426C164.587 63.0685 163.023 59.8029 161.814 56.4002C156.011 38.4098 197.16 9.60017 219.797 20.8946ZM168.728 69.5346C172.254 71.5157 176.225 72.57 180.269 72.5986C182.082 75.0498 183.077 74.8386 184.539 78.9234C175.272 78.4002 172.109 74.2402 168.728 69.5362V69.5346ZM186.949 78.9746C184.403 75.7746 184.429 76.6146 182.846 72.5058C187.507 72.0418 192.086 70.9598 196.461 69.2882C198.243 71.5602 199.038 70.5426 201.653 75.9138C196.969 77.7886 191.992 78.8241 186.949 78.973V78.9746ZM203.758 75.077C202.723 74.1676 201.746 73.1928 200.835 72.1586C200.074 70.9459 199.392 69.6852 198.794 68.3842C203.847 66.3003 208.679 63.7151 213.216 60.6674C215.978 63.5858 215.89 62.005 218.394 66.7378C213.869 70.0964 208.955 72.8959 203.758 75.0754V75.077ZM219.987 65.5042C216.016 62.1442 217.499 62.701 215.237 59.2498C219.359 56.3354 223.064 52.8726 226.25 48.957C228.157 50.2927 229.608 52.1806 230.41 54.3666C227.508 58.5759 223.996 62.3292 219.987 65.5026V65.5042ZM231.587 52.5442C228.771 50.1618 229.358 50.2354 227.627 47.0882C230.205 43.6394 231.707 39.5069 231.947 35.2082C234.589 39.8898 237.32 43.085 231.587 52.5458V52.5442Z" fill="#0F0F0F"/>
<path d="M166.168 57.6179C166.826 59.3028 167.856 60.8169 169.182 62.0466C170.509 63.2764 172.096 64.1899 173.826 64.7187C196.32 72.6659 240.16 39.7843 220.099 25.5523C208.331 17.3299 186.56 28.0003 186.88 28.6547C187.114 29.1347 195.95 23.8707 208.755 23.8147C216.4 23.8147 221.37 27.6547 222.899 31.3843C225.184 36.7443 219.794 44.8131 215.275 49.1043C207.62 56.0001 198.349 60.8528 188.32 63.2131C170.334 67.1731 162.102 56.7587 170.106 43.8067C176.701 33.3667 186.877 29.3283 186.595 28.7987C186.069 27.7491 160.659 42.2403 166.168 57.6179Z" fill="#0F0F0F"/>
<path d="M182.279 41.6914C178.791 37.173 179.45 37.8514 189.467 36.1922C217.112 31.6274 205.277 33.4834 208.311 33.0786C209.723 32.8914 210.315 33.6162 209.626 34.765C204.216 43.7538 206.847 41.821 190.335 44.4498C184.602 45.3618 185.037 45.2658 182.279 41.6914Z" fill="#0F0F0F"/>
<path d="M189.24 50.7073C188.6 49.8129 189.158 48.8833 190.506 48.6273C204.565 46.0369 202.45 46.5473 197.805 54.1137C196.563 56.1345 196.475 56.2929 196.342 56.4737C195.65 57.4065 194.558 57.5553 193.942 56.7809C193.68 56.4609 189.429 50.9713 189.24 50.7073Z" fill="#0F0F0F"/>
<path d="M241.683 69.5488C238.163 71.2944 228.915 77.9776 227.416 81.1536C220.328 96.1616 244.546 131.074 265.734 129.154C271.798 128.605 282.626 119.704 285.366 114.741C294.523 98.1648 262.118 59.4352 241.683 69.5488Z" fill="#FDFE1F"/>
<path d="M286.453 100.28C281.086 83.9394 263.704 65.5826 247.226 67.045C241.36 67.253 235.602 72.0706 231.12 75.7586C229.219 77.0297 227.649 78.7362 226.541 80.7361C221.638 90.7745 232.107 115.962 251.392 126.637C262.149 132.418 271.008 131.946 283.182 119.157C287.506 114.616 289.317 109.405 286.453 100.28ZM228.853 81.8562C229.811 80.1929 231.138 78.7723 232.733 77.7042C235.019 75.7842 230.813 77.957 233.187 88.0754C230.867 90.0642 231.341 90.2034 228.355 91.2658C227.8 88.2786 227.531 84.5778 228.856 81.8577H228.853V81.8562ZM228.747 93.0818C230.061 91.5766 231.797 90.5007 233.73 89.9937C235.105 94.104 237.037 98.0068 239.47 101.594C236.894 103.474 238.01 103.674 233.76 105.184C231.498 101.421 229.809 97.3425 228.75 93.0818H228.747ZM234.667 106.658C238.059 103.661 238.016 104.637 240.662 103.346C243.387 107.167 246.488 110.704 249.92 113.906C246.605 116.829 248 116.023 243.907 117.783C240.391 114.461 237.29 110.725 234.672 106.658H234.667ZM245.346 119.093C249.259 115.392 248.947 116.901 251.523 115.339C254.534 118.005 257.885 120.258 261.49 122.04C258.949 124.888 259.237 124.197 256.237 125.999C252.232 124.352 248.547 122.015 245.35 119.093H245.346ZM258.187 126.69C260.603 123.834 261.262 124.363 263.534 122.898C266.794 124.098 270.304 124.45 273.738 123.923C269.4 126.819 265.76 129.035 258.192 126.691H258.187V126.69ZM285.269 110.85C284.49 115.303 280.149 119.074 276.568 121.877C256.853 128.183 226.157 90.3778 235.928 75.0738C239.144 72.5138 243.31 69.5937 247.4 69.3937C266.72 67.3937 288.016 95.1746 285.28 110.848L285.269 110.851V110.85Z" fill="#0F0F0F"/>
<path d="M275.282 89.6434C274.231 88.2301 273.029 86.9355 271.698 85.7826C271.352 86.0914 278.299 92.589 280.413 102.829C282.949 115.749 273.086 121.49 259.907 112.919C252.559 107.992 246.573 101.288 242.507 93.4306C240.203 88.6738 238.274 80.509 241.738 76.8834C244.123 74.3234 249.294 72.7778 255.392 75.0754C266.328 79.2434 271.054 86.0034 271.51 85.5794C271.966 85.1554 257.818 69.9634 245.75 73.0434C225.282 78.4258 250.632 118.099 271.098 118.512C281.494 118.791 287.746 106.128 275.282 89.6434Z" fill="#0F0F0F"/>
<path d="M264.871 96.8098C259.563 102.229 260.054 102.023 259.243 101.783C253.206 100 253.323 100.192 253.075 99.7826C252.827 99.3698 252.235 100.28 262.73 89.4946C263.122 89.0914 263.12 89.2498 269.226 90.9986C269.687 91.1298 270.053 91.5154 269.725 91.8482L264.871 96.8098Z" fill="#0F0F0F"/>
<path d="M250.179 96.9442C249.776 96.7202 250.002 96.9842 248.039 90.8002C247.77 89.9522 247.703 90.3362 252.559 85.4082C253.783 84.165 257.679 80.1042 257.839 80.0802C258.639 79.949 258.386 79.9778 260.378 86.2306C260.645 87.0706 260.698 86.6434 255.475 91.981C255.306 91.8226 250.72 97.245 250.179 96.9442Z" fill="#0F0F0F"/>
<path d="M267.426 99.2001L272.253 94.2705C272.531 93.9697 272.934 94.2993 273.067 94.7313C274.987 100.954 275.099 100.869 274.75 101.224C264.155 111.966 265.016 111.304 264.642 111.101C264.238 110.877 264.454 111.155 262.477 104.87C262.245 104.134 262.085 104.595 267.395 99.1697L267.426 99.2001Z" fill="#0F0F0F"/>
<path d="M92.6129 195.795C98.3889 198.919 119.531 203.243 127.126 201.258C159.259 192.855 164.726 139.187 144.418 127.978C141.538 126.394 139.544 126.163 134.147 125.098C125.688 123.418 116.626 121.738 108.818 124.138C77.9697 133.551 70.4273 183.795 92.6129 195.795Z" fill="#FDFE1F"/>
<path d="M138.411 124.934C125.562 122.384 114.168 119.456 102.803 125.574C77.0882 138.728 71.4882 180.946 88.8178 194.488C94.3298 199.629 115.467 203.138 123.915 202.712C157.936 200.979 171.619 131.68 138.411 124.936V124.934ZM153.823 157.91C146.45 158.605 147.727 157.506 143.28 156.89C143.904 151.803 143.688 146.647 142.64 141.63C147.819 141.174 147 141.294 151.805 142.512C153.409 147.479 154.092 152.698 153.823 157.91ZM150.88 140C145.583 140.512 146.178 139.856 141.883 138.934C140.603 134.555 138.074 130.644 134.605 127.68C140.063 128.813 146.4 128.995 150.88 140ZM90.6882 192.054C74.8706 180.054 79.1682 140.667 104.194 128.318C112.282 124.082 119.76 124.8 129.304 126.602C146.824 135.12 142.723 164.362 132.882 181.322C127.195 190.974 120.136 196.715 108.81 198.024C104.52 197.28 93.8898 195.04 90.693 192.051L90.6882 192.054ZM114.528 198.845C118.901 197.717 122.969 195.634 126.44 192.746C130.109 193.214 130.938 192.062 136.36 194.074C128.36 199.888 122.647 199.71 114.541 198.842L114.528 198.845ZM138.797 192.11C133.723 191.712 134.528 192.534 128.786 190.51C132.063 186.839 134.849 182.757 137.074 178.366C138.207 178.483 138.319 178.226 143.634 178.226C145.2 178.478 146.746 178.842 148.259 179.315C145.987 184.162 142.775 188.51 138.81 192.107L138.797 192.11ZM149.395 176.826C141.44 177.053 145.163 177.306 138.242 175.666C140.439 170.571 141.998 165.223 142.882 159.746C146.815 159.851 146.528 158.555 153.629 160.317C153.051 165.998 151.629 171.561 149.408 176.822L149.395 176.826Z" fill="#0F0F0F"/>
<path d="M119.583 188.334C134.491 172.739 141.487 146.366 129.183 133.013C121.258 124.338 101.895 127.029 92.0882 149.506C91.1041 151.572 90.4106 153.764 90.0274 156.021C90.629 156.222 93.0834 145.002 104.003 135.552C112.099 128.698 126.243 126.896 131.543 140.84C135.987 152.619 131.104 169.101 123.063 180.477C118.563 186.726 113.384 193.155 105.08 192.282C92.365 190.942 87.4802 176.312 88.893 163.034C89.397 158.726 90.117 156.402 89.9218 156.346C89.4754 156.214 84.8114 168.954 89.6194 181.485C94.6738 194.533 109.21 199.13 119.583 188.334Z" fill="#0F0F0F"/>
<path d="M120.213 53.2063C123.103 52.3051 125.664 50.5716 127.575 48.2226C129.485 45.8736 130.66 43.0135 130.954 39.9999C131.026 39.1055 131.094 38.0559 131.846 37.5647C135.366 47.4623 137.315 47.4527 146.301 50.4767C144.37 52.7775 139.202 50.2591 133.808 66.3807C129.994 53.8815 123.317 55.1391 120.213 53.2063Z" fill="white"/>
<path d="M141.422 48.1504C138.154 46.9008 135.352 44.7904 133.482 39.5104C132.362 36.2864 131.805 33.4528 131.334 33.5152C130.866 33.5312 130.725 36.4864 130.096 39.9792C127.891 52.6192 117.901 52.2224 118.134 53.5152C118.118 54.5552 128.202 53.5312 132.002 64.048C133.184 67.248 133.661 70.0304 134.128 69.9792C135.648 69.9792 133.376 57.0672 145.678 51.5792C148.68 50.2304 147.71 50.4432 141.422 48.1504ZM141.058 52.4576C137.303 55.5662 134.759 59.8949 133.87 64.688C132.27 59.0336 127.845 54.128 122.03 53.1936C126.018 51.9664 130.272 47.7856 131.646 40.2608C131.85 39.1328 131.686 39.1696 131.987 40.0368C134 45.7232 137.154 48.2176 140.85 49.6256C146.731 51.7568 145.248 49.2992 141.058 52.4576Z" fill="#0F0F0F"/>
<path d="M219.592 17.9825C220.152 15.9569 220.59 13.8977 220.904 11.8193C221.704 12.2769 221.421 13.7665 223.317 16.8337C226.213 21.5169 229.037 20.5825 232.014 22.2913C225.101 25.3953 225.787 27.1201 222.907 34.0369C222.803 34.2849 222.643 34.2433 222.528 34.0369C221.627 32.3537 221.989 29.3185 217.85 26.5745C214.294 24.2177 212.39 24.9745 213.102 23.9409C213.44 23.4513 217.998 22.3233 219.592 17.9825Z" fill="white"/>
<path d="M228.442 20.4801C226.995 19.9536 225.697 19.0872 224.655 17.9539C223.614 16.8206 222.86 15.4536 222.458 13.9681C221.598 11.5041 221.234 9.44967 220.893 9.45607C219.872 9.47527 221.373 18.3665 215.315 22.2721C213.114 23.7841 210.87 24.0945 210.995 24.4705C211.107 25.3137 218.531 24.2945 221.438 32.3393C222.328 34.7505 222.662 36.8289 222.987 36.8033C223.712 36.7473 223.222 28.8817 228.872 24.5729C232.872 21.5585 235.629 23.0913 228.442 20.4801ZM222.803 33.0513C222.362 31.2368 221.507 29.5493 220.304 28.121C219.101 26.6928 217.583 25.5626 215.87 24.8193C212.901 23.6001 213.176 25.0257 215.915 23.1825C217.435 22.0689 218.696 20.639 219.61 18.9914C220.524 17.3438 221.071 15.5175 221.211 13.6385C221.743 15.9417 222.989 18.0184 224.77 19.5726C226.551 21.1268 228.777 22.0793 231.131 22.2945C226.72 23.4017 223.568 28.6305 222.803 33.0433V33.0513Z" fill="#0F0F0F"/>
<path d="M217.76 209.563C239.256 220.973 271.131 190.814 259.061 162.168C255.4 153.478 238.607 140.763 235.975 139.171C216.439 127.306 179.015 158.109 193.194 187.84C196.175 194.08 211.738 206.363 217.76 209.563Z" fill="#FDFE1F"/>
<path d="M261.21 165.061C257.85 155.827 253.621 151.861 242.694 143.058C238.466 139.778 235.566 136.453 228.454 135.794C206.434 134.122 180.531 161.296 191.894 187.336C195.286 194.779 208.106 204.534 214.965 209.048C238.4 223.587 270.301 192.922 261.21 165.061ZM239.92 144.83C235.907 143.956 231.733 144.17 227.83 145.451C224.778 143.029 224.386 143.736 221.379 139.531C231.598 137.312 235.771 141.536 239.92 144.83ZM218.885 140.19C222.885 143.101 222.395 142.318 225.343 146.366C221.269 148.121 217.543 150.593 214.341 153.662C211.581 151.067 211.151 152.429 206.877 146.499C210.432 143.639 214.508 141.496 218.88 140.189H218.885V140.19ZM205.181 147.946C211.354 152.445 209.522 152.266 212.48 155.512C209.233 158.9 206.48 162.728 204.302 166.885C197.853 162.035 201.165 165.203 196.334 159.32C198.622 155.057 201.613 151.211 205.181 147.944V147.946ZM195.221 161.566C196.544 162.427 197.813 163.37 199.021 164.387C201.24 166.582 202.752 169.56 203.229 169.085C201.394 172.923 200.221 177.044 199.76 181.274C194.81 178.278 196.4 178.899 192.24 174.773C192.262 170.206 193.28 165.699 195.221 161.565V161.566ZM200.16 193.12C196.16 188.93 193.347 185.6 192.413 177.744C197.102 180.474 197.434 182.282 199.654 184.294C199.949 193.797 205.814 198.941 200.16 193.12ZM260.088 178.046C258.365 200.261 236.282 213.786 222.254 209.432C217.584 208.069 210.622 202.515 206.91 199.39C199.445 188.67 200.339 178.299 206.725 166.723C214.707 152.898 229.746 141.37 244.203 148.258C254.216 156.448 261.003 163.658 260.095 178.046H260.088Z" fill="#0F0F0F"/>
<path d="M246.965 154.352C240.77 149.723 229.762 149.747 219.562 159.594C208.322 170.496 205.149 187.872 208.403 195.293C213.432 207.059 231.861 210.221 244.573 196.795C245.835 195.463 248.467 192.053 248.207 191.867C247.685 191.477 242.307 201.163 229.807 203.651C221.851 205.215 213.085 201.731 210.17 194.541C205.48 183.456 216.506 157.391 233.37 153.818C247.13 150.851 260.074 165.067 251.023 186.189C249.656 189.328 246.877 193.939 249.423 190.427C257.2 179.68 258.471 162.818 246.965 154.352Z" fill="#0F0F0F"/>
<path d="M208.35 163.275C227.165 149.467 220.602 103.179 190.059 93.1824C181.926 90.52 173.338 92.2544 164.365 94.0384C159.69 94.968 155.824 95.4192 152.232 98.16C146.686 102.39 143.896 110.352 142.646 117.187C138.917 137.555 150.997 165.269 171.368 170.205C179.36 172.141 201.779 168.098 208.35 163.275Z" fill="#FDFE1F"/>
<path d="M188.454 91.696C178.384 89.1504 157.856 94.256 155.768 95.056C142.206 100.429 139.078 121.746 142.373 136.517C147.237 158.202 161.192 169.626 172.293 171.414C180.054 172.787 203.909 168.835 209.688 163.443C227.68 149.394 221.6 101.086 188.454 91.696ZM163.909 96.6256C160.438 99.5911 157.907 103.503 156.622 107.883C152.443 108.782 152.894 109.466 147.624 108.95C151.976 98.296 157.816 97.896 163.909 96.6256ZM146.72 111.466C151.459 110.266 150.744 110.138 155.886 110.584C154.837 115.6 154.618 120.755 155.238 125.842C150.624 126.482 152.104 127.57 144.698 126.862C144.43 121.65 145.115 116.432 146.72 111.466ZM144.862 129.267C152.008 127.507 151.634 128.803 155.611 128.693C156.493 134.172 158.052 139.521 160.251 144.616C153.582 146.208 157.106 146.016 149.096 145.774C146.873 140.513 145.446 134.949 144.862 129.267ZM150.24 148.267C151.754 147.797 153.3 147.433 154.866 147.179C157.635 147.179 161.426 147.318 161.426 147.318C161.339 146.176 163.461 152.901 169.714 159.461C163.942 161.486 164.87 160.648 159.701 161.061C155.732 157.464 152.517 153.115 150.24 148.267ZM178.754 168.19C174.302 168.373 169.504 168.392 162.139 163.019C167.483 161.035 168.55 162.141 172.059 161.694C180.461 168.902 190.131 167.691 178.755 168.19H178.754ZM207.816 161.003C204.616 163.995 194.022 166.224 189.707 166.982C178.333 165.669 171.29 159.89 165.627 150.28C155.765 133.269 151.707 104.059 169.211 95.56C178.76 93.7616 186.242 93.0464 194.312 97.2736C219.862 109.872 223.147 149.368 207.818 161.003H207.816Z" fill="#0F0F0F"/>
<path d="M209.28 126.93C205.936 116.864 217.069 148.76 199.698 159.072C197.766 160.321 195.554 161.069 193.261 161.251C190.968 161.432 188.666 161.04 186.562 160.11C178.722 156.949 170.331 142.51 167.682 134.298C155.738 97.6417 188.549 85.4897 205.624 118.838C207.421 122.387 209.44 127.83 208.154 123.23C205.84 115.563 201.491 108.667 195.568 103.277C186.706 95.3537 170.949 93.6673 164.936 109.005C157.597 127.979 173.182 156.93 185.747 162.053C201.784 168.8 216.488 148.605 209.28 126.93Z" fill="#0F0F0F"/>
<path d="M191.262 127.624C190.065 126.92 190.08 127.277 190.681 126.749C191.881 125.624 192.753 124.196 193.207 122.616C193.66 121.036 193.678 119.362 193.257 117.773C192.837 116.184 191.993 114.738 190.817 113.589C189.641 112.44 188.176 111.631 186.577 111.248C186.449 108.189 184.557 106.288 184.009 106.624C183.48 106.931 183.891 108.581 184.293 110.486C184.453 111.242 184.723 110.694 181.389 110.822C180.697 105.64 178.158 105.746 179.227 111.014C178.342 111.291 177.478 111.63 176.64 112.027C177.374 115.846 180.134 123.91 181.44 130.435C181.44 130.595 183.84 146.062 184.883 149.347C187.296 148.606 186.861 148.699 187.312 148.723C187.907 152.656 191.448 155.322 189.51 148.723C190.605 148.686 191.692 148.525 192.75 148.243C194.174 154.76 196.187 151.859 194.765 147.456C202.854 143.2 198.008 131.8 191.262 127.624ZM181.419 114.824C186.059 113.704 189.118 113.603 191.261 117.89C191.686 119.071 191.667 120.366 191.206 121.534C190.746 122.701 189.875 123.661 188.758 124.234C186.813 125.074 184.735 125.565 182.619 125.685C182.12 121.898 181.773 117.933 181.419 114.832V114.824ZM187.766 144.48C185.988 139.964 184.53 135.329 183.401 130.608C185.514 129.976 187.759 129.932 189.894 130.48C197.526 133.325 201.771 146.582 187.766 144.48Z" fill="#0F0F0F"/>
<path d="M201.92 103.979C194.72 107.543 203.04 102.234 207.4 114.287C207.982 113.506 207.95 106.895 214.76 104.056C214.454 103.135 211.181 103.328 209.045 101.213C207.765 99.6044 206.734 97.8126 205.987 95.8977C205.309 99.0849 203.963 103.682 200.739 104.594L201.92 103.979Z" fill="white"/>
<path d="M212.106 102.41C204.618 99.5489 206.814 86.9585 204.944 97.3265C203.563 105.237 197.344 104.925 197.499 105.816C197.49 106.674 203.709 105.709 206.139 112.429C206.448 113.709 206.901 114.947 207.49 116.125C208.29 116.307 207.706 109.63 212.486 105.982C215.68 103.52 218.122 104.602 212.106 102.41ZM207.347 112.611C206.943 111.155 206.216 109.807 205.222 108.669C204.227 107.53 202.989 106.63 201.6 106.034C199.538 105.187 199.723 106.122 201.654 104.824C202.883 103.932 203.91 102.791 204.669 101.476C205.428 100.162 205.903 98.702 206.062 97.1921C206.542 98.9953 207.554 100.612 208.966 101.832C210.378 103.051 212.125 103.817 213.979 104.029C210.56 105.03 208.08 109.064 207.347 112.611Z" fill="#0F0F0F"/>
<path d="M81.0864 128.93C81.0864 128.93 65.8192 127.13 63.5856 142.675C61.352 158.221 56.5632 246.035 56.5632 246.035C56.5632 246.035 54.9072 272.256 60.7232 274.995C66.5392 277.735 96.48 278.775 96.48 278.775C159.787 279.461 143.597 278.384 170.987 283.056C223.371 299.677 241.107 306.871 246.818 301.16C253.426 294.552 255.469 267.488 264.898 196.591C264.898 196.591 272.141 159.355 256.664 155.331C256.664 155.331 260.766 161.45 253.112 163.93C245.458 166.41 195.866 177.45 160.507 170.33C125.149 163.21 84.9456 154.829 75.0784 138.602C75.08 138.6 69.9344 131.031 81.0864 128.93Z" fill="#FFC5F6"/>
<path d="M252.848 152L252.147 154.349C279.229 164.403 190.827 180.394 122.093 159.933C110.861 156.589 83.1807 147.719 76.9055 137.898C76.3971 137.235 76.0704 136.452 75.9576 135.624C75.8447 134.797 75.9498 133.954 76.2623 133.18C76.5748 132.405 77.0839 131.726 77.7394 131.208C78.3949 130.691 79.1741 130.353 79.9999 130.229C84.5647 129.146 91.3439 131.848 95.8767 133.085L96.5167 130.72C90.1695 128.8 81.6367 124.864 75.9807 128.912C74.3544 130.101 73.2601 131.881 72.9339 133.869C72.6077 135.857 73.0756 137.893 74.2367 139.539C81.0991 150.635 108.522 159.699 121.026 163.493C175.306 179.999 258.626 174.506 259.381 158.099C259.581 153.667 255.87 152.935 252.848 152Z" fill="#0F0F0F"/>
<path fill-rule="evenodd" clip-rule="evenodd" d="M63.7345 169.143L63.5905 171.296C63.5712 171.723 63.7198 172.14 64.0045 172.459C64.2892 172.777 64.6874 172.972 65.1136 173C65.5399 173.029 65.9604 172.889 66.2849 172.611C66.6094 172.333 66.8122 171.939 66.8497 171.514L66.9953 169.362C67.0244 168.929 66.8805 168.503 66.5953 168.177C66.3101 167.851 65.907 167.651 65.4745 167.622C65.0421 167.593 64.6159 167.737 64.2896 168.022C63.9633 168.307 63.7636 168.71 63.7345 169.143Z" fill="#0F0F0F"/>
<path fill-rule="evenodd" clip-rule="evenodd" d="M64.4384 159.423L64.2784 161.575C64.2634 161.891 64.3411 162.206 64.5018 162.479C64.6626 162.752 64.8995 162.973 65.1837 163.114C65.4678 163.255 65.7868 163.31 66.1017 163.272C66.4166 163.235 66.7138 163.106 66.9568 162.903C67.2835 162.632 67.4918 162.244 67.5376 161.823L67.6976 159.671C67.7159 159.247 67.5686 158.832 67.2869 158.515C67.0052 158.197 66.6111 158.002 66.188 157.97C65.7649 157.938 65.3458 158.071 65.0193 158.342C64.6929 158.613 64.4846 159.001 64.4384 159.423Z" fill="#0F0F0F"/>
<path fill-rule="evenodd" clip-rule="evenodd" d="M67.0065 148.253C66.5753 148.216 66.1468 148.35 65.8144 148.627C65.482 148.905 65.2727 149.302 65.2321 149.733C65.0721 151.506 64.6177 153.498 66.5377 153.658C66.9675 153.69 67.3927 153.552 67.7219 153.274C68.051 152.995 68.2578 152.599 68.2977 152.17C68.4513 150.41 68.9185 148.426 67.0065 148.253Z" fill="#0F0F0F"/>
<path fill-rule="evenodd" clip-rule="evenodd" d="M61.9633 198.328L61.8417 200.482C61.8355 200.904 61.9925 201.312 62.2801 201.62C62.5676 201.929 62.9634 202.115 63.3847 202.139C63.8059 202.162 64.2201 202.022 64.5405 201.748C64.861 201.473 65.0629 201.086 65.1041 200.666L65.2257 198.514C65.2325 198.092 65.0758 197.683 64.7883 197.374C64.5009 197.065 64.1051 196.879 63.6836 196.855C63.2622 196.831 62.8478 196.971 62.5272 197.245C62.2065 197.52 62.0045 197.908 61.9633 198.328Z" fill="#0F0F0F"/>
<path fill-rule="evenodd" clip-rule="evenodd" d="M62.5201 188.616L62.4001 190.768C62.3787 190.987 62.4018 191.208 62.468 191.418C62.5341 191.628 62.642 191.823 62.7852 191.99C62.9284 192.157 63.1038 192.294 63.3011 192.392C63.4983 192.49 63.7133 192.547 63.9331 192.559C64.1529 192.572 64.373 192.54 64.5802 192.466C64.7874 192.392 64.9774 192.276 65.1389 192.126C65.3004 191.977 65.43 191.796 65.52 191.595C65.61 191.394 65.6584 191.177 65.6625 190.957L65.7825 188.8C65.795 188.586 65.7651 188.371 65.6944 188.168C65.6238 187.966 65.5138 187.779 65.3708 187.619C65.2278 187.459 65.0546 187.328 64.8611 187.235C64.6676 187.142 64.4576 187.089 64.2433 187.077C63.9207 187.058 63.5998 187.136 63.3214 187.3C63.0431 187.464 62.8198 187.707 62.6801 187.999C62.5867 188.192 62.5323 188.402 62.5201 188.616Z" fill="#0F0F0F"/>
<path fill-rule="evenodd" clip-rule="evenodd" d="M63.1008 178.93C62.9888 180.736 62.5568 182.698 64.5008 182.814C64.932 182.836 65.3547 182.688 65.6778 182.402C66.0009 182.116 66.1988 181.714 66.2289 181.283L66.3617 179.131C66.3749 178.917 66.3458 178.703 66.2761 178.5C66.2064 178.297 66.0974 178.11 65.9554 177.949C65.8134 177.788 65.641 177.657 65.4483 177.563C65.2556 177.469 65.0462 177.413 64.8321 177.4C64.6179 177.387 64.4033 177.416 64.2005 177.486C63.9976 177.555 63.8104 177.664 63.6497 177.806C63.325 178.093 63.1276 178.497 63.1008 178.93Z" fill="#0F0F0F"/>
<path fill-rule="evenodd" clip-rule="evenodd" d="M62.0625 225.966C61.6299 225.95 61.2083 226.105 60.8888 226.397C60.5694 226.69 60.3777 227.096 60.3553 227.528C60.2801 229.301 59.9121 231.32 61.8417 231.39C62.2732 231.403 62.6923 231.246 63.0087 230.952C63.3251 230.658 63.5134 230.252 63.5329 229.821C63.6017 228.058 63.9841 226.053 62.0625 225.966Z" fill="#0F0F0F"/>
<path fill-rule="evenodd" clip-rule="evenodd" d="M60.845 217.789L60.7266 219.944C60.705 220.164 60.728 220.385 60.7943 220.596C60.8606 220.806 60.9688 221.001 61.1124 221.169C61.256 221.336 61.432 221.473 61.6298 221.571C61.8276 221.668 62.0432 221.725 62.2635 221.737C62.4838 221.749 62.7042 221.717 62.9116 221.642C63.119 221.566 63.3091 221.45 63.4703 221.299C63.6315 221.149 63.7606 220.967 63.8497 220.765C63.9389 220.563 63.9862 220.346 63.989 220.125L64.109 217.968C64.1205 217.543 63.9653 217.13 63.6765 216.817C63.3878 216.504 62.9884 216.317 62.5634 216.295C62.1393 216.273 61.7234 216.417 61.403 216.695C61.0825 216.974 60.8826 217.366 60.845 217.789Z" fill="#0F0F0F"/>
<path fill-rule="evenodd" clip-rule="evenodd" d="M61.4066 208.106L61.2818 210.258C61.2694 210.472 61.2993 210.687 61.3698 210.889C61.4403 211.092 61.5501 211.279 61.6928 211.439C61.8355 211.599 62.0084 211.73 62.2015 211.823C62.3947 211.916 62.6044 211.971 62.8186 211.983C63.0328 211.996 63.2474 211.966 63.45 211.895C63.6527 211.825 63.8394 211.715 63.9997 211.572C64.1599 211.43 64.2905 211.257 64.3839 211.064C64.4773 210.87 64.5318 210.661 64.5442 210.447L64.669 208.295C64.6869 207.972 64.6092 207.652 64.4455 207.373C64.2818 207.095 64.0395 206.871 63.749 206.73C63.5073 206.611 63.24 206.555 62.9711 206.565C62.7023 206.575 62.4401 206.652 62.2081 206.788C61.976 206.925 61.7814 207.116 61.6415 207.346C61.5017 207.576 61.421 207.837 61.4066 208.106Z" fill="#0F0F0F"/>
<path fill-rule="evenodd" clip-rule="evenodd" d="M59.8736 247.088C59.8736 248.039 59.8736 248.368 59.84 249.168C59.8307 249.594 59.9856 250.006 60.2725 250.321C60.5594 250.635 60.9563 250.827 61.3808 250.856C63.1792 250.957 63.1232 249.151 63.1408 248.189V247.104C63.1432 246.781 63.0493 246.464 62.8712 246.194C62.693 245.924 62.4386 245.712 62.1402 245.587C61.8418 245.462 61.513 245.428 61.1954 245.491C60.8779 245.553 60.586 245.708 60.3568 245.936C60.0496 246.24 59.8768 246.655 59.8736 247.088Z" fill="#0F0F0F"/>
<path fill-rule="evenodd" clip-rule="evenodd" d="M61.7008 235.763C61.2678 235.754 60.8485 235.916 60.534 236.213C60.2195 236.511 60.0351 236.921 60.0208 237.354C59.976 239.127 59.6416 241.157 61.576 241.194C62.0078 241.199 62.4242 241.034 62.7353 240.735C63.0464 240.435 63.2271 240.025 63.2384 239.594C63.2752 237.827 63.6224 235.818 61.7008 235.763Z" fill="#0F0F0F"/>
<path fill-rule="evenodd" clip-rule="evenodd" d="M78.4002 273.327C78.3984 273.76 78.5681 274.178 78.8722 274.487C79.1763 274.797 79.5903 274.973 80.0242 274.979C81.7842 274.991 83.8338 275.288 83.8306 273.352C83.8264 272.921 83.6535 272.509 83.349 272.204C83.0445 271.9 82.6326 271.726 82.2018 271.722C80.4338 271.719 78.4242 271.405 78.4002 273.327Z" fill="#0F0F0F"/>
<path fill-rule="evenodd" clip-rule="evenodd" d="M68.0144 272.32C67.933 272.746 68.0229 273.186 68.2648 273.546C68.5066 273.906 68.8807 274.155 69.3056 274.24C71.0384 274.578 72.9856 275.248 73.3456 273.344C73.4209 272.92 73.327 272.484 73.0841 272.128C72.8413 271.772 72.4687 271.526 72.0464 271.442C70.3088 271.109 68.392 270.427 68.0144 272.32Z" fill="#0F0F0F"/>
<path fill-rule="evenodd" clip-rule="evenodd" d="M61.8354 265.21C60.1506 266.122 61.2274 267.987 62.3618 269.538C62.5613 269.807 62.836 270.011 63.1514 270.124C63.4667 270.238 63.8085 270.255 64.1337 270.174C64.4589 270.094 64.753 269.919 64.9789 269.671C65.2049 269.424 65.3525 269.115 65.4034 268.784C65.4706 268.339 65.3584 267.886 65.0914 267.523C64.3202 266.49 63.661 264.223 61.8354 265.21Z" fill="#0F0F0F"/>
<path fill-rule="evenodd" clip-rule="evenodd" d="M61.3233 255.058C59.4033 255.035 59.4433 257.191 59.6817 259.096C59.7581 259.525 59.9969 259.909 60.3486 260.167C60.7002 260.425 61.1377 260.537 61.5701 260.481C62.0025 260.425 62.3966 260.204 62.6707 259.865C62.9447 259.526 63.0776 259.094 63.0417 258.659C62.8689 257.379 63.3985 255.08 61.3233 255.058Z" fill="#0F0F0F"/>
<path fill-rule="evenodd" clip-rule="evenodd" d="M109.29 274.575C111.058 274.546 113.074 274.813 113.05 272.885C113.042 272.451 112.864 272.038 112.552 271.735C112.241 271.433 111.823 271.267 111.389 271.272L109.237 271.307C109.022 271.31 108.81 271.356 108.613 271.441C108.416 271.526 108.237 271.649 108.088 271.804C107.939 271.958 107.822 272.14 107.743 272.34C107.664 272.54 107.626 272.753 107.63 272.968C107.638 273.401 107.818 273.813 108.128 274.114C108.439 274.415 108.857 274.58 109.29 274.575Z" fill="#0F0F0F"/>
<path fill-rule="evenodd" clip-rule="evenodd" d="M99.573 274.766L101.728 274.722C102.161 274.713 102.573 274.532 102.873 274.219C103.173 273.907 103.337 273.488 103.328 273.054C103.319 272.621 103.139 272.209 102.826 271.909C102.513 271.609 102.094 271.446 101.661 271.454L99.5058 271.499C99.073 271.51 98.662 271.691 98.3623 272.003C98.0625 272.316 97.8984 272.734 97.9058 273.166C97.915 273.6 98.0958 274.011 98.4083 274.311C98.7209 274.611 99.1398 274.775 99.573 274.766Z" fill="#0F0F0F"/>
<path fill-rule="evenodd" clip-rule="evenodd" d="M88.2082 273.323C88.2137 273.757 88.3907 274.17 88.7004 274.474C89.0102 274.777 89.4275 274.945 89.861 274.941C91.621 274.919 93.6674 275.186 93.6338 273.248C93.6212 272.817 93.4403 272.408 93.1298 272.109C92.8194 271.81 92.4041 271.645 91.973 271.648C90.2082 271.671 88.1874 271.402 88.2082 273.323Z" fill="#0F0F0F"/>
<path fill-rule="evenodd" clip-rule="evenodd" d="M136.8 273.253C136.779 273.683 136.928 274.104 137.214 274.425C137.5 274.747 137.902 274.943 138.331 274.971C140.059 275.074 142.058 275.515 142.202 273.6C142.233 273.165 142.09 272.736 141.804 272.406C141.519 272.076 141.115 271.872 140.68 271.84C138.96 271.73 136.907 271.312 136.8 273.253Z" fill="#0F0F0F"/>
<path fill-rule="evenodd" clip-rule="evenodd" d="M127.099 272.903C127.063 274.864 129.112 274.568 130.823 274.624C131.253 274.632 131.669 274.473 131.984 274.18C132.299 273.888 132.489 273.484 132.512 273.055C132.579 271.282 130.775 271.351 129.853 271.328C128.879 271.307 127.135 271.085 127.099 272.903Z" fill="#0F0F0F"/>
<path fill-rule="evenodd" clip-rule="evenodd" d="M117.418 272.843C117.424 273.275 117.599 273.687 117.905 273.99C118.211 274.294 118.625 274.465 119.056 274.467H121.194C121.627 274.469 122.043 274.299 122.351 273.994C122.659 273.689 122.833 273.274 122.835 272.841C122.836 272.408 122.666 271.992 122.361 271.684C122.056 271.376 121.641 271.202 121.208 271.2C119.52 271.2 117.407 270.88 117.418 272.843Z" fill="#0F0F0F"/>
<path fill-rule="evenodd" clip-rule="evenodd" d="M165.685 276.875C165.597 277.294 165.677 277.731 165.906 278.092C166.135 278.454 166.496 278.712 166.912 278.811C168.597 279.195 170.466 279.973 170.943 278.12C171.023 277.804 171.007 277.471 170.897 277.164C170.787 276.857 170.588 276.59 170.325 276.397C170.151 276.269 169.954 276.176 169.744 276.123C168.048 275.709 166.095 274.975 165.685 276.875Z" fill="#0F0F0F"/>
<path fill-rule="evenodd" clip-rule="evenodd" d="M156.147 275.138C156.087 275.562 156.195 275.994 156.448 276.34C156.701 276.686 157.08 276.92 157.503 276.991C159.21 277.264 161.13 277.914 161.48 276.031C161.518 275.818 161.514 275.599 161.468 275.388C161.422 275.177 161.334 274.977 161.211 274.799C161.087 274.622 160.93 274.47 160.747 274.354C160.565 274.237 160.362 274.158 160.149 274.12C158.432 273.821 156.435 273.215 156.147 275.138Z" fill="#0F0F0F"/>
<path fill-rule="evenodd" clip-rule="evenodd" d="M146.551 273.97C146.514 274.398 146.645 274.823 146.917 275.155C147.189 275.488 147.58 275.701 148.007 275.749C149.73 275.928 151.687 276.463 151.928 274.56C151.978 274.127 151.855 273.692 151.585 273.35C151.315 273.008 150.921 272.787 150.488 272.735C148.749 272.533 146.735 272.04 146.551 273.97Z" fill="#0F0F0F"/>
<path fill-rule="evenodd" clip-rule="evenodd" d="M194.629 287.336C196.346 287.907 198.131 288.827 198.743 286.981C198.876 286.57 198.842 286.123 198.648 285.737C198.454 285.351 198.116 285.056 197.707 284.917L195.661 284.235C195.25 284.1 194.801 284.133 194.414 284.327C194.027 284.521 193.732 284.86 193.594 285.271C193.458 285.682 193.491 286.13 193.685 286.517C193.879 286.904 194.218 287.199 194.629 287.336Z" fill="#0F0F0F"/>
<path fill-rule="evenodd" clip-rule="evenodd" d="M185.403 284.267L187.448 284.946C187.855 285.066 188.292 285.023 188.668 284.826C189.044 284.629 189.329 284.294 189.462 283.892C189.596 283.489 189.568 283.051 189.384 282.668C189.2 282.286 188.875 281.99 188.477 281.843L186.432 281.167C186.126 281.067 185.798 281.06 185.488 281.147C185.178 281.234 184.901 281.41 184.691 281.654C184.482 281.898 184.349 282.199 184.31 282.518C184.27 282.837 184.326 283.161 184.471 283.448C184.661 283.834 184.997 284.128 185.403 284.267Z" fill="#0F0F0F"/>
<path fill-rule="evenodd" clip-rule="evenodd" d="M175.142 279.274C174.597 281.143 176.616 281.4 178.258 281.927C178.669 282.051 179.112 282.011 179.494 281.815C179.878 281.619 180.17 281.282 180.309 280.875C180.858 279.184 179.086 278.755 178.229 278.491C177.29 278.207 175.656 277.515 175.142 279.274Z" fill="#0F0F0F"/>
<path fill-rule="evenodd" clip-rule="evenodd" d="M221.475 294.067C221.359 294.485 221.413 294.932 221.626 295.31C221.838 295.689 222.191 295.968 222.608 296.086C223.786 296.406 224.875 296.706 224.712 296.662C224.919 296.718 225.136 296.733 225.348 296.705C225.561 296.677 225.767 296.608 225.953 296.5C226.138 296.393 226.301 296.25 226.432 296.08C226.563 295.909 226.658 295.715 226.714 295.507C226.825 295.089 226.766 294.643 226.549 294.268C226.333 293.893 225.976 293.619 225.558 293.506C223.942 293.074 222.008 292.184 221.475 294.067Z" fill="#0F0F0F"/>
<path fill-rule="evenodd" clip-rule="evenodd" d="M212.141 291.298C211.563 293.16 213.57 293.447 215.296 293.971C215.606 294.068 215.939 294.068 216.249 293.973C216.56 293.878 216.835 293.692 217.038 293.439C217.174 293.271 217.275 293.079 217.336 292.871C217.843 291.159 216.019 290.775 215.21 290.531C214.258 290.24 212.672 289.578 212.141 291.298Z" fill="#0F0F0F"/>
<path fill-rule="evenodd" clip-rule="evenodd" d="M202.898 288.347C202.766 288.76 202.802 289.208 202.998 289.594C203.194 289.98 203.535 290.273 203.946 290.41C205.63 290.955 207.475 291.858 208.061 290.016C208.189 289.603 208.15 289.157 207.952 288.773C207.753 288.389 207.412 288.098 207.002 287.963C205.331 287.426 203.498 286.514 202.898 288.347Z" fill="#0F0F0F"/>
<path fill-rule="evenodd" clip-rule="evenodd" d="M245.723 289.312C246.053 289.544 246.457 289.643 246.857 289.592C247.256 289.54 247.622 289.341 247.882 289.034C248.056 288.832 248.177 288.589 248.232 288.328C248.37 287.699 248.552 286.768 248.672 286.134C248.729 285.72 248.625 285.3 248.38 284.96C248.136 284.621 247.771 284.389 247.36 284.311C246.949 284.233 246.524 284.316 246.173 284.543C245.821 284.77 245.57 285.123 245.472 285.53C245.058 287.728 244.653 288.575 245.723 289.312Z" fill="#0F0F0F"/>
<path fill-rule="evenodd" clip-rule="evenodd" d="M240.683 297.349C241.786 299.442 243.607 298.106 245.026 296.229C245.289 295.871 245.404 295.426 245.347 294.985C245.29 294.545 245.066 294.143 244.72 293.864C244.373 293.587 243.933 293.454 243.49 293.493C243.048 293.532 242.637 293.74 242.344 294.074C241.53 295.04 239.854 295.776 240.683 297.349Z" fill="#0F0F0F"/>
<path fill-rule="evenodd" clip-rule="evenodd" d="M231.066 296.96C231.055 298.645 232.704 298.655 234.371 299.018C234.643 299.081 234.927 299.071 235.194 298.989C235.461 298.907 235.701 298.757 235.891 298.552C236.082 298.349 236.217 298.1 236.281 297.828C236.346 297.557 236.338 297.274 236.259 297.007C236.003 296.114 235.565 296.01 233.53 295.525L233.05 295.41C232.814 295.352 232.569 295.348 232.332 295.399C232.095 295.45 231.872 295.554 231.681 295.703C231.49 295.852 231.335 296.043 231.229 296.261C231.122 296.479 231.066 296.718 231.066 296.96Z" fill="#0F0F0F"/>
<path fill-rule="evenodd" clip-rule="evenodd" d="M251.478 260.718C251.905 260.787 252.342 260.684 252.694 260.432C253.045 260.18 253.283 259.799 253.355 259.373C253.645 257.626 254.259 255.67 252.352 255.373C251.925 255.309 251.489 255.414 251.139 255.668C250.789 255.921 250.552 256.302 250.48 256.728C250.203 258.427 249.566 260.403 251.478 260.718Z" fill="#0F0F0F"/>
<path fill-rule="evenodd" clip-rule="evenodd" d="M251.746 268.979L252.109 266.851C252.145 266.64 252.139 266.423 252.092 266.214C252.044 266.005 251.956 265.807 251.832 265.632C251.708 265.457 251.551 265.308 251.369 265.194C251.188 265.079 250.985 265.002 250.774 264.966C250.562 264.93 250.346 264.935 250.137 264.983C249.927 265.031 249.73 265.119 249.554 265.243C249.379 265.367 249.23 265.524 249.116 265.706C249.002 265.887 248.924 266.089 248.888 266.301L248.525 268.427C248.452 268.854 248.551 269.293 248.801 269.647C249.052 270.001 249.432 270.241 249.859 270.314C250.286 270.387 250.725 270.287 251.079 270.037C251.433 269.787 251.673 269.406 251.746 268.979Z" fill="#0F0F0F"/>
<path fill-rule="evenodd" clip-rule="evenodd" d="M250.067 278.543L250.445 276.418C250.504 275.999 250.398 275.573 250.149 275.23C249.901 274.888 249.529 274.655 249.112 274.581C248.695 274.507 248.266 274.597 247.915 274.833C247.563 275.068 247.317 275.431 247.227 275.845L246.85 277.97C246.775 278.396 246.872 278.835 247.12 279.19C247.367 279.545 247.745 279.788 248.171 279.866C248.598 279.941 249.037 279.844 249.393 279.596C249.748 279.348 249.991 278.969 250.067 278.543Z" fill="#0F0F0F"/>
<path fill-rule="evenodd" clip-rule="evenodd" d="M257.778 230.448L258.082 228.312C258.132 227.888 258.015 227.461 257.756 227.122C257.496 226.783 257.114 226.559 256.691 226.498C256.268 226.438 255.839 226.545 255.494 226.798C255.15 227.051 254.918 227.428 254.848 227.85L254.542 229.986C254.512 230.198 254.523 230.415 254.576 230.623C254.629 230.831 254.723 231.026 254.851 231.198C254.98 231.37 255.142 231.515 255.326 231.624C255.511 231.733 255.716 231.805 255.928 231.835C256.357 231.895 256.792 231.783 257.139 231.523C257.485 231.263 257.715 230.877 257.778 230.448Z" fill="#0F0F0F"/>
<path fill-rule="evenodd" clip-rule="evenodd" d="M256.371 240.083L256.691 237.949C256.754 237.521 256.645 237.085 256.387 236.736C256.195 236.476 255.93 236.279 255.626 236.169C255.322 236.06 254.992 236.044 254.678 236.122C254.364 236.201 254.081 236.371 253.864 236.61C253.647 236.85 253.506 237.149 253.459 237.469L253.139 239.603C253.108 239.816 253.118 240.032 253.17 240.24C253.223 240.448 253.315 240.644 253.443 240.816C253.571 240.989 253.731 241.134 253.915 241.245C254.099 241.355 254.303 241.428 254.515 241.459C254.728 241.491 254.944 241.48 255.152 241.428C255.36 241.376 255.556 241.284 255.728 241.156C255.901 241.028 256.046 240.868 256.156 240.684C256.267 240.5 256.34 240.296 256.371 240.083Z" fill="#0F0F0F"/>
<path fill-rule="evenodd" clip-rule="evenodd" d="M253.04 251.04C253.469 251.106 253.906 251 254.256 250.744C254.606 250.489 254.841 250.105 254.909 249.677C255.181 247.928 255.773 245.971 253.869 245.677C253.441 245.615 253.006 245.724 252.658 245.98C252.309 246.236 252.076 246.618 252.007 247.045C251.739 248.8 251.141 250.746 253.04 251.04Z" fill="#0F0F0F"/>
<path fill-rule="evenodd" clip-rule="evenodd" d="M261.677 201.458C261.904 199.664 262.461 197.735 260.53 197.493C260.1 197.442 259.668 197.562 259.327 197.827C258.986 198.092 258.762 198.481 258.706 198.909L258.435 201.048C258.381 201.478 258.5 201.912 258.765 202.254C259.031 202.597 259.421 202.82 259.851 202.874C260.281 202.928 260.715 202.81 261.057 202.544C261.4 202.278 261.623 201.888 261.677 201.458Z" fill="#0F0F0F"/>
<path fill-rule="evenodd" clip-rule="evenodd" d="M260.431 211.114C260.664 209.32 261.231 207.394 259.299 207.143C258.87 207.091 258.438 207.21 258.096 207.473C257.754 207.737 257.529 208.124 257.469 208.552L257.191 210.69C257.153 211.11 257.28 211.529 257.544 211.858C257.808 212.187 258.189 212.402 258.607 212.456C259.026 212.511 259.449 212.402 259.789 212.152C260.129 211.902 260.359 211.53 260.431 211.114Z" fill="#0F0F0F"/>
<path fill-rule="evenodd" clip-rule="evenodd" d="M257.296 222.131C257.725 222.188 258.159 222.074 258.504 221.813C258.849 221.552 259.077 221.166 259.139 220.738C259.381 218.978 259.939 217.015 258.03 216.757C257.602 216.703 257.169 216.819 256.825 217.081C256.481 217.344 256.254 217.731 256.194 218.159C255.958 219.904 255.389 221.869 257.296 222.131Z" fill="#0F0F0F"/>
<path fill-rule="evenodd" clip-rule="evenodd" d="M265.176 172.427L265.421 170.285C265.47 169.854 265.346 169.422 265.077 169.083C264.807 168.744 264.414 168.525 263.983 168.476C263.553 168.427 263.12 168.551 262.781 168.82C262.442 169.09 262.224 169.483 262.175 169.914L261.93 172.056C261.881 172.487 262.004 172.919 262.274 173.258C262.544 173.598 262.937 173.816 263.367 173.865C263.798 173.914 264.23 173.79 264.57 173.521C264.909 173.251 265.127 172.858 265.176 172.427Z" fill="#0F0F0F"/>
<path fill-rule="evenodd" clip-rule="evenodd" d="M264.047 182.095C264.259 180.298 264.8 178.365 262.867 178.139C262.438 178.092 262.007 178.216 261.668 178.484C261.328 178.752 261.108 179.143 261.055 179.571L260.8 181.712C260.768 181.929 260.779 182.15 260.834 182.362C260.889 182.574 260.985 182.773 261.118 182.947C261.251 183.121 261.418 183.266 261.608 183.374C261.799 183.483 262.009 183.552 262.226 183.577C262.444 183.603 262.664 183.585 262.874 183.524C263.085 183.462 263.28 183.36 263.45 183.221C263.62 183.083 263.76 182.912 263.863 182.718C263.965 182.525 264.028 182.313 264.047 182.095Z" fill="#0F0F0F"/>
<path fill-rule="evenodd" clip-rule="evenodd" d="M262.888 191.728C263.107 189.933 263.656 188.002 261.723 187.768C261.294 187.721 260.864 187.844 260.524 188.11C260.184 188.376 259.962 188.764 259.906 189.192L259.643 191.333C259.604 191.756 259.731 192.178 259.999 192.509C260.266 192.839 260.652 193.052 261.074 193.103C261.496 193.155 261.921 193.041 262.26 192.784C262.599 192.528 262.825 192.149 262.888 191.728Z" fill="#0F0F0F"/>
<path fill-rule="evenodd" clip-rule="evenodd" d="M161.055 244.544L161.306 241.638C161.336 241.316 161.269 240.992 161.113 240.709C160.957 240.425 160.719 240.195 160.431 240.048C160.192 239.924 159.927 239.861 159.658 239.864C159.39 239.867 159.126 239.937 158.89 240.066C158.655 240.196 158.455 240.381 158.308 240.606C158.162 240.831 158.073 241.089 158.05 241.357L157.799 244.262C157.78 244.476 157.803 244.692 157.868 244.897C157.932 245.102 158.037 245.292 158.175 245.456C158.313 245.621 158.483 245.756 158.673 245.855C158.864 245.954 159.073 246.014 159.287 246.032C159.718 246.069 160.147 245.933 160.479 245.654C160.811 245.375 161.018 244.976 161.056 244.544H161.055Z" fill="#0F0F0F"/>
<path fill-rule="evenodd" clip-rule="evenodd" d="M160.11 255.59L160.355 252.685C160.373 252.471 160.349 252.256 160.284 252.051C160.218 251.847 160.114 251.657 159.975 251.494C159.837 251.33 159.667 251.195 159.477 251.096C159.286 250.998 159.078 250.938 158.864 250.92C158.65 250.902 158.435 250.926 158.231 250.992C158.026 251.057 157.837 251.162 157.673 251.3C157.509 251.439 157.374 251.608 157.276 251.799C157.177 251.989 157.117 252.197 157.099 252.411L156.854 255.315C156.827 255.534 156.844 255.756 156.904 255.968C156.964 256.18 157.067 256.378 157.206 256.549C157.344 256.72 157.516 256.862 157.711 256.965C157.906 257.068 158.119 257.131 158.339 257.15C158.559 257.168 158.78 257.142 158.989 257.073C159.198 257.004 159.392 256.893 159.557 256.748C159.723 256.602 159.857 256.424 159.952 256.226C160.047 256.027 160.101 255.811 160.11 255.59Z" fill="#0F0F0F"/>
<path fill-rule="evenodd" clip-rule="evenodd" d="M157.475 268.098C157.907 268.128 158.332 267.987 158.66 267.705C158.988 267.423 159.191 267.023 159.226 266.592C159.386 264.399 160 262.098 157.946 261.935C157.514 261.903 157.088 262.042 156.758 262.322C156.429 262.603 156.223 263.001 156.186 263.432C156.018 265.632 155.426 267.944 157.475 268.098Z" fill="#0F0F0F"/>
<path fill-rule="evenodd" clip-rule="evenodd" d="M162.019 212.819C162.451 212.849 162.877 212.707 163.204 212.423C163.532 212.14 163.734 211.739 163.766 211.307C163.926 209.107 164.507 206.783 162.448 206.648C162.018 206.623 161.594 206.767 161.269 207.051C160.945 207.335 160.744 207.735 160.712 208.165C160.563 210.368 159.966 212.672 162.019 212.819Z" fill="#0F0F0F"/>
<path fill-rule="evenodd" clip-rule="evenodd" d="M161.171 223.883C161.602 223.914 162.028 223.775 162.357 223.495C162.686 223.216 162.893 222.818 162.931 222.387C163.035 221.107 163.173 219.306 163.162 219.471C163.181 219.046 163.034 218.631 162.752 218.313C162.471 217.996 162.076 217.8 161.653 217.767C161.229 217.735 160.81 217.868 160.483 218.14C160.157 218.411 159.948 218.799 159.902 219.221C159.734 221.418 159.12 223.717 161.171 223.883Z" fill="#0F0F0F"/>
<path fill-rule="evenodd" clip-rule="evenodd" d="M162.015 233.413L162.261 230.506C162.289 230.183 162.221 229.86 162.065 229.576C161.909 229.293 161.672 229.062 161.385 228.913C161.098 228.765 160.773 228.705 160.451 228.741C160.13 228.778 159.826 228.909 159.579 229.119C159.248 229.398 159.042 229.797 159.005 230.229L158.759 233.136C158.74 233.35 158.764 233.565 158.83 233.77C158.895 233.974 158.999 234.164 159.138 234.328C159.276 234.492 159.445 234.627 159.636 234.726C159.826 234.824 160.034 234.884 160.248 234.903C160.462 234.921 160.677 234.897 160.882 234.832C161.086 234.767 161.276 234.662 161.44 234.524C161.604 234.385 161.739 234.216 161.838 234.025C161.936 233.835 161.996 233.627 162.015 233.413Z" fill="#0F0F0F"/>
<path fill-rule="evenodd" clip-rule="evenodd" d="M163.661 179.52C164.093 179.526 164.51 179.361 164.822 179.062C165.133 178.762 165.315 178.352 165.326 177.92C165.349 176.903 165.36 174.813 165.358 174.976C165.362 174.542 165.192 174.125 164.888 173.816C164.583 173.507 164.168 173.331 163.734 173.328C163.301 173.325 162.883 173.494 162.574 173.799C162.265 174.103 162.09 174.518 162.086 174.952V176.405C162.08 177.533 161.803 179.487 163.661 179.52Z" fill="#0F0F0F"/>
<path fill-rule="evenodd" clip-rule="evenodd" d="M163.315 190.619C163.75 190.636 164.173 190.48 164.492 190.185C164.812 189.889 165.001 189.479 165.018 189.045C165.018 188.885 165.122 185.96 165.117 186.122C165.113 185.7 164.947 185.296 164.653 184.994C164.358 184.692 163.958 184.516 163.537 184.501C163.116 184.487 162.705 184.636 162.391 184.918C162.077 185.199 161.883 185.591 161.851 186.011L161.802 187.467C161.76 188.627 161.482 190.542 163.315 190.619Z" fill="#0F0F0F"/>
<path fill-rule="evenodd" clip-rule="evenodd" d="M164.48 200.127L164.64 197.21C164.65 196.785 164.494 196.373 164.206 196.061C163.917 195.749 163.518 195.562 163.094 195.539C162.67 195.516 162.253 195.659 161.933 195.937C161.612 196.216 161.412 196.609 161.376 197.032L161.216 199.947C161.205 200.162 161.235 200.376 161.306 200.579C161.396 200.832 161.546 201.06 161.745 201.241C161.943 201.422 162.183 201.551 162.443 201.618C162.703 201.685 162.975 201.687 163.236 201.623C163.497 201.56 163.739 201.433 163.939 201.255C164.262 200.965 164.456 200.559 164.48 200.127Z" fill="#0F0F0F"/>
<path d="M177.718 197.853C178.518 189.96 181.029 188.658 186.459 188.632C200.443 188.565 225.232 189.315 238.619 193.501C245.57 195.674 243.427 202.239 238.939 250.165C236.198 279.427 232.614 280.973 213.459 277.512C180.946 271.639 171.398 272.997 172.499 257.746C177.771 185.098 174.24 231.973 177.718 197.853Z" fill="white"/>
<path d="M172.264 248.938L174.376 249.128C179.133 194.101 177.4 192.168 182.808 190.533C188.408 188.842 217.152 191.013 230.15 192.872C235.2 193.594 240.099 193.619 240.939 198.735C241.112 201.241 241.054 203.759 240.765 206.255C240.064 226.56 239.986 216.778 238.546 235.074C237.106 253.4 237.387 251.234 235.166 264.938C233.845 273.098 232.59 275.951 225.429 276.435C214.462 277.178 180.445 270.64 176.728 267.955C172.8 265.12 173.968 254.4 174.376 249.128L172.264 248.938C171.648 255.283 170.149 266.167 175.25 269.97C180.237 273.687 214.946 280.119 225.624 279.48C237.334 278.781 237.435 271.703 239.85 255.674C240.304 252.661 243.995 214.608 244.045 208.97C244.107 201.946 245.096 198.89 243.19 195.224C240.574 190.186 234.368 189.835 220.517 188.504C210.87 187.424 201.168 186.921 191.461 186.997C186.501 186.96 180.312 186.479 177.563 190.837C175.342 194.357 175.822 199.957 175.4 204.245C173.92 219.165 174.923 205.845 172.264 248.938Z" fill="#0F0F0F"/>
<path d="M225.146 199.189C221.69 195.442 222.906 196.176 219.718 199.08C219.392 199.443 218.958 199.693 218.48 199.794C218.003 199.896 217.505 199.845 217.059 199.647C216.682 199.36 216.373 198.993 216.155 198.571C213.174 193.856 213.157 196.026 210.328 198.471C207.894 200.573 207.307 197.394 206.633 196.85C206.603 197.01 207.416 197.101 205.312 195.343C204.654 194.792 204.224 194.703 203.302 195.495C198.448 199.631 197.677 201.944 199.07 188.922C199.483 185.071 199.23 182.079 199.755 180.387C200.888 180.079 202.955 185.922 204.611 183.776C209.752 177.122 208.358 182.143 213.091 185.205C214.282 185.978 216.373 182.682 216.877 182.191C219.597 179.547 220.877 184.837 223.005 185.611C223.309 185.739 223.651 185.744 223.959 185.625C224.267 185.505 224.516 185.271 224.654 184.971C225.15 183.327 227.214 182.807 228.622 181.831C229.102 184.479 228.816 201.333 228.03 201.629C227.539 201.81 225.76 199.855 225.146 199.189Z" fill="white"/>
<path d="M228.848 181.304C228.464 180.883 223.669 184.941 223.311 184.883C223.122 184.664 222.95 184.431 222.797 184.186C220.466 180.751 218.943 178.784 215.936 181.77C215.554 182.149 213.923 184.127 213.762 184.288C209.61 180.677 208.786 178.208 206.928 180.04C205.648 181.306 204.016 183.331 203.855 183.426C203.746 183.687 201.464 181.195 201.01 180.706C199.651 179.237 199.231 178.539 198.61 182.339C198.029 185.699 197.549 199.165 198.786 199.128C199.064 199.503 203.096 196.631 203.57 196.36C204.939 195.539 205.069 196.28 206.069 197.725C208.965 201.951 209.069 200.192 213.333 196.877C214.248 196.877 216.053 201.946 219.085 200.64C220.554 200.019 220.792 198.914 222.24 197.685C222.551 197.135 227.552 202.61 228.096 201.845C229.979 202.119 230.141 181.403 228.848 181.304ZM227.528 191.568C227.461 205.952 229.288 201.312 223.543 196.341C222.771 195.848 222.466 195.299 221.293 196.151C220.399 196.848 219.568 197.624 218.81 198.467C217.21 199.711 216.69 196.114 214.192 194.883C212.515 194.216 211.919 195.203 208.752 198.01L208.712 198C205.971 194.994 205.869 192.331 201.279 196.367C200.352 197.219 199.656 197.911 199.237 198.391C199.872 195.435 200.205 192.423 200.231 189.399C200.853 179.415 198.68 179.223 201.429 183.008C203.751 186.208 204.123 185.509 206.573 183.147C208.887 180.885 206.994 181.005 211.427 185.104C212.331 185.939 212.847 186.525 213.675 186.57C215.242 186.619 216.195 184.672 217.485 183.242C219.152 181.392 219.291 183.008 221.895 185.919C222.071 186.152 222.301 186.339 222.566 186.463C222.831 186.587 223.122 186.645 223.415 186.631C223.706 186.617 223.991 186.532 224.243 186.385C224.495 186.237 224.708 186.03 224.863 185.783C226.091 184.634 227.263 183.423 228.37 182.155C227.752 185.254 227.469 188.409 227.528 191.568Z" fill="#0F0F0F"/>
<path d="M229.547 221.68L223.479 220.979L224.384 207.835C224.447 206.96 223.083 206.965 223.023 207.835L222.128 220.824L209.504 219.399L210.434 205.896C210.495 205.023 209.133 205.026 209.072 205.896L208.152 219.25L195.424 217.855L196.336 204.511C196.397 203.635 195.035 203.64 194.975 204.511L194.072 217.711L191.352 217.418C190.483 217.323 190.49 218.685 191.352 218.778L193.991 219.061L193.183 231.491L190.034 231.085C189.168 230.971 189.176 232.335 190.034 232.445L193.098 232.843L192.317 245.539L189.247 245.139C188.379 245.027 188.387 246.389 189.247 246.501L192.237 246.89L191.559 258.522C191.509 259.399 192.871 259.395 192.92 258.522L193.587 247.067L206.283 248.747L205.509 261.999C205.459 262.874 206.821 262.871 206.871 261.999L207.634 248.928L220.237 250.64L219.459 263.936C219.41 264.813 220.771 264.81 220.821 263.936L221.587 250.816L227.679 251.661C228.536 251.779 228.906 250.469 228.042 250.347L221.667 249.466L222.455 236.755L227.986 237.517C228.843 237.637 229.213 236.325 228.349 236.205L222.541 235.405L223.395 222.323L229.555 223.034C230.416 223.143 230.41 221.781 229.547 221.68ZM195.335 219.2L208.063 220.594L207.229 233.336L194.525 231.661L195.335 219.2ZM193.659 245.709L194.442 233.011L207.144 234.687L206.357 247.389L193.659 245.709ZM220.311 249.282L207.707 247.57L208.493 234.866L221.098 236.571L220.311 249.282ZM221.183 235.221L208.579 233.515L209.415 220.744L222.037 222.17L221.183 235.221Z" fill="#0F0F0F"/>
<path d="M183.829 259.848C184.531 262.33 188.399 262.568 190.458 263.104C201.383 265.967 212.488 268.096 223.698 269.479C225.259 269.674 225.245 267.223 223.698 267.027C208.818 265.16 189.168 260.704 187.018 259.631C185.912 259.079 186.058 259.631 186.527 249.002C187.197 233.869 188.287 218.762 189.431 203.656C189.549 202.083 187.098 202.09 186.979 203.656C187.141 203.656 183.008 256.949 183.829 259.848Z" fill="#0F0F0F"/>
<path d="M230.762 222.965L229.688 213.498C229.646 213.132 229.508 212.783 229.289 212.486C229.069 212.19 228.776 211.956 228.438 211.808C228.1 211.661 227.729 211.605 227.362 211.647C226.996 211.688 226.646 211.825 226.349 212.043L218.688 217.706C218.466 217.87 218.278 218.076 218.135 218.312C217.992 218.549 217.898 218.811 217.857 219.085C217.816 219.358 217.829 219.636 217.896 219.904C217.963 220.172 218.082 220.425 218.247 220.647C218.466 220.944 218.759 221.178 219.098 221.325L221.68 222.445C219.066 229.266 216.133 236.845 213.016 243.595C212.216 245.325 212.397 245.112 212.182 244.783C201.702 228.691 203.64 223.698 197.565 236.186C195.416 240.6 187.189 257.211 188.696 257.983C190.414 258.859 199.648 240.85 202.09 236.275C204.37 240.553 206.865 244.712 209.567 248.736C211.575 251.736 211.568 252.482 212.767 252.896C214.487 253.487 225.018 225.899 225.674 224.187C227.859 225.139 228.085 225.307 228.669 225.307C228.965 225.306 229.257 225.242 229.527 225.121C229.797 224.999 230.039 224.822 230.236 224.602C230.433 224.381 230.582 224.121 230.673 223.839C230.763 223.557 230.793 223.259 230.762 222.965Z" fill="#92FCFF"/>
<path d="M195.55 215.635C205.874 216.435 210.773 217.544 211.563 217.544C213.589 217.544 214.23 214.432 212.075 214.08C207.286 213.296 197.557 212.093 195.482 212.093C193.302 212.093 193.354 215.466 195.55 215.635Z" fill="#92FCFF"/>
<path d="M195.818 210.365C203.557 211.165 207.338 211.565 207.498 211.565C209.618 211.565 209.578 208.245 207.408 208.019C199.669 207.219 195.888 206.821 195.728 206.821C193.608 206.821 193.643 210.139 195.818 210.365Z" fill="#92FCFF"/>
<path d="M227.594 212.175C229.458 212.175 229.128 213.384 230.219 223.026C230.245 223.244 230.224 223.465 230.157 223.674C230.091 223.883 229.98 224.075 229.834 224.239C229.689 224.404 229.511 224.536 229.31 224.626C229.11 224.716 228.893 224.763 228.674 224.762C228.247 224.762 228.295 224.736 225.375 223.464C222.41 231.194 219.97 237.579 216.706 244.701C212.242 254.442 213.763 254.039 210.019 248.44C202.043 236.511 202.309 234.907 202.04 235.219C185.89 265.499 184.651 263.976 198.055 236.427C198.674 235.147 200.775 229.795 202.415 229.797C203.728 229.797 203.266 232.095 211.727 245.085C212.595 246.419 212.343 246.309 212.679 245.608C216.223 238.205 219.631 229.32 222.376 222.159L219.315 220.826C219.064 220.717 218.846 220.544 218.683 220.324C218.521 220.104 218.419 219.845 218.389 219.573C218.359 219.301 218.401 219.027 218.51 218.776C218.619 218.525 218.792 218.308 219.011 218.144C227.432 211.925 226.893 212.175 227.594 212.175ZM227.594 210.541C226.141 210.541 226.226 210.784 218.04 216.831C217.59 217.164 217.235 217.609 217.011 218.123C216.788 218.637 216.703 219.2 216.766 219.757C216.829 220.313 217.038 220.843 217.371 221.294C217.703 221.745 218.149 222.1 218.663 222.323L220.29 223.032C217.944 229.147 214.962 236.807 212.192 242.786C204.21 230.195 205.069 228.163 202.415 228.163C199.367 228.163 197.477 233.779 194.178 240.717C188.544 252.557 185.117 259.117 188.979 259.144C191.12 259.163 194.899 252.029 202.099 238.578C204.243 242.441 206.551 246.21 209.018 249.875C209.567 249.875 210.151 253.152 212.416 253.93C214.435 254.621 214.872 252.578 218.016 245.77C228.083 223.952 225.035 225.09 227.403 226.12C228.02 226.391 228.706 226.459 229.363 226.315C230.02 226.171 230.615 225.823 231.063 225.32C232.331 223.899 231.813 222.514 231.314 218.106C230.895 214.469 231.191 210.541 227.594 210.541Z" fill="#0F0F0F"/>
<path d="M195.482 212.64C197.896 212.64 207.605 213.903 211.987 214.621C213.539 214.874 212.883 217.234 211.336 216.984C206.116 216.14 200.864 215.51 195.592 215.096C194.066 214.975 194.021 212.64 195.482 212.64ZM195.482 211.552C192.621 211.552 192.602 215.959 195.509 216.183C205.208 216.928 210.909 218.091 211.563 218.091C214.25 218.091 214.982 214.007 212.163 213.546C202.032 211.887 195.32 211.549 195.482 211.549V211.552Z" fill="#0F0F0F"/>
<path d="M195.728 207.36C195.888 207.36 195.797 207.36 207.354 208.557C208.915 208.717 208.914 211.173 207.354 211.008C203.528 210.6 199.701 210.208 195.874 209.818C194.368 209.667 194.309 207.36 195.728 207.36ZM195.728 206.271C192.915 206.271 192.907 210.606 195.762 210.91C202.802 211.638 200.195 211.39 207.242 212.099C210.282 212.403 210.426 207.787 207.466 207.482C197.04 206.4 195.566 206.275 195.728 206.275V206.271Z" fill="#0F0F0F"/>
<path d="M128.8 182.21C138.72 185.354 139.283 185.41 140.12 186.179C141.782 187.722 143.133 193.991 143.416 196.899C143.805 200.911 144.573 252.391 142.597 256.24C141.902 257.579 140.755 258.628 139.36 259.2C142.25 261.479 98.2048 257.29 96.5264 257.208C91.0207 256.946 81.5391 254.312 79.4719 251.415C76.8479 247.735 78.0063 217.96 78.3823 212.624C78.6399 208.963 78.912 206.005 80.5248 187.4C80.7744 184.52 80.6 180.179 82.0416 177.677C82.8986 176.35 84.1173 175.296 85.5538 174.64C86.9903 173.983 88.5847 173.751 90.1487 173.971C103.453 176.131 115.944 178.136 128.8 182.21Z" fill="white"/>
<path d="M91.8978 195.719C89.1602 188.679 96.6978 195.456 97.3682 195.61C98.2706 195.816 99.1122 194.978 99.381 194.091C99.7922 192.736 99.285 189.599 101.395 189.367C102.325 189.264 102.722 189.722 107.968 193.424C109.632 189.067 109.739 188.594 110.263 188.071C111.034 187.298 112.168 187.271 112.627 189.159L114.807 198.107C118.376 194.65 123.235 192.997 123.787 196.282C124.039 197.773 122.439 198.951 122.187 200.442C128.154 196.648 130.363 198.709 129.397 201.362C128.736 203.179 126.379 204.784 126.922 206.893C127.684 208.662 128.594 210.364 129.642 211.981C133.738 209.543 138.456 214.645 135.808 219.568C135.248 220.533 134.495 221.373 133.597 222.035C132.698 222.697 131.673 223.168 130.586 223.418C131.562 224.689 132.239 226.164 132.567 227.733C132.894 229.302 132.865 230.924 132.48 232.48C131.937 233.851 131.776 235.345 132.015 236.8C132.007 238.273 131.533 239.704 130.659 240.889C129.785 242.074 128.557 242.951 127.152 243.392C129.037 245.741 130.67 248.281 132.024 250.971C133.255 253.429 134.015 256.096 134.264 258.834C134.386 259.663 133.944 260.059 133.178 260.392C130.89 261.383 94.101 255.975 88.4754 256.29C87.5798 256.405 86.6712 256.365 85.789 256.173C85.3492 256.07 84.9498 255.839 84.6414 255.509C84.333 255.178 84.1293 254.764 84.0562 254.319C84.8647 250.851 86.3764 247.586 88.4978 244.727C91.6338 240.923 96.5169 239.075 101.25 237.687C100.61 235.251 93.8658 234.677 94.4242 219.855C83.7458 214.874 88.8242 205.176 94.357 207.107C94.4247 207.143 94.4988 207.164 94.5749 207.17C94.6509 207.177 94.7275 207.168 94.8002 207.144C97.213 205.885 98.093 211.631 91.8978 195.719Z" fill="#FDFE1F"/>
<path d="M121.082 250.198C117.573 248.648 108.85 246.838 103.73 248.512C99.0385 250.045 96.8689 254.162 97.3921 254.456C97.9153 254.75 99.4609 251.624 104.237 250.066C108.808 248.573 117.206 250.264 120.41 251.688C125.306 253.867 125.995 257.07 126.52 256.915C127.117 256.8 126.061 252.4 121.082 250.198Z" fill="#0F0F0F"/>
<path d="M131.56 214.976C129.074 215.311 129.384 217.677 130.75 217.77C130.978 217.711 131.269 218.303 131.112 218.683C130.779 219.483 129.566 220.021 129.733 220.315C129.864 220.663 131.586 220.389 132.133 219.045C132.232 218.805 132.275 218.545 132.259 218.286C132.244 218.027 132.17 217.774 132.043 217.547C131.916 217.321 131.74 217.125 131.527 216.976C131.315 216.827 131.071 216.728 130.814 216.687C130.79 216.653 130.778 216.611 130.782 216.57C130.787 216.528 130.807 216.489 130.838 216.461C131.077 216.098 132.214 215.754 132.614 216.439C133.677 218.24 133.979 214.65 131.56 214.976Z" fill="#0F0F0F"/>
<path d="M95.8401 212.311C94.2673 211.947 93.4401 213.847 93.9201 215.136C94.4705 216.631 96.1601 216.642 96.1217 216.327C96.1361 216.112 94.2529 215.408 95.0017 213.781C95.3217 213.069 95.4209 213.352 97.4897 213.96C98.3537 214.213 98.2657 214.269 98.1297 213.923C97.88 212.953 97.3218 212.091 96.5394 211.466C93.1794 209.079 90.3969 212.842 91.1601 213.138C91.3857 213.248 93.4273 210.651 95.8401 212.311Z" fill="#0F0F0F"/>
<path d="M145.314 210.749C145.154 192.24 147.546 185.219 129.525 181.149C100.39 174.378 84.8319 168.055 80.5647 177.469C79.2591 180.362 79.4351 183.733 79.2319 187.327C75.4783 245.063 74.9855 251.807 81.7535 255.647C88.4991 259.447 125.738 261.618 134.219 261.664C142.28 261.584 143.994 258.277 144.504 250.519C145.395 236.835 145.402 223.507 145.314 210.749ZM84.9759 253.834C86.5759 246.053 94.0959 240.515 101.554 238.634C102.643 239.173 103.79 239.589 104.971 239.877C106.462 241.534 108.355 242.779 110.467 243.491C113.523 244.562 122.541 245.891 126.917 244.642C130.843 248.907 132 252.759 133.19 258.431C123.078 258.339 90.4383 255.819 84.9759 253.834ZM99.2159 218.919C99.5759 218.503 98.9439 218.37 99.0367 218.544C99.0479 218.575 99.0735 218.611 99.0479 218.64C98.8559 218.458 98.3999 218.96 97.1279 219.071C95.7972 219.056 94.4876 218.735 93.3012 218.132C92.1149 217.529 91.0837 216.661 90.2879 215.594C88.2079 212.855 89.3279 207.805 93.4447 207.831C99.5967 207.691 100.645 212.912 101.072 212.791C101.43 212.757 101.459 210.165 99.1311 208.035C106.056 206.549 105.64 206.635 114.675 204.653C116.552 204.013 115.909 200.624 115.605 198.536C116.962 197.478 118.457 196.609 120.05 195.955C120.949 195.747 122.517 195.805 122.784 196.827C122.997 197.722 122.23 198.792 121.544 199.679C120.12 201.495 119.53 202.904 119.784 203.053C120.115 203.423 123.576 200.144 126.283 199.373C128.251 198.96 128.992 199.591 128.301 201.419C127.555 203.437 126.21 203.522 125.581 205.25C124.781 207.397 127.021 208.711 127.363 209.133C127.926 209.821 128.31 210.635 128.483 211.507C127.685 210.722 126.72 210.126 125.66 209.766C124.599 209.406 123.471 209.291 122.36 209.428C121.249 209.565 120.183 209.952 119.242 210.56C118.302 211.167 117.51 211.98 116.928 212.936C112.162 206.682 102.965 211.176 103.76 217.048C103.772 217.379 103.886 217.699 104.087 217.962C104.287 218.226 104.564 218.421 104.88 218.522C104.887 219.617 105.222 220.686 105.841 221.59C106.461 222.493 107.336 223.191 108.355 223.594C109.493 224.027 108.952 223.219 106.218 226.047C102.784 229.624 102.104 234.547 103.4 237.472C96.8063 234.112 94.9551 227.752 95.0703 220.352C95.8254 220.515 96.6107 220.468 97.3407 220.215C98.0706 219.962 98.717 219.514 99.2095 218.919H99.2159ZM92.6319 193.722C94.2575 194.227 96.9695 197.466 99.1247 196.005C100.686 194.903 100.565 190.741 101.654 190.386C103.357 189.442 107.115 197.573 109.251 192.73C109.666 191.791 110.906 187.165 111.445 188.322C112.622 189.383 114.304 200.603 113.974 202.712C113.941 202.925 114.994 202.543 98.9215 205.877C96.7471 206.357 97.3903 206.535 96.4495 204.416C98.3343 203.917 101.454 202.875 103.621 202.352C122.883 197.647 105.266 199.472 95.7711 202.811C95.0111 201.019 94.2495 199.224 93.5775 197.459C91.8735 193.037 92.2575 193.631 92.6255 193.722H92.6319ZM114.181 238.202C123.71 239.322 128.248 239.896 131.054 237.517C130.983 238.395 130.698 239.242 130.224 239.984C129.75 240.726 129.101 241.341 128.334 241.775C124.32 244.154 113.725 242.359 111.166 241.477C102.162 238.544 102.77 228.997 111.381 223.696C111.25 224.231 111.233 224.787 111.331 225.328C111.726 227.408 113.446 227.85 115.501 228.095C118.003 228.338 118.152 228.663 118.608 230.655C119.27 233.459 120.848 227.987 117.734 226.655C116.294 226.003 114.203 226.015 113.672 225.375C113.491 225.054 113.418 224.683 113.464 224.318C113.51 223.952 113.673 223.611 113.928 223.346C115.034 221.995 118.702 221.805 120.595 221.746C126.506 221.667 129.85 223.976 127.691 225.391C125.611 226.759 122.429 226.215 122.802 230.991C122.883 231.519 122.952 231.819 123.101 231.856C123.25 231.893 123.464 231.618 123.645 231.077C124.35 229.175 123.933 228.784 126.755 228.013C128.554 227.474 130.192 226.824 130.488 224.813C131.383 226.699 131.763 228.789 131.589 230.869C131.278 237.887 126.978 236.949 120.917 236.853C109.29 236.363 102.587 236.837 114.174 238.199L114.181 238.202ZM109.581 223.034C108.577 222.748 107.681 222.171 107.006 221.375C106.331 220.579 105.908 219.6 105.79 218.563C107.05 218.309 108.332 218.183 109.618 218.187C109.73 219.307 109.491 220.141 111.166 219.871C112.766 219.613 112.446 219.071 112.344 218.088C115.109 218.293 115.432 218.856 116.469 218.451C116.126 220.363 115.978 220.01 115.029 220.282C113.91 220.553 112.909 221.179 112.174 222.066C109.6 223.107 110.266 223.263 109.574 223.031L109.581 223.034ZM105.558 217.24C105.285 217.288 105.21 217.275 105.162 217.24C105.03 217.213 104.89 216.616 104.944 216.136C105.162 212.136 110.957 209.816 114.384 212.632C115.033 213.023 115.558 213.589 115.9 214.265C116.242 214.94 116.387 215.699 116.318 216.453C115.694 218.066 115.414 215.293 105.552 217.237L105.558 217.24ZM117.422 217.951C117.979 218.061 119.878 217.599 122.314 217.488C122.294 217.587 122.462 218.448 122.504 218.826C122.573 219.395 125.341 219.616 125.21 218.517C125.168 218.167 125.114 217.851 125.062 217.557C126.878 217.741 127.549 218.064 128.142 218.037C125.87 222.469 126.885 218.493 117.253 219.832C117.451 219.225 117.507 218.58 117.416 217.947L117.422 217.951ZM128.44 214.147C129.144 215.567 128.472 216.648 127.973 216.45C125.283 215.885 122.507 215.874 119.813 216.416C117.398 216.802 118.002 217.194 118.034 216.218C118.101 215.481 117.961 214.739 117.63 214.077C118.168 213.113 118.955 212.311 119.909 211.755C120.863 211.2 121.948 210.91 123.052 210.917C124.156 210.924 125.237 211.227 126.184 211.794C127.131 212.362 127.908 213.174 128.434 214.144L128.44 214.147ZM128.869 221.522C127.371 220.335 127.37 221.123 128.035 220.272C128.614 219.514 129.014 218.634 129.205 217.699C129.882 217.144 130.312 216.343 130.402 215.472C130.492 214.6 130.234 213.729 129.685 213.047C131.874 210.703 134.773 212.821 135.214 215.856C135.449 217.366 135.096 218.909 134.228 220.167C133.361 221.426 132.044 222.304 130.549 222.621C130.029 222.192 129.464 221.822 128.862 221.519L128.869 221.522ZM141.28 250.309C140.926 256.131 140.346 258.322 134.837 258.432C134.592 252.818 132.834 247.65 128.662 243.984C132.691 242.011 133.253 238.887 133.072 234.429C133.62 232.613 133.76 230.697 133.481 228.821C133.203 226.944 132.513 225.152 131.461 223.573C138.562 222.034 138.414 211.904 132.741 210.695C131.94 210.523 131.106 210.618 130.365 210.965C129.579 206.069 125.904 207.376 128.643 204.795C132.2 201.507 131.006 196.015 125.738 197.656C123.658 198.447 125.014 198.632 124.778 196.552C124.517 194.152 121.158 192.018 116.278 195.557L115.243 196.339C114.638 193.101 113.523 185.693 110.595 186.872C108.946 187.573 108.467 190.576 107.6 192.299C107.157 192.999 105.453 190.507 104.605 189.688C102.739 187.89 100.53 187.893 99.3535 190.215C98.4687 192.008 98.4079 194.389 97.7823 194.311C95.8815 193.717 93.8575 190.912 91.4751 191.658C89.0927 192.403 90.6031 195.731 91.5519 198.227C94.9951 207.378 95.5519 205.907 93.4463 205.823C85.7135 205.571 84.2975 217.427 93.5439 220.063C92.5503 226.768 94.1839 233.562 99.6239 237.472C96.5528 238.091 93.6535 239.372 91.1281 241.226C88.6027 243.08 86.512 245.462 85.0015 248.207C82.9599 252.255 84.0751 253.515 83.2687 253.059C78.5535 250.395 78.4575 246.643 81.3215 187.442C81.6303 183.419 81.3711 178.363 84.3951 176.311C87.6127 174.035 93.0351 175.488 97.4383 176.352C101.598 177.152 132.861 184.447 136.798 186.592C143.403 190.136 142.106 196.375 142.158 210.762C142.19 223.507 142.154 236.76 141.28 250.309Z" fill="#0F0F0F"/>
<path d="M78.9569 173.751C77.4401 176.218 77.0705 178.671 75.6913 185.431C74.7985 189.811 76.6177 191.303 79.2209 190.963C81.4129 190.677 86.4769 187.592 88.2545 186.293C93.9281 182.133 89.1889 184.541 101.642 177.714C102.287 177.426 102.847 176.975 103.266 176.405C103.568 175.711 103.595 174.929 103.342 174.216C103.089 173.503 102.574 172.913 101.903 172.565C100.532 171.918 99.0415 171.566 97.5265 171.53C91.2897 170.786 83.1809 166.88 78.9569 173.751Z" fill="white"/>
<path d="M140.306 244.656C140.935 244.082 141.686 243.657 142.502 243.413C143.242 243.312 143.996 243.436 144.664 243.768C145.333 244.1 145.887 244.626 146.253 245.277C147.888 247.939 147.038 252.895 146.534 256.157C145.384 263.578 143.2 262.909 140.853 263.506C140.091 263.699 139.386 264.093 138.613 264.25C136.485 264.682 127.093 263.701 123.229 263.104C122.222 262.944 121.614 262.519 121.789 261.234C122.16 258.45 126.146 255.767 140.306 244.656Z" fill="white"/>
<path d="M98.56 170.911L98.424 172.306C99.5323 172.363 100.613 172.672 101.584 173.21C102.397 173.752 102.902 174.951 102.394 175.61C101.931 176.347 100.346 176.928 99.0064 177.669C87.5232 184.016 84.5856 189.103 79.5376 189.912C78.8554 190.039 78.1558 190.039 77.4736 189.912C77.544 190.072 76.6112 189.058 77.0704 185.509C77.36 183.269 79.032 175.215 80.5984 173.245C82.632 170.685 87.4016 170.992 90.7184 171.325C99.6096 172.232 98.3408 173.173 98.5584 170.909C90.0192 169.765 80.7856 166.487 77.6096 174.469C76.3296 177.669 72.8912 189.631 76.2752 191.736C78.0752 192.672 80.968 191.995 82.8704 191.071C87.8304 188.653 89.4944 185.119 101.87 178.2C103.722 177.165 104.87 175.719 104.022 173.757C103.08 171.563 100.942 171.111 98.56 170.911Z" fill="#0F0F0F"/>
<path d="M140.259 245.51C139.045 243.781 140.346 243.688 133.655 248.989C129.795 251.477 126.201 254.352 122.927 257.571C120.389 260.368 119.551 263.363 123.077 264.253C128.04 265.444 133.17 265.777 138.245 265.24C142.794 264.8 145.693 263.461 146.976 259.01C147.648 255.854 147.984 252.637 147.976 249.41C147.768 243.619 144.693 240.77 139.455 244.365L140.255 245.512C141.083 244.886 142.047 244.463 143.069 244.277C147.445 244.002 146.218 254.488 145.005 258.403C143.893 261.992 141.715 262.762 138.037 263.086C134.49 263.393 130.921 263.318 127.391 262.864C122.951 262.288 122.376 262.211 123.138 260.76C124.834 257.525 131.89 252.486 134.711 250.349C136.855 248.52 138.53 246.784 140.259 245.51Z" fill="#0F0F0F"/>
<path d="M13.5057 178.213C18.0897 183.219 36.0097 188.626 43.0929 185.922C67.9281 176.435 75.7329 127.79 61.5825 116.6C58.8737 114.459 48.3361 111.864 44.9137 111.32C14.4001 106.445 -0.927907 162.467 13.5057 178.213Z" fill="#FDFE1F"/>
<path d="M59.1281 114.133C57.8881 113.666 47.5345 110.277 41.4817 109.973C14.6753 108.402 -2.21274 161.173 12.0561 177.99C16.9601 183.771 28.9345 186.925 36.5137 187.611C66.2225 190.4 80.6945 122.331 59.1281 114.133ZM59.1729 129.466C61.4769 129.123 63.8307 129.496 65.9153 130.536C66.6993 135.589 66.7265 140.73 65.9953 145.79C60.7505 146.085 61.8721 145.373 58.2449 144.51C59.2367 139.561 59.5489 134.499 59.1729 129.466ZM65.5169 128.406C61.7665 128.614 62.2113 128.229 58.8913 127.163C56.8449 115.195 51.3825 114.792 54.6977 115.824C58.6849 117.085 63.1809 117.616 65.5169 128.406ZM17.4817 179.158C7.27526 173.568 8.37126 154.307 11.4865 143.05C15.5873 128.227 27.3409 111.906 41.3329 112.778C44.2993 113.022 47.2305 113.578 50.0801 114.44C60.2449 121.472 58.0273 139.685 54.5153 151.56C50.2097 165.8 42.2481 181.717 27.5665 183.022C24.0792 182.09 20.6992 180.795 17.4817 179.158ZM31.5313 183.95C35.4534 182.965 39.0621 181.002 42.0209 178.245C45.0609 178.786 45.6049 177.942 49.4689 179.904C42.3393 185.883 37.2625 185.05 31.5313 183.95ZM51.2529 178.282C47.1969 177.702 47.7841 178.282 43.8257 176.402C46.8943 172.863 49.4771 168.931 51.5057 164.709C54.3393 165.133 54.2497 163.851 59.8257 165.952C57.7155 170.534 54.8134 174.708 51.2529 178.282ZM60.7841 163.898C55.6369 163.85 57.7441 164.186 52.5777 162.448C54.8177 157.461 56.5512 152.262 57.7521 146.928C61.3233 147.126 60.6481 146.074 65.6849 147.779C64.7078 153.33 63.0623 158.742 60.7841 163.898Z" fill="#0F0F0F"/>
<path d="M24.8352 178.101C46.9456 180.981 63.8176 125.115 45.3648 117.424C33.4464 112.304 20.9984 128.016 17.0048 140.229C15.6912 144.24 17.616 139.658 19.376 136.339C29.6448 117.214 43.9312 113.557 48.8416 123.403C59.104 143.669 35.4672 187.68 19.808 173.92C7.51523 163.019 19.808 133.531 15.808 143.52C10.616 156.466 12.032 176.218 24.8352 178.101Z" fill="#0F0F0F"/>
<path d="M27.5729 154.171C27.6753 153.899 28.1169 154.192 22.2049 151.952C22.0449 151.891 22.1905 151.747 19.4529 159.007C19.3713 159.226 19.3761 158.879 19.8641 163.327C19.8849 163.527 19.1873 163.186 30.7617 167.547C30.9217 167.611 30.9889 167.439 33.9409 164.749C34.1009 164.597 33.7249 165.485 39.4225 150.349C39.5153 150.103 39.5025 150.429 39.0241 146.045C38.9969 145.789 39.5857 146.087 31.8049 143.176C31.6449 143.115 31.6225 143.397 34.3649 136.083C34.4641 135.819 34.1073 135.8 38.0337 137.263C38.1937 137.32 38.0337 137.503 36.8145 140.728C36.7057 141.015 36.2817 140.715 42.1761 142.952C42.3361 143.015 42.1761 143.205 44.9233 135.925C45.0225 135.659 45.0033 135.976 44.5297 131.635C44.5009 131.368 33.6721 127.367 33.5089 127.315C33.4913 127.315 33.4721 127.299 33.4561 127.347C33.3665 127.632 30.3185 130.099 30.1601 130.523C24.5281 145.511 24.8241 144.603 24.8497 144.827C25.2913 148.73 25.2417 148.965 25.4065 149.027C33.2577 151.97 32.6433 151.627 32.5345 151.919C29.8497 159.031 29.9617 158.994 29.8017 158.933C25.9969 157.485 26.2369 157.693 26.3329 157.439L27.5729 154.171Z" fill="#0F0F0F"/>
<path d="M277.12 164.055C273.722 164.591 264.091 166.856 261.186 169.128C256.314 172.939 254.927 181.624 254.639 187.848C253.453 213.474 270.639 235.552 282.839 235.552C289.277 235.552 302.552 232.087 306.76 227.512C320.32 212.767 306.378 159.437 277.12 164.055Z" fill="#FDFE1F"/>
<path d="M280.366 162.73C274.406 163.024 264.258 166.41 263.613 166.651C247.509 172.731 251.557 215.451 271.053 231.503C273.982 233.936 277.456 235.626 281.179 236.427C285.578 237.016 293.715 235.043 298.277 233.373C305.186 230.867 306.376 229.456 308.706 226.693C321.291 206.517 304.213 161.381 280.366 162.73ZM262.078 170.823C263.768 169.54 265.73 168.664 267.813 168.263C270.998 167.288 265.771 167.691 263.813 179.016C260.685 180.018 261.069 180.391 257.522 180.184C258.24 176.936 259.547 173.032 262.08 170.823H262.078ZM257.142 182.207C259.122 181.222 261.357 180.872 263.542 181.203C263.176 185.979 263.463 190.783 264.395 195.482C260.966 196.291 261.995 196.978 257.035 196.682C256.352 191.878 256.388 187 257.142 182.207ZM257.33 198.573C262.154 196.954 261.392 197.967 264.858 197.773C265.987 202.836 267.624 207.773 269.742 212.509C265.475 213.936 267.182 213.837 261.95 213.871C259.8 208.976 258.248 203.84 257.33 198.573ZM262.853 215.826C268.184 213.834 268.099 215.051 270.755 214.661C272.674 218.669 275.117 222.405 278.019 225.77C274.192 227.586 274.749 227.003 270.968 227.541C267.595 224.144 264.848 220.178 262.853 215.826ZM272.658 229.083C276.243 227.269 277.088 227.986 279.731 227.522C282.533 230.148 285.956 232.019 289.678 232.962C284.008 234.035 279.36 234.73 272.658 229.083ZM310.461 214.114C309.168 225.819 304.45 229.103 293.443 232.087C289.039 231.644 284.885 229.831 281.565 226.903C268.445 215.079 257.451 177.114 272.2 166.957C282.202 164.171 286.083 165.245 291.61 168.635C303.84 176.584 312.341 195.493 310.461 214.114Z" fill="#0F0F0F"/>
<path d="M304.662 194.608C301.349 186.253 312.15 213.442 300.822 223.453C285.805 236.592 263.656 194.542 273.362 175.467C275.122 171.947 277.962 170.018 282.859 170.651C290.942 171.728 297.48 180.648 301.302 187.797C302.982 190.984 304.778 195.283 303.542 191.491C299.789 179.933 288.022 164.952 276.67 169.8C270.765 172.246 268.869 181.96 269.174 188.557C269.899 198.655 273.221 208.395 278.819 216.83C289.662 232.648 303.992 230.04 306.842 214.59C307.894 207.854 307.142 200.958 304.662 194.608Z" fill="#0F0F0F"/>
<path d="M288 200.538C285.548 200.363 283.184 199.549 281.144 198.176C280.642 197.837 280.746 198.026 280.685 197.406C279.85 188.781 279.714 190.291 280.187 177.366C284.446 180.659 286.054 181.803 295.469 192.459C296.875 194.05 293.109 197.126 292.142 198.272C291.661 198.931 291.04 199.476 290.325 199.869C289.608 200.259 288.815 200.488 288 200.538ZM282.72 196.698C284.304 197.682 286.099 198.278 287.957 198.44C288.468 198.378 288.96 198.211 289.403 197.95C289.846 197.688 290.23 197.337 290.531 196.92C291.622 195.852 292.638 194.709 293.571 193.499C286.315 185.33 284.555 183.651 282.13 181.597C281.821 186.635 282.018 191.693 282.72 196.693V196.698Z" fill="#0F0F0F"/>
<path d="M295.382 219.224C290.035 217.013 286.44 208.923 281.107 200.912C289.267 202.398 289.037 205.637 293.427 200.509C295.157 198.493 293.464 200.213 297.562 195.549C299.061 202.25 297.603 217.851 295.878 218.909L295.382 219.224ZM285.723 204.376C286.634 206.037 292.01 214.616 294.803 216.547C295.432 212.88 295.859 209.182 296.083 205.469C296.058 199.344 296.765 199.85 295.024 201.878C291.43 206.08 289.512 206.008 285.723 204.376Z" fill="#0F0F0F"/>
</svg>
