<svg width="320" height="320" viewBox="0 0 320 320" fill="none" xmlns="http://www.w3.org/2000/svg">
<path d="M135.218 195.896C135.293 193.874 135.285 186.776 133.855 185.192C133.151 184.414 132.749 184.392 125.375 181.813C123.023 180.992 121.866 181.507 121.386 184.509C120.499 190.04 117.653 207.131 120.328 212.509C122.28 216.437 134.594 225.181 135.994 229.13C137.258 232.693 141.184 300.026 138.269 306.037C137.746 307.096 136.983 308.02 136.042 308.734C135.102 309.449 134.007 309.935 132.847 310.155C153.655 312.25 174.604 312.56 195.466 311.082C193.247 310.953 191.109 310.201 189.298 308.914C185.919 305.978 186.807 305.542 179.947 236.523C179.608 233.106 181.355 232.763 192.125 223.754C197.387 219.352 197.786 216.986 195.41 211.578C191.474 202.618 181.33 183.258 178.667 181.456C176.722 180.134 172.391 180.538 171.218 183.098C170.386 184.917 170.959 186.002 174.619 201.05C176.231 207.677 175.715 209.21 173.411 213.637C167.573 224.875 163.284 236.852 160.661 249.242C161.696 244.064 151.842 230.914 149.592 226.056C148.753 224.074 147.713 222.183 146.488 220.413C144.863 218.224 134.72 209.222 135.218 195.896Z" fill="#92FCFF"/>
<path d="M229.572 243.14C235.242 253.956 237.909 258.4 238.797 263.611C240.557 273.966 233.405 280.592 223.575 278.745C219.319 277.717 215.296 275.893 211.719 273.368C217.159 307.552 218.031 306.467 214.3 308.292C205.116 312.784 190.917 310.129 188.801 308.435C187.563 307.144 186.852 305.438 186.807 303.651C184.308 286.4 182.541 269.264 181.245 251.881C179.722 231.462 178.365 235.464 190.54 226.358C192.528 225.09 194.206 223.391 195.449 221.387C199.015 214.516 192.034 206.867 189.887 201.227C189.269 199.606 188.865 197.908 188.237 196.291C186.033 190.595 181.197 186.164 179.277 180.371L183.098 178.569C189.138 175.723 197.193 180.108 201.959 186.272C208.481 194.708 217.177 219.491 229.572 243.14Z" fill="#FFC5F6"/>
<path d="M88.8869 214.853C98.3605 191.205 120.903 179.394 120.796 185.04C120.525 199.203 113.576 211.68 130.78 222.096C134.412 224.294 135.215 225.032 135.682 228.99C138.502 252.829 139.76 276.827 139.448 300.83C139.412 303.594 139.149 306.774 136.904 308.389C134.791 309.909 134.373 309.501 101.335 310.069C88.5029 310.288 81.4949 307.565 79.3829 293.123C77.8933 282.965 78.4757 242.083 86.8021 219.854C88.1625 216.976 88.9474 213.859 89.1125 210.68L88.8869 214.853Z" fill="#FFC5F6"/>
<path d="M134.346 186.113C136.727 192.033 133.985 199.009 136.135 205.007C138.444 211.445 149.839 219.807 159.313 244.637C159.701 245.658 160.221 246.82 161.281 247.09C169.197 216.46 174.812 211.765 175.681 208.346C176.583 204.802 173.297 189.959 172.284 186.106C171.189 181.933 164.941 185.626 161.306 186.925C153.229 189.833 144.356 187.425 135.866 186.106C134.786 185.938 134.906 186.217 134.092 188.906L134.346 186.113Z" fill="white"/>
<path d="M89.1432 130.56C86.4996 130.731 83.9305 131.507 81.6341 132.828C79.3377 134.149 77.3753 135.979 75.8981 138.179C74.4209 140.378 73.4684 142.887 73.114 145.512C72.7596 148.137 73.0128 150.809 73.8541 153.321C74.6954 155.833 76.1023 158.118 77.9663 160.001C79.8303 161.883 82.1017 163.313 84.6054 164.179C87.109 165.044 89.7781 165.324 92.4068 164.995C95.0355 164.667 97.5537 163.739 99.7672 162.283C103.473 159.847 103.649 171.083 127.767 182.523C140.236 188.434 154.606 191.391 166.54 184.36C172.793 180.68 182.951 179.352 184.372 177.84C186.071 176.034 182.11 173.168 183.223 170.952C185.473 170.281 187.662 169.422 189.767 168.383C191.754 167.402 191.54 166.563 190.833 164.871C188.054 158.215 194.751 145.127 189.764 123.535C187.934 115.613 180.938 96.3074 175.905 89.3986C163.332 72.1442 149.505 98.0386 128.577 107.136C117.098 112.128 101.814 112.615 101.961 131.731C101.974 133.445 101.561 134.175 99.7784 134.074C95.7256 133.845 91.9192 133.522 89.1432 130.56Z" fill="white"/>
<path d="M91.106 148.899C88.0548 144.699 82.786 146.153 82.8676 145.179C82.9972 143.712 89.738 141.851 93.578 147.109C97.7892 152.869 92.6612 158.701 91.834 157.813C91.1892 157.232 94.0708 152.981 91.106 148.901V148.899Z" fill="#0F0F0F"/>
<path d="M193.601 165.92C191.702 161.08 191.841 160.134 190.943 159.382C196.038 139.505 190.039 116.014 181.169 97.2926C184.529 93.3422 181.102 75.9982 172.113 65.6398C132.289 19.5886 54.7832 76.691 83.9032 130.152C71.3432 133.283 67.4488 150.672 76.036 160.469C79.0686 163.945 83.3188 166.126 87.9114 166.563C92.5039 166.999 97.089 165.658 100.722 162.816C114.897 182.32 133.761 190.505 152.334 189.497C155.524 193.216 160.215 189.443 186.055 179.958C189.073 178.849 187.145 176.149 186.004 173.12C192.863 170.573 195.262 170.145 193.601 165.92ZM186.39 168.093C185.092 168.605 183.783 169.081 182.466 169.541C181.885 169.709 181.393 170.098 181.094 170.623C180.795 171.149 180.714 171.771 180.866 172.357C181.345 173.737 181.862 175.102 182.418 176.453C172.927 180.096 170.436 181.573 159.001 185.253C158.178 185.517 156.383 186.592 155.598 186.39C155.438 186.35 156.26 187.387 152.031 178.774C150.798 176.264 146.751 178.669 143.391 179.865C141.849 180.416 142.684 181.478 139.266 173.763C138.073 171.075 134.126 173.403 135.311 176.075C140.182 187.049 138.172 186.576 148.87 182.686C149.66 184.261 150.31 185.558 150.95 187.03C129.908 185.833 115.737 176.112 102.428 161.126C105.497 157.501 105.388 153.72 104.913 153.688C104.316 153.609 103.844 157.921 98.9176 161.048C96.2324 162.74 93.0966 163.578 89.9251 163.449C86.7537 163.321 83.6958 162.233 81.156 160.329C78.6166 158.425 76.7155 155.793 75.7044 152.784C74.6932 149.775 74.6197 146.53 75.4936 143.478C76.1542 140.963 77.4558 138.662 79.2712 136.8C81.0807 135.017 83.381 133.816 85.8776 133.349C89.1224 137.973 95.5752 144.286 101.313 143.557C105.846 143.099 110.146 136.773 107.508 128.053C102.321 109.653 108.602 129.59 167.844 87.7966C171.834 90.9502 174.244 99.1406 179.018 98.5006C186.218 117.942 191.938 138.55 188.562 158.997C186.062 159.833 187.353 162.078 188.51 165.323C189.409 167.84 189.921 166.699 186.401 168.091L186.39 168.093Z" fill="#0F0F0F"/>
<path d="M189.911 152.619C188.905 150.683 188.037 148.683 187.109 146.699C186.855 146.263 186.463 145.924 185.995 145.733C185.528 145.543 185.011 145.512 184.524 145.646C183.647 145.955 178.636 147.737 178.146 148.046C175.481 141.915 177.597 142.595 160.002 148.918C149.564 152.669 148.869 152.08 146.58 153.704C144.535 155.157 145.837 156.68 146.58 159.083C145.852 159.344 144.98 159.787 144.612 159.907C143.385 160.315 142.154 160.718 140.932 161.128C140.35 161.296 139.857 161.685 139.558 162.211C139.26 162.737 139.178 163.36 139.332 163.945L141.188 168.993C142.197 171.736 146.628 170.55 145.604 167.776L144.498 164.766C150.513 162.782 153.247 162.627 150.754 156.704C152.194 156.16 153.794 155.857 155.189 155.408C161.173 153.472 167.244 151.062 173.463 148.888C175.911 155.021 178.293 152.787 183.94 150.709C184.589 152.125 185.239 153.541 185.957 154.925C187.316 157.549 191.269 155.233 189.911 152.621V152.619Z" fill="#0F0F0F"/>
<path d="M151.189 168.921C160.309 174.161 171.125 167.524 180.688 161.881C180.997 161.683 181.241 161.4 181.393 161.067C181.544 160.733 181.596 160.363 181.543 160C181.489 159.638 181.332 159.298 181.09 159.023C180.848 158.747 180.532 158.548 180.179 158.448C179.709 158.311 179.203 158.361 178.768 158.587C171.005 163.174 160.511 169.881 153.122 165.627C152.686 165.386 152.173 165.325 151.693 165.457C151.212 165.588 150.802 165.903 150.55 166.332C150.298 166.762 150.224 167.273 150.343 167.757C150.463 168.24 150.766 168.658 151.189 168.921Z" fill="#0F0F0F"/>
<path d="M92.0194 117.338C84.8402 115.205 80.0834 111.371 80.4994 110.701C80.9714 109.944 86.1986 112.4 92.885 114.413C99.573 116.422 105.301 116.925 105.317 117.8C105.336 118.792 98.8114 119.36 92.021 117.338H92.0194Z" fill="white"/>
<path d="M103.239 97.5237C92.3125 91.4805 87.9541 84.2245 88.5429 83.7637C88.9013 83.4821 90.5317 85.0085 93.2773 87.2261C106.745 98.1061 122.821 102.293 122.397 103.724C122.117 104.64 112.084 102.415 103.239 97.5237Z" fill="white"/>
<path d="M118.18 85.2796C108.724 78.5692 102.434 71.5308 102.999 70.9548C103.613 70.326 110.705 76.2349 119.946 82.7949C129.188 89.3549 137.105 94.0796 136.716 94.8796C136.357 95.5948 127.636 91.9836 118.18 85.2796Z" fill="white"/>
<path d="M136.255 72.2431C129.957 64.1951 123.804 58.5167 124.364 57.8239C124.826 57.1839 132.1 61.984 138.66 70.3616C145.22 78.7392 148.133 86.9552 147.392 87.2512C146.586 87.6272 142.56 80.2896 136.255 72.2431Z" fill="white"/>
<path d="M154.485 67.7972C149.604 60.1444 144.231 54.938 144.81 54.2548C145.069 53.9492 146.791 54.8676 149.164 56.898C160.503 66.602 163.945 81.9332 162.684 82.2804C161.82 82.5188 159.361 75.45 154.485 67.7972Z" fill="white"/>
<path d="M172.725 184.849L170.508 185.419C176.545 212.553 176.455 202.427 166.959 223.51C154.362 251.56 168.948 252.232 150.589 223.723C136.365 201.643 138.02 209.697 137.183 199.917L136.181 184.472L133.103 184.643C134.269 210.267 132.825 204.755 140.906 215.936C156.85 238.107 161.804 249.811 163.529 284.339C164.009 294.579 164.247 310.227 164.914 310.227C165.34 310.227 166.137 297.661 166.045 284.267C165.767 255.926 159.213 249.429 170.205 224.971C179.706 203.873 180.434 211.403 172.725 184.849Z" fill="#0F0F0F"/>
<path d="M148.242 238.006C142.12 224.651 129.567 222.806 123.048 213.206C119.764 208.28 120.948 202.19 122.551 183.856C123.726 183.502 124.91 183.176 126.101 182.878L125.632 180.638C86.1555 189.621 77.8595 231.603 78.0371 272.251C78.1219 282.811 75.5523 301.182 84.4995 308.686C88.7891 312.242 95.3043 312.293 100.767 312.125C136.914 310.853 140.186 314.611 140.644 300.894C141.308 276.932 140.023 252.955 136.804 229.2C142.304 233.307 143.703 235.563 145.576 239.28C149.165 245.99 151.953 253.098 153.884 260.458C154.586 263.56 154.818 265.336 155.088 265.325C155.511 265.318 156.868 257.12 148.242 238.006ZM136.255 306.72C134.335 309.133 124.37 307.84 120.973 307.942L111.404 308.248C112.512 291.435 109.831 231.243 108.204 231.394C107.772 231.438 106.684 250.493 107.952 283.902C108.292 292.776 108.471 301.074 108.242 308.349C90.8115 308.901 83.4003 310.187 81.6035 292.747C80.9011 285.632 81.6035 278.062 81.5459 272.232C81.2851 238.074 86.9139 196.981 119.306 184.949C116.274 212.232 114.437 213.546 134.162 227.307C137.876 256.576 138.754 303.563 136.255 306.72Z" fill="#0F0F0F"/>
<path d="M232.016 244.451C228.656 236.307 226.677 232.234 222.242 223.242C210.056 198.64 208.152 188.183 198.242 180.928C194.427 178.075 189.815 176.486 185.053 176.383L184.973 178.671C201.603 179.658 206.614 196.527 211.963 208.839C219.933 227.112 217.739 219.239 230.626 250.245C233.117 256.029 237.312 262.611 236.891 267.971C236.278 274.531 230.744 278.13 224.226 276.696C221.792 276.08 219.416 275.253 217.125 274.226C213.75 272.733 214.149 272.832 212.395 270.826C210.566 260.32 203.275 223.051 201.515 223.394C198.778 223.925 214.44 294.797 214.347 304.216C214.379 306.059 214.162 306.936 211.565 307.624C207.523 308.714 198.717 308.664 194.573 308.523C190.429 308.383 188.973 307.48 188.013 302.458C187.981 302.298 183.083 261.978 181.206 236.018C188.984 226.643 196.494 226.207 198.448 219.032C200.029 213.341 197.186 209.24 180.048 178.778L177.338 180.25C193.018 210.243 194.675 211.555 195.186 215.48C196.026 221.589 189.133 223.96 184.518 228.096C166.662 243.485 169.755 265.835 170.854 265.715C171.794 265.607 169.426 252.691 179.04 238.869C179.752 252.149 180.848 265.403 182.189 277.784C185.798 309.605 182.149 311.723 200.306 311.978C223.059 312.007 217.867 306.858 215.882 289.459C214.837 280.319 213.835 276.531 213.995 276.691C220.947 280.162 228.602 282.429 234.829 278.175C236.434 277.03 237.766 275.546 238.729 273.826C239.693 272.107 240.266 270.197 240.405 268.231C240.835 261.203 236.35 255.439 232.016 244.451Z" fill="#0F0F0F"/>
<path d="M183.812 99.1438C179.858 99.1443 176.023 100.488 172.933 102.954C169.843 105.42 167.682 108.862 166.805 112.717C161.384 113.037 153.7 117.197 150.431 119.757C147.637 117.807 144.335 116.717 140.929 116.621C137.524 116.526 134.166 117.428 131.267 119.218C128.368 121.007 126.057 123.606 124.616 126.693C123.176 129.78 122.671 133.221 123.162 136.592C117.51 137.673 111.704 137.668 106.055 136.576L104.885 139.632C107.838 141.269 111.118 142.228 114.487 142.442C117.857 142.655 121.231 142.116 124.367 140.864C132.384 159.632 161.061 151.52 157.6 131.081C164.183 126.841 161.6 127.699 169.013 125.801C178.293 140.657 201.25 134.027 201.25 116.579C201.25 114.289 200.799 112.021 199.923 109.906C199.047 107.79 197.762 105.868 196.143 104.248C194.523 102.629 192.601 101.345 190.485 100.469C188.369 99.5925 186.102 99.1418 183.812 99.1422V99.1438ZM156.258 126.744C153.876 121.555 152.82 123.518 154.309 121.448C157.316 117.203 160.855 115.784 166.389 117.253C166.447 118.829 166.719 120.39 167.199 121.893C162.69 125.728 162.439 125.841 156.258 126.742V126.744Z" fill="#0F0F0F"/>
<path d="M135.717 132.717L129.819 134.128L131.229 140.026L137.127 138.616L135.717 132.717Z" fill="white"/>
<path d="M140.205 125.408L134.308 126.819L135.716 132.717L141.615 131.307L140.205 125.408Z" fill="white"/>
<path d="M179.424 114.25L173.527 115.661L174.936 121.559L180.834 120.149L179.424 114.25Z" fill="white"/>
<path d="M183.912 106.944L178.015 108.356L179.424 114.253L185.322 112.842L183.912 106.944Z" fill="white"/>
<path d="M262.698 145.952C266.81 147.664 266.521 152.749 265.871 156.908C259.047 200.621 258.478 206.975 251.85 206.615C246.321 206.314 221.698 204.487 217.066 199.38C211.732 193.496 215.25 178.453 215.98 171.138C217.977 151.138 217.831 145.994 222.002 142.562C227.942 137.676 241.377 141.144 245.985 141.642C251.754 142.157 257.4 143.613 262.698 145.952Z" fill="white"/>
<path d="M265.336 146.635C262.035 143.683 255.544 142.384 251.159 141.767C236.991 139.773 231.159 137.615 224.549 140.154C217.647 142.839 217.746 148.965 216.759 156.826C212.56 192.213 209.704 200.016 221.997 203.245C227.858 204.624 250.944 210.17 255.992 206.861C258.659 205.235 259.421 202.415 261.899 189.671C264.071 178.291 267.328 154.535 267.362 152.379C267.452 151.333 267.319 150.279 266.969 149.289C266.62 148.298 266.063 147.393 265.336 146.635ZM218.976 157.104C219.936 149.872 219.413 144.389 225.295 142.048C226.885 141.408 225.848 141.664 224.975 143.226C221.64 149.251 218.255 186.811 218.277 191.016C218.117 194.179 218.76 197.331 220.146 200.179C212.448 197.615 216.096 182.991 218.976 157.104ZM265.405 152.354C265.405 152.594 259.048 202.215 254.728 204.791C253.226 205.751 246.277 205.213 244.615 205.069C237.512 204.261 230.48 202.927 223.575 201.079C219.04 198.442 220.087 188.976 220.679 183.456C225.405 141.528 224.167 140.635 237.159 141.437C256.984 144.381 265.637 145.024 265.405 152.354Z" fill="#0F0F0F"/>
<path d="M262.258 153.053C262.076 149.096 257.101 147.983 253.072 147.338C246.328 146.228 245.36 150.098 245.141 156.86C245.082 158.69 244.048 162.244 248.941 164.069C251.543 164.9 254.231 165.431 256.954 165.648C257.753 165.671 258.54 165.446 259.208 165.006C259.875 164.566 260.391 163.931 260.685 163.188C261.522 159.866 262.048 156.472 262.258 153.053ZM260.295 155.997C258.917 163.405 259.655 164.596 253.356 163.141C246.463 161.488 246.946 160.936 247.09 156.949C247.25 151.314 247.328 148.114 252.85 148.903C255.038 148.983 257.184 149.533 259.141 150.516C261.192 151.86 260.78 153.391 260.295 156V155.997Z" fill="#0F0F0F"/>
<path d="M251.234 153.44C250.964 153.416 250.692 153.445 250.434 153.526C250.175 153.606 249.935 153.737 249.727 153.911C249.519 154.085 249.347 154.297 249.221 154.537C249.095 154.777 249.018 155.04 248.994 155.31C248.969 155.58 248.998 155.852 249.079 156.11C249.16 156.369 249.291 156.609 249.464 156.817C249.638 157.025 249.851 157.197 250.091 157.323C250.331 157.449 250.593 157.526 250.863 157.55C251.408 157.6 251.951 157.43 252.371 157.08C252.791 156.729 253.055 156.226 253.104 155.681C253.153 155.136 252.984 154.594 252.633 154.173C252.283 153.753 251.779 153.489 251.234 153.44Z" fill="#0F0F0F"/>
<path d="M256.603 151.84C256.064 151.803 255.532 151.978 255.121 152.328C254.709 152.679 254.452 153.176 254.403 153.714C254.355 154.252 254.519 154.788 254.861 155.206C255.203 155.624 255.695 155.892 256.232 155.952C256.766 155.981 257.291 155.802 257.696 155.452C258.101 155.102 258.354 154.609 258.402 154.076C258.45 153.543 258.29 153.012 257.954 152.595C257.618 152.178 257.134 151.908 256.603 151.842V151.84Z" fill="#0F0F0F"/>
<path d="M255.258 157.051C254.72 157.014 254.188 157.19 253.777 157.54C253.367 157.891 253.11 158.388 253.062 158.926C253.014 159.463 253.178 159.998 253.52 160.417C253.861 160.835 254.352 161.103 254.889 161.163C255.428 161.201 255.96 161.025 256.371 160.674C256.781 160.324 257.038 159.825 257.085 159.287C257.131 158.75 256.967 158.216 256.626 157.798C256.285 157.381 255.794 157.113 255.258 157.051Z" fill="#0F0F0F"/>
<path d="M237.203 176.103C237.811 176.624 240.674 178.781 241.566 178.706C243.234 178.432 244.859 177.945 246.403 177.258C247.699 176.495 247.222 173.672 245.851 174.02C244.875 174.18 244.712 174.194 244.394 173.991C244.046 173.71 243.802 173.322 243.7 172.888C243.597 172.453 243.643 171.997 243.829 171.591C244.219 170.88 245.029 170.311 244.912 169.544C244.568 168.51 244.08 167.53 243.462 166.632C243.251 166.436 237.003 173.104 236.582 174.904C236.413 175.456 236.926 175.864 237.203 176.103ZM240.075 176.994C239.288 176.505 238.533 175.965 237.816 175.378C237.416 175.039 236.718 175.028 241.765 174.868C241.214 178.4 241.806 178.08 240.075 176.994ZM245.88 176.466C244.508 177.066 243.063 177.485 241.582 177.712C241.734 177.152 241.952 176.148 242.197 174.892C242.48 174.943 244.966 175.924 245.237 176.026C246.099 176.348 246.17 176.274 245.88 176.466ZM244.038 169.132C244.17 169.584 244.304 169.612 244.021 169.988C243.568 170.568 242.368 171.484 242.779 173.058C243.267 174.746 244.258 175.242 245.374 175.058C246.19 174.925 246.074 174.829 246.174 175.324C246.242 175.586 246.242 175.861 246.174 176.124C244.926 175.464 243.63 174.898 242.298 174.432C244.043 165.226 243.04 165.692 244.038 169.132ZM243.238 167.178C240.704 176.413 244.066 173.756 237.613 174.773C238.176 173.455 241.581 169.928 243.237 167.178H243.238Z" fill="#0F0F0F"/>
<path d="M247.112 178.111C246.256 178.186 247.272 177.939 241.464 179.597C240.703 179.682 238.533 178.103 237.944 177.611C235.831 175.835 236.335 174.906 236.077 176.549C235.716 178.864 239.461 187.077 240.237 186.747C242.74 185.677 248.133 177.949 247.112 178.111ZM240.023 186.271C239.444 184.49 238.608 183.016 237.156 178.173C241.668 182.099 241.12 178.722 240.365 183.357C240.194 184.323 240.079 185.298 240.023 186.277V186.271ZM245.052 180.339C243.008 183.187 240.994 185.392 240.292 186.304C241.007 183.663 241.029 180.647 241.192 180.6C241.658 180.533 242.114 180.421 242.557 180.264C246.608 179.114 245.997 179.027 245.052 180.346V180.339Z" fill="#0F0F0F"/>
<path d="M219.819 248.284C219.72 257.463 220.154 276.391 229.108 278.652C230.663 278.914 232.26 278.739 233.722 278.146C235.183 277.552 236.451 276.564 237.383 275.292C239.205 272.718 240.525 269.824 241.272 266.76C244.899 255.1 248.186 246.314 247.373 237.775C247.128 235.196 245.511 237.253 231.136 235.103C228.33 234.684 225.26 233.255 222.45 233.24C219.189 233.224 219.968 234.72 219.819 248.284Z" fill="#FFC5F6"/>
<path d="M249.904 193.713C251.07 192.731 252.047 191.543 252.784 190.209C257.955 183.009 272.48 181.807 267.664 191.713C260.066 207.356 256.727 215.965 249.162 220.513C267.506 241.919 226.738 238.564 218.251 230.538C217.515 229.833 216.927 228.987 216.523 228.051C216.12 227.115 215.908 226.107 215.902 225.087C215.895 224.067 216.093 223.057 216.484 222.115C216.876 221.173 217.452 220.32 218.179 219.605C219.153 218.65 220.365 217.975 221.69 217.65C217.338 215.756 214.194 211.396 211.431 207.537C209.983 205.838 209.106 203.727 208.923 201.503C208.947 199.285 210.781 196.964 212.981 197.236C211.49 195.85 210.277 194.192 209.408 192.351C208.986 191.424 208.833 190.397 208.967 189.387C209.1 188.378 209.515 187.426 210.163 186.641C212.2 184.538 215.666 185.252 218.461 186.117C215.819 184.879 215.439 180.826 217.387 178.653C218.443 177.638 219.776 176.96 221.218 176.703C222.66 176.447 224.146 176.624 225.487 177.213C227.333 178.059 229.046 179.173 230.568 180.517C236.757 185.281 243.213 189.686 249.904 193.713Z" fill="white"/>
<path d="M270.598 188.091C268.888 179.477 254.11 181.859 249.237 192.547C234.886 184.067 228.381 172.422 220.499 174.67C218.974 174.97 217.593 175.774 216.578 176.951C215.562 178.129 214.971 179.613 214.899 181.166C214.856 184.459 216.042 181.92 211.91 182.976C207.488 184.024 204.998 190.576 210.64 196.366C209.706 196.813 208.897 197.482 208.283 198.315C207.669 199.148 207.27 200.12 207.12 201.144C206.378 206.849 214.115 213.704 218.77 217.144C213.429 219.667 213.038 228.664 218.758 232.809C218.155 244.302 218.33 255.822 219.28 267.291C221.387 281.181 230.915 283.931 236.744 278.113C244.512 270.361 248.949 249.88 248.654 237.977C252.965 236.755 255.619 233.902 255.486 229.374C255.385 227.865 255.058 226.38 254.515 224.968C253.746 223.256 252.547 221.772 251.034 220.661C259.861 215.126 262.816 203.741 268.139 194.72C269.566 192.4 270.835 190.813 270.598 188.091ZM226.72 275.542C224.701 273.602 223.382 269.518 222.914 266.691C222.114 261.84 221.352 241.307 221.298 234.253C225.726 236.259 239.512 239.275 246.098 238.472C245.466 252.453 236.458 285.021 226.72 275.542ZM267.021 188.982C266.955 190.401 265.352 191.773 262.637 197.491C259.04 204.96 255.898 214.154 249.6 218.56C242.136 224.074 236.261 222.589 236.181 223.451C236.088 224.037 241.99 225.12 248.469 222.069C252.573 224.552 253.058 230.221 251.349 232.419C247.582 237.539 231.261 233.478 225.109 231.765C219.552 230.187 218.04 227.806 217.88 224.245C217.833 223.706 217.856 223.164 217.949 222.632C218.082 221.709 218.527 220.859 219.21 220.223C219.893 219.588 220.772 219.205 221.702 219.137C228.864 223.582 235.397 224.147 235.451 223.36C235.621 222.25 225.078 220.894 213.107 207.002C211.221 204.728 209.341 201.633 211.565 199.673C211.981 199.31 213.131 198.621 213.558 198.968C223.491 207.016 231.638 208.866 231.994 207.904C232.491 206.579 218.979 199.566 213.128 193.518C212.354 192.871 211.777 192.02 211.462 191.062C211.147 190.103 211.106 189.076 211.344 188.096C213.347 182.317 221.971 192.995 232.101 196.953C234.899 198.062 236.787 198.315 236.986 197.848C237.606 196.408 219.226 186.153 218.485 182.979C217.397 178.721 221.616 177.059 224.928 178.605C229.435 180.702 241.602 193.779 253.261 196.278C255.128 196.686 256.203 196.622 256.25 196.392C256.306 196.072 254.666 195.472 251.997 194.088C256.336 185.129 267.213 184.933 267.024 188.982H267.021Z" fill="#0F0F0F"/>
<path d="M49.503 287.939C52.9638 293.435 56.5782 294.358 62.143 292.943C77.183 289.121 86.879 276.02 86.823 270.588C86.7862 267.068 82.7702 261.726 80.583 259.951C76.6294 256.751 70.8326 256.702 66.0806 258.511C61.3286 260.321 57.3766 263.726 53.5318 267.057C44.9718 274.479 43.1222 277.807 49.503 287.939Z" fill="#FDFE1F"/>
<path d="M87.8964 269.12C87.5444 263.914 81.8916 258.652 77.93 256.991C68.81 253.061 46.8148 265.674 44.698 277.764C44.1428 283.663 49.634 298.564 64.8996 293.655C74.674 290.439 88.8708 279.348 87.8964 269.12ZM75.4772 259.156C78.0484 261.007 76.338 265.743 74.7924 268.484C70.9172 275.415 53.4196 286.837 48.6116 280.476C43.3348 273.408 64.8564 256.596 75.4772 259.162V259.156ZM48.53 282.711C50.7828 284.48 54.3828 284.26 57.1588 283.594C59.9796 286.794 60.69 286.487 62.2356 290.954C55.0404 292.584 51.2836 289.431 48.53 282.711ZM64.2948 290.341C60.7636 285.882 62.1444 287.642 59.7092 282.799C62.6825 281.582 65.4805 279.975 68.0292 278.02C72.1332 282.383 71.0596 279.914 73.802 285.175C70.8795 287.316 67.6817 289.054 64.2948 290.341ZM75.626 283.789C70.7812 279.42 72.6244 280.391 70.122 276.418C72.5273 274.636 74.5958 272.439 76.2308 269.932C77.434 270.636 78.578 271.439 79.65 272.332C80.866 273.508 81.906 275.504 82.6388 276.277C80.7292 279.149 78.36 281.687 75.626 283.789ZM83.8916 273.882C82.6968 273.16 81.5523 272.358 80.466 271.482C79.2516 270.266 78.1764 268.248 77.4404 267.501C78.4942 265.342 78.8354 262.904 78.4148 260.538C83.3604 263.912 86.2276 268.32 83.8916 273.882Z" fill="#0F0F0F"/>
<path d="M263.178 128.208C267.556 122.793 265.885 119.942 262.661 89.5245C262.343 86.5414 260.934 83.7809 258.705 81.7729C256.476 79.7649 253.584 78.6508 250.584 78.6445C249.672 78.6445 252.024 78.4237 219.528 81.8669C216.324 82.2087 213.387 83.8084 211.361 86.3146C209.335 88.8208 208.387 92.0286 208.725 95.2333C212.085 126.992 211.274 128.673 215.866 132.772C217.13 133.907 218.618 134.762 220.234 135.285C221.849 135.807 223.557 135.984 225.245 135.804C255.933 132.561 258.944 133.44 263.178 128.209V128.208Z" fill="white"/>
<path d="M266.721 119.2L263.566 89.4317C263.197 85.9865 261.477 82.8282 258.782 80.65C256.088 78.4719 252.639 77.452 249.193 77.8141L219.433 80.9677C215.988 81.3377 212.83 83.0587 210.652 85.7533C208.474 88.4478 207.453 91.8961 207.814 95.3421C211.039 125.774 210.124 129.347 215.75 133.902C221.35 138.425 224.02 136.875 255.11 133.582C258.555 133.21 261.712 131.487 263.888 128.791C266.065 126.095 267.084 122.646 266.721 119.2ZM224.297 83.0077C251.804 80.0925 249.79 80.2877 250.585 80.2877C253.182 80.2923 255.686 81.2558 257.616 82.9933C259.546 84.7308 260.766 87.1199 261.043 89.7021L263.71 114.861C263.431 117.298 262.332 119.568 260.591 121.297C258.85 123.026 256.573 124.111 254.134 124.373L231.294 126.793C229.886 126.944 228.462 126.815 227.104 126.415C225.746 126.015 224.48 125.351 223.379 124.461C222.278 123.571 221.363 122.472 220.687 121.228C220.011 119.984 219.587 118.619 219.439 117.211C216.924 93.4749 215.635 91.0573 219.353 86.4573C220.637 84.8584 222.353 83.6612 224.297 83.0077ZM254.841 131.04C208.795 135.921 215.171 140.628 210.343 95.0701C210.061 92.3572 210.84 89.6403 212.519 87.4901C214.197 85.3398 216.643 83.9236 219.343 83.5389C212.713 89.3165 215.009 94.7389 217.414 117.419C217.745 120.563 219.228 123.473 221.576 125.589C223.923 127.706 226.971 128.879 230.132 128.885C231.119 128.885 229.492 129.025 254.348 126.39C256.404 126.177 258.377 125.468 260.098 124.324C261.819 123.18 263.237 121.635 264.23 119.822C264.421 122.543 263.549 125.233 261.798 127.325C260.047 129.417 257.553 130.749 254.841 131.04Z" fill="#0F0F0F"/>
<path d="M242.006 120.8C241.686 120.548 236.846 116.361 231.822 112.044C231.559 111.82 231.425 112.16 234.522 108.02C234.727 107.748 234.575 107.8 235.26 108.392C241.798 114.04 241.137 113.656 241.418 113.278C246.164 106.916 246.234 106.816 246.406 106.6L250.19 109.846L242.006 120.8Z" fill="#0F0F0F"/>
<path d="M234.081 102.574L230.298 99.3309L238.458 88.3997L248.799 97.2973L245.812 101.281C244.738 100.363 240.994 97.1357 239.401 95.7581C239.134 95.5197 235.95 100.193 234.081 102.574Z" fill="#0F0F0F"/>
<path d="M239.85 100.934L243.644 104.2L240.634 108.228L236.849 104.96L239.85 100.934Z" fill="#0F0F0F"/>
<path d="M228.111 102.276L231.852 105.502L228.89 109.46L225.166 106.236L228.111 102.276Z" fill="#0F0F0F"/>
<path d="M248.612 103.68C251.899 99.2829 251.555 99.6205 251.715 99.7581C255.555 103.056 255.465 102.838 255.268 103.099C252.228 107.134 252.465 107.019 252.238 106.822C250.54 105.353 248.801 103.878 248.612 103.68Z" fill="#0F0F0F"/>
<path d="M232.991 58.3648C227.976 33.6432 228.468 30.552 222.98 26.9152C221.651 26.0293 220.16 25.4158 218.593 25.1101C217.026 24.8045 215.414 24.8127 213.85 25.1344C189.128 30.1488 186.037 29.6576 182.4 35.1456C178.848 40.504 180.32 42.7984 185.44 68.0112C185.997 70.7545 187.484 73.2217 189.648 74.9963C191.813 76.7709 194.524 77.7442 197.324 77.752C199.06 77.752 197.989 77.8656 223.501 72.6912C226.658 72.0476 229.431 70.1774 231.21 67.4913C232.989 64.8052 233.63 61.5227 232.991 58.3648Z" fill="white"/>
<path d="M233.888 58.1842C229.248 35.2898 229.65 30.2354 223.488 26.1522C217.482 22.1698 214.077 24.1554 189.936 29.0514C188.254 29.3912 186.655 30.0595 185.231 31.0179C183.807 31.9763 182.585 33.206 181.637 34.6368C180.689 36.0676 180.032 37.6712 179.704 39.3561C179.376 41.041 179.383 42.7741 179.725 44.4562L184.54 68.1922C185.142 71.1444 186.744 73.7986 189.076 75.7066C191.408 77.6147 194.327 78.6599 197.34 78.6658C199.213 78.6658 198.269 78.741 223.677 73.589C226.21 73.0758 228.535 71.823 230.356 69.9889C232.177 68.1548 233.414 65.8218 233.909 63.285C234.238 61.5999 234.231 59.8665 233.888 58.1842ZM193.28 30.9666C215.778 26.405 214.776 26.5202 216.263 26.5202C218.689 26.5235 221.041 27.3644 222.919 28.9006C224.798 30.4369 226.088 32.5744 226.573 34.9522L230.816 55.8402C230.568 58.1735 229.583 60.3671 228.005 62.1034C226.426 63.8397 224.336 65.0285 222.037 65.4978L204.397 69.0754C202.977 69.364 201.514 69.3699 200.092 69.0928C198.669 68.8157 197.315 68.261 196.107 67.4604C194.9 66.6597 193.861 65.6289 193.052 64.4268C192.243 63.2247 191.678 61.8749 191.391 60.4546L187.813 42.8162C187.349 40.5165 187.629 38.1289 188.612 35.9987C189.595 33.8685 191.23 32.1061 193.28 30.9666ZM229.845 66.5954C226.636 71.4386 224.191 70.8914 199.431 75.909C196.695 76.461 193.853 75.9053 191.527 74.3638C189.201 72.8222 187.582 70.4208 187.024 67.6866L182.216 43.9522C181.683 41.328 182.17 38.5991 183.579 36.3218C184.988 34.0445 187.212 32.3903 189.799 31.6962C188.316 33.1615 187.221 34.973 186.613 36.9671C186.006 38.9612 185.904 41.0752 186.317 43.1186L189.895 60.757C190.469 63.5935 192.005 66.1447 194.243 67.9794C196.481 69.814 199.284 70.8195 202.178 70.8258C203.893 70.8258 203.159 70.885 222.338 66.9938C224.381 66.5789 226.289 65.6618 227.889 64.3251C229.489 62.9885 230.731 61.2745 231.503 59.3378C231.863 61.8777 231.275 64.4613 229.852 66.5954H229.845Z" fill="#0F0F0F"/>
<path d="M216.867 49.3316L215.142 40.714L216.875 40.3668L218.6 48.9844L216.867 49.3316Z" fill="#0F0F0F"/>
<path d="M197.192 55.9325L193.479 56.6765L191.752 48.0589C194.748 47.4589 197.948 46.2429 198.543 49.2173C198.617 49.5864 198.588 49.969 198.457 50.3222C198.327 50.6755 198.1 50.9854 197.804 51.2173C198.205 51.3466 198.566 51.5787 198.851 51.8906C199.135 52.2025 199.333 52.5834 199.424 52.9954C199.516 53.4074 199.498 53.8361 199.372 54.2391C199.247 54.6421 199.018 55.0052 198.709 55.2925C198.294 55.6768 197.757 55.9033 197.192 55.9325ZM195.48 48.8733L193.786 49.2125L194.183 51.1997L195.879 50.8605C196.1 50.848 196.311 50.7647 196.48 50.6229C196.65 50.4811 196.77 50.2884 196.821 50.0733C196.863 49.8941 196.856 49.707 196.801 49.5315C196.745 49.356 196.644 49.1987 196.506 49.076C196.369 48.9532 196.202 48.8697 196.021 48.834C195.841 48.7984 195.654 48.8119 195.48 48.8733ZM194.487 52.7133L194.911 54.8317C196.62 54.4893 197.92 54.4605 197.663 53.1725C197.44 52.0381 196.594 52.2893 194.487 52.7101V52.7133Z" fill="#0F0F0F"/>
<path d="M205.192 54.3312L203.472 54.6752C202.581 50.2272 203.501 52.0512 199.079 46.592L200.96 46.2144L203.314 49.3568L204.251 45.5568L206.133 45.1792C204.16 51.9232 204.301 49.88 205.192 54.3312Z" fill="#0F0F0F"/>
<path d="M212.77 52.8161L209.056 53.5585L207.33 44.9393C210.325 44.3409 213.525 43.1249 214.12 46.0977C214.194 46.467 214.164 46.8495 214.034 47.2027C213.903 47.5559 213.676 47.8657 213.38 48.0977C213.782 48.2268 214.143 48.4588 214.427 48.7706C214.712 49.0824 214.91 49.4633 215.001 49.8753C215.093 50.2873 215.075 50.7161 214.95 51.1192C214.825 51.5223 214.596 51.8855 214.287 52.1729C213.871 52.5569 213.335 52.7857 212.77 52.8145V52.8161ZM211.058 45.7553L209.364 46.0945L209.76 48.0785L211.455 47.7393C211.604 47.7355 211.75 47.6991 211.884 47.6326C212.017 47.5662 212.135 47.4713 212.228 47.3546C212.32 47.2379 212.387 47.1023 212.422 46.9573C212.456 46.8123 212.459 46.6614 212.429 46.5153C212.386 46.2944 212.271 46.094 212.102 45.9455C211.933 45.797 211.719 45.7087 211.495 45.6945C211.346 45.6843 211.197 45.7067 211.058 45.7601V45.7553ZM210.063 49.5953L210.488 51.7137C212.197 51.3713 213.498 51.3425 213.24 50.0545C213.013 48.9185 212.172 49.1697 210.063 49.6001V49.5953Z" fill="#0F0F0F"/>
<path d="M223.27 43.3088L224.696 50.4272L222.963 50.7744L221.538 43.6544L219.221 44.1184L218.92 42.6192L225.288 41.3392L225.589 42.84L223.27 43.3088Z" fill="#0F0F0F"/>
<path d="M138.535 8.41582C130.897 10.4206 128.114 20.267 127.053 28.0862C124.138 49.5422 123.081 50.8574 155.42 55.4558C158.644 55.9635 161.939 55.1726 164.581 53.2563C167.224 51.34 168.999 48.4545 169.519 45.2318C172.89 22.3822 172.97 22.6878 172.759 21.1582C172.38 18.3998 168.612 13.507 166.553 12.2862C163.535 10.4942 143.49 7.11822 138.535 8.41742V8.41582Z" fill="white"/>
<path d="M171.36 14.9676C167.114 9.27957 162.999 9.88757 142.317 6.89557C138.888 6.4029 135.403 7.29075 132.627 9.36433C129.851 11.4379 128.011 14.5279 127.511 17.9564L124.552 38.3996C124.06 41.8292 124.948 45.3141 127.021 48.0899C129.095 50.8657 132.185 52.7056 135.613 53.206C156.733 56.262 160.199 57.846 165.752 53.7004C171.578 49.3468 170.972 44.3596 173.824 24.6588C174.073 22.9607 173.984 21.2302 173.561 19.5669C173.138 17.9036 172.39 16.3404 171.36 14.9676ZM130.031 18.3276C130.229 16.9597 130.694 15.6442 131.4 14.4562C132.106 13.2682 133.04 12.231 134.147 11.4039C135.254 10.5767 136.514 9.97579 137.853 9.63546C139.193 9.29512 140.586 9.22204 141.954 9.42037L159.978 12.0236C162.09 13.0446 163.823 14.7112 164.926 16.7821C166.028 18.8531 166.443 21.2211 166.111 23.5436C164.047 37.8124 164.445 41.974 159.66 45.5484C154.874 49.1228 151.351 47.6092 136.73 45.494C134.409 45.1579 132.255 44.0912 130.58 42.4485C128.906 40.8058 127.798 38.6725 127.418 36.358L130.031 18.326V18.3276ZM171.311 24.3036C168.271 45.286 168.898 48.1884 164.234 51.6636C159.53 55.1836 156.714 53.6892 135.983 50.6876C133.428 50.315 131.1 49.0175 129.438 47.0414C127.777 45.0653 126.9 42.5481 126.972 39.9676C130.597 47.5484 136.591 47.0204 151.263 49.1356C152.895 49.3767 154.559 49.2913 156.158 48.8846C157.757 48.4778 159.259 47.7577 160.578 46.766C165.66 42.9708 165.3 39.8508 167.628 23.758C167.923 21.7086 167.708 19.6178 167 17.6719C166.292 15.7259 165.115 13.9851 163.572 12.6044C166.072 13.2627 168.243 14.8186 169.669 16.9753C171.096 19.1319 171.679 21.7384 171.306 24.2972L171.311 24.3036Z" fill="#0F0F0F"/>
<path d="M159.829 27.6367C159.733 25.8919 159.268 24.1872 158.465 22.6357C157.661 21.0841 156.536 19.721 155.166 18.6367C153.796 17.5523 152.211 16.7715 150.516 16.3459C148.821 15.9204 147.055 15.8597 145.335 16.168C143.615 16.4763 141.98 17.1465 140.538 18.1342C139.097 19.122 137.882 20.4047 136.973 21.8974C136.065 23.3902 135.484 25.0589 135.269 26.7931C135.054 28.5273 135.21 30.2874 135.726 31.9567C139.854 45.8767 160.733 42.1743 159.829 27.6367ZM155.586 27.4415C152.286 27.0399 152.218 27.0847 152.166 26.8735C151.881 25.9378 151.307 25.116 150.528 24.5248C149.748 23.9337 148.802 23.6034 147.824 23.5807C147.036 23.5566 146.255 23.7289 145.55 24.0823C144.845 24.4356 144.24 24.9588 143.788 25.6047C143.336 26.2505 143.052 26.9987 142.961 27.7818C142.871 28.5648 142.976 29.3581 143.269 30.0901C143.562 30.822 144.032 31.4696 144.637 31.9745C145.243 32.4793 145.964 32.8255 146.737 32.9818C147.51 33.1381 148.309 33.0996 149.063 32.8698C149.817 32.6401 150.502 32.2262 151.056 31.6655C152.306 30.4319 150.694 30.4335 155.704 31.1311C155.31 32.4889 154.532 33.704 153.464 34.6303C152.154 35.8204 150.507 36.5747 148.75 36.7895C146.993 37.0042 145.213 36.6686 143.654 35.8291C142.096 34.9896 140.837 33.6875 140.049 32.1021C139.262 30.5168 138.986 28.7263 139.259 26.9775C140.798 17.2303 154.955 17.5279 156.21 27.4415C156.221 27.5615 156.16 27.5199 155.586 27.4415Z" fill="#0F0F0F"/>
<path d="M228.819 292.831C232.626 297.811 242.719 307.106 249.368 307.627C274.944 309.639 301.86 271.219 294.831 254.639C292.792 250.493 282.748 242.733 279.271 240.861C259.466 230.352 228.658 259.159 225.911 281.157C225.296 285.28 226.342 289.478 228.819 292.831Z" fill="#FDFE1F"/>
<path d="M295.752 254.496C294.593 252.176 292.902 250.163 290.818 248.619C285.915 244.195 279.647 238.447 273.008 237.911C254.288 235.391 233.717 255.411 226.827 273.56C224.73 278.543 224.376 284.087 225.821 289.296C229.17 296.656 240.624 306.143 246.357 307.995C249.379 309.023 254.538 308.68 257.919 307.909C282.373 301.832 301.834 268.53 295.752 254.496ZM293.149 266.336C289.805 264.968 290.383 264.864 287.837 262.474C289.52 256.501 289.127 252.97 288.259 250.163C291.922 253.525 295.642 255.712 293.149 266.336ZM228.291 288.394C222.704 268.483 251.109 237.327 272.687 240.554C277.309 240.991 281.879 244.515 285.402 247.594C295.619 265.341 259.112 306.77 236.922 298.554C233.389 295.784 230.453 292.328 228.291 288.394ZM240.019 301.021C243.883 301.793 247.88 301.573 251.635 300.381C254.096 302.141 254.915 301.611 257.499 304.954C248.747 307.261 244.568 304.359 240.019 301.021ZM259.747 304.275C256.52 302.135 256.744 302.899 253.995 299.517C258.175 297.683 262.092 295.301 265.643 292.434C268.051 294.051 268.378 292.789 272.451 297.008C268.675 300.156 264.375 302.616 259.747 304.275ZM274.147 295.599C269.307 293.247 271.069 294.306 267.53 290.891C271.585 287.439 275.284 283.587 278.57 279.395C282.176 281.36 281.466 279.847 285.197 283.461C282.018 287.938 278.309 292.013 274.151 295.599H274.147ZM286.307 281.839C281.575 279.907 282.821 279.72 280.019 277.474C282.962 273.532 285.352 269.206 287.125 264.618C289.297 265.278 291.213 266.591 292.613 268.378C291.191 273.153 289.064 277.69 286.304 281.839H286.307Z" fill="#0F0F0F"/>
<path d="M236.57 293.074C254.83 304.851 293.028 262.723 280.002 248.248C271.634 238.738 254.11 247.41 245.506 256.466C242.676 259.448 246.284 256.219 249.22 254.034C266.759 241.12 280.362 244.568 280.562 254.963C280.988 271.744 257.706 293.49 243.337 293.256C230.577 293.163 229.452 277.75 240.617 262.546C242.866 259.576 246.086 256.072 243.082 258.856C232.94 268.229 226.166 286.283 236.57 293.074Z" fill="#0F0F0F"/>
<path d="M249.05 272.96C244.763 268.539 245.192 268.822 244.989 269.017C239.389 274.435 239.727 274.054 239.666 274.233C238.56 277.448 238.226 278.012 238.386 278.172C246.917 286.996 246.181 286.352 246.386 286.288C250.525 285.008 250.239 285.148 250.416 284.977C261.757 274.022 261.106 274.71 261.175 274.51C262.339 271.108 262.595 270.731 262.439 270.571C256.744 264.691 257.159 265.257 257.37 265.056C262.17 260.438 262.559 259.854 262.711 260.016C265.527 262.96 265.375 262.657 265.195 262.828C262.562 265.36 262.562 265.291 262.666 265.398C266.965 269.828 266.52 269.532 266.73 269.331C272.343 263.902 271.987 264.304 272.056 264.102C273.415 260.142 273.434 260.288 273.311 260.158C266.383 253.02 265.52 251.852 265.375 252.012C264.091 252.545 262.765 252.966 261.408 253.267C261.186 253.336 261.863 252.745 250.667 263.544C250.475 263.728 250.623 263.456 249.208 267.523C249.135 267.728 248.744 267.243 254.365 273.044C254.525 273.204 254.272 273.262 249.141 278.225C248.951 278.409 249.232 278.545 246.463 275.704C246.253 275.496 249.255 273.172 249.05 272.96Z" fill="#0F0F0F"/>
<path d="M32.0755 118.644C38.4899 122.744 48.4643 127.236 54.6611 127.25C55.9336 127.197 57.1948 126.987 58.4163 126.626C83.5987 120.028 97.4099 72.2997 84.1395 60.1509C82.4573 58.7284 80.5176 57.6421 78.4259 56.9509C71.6915 53.9861 64.9859 50.9156 58.2051 52.3108C30.7347 57.9396 16.1827 108.48 32.0755 118.644Z" fill="#FDFE1F"/>
<path d="M82.1911 57.6703C81.0839 57.0879 71.1959 52.4223 65.2311 51.3695C38.7607 46.4879 15.7367 96.8479 27.6999 115.113C31.8407 121.437 43.2966 126.038 50.7399 127.657C79.9015 134.105 102.561 68.4575 82.1911 57.6703ZM86.7607 72.5951C83.0503 72.3375 83.5799 72.0447 80.3511 70.5471C79.8135 58.4671 74.4199 57.3695 77.5959 58.7983C81.3863 60.5359 85.7815 61.6207 86.7607 72.5951ZM32.3207 116.51C23.0135 108.702 25.8374 80.2303 43.0951 62.9631C47.2647 58.5523 52.6455 55.4728 58.5606 54.1119C63.2006 53.0479 68.7735 55.0047 73.1879 56.8591C88.8231 70.8175 66.6967 122.869 42.4359 122.017C38.8559 120.592 35.4599 118.743 32.3207 116.509V116.51ZM46.2502 123.421C50.257 122.93 54.0736 121.43 57.3431 119.062C60.1623 119.934 60.9734 119.237 64.5159 121.622C56.7286 126.667 51.8071 125.222 46.2551 123.421H46.2502ZM66.4823 120.237C62.6614 119.197 63.0919 119.849 59.3591 117.461C62.8328 114.332 65.8745 110.755 68.4039 106.824C71.1847 107.601 71.1431 106.269 76.4983 109.08C73.8436 113.359 70.4545 117.136 66.4871 120.237H66.4823ZM77.695 107.165C72.1959 106.433 73.9846 106.752 69.7463 104.717C72.5796 100.054 74.938 95.1189 76.7863 89.9855C80.0871 90.5823 79.8471 89.5343 84.5382 91.8063C82.8872 97.183 80.591 102.34 77.6999 107.165H77.695ZM85.0871 89.8719C83.9832 89.8288 82.8843 89.6994 81.8007 89.4847C80.3031 89.0591 78.6007 88.0319 77.5687 87.6511C79.1609 82.8704 80.0938 77.895 80.3415 72.8623C82.6651 72.8071 84.9497 73.4661 86.8871 74.7503C87.0435 79.8515 86.4384 84.9475 85.0919 89.8703H85.0871V89.8719Z" fill="#0F0F0F"/>
<path d="M37.1494 115.349C38.6744 116.315 40.3983 116.924 42.192 117.129C43.9857 117.334 45.8025 117.13 47.5062 116.533C70.2886 109.631 86.151 57.2626 61.5638 57.6802C47.2678 58.0226 36.0278 79.4786 36.6854 79.8114C37.1654 80.0642 41.151 70.6018 51.415 62.9858C57.5462 58.477 63.823 58.6146 67.2646 60.7138C72.271 63.6722 72.7046 73.3538 71.6086 79.469C69.5298 89.5415 64.9422 98.9263 58.271 106.754C42.2118 125.056 25.7382 112.666 34.4614 85.8082C35.719 82.1202 36.687 80.1682 36.5414 80.0962C35.4022 79.5186 23.6982 106.291 37.1494 115.347V115.349Z" fill="#0F0F0F"/>
<path d="M56.6102 68.0081C55.7782 67.7041 54.9286 67.4545 54.063 67.2657C52.391 70.5809 49.7734 78.2833 46.9526 83.9697C46.8454 84.1297 39.663 97.1457 38.5254 100.27C40.7958 101.123 40.3942 100.934 40.7254 101.214C38.9094 104.474 39.9782 108.654 42.3846 102.494C43.2329 103.106 44.1488 103.618 45.1142 104.021C42.367 109.8 45.6134 108.728 47.0934 104.603C56.2742 106.272 58.9334 92.7425 55.5542 86.5985C63.0742 86.4385 66.2054 77.9905 62.0262 72.4705C63.7158 70.0705 63.391 67.5425 62.7814 67.4785C62.1414 67.3937 61.2838 69.4193 60.5734 70.9249C58.1142 68.6689 58.199 69.4433 58.5862 68.6977C60.7126 64.6049 58.7478 63.6545 56.6102 68.0081ZM43.551 98.2721C44.8401 93.8219 46.4414 89.4682 48.343 85.2433C50.307 85.9981 52.0284 87.2736 53.3222 88.9329C57.383 95.4689 52.9414 108.075 43.551 98.2721ZM61.5782 76.6641C61.9319 77.4943 62.0548 78.4046 61.934 79.2989C61.8132 80.1932 61.4532 81.0383 60.8919 81.7449C60.3306 82.4516 59.589 82.9935 58.7452 83.3136C57.9014 83.6336 56.9869 83.7199 56.0982 83.5633C54.1321 83.1109 52.2548 82.335 50.543 81.2673L50.3558 81.6353C50.1958 81.5361 54.5398 74.6529 56.039 72.1729C58.4518 73.2481 60.655 74.3169 61.5782 76.6641Z" fill="#0F0F0F"/>
<path d="M39.7825 169.291C36.9025 170.747 28.2161 176.384 26.3425 178.969C16.6785 192.283 37.6001 234.72 63.0241 236.12C64.2304 236.225 65.445 236.179 66.6401 235.985C72.1665 234.836 84.6897 226.779 87.6929 221.409C97.9601 203.056 66.1649 155.929 39.7825 169.291Z" fill="#FDFE1F"/>
<path d="M49.0471 165.816C42.5543 165.571 35.8119 170.416 30.5335 174.152C28.3304 175.405 26.4574 177.164 25.0695 179.285C18.8151 190.029 28.4567 218.729 48.8455 232.045C60.0359 239.15 69.6935 239.798 84.6023 226.337C86.3793 224.909 87.8428 223.13 88.9015 221.11C96.8887 201.32 71.7975 165.457 49.0471 165.816ZM32.8391 175.945C31.3232 179.758 30.9719 183.934 31.8295 187.945C29.1303 189.941 29.6231 190.149 26.2295 191.083C25.0455 180.606 28.8007 178.864 32.8391 175.945ZM26.5175 193.12C28.0859 191.552 30.0954 190.5 32.2775 190.105C33.4688 194.76 35.2887 199.231 37.6871 203.395C34.7591 205.225 35.8519 205.598 31.0855 206.905C28.8867 202.563 27.3471 197.916 26.5175 193.12ZM31.9687 208.608C36.0039 205.536 35.6839 206.701 38.8663 205.427C41.5707 209.873 44.715 214.037 48.2519 217.854C44.0183 221.07 45.4423 220.221 41.2903 221.657C37.6668 217.699 34.5368 213.315 31.9687 208.603V208.608ZM42.7735 223.221C47.2615 219.566 47.4583 220.821 49.9063 219.566C53.0203 222.757 56.5451 225.52 60.3879 227.781C57.3479 230.731 57.6679 230.008 54.2599 231.734C49.9612 229.59 46.0731 226.707 42.7735 223.216V223.221ZM56.3607 232.661C59.2519 229.709 59.9719 230.325 62.5783 228.899C66.0871 230.486 69.9383 231.16 73.7783 230.856C68.9031 233.6 64.5255 235.902 56.3607 232.651V232.661ZM87.5831 217.326C86.3735 222.136 81.5815 225.787 77.0727 228.817C72.7467 229.814 68.2172 229.43 64.1207 227.72C47.8007 220.689 25.1991 188.147 35.9111 173.789C44.6487 167.829 48.6695 167.709 54.8903 169.128C75.3415 174.317 91.4502 201.955 87.5831 217.317V217.326Z" fill="#0F0F0F"/>
<path d="M78.2403 193.066C77.1922 191.419 75.9685 189.89 74.5907 188.507C74.1827 188.827 81.3411 196.567 82.8515 208.059C84.6115 222.535 73.2595 228.114 59.3651 217.562C51.6385 211.52 45.5627 203.624 41.7011 194.608C39.5187 189.123 38.0707 179.968 42.1811 176.251C45.0003 173.631 50.8211 172.303 57.4275 175.354C69.1811 180.843 73.8691 188.707 74.4019 188.267C74.9043 187.872 60.5555 169.89 46.9315 172.328C23.8259 176.648 48.7347 222.547 71.2899 224.648C83.6195 225.885 90.0371 211.283 78.2403 193.066Z" fill="#0F0F0F"/>
<path d="M59.2884 200.48C60.1209 200.461 60.9385 200.254 61.6796 199.874C62.4206 199.494 63.0659 198.951 63.5668 198.286C64.7737 196.177 65.4111 193.791 65.4163 191.361C65.4163 190.736 65.5075 190.94 65.0339 190.55C58.2436 184.95 59.6356 185.736 48.5396 178.804C48.7248 183.086 49.3684 187.336 50.4596 191.481C53.4852 202.891 51.1796 201.257 59.2884 200.48ZM54.4884 198.942C51.7428 188.371 51.3252 185.952 50.9684 182.811C55.3646 185.407 59.4916 188.435 63.2884 191.849C63.2194 193.703 62.7081 195.513 61.7972 197.129C61.4576 197.518 61.0397 197.83 60.571 198.046C60.1022 198.262 59.5932 198.376 59.0772 198.382C57.5619 198.678 56.0273 198.865 54.4852 198.94L54.4884 198.942Z" fill="#0F0F0F"/>
<path d="M60.0182 208.299C62.5238 209.883 71.415 215.302 74.0726 215.302C74.4662 215.302 74.5526 215.19 75.0822 214.897C75.7926 208.937 73.079 205.763 67.7382 192.901C66.8772 194.452 66.2951 196.143 66.0182 197.896C64.9446 203.609 63.5142 202.265 53.9526 203.393C55.658 205.385 57.7138 207.048 60.0182 208.299ZM59.071 205.011C61.2322 205.019 63.3691 204.556 65.3334 203.654C69.0422 201.625 66.959 195.654 69.031 200.733C71.5014 206.752 73.071 209.997 73.111 212.995C68.903 211.36 58.375 205.051 59.071 205.011Z" fill="#0F0F0F"/>
<path d="M47.7592 52.099C38.7496 58.3854 47.388 52.3454 54.5176 59.011C55.9048 60.307 58.0232 65.0094 58.8376 64.699C59.0184 64.6302 59.0264 64.379 59.0072 64.1918C58.7567 61.307 59.2764 58.4075 60.5133 55.7892C61.7501 53.171 63.6598 50.9281 66.0472 49.2894C67.1496 48.5534 66.74 47.8174 65.4648 47.7742C63.0268 47.7624 60.6167 47.2539 58.3816 46.2798C56.3016 45.0478 53.0152 40.8078 51.5752 38.571C51.668 44.235 50.7752 50.1902 46.0792 53.3518L47.7592 52.099Z" fill="white"/>
<path d="M68.186 48.0109C68.2564 46.9309 61.0356 47.7709 57.2116 44.6125C52.7444 40.9325 51.322 34.8429 50.522 35.1085C49.2148 35.4093 53.0148 45.8013 46.6404 52.0509C44.33 54.3165 41.7236 55.3101 41.9012 55.7741C42.1012 56.9213 51.0084 53.8045 56.4692 63.0173C58.0692 65.6877 59.0052 68.1373 59.4372 68.0909C60.4612 68.0909 57.8884 58.4429 63.8532 51.7885C66.1204 49.3005 68.338 48.4477 68.186 48.0109ZM62.7572 50.7997C59.8537 54.3084 58.2749 58.7255 58.2964 63.2797C57.1689 60.7965 55.3622 58.6828 53.0849 57.1823C50.8077 55.6819 48.1526 54.8559 45.426 54.7997C48.818 53.0205 52.0452 48.4541 51.986 41.2493C51.9748 40.1789 51.834 40.2413 52.2596 40.9837C53.2056 42.8836 54.5893 44.5318 56.2966 45.7927C58.0039 47.0536 59.9862 47.8912 62.0804 48.2365C67.8404 49.1645 66.0516 47.1693 62.7572 50.7997Z" fill="#0F0F0F"/>
<path d="M50.5677 161.136C48.5725 168.038 44.7053 167.448 45.5933 168.76C48.1821 168.53 50.7839 169.025 53.1073 170.19C55.4307 171.354 57.384 173.143 58.7485 175.355C59.0573 175.874 59.4365 176.475 60.0381 176.509C58.8189 163.373 65.3741 162.53 65.8589 160.134C54.5485 160.155 55.4253 156.76 50.7165 152.262C50.4621 154.574 52.3053 155.122 50.5677 161.136Z" fill="white"/>
<path d="M67.1902 160.017C67.171 159.029 60.5902 160.374 56.7982 157.758C52.3614 154.704 50.5902 149.222 49.8718 149.529C48.6942 149.91 53.1038 159.28 47.6446 165.462C45.7246 167.765 43.371 168.859 43.571 169.273C43.8478 170.318 51.8126 166.729 57.5838 174.79C59.2942 177.145 60.3742 179.387 60.7438 179.229C61.5966 178.944 58.5982 170.365 63.4974 163.848C65.387 161.373 67.3598 160.408 67.1902 160.017ZM62.3998 163.022C60.0029 166.489 58.8997 170.688 59.283 174.886C58.2133 173.054 56.74 171.49 54.975 170.313C53.21 169.136 51.1998 168.377 49.0974 168.094C45.7038 167.704 46.395 169.04 48.6734 166.355C49.9364 164.789 50.8591 162.977 51.3825 161.035C51.906 159.092 52.0187 157.062 51.7134 155.073C51.6158 154.088 51.4926 154.155 51.9438 154.806C52.9669 156.481 54.3726 157.89 56.0455 158.917C57.7184 159.944 59.6109 160.559 61.5678 160.713C66.9902 161.107 65.155 159.411 62.3998 163.022Z" fill="#0F0F0F"/>
<path d="M143.17 248.32C137.824 245.76 133.381 247.707 128.685 250.296C116.515 257.003 127.351 276.201 138.133 284.659C148.853 293.061 159.45 283.67 158.861 272.891C158.333 263.2 148.845 251.04 143.17 248.32Z" fill="#FDFE1F"/>
<path d="M160.172 271.654C158.423 262.854 149.496 247.576 138.957 245.697C133.06 245.132 118.148 250.585 123.018 265.857C127.794 280.465 144.138 296.352 155.064 285.136C160.212 280.132 161.061 276.628 160.172 271.654ZM157.492 276.523C155.634 279.083 150.904 277.369 148.165 275.816C141.226 271.913 129.871 254.376 136.237 249.606C143.29 244.368 160.103 265.836 157.492 276.523ZM134.008 249.518C132.236 251.758 132.442 255.361 133.104 258.145C129.832 261.025 130.159 261.688 125.744 263.203C124.116 256 127.295 252.249 134.008 249.518ZM126.34 265.264C130.853 261.707 129.194 263.043 133.893 260.697C135.103 263.669 136.703 266.467 138.652 269.017C135.549 271.923 137.085 271.87 131.484 274.777C129.343 271.856 127.612 268.655 126.34 265.264ZM132.864 276.612C137.226 271.795 136.314 273.588 140.25 271.126C142.026 273.536 144.217 275.609 146.72 277.249C146.007 278.446 145.205 279.587 144.32 280.664C144.32 280.929 140.876 283.163 140.367 283.643C137.497 281.727 134.963 279.351 132.864 276.612ZM152.973 282.942C151.715 284.337 150.036 285.284 148.191 285.638C146.346 285.991 144.436 285.733 142.751 284.902C143.476 283.708 144.28 282.566 145.159 281.481C146.376 280.27 148.397 279.2 149.146 278.465C151.303 279.524 153.74 279.871 156.106 279.456C155.193 280.729 154.142 281.898 152.973 282.942Z" fill="#0F0F0F"/>
</svg>
