<svg width="320" height="320" viewBox="0 0 320 320" fill="none" xmlns="http://www.w3.org/2000/svg">
<path d="M184.008 257.904C193.288 272.355 194.426 273.629 196.765 274.029C197.95 274.175 199.153 274.08 200.3 273.748C201.447 273.416 202.515 272.854 203.439 272.097C204.617 271.329 205.482 270.166 205.879 268.817C206.275 267.468 206.178 266.021 205.604 264.737C203.696 258.744 178.682 219.43 169.831 229.402C165.458 234.35 174.804 243.574 184.008 257.904Z" fill="#FFC5F6"/>
<path d="M263.967 264.48C263.732 262.353 262.886 260.339 261.533 258.682C258.541 254.168 255.111 249.961 251.293 246.122C247.176 242.165 241.938 239.575 236.294 238.705C230.65 237.835 224.875 238.728 219.757 241.261C214.092 244 208.781 250.232 207.976 253.154C206.738 257.827 206.663 262.733 207.757 267.443C206.266 270.037 204.437 272.42 202.317 274.531C193.184 274.861 194.544 274.934 187.104 264.315C183.144 268.086 179.559 270.472 183.388 279.906C186.122 286.645 192.247 294.578 196.828 300.083C201.277 305.434 204.877 306.075 211.024 304.813C220.3 302.906 264.986 275.35 263.967 264.48Z" fill="white"/>
<path d="M261.195 254.214C254.768 245.44 248.32 238.578 237.469 236.8C220.776 233.971 206.157 245.486 204.709 259.99C200.187 252.715 189.256 232.709 178.439 226.933C170.919 222.965 165.781 227.93 166.471 233.562C167.181 238.81 169.408 240.602 185.487 264.293C184.867 264.883 184.149 265.478 183.386 266.187C174.733 274.424 186.984 290.323 193.695 299.267C195.997 302.336 198.235 305.176 201.829 306.651C211.339 310.546 224.135 301.272 233.69 295.838C242.083 290.922 260.667 277.856 264.938 270.102C268.458 263.509 265.018 259.432 261.195 254.214ZM184.271 255.824C175.935 242.854 167.456 234.091 170.858 230.302C177.715 222.403 201.811 257.4 204.32 265.144C205.12 267.704 204.618 268.933 203.68 270.026C202.319 271.543 200.457 272.519 198.435 272.776C194.927 273.187 194.104 271.014 184.271 255.824ZM261.643 268.325C257.853 275.205 239.205 288.254 231.805 292.637C222.967 297.723 209.04 308.235 200.943 302.237C217.903 300.658 243.458 280.627 255.245 268.216C270.995 251.629 235.629 286.456 211.483 296.206C207.155 298.05 202.512 299.042 197.808 299.128C191.56 291.608 178.175 274.853 185.187 268.024C185.712 267.498 186.323 266.962 186.927 266.371C190.307 271.213 192.559 276.232 198.058 276.03C190.891 279.266 186.869 271.982 186.498 272.117C184.499 272.843 195.741 288.371 207.651 270.085C209.69 275.502 213.015 279.165 213.367 278.856C214.085 278.342 205.527 267.162 209.266 253.555C216.162 239.186 236.056 235.075 248.741 245.661C254.039 250.526 258.557 256.177 262.138 262.416C262.529 263.369 262.688 264.401 262.602 265.427C262.516 266.454 262.187 267.445 261.643 268.32V268.325Z" fill="#0F0F0F"/>
<path d="M305.685 125.325C305.525 120.595 299.669 118.954 294.901 119.837C286.72 121.367 285.058 130.837 278.48 137.325C276.312 139.188 273.867 140.703 271.234 141.816C257.544 134.181 253.384 118.922 240.179 121.803C237.098 122.477 236.728 125.36 237.728 129.011C236.277 127.485 231.008 125.456 227.301 127.237C226.247 127.699 225.352 128.461 224.729 129.429C224.106 130.396 223.781 131.526 223.797 132.677C224.055 135.453 226.773 136.531 231.41 144.127C234.365 148.987 236.223 152.709 237.97 155.704C238.196 159.228 238.669 162.731 239.386 166.189C243.135 177.73 260.869 181.68 273.933 175.407C281.147 171.928 281.683 168.175 282.381 165.263C297.994 156.05 299.21 142.063 304.432 129.509C305.15 128.223 305.578 126.794 305.685 125.325Z" fill="white"/>
<path d="M240.213 169.573C201.951 175.984 205.111 185.91 215.907 186.338C221.794 186.722 224.671 185.805 257.632 179.883C250.218 177.76 244.715 176.661 240.213 169.573Z" fill="#FFC5F6"/>
<path d="M288.961 119.899C282.721 124.616 277.871 140.134 270.522 138.552C268.984 137.568 267.517 136.478 266.132 135.29C261.999 131.821 258.556 126.587 254.015 123.15C247.786 118.136 235.423 116.699 234.801 125.139C227.055 121.752 219.45 128.59 221.82 134.6C222.717 136.966 224.274 138.155 226.351 140.944C230.533 146.544 233.42 152.925 237.081 158.32C236.959 160.231 236.99 162.15 237.173 164.056C238.473 176.949 253.644 182.776 266.385 180.182C274.249 178.568 283.535 173.622 283.228 165.794C298.74 158.043 300.767 144.178 307.277 128.696C311.463 118.746 297.105 113.65 288.961 119.899ZM304.308 125.922C304.157 126.922 303.469 127.936 301.857 132.462C296.156 148.451 293.129 161.086 274.305 167.323C261.034 171.643 275.348 169.056 280.569 166.984C277.529 179.125 242.375 183.165 239.876 161.998C244.252 166.621 254.241 170.722 264.138 170.05C268.724 169.704 270.889 169.182 264.153 168.582C256.738 167.87 247.673 165.138 242.935 160.363C238.327 155.749 234.741 144.706 226.969 135.738C225.716 134.286 224.682 132.954 225.317 131.155C226.636 127.656 231.877 126.584 235.282 129.325C236.692 134.68 242.802 144.611 245.311 147.642C248.78 151.933 253.06 153.024 258.469 153.966C268.575 155.504 269.765 154.55 259.058 151.368C250.804 148.784 249.567 147.992 245.266 140.946C240.266 132.582 233.917 122.066 243.289 122.92C255.793 123.896 256.988 136.629 272.954 144.2C282.5 148.637 290.055 146.507 289.895 145.75C289.794 144.752 283.893 145.965 275.041 141.374C286.213 136.218 285.692 120.218 298.578 121.014C302.41 121.248 304.641 123.68 304.309 125.92L304.308 125.922Z" fill="#0F0F0F"/>
<path d="M239.804 171.005L239.5 168.605C231.039 169.346 205.74 173.685 206.303 182.181C206.884 190.874 220.727 189.139 229.296 187.379C233.448 186.526 255.279 181.779 260.551 180.523L260.071 178.146C237.442 181.766 210.253 189.15 210.007 181.986C209.578 177.381 235.008 171.8 239.804 171.005Z" fill="#0F0F0F"/>
<path d="M236.49 149.87C235.53 128.034 227.483 107.459 211.287 92.552C214.637 88.1136 212.567 83.168 208.381 79.4752C203.44 75.3634 197.966 71.9398 192.106 69.2976C185.477 66.6704 174.285 64.3952 169.893 70.024C168.856 71.3488 169.405 71.2736 168.538 71.0864C156.656 68.4242 144.372 68.0825 132.36 70.08C120.376 72.1248 121.037 75.1168 118.419 73.7856C116.418 72.768 117.015 67.9856 108.317 70.7728C102.999 72.5966 98.0058 75.2579 93.5267 78.656C90.1315 81.1872 88.2659 82.592 88.9091 86.9664C89.6115 91.744 88.4291 91.3184 84.6387 94.1968C79.3955 98.1968 71.7907 110.878 68.0435 120.461C60.4323 139.926 64.6611 151.306 58.6179 155.237C57.2263 155.959 56.1071 157.114 55.4291 158.528C52.2515 165.234 60.1955 187.979 63.4995 195.741C67.4275 204.968 71.6275 202.968 74.2099 203.634C81.5107 205.454 82.6899 222.869 116.189 234.994C130.762 240.274 134.109 238.883 134.669 240.042C136.293 243.44 140.171 244.16 143.597 244.842C152.578 246.397 161.815 245.443 170.288 242.083C172.712 241.133 175.272 239.867 176.259 237.432C176.983 235.651 175.827 236.646 179.687 235.21C184.946 233.224 188.211 231.106 194.032 229.29C199.952 227.435 198.629 229.44 202.755 229.301C210.533 228.557 219.453 220.701 220.003 212.466C220.154 210.226 219.093 209.114 220.003 206.878C230.381 187.824 237.44 172.96 236.49 149.87Z" fill="#FDFE1F"/>
<path d="M105.193 128.441C113.193 117.71 131.145 120.179 135.687 131.131C136.658 133.473 140.341 149.542 137.346 150.899C135.893 151.557 127.487 147.979 120.938 147.859C115.941 147.763 110.201 149.445 105.738 150.547C103.642 151.062 102.924 150.585 102.205 148.521C101.061 145.18 100.735 141.612 101.255 138.118C101.774 134.624 103.125 131.305 105.193 128.441Z" fill="white"/>
<path d="M133.364 170.469C129.348 172.368 118.218 175.04 117.065 183.776C116.532 187.813 118.505 191.44 123.74 192.555C135.279 195.016 140.22 182.515 163.305 187.323C179.927 190.784 181.78 191.349 184.615 191.163C191.479 190.726 193.61 184.627 190.599 179.558C185.071 170.251 155.268 160.109 133.364 170.469Z" fill="white"/>
<path d="M237.295 149.838C235.938 124.629 226.12 105.021 212.386 92.4463C213.317 90.9459 213.787 89.2055 213.738 87.4405C213.69 85.6755 213.124 83.9636 212.112 82.5167C209.503 78.3743 198.143 69.8559 187.746 66.9359C181.32 65.1759 172.109 64.6319 168.72 70.2959C155.418 67.3313 141.636 67.2386 128.295 70.0239C121.752 71.3391 119.655 74.9487 117.988 72.1455C114.797 66.7919 108.789 69.2799 103.213 71.9999C98.6108 74.0981 94.3166 76.8156 90.4501 80.0767C89.5859 80.7835 88.9089 81.692 88.4786 82.7222C88.0484 83.7523 87.8781 84.8725 87.9828 85.9839C88.314 90.4079 89.3189 89.9711 85.1364 92.8399C79.5717 96.4879 72.2261 109.04 69.4565 115.093C66.2565 122.014 63.1989 129.882 61.3749 147.614C60.2389 156.834 57.0325 152.976 54.7189 158.144C51.3301 165.322 59.8389 189.576 63.2965 197.23C67.3157 205.496 71.5701 203.744 74.0005 204.408C79.4965 205.91 89.8692 232.958 133.944 240.392C135.733 244.11 139.786 244.925 143.461 245.635C152.589 247.229 161.98 246.259 170.588 242.834C174.013 241.488 176.237 240.149 177.32 236.875C183.116 235.131 194.178 229.195 197.575 229.317C199.215 229.371 200.983 230.354 203.101 230.062C211.855 229.133 222.287 219.395 220.584 209.851C219.68 204.392 239.005 183.787 237.295 149.838ZM230.575 176.078C227.49 187.373 222.24 196.442 218.716 203.302C217.384 205.891 216.368 206.942 217.044 210.438C218.407 218.224 209.204 226.131 202.792 226.877C201.512 227.142 199.935 226.312 197.639 226.226C193.623 226.086 182.711 232.21 177.725 234.106C177.296 224.397 157.405 226.728 157.597 227.918C157.701 228.61 172.637 228.238 174.36 233.16C174.574 234.042 174.519 234.968 174.202 235.819C173.885 236.67 173.321 237.406 172.581 237.933C165.319 243.075 136.719 245.144 136.485 237.738C136.282 231.282 151.007 230.322 150.973 229.435C150.943 228.475 133.373 228.227 133.36 237.778C133.36 237.938 106.506 233.891 86.9365 213.205C81.6293 207.482 80.0868 202.509 74.8389 201.045C71.7764 200.288 69.4981 202.029 66.5189 195.702C62.4372 186.394 59.5678 176.599 57.9813 166.56C56.5124 158.435 59.17 158.72 61.538 156.75C69.314 150.125 60.5541 128.019 83.7781 99.0175C87.5781 94.3919 92.6101 94.2751 91.9061 88.1887C91.6709 85.8623 90.89 84.4607 92.8164 82.7391C96.426 79.6647 100.435 77.093 104.735 75.0943C108.92 72.9951 113.232 70.7455 115.184 73.8959C118.224 78.6527 122.24 75.5935 125.125 74.4031C131.405 71.5967 149.058 69.0431 167.914 72.6543C167.114 79.7103 181.386 85.1503 181.664 83.9071C181.724 83.6399 180.535 83.1167 178.552 81.8383C163.383 72.2271 173.375 66.5903 186.741 70.4783C195.189 73.0095 206.77 80.7423 209.197 84.3983C212.464 89.1375 209.85 94.7119 200.052 92.7983C195.592 91.9327 192.532 90.3775 192.311 90.7615C191.796 91.6287 203.815 98.8735 210.588 94.1967C231.52 114.701 238.34 148.771 230.56 176.077L230.575 176.078Z" fill="#0F0F0F"/>
<path d="M213.733 116.654C213.315 116.891 220.816 130.526 218.235 135.387C217.024 137.745 214.431 138.326 211.424 134.934C212.525 134.516 213.443 133.726 214.021 132.7C214.598 131.675 214.798 130.479 214.584 129.321C214.229 126.459 208.784 116.104 208.568 115.721C205.554 110.318 200.827 110.358 198.994 113.129C198.514 106.878 203.008 103.947 209.325 110.814C214.808 116.462 209.248 108.846 207.565 107.435C203.165 103.765 199.536 104.693 197.624 108.883C194.949 115.197 200.155 123.032 204.727 129.8C207.269 133.515 209.835 137.408 212.767 138.881C216.97 141.093 221.077 137.477 220.767 132.693C220.419 126.36 214.317 116.192 213.733 116.654ZM199.442 114.88C199.621 113.177 202.002 111.717 204.509 113.293C206.779 114.637 207.888 117.857 209.426 120.931C212.306 126.683 212.925 127.865 213.181 129.521C213.408 130.45 213.273 131.43 212.803 132.262C212.333 133.095 211.564 133.717 210.651 134.001C205.151 127.062 198.136 114.789 199.442 114.881V114.88Z" fill="#0F0F0F"/>
<path d="M122.375 215.794C119.104 211.981 107.605 205.44 102.4 203.235C94.3221 200.138 91.0517 206.501 93.9653 211.486C97.1301 216.986 107.149 223.314 107.461 222.64C107.728 222.238 94.8933 213.435 95.0165 207.933C95.0373 205.275 97.0965 203.598 101.303 205.274C100.507 206.141 100.042 207.261 99.9876 208.436C99.9332 209.612 100.293 210.77 101.005 211.707C102.634 214.144 112.333 221.046 112.495 221.157C117.647 224.645 121.824 222.429 122.213 219.166C125.042 223.864 122.904 228.096 117.413 226.821C115.653 226.614 106.533 223.05 113.671 226.722C124.268 232.52 128.89 223.344 122.375 215.794ZM117.213 221.502C114.581 221.325 112.143 218.942 109.388 216.891C104.938 213.574 103.234 212.398 102.168 210.906C101.546 210.179 101.226 209.242 101.271 208.286C101.317 207.331 101.726 206.429 102.415 205.765C109.85 209.206 122.336 217.25 121.026 217.805C121.634 219.411 120.16 221.782 117.213 221.502Z" fill="#0F0F0F"/>
<path d="M206.071 188.32C203.64 192.168 197.405 203.256 197.724 207.84C197.944 212.16 202.684 213.682 206.263 211.24C210.991 208.054 215.93 198.771 215.268 198.51C214.692 198.19 205.858 213.71 200.868 209.71C199.807 208.864 199.767 207.046 200.346 205.174C201.178 205.787 202.194 206.098 203.227 206.058C204.259 206.017 205.247 205.627 206.029 204.952C207.613 203.733 208.676 201.949 211.296 197.96C213.02 195.339 215.076 192.747 215.008 189.933C215.072 188.913 214.755 187.905 214.119 187.106C213.483 186.306 212.573 185.77 211.565 185.602C213.701 184.181 216.709 183.766 217.757 185.781C219.472 188.838 216.66 195.01 217.226 195.208C217.546 195.318 218.866 192.046 219.101 191.368C222.618 181.685 212.32 178.806 206.071 188.32ZM210.184 186.829C211.535 186.221 213.66 187.365 213.588 189.931C213.588 192.133 212.13 193.758 207.544 200.827C206.896 201.945 206.088 202.963 205.144 203.846C204.564 204.414 203.795 204.748 202.983 204.785C202.172 204.822 201.376 204.559 200.746 204.046C203.786 196.112 209.775 186.024 210.184 186.835V186.829Z" fill="#0F0F0F"/>
<path d="M172.744 86.2399C168.879 83.0399 159.784 81.1439 159.724 81.7711C159.647 82.1055 168.423 84.5791 171.599 87.5311C173.914 89.7119 173.538 92.8351 169.082 92.7711C169.395 91.9135 169.407 90.9753 169.116 90.1101C168.825 89.2449 168.249 88.5042 167.482 88.0095C166.056 86.9727 164.317 86.5263 160.252 85.2895C157.613 84.4895 154.896 83.3839 152.528 84.1391C151.648 84.3381 150.874 84.8565 150.354 85.5939C149.834 86.3313 149.606 87.2353 149.714 88.1311C146.116 85.1071 147.122 81.6271 152.74 81.3023C153.985 81.3354 155.23 81.2166 156.447 80.9487C156.466 80.5823 146.748 78.5951 146.08 84.1599C145.749 86.8991 147.912 89.4975 150.56 90.9679C153.933 92.8495 164.522 94.6783 168.714 94.7983C175.485 94.9759 176.383 89.2191 172.744 86.2399ZM151.093 88.9743C150.879 88.6292 150.756 88.2354 150.735 87.8297C150.714 87.424 150.797 87.0197 150.975 86.6547C151.154 86.2896 151.422 85.9759 151.754 85.7427C152.087 85.5095 152.473 85.3646 152.877 85.3215C154.754 84.7679 156.557 85.6271 163.608 87.7343C164.717 88.0044 165.779 88.4356 166.762 89.0143C167.389 89.3647 167.864 89.9343 168.096 90.6143C168.33 91.2911 168.304 92.0335 168.024 92.6943C161.708 92.1887 150.376 89.6543 151.093 88.9743Z" fill="#0F0F0F"/>
<path d="M86.9062 106.115C86.5014 105.784 80.2662 112.525 76.2438 122.744C72.7862 131.467 70.0262 147.224 70.9638 157.784C71.4726 163.666 72.5638 167.155 72.847 167.098C73.199 167.038 72.6982 163.461 72.6246 157.71C72.7956 146.091 74.6987 134.562 78.271 123.504C82.0806 112.888 87.3846 106.504 86.9062 106.115Z" fill="#0F0F0F"/>
<path d="M199.789 88.5296C203.084 89.2272 204.842 86.3872 203.607 84.5744C201.832 82.0736 191.9 77.0848 191.564 77.8544C191.338 78.3344 203.165 85.0976 201.612 86.2256C199.852 87.4224 175.548 75.2464 179.866 74.0336C181.756 73.5424 185.229 74.7328 185.336 74.5536C185.565 74.1648 182.405 72.2528 179.592 72.5648C177.639 72.8016 176.712 75.4592 180.012 78.2368C184.847 82.2032 195.788 87.6224 199.789 88.5296Z" fill="#0F0F0F"/>
<path d="M141.834 237.4C141.808 238.029 147.78 238.733 155.114 237.966C162.445 237.225 168.148 235.321 167.996 234.71C167.844 234.061 162.032 234.905 154.876 235.629C147.711 236.379 141.85 236.733 141.834 237.4Z" fill="#0F0F0F"/>
<path d="M207.84 218.33C201.32 223.661 202.795 225.49 209.328 220.15C215.861 214.811 214.367 212.99 207.84 218.33Z" fill="#0F0F0F"/>
<path d="M103.555 81.5615C112.811 76.2623 109.711 75.3327 102.389 79.5215C95.3427 83.5423 93.9875 87.0207 103.555 81.5615Z" fill="#0F0F0F"/>
<path d="M145.972 204.813C142.932 201.582 127.185 196.475 125.661 202.027C125.555 202.71 125.637 203.409 125.896 204.05C126.156 204.691 126.585 205.249 127.137 205.665C129.247 207.693 133.057 208.377 133.183 208.077C133.417 207.526 130.234 206.75 128.354 204.533C122.594 197.731 147.927 205.089 144.98 208.11C144.292 208.558 143.485 208.787 142.665 208.765C138.985 208.859 136.597 208.217 136.516 208.555C136.298 209.16 143.729 211.824 146.341 209.504C146.909 208.83 147.189 207.96 147.119 207.082C147.05 206.204 146.638 205.389 145.972 204.813Z" fill="#0F0F0F"/>
<path d="M188.221 93.0304C187.537 92.8992 187.149 93.0016 187.119 93.1504C187.023 93.4976 188.399 93.9264 189.53 95.5504C190.759 97.2688 190.845 100.242 189.159 98.9776C186.903 96.9829 184.853 94.7664 183.041 92.3616C175.101 83.8016 185.01 100.042 188.641 101.322C189.253 101.583 189.938 101.622 190.577 101.434C191.216 101.245 191.769 100.84 192.141 100.288C193.684 97.816 191.281 93.6368 188.221 93.0304Z" fill="#0F0F0F"/>
<path d="M87.8311 142.88C87.6295 142.998 88.2231 149.374 86.2791 150.059C85.7751 150.336 84.1991 149.955 83.6375 148.139C82.8567 145.758 84.4295 143.074 83.5431 138.314C83.0263 135.63 82.1031 134.198 81.8247 134.299C81.5047 134.416 81.8247 135.992 81.8919 138.49C82.0039 143.918 78.9383 149.861 84.4663 152.101C86.1943 152.851 88.2855 152.142 89.0775 149.381C89.9527 146.147 88.3831 142.488 87.8311 142.88Z" fill="#0F0F0F"/>
<path d="M203.52 175.629C203.264 175.381 202.151 176.022 201.996 177.678C201.974 178.277 202.096 178.873 202.352 179.414C202.609 179.956 202.992 180.428 203.469 180.79C203.947 181.153 204.505 181.394 205.097 181.494C205.688 181.593 206.294 181.549 206.864 181.363C207.435 181.179 207.953 180.86 208.373 180.432C208.793 180.004 209.104 179.481 209.277 178.907C209.451 178.334 209.484 177.727 209.374 177.138C209.264 176.549 209.014 175.995 208.645 175.523C207.548 174.272 206.273 174.403 206.209 174.757C206.138 175.155 207.917 176.344 207.365 178.019C207.251 178.28 207.082 178.514 206.871 178.705C206.659 178.896 206.41 179.04 206.139 179.128C205.868 179.216 205.581 179.245 205.298 179.214C205.014 179.183 204.741 179.093 204.495 178.949C203.041 177.888 203.824 175.915 203.52 175.629Z" fill="#0F0F0F"/>
<path d="M67.4052 178.616C62.0724 156.766 59.7252 157.099 65.1236 179.173C68.9604 194.675 74.1812 206.022 67.4052 178.616Z" fill="#0F0F0F"/>
<path d="M148.7 102.699C148.1 100.789 147.22 99.8896 146.953 100.026C146.647 100.186 146.953 101.29 147.068 103.013C147.733 113.203 140.594 98.6064 139.677 98.9072C139.357 99.0096 139.476 100.227 140.109 102.014C143.916 112.706 150.833 109.674 148.7 102.699Z" fill="#0F0F0F"/>
<path d="M138.959 150.608C141.647 141.488 139.138 129.912 131.549 124.093C128.116 121.431 123.904 119.968 119.56 119.928C115.216 119.888 110.978 121.273 107.496 123.87C98.9971 130.136 97.2563 142.278 101.459 150.712C96.1795 153.515 92.2627 157.491 92.7395 158.037C93.5939 159.017 102.968 150.542 118.715 149.843C134.655 149.134 144.522 156.793 145.315 155.701C145.583 155.334 143.437 153.019 138.959 150.608ZM103.704 149.614C101.854 144.72 101.883 139.313 103.784 134.438C107.96 123.105 123.645 119.062 132.813 130.533C136.503 136.101 137.869 142.892 136.618 149.454C131.426 147.176 125.814 146.013 120.144 146.041C114.474 146.068 108.874 147.286 103.704 149.614Z" fill="#0F0F0F"/>
<path d="M118.881 129.138C116.151 131.453 117.516 138.078 125.631 138.805C119.786 142.026 124.058 152.741 130.119 149.008C138.548 143.821 126.709 122.501 118.881 129.138Z" fill="#0F0F0F"/>
<path d="M140.321 123.113C134.284 116.161 127.812 115.648 127.989 114.595C128.132 113.744 136.383 114.475 142.353 121.349C148.258 128.152 147.892 136.497 147.025 136.518C146.095 136.541 146.004 129.667 140.321 123.113Z" fill="#0F0F0F"/>
<path d="M110.956 170.731C106.708 175.267 106.521 180.046 105.647 180.019C104.701 179.99 104.498 173.688 108.993 168.891C113.604 163.968 119.799 164.013 119.873 164.827C119.959 165.677 115.127 166.28 110.956 170.731Z" fill="#0F0F0F"/>
<path d="M193.991 182.99C193.005 176.742 188.314 173.213 182.525 170.382C164.469 161.149 141.105 162.883 123.746 173.413C109.229 182.426 116.625 192.472 125.303 193.902C132.74 194.978 139.468 190.398 145.817 188.544C160.505 184.173 176.537 195.424 187.525 192.224C192.481 190.77 194.655 187.2 193.991 182.99ZM188.783 187.526C180.391 193.523 161.903 179.904 144.839 185.286C137.685 187.526 125.479 195.744 119.249 187.31C136.7 179.557 148.519 179.424 148.417 178.326C148.362 177.646 134.201 177.781 118.156 184.853C117.449 180.853 121.628 177.763 125.13 175.752C154.37 159.262 188.084 171.978 190.209 183.235C171.444 174.24 150.733 177.622 150.721 177.92C150.679 179.939 169.615 175.906 189.973 186.123C189.679 186.667 189.273 187.142 188.783 187.52V187.526Z" fill="#0F0F0F"/>
<path d="M97.1107 103.05C95.4099 104.763 93.8163 106.358 94.3491 108.734C94.8886 110.599 95.86 112.309 97.1843 113.728C101.984 118.957 106.845 113.205 112.447 110.832C120.652 107.272 127.84 112.938 131.426 107.498C140.455 93.8031 113.28 86.7487 97.1107 103.05Z" fill="#0F0F0F"/>
<path d="M181.154 129.221C172.561 130.248 166.234 133.449 166.546 134.245C166.788 134.859 170.129 134.174 174.973 133.377C178.333 140.789 187.434 137.121 186.626 131.894C192.322 131.397 196.447 131.301 196.546 130.581C196.652 129.733 189.741 128.149 181.154 129.221Z" fill="#0F0F0F"/>
<path d="M182.869 140.085C175.421 140.934 169.338 140.363 169.336 139.637C169.336 138.877 175.282 138.24 182.565 137.41C189.848 136.579 195.784 135.861 195.956 136.61C196.117 137.31 190.317 139.237 182.869 140.085Z" fill="#0F0F0F"/>
<path d="M193.093 152.225C188.529 148.928 183.061 147.117 177.431 147.038C171.801 146.96 166.284 148.618 161.631 151.787C166.73 143.691 166.283 131.718 159.059 121.888C167.114 124.715 173.311 119.648 176.191 111.6C177.035 109.155 176.763 108.865 176.927 109.785C177.654 113.393 179.578 116.649 182.385 119.028C185.193 121.407 188.721 122.769 192.399 122.894C195.183 122.926 196.763 122.174 196.704 121.774C196.514 120.494 184.487 121.878 179.117 109.134C177.885 106.27 177.613 103.883 176.251 106.395C174.824 109.664 172.989 112.74 170.791 115.549C169.466 117.358 167.555 118.652 165.383 119.209C163.211 119.767 160.912 119.553 158.88 118.605C155.491 117.273 148.981 112.568 148.303 113.363C147.687 114.323 164.047 125.389 161.696 143.296C160.879 150.758 155.891 156.918 156.507 157.417C156.904 157.781 156.941 156.643 162.879 153.691C182.559 143.745 196.704 158.19 197.591 157.315C197.888 157.056 196.512 154.766 193.093 152.227V152.225Z" fill="#0F0F0F"/>
<path d="M122.036 255.566C117.833 253.968 113.275 253.536 108.847 254.316C104.418 255.097 100.283 257.061 96.8803 260C95.5187 258.256 94.8259 257.502 94.7507 253.386C94.6291 246.88 95.9715 245.84 103.06 244.022C102.844 242.11 101.645 235.334 90.5011 237.349C81.4979 238.984 82.5411 240.485 74.2547 240.144C70.0579 239.973 61.7091 239.146 61.5219 245.768C61.4675 247.954 66.7139 274.061 67.1715 277.589C68.8803 290.779 68.5987 299.296 79.9571 300.714C85.9683 301.462 114.743 300.842 125.255 298.811C130.957 297.699 133.026 295.086 134.357 289.286C137.703 274.88 136.012 260.438 122.036 255.566Z" fill="white"/>
<path d="M136.357 231.64C114.227 217.355 112.776 215.998 109.797 215.579C108.691 215.367 107.545 215.563 106.572 216.131C105.599 216.699 104.866 217.601 104.507 218.669C103.005 222.171 104.483 225.026 107.11 227.914C112.562 233.585 118.641 238.617 125.232 242.912L125.539 243.872C118.179 246.144 99.2353 242.56 96.1505 248.547C95.5174 250.081 95.2169 251.731 95.2689 253.389C94.8738 255.786 95.3518 258.244 96.6161 260.318C99.2388 257.923 102.332 256.1 105.698 254.965C113.645 252.333 125.107 253.966 131.714 261.456C141.424 260.734 152.019 258.376 153.566 248.758C155.091 239.294 144.229 236.722 136.357 231.64Z" fill="#FFC5F6"/>
<path d="M154.706 241.747C151.135 234.952 144.919 235.347 120.146 218.362C115.285 215.019 110.331 211.557 105.381 214.227C103.501 215.64 102.235 217.72 101.843 220.038C101.221 224.838 104.623 228.198 107.818 231.202C124.503 246.805 133.523 242.254 107.874 242.51C103.874 242.55 105.757 243.262 104.261 240.843C103.288 239.5 102.05 238.37 100.624 237.523C99.1979 236.676 97.6134 236.13 95.9682 235.918C91.5186 235.109 87.1506 236.573 82.7426 237.645C75.4002 239.437 74.4226 238.106 69.1746 238.088C62.8578 238.114 59.5938 241.782 59.5554 245.71C59.4962 247.63 59.4226 246.814 64.325 273.795C67.045 288.744 64.669 301.488 80.557 303.157C87.9826 303.808 114.011 303.184 125.698 301.054C127.339 300.85 128.922 300.313 130.348 299.475C131.774 298.637 133.015 297.517 133.992 296.182C137.847 290.373 139.819 273.189 134.723 263.632C139.949 263.354 145.023 261.779 149.488 259.05C155.082 255.382 157.951 247.918 154.706 241.747ZM133.453 287.04C131.373 297.578 129.555 297.95 107.827 299.192C99.6322 299.672 82.9346 299.638 80.8882 299.458C71.157 298.672 70.3282 292.578 69.0194 281.678C65.2642 250.115 58.1394 242.638 67.933 241.339C66.2562 247.237 68.8354 252.997 70.5218 261.179C74.5362 279.715 71.2034 291.67 83.101 294.691C91.1634 296.643 128.565 293.102 128.445 292.082C128.383 291.507 91.0834 294.038 83.7794 292.082C77.8738 290.522 76.829 285.77 76.3074 279.709C74.3874 254.531 68.5314 248.282 71.3602 241.333C72.9378 241.451 74.5938 241.653 76.3202 241.638C84.7634 241.509 92.1778 235.838 99.4914 239.843C94.7474 238.214 89.4642 241.704 88.0482 246.538C86.1058 252.816 89.893 260.512 90.4386 260.286C91.1378 260.003 86.389 248.43 92.853 243.576C93.8544 242.648 95.158 242.114 96.5225 242.074C97.8871 242.033 99.2203 242.487 100.275 243.354C97.9684 243.782 95.9128 245.077 94.5298 246.973C92.8466 249.744 92.853 257.01 95.1298 259.966C88.0402 267.128 89.2274 277.296 90.0242 277.086C90.5042 277.05 90.333 271.666 93.3378 266.17C96.6386 260.008 105.141 254.582 115.235 255.485C132.383 257.086 136.64 270.259 133.453 287.04ZM151.802 250.269C149.287 257.618 140.037 259.494 132.269 260.07C125.088 251.91 108.447 248.941 97.0962 258.19C96.2098 256.288 96.6354 252.174 96.837 250.904C98.069 243.032 117.935 248.243 127.501 244.742C134.381 248.262 135.933 248.456 129.223 243.973C121.615 238.827 100.631 224.978 106.211 218.406C106.717 217.826 106.459 217.733 107.741 217.053C112.088 215.222 123.295 226.146 138.488 234.442C145.703 238.418 154.76 241.794 151.802 250.269Z" fill="#0F0F0F"/>
<path d="M309.306 96.1249C300.16 67.8881 276 58.0065 261.76 64.7441C260.605 65.2929 195.381 101.827 194.533 102.256C187.871 105.682 191.882 107.955 186.243 111.026C181.223 113.773 169.114 121.795 168.923 121.931C166.002 124.011 164.711 125.912 165.303 132.139C165.97 139.102 169.747 150.872 174.528 153.739C176.309 154.808 178.671 154.317 187.703 153.714C191.917 162.307 195.543 161.714 199.131 160.885C204.261 159.709 208.605 159.423 212.013 155.84C212.987 155.747 213.587 155.688 215.373 155.402C227.039 153.498 250.357 152.67 287.899 148.522C301.339 147.04 318.631 124.99 309.306 96.1249Z" fill="#92FCFF"/>
<path d="M304.784 106.186C301.866 87.8688 287.812 66.1329 269.584 70.3105C238.652 77.0801 252.573 129.67 272.135 139.003C288.016 146.837 308.839 132.091 304.784 106.187V106.186ZM270.016 130.906C257.856 125.07 251.791 95.0656 256.834 86.0032C262.456 75.2384 282.373 71.7905 291.536 97.9393C300.13 123.158 282.685 137.347 270.016 130.906ZM301.6 117.6C298.861 133.288 284.64 141.165 273.76 135.613C273.333 135.406 270.861 134.051 271.776 134.365C279.896 136.675 287.733 132.765 292.116 126.002C305.517 105.654 283.52 65.1328 260.986 78.4017C263.923 75.4576 267.751 73.5658 271.873 73.0201C275.996 72.4745 280.184 73.3055 283.786 75.3841C296.445 82.5489 303.884 104.107 301.6 117.6Z" fill="#0F0F0F"/>
<path d="M312.682 106.76C308.512 72.3377 278.72 53.7601 259.146 64.8001C180.551 109.12 191.559 101 188.106 107.766C187.376 109.195 188.65 107.429 170.677 119.083C168.117 120.746 165.602 122.181 164.524 125.059C161.836 132.099 168.261 152.541 174.832 154.883C176.877 155.6 177.485 155.262 186.911 154.522C188.005 156.994 189.661 159.178 191.746 160.899C194.484 163.04 196.455 162.55 199.376 161.938C203.626 160.949 209.556 160.445 212.964 156.374C295.626 147.63 289.444 152.28 300.248 142.912C310.036 132.869 314.468 121.638 312.682 106.76ZM225.082 121.357C227.896 131.634 232.308 146.342 242.778 150.248C229.647 151.584 223.956 135.72 220.495 123.157C217.455 112.277 214.244 97.8609 222.372 89.7841C229.535 85.7969 216.172 89.3889 225.082 121.357ZM185.904 152.134C176.436 152.662 175.612 153.667 173.176 149.931C169.855 144.804 167.784 138.967 167.133 132.893C166.189 124.203 167.831 124.629 176.853 118.923C180.12 116.858 183.535 114.667 186.992 112.827C186.357 117.484 186.642 122.221 187.831 126.768C190.005 136.048 190.695 132.493 188.106 134.742C183.432 138.688 183.794 146.387 185.904 152.134ZM203.292 153.109C202.25 157.283 198.156 159.97 194.224 158.184C189.352 154.787 185.306 142.024 190.384 137.366C196.16 132.088 205.687 144.077 203.292 153.109ZM210.983 153.579C209.472 155.819 206.749 156.738 204.119 157.35C209.269 150.47 204.759 137.698 197.239 134.526C199.62 133.625 202.208 133.416 204.703 133.923C211.964 135.949 215.311 147.15 210.983 153.579ZM229.16 151.75C215.957 153.227 219.967 152.741 214.575 153.67C217.495 146.883 214.802 138.63 210.068 134.019C204.858 128.739 198.508 130.453 191.602 132.936C190.4 127.37 189.031 121.736 189.362 115.584C189.695 110.667 190.701 110.098 191.085 109.298C194.018 103.427 188.626 108.357 217.607 92.4145C211.229 103.578 217.476 125.733 222.071 136.427C224.444 141.934 228.082 147.65 233.4 150.472C235.231 151.397 236.533 150.926 229.16 151.75ZM305.38 130.178C303.485 133.997 300.936 137.454 297.847 140.392C293.748 143.978 292.055 145.731 284.901 146.349C245.088 149.784 237.618 156.941 227.679 120.648C224.661 109.677 221.301 94.5953 229.08 86.0369C263.06 66.8785 262.21 67.3073 263.698 66.7073C273.061 62.9377 289.524 66.4673 300.684 83.9697C309.231 97.4209 312.732 116.189 305.38 130.178Z" fill="#0F0F0F"/>
<path d="M261.354 76.3201C243.816 90.6129 258.139 143.336 285.056 138.658C300.543 135.966 311.768 110.715 297.643 86.8545C290.32 74.4881 274.2 65.8561 261.354 76.3201Z" fill="white"/>
<path d="M305.625 107.149C303.75 91.1488 292.643 71.6864 277.163 69.8688C261.347 67.84 248.019 80.64 251.424 104.592C258.72 158.306 309.92 145.403 305.625 107.149ZM300.432 118.061C296.609 132.746 282.76 138.794 272.697 133.179C257.752 125.299 246.808 84.4784 267.457 75.624C290.929 66.4096 304.899 100.267 300.432 118.061Z" fill="#0F0F0F"/>
<path d="M292.341 93.4561C278.77 68.5073 263.031 84.1857 270.699 95.6737C272.197 97.6694 274.113 99.3132 276.313 100.49C278.513 101.666 280.944 102.346 283.435 102.483C272.565 109.058 280.263 130.973 291.541 123.352C300.01 117.631 296.362 100.85 292.341 93.4561Z" fill="#0F0F0F"/>
<path d="M299.84 41.0449C299.574 40.1448 299.114 39.3139 298.493 38.6105C297.871 37.907 297.104 37.3481 296.243 36.9729C269.73 22.0593 237.904 38.2641 237.35 46.4129C237 50.6561 243.31 57.7265 245.795 60.4721C249.586 64.6593 255.861 59.7089 260.578 57.3057C265.092 55.4923 269.921 54.5949 274.786 54.6657C281.005 54.7745 290.736 58.6737 293.197 58.4097C294.744 58.2497 295.179 57.1073 295.81 55.7057C297.107 52.8241 300.523 44.1313 299.84 41.0449Z" fill="#0F0F0F"/>
<path d="M187.805 82.4369C212.527 79.5681 224.034 40.2241 211.074 28.8273C208.384 26.4609 197.008 22.1073 192.72 21.1665C167.736 15.7041 147.784 54.4465 160.029 70.8065C164.093 76.1777 180.775 83.2545 187.805 82.4385V82.4369Z" fill="#FDFE1F"/>
<path d="M207.61 25.8065C202.886 23.5358 197.957 21.718 192.89 20.3777C164.336 14.1377 143.235 62.4945 164.019 75.3841C169.299 78.6545 182.107 84.2513 187.896 83.2161C213.392 80.7057 228.293 34.8801 207.61 25.8065ZM213.583 39.0993C207.863 38.2737 208.346 37.8993 203.754 35.7393C203.371 32.011 201.801 28.5042 199.274 25.7361C198.936 25.3905 197.877 24.9041 203.464 27.3585C207.717 29.3297 212.047 30.0433 213.583 39.0993ZM212.851 53.2193C206.21 52.3121 207.403 52.0433 202.384 49.8929C203.542 46.0336 204.074 42.0134 203.959 37.9857C211.675 39.7985 207.536 38.6913 213.851 41.1745C214.223 45.217 213.885 49.2934 212.851 53.2193ZM161.591 69.5889C152.791 58.7329 160.791 30.0417 181.591 23.6193C187.691 21.7345 193.619 22.3521 197.939 26.9793C206.567 36.2289 199.733 56.0561 191.795 66.2049C186.883 72.5681 181.327 76.4049 173.283 75.8417C168.749 75.2682 164.585 73.0417 161.591 69.5889ZM175.511 77.6449C179.029 77.599 182.476 76.6396 185.512 74.8609C188.186 75.9809 189.555 75.3505 194.296 78.1505C187.45 81.4017 182.835 80.3569 175.52 77.6449H175.511ZM196.375 77.0369C191.968 75.6993 192.482 76.4657 187.517 73.4977C190.347 71.2426 192.829 68.5813 194.88 65.6001C199.608 66.8113 197.968 65.3505 205.373 68.6865C202.946 72.0266 199.892 74.8627 196.383 77.0369H196.375ZM206.575 66.9857C199.386 65.5761 202.826 66.6097 196.103 63.7633C198.456 60.0715 200.348 56.1048 201.735 51.9521C206.426 53.2113 204.099 51.7777 212.32 55.0545C210.983 59.2834 209.051 63.3007 206.583 66.9857H206.575Z" fill="#0F0F0F"/>
<path d="M170.275 72.3537C179.306 76.3169 189.701 63.5665 193.773 55.7137C200.069 43.4177 200.445 26.5009 187.394 25.3009C178.671 24.5329 170.363 33.1825 166.869 40.7377C163.563 47.8737 173.69 25.2385 187.266 26.6577C199.13 27.9377 198.05 43.7777 192.309 54.9489C189.394 60.5665 181.815 70.0849 175.805 71.3953C167.795 73.1425 159.859 63.1729 164.723 46.8529C165.594 44.0129 167.237 40.2129 165.611 43.2657C160.498 52.8801 160.445 68.2033 170.275 72.3537Z" fill="#0F0F0F"/>
<path d="M182.325 33.6497C181.659 33.4486 180.982 33.2851 180.298 33.1601C179.071 35.9297 177.28 42.3297 175.16 47.0609C173.04 51.7921 169.869 57.7297 168.946 60.6753C170.757 61.2625 170.578 61.1553 170.738 61.2721C169.399 63.9697 170.336 67.1921 172.018 62.5089C172.16 62.1009 172.072 62.1409 172.354 62.2993C174.459 63.4801 174.434 62.8433 174.2 63.4529C172.562 67.7441 174.68 66.8481 175.743 64.0513C176.031 63.3169 175.776 63.4865 176.432 63.4897C183.245 63.6145 185.05 53.0401 182.088 48.4673C183.053 48.3593 183.986 48.0574 184.83 47.5797C185.675 47.1019 186.415 46.4582 187.005 45.6872C187.594 44.9163 188.022 44.034 188.262 43.0935C188.502 42.153 188.549 41.1737 188.4 40.2145C188.202 38.9322 187.661 37.7272 186.835 36.7265C188.104 34.7073 187.76 32.6897 187.279 32.6593C186.797 32.6289 186.338 33.8449 185.743 35.2449C185.485 35.8689 185.93 35.6417 183.794 34.3985C185.672 30.7201 183.978 29.7201 182.325 33.6497ZM172.896 58.8321C173.794 55.1385 174.943 51.5108 176.336 47.9745C177.941 48.3911 179.381 49.2835 180.469 50.5345C183.84 55.5201 180.543 65.5633 172.896 58.8321ZM186.656 40.1489C187.008 41.052 187.042 42.0477 186.753 42.9729C186.465 43.8981 185.871 44.698 185.069 45.2417C182.603 46.8865 179.863 45.4289 177.914 44.6929C179.317 41.9521 180.914 39.1569 182.09 36.9569C184.09 37.6177 185.92 38.3121 186.656 40.1489Z" fill="#0F0F0F"/>
<path d="M45.4933 175.114C39.6997 174.766 35.0373 177.624 29.4709 181.048C27.5957 181.965 25.9333 183.265 24.5909 184.864C15.8213 197.09 34.0309 234.016 55.5029 234.962C61.4773 235.224 70.6869 229.424 74.5973 225.88C88.3349 213.44 66.9013 176.395 45.4933 175.114Z" fill="#FDFE1F"/>
<path d="M79.2179 210.2C76.0451 194.73 62.2579 175.64 45.5395 174.328C39.7027 173.871 34.3299 177.106 29.0483 180.36C27.0759 181.326 25.3346 182.706 23.9427 184.405C13.7603 198.435 36.5043 237.97 57.6003 235.757C61.4403 235.333 67.7475 231.917 71.2947 229.432C77.4851 225.135 81.2291 221.09 79.2179 210.2ZM30.6611 182.949C38.5011 177.989 31.5267 180.602 32.4035 190.96C28.9411 193.344 29.1155 193.664 24.8323 194.723C24.3027 186.384 27.3123 185.12 30.6611 182.949ZM25.0147 196.629C29.8755 193.829 27.3651 194.947 32.6659 193.05C33.3782 197.045 34.6482 200.92 36.4387 204.562C32.6771 206.951 33.2067 207.179 28.3891 208.315C26.681 204.612 25.5433 200.672 25.0147 196.629ZM29.1619 209.939C35.0211 206.57 33.1619 208.05 37.3619 206.427C39.407 210.368 41.8553 214.086 44.6675 217.522C39.3123 220.562 42.5139 219.157 36.6067 221.157C33.6855 217.729 31.1861 213.963 29.1619 209.939ZM37.9011 222.618C42.3811 219.533 41.9203 220.461 46.0611 219.165C48.4367 221.914 51.1617 224.34 54.1667 226.383C50.8419 229.218 51.1091 228.656 47.4659 230.235C43.8659 228.261 40.6307 225.685 37.9011 222.618ZM49.3651 231.13C52.6259 228.397 53.9843 228.691 56.1187 227.514C59.0237 229.029 62.2896 229.715 65.5587 229.498C59.4371 232.784 56.0371 233.821 49.3651 231.13ZM76.2803 219.938C75.1859 222.965 73.5171 224.379 69.8083 226.911C58.3555 231.245 47.9123 219.701 41.4259 209.261C24.3299 180.951 40.8931 169.402 58.8435 182.317C74.1123 193.239 79.1395 212.023 76.2803 219.938Z" fill="#0F0F0F"/>
<path d="M69.0675 198.541C68.3122 197.133 67.4037 195.813 66.3587 194.605C65.9731 194.858 71.2035 201.386 72.2787 210.997C72.7427 215.506 71.9587 220.749 68.2499 222.855C63.6323 225.627 58.0883 220.695 54.4483 217.603C48.3766 212.327 43.6998 205.634 40.8323 198.119C39.0035 193.255 38.0147 186.088 41.0643 182.931C43.1875 180.691 47.9171 179.616 53.2723 182.677C62.2323 187.853 65.7779 194.698 66.2147 194.394C66.6515 194.09 55.6803 177.978 44.8771 179.68C33.1171 181.554 37.6131 198.679 45.1811 209.568C50.0579 216.514 61.7012 228.503 68.93 224.007C76.3731 219.618 73.6547 206.768 69.0675 198.541Z" fill="#0F0F0F"/>
<path d="M55.4019 202.686C57.0707 202.402 57.8019 200.934 58.4419 199.984C60.4131 197.032 60.1315 196.699 59.8819 196.037C52.5219 190.437 52.1267 189.875 46.8403 187.152C47.2969 191.467 48.1539 195.729 49.4003 199.885C50.0659 202.067 49.8291 201.707 50.2867 201.907C51.8962 202.603 53.6582 202.872 55.4019 202.686ZM48.7747 189.92C52.1856 191.991 55.4305 194.323 58.4803 196.896C58.1091 197.68 57.6691 198.429 57.1667 199.136C56.3091 200.416 55.7267 202.352 51.2003 200.642C50.0411 197.156 49.2286 193.565 48.7747 189.92Z" fill="#0F0F0F"/>
<path d="M56.8579 210.613C58.7027 212.525 60.5763 214.501 63.1763 215.053C65.0739 213.346 63.0579 201.274 61.5923 197.826C55.9059 207.445 58.7891 203.87 50.6099 203.87C54.2835 207.68 51.5859 205.146 56.8579 210.613ZM58.4579 205.402C61.6979 202.92 60.9507 199.368 61.5827 203.466C62.1088 206.693 62.3859 209.956 62.4115 213.226C60.6619 212.255 59.109 210.966 57.8323 209.426C51.4083 202.629 55.4515 207.701 58.4547 205.402H58.4579Z" fill="#0F0F0F"/>
<path d="M123.82 33.064C124.949 38.208 135.041 48.8 140.653 50.0528C149.052 51.9232 159.975 41.232 144.629 25.6C141.815 22.7312 138.292 19.7264 134.037 19.5824C129.252 19.4128 122.241 25.872 123.82 33.064Z" fill="#FDFE1F"/>
<path d="M153.768 39.48C152.949 31.04 139.466 15.2944 130.988 19.4592C126.84 21.3952 122.786 24.4992 122.49 29.0352C121.778 38.7728 136.09 53.392 145.096 51.376C149.269 50.56 154.295 44.4048 153.768 39.48ZM151.599 40.8048C150.42 42.9712 146.597 42.112 144.319 41.1792C136.828 38.1392 126.32 23.0672 134.303 21.1104C141.623 21.12 152.415 33.5712 151.599 40.8V40.8048ZM130.775 22.24C129.623 24.16 130.135 26.9104 130.925 29C128.719 31.5072 129.036 32.0096 125.732 33.64C123.765 28.2416 125.844 25.0272 130.775 22.24ZM126.4 35.1792C129.6 31.9232 128.471 33.1248 131.789 30.9008C133.019 33.08 134.532 35.0864 136.29 36.8672C134.116 39.496 135.386 39.2112 131.317 42.0256C129.378 39.9751 127.724 37.6722 126.4 35.1792ZM132.567 43.3088C135.447 39.1904 135.168 40.4384 137.733 38.336C139.345 40.0233 141.244 41.4098 143.343 42.4304C142.916 43.4303 142.408 44.3935 141.824 45.3104C141.024 46.3632 139.584 47.3616 139.061 48.0048C136.654 46.806 134.46 45.2195 132.567 43.3088ZM148.741 46.2144C147.907 47.4182 146.702 48.3165 145.31 48.7726C143.918 49.2286 142.416 49.2175 141.031 48.7408C141.459 47.7406 141.968 46.7773 142.554 45.8608C143.354 44.7904 144.832 43.7808 145.34 43.1408C147.111 43.7453 149.029 43.7733 150.818 43.2208C150.237 44.2917 149.541 45.2955 148.741 46.2144Z" fill="#0F0F0F"/>
<path d="M52.8933 96.3632C57.3269 107.048 54.4389 111.286 57.5493 109.643C61.8325 107.387 66.8629 107.16 71.7045 107.128C82.3717 107.056 84.8085 108.653 95.2901 114.192C97.8037 115.52 96.5333 108.85 107.567 98.3632C109.807 96.2288 119.457 91.1008 130.66 88.5648C128.06 82.224 124.9 82.4736 124.628 73.392C124.521 69.8944 123.487 66.3648 124.396 62.992C125.572 58.6824 128.209 54.9152 131.855 52.3344C129.331 51.7671 126.893 50.8715 124.602 49.6704C120.004 46.9984 112.663 38.536 109.882 31.5056C108.741 28.604 108.311 25.4714 108.628 22.3696C96.2549 25.08 79.1013 24.9664 72.4517 14.2512C69.4117 20.2064 68.2341 21.496 65.0709 24.272C60.4117 28.3584 55.2053 35.7472 34.5893 37.9952C35.6197 40.16 35.8693 41.3792 39.2821 53.9616C40.1061 57.0016 38.0021 72.9456 33.5029 77.7392C37.8838 79.2671 41.8838 81.7217 45.23 84.9357C48.5763 88.1497 51.1901 92.0474 52.8933 96.3632Z" fill="white"/>
<path d="M132.056 52.5504C132.29 51.64 123.135 49.6192 116.314 40.5504C109.076 30.9328 109.418 22.3104 108.589 22.2736C108.28 20.92 89.1204 26.0464 77.1508 17.6976C71.0708 13.4576 74.4884 12.0816 68.1716 19.3072C61.0537 27.4725 51.6309 33.2919 41.1428 36C32.7268 38.1904 33.8292 36 35.7572 43.8656C38.3268 54.368 39.0068 67.0896 34.0164 76.3456C32.8084 78.6896 31.8852 76.8112 38.4388 80.872C54.7364 91.496 54.6708 110.152 55.8788 110.122C56.5188 111.538 69.2884 103.754 90.4548 112.576C98.1348 115.776 95.17 116.342 99.8948 109.237C110.373 92.8288 131.079 89.8464 130.893 88.6528C131.68 87.9968 121.575 75.1456 127.103 59.4064C128.749 55.168 132.328 53.0304 132.056 52.5504ZM126.791 84.16C130.89 90.9088 132.948 87.2 124.117 89.1936C111.732 92 101.954 100.434 98.1972 108.256C97.1148 110.181 96.4257 112.302 96.17 114.496C92.77 109.488 75.0724 102.514 61.5092 107.173C53.2756 109.858 57.1796 112.397 56.186 103.795C54.6996 90.08 43.7796 78.56 34.218 77.6C39.4116 73.9472 43.5284 58.3856 37.6324 43.2864C36.9881 41.401 36.0601 39.6249 34.8804 38.0192C37.8564 38.8544 47.7076 37.9984 57.3924 32.0896C62.238 29.1024 66.4288 25.1652 69.7124 20.5152C75.2804 12.368 70.1684 13.8416 75.8996 19.2224C85.3396 28.0464 104.413 25.2928 108.338 22.5824C107.231 25.3024 108.178 34.3664 114.088 42.2368C118.978 48.736 126.431 52.3536 130.949 52.7024C123.223 55.7136 119.068 71.1728 126.791 84.16Z" fill="#0F0F0F"/>
<path d="M80.6692 99.437C52.5476 99.261 39.0692 62.2226 55.61 42.3666C59.871 37.4568 65.4283 33.8459 71.6458 31.9472C77.8633 30.0485 84.4898 29.9388 90.7668 31.6306C106.197 35.9602 118.17 52.0466 115.965 67.6306C115.581 71.5698 114.869 75.4706 113.839 79.2898C109.383 92.901 93.6484 99.5202 80.6692 99.437Z" fill="#FDFE1F"/>
<path d="M114.459 50.8049L112.183 51.8449C114.876 58.2829 115.574 65.3818 114.184 72.2209C107.867 103.864 66.4898 106.493 53.525 77.7809C45.1842 59.3121 54.4002 37.4801 74.8498 32.9969C89.3986 29.8081 104.624 36.3201 112.183 51.8401L114.459 50.8001C98.5922 15.8753 48.2194 24.4177 46.5954 63.0241C45.9202 79.1137 57.5282 96.0641 74.3186 100.32C105.194 108.13 126.599 76.6577 114.459 50.8049Z" fill="#0F0F0F"/>
<path d="M69.7906 53.5105C68.3346 50.8849 70.4754 47.9873 72.0594 45.7665C73.4335 43.8703 75.3574 42.4425 77.5704 41.6767C79.7833 40.911 82.1782 40.8442 84.4303 41.4856C86.6825 42.127 88.6829 43.4454 90.1604 45.2622C91.6379 47.0789 92.5209 49.3061 92.6898 51.6417C93.2082 59.6049 86.0818 64.9649 85.885 68.6193C85.7906 70.3409 86.8002 72.0593 86.365 73.7249C85.2802 77.8625 77.7362 77.1697 77.685 69.2609C77.6466 63.0945 81.4002 60.3457 83.2482 57.4833C86.8786 51.8609 82.3938 48.3921 79.8722 49.7601C78.565 50.4689 77.437 52.6881 75.9938 54.0577C75.5885 54.5042 75.0853 54.8508 74.5236 55.0705C73.962 55.2901 73.3571 55.3769 72.7564 55.3239C72.1557 55.2709 71.5754 55.0796 71.0609 54.765C70.5463 54.4504 70.1116 54.021 69.7906 53.5105Z" fill="white"/>
<path d="M87.1812 89.3665C85.7253 89.813 84.1525 89.671 82.8001 88.971C81.4478 88.2711 80.4237 87.0689 79.9476 85.6225C79.1748 81.6385 84.8596 77.5521 89.3012 80.9713C92.3316 83.3041 90.5396 88.3329 87.1812 89.3665Z" fill="white"/>
<path d="M89.0367 61.1585C86.5055 65.2657 83.6864 65.9489 84.9952 71.3153C85.3584 72.4929 85.5184 73.3089 85.1744 73.9105C84.9549 74.2669 84.6588 74.5701 84.3076 74.7978C83.9564 75.0256 83.5589 75.1723 83.1439 75.2273C78.7471 75.8417 77.5343 67.4737 80.6607 62.7745C82.2703 60.3569 86.1807 57.2977 86.0096 53.1041C85.9896 51.9487 85.5719 50.8355 84.827 49.9522C84.082 49.0688 83.0554 48.4692 81.92 48.2545C77.4208 47.7025 75.8511 54.4417 73.2047 54.5441C70.6319 54.9681 68.8848 50.0369 73.7551 45.0385C77.3231 41.3729 80.6671 41.6913 80.6351 41.1265C80.6143 40.7777 76.4335 40.6049 72.6815 43.8929C66.0847 49.6721 68.5328 57.1345 73.3856 56.7153C77.8528 56.3281 79.4975 48.2801 82.6815 50.9265C84.2223 52.2065 83.9807 54.2193 83.0367 56.0049C81.2623 59.3649 76.6175 61.8225 76.6367 68.8401C76.6687 80.7617 88.2799 78.5713 87.5759 72.6129C87.3583 70.7665 86.4319 69.5185 87.0143 67.9057C87.6351 66.1841 89.3216 64.9521 90.9296 62.3345C95.8591 54.3121 94.1695 46.5537 89.0863 42.9873C84.9599 40.0961 80.8495 40.7585 80.8703 41.1201C80.8991 41.5857 84.4047 41.1473 88.1135 44.2353C93.1727 48.4369 92.5311 55.4881 89.0367 61.1585Z" fill="#0F0F0F"/>
<path d="M89.2799 84.2033C89.9071 90.8241 79.0239 89.4081 81.6959 83.1361C82.6559 80.8961 84.6239 80.4465 84.5311 79.9457C84.4351 78.8385 78.6111 80.3377 79.1343 85.7729C79.8047 92.7777 92.3983 92.6321 91.4895 83.9473C90.9231 78.5489 84.4607 78.7745 84.7167 79.9169C84.7999 80.5441 88.9215 80.4481 89.2799 84.2033Z" fill="#0F0F0F"/>
<path d="M294.05 255.72L289.373 256.718C288.325 252.128 277.077 197.853 277.077 197.853C276.472 194.973 275.757 187.549 274.75 191.065C262.643 215.705 260.755 219.341 260.781 219.501C260.725 219.784 260.824 218.899 260.781 219.035C260.757 219.013 260.682 219.6 260.635 219.531C256.221 210.553 255.907 209.597 253.456 204.171C252.805 205.451 245.245 220.024 245.171 220.198C243.571 218.869 232.416 204.518 231.864 204.886C230.827 205.569 240.403 219.065 241.17 220.086C242.61 222.006 244.237 224.03 245.757 225.881C246.814 223.961 251.845 214.937 253.134 213.157C253.464 214.136 252.334 211.576 260.619 229.726L273.651 203.486C273.651 203.486 283.917 253.061 284.965 257.654L280.341 258.64C280.093 258.692 279.865 258.813 279.684 258.991C279.503 259.168 279.376 259.393 279.318 259.64C279.26 259.886 279.272 260.144 279.355 260.384C279.437 260.623 279.585 260.835 279.782 260.993L288.646 268.102C288.882 268.294 289.177 268.399 289.481 268.4C289.785 268.401 290.08 268.297 290.317 268.107C290.475 267.982 290.602 267.823 290.69 267.641L295.538 257.606C295.646 257.381 295.689 257.129 295.661 256.881C295.634 256.632 295.536 256.396 295.381 256.2C295.225 256.004 295.018 255.856 294.783 255.771C294.548 255.686 294.294 255.669 294.05 255.72Z" fill="#FFC5F6"/>
<path d="M275.351 190.018C275.765 190.934 287.539 248.686 289.373 256.718C291.007 256.289 292.663 255.946 294.333 255.69C294.559 255.691 294.78 255.75 294.977 255.86C295.174 255.97 295.34 256.129 295.46 256.32C295.579 256.512 295.648 256.731 295.66 256.956C295.673 257.181 295.628 257.406 295.53 257.61L290.682 267.645C290.595 267.827 290.468 267.986 290.31 268.112C290.152 268.238 289.968 268.326 289.772 268.37C289.575 268.414 289.371 268.414 289.175 268.368C288.979 268.322 288.795 268.232 288.639 268.106L279.775 260.997C279.577 260.838 279.429 260.627 279.347 260.387C279.264 260.148 279.252 259.89 279.31 259.644C279.369 259.397 279.496 259.172 279.677 258.995C279.858 258.818 280.085 258.696 280.333 258.643L284.957 257.658C283.909 253.066 273.643 203.49 273.643 203.49L260.611 229.73C252.275 211.474 253.466 214.163 253.127 213.16C252.647 213.818 253.533 212.318 245.749 225.885C239.426 218.19 230.477 204.872 231.903 204.872C232.671 204.872 243.275 218.632 245.163 220.197C245.237 220.024 252.797 205.443 253.448 204.17C254.482 206.458 258.357 214.91 258.675 215.565C261.541 221.458 260.363 219.034 260.773 219.034C260.773 219.211 260.728 219.741 260.773 219.499C260.779 219.341 275.098 190.325 275.351 190.018ZM275.839 186.318C272.512 190.37 275.333 185.416 260.69 215.186L253.562 199.629C253.562 199.629 245.056 215.981 244.659 216.734C233.629 203.874 234.203 202.902 231.317 202.902C228.787 204.486 229.576 205.986 232.901 211.446C236.837 217.748 241.242 223.744 246.079 229.384L252.819 217.48L260.539 234.304L272.877 209.504C273.955 214.749 281.725 252.285 282.599 256.15L279.927 256.722C279.314 256.852 278.751 257.153 278.303 257.591C277.854 258.028 277.54 258.584 277.395 259.194C277.251 259.803 277.282 260.441 277.486 261.033C277.69 261.626 278.058 262.148 278.547 262.539C292.261 273.539 289.907 273.79 297.309 258.472C297.676 257.711 297.738 256.838 297.483 256.033C297.227 255.228 296.674 254.55 295.936 254.139C295.447 253.867 294.897 253.723 294.338 253.722C293.162 253.837 291.999 254.059 290.863 254.389C284.989 228.387 279.247 193.842 275.84 186.318H275.839Z" fill="#0F0F0F"/>
<path d="M52.469 127.2L48.1762 116.32C48.0998 116.127 47.981 115.954 47.8286 115.814C47.6762 115.673 47.4942 115.569 47.2959 115.508C47.0976 115.448 46.8883 115.433 46.6834 115.464C46.4785 115.495 46.2832 115.572 46.1122 115.69L36.6498 122.186C36.4378 122.332 36.271 122.534 36.1683 122.771C36.0655 123.007 36.0309 123.267 36.0684 123.522C36.1059 123.776 36.2139 124.016 36.3803 124.212C36.5467 124.409 36.7647 124.555 37.0098 124.634L41.8802 126.19C37.8434 135.731 35.2258 143.107 32.3922 151.734C25.653 142.182 23.4962 136.621 19.1378 126.79C11.965 166.16 6.99221 186.037 8.16981 186.368C9.99381 186.885 16.9506 160.024 18.0674 155.355C21.8098 139.619 20.5042 141.16 21.8738 143.659C25.3959 150.043 29.5071 156.083 34.1538 161.701C37.5701 150.115 41.6335 138.73 46.325 127.6L50.7666 129.018C51.015 129.097 51.2806 129.104 51.5328 129.038C51.785 128.972 52.0134 128.836 52.1916 128.646C52.3697 128.456 52.4904 128.219 52.5395 127.963C52.5886 127.707 52.5641 127.443 52.469 127.2Z" fill="#92FCFF"/>
<path d="M46.8914 115.437C48.1714 115.437 47.8514 115.48 52.469 127.197C52.5643 127.44 52.5889 127.704 52.5399 127.961C52.491 128.217 52.3704 128.454 52.1923 128.644C52.0142 128.835 51.7857 128.971 51.5334 129.037C51.2811 129.103 51.0153 129.096 50.7666 129.018L46.325 127.6C41.6401 138.73 37.5767 150.111 34.1538 161.691C19.925 142.88 22.4626 143.752 21.0098 142.03C21.2082 140.89 19.9986 147.246 18.0674 155.346C16.2866 162.808 9.88503 186.362 8.19543 186.362C6.95543 186.171 11.7042 167.592 19.1378 126.781C23.813 137.363 25.9938 142.656 32.3922 151.725C35.1122 143.421 37.7346 135.979 41.8802 126.181L37.0098 124.626C36.7635 124.548 36.544 124.402 36.3766 124.206C36.2091 124.009 36.1003 123.769 36.0628 123.514C36.0252 123.258 36.0604 122.997 36.1642 122.76C36.268 122.524 36.4363 122.321 36.6498 122.176C46.8914 115.149 46.2866 115.437 46.8914 115.437ZM46.8914 113.405C45.4514 113.405 45.7154 113.491 35.4994 120.501C34.9735 120.862 34.5595 121.364 34.3045 121.949C34.0495 122.534 33.9637 123.179 34.0569 123.81C34.1501 124.441 34.4184 125.034 34.8316 125.52C35.2447 126.007 35.7859 126.367 36.3938 126.562L39.149 127.442C36.4567 133.935 33.9875 140.52 31.7458 147.182C27.0018 139.923 26.1938 137.422 18.3234 119.909C5.32343 187.072 4.00343 188.368 8.19543 188.389C12.8658 188.419 20.9138 152.218 21.8722 147.776C25.8082 154.48 29.1234 158.507 34.9378 166.016C38.4716 153.826 42.6573 141.835 47.477 130.094C49.9794 130.894 52.3426 132.061 54.0098 129.614C55.4498 127.512 54.3586 126.434 50.0658 115.56C49.8154 114.923 49.3783 114.376 48.8119 113.992C48.2454 113.607 47.5761 113.402 46.8914 113.405Z" fill="#0F0F0F"/>
<path d="M276.434 164.016C271.039 168.286 268.069 170.014 262.292 169.166C235.962 165.302 244.087 160.741 224.871 136.498C222.832 133.925 221.612 131.779 223.725 128.925C224.394 128.1 225.219 127.417 226.153 126.913C227.087 126.409 228.112 126.095 229.168 125.989C230.224 125.883 231.291 125.987 232.306 126.296C233.322 126.604 234.266 127.11 235.085 127.786C237.156 125.165 236.16 120.346 242.591 121.066C261.541 123.178 265.415 149.331 291.967 149.834C293.282 149.856 293.341 150.698 292.744 151.725C288.973 158.194 282.306 159.37 276.434 164.016Z" fill="white"/>
<path d="M285.151 147.862C265.663 142.486 261.674 125.443 250.063 120.781C244.17 118.275 236.061 118.098 234.965 124.022C234.552 125.957 235.522 124.862 232.116 124.374C230.047 124.011 227.916 124.349 226.061 125.334C224.205 126.32 222.733 127.897 221.876 129.814C220.565 132.973 221.938 135.574 224.104 138.166C230.29 145.382 232.744 152.086 237.416 158.797C246.44 172.309 268.564 170.576 268.408 169.123C268.335 168.352 248.172 169.467 240.308 156.872C235.975 150.288 233.416 143.168 226.972 135.731C225.719 134.28 224.685 132.947 225.32 131.149C226.642 127.645 231.898 126.579 235.285 129.318C236.729 133.748 238.784 137.954 241.392 141.814C246.6 150.267 248.992 153.477 264.234 154.587C267.381 154.805 267.284 154.238 264.554 153.157C260.472 151.518 254.749 150.645 250.863 147.99C247.533 145.709 234.592 125.955 239.757 123.382C241.98 122.242 246.157 123.21 248.573 124.238C257.316 127.856 262.799 141.622 275.535 147.685C285.093 152.202 293.277 150.621 293.192 149.877C293.178 149.291 289.957 149.227 285.151 147.862Z" fill="#0F0F0F"/>
<path d="M166.123 209.086C162.913 211.342 159.127 212.637 155.208 212.819C98.6512 218.954 95.3776 172.576 84.3424 168.074C72.2272 164.47 79.4304 205.725 117.187 222.286C136.976 230.973 161.574 231.52 185.987 218.96C179.979 217.314 173.63 215.68 166.123 209.086Z" fill="#FFC5F6"/>
<path d="M234.285 145.178C229.655 139.026 230.49 140.827 230.125 137.098C229.931 135.083 229.69 132.637 228.159 131.306C225.151 128.603 217.451 130.619 214.267 138.947C212.546 143.455 212.976 147.627 212.375 152.282C211.2 161.082 205.928 164.232 199.557 170.509C200.611 175.16 195.077 151.403 180.197 147.469C177.999 146.875 175.7 146.759 173.454 147.128C171.207 147.497 169.066 148.342 167.173 149.607C157.362 156.271 166.975 161.167 171.013 167.426C172.293 169.416 172.026 168.226 170.999 174.203C170.096 179.451 166.973 181.003 169.163 187.821C167.421 188.232 165.766 188.949 164.274 189.938C150.863 199.402 177.727 226.165 204.339 216.085C208.968 214.303 213.666 211.36 214.349 206.448C214.482 204.868 214.333 203.276 213.909 201.747C208.115 204.661 213.739 202.194 218.488 198.027C231.544 186.618 244.983 159.392 234.285 145.178Z" fill="white"/>
<path d="M232.891 140.832C232.769 138.417 232.494 136.013 232.071 133.632C229.951 124.743 217.538 125.931 212.429 137.098C210.042 142.199 210.576 147.431 209.978 151.965C209.087 158.909 205.087 161.991 199.915 166.808C189.155 133.087 158.837 145.061 160.704 156.831C161.357 161.331 165.402 163.264 168.919 168.28C170.171 176.12 165.861 177.528 166.069 184.069C166.189 187.823 167.029 187.29 166.229 187.517C156.968 190.119 157.282 201.458 164.343 209.117C158.698 212.365 148.735 212.077 142.189 211.655C96.749 208.472 97.4338 170.071 84.9698 166.055C83.7033 165.533 82.2842 165.519 81.0081 166.017C79.7319 166.515 78.697 167.486 78.1186 168.728C69.8018 184.851 101.28 240.027 162.4 228.813C170.599 227.286 178.468 224.341 185.653 220.109C199.12 222.571 218.891 215.829 215.149 202.539C233.931 191.283 250.799 155.464 232.891 140.832ZM82.429 184.693C80.8754 180.195 79.6242 175.935 80.5554 172.122C81.0242 170.042 81.9346 168.717 83.8658 169.359C93.7858 172.65 96.6658 219.61 155.355 214.159C159.133 213.906 162.795 212.744 166.027 210.773C170.76 214.765 176.299 217.687 182.266 219.338C145.855 237.92 96.2754 222.944 82.429 184.693ZM198.28 205.354C195.147 205.475 193.504 205.298 193.459 205.557C193.386 205.989 201.808 209.275 212.895 203.771C213.268 205.518 212.992 207.342 212.117 208.899C207.901 214.914 195.272 219.695 181.443 215.152C161.656 208.631 157.685 193.615 167.373 189.826C172.973 203.128 190.819 206.715 191.175 205.103C191.307 204.495 186.784 203.25 182.41 200.835C176.291 197.432 170.064 190.661 169.835 183.955C169.715 179.955 171.579 179.072 172.338 174.41C175.386 181.317 175.392 185.871 176.151 185.893C176.599 185.935 177.327 183.115 176.631 178.587C174.571 165.874 167.399 161.757 165.146 158.347C163.13 155.307 164.903 152.72 167.92 150.725C170.185 149.227 172.818 148.379 175.531 148.273C178.244 148.166 180.935 148.805 183.311 150.12C196.498 157.088 199.834 179.33 201.643 178.97C202.551 178.797 201.403 172.531 201.04 170.943C204.311 167.68 208.445 164.679 211.197 160.048C216.637 151.157 210.971 140.667 219.677 133.57C222.8 131.01 227.405 130.322 228.4 134.512C228.826 136.416 229.397 143.885 229.504 145.872C230.06 152.604 229.205 159.379 226.994 165.762C223.611 176.194 212.69 186.165 213.146 186.663C213.349 186.975 217.443 184.538 222.528 178.621C219.135 185.021 215.346 188.541 215.682 188.931C216.117 189.557 223.101 183.845 226.509 173.424C231.866 165.341 233.587 155.683 233.203 145.997C244.84 161.733 225.162 204.32 198.28 205.354Z" fill="#0F0F0F"/>
</svg>
