<svg width="320" height="320" viewBox="0 0 320 320" fill="none" xmlns="http://www.w3.org/2000/svg">
<path d="M310.978 220.189C309.013 204.889 304.602 203.781 298.352 202.72C279.061 199.539 288.347 207.275 280.635 195.054C273.962 184.433 265.223 175.283 256.419 166.462C250.304 160.336 246.539 151.075 237.717 151.043C231.275 150.998 225.176 156.441 225.864 168.149C226.543 185.08 235.843 191.669 237.557 197.749C229.007 197.048 220.529 195.651 212.207 193.571C199.255 190.421 186.634 178.389 173.512 184.931C168.659 187.349 164.255 192.489 167.685 197.118C169.208 199.198 170.736 200.064 179.933 206.27C176.757 211.581 175.051 216.243 180.519 226.229C186.701 237.504 191.704 240.206 199.421 241.619C199.038 244.671 199.33 247.769 200.277 250.696C203.746 260.518 216.341 264.977 226.448 267.315C237.875 269.958 252.335 273.264 263.839 270.073C267.498 269.062 265.68 268.024 270.749 273.201C274.978 277.521 278.808 281.317 284.509 280.285C297.365 277.947 315.019 251.867 310.978 220.189Z" fill="white"/>
<path d="M311.225 211.2C309.612 206.4 307.225 202.992 302.396 201.747C296.933 200.596 291.325 200.305 285.772 200.885C279.148 186.946 268.703 175.581 258.092 164.781C252.249 158.768 247.999 148.667 237.735 148.592C225.466 148.466 221.823 161.606 224.044 173.786C226.166 185.605 232.945 193.166 234.535 195.706C226.267 194.382 218.079 192.594 210.012 190.349C200.03 186.93 189.164 178.934 178.082 180.806C172.116 181.888 165.442 186.086 164.162 191.859C162.593 198.917 169.697 202.331 176.625 207.008C173.943 212.35 173.247 218.038 178.358 227.408C183.097 236.114 188.212 241.832 197.375 243.686C197.088 246.669 197.517 249.677 198.627 252.46C199.738 255.244 201.497 257.721 203.759 259.686C214.097 269.021 250.052 277.898 266.767 270.912C273.034 277.312 278.814 287.064 291.127 279.85C310.658 267.53 318.399 233.44 311.225 211.2ZM300.588 264.65C296.868 270.768 289.601 278.974 282.604 279.07C277.67 279.138 272.994 273.354 269.236 269.726C280.63 263.486 286.078 246.958 285.58 246.738C285.311 246.614 284.268 248.446 282.326 251.683C274.572 264.334 268.049 270.459 251.353 269.95C242.09 269.674 216.201 265.731 206.254 256.944C204.411 255.402 202.953 253.453 201.994 251.25C201.035 249.047 200.601 246.652 200.727 244.253C219.628 246.973 230.426 249.262 230.647 248.362C230.774 247.859 226.708 246.301 219.927 244.47C199.094 238.886 194.148 241.787 186.841 233.251C183.852 229.731 179.481 222.65 178.588 217.19C178.081 214.455 178.506 211.629 179.794 209.163C197.282 220.966 194.628 221.118 224.022 223.883C241.122 225.594 241.169 224.363 224.415 221.189C192.622 215.344 203.593 220.853 172.393 199.509C169.898 197.8 167.327 195.669 167.913 192.707C168.91 188.762 174.217 185.413 178.73 184.603C188.268 182.992 198.462 190.411 208.782 193.998C224.735 199.192 252.526 200.49 252.582 198.862C252.606 198.254 246.745 197.614 238.593 196.357C237.087 192.115 226.689 182.09 227.255 166.358C227.458 161.704 228.097 157.379 231.807 154.451C233.297 153.277 235.101 152.571 236.992 152.422C238.883 152.272 240.776 152.686 242.431 153.611C248.031 156.541 248.991 160.971 257.356 169.344C274.93 187.264 292.74 208.114 288.924 233.824C288.546 237.984 287.023 242.381 287.345 242.502C287.902 242.712 296.465 225.672 286.887 203.344C290.927 203.21 301.321 203.61 304.399 206.21C310.697 211.254 314.594 241.688 300.588 264.65Z" fill="#0F0F0F"/>
<path d="M166.251 187.381C164.526 177.48 154.153 182.883 138.227 177.259C126.835 173.307 125.63 168.391 109.606 173.802C105.681 175.127 109.926 174.696 110.246 161.123C110.521 146.576 101.737 140.303 94.7468 141.261C88.8988 142.061 86.0732 147.751 82.6444 152.591C72.2444 167.187 44.7244 179.426 34.094 195.875C27.4332 206.191 33.9708 203.243 23.4204 203.875C18.9084 204.152 15.6444 204.835 12.8172 207.979C7.75962 213.599 7.91962 220.619 9.02202 228.218C12.382 251.109 23.1452 288.871 44.3548 279.578C49.67 277.208 52.5148 273.859 55.4588 270.819C66.4604 276.138 77.822 271.09 89.958 265.699C95.1804 263.376 93.43 263.735 95.4508 264.535C103.366 267.64 109.443 259.467 123.395 255.787C127.843 254.626 132.921 253.893 136.691 251.275C142.169 247.471 144.227 237.946 136.638 229.186C145.758 222.397 141.014 210.128 132.606 204.338C129.822 202.392 131.451 204.29 140.008 204.607C153 205.071 168.376 198.84 166.251 187.381Z" fill="white"/>
<path d="M168.67 186.984C168.446 185.279 167.773 183.664 166.719 182.305C165.664 180.946 164.268 179.893 162.671 179.253C158.087 177.451 154.647 178.678 146.171 177.013C128.993 173.677 127.539 165.585 111.003 171.945C114.641 158.222 112.523 142.68 99.4922 139.136C87.8122 135.888 83.0874 148.835 78.7802 153.565C64.8602 169.598 36.5562 180.949 29.0202 202.635C21.2202 202.297 14.9146 201.945 10.2106 208.171C4.79784 215.264 6.03304 224.347 7.34184 232.811C10.0346 249.59 15.6138 269.381 28.5466 280.16C37.1866 286.56 48.169 281.413 54.9258 272.936C64.7018 277.649 74.049 275.265 84.8762 270.464C95.2762 265.814 92.8234 265.963 94.5914 266.688C98.4954 268.288 102.953 267.39 106.783 265.653C111.833 263.381 115.947 259.875 127.561 257.221C135.982 255.118 142.239 252.261 143.279 243.568C144.287 235.313 139.086 230.368 139.327 230.166C144.86 225.539 145.179 217.678 141.838 211.254C138.694 205.195 136.065 205.961 139.886 206.262C154.574 207.321 170.942 200.376 168.67 186.984ZM133.204 251.616C127.513 254.067 121.694 253.696 111.967 258.638C107.526 260.867 103.452 263.803 98.8346 263.766C90.4074 263.75 86.1418 250.733 98.025 239.549C111.212 243.413 113.468 242.211 120.745 239.029C126.942 236.318 132.489 234.966 137.129 231.859C141.379 237.261 142.34 247.694 133.204 251.616ZM163.691 194.08C158.657 202.467 142.363 204.931 132.771 202.099C123.689 196.873 112.883 197.232 112.835 197.952C112.748 199.101 142.303 202.016 140.001 222.022C139.72 223.378 139.131 224.65 138.278 225.741C133.302 231.021 127.135 232.096 121.534 234.489C112.414 238.384 112.19 239.312 101.02 236.385C77.0682 230.077 84.5962 218.974 92.7002 216.776C100.107 214.8 105.835 218.696 109.969 216.936C111.177 216.456 123.169 210.283 122.78 209.441C122.39 208.6 110.225 213.761 108.983 214.133C106.004 215.008 99.8378 211.145 91.7642 213.12C80.3834 216 73.3307 230.982 95.1515 238.624C85.9738 247.163 85.4186 258.003 90.6442 263.88C79.9242 268.64 66.977 274.929 56.4202 269.718C49.129 266.377 44.889 258.949 40.8346 252.918C38.0666 248.758 37.785 249.389 39.5098 253.619C42.4954 260.819 46.3258 267.291 52.7514 271.646C46.7834 278.192 37.5514 282.726 30.6522 277.363C14.3914 262.977 8.39464 225.494 10.2138 216.422C11.0922 211.749 13.9194 207.678 17.5738 206.329C21.0463 205.345 24.6579 204.943 28.2618 205.139C23.4298 223.814 35.2154 244.339 35.6218 244.145C36.2186 243.883 31.4618 234.225 29.9322 223.064C25.641 191.368 52.3834 182.025 74.5723 162.918C86.9466 152.213 86.0698 147.438 91.6122 143.837C98.0554 139.753 109.169 145.126 108.868 161.101C108.615 171.413 105.31 179.195 99.3402 187.558C95.4153 193.493 89.7224 198.041 83.0682 200.56C77.9258 202.574 74.4682 203.328 74.5546 203.862C74.6714 204.579 90.7146 204.774 102.147 189.649C105.54 185.255 108.207 180.344 110.044 175.104C120.924 171.374 124.124 172.432 130.854 175.633C146.511 183.374 156.902 181.048 161.204 182.817C165.419 184.289 165.919 190.355 163.691 194.08Z" fill="#0F0F0F"/>
<path d="M82.4657 235.801C78.5585 217.461 70.5842 213.997 71.5858 212.773C71.9538 212.233 81.9666 217.585 85.6946 235.115C88.605 248.792 85.9106 261.854 84.9618 261.731C83.8722 261.59 85.4177 249.656 82.4657 235.801Z" fill="#0F0F0F"/>
<path d="M60.1903 248.698C71.8991 239.826 69.6303 223.912 68.4287 224.058C68.0207 224.094 67.9951 226.226 67.5007 229.518C64.3295 250.328 48.4607 250.696 49.0879 252.539C49.1951 252.859 51.3279 252.738 54.7119 251.645C58.195 250.907 61.8018 250.989 65.2479 251.883C71.6479 253.333 75.6767 257.163 76.2639 256.619C77.0831 255.858 70.6975 248.114 60.1903 248.698Z" fill="#0F0F0F"/>
<path d="M156.594 66.1439C151.701 55.9855 90.8231 47.2559 87.4007 61.0751C86.3271 65.4159 79.1255 127.235 78.8967 129.36C76.3191 153.6 73.6647 174.826 89.0999 189.138C99.4439 198.971 103.932 194.051 102.607 204.315C102.468 205.406 96.2919 260.552 95.6631 261.755C93.9783 264.933 84.8631 262.062 72.5319 267.515C62.3831 272.005 122.117 279.741 128.41 275.429C132.511 272.674 115.3 268.597 108.164 265.706C106.349 264.963 105.124 264.528 105.353 262.346C112.873 192.915 109.93 198.656 117.951 195.642C126.33 192.192 133.65 186.591 139.17 179.406C144.239 172.603 145.978 166.15 147.681 157.728C153.412 129.382 153.905 105.617 154.436 106.189C157.583 69.6959 158.311 69.4719 156.594 66.1439Z" fill="white"/>
<path d="M89.3039 263.101C87.4319 263.299 73.6943 265.139 72.0751 266.555C65.5343 272.273 91.7983 274.216 100.301 275.429C107.71 276.486 123.021 280.145 128.641 276.315C129.309 275.861 129.47 275.421 128.961 274.59C127.176 271.689 123.634 270.489 120.373 269.502C103.013 264.24 105.826 266.35 106.582 258.728C108.371 240.712 109.971 222.645 112.099 204.665C112.859 198.235 115.331 197.446 121.949 194.845C131.952 190.913 141.666 182.129 145.149 171.723C148.806 160.79 155.465 114.317 155.893 106.283C155.992 104.409 155.374 103.512 153.549 104.003C147.651 105.587 146.43 110.582 145.277 111.173C144.069 111.792 142.659 110.533 141.318 110.734C139.347 111.037 138.976 114.067 137.101 114.744C135.464 115.333 133.617 113.784 131.981 114.39C130.701 114.859 130.205 116.392 129.222 117.337C126.87 119.605 124.27 117.328 123.51 117.216C121.462 116.913 120.665 120.203 118.654 120.688C116.614 121.182 114.782 118.501 112.754 119.037C111.277 119.427 110.565 121.361 109.059 121.622C107.059 121.969 105.638 119.128 103.619 119.301C101.92 119.445 100.971 121.641 99.2735 121.824C97.2415 122.043 95.8271 119.264 93.7903 119.441C91.2975 119.665 91.7423 122.598 85.5743 119.515C80.9951 117.225 79.0383 118.894 78.6335 123.15C76.1887 148.91 76.7023 141.611 76.7663 157.24C76.7279 159.976 76.8383 162.71 77.0959 165.433C77.8644 171.578 80.0797 177.453 83.5598 182.575C87.0399 187.697 91.6856 191.92 97.1151 194.897C103.979 198.606 102.865 199.142 102.406 205.115C102.086 209.237 102.146 208.39 95.3279 259.784C95.1327 261.214 96.0847 262.382 89.3039 263.101Z" fill="#92FCFF"/>
<path d="M156.853 62.2398C148.709 55.0142 108.339 46.9774 91.0512 54.2206C86.0304 56.3358 85.2224 59.0622 84.456 63.211C84.4224 63.395 75.5168 134.808 75.16 155.117C74.808 192.145 99.7216 196.169 101.026 199.094C102.162 201.227 101.285 201.739 94.7632 255.414C94.0512 261.291 94.4288 261.174 92.4912 261.352C62.7072 264.304 63.9504 271.158 79.5024 274.518C87.4448 276.181 111.766 280.072 123.936 279.142C126.513 279.022 128.985 278.089 130.998 276.477C137.125 269.705 109.621 264.977 107.872 262.763C113.739 204.043 113.67 203.693 114.488 201.184C115.226 198.697 117.499 199.424 124.366 195.606C144.114 184.606 148.347 170.918 151.899 150.358C155.978 126.998 160.219 71.2942 160.219 71.1198C160.184 67.5982 159.493 64.5518 156.853 62.2398ZM115.917 195.261C109.171 198.057 110.702 195.411 104.557 259.131C103.779 267.486 103.816 264.968 120.368 271.001C122.936 271.878 125.421 272.982 127.794 274.299C128.274 274.771 124.794 275.619 122.096 275.713C107.077 276.437 68.6368 270.299 73.3424 268.365C78.5817 266.36 84.0856 265.131 89.68 264.717C95.9616 264.056 96.4176 264.384 97.4 258.729C104.133 200.139 105.618 199.118 101.72 196.193C100.397 195.209 88.7088 191.177 82.2768 178.07C78.2 169.817 78.0064 162.619 78.136 155.168C78.4368 143.208 79.64 131.968 81.08 119.925C82.216 120.293 83.3904 120.534 84.5792 120.643C86.9792 120.835 86.8368 122.678 89.272 122.864C91.7136 122.993 91.8096 121.158 94.2192 121.285C96.6304 121.337 96.5904 123.219 99.0416 123.232C101.493 123.245 101.475 121.406 103.888 121.331C106.301 121.256 106.397 123.091 108.848 122.92C111.299 122.749 111.139 120.913 113.538 120.63C115.936 120.347 116.197 122.176 118.637 121.765C121.077 121.353 120.734 119.557 123.091 119.027C125.448 118.497 125.901 120.307 128.29 119.622C130.678 118.937 130.144 117.206 132.426 116.422C134.707 115.638 135.365 117.374 137.664 116.422C139.963 115.47 139.227 113.806 141.405 112.757C143.582 111.707 144.398 113.294 146.608 112.155C148.749 110.894 147.814 109.307 149.896 108.08C151.104 107.387 152.258 106.605 153.349 105.739C147.718 165.854 145.195 183.072 115.917 195.261ZM155.998 76.3598C155.645 78.8622 155.621 79.579 153.544 103.699C152.952 103.094 150.677 103.936 148.264 105.445C146.288 106.678 147.184 108.203 145.12 109.421C142.989 110.518 142.173 108.933 140.077 109.944C137.981 110.955 138.715 112.616 136.501 113.533C134.286 114.449 133.632 112.705 131.434 113.469C129.235 114.232 129.771 115.968 127.466 116.624C125.16 117.28 124.709 115.478 122.434 115.984C120.158 116.489 120.502 118.288 118.138 118.688C115.773 119.088 115.512 117.262 113.19 117.536C110.869 117.809 111.032 119.637 108.64 119.809C106.248 119.982 106.15 118.144 103.8 118.209C101.45 118.275 101.469 120.12 99.0688 120.107C96.6688 120.094 96.7072 118.216 94.3456 118.165C91.9824 118.041 91.8864 119.873 89.488 119.745C86.2768 119.501 87.952 116.681 81.3728 117.552C81.392 117.392 87.9328 63.5774 88.432 61.4942C90.832 51.3518 133.072 53.9214 152.464 63.8174C156.974 66.2014 156.867 69.5998 155.998 76.3598Z" fill="#0F0F0F"/>
<path d="M150.265 68.0702C147.614 65.3662 143.138 64.163 139.398 63.491C138.718 63.3726 129.505 61.9934 129.414 62.4718C129.132 63.9902 143.814 64.7214 148.418 69.8238C151.47 73.1358 150.159 77.7806 138.9 77.5454C116.559 77.3422 85.8519 69.1198 96.9431 63.2318C101.238 61.0062 109.383 61.5566 112.801 61.3358C118.855 61.123 119.028 60.6622 112.852 60.0558C107.852 59.7246 100.785 58.675 95.8071 60.955C92.7671 62.427 91.0823 65.2478 92.4999 68.2702C98.0999 78.3342 141.423 84.4222 149.828 78.1598C153.073 75.8158 153.681 71.507 150.265 68.0702Z" fill="#0F0F0F"/>
<path d="M258.493 210.291C246.493 140.734 235.884 101.858 234.569 94.1791C234.548 92.67 233.989 91.2177 232.994 90.0831C222.26 80.3743 159.73 93.2831 156.743 116.163C156.103 121.094 183.026 192.483 189.777 208.131C192.497 214.44 196.068 227.536 202.194 230.837C207.577 233.736 229.426 234.091 250.645 221.173C258.479 216.408 259.433 215.73 258.493 210.291Z" fill="white"/>
<path d="M184.657 196.725C188.536 203.277 188.603 208.213 189.483 211.125C190.148 213.335 190.755 214.301 196.942 226.016C200.771 233.266 203.209 232.386 211.318 232.52C218.166 232.634 220.48 234.527 232.19 230.644C238.988 228.389 252.323 223.136 257.556 218.272C258.153 217.853 258.603 217.257 258.843 216.568C259.083 215.879 259.1 215.132 258.892 214.432C257.572 205.004 256.872 195.104 254.62 185.864C252.38 176.66 250.579 167.367 248.891 158.047C244.184 156.711 241.556 158.78 239.99 158.652C237.977 158.492 236.614 155.823 234.628 156.186C233.47 156.397 232.667 157.616 231.494 157.738C229.524 157.943 228.454 155.05 226.486 154.858C224.804 154.698 223.42 156.608 221.745 156.378C220.358 156.186 219.625 154.672 218.526 153.802C216.014 151.821 213.689 153.978 212.926 154.069C211.251 154.272 210.676 151.669 209.112 151.044C206.929 150.16 204.483 153.567 202.481 152.324C201.51 151.722 201.352 150.336 200.51 149.565C198.558 147.778 195.524 150.439 194.297 150.412C192.264 150.364 192.057 146.911 190.113 146.309C188.782 145.898 187.44 147.077 186.051 146.981C183.95 146.836 182.993 144.024 180.968 143.461C179.104 142.936 176.732 144.421 175.347 143.061C174.436 142.173 174.611 140.52 173.625 139.714C172.364 138.68 170.425 139.874 168.864 139.42C166.281 138.684 166.251 134.199 161.004 134.122C168.155 155.722 165.47 146.839 170.48 159.802C172.779 165.74 175.747 181.672 184.657 196.725Z" fill="#FFC5F6"/>
<path d="M204.093 116.528C201.988 115.861 198.333 117.507 189.456 119.717C185.101 120.8 171.548 123.947 167.234 122.725C164.135 121.846 162.04 119.635 162.629 116.517C164.549 106.336 191.909 96.8799 192.292 97.9567C192.452 98.4367 166.372 108.837 165.336 116.926C164.319 124.8 190.383 115.619 200.184 113.44C205.06 112.355 206.072 113.547 212.428 117.449C213.402 118.006 214.344 118.617 215.25 119.28C215.242 118.589 213.733 112.811 212.516 108.693C216.045 107.222 219.346 105.253 222.317 102.846C226.76 99.6063 227.724 97.0095 222.506 95.4175C215.032 93.1343 198.284 97.3375 198.092 96.5807C197.832 95.5679 210.952 93.2511 214.981 92.7151C225.58 91.3055 234.528 96.9999 224.026 105.115C221.612 107.132 218.994 108.893 216.216 110.369C216.836 111.843 217.607 116.035 220.856 127.291C219.938 126.632 207.922 117.742 204.093 116.528Z" fill="#0F0F0F"/>
<path d="M261.025 209.852C254.686 176.732 250.652 153.582 237.345 99.5901C235.218 90.9789 236.087 89.3005 230.486 87.1261C211.065 79.8061 152.086 94.4237 154.298 118.728C154.449 121.158 182.82 201.588 192.527 222.419C197.431 232.95 201.378 235.172 211.47 235.048C227.635 234.905 243.366 229.796 256.53 220.414C261.279 217.089 261.919 215.129 261.025 209.852ZM157.772 118.268C157.364 113.934 160.492 109.075 163.852 105.825C182.326 88.4237 228.727 84.4189 232.737 91.4573C233.401 92.6269 246.756 154.724 247.137 156.488C241.644 155.057 243.046 157.76 239.969 157.42C237.674 157.1 237.937 155.288 235.671 154.945C233.406 154.603 233.111 156.406 230.825 156.011C228.538 155.616 228.871 153.801 226.61 153.382C224.35 152.963 223.998 154.752 221.726 154.302C219.454 153.852 219.826 152.043 217.566 151.564C215.305 151.086 214.921 152.88 212.655 152.384C210.39 151.888 210.793 150.088 208.535 149.584C206.278 149.08 205.871 150.864 203.61 150.35C201.35 149.836 201.758 148.043 199.495 147.526C197.233 147.009 196.847 148.806 194.601 148.227C192.354 147.648 192.871 145.851 190.702 145.211C188.542 144.539 187.97 146.273 185.782 145.531C183.61 144.731 184.252 143.028 182.148 142.198C180.058 141.336 179.33 143.048 177.222 142.1C175.113 141.153 175.906 139.481 173.881 138.48C171.855 137.478 171.01 139.072 168.978 137.972C166.556 136.608 168.417 134.184 162.556 132.483C161.316 128.857 160.366 126.126 157.772 118.268ZM257.679 213.44C257.506 215.297 255.938 216.32 254.377 217.39C251.577 219.389 248.636 221.182 245.577 222.755C227.529 232.124 208.137 232.288 203.062 230.046C199.57 227.992 197.807 224.646 196.022 220.806C190.262 208.486 170.151 154.627 163.93 136.494C166.694 138.308 165.289 139.47 167.462 140.694C169.553 141.825 170.404 140.214 172.484 141.26C174.564 142.307 173.778 143.956 175.943 144.94C178.108 145.924 178.839 144.2 180.99 145.086C183.153 145.942 182.511 147.646 184.743 148.468C186.993 149.232 187.566 147.496 189.786 148.187C192.026 148.846 191.51 150.636 193.807 151.24C196.105 151.843 196.548 150.032 198.801 150.56C201.054 151.088 200.652 152.87 202.914 153.387C205.177 153.904 205.586 152.107 207.849 152.62C210.111 153.134 209.711 154.926 211.985 155.425C214.258 155.924 214.649 154.124 216.918 154.609C219.186 155.094 218.817 156.888 221.103 157.356C223.39 157.825 223.746 156.009 226.026 156.441C228.306 156.873 227.98 158.681 230.287 159.081C232.594 159.481 232.897 157.654 235.19 158.02C237.482 158.387 237.223 160.19 239.551 160.508C242.047 160.784 241.343 159.014 245.206 159.228C246.038 159.281 246.873 159.259 247.702 159.161C248.241 161.654 257.897 211.008 257.679 213.44Z" fill="#0F0F0F"/>
<path d="M229.158 170.958C239.176 159.947 229.302 130.318 209.638 128.06C203.878 127.401 196.198 131.26 190.95 134.024C175.713 142.033 187.632 180.704 208.768 180.476C213.672 180.424 226.259 174.142 229.158 170.958Z" fill="#FDFE1F"/>
<path d="M207.805 126.974C203.024 127.008 197.235 129.834 192.915 131.949C189.435 133.736 186.675 134.688 184.685 139.789C178.858 156.421 190.955 180.518 207.999 181.44C213.131 181.83 223.999 176.402 228.736 172.722C242.33 162.187 228.779 126.178 207.805 126.974ZM199.005 131.48C196.371 134.003 194.732 137.389 194.384 141.019C190.557 142.923 191.472 143.32 185.823 144.418C187.119 136.338 190.797 135.082 199.005 131.48ZM185.599 146.256C186.328 145.936 189.776 144.237 189.984 144.237C191.312 143.757 192.986 143.376 194.207 143.019C194.114 146.467 194.557 149.909 195.52 153.221C191.155 155.178 192.989 155.368 186.421 156.595C185.57 153.219 185.292 149.724 185.599 146.256ZM186.864 158.203C194.851 154.646 192.091 156.362 196.061 155.003C197.213 158.51 198.791 161.863 200.759 164.986C199.608 165.515 197.824 166.554 196.293 167.122C196.087 167.33 192.327 168.11 191.611 168.294C189.554 165.175 187.954 161.777 186.861 158.203H186.864ZM192.645 169.768C192.861 169.661 196.251 167.886 196.568 167.886C198.347 167.267 200.744 166.926 201.808 166.555C203.485 169.026 205.536 171.22 207.888 173.059C202.984 176.277 204.122 175.106 200.029 176.67C197.125 174.892 194.611 172.544 192.639 169.768H192.645ZM201.826 177.608C202.73 176.981 203.679 176.424 204.667 175.942C204.827 175.942 209.427 174.288 209.589 174.2C212.385 175.708 215.557 176.374 218.723 176.12C209.466 180.304 206.099 179.595 201.823 177.611L201.826 177.608ZM226.52 171.826C202.375 189.266 179.933 127.666 210.111 129.149C213.758 129.666 217.209 131.119 220.128 133.366C232.069 142.341 237.287 164.053 226.517 171.829L226.52 171.826Z" fill="#0F0F0F"/>
<path d="M225.972 146.328C222.714 140.112 232.482 157.736 225.042 167.576C216.911 178.704 202.724 160.938 200.493 147.429C198.085 132.389 211.332 125.642 222.964 141.726C224.52 143.914 225.188 145.262 225.293 145.206C224.836 143.868 224.205 142.596 223.416 141.422C214.856 127.954 203.362 129.698 200.175 137.422C195.837 147.47 202.824 163.022 212.863 170.358C223.781 178.334 234.168 161.989 225.972 146.326V146.328Z" fill="#0F0F0F"/>
<path d="M212.742 152.891C216.252 153.47 218.012 150.67 218.926 147.228C216.134 142.961 212.884 139.011 209.235 135.449C208.38 140.754 207.996 146.125 208.088 151.497C208.944 152.856 211.16 152.63 212.742 152.891ZM210.198 138.756C212.827 141.441 215.185 144.378 217.238 147.524C216.836 148.828 216.128 150.015 215.172 150.988C214.417 151.662 213.252 151.369 212.265 151.283C211.377 151.227 210.495 151.094 209.63 150.884C209.512 146.833 209.702 142.779 210.198 138.756Z" fill="#0F0F0F"/>
<path d="M209.358 155.68C209.658 156.579 218.717 166.275 220.64 166.275C220.836 166.251 221.029 166.208 221.216 166.147C222.106 163.643 222.241 160.933 221.606 158.353C221.213 155.588 221.275 154.98 220.773 152.728C220.501 151.54 220.306 150.336 220.189 149.123C219.28 150.061 218.544 151.152 218.014 152.345C216.158 156.208 215.403 154.972 208.398 153.945C209.234 155.486 209.218 155.46 209.358 155.68ZM211.726 156.075C213.26 156.492 214.866 156.57 216.432 156.304C219.472 155.566 219.117 150.932 219.614 154.932C220.21 159.723 220.747 162.177 220.178 164.42C217.086 161.929 214.255 159.13 211.726 156.068V156.075Z" fill="#0F0F0F"/>
<path d="M195.102 65.6275C196.138 64.8615 197.251 64.2067 198.424 63.6739C205.507 60.9251 209.434 67.5699 206.406 70.5795C204.402 72.5747 198.726 73.5315 192.659 76.5539C192.038 76.8627 182.64 81.6291 181.971 81.8067C182.611 80.6435 183.184 79.4435 183.69 78.2163C188.187 71.4531 189.31 69.5011 195.102 65.6275Z" fill="#FFC5F6"/>
<path d="M170.58 78.7422C171.303 74.2894 172.127 69.6078 174.996 66.1262C178.5 61.8734 183.978 63.611 182.06 70.875C180.628 76.2974 177.377 81.4686 170.17 86.7534C168.49 87.9854 169.565 84.9774 170.58 78.7422Z" fill="#FFC5F6"/>
<path d="M176.604 66.5285C171.188 73.1061 170.54 87.4741 169.208 87.2485C168.537 87.1349 169.436 66.0949 177.336 62.7509C181.436 61.0149 186.579 65.5381 181.761 74.9429C177.337 83.5829 169.531 87.8501 169.208 87.2485C168.902 86.8005 181.144 77.2517 181.033 67.9221C180.995 64.7141 178.574 64.1365 176.604 66.5285Z" fill="#0F0F0F"/>
<path d="M205.528 65.7185C200.656 61.1025 191.795 69.0705 187.435 74.2641C183.554 78.8865 181.946 82.3857 181.554 82.1969C181.267 82.0961 182.255 78.2465 185.928 73.0977C200.875 52.1489 214.399 65.3041 206.997 71.7057C205.136 73.0271 203.058 74.0112 200.856 74.6129C192.205 77.8721 181.858 82.8097 181.554 82.1969C181.035 81.1537 195.794 74.0897 199.936 72.3073C202.271 71.3009 206.191 70.2689 206.407 67.7073C206.422 67.3306 206.351 66.9554 206.199 66.6105C206.047 66.2657 205.817 65.9605 205.528 65.7185Z" fill="#0F0F0F"/>
<path d="M155.967 52.3999C155.967 52.3999 157.066 38.7023 152.46 33.8095C150.06 31.2639 146.961 32.0271 147.129 36.3343C147.388 42.9887 150.313 39.4847 140.964 34.1615C137.865 32.4015 131.46 29.9503 129.663 32.9551C128.43 35.0143 130.783 39.4767 132.487 40.8863C134.979 42.4378 137.615 43.7432 140.359 44.7839C143.191 45.8479 144.334 45.0223 151.03 49.1903C151.873 49.7151 155.969 52.3999 155.969 52.3999H155.967Z" fill="#92FCFF"/>
<path d="M156.69 47.2917C156.551 41.9525 156.796 37.9781 154.575 34.5829C151.391 29.7205 145.402 31.3653 146.055 36.5253C146.097 36.8245 146.161 37.1205 146.247 37.4101C143.61 34.1353 139.989 31.7969 135.919 30.7413C128.466 29.0997 126.399 33.7605 129.129 38.4949C131.369 42.3989 135.385 43.7333 139.425 45.1349C144.973 47.1908 150.373 49.6292 155.585 52.4325C156.105 52.6421 156.266 52.6389 156.441 51.8373C156.685 50.3352 156.768 48.8114 156.69 47.2917ZM140.175 43.0805C136.743 41.7637 133.05 40.5205 131.183 37.3093C130.482 36.1029 129.946 33.9861 130.965 33.1685C131.708 32.4485 134.457 32.6885 135.487 32.8853C142.975 34.2693 147.876 41.6277 149.321 42.8661C149.7 43.3221 149.986 43.5845 150.077 43.5429C150.689 43.2661 148.09 38.2789 148.013 36.3429C147.893 33.2453 150.972 33.3413 152.602 35.9045C154.329 38.6245 154.149 41.8117 155.015 47.4245C155.359 49.6645 155.602 51.2933 155.831 52.0453C151.166 48.1798 145.87 45.1471 140.175 43.0805Z" fill="#0F0F0F"/>
<path d="M293.599 62.8372C293.599 62.8372 296.036 130.442 296.946 146.311L302.802 146.058C303.109 146.045 303.413 146.118 303.68 146.269C303.948 146.42 304.167 146.644 304.314 146.913C304.461 147.183 304.529 147.488 304.511 147.795C304.493 148.101 304.389 148.396 304.212 148.647C295.838 160.445 296.156 160.477 294.967 160.477C293.906 160.477 294.404 160.668 284.479 149.528C284.273 149.296 284.137 149.011 284.087 148.705C284.036 148.399 284.073 148.085 284.193 147.799C284.315 147.513 284.515 147.268 284.77 147.091C285.025 146.914 285.324 146.813 285.634 146.799L291.425 146.549C290.126 123.876 289.855 107.06 288.793 78.7748C280.754 89.914 275.418 97.2228 267.694 107.831C262.991 90.2756 263.295 91.6628 262.159 87.1428C261.871 86.0004 263.252 84.7028 255.194 94.3012C254.33 95.33 252.401 97.778 250.514 100.154C244.969 90.4836 236.676 72.5444 238.006 71.9412C238.681 71.6356 242.842 79.9492 249.225 90.5012C251.199 93.7668 250.889 93.2772 251.346 92.5604C252.388 90.9316 255.102 87.7604 264.247 75.4756C264.998 78.3284 266.487 84.1668 267.146 86.4996C268.602 91.6516 269.951 95.562 269.951 95.562C269.951 95.562 292.559 63.7364 293.599 62.8372ZM294.943 58.4564C294.943 58.4564 293.945 57.7748 270.748 90.2596C269.057 84.6052 268.724 82.9956 265.308 70.0052C250.897 89.3652 261.009 75.7892 251.06 88.866C241.386 72.8148 240.457 68.2484 237.03 69.73C234.513 70.818 235.27 73.4484 237.924 80.0836C241.385 88.5068 245.486 96.6527 250.191 104.45C262.092 89.4612 260.673 91.1108 260.994 92.3108L266.666 113.346L286.634 85.8884C287.463 109.229 287.785 124.5 288.874 144.239L285.532 144.383C284.958 144.407 284.396 144.554 283.883 144.812C283.37 145.07 282.918 145.434 282.556 145.879C282.194 146.325 281.931 146.843 281.784 147.398C281.637 147.953 281.609 148.533 281.703 149.1C281.828 149.858 282.166 150.565 282.676 151.138C296.887 167.088 294.014 167.194 306.185 150.047C306.622 149.427 306.878 148.698 306.922 147.941C306.966 147.183 306.797 146.429 306.435 145.763C306.072 145.097 305.53 144.546 304.87 144.172C304.211 143.798 303.459 143.616 302.702 143.647L299.23 143.797C298.143 124.098 296.484 70.61 296.497 69.6932C296.614 60.0596 294.937 58.4564 294.937 58.4564H294.943Z" fill="#0F0F0F"/>
<path d="M302.795 146.057L296.939 146.31C296.095 131.579 293.592 62.8364 293.592 62.8364C292.842 63.4892 269.709 95.8652 269.986 95.4764C269.858 95.654 270.146 94.7756 270.064 94.934C270.04 94.902 269.826 95.5948 269.783 95.502C266.328 83.918 267.223 86.798 264.24 75.478C252.288 91.542 252.904 90.1004 250.96 93.158C249.008 90.8796 238.73 71.6156 238 71.9388C236.959 72.398 242.651 85.0364 243.709 87.2668C245.994 92.1084 247.869 95.5516 250.509 100.152C253.824 95.9724 260.749 87.5276 262.021 86.2764C262.416 88.7788 265.739 100.548 267.688 107.828C275.461 97.1548 280.595 90.1212 288.787 78.7724C289.887 108.212 290.135 124.131 291.419 146.547L285.629 146.796C285.319 146.81 285.019 146.911 284.765 147.088C284.51 147.265 284.311 147.511 284.19 147.797C284.069 148.082 284.031 148.396 284.082 148.702C284.132 149.008 284.268 149.294 284.474 149.526L293.738 159.926C293.986 160.202 294.32 160.386 294.686 160.449C295.052 160.511 295.428 160.448 295.754 160.27C295.97 160.15 296.155 159.984 296.298 159.784L304.203 148.644C304.381 148.394 304.485 148.099 304.504 147.793C304.522 147.486 304.453 147.181 304.306 146.912C304.16 146.642 303.941 146.418 303.674 146.267C303.406 146.116 303.102 146.043 302.795 146.057Z" fill="#FFC5F6"/>
<path d="M68.25 48.0323C69.5956 48.0323 69.3444 48.2643 76.3908 60.9923C76.5421 61.2625 76.6134 61.5701 76.5962 61.8793C76.5791 62.1885 76.4742 62.4864 76.2939 62.7381C76.1137 62.9899 75.8654 63.1851 75.5783 63.301C75.2911 63.4168 74.9769 63.4485 74.6724 63.3923L69.2436 62.4003C67.6436 68.1283 66.194 79.7171 64.8884 85.5171C62.5668 95.8291 61.5284 102.384 60.1972 110.093C53.7492 103.693 55.2372 105.187 53.3172 103.181C44.3076 93.7683 42.0004 88.8035 41.7588 89.0467C41.8164 87.7219 41.4148 94.9395 40.3524 105.119C39.5652 112.666 35.5828 141.235 34.8356 148.339C33.6436 159.699 33.1412 166.319 31.562 166.319C29.77 166.319 34.2996 129.715 37.2212 71.4387C43.0532 81.0259 47.842 89.4291 56.6052 98.6739C56.6388 98.4931 63.2836 63.3459 63.8164 61.4195L57.8628 60.3443C57.5622 60.29 57.2828 60.1525 57.0565 59.9473C56.8301 59.7421 56.666 59.4774 56.5826 59.1835C56.4992 58.8896 56.5001 58.5782 56.585 58.2847C56.6698 57.9913 56.8354 57.7275 57.0628 57.5235C67.9556 47.7347 67.3796 48.0323 68.25 48.0323ZM65.5572 46.6595C55.226 55.9395 53.3476 56.6163 54.2628 59.8419C55.1076 62.8163 57.8244 62.7827 60.8676 63.3331C59.6756 68.7523 61.146 62.9747 55.1428 93.4451C47.7684 84.8467 44.9284 79.4915 35.1988 63.5091C30.4388 158.488 25.5364 168.725 31.5492 168.725C35.61 168.725 35.6836 163.263 37.2148 148.594C38.7524 133.874 42.034 115.099 43.6436 95.6611C49.522 103.227 54.4116 107.747 61.7748 115.058C63.8548 102.984 70.9908 65.3331 71.026 65.1699C72.322 65.4883 73.6388 65.7011 74.9684 65.8099C75.6695 65.8069 76.3578 65.6216 76.9655 65.272C77.5733 64.9225 78.0796 64.4208 78.4347 63.8163C78.7898 63.2118 78.9815 62.5252 78.9909 61.8242C79.0004 61.1232 78.8272 60.4317 78.4884 59.8179C71.5716 47.3251 71.3988 45.6211 68.2484 45.6211C67.2534 45.6205 66.2939 45.9907 65.5572 46.6595Z" fill="#0F0F0F"/>
<path d="M76.3908 60.9885L69.6804 48.8733C69.5613 48.6588 69.3955 48.4739 69.1951 48.3322C68.9948 48.1906 68.7652 48.0959 68.5232 48.0551C68.2813 48.0144 68.0333 48.0287 67.7976 48.0969C67.562 48.1652 67.3447 48.2856 67.162 48.4493L57.0564 57.5245C56.829 57.7285 56.6634 57.9923 56.5785 58.2858C56.4936 58.5792 56.4928 58.8906 56.5762 59.1846C56.6595 59.4785 56.8237 59.7431 57.05 59.9483C57.2763 60.1535 57.5557 60.2911 57.8564 60.3453L63.81 61.4205C62.2388 67.0749 60.8148 78.5885 59.5268 84.3197C56.2148 99.0397 56.8276 98.9309 56.4708 98.5469C47.2532 88.6397 44.1364 82.8189 37.2148 71.4397C34.2404 130.848 29.7492 166.32 31.5556 166.32C33.1364 166.32 33.6356 159.694 34.8292 148.341C35.5764 141.237 39.554 112.661 40.346 105.12C41.5188 93.8173 41.6884 88.7181 41.786 89.0701C41.6676 88.9101 45.2164 95.2141 60.2036 110.094C62.826 94.8781 68.706 64.3309 69.2436 62.3981L74.6724 63.3821C74.9758 63.4367 75.2886 63.4042 75.5743 63.2884C75.8601 63.1726 76.1072 62.9781 76.287 62.7277C76.4668 62.4772 76.572 62.1809 76.5904 61.8731C76.6087 61.5653 76.5395 61.2586 76.3908 60.9885Z" fill="#92FCFF"/>
<path d="M137.384 144.142C148.027 131.68 137.611 103.52 121.155 98.8801C113.451 96.7073 107.223 99.2545 97.901 103.68C82.4082 111.027 90.941 150.08 112.594 153.6C114.034 153.917 115.525 153.934 116.973 153.648C122.333 152.653 133.117 148.48 137.384 144.142Z" fill="#FDFE1F"/>
<path d="M116.126 96.9997C111.06 96.8269 104.814 99.5597 100.115 101.625C96.3436 103.369 93.366 104.259 91.0396 109.59C84.1308 126.974 95.9132 153.064 113.958 154.787C119.371 155.427 131.115 150.16 136.337 146.445C151.184 135.878 138.475 97.0909 116.126 96.9997ZM106.595 101.395C103.69 103.957 101.802 107.478 101.275 111.315C97.614 112.95 98.054 113.637 92.0428 114.545C93.7436 106.161 97.4396 104.968 106.595 101.395ZM91.7244 116.48C92.8844 116.037 96.1884 114.529 96.4636 114.529C97.8924 114.085 99.686 113.747 100.996 113.421C100.747 117.074 101.066 120.745 101.944 124.301C97.3836 126.125 99.2156 126.461 92.1452 127.483C91.3874 123.865 91.2452 120.145 91.7244 116.48ZM92.5452 129.208C101.08 125.825 97.9852 127.536 102.441 126.214C103.509 129.985 105.037 133.611 106.988 137.009C106.456 137.229 102.52 139.089 102.156 139.089C100.556 139.579 98.4604 139.846 97.1388 140.128C95.0935 136.728 93.5465 133.052 92.5452 129.213V129.208ZM98.1708 141.731C98.3308 141.659 102.054 139.905 102.416 139.905C104.336 139.326 106.896 139.069 108.032 138.721C109.705 141.417 111.789 143.834 114.208 145.888C108.868 149.088 110.112 147.897 105.712 149.376C102.709 147.363 100.144 144.764 98.1708 141.736V141.731ZM107.569 150.451C108.555 149.827 109.585 149.278 110.656 148.809C110.816 148.809 115.766 147.267 115.952 147.176C118.853 148.888 122.185 149.732 125.552 149.608C115.596 153.632 112.048 152.753 107.568 150.456V150.451H107.569ZM134.017 145.397C107.638 162.837 86.5132 96.5165 118.475 99.4045C122.321 100.114 125.918 101.808 128.916 104.32C141.196 114.361 145.785 137.624 134.019 145.401V145.397H134.017Z" fill="#0F0F0F"/>
<path d="M134.559 118.323C131.385 111.603 140.959 130.721 132.639 140.824C120.205 156.459 97.8534 114.584 111.583 104.702C113.33 103.582 115.365 102.996 117.44 103.017C119.515 103.038 121.539 103.664 123.263 104.819C131.471 110.198 133.335 117.355 133.887 117.105C134.367 116.888 127.071 100.376 115.455 101.915C100.599 103.873 104.018 130.841 119.602 143.252C130.913 152.246 142.546 135.241 134.559 118.323Z" fill="#0F0F0F"/>
<path d="M124.582 121.722C123.747 121.293 123.763 121.53 124.151 121.149C124.926 120.335 125.466 119.327 125.714 118.231C125.961 117.135 125.908 115.993 125.559 114.925C125.21 113.857 124.579 112.904 123.732 112.166C122.885 111.428 121.854 110.933 120.748 110.733C120.54 108.653 119.175 107.427 118.815 107.679C118.455 107.93 118.815 109.018 119.159 110.303C119.3 110.811 119.463 110.427 117.191 110.645C116.491 107.096 114.791 107.351 115.724 110.858C115.132 111.085 114.555 111.352 113.998 111.658C114.649 114.234 116.846 119.629 117.987 124.029C117.987 124.189 120.263 134.682 121.071 136.797C122.711 136.191 122.387 136.283 122.705 136.277C123.273 138.963 125.804 140.586 124.204 136.194C124.951 136.124 125.688 135.969 126.399 135.731C127.54 139.891 128.975 138.344 127.745 135.117C132.98 132 129.439 124.355 124.582 121.722ZM117.367 113.379C120.347 112.474 122.799 112.28 124.203 115.087C124.541 115.876 124.579 116.761 124.31 117.577C124.041 118.392 123.483 119.081 122.742 119.514C121.447 120.161 120.049 120.578 118.611 120.746C118.121 118.175 117.729 115.482 117.367 113.379ZM122.852 133.354C121.461 130.343 120.285 127.237 119.332 124.059C120.748 123.546 122.278 123.428 123.756 123.719C128.977 125.336 132.545 134.248 122.852 133.354Z" fill="#0F0F0F"/>
<path d="M241.67 271.283C266.8 274.163 274.23 266.933 282.323 254.046C286.26 247.778 285.492 237.946 284.534 230.768C281.929 211.285 266.585 200.837 249.974 198.874C235.547 197.171 220.417 197.754 207.22 191.674C198.26 187.549 189.516 180.302 179.841 182.205C175.841 182.99 167.616 187.493 166.574 191.114C166.176 193.072 166.399 195.105 167.214 196.93C167.955 198.21 168.68 198.557 175.763 203.459C179.697 206.179 178.392 207.411 177.444 209.528C176.259 212.179 175.908 217.923 178.323 223.482C179.43 226.034 181.104 228.224 182.438 230.64C186.448 237.894 189.798 238.365 198.011 241.798C198.851 242.149 199.044 242.406 199.024 243.491C198.675 262.467 222.852 269.12 241.67 271.283Z" fill="white"/>
<path d="M285.581 246.738C284.078 246.052 278.553 264.676 263.464 268.717C251.56 272.024 235.318 268.1 223.097 265.037C211.44 261.812 200.441 256.28 200.728 244.247C219.528 246.943 230.43 249.244 230.648 248.356C230.773 247.853 226.605 246.266 219.656 244.405C203.926 240.212 198.093 240.86 192.963 238.216C185.483 234.423 175.203 218.797 179.761 209.133C194.547 219.112 195.045 220.679 210.209 222.349C211.781 222.509 236.749 225.61 236.917 224.373C237.089 223.093 213.009 219.17 210.662 218.831C195.747 216.632 197.24 216.301 176.902 202.562C170.55 198.269 164.126 194.932 170.182 189.015C175.205 183.935 181.744 183.48 188.633 185.58C198.782 188.666 207.582 197.223 239.633 199.272C247.611 199.752 252.55 199.365 252.568 198.863C252.609 197.818 237.712 197.002 218.339 192.519C200.771 188.308 201.499 185.525 189.752 181.895C181.55 179.397 173.592 180.135 167.449 186.303C162.425 191.3 162.23 197.204 170.187 202.671C175.627 206.407 174.144 205.349 176.542 206.967C170.31 218.816 181.966 236.948 191.208 241.65C193.153 242.61 195.222 243.295 197.355 243.688C196.024 263.032 218.081 268.589 236.989 272.034C255.416 275.287 270.489 274.464 280.349 258.58C283.542 253.48 286.008 246.928 285.581 246.738Z" fill="#0F0F0F"/>
<path d="M164.341 178.635C174.888 153.382 175.421 152.796 176.651 152.155C178.349 151.271 180.518 152.635 181.198 154.42C182.714 158.404 178.462 167.959 177.726 179.187C177.246 186.526 175.326 193.945 175.336 201.246C175.387 222.42 170.696 226.899 178.042 279.939C179.05 287.214 166.51 287.779 161.419 288.235C154.55 288.86 147.147 288.268 141.099 284.684C137.336 282.462 155.368 200.123 164.341 178.635Z" fill="#FFC5F6"/>
<path d="M150.854 250.379C150.961 252.761 153.702 257.11 157.14 257.247C160.433 257.379 167.827 252.985 170.833 245.463C172.06 242.393 171.814 239.307 166.91 236.823C159.63 233.131 150.622 245.279 150.854 250.379Z" fill="#FDFE1F"/>
<path d="M176.032 219.187C174.672 260.054 179.274 282.363 178.131 282.556C177.587 282.647 175.935 273.175 175.749 271.903C167.443 214.844 180.005 155.619 181.731 156.003C182.599 156.196 177.296 181.254 176.032 219.187Z" fill="#0F0F0F"/>
<path d="M154.01 216.88C143.571 256.174 141.463 284.099 140.41 284.005C139.575 283.929 141.443 266.205 141.727 263.878C149.663 198.539 175.007 151.528 176.338 152.222C177.346 152.752 166.258 170.773 154.01 216.88Z" fill="#0F0F0F"/>
<path d="M172.13 242.174C171.922 239.004 169.09 236.833 166.185 235.48C159.362 232.404 148.764 245.88 150.429 251.585C151.118 253.648 152.394 255.465 154.101 256.812C154.757 257.304 155.517 257.633 156.325 257.772C162.97 259.131 172.628 248.758 172.13 242.174ZM169.855 245.4C167.583 244.28 167.815 243.96 166.231 242.16C166.584 241.424 166.776 240.622 166.794 239.806C166.813 238.991 166.657 238.181 166.338 237.43C169.781 239.374 171.25 241.648 169.855 245.4ZM159.258 238.4C163.997 235.152 166.605 236.96 165.658 240.601C164.759 244.454 159.565 249.58 156.858 250.681C147.594 254.315 152.583 242.996 159.258 238.4ZM155.073 255.43C153.89 254.527 152.919 253.375 152.228 252.057C153.506 252.467 154.88 252.467 156.157 252.057C156.468 252.441 158.095 253.761 158.095 253.95C158.498 254.592 158.853 255.264 159.156 255.958C158.478 256.173 157.761 256.236 157.055 256.144C156.35 256.052 155.673 255.807 155.073 255.425V255.43ZM160.532 255.444C160.247 255.099 158.612 253.753 158.612 253.564C158.208 252.918 157.852 252.243 157.546 251.545C159.019 250.841 160.349 249.873 161.473 248.689C163.277 250.166 163.133 249.353 165.085 252.163C163.753 253.492 162.215 254.598 160.532 255.44V255.444ZM165.953 251.267C163.073 249.272 164.145 249.675 162.477 247.662C163.707 246.417 164.766 245.014 165.626 243.489C167.061 244.235 168.339 245.249 169.391 246.476C168.466 248.22 167.31 249.829 165.953 251.262V251.267Z" fill="#0F0F0F"/>
<path d="M163.775 217.87C165.492 220.251 165.913 221.773 164.546 224.185C164.269 224.849 163.79 225.409 163.177 225.784C162.563 226.16 161.847 226.332 161.13 226.277C160.654 226.239 160.191 226.102 159.772 225.875C145.919 220.845 155.004 205.713 163.775 217.87Z" fill="#FDFE1F"/>
<path d="M165.562 220C164.519 217.419 161.215 213.613 158.127 212.8C157.212 212.609 156.263 212.68 155.387 213.006C154.512 213.331 153.747 213.898 153.179 214.64C148.778 219.139 157.72 227.72 162.407 226.579C163.674 226.093 164.707 225.141 165.294 223.917C165.88 222.694 165.976 221.292 165.562 220ZM159.839 214.582C162.399 216.131 165.066 219.382 164.946 221.864C163.549 224.32 157.01 219.853 155.922 216.2C155.256 214.158 156.562 212.629 159.839 214.582ZM155.378 214.248C155.209 214.729 155.143 215.241 155.186 215.749C155.228 216.258 155.378 216.751 155.624 217.198C154.712 218.368 154.856 218.574 153.48 219.361C152.456 217.048 153.325 215.574 155.378 214.248ZM153.813 220.008C154.424 219.2 155.184 218.517 156.053 217.997C156.649 218.917 157.364 219.754 158.179 220.486C157.293 221.699 157.859 221.523 156.146 222.872C155.242 222.029 154.458 221.068 153.813 220.014V220.008ZM156.723 223.398C157.843 221.56 157.77 222.089 158.848 221.089C159.595 221.786 160.462 222.341 161.408 222.726C160.322 225.217 160.554 224.088 159.687 225.277C158.606 224.814 157.605 224.182 156.723 223.405V223.398ZM163.871 224.24C163.535 224.785 163.032 225.207 162.437 225.442C161.841 225.677 161.186 225.714 160.568 225.545C161.608 223.145 161.579 223.997 162.293 222.985C163.107 223.192 163.965 223.141 164.749 222.84C164.556 223.364 164.257 223.843 163.871 224.246V224.24Z" fill="#0F0F0F"/>
<path d="M166.033 202.992C170.331 204.413 175.833 196.712 174.742 193.189C174.312 192.213 173.611 191.381 172.721 190.794C171.832 190.206 170.792 189.887 169.726 189.875C167.671 190.009 164.481 192.885 163.326 197.013C162.914 198.166 162.966 199.434 163.471 200.55C163.976 201.665 164.895 202.541 166.033 202.992Z" fill="#FDFE1F"/>
<path d="M175.133 193.046C174.818 192.15 174.271 191.354 173.548 190.739C172.826 190.124 171.952 189.711 171.018 189.543C167.397 188.484 163.432 194.417 162.751 198.084C162.58 198.909 162.653 199.766 162.961 200.55C163.268 201.334 163.796 202.012 164.482 202.502C169.413 207.039 176.061 197.377 175.133 193.046ZM174.044 195.164C172.512 194.657 172.615 194.399 171.605 193.532C171.754 193.063 171.802 192.567 171.744 192.078C171.687 191.589 171.526 191.118 171.272 190.695C173.498 191.571 174.559 192.799 174.044 195.164ZM164.82 194.755C168.02 189.475 171.496 189.486 171.133 192.646C170.578 198.796 159.943 204.903 164.82 194.755ZM167.06 202.659C165.83 202.403 164.752 201.67 164.063 200.62C164.861 200.758 165.683 200.642 166.412 200.289C167.439 201.249 167.032 200.227 168.532 202.369C168.068 202.567 167.567 202.665 167.061 202.659H167.06ZM169.311 201.95C168.031 200.772 168.778 202.121 167.194 199.87C167.999 199.34 168.7 198.668 169.263 197.886C169.348 197.777 170.692 198.575 170.805 198.662C171.148 198.95 171.464 199.267 171.754 199.607C171.07 200.513 170.246 201.304 169.312 201.95H169.311ZM172.2 198.998C170.335 198.052 170.89 198.113 169.821 197.134C170.452 196.286 170.968 195.358 171.354 194.374C171.767 194.574 172.354 194.795 172.786 195.054C173.156 195.299 173.512 195.563 173.855 195.846C173.449 196.966 172.893 198.027 172.202 198.998H172.2Z" fill="#0F0F0F"/>
<path d="M36.6569 204.724C37.3927 207.261 38.8048 209.549 40.742 211.345C42.6791 213.141 45.0684 214.376 47.6537 214.917C55.2409 216.197 61.9912 210.559 68.8584 207.09C82.1032 200.399 92.068 202.205 101.745 187.344C120.82 158.052 105.017 137.868 93.6696 140.842C88.8168 142.122 86.7736 146.442 84.1816 150.173C69.6632 171.077 30.0329 182.933 36.6569 204.724Z" fill="white"/>
<path d="M122.509 209.55C106.95 216.206 107.414 216.11 106.416 216.197C104.39 216.384 98.0576 213.88 91.872 215.27C82.8544 217.298 79.776 226.608 87.4352 233.042C90.3883 235.24 93.6957 236.918 97.2144 238.002C80.5984 253.262 91.4304 270.571 105.864 263.866C114.557 259.827 109.562 260.171 126.952 256.016C134.536 254.205 140.781 250.896 141.672 242.61C142.52 234.77 137.088 231.744 137.48 229.99C137.754 228.758 141.725 225.03 142.152 220.55C142.605 215.765 138.43 206.95 129.8 202.173C127.88 201.112 125.178 199.315 123.31 201.102C121.256 203.075 121.31 207.214 122.51 209.55H122.509Z" fill="white"/>
<path d="M139.259 230.229C148.624 222.157 144.48 204.402 124.8 198.855C119.7 197.469 112.896 197.181 112.841 197.952C112.747 199.215 132.219 200.341 138.472 212.951C140.912 217.77 141.032 223.991 136.78 227.288C132.676 230.968 126.06 232.501 119.18 235.509C111.422 238.907 110.998 238.447 105.801 237.472C94.0412 235.264 78.9468 229.168 86.83 220.317C92.3276 213.973 101.931 216.864 106.19 217.437C108.486 217.568 110.759 216.932 112.654 215.629C126.505 208.394 126.166 207.208 111.51 213.159C105.59 215.514 107.923 213.847 99.918 212.799C82.878 210.559 72.3724 227.723 90.2236 236.584C97.6124 240.218 95.3804 236.264 90.3836 244.458C82.3964 257.944 91.0556 272.786 106.772 265.659C111.822 263.387 115.936 259.882 127.55 257.227C135.971 255.125 142.228 252.267 143.268 243.575C143.534 241.195 143.316 238.786 142.627 236.492C141.938 234.199 140.792 232.068 139.259 230.229ZM137.931 248.203C135.451 251.445 130.708 252.632 126.676 253.578C114.692 256.138 109.892 260.042 105.204 262.173C90.422 269.003 85.2364 251.584 98.0252 239.549C111.521 243.503 113.225 242.237 123.001 238.05C125.502 236.978 132.582 234.903 137.129 231.859C140.596 236.267 141.465 243.6 137.929 248.203H137.931Z" fill="#0F0F0F"/>
<path d="M111.719 152.525C108.439 139.725 94.1051 132.493 84.3755 145.737C80.5355 150.957 80.5931 152.643 72.1051 160.072C51.3339 178.195 21.8059 190.081 27.8123 223.4C29.6955 233.734 35.1915 244.347 35.6283 244.145C36.2251 243.883 31.4683 234.225 29.9387 223.064C25.6475 191.368 52.3899 182.025 74.5787 162.918C86.9531 152.213 86.0763 147.438 91.6187 143.837C98.0619 139.753 109.175 145.126 108.875 161.101C108.622 171.413 105.316 179.195 99.3467 187.558C95.4218 193.493 89.7289 198.041 83.0747 200.56C77.9323 202.574 74.4747 203.328 74.5611 203.862C74.6283 204.275 78.2155 204.411 83.8651 202.902C103.849 197.261 116.207 170.171 111.719 152.525Z" fill="#0F0F0F"/>
</svg>
