<svg width="320" height="320" viewBox="0 0 320 320" fill="none" xmlns="http://www.w3.org/2000/svg">
<path d="M221.44 122.288C224.915 129 229.315 123.712 237.76 122.47C238.966 122.293 239.553 122.47 240.174 124.053C240.764 125.557 243.584 133.395 242.853 134.827C242.39 135.733 241.508 135.803 236.72 137.051C226.48 139.715 215.317 144.08 207.573 129.491C203.865 122.507 201.539 107.672 201.929 105.899C202.406 104.354 203.338 102.989 204.602 101.981C205.866 100.973 207.405 100.37 209.017 100.25C218.161 99.6464 215.715 111.243 221.44 122.288Z" fill="#FFC5F6"/>
<path d="M239.747 119.2C240.958 127.709 242.958 136.395 249.568 141.899C251.412 143.435 252.372 143.006 253.398 141.755C256.38 138.12 256.345 137.038 259.82 138.917C261.806 139.97 264.007 140.554 266.253 140.625C268.5 140.696 270.732 140.251 272.78 139.325C274.046 138.741 276.894 136.95 278.619 138.733C279.115 139.441 279.516 140.209 279.817 141.021C281.182 143.462 284.928 143.611 287.177 141.944C290.217 139.693 290.9 135.173 291.083 134.817C292.089 131.412 292.589 127.878 292.568 124.328C292.422 123.731 292.222 123.149 291.971 122.589C291.226 120.01 290.734 117.366 290.502 114.693C290.124 112.481 289.022 112.968 288.582 110.28C288.248 108.261 289.616 104.222 285.433 99.5598C280.363 93.9166 274.291 94.9566 270.008 92.0958C265.644 89.1806 263.278 81.571 257.356 81.9342C254.059 82.1358 251.606 85.411 251.23 88.6942C251.101 92.0116 251.831 95.306 253.352 98.2574C254.272 100.408 254.081 101.008 253.294 102.296C248.841 109.569 248.63 110.12 247.995 110.497C246.942 111.123 244.547 110.438 241.043 112.35C239.022 113.448 239.392 116.701 239.747 119.2Z" fill="white"/>
<path d="M292.715 121.531C293.053 119.621 292.968 117.661 292.467 115.787C291.965 113.914 291.058 112.173 289.811 110.688C292.093 104.347 289.04 97.4223 280.302 94.6255C276.445 93.3567 273.219 92.8799 270.542 90.4095C267.835 87.8783 266.102 84.0543 262.345 81.9119C253.525 76.9887 244.534 88.6607 253.48 100.366C250.722 102.98 248.601 106.193 247.281 109.757C239.003 108.216 237.44 112.434 238.045 120.822C236.502 121.178 225.528 124.904 224.493 124.368C221.027 122.573 218.584 110.288 217.87 106.462C217.68 105.215 217.194 104.031 216.454 103.009C215.713 101.987 214.739 101.158 213.613 100.589C211.213 99.4239 209.213 99.8719 209.241 100.243C209.254 100.723 212.685 101.187 214.293 104.038C215.253 105.691 214.977 106.904 215.601 111.002C216.081 114.17 218.587 124.003 221.073 125.827C224.368 128.907 224.377 128.43 238.429 124.158C240.349 136.342 243.678 133.816 238.947 135.301C230.112 138.077 219.731 142.234 211.47 131.213C207.177 125.483 204.55 115.123 203.259 107.475C202.315 102.355 208.605 100.755 208.539 100.301C208.496 99.2447 200.273 101.146 200.931 107.758C201.593 116.29 204.169 127.019 208.816 133.198C218.837 146.539 231.547 141.099 242.982 137.51C244.797 140.624 249.077 146.054 252.321 144.478C253.945 143.741 254.795 142.133 256.99 139.069C259.876 141.288 263.407 142.507 267.048 142.539C270.689 142.572 274.241 141.417 277.166 139.249C278.379 144.872 285.509 146.593 290.027 140.689C292.934 136.907 295.849 126.4 292.715 121.531ZM288.657 113.107C292.121 119.507 288.675 126.893 282.198 130.209C275.107 133.771 270.344 125.273 276.813 120.389C279.225 120.21 281.56 119.455 283.62 118.188C285.681 116.921 287.408 115.179 288.657 113.107ZM255.309 137.747C250.907 142.534 251.697 143.136 248.869 140.291C243.309 134.705 240.443 122.341 241.189 114.802C241.489 112.882 242.117 112.347 243.909 112.125C244.837 112.014 245.773 111.991 246.705 112.054C245.982 118.303 247.065 124.628 249.825 130.28C251.252 133.039 253.102 135.558 255.309 137.746V137.747ZM252.813 128.808C250.291 123.639 249.23 117.88 249.745 112.152C250.587 108.417 252.395 104.968 254.987 102.15C256.747 104.102 258.782 106.085 258.445 108.77C258.301 110.178 257.965 111.021 258.209 111.138C258.529 111.32 260.529 108.985 259.915 105.877C259.385 103.165 257.056 100.928 255.563 98.5535C249.694 89.2735 255.19 81.6191 260.753 84.8319C263.513 86.3455 265.424 90.1647 268.273 92.8319C271.557 95.8991 275.278 96.4447 279.261 97.7807C294.72 102.805 284.701 119.221 274.027 116.981C270.95 116.392 270.165 113.414 271.467 110.528C273.085 106.947 276.768 105.384 278.739 103.008C279.811 101.76 280.094 100.87 279.921 100.754C279.717 100.614 279.096 101.203 277.877 102.043C275.443 103.803 271.233 105.192 268.998 109.309C266.504 113.976 268.336 119.016 273.291 120.161C268.678 125.142 270.641 133.053 277.569 134.187C277.302 134.988 277.124 135.816 277.038 136.656C266.88 143.19 257.345 138.24 252.813 128.8V128.808ZM284 141.488C281.022 142 278.4 139.515 279.662 134.275C281.079 134.186 282.463 133.807 283.728 133.163C290.561 129.669 291.605 124.218 291.672 125.066C291.969 128.429 289.555 140.547 284 141.488Z" fill="#0F0F0F"/>
<path d="M48.9598 290.28C48.4798 285.909 44.091 283.15 53.147 269.43C56.7854 263.918 58.2862 262.486 65.787 260.726C68.371 260.12 69.5326 260.026 73.0366 255.237C73.1678 255.058 77.1358 248.387 80.2158 247.475C81.2574 247.166 79.7246 246.568 99.003 232.934C106.032 227.963 116.795 223.56 117.653 223.075C128.213 217.112 161.787 210.565 175.864 212.31C181.784 213.045 185.971 212.422 191.685 214.144C205.745 218.382 222.224 221.08 233.835 230.074C236.346 232.109 239.052 233.891 241.915 235.392C246.637 237.661 253.982 229.374 274.899 253.579C281.421 261.125 287.105 272.278 286.321 282.219C286.001 286.334 282.672 287.339 284.697 290.944C285.253 291.93 288.547 300.88 288.4 302.005C286.861 313.845 253.709 309.746 246.12 310.022C191.685 311.997 154.083 311.35 108.051 311.862C100.531 311.947 43.2366 313.331 44.5758 304.894C45.3486 300.074 49.4078 294.322 48.9598 290.28Z" fill="white"/>
<path d="M280.332 276.626C280.075 269.861 270.705 259.056 269.932 259.709C269.443 260.12 273.539 265.856 276.003 271.309C276.702 272.885 278.243 276.605 277.283 278.082C276.939 278.532 276.45 278.849 275.899 278.981C274.553 279.301 275.326 279.386 274.747 276.669C273.592 271.278 269.412 266.429 266.011 262.093C261.454 256.464 256.963 249.501 250.582 248.322C252.116 241.282 262.664 251.798 263.502 250.646C263.806 250.234 256.782 242.293 251.76 243.528C248.708 244.254 246.726 248.075 248.24 252.28C250.496 258.573 259.619 268.43 264.345 274.488C266.633 277.368 269.742 280.926 273.332 281.736C276.491 282.56 280.457 280.822 280.332 276.626ZM269.998 276.626C268.822 275.544 250.99 255.445 250.5 249.806C253.04 250.724 255.288 252.302 257.012 254.379C258.425 255.942 269.332 269.565 271.156 272.746C272.31 274.624 273.083 276.711 273.43 278.888C272.147 278.371 270.981 277.604 269.998 276.63V276.626Z" fill="#0F0F0F"/>
<path d="M233.574 272.765C228.882 263.786 215.45 259.485 215.197 260.725C214.994 261.397 226.858 265.294 231.158 274.005C232.842 277.344 232.723 281.784 229.336 282.563C232.498 270.536 204.587 263.171 195.392 264.237C189.19 264.955 188.578 267.981 188.472 266.995C187.069 256.416 209.112 260.702 209.307 260.038C209.971 258.214 183.786 252.962 185.726 267.36C186.442 272.664 191.592 275.371 197.022 276.254C201.498 276.667 205.917 277.542 210.211 278.866C218.334 281.544 224.181 286.774 230.221 285.197C234.19 284.246 236.771 278.827 233.574 272.765ZM211.082 276.234C200.218 272.642 192.806 274.83 189.259 269.171C190.494 267.184 193.251 266.435 195.579 266.227C203.757 265.68 230.89 272.501 227.696 282.683C222.907 282.456 218.818 278.781 211.082 276.234Z" fill="#0F0F0F"/>
<path d="M181.349 243.008C178.161 237.778 168.029 238.048 168.251 239.357C168.288 239.773 170.171 239.773 172.891 240.581C176.689 241.728 180.984 244.211 178.798 247.597C169.529 240.624 154.894 242.68 151.048 247.861C148.008 242.208 159.611 240.181 159.358 239.19C159.28 238.87 157.392 238.63 154.318 239.48C145.304 241.97 146.488 250.67 153.229 252.883C156.381 253.981 160.081 252.813 166.045 252.818C169.725 252.758 179.645 255.032 181.947 247.285C182.145 246.569 182.194 245.82 182.091 245.084C181.988 244.349 181.736 243.642 181.349 243.008ZM166.041 250.048C158.438 250.048 155.029 251.714 152.053 249.107C155.181 245.243 168.107 243.211 177.726 248.787C174.79 251.238 170.43 250.019 166.041 250.048Z" fill="#0F0F0F"/>
<path d="M59.0556 275.547C56.0812 280.714 54.0204 285.128 53.4204 284.925C52.8604 284.736 54.0428 279.814 57.1356 274.442C60.2284 269.069 63.8908 265.576 64.3356 265.962C64.8124 266.379 62.03 270.381 59.0556 275.547Z" fill="#0F0F0F"/>
<path d="M132.337 271.432C127.361 265.139 114.014 271.218 114.624 272.298C114.889 272.768 120.022 270.65 125.115 270.858C128.315 270.923 132.595 272.696 129.837 275.658C124.961 274.288 119.773 274.544 115.056 276.387C105.713 279.747 103.432 285.414 102.869 285.162C96.3614 282.282 108.789 273.941 108.653 273.642C108.421 273.069 102.025 275.392 99.4718 280.051C96.8574 285.171 101.051 288.485 106.851 288.021C112.182 287.656 138.256 279.054 132.337 271.432ZM104.464 285.586C109.904 279.41 120.144 275.312 128.624 276.786C124.387 280.174 109.683 286.266 104.464 285.586Z" fill="#0F0F0F"/>
<path d="M211.755 237.96C210.176 235.44 210.773 232.771 214.176 233.48C219.869 235.061 223.563 240.824 223.136 241.16C222.656 241.533 219.07 236.52 213.718 235.288C213.549 235.234 212.901 235.128 212.893 235.277C212.573 238.157 224.189 246.877 223.429 242.405C223.269 241.688 223.008 241.24 223.136 241.16C223.328 241.022 224.312 241.96 224.368 242.982C224.367 243.391 224.245 243.79 224.017 244.13C223.789 244.469 223.466 244.733 223.088 244.888C220.225 246.016 213.246 240.339 211.755 237.96Z" fill="#0F0F0F"/>
<path d="M114.091 250.24C111.166 249.72 109.582 247.483 112.401 245.44C117.397 242.287 124.145 243.413 124.104 243.962C124.059 244.551 117.881 243.88 113.43 247.002C113.286 247.083 112.755 247.496 112.867 247.607C114.755 249.765 129.075 247.045 125.225 244.584C124.585 244.223 124.081 244.115 124.105 243.967C124.141 243.731 125.491 243.632 126.285 244.277C126.589 244.553 126.803 244.914 126.901 245.313C126.999 245.712 126.975 246.131 126.833 246.517C125.76 249.36 116.861 250.72 114.091 250.24Z" fill="#0F0F0F"/>
<path d="M154.932 275.762C149.148 280.706 145.076 277.869 145.72 275.144C146.019 273.88 147.096 273.224 147.228 273.395C147.35 273.533 146.06 275.213 147.028 276.302C148.59 278.062 152.14 275.925 153.806 274.494C154.9 273.555 154.82 272.155 154.104 271.877C151.84 271.264 147.443 273.637 147.224 273.395C146.481 272.632 156.328 267.074 156.272 272.984C156.278 273.519 156.161 274.048 155.928 274.53C155.696 275.012 155.355 275.434 154.932 275.762Z" fill="#0F0F0F"/>
<path d="M83.7504 278.84C80.7104 276.523 86.6528 271.446 89.9216 272.093C90.5312 272.214 90.7424 272.589 90.6704 272.637C88.7171 272.856 86.9263 273.829 85.6784 275.347C83.8288 277.245 84.3872 278.605 87.5328 276.787C91.9216 274.242 90.5088 272.859 90.6704 272.643C90.856 272.03 93.4752 274.68 88.3712 278.106C86.9312 279.064 85.2304 279.85 83.7504 278.84Z" fill="#0F0F0F"/>
<path d="M244.626 287.254C240.915 284.054 241.867 280.938 242.293 281.427C242.754 283.338 243.943 284.992 245.606 286.038C247.731 287.638 248.992 286.898 246.797 284.021C243.72 279.989 242.526 281.562 242.293 281.427C241.637 281.32 243.954 278.379 248 283.027C251.64 287.2 248.357 290.477 244.626 287.254Z" fill="#0F0F0F"/>
<path d="M187.797 280.968C177.363 276.408 177.147 264.6 177.989 264.762C178.286 264.746 178.269 266.976 179.571 270.149C184.033 281.029 194.041 280.765 201.669 282.734C205.153 283.634 207.091 284.832 206.987 285.014C206.877 285.248 204.856 284.482 201.414 283.906C196.897 283.149 192.189 282.888 187.797 280.968Z" fill="#0F0F0F"/>
<path d="M155.68 258.098C147.712 257.298 143.278 252.373 143.816 251.935C144.265 251.503 147.409 255.547 155.859 256.415C161.753 257.018 168.997 255.944 169.075 256.575C169.153 257.205 161.161 258.655 155.68 258.098Z" fill="#0F0F0F"/>
<path d="M135.83 280.549C131.502 285.189 122.909 288.794 122.627 288.088C122.437 287.608 130.187 284.122 134.585 279.397C137.145 276.654 137.982 273.915 136.325 270.557C135.173 268.221 133.987 266.92 134.206 266.744C134.469 266.509 142.944 272.934 135.83 280.549Z" fill="#0F0F0F"/>
<path d="M212.8 245.29C209.28 242.536 206.773 238.09 207.381 237.755C207.821 237.51 209.992 240.942 213.843 243.954C217.694 246.965 221.549 248.246 221.417 248.733C221.269 249.28 216.742 248.374 212.8 245.29Z" fill="#0F0F0F"/>
<path d="M288.112 295.374C287.358 293.28 286.548 291.207 285.683 289.157C297.171 273.466 265.573 228.574 243.061 234.742C191.605 195.413 111.688 204.134 68.091 258.802C56.7118 256.059 44.0558 279.454 46.587 286.622C48.371 291.758 48.9438 287.362 45.371 296.235C43.6766 300.424 43.291 304.162 44.1726 304.426C45.7982 304.917 49.347 295.198 50.8398 291.923C57.275 294.381 65.0702 284.563 63.9118 283.741C63.091 283.16 56.0446 291.138 51.2926 288.429C49.2622 285.568 48.9326 283.902 50.379 280.059C52.459 274.818 55.179 269.042 59.371 265.309C62.9086 262.072 68.6814 259.941 69.531 264.786C70.307 269.053 68.6814 275.186 69.3982 275.486C70.2174 275.848 72.5278 270.526 72.6254 266.058C90.3766 244.103 115.053 228.821 142.617 222.713C170.182 216.604 199.003 220.03 224.368 232.43C227.195 233.723 233.808 237.301 230.813 235.424C179.513 204.586 111.718 216.128 72.3838 263.264C72.1415 261.968 71.4641 260.793 70.4638 259.934C115.534 207.885 189.88 201.101 240.265 235.894C226.875 243.61 245.406 267.298 246.513 266.48C247.389 265.84 233.553 246.875 240.273 240.011C249.441 230.16 280.867 249.973 284.753 280.27C284.794 280.976 284.783 281.683 284.721 282.387C284.185 289.56 276.721 293.107 268.496 288.398C263.041 285.251 251.491 273.038 250.667 273.853C250.139 274.374 261.067 287.326 266.931 291.032C272.008 294.194 278.237 294.998 283.121 291.658C283.776 293.258 284.397 294.87 284.984 296.498C288.849 307.147 290.88 302.992 288.112 295.374Z" fill="#0F0F0F"/>
<path d="M208.96 111.96C208.64 102.742 207.47 79.1902 189.235 58.8846C145.737 10.4526 52.9391 32.6766 56.0623 112.677C57.8223 157.797 92.2318 188.941 130.36 191.568C134.481 191.851 171.997 193.633 194.819 164.973C210.665 145.065 209.288 121.525 208.96 111.96Z" fill="#FDFE1F"/>
<path d="M210.926 112.8C207.688 23.6319 106.606 9.62546 68.1774 61.8815C34.7758 107.289 61.7598 188.785 130.221 193.501C153.155 195.081 180.36 186.238 196.331 166.181C212.149 146.317 211.291 122.829 210.926 112.8ZM198.446 146.672C202.574 139.744 205.489 132.162 207.065 124.253C206.726 135.403 203.776 146.319 198.451 156.121C196.701 150.377 199.093 146.72 198.453 146.672H198.446ZM140.425 173.073C104.499 173.073 75.2686 142.801 75.2686 105.593C75.2686 46.1519 145.979 13.6399 187.781 60.1855C199.195 72.5556 205.548 88.7615 205.581 105.593C205.581 119.8 202.334 134.43 194.701 146.422C194.501 146.4 182.323 173.069 140.432 173.069L140.425 173.073ZM174.891 179.473C163.567 185.689 150.95 189.178 138.041 189.662C138.064 189.502 138.758 183.902 138.942 183.721C139.627 181.256 141.022 178.289 141.595 176.382C153.264 176.457 164.785 173.776 175.222 168.557C176.209 174.213 176.041 173.947 174.897 179.477L174.891 179.473ZM72.2878 98.5455C70.7678 99.0255 65.3358 101.134 64.6718 101.134C62.619 101.569 60.0814 101.8 58.0558 102.094C58.5502 93.4761 60.5297 85.0081 63.907 77.0639C71.8894 74.8319 69.6878 74.4511 79.0046 74.3087C75.3623 81.9309 73.0888 90.1342 72.2878 98.5439V98.5455ZM132.64 35.2399C121.671 36.5432 111.198 40.5501 102.16 46.9007C98.4574 46.3455 94.3502 47.7679 86.5566 49.2671C100.178 40.1074 116.225 35.2231 132.64 35.2399ZM79.0654 55.3903C85.5102 51.9919 88.6654 49.0671 97.9534 50.0911C91.0844 55.7361 85.3419 62.6261 81.027 70.3999C74.147 71.9439 76.1166 73.2159 65.667 73.3359C69.0814 66.6364 73.6124 60.5677 79.0654 55.3903ZM57.9022 105.79C64.8926 102.438 64.5118 102.475 72.0302 102.213C71.4436 114.483 73.9861 126.702 79.419 137.72C70.6414 143.515 75.0222 141.411 65.5422 144.576C60.0243 132.416 57.4088 119.139 57.9022 105.795V105.79ZM67.1406 147.816C76.2334 141.713 71.835 144.227 81.1374 140.976C85.9425 149.57 92.4931 157.064 100.368 162.976C96.4398 170.8 98.8782 167.87 91.8766 175.68C81.4685 168.565 72.973 158.996 67.1406 147.819V147.814V147.816ZM94.8574 177.669C99.4254 168.309 97.6654 171.553 103.355 165.088C113.593 171.967 125.543 175.862 137.869 176.339C137.595 184.048 137.667 183.249 134.427 189.744C120.361 189.54 106.642 185.355 94.8574 177.673V177.669ZM177.966 177.608C176.923 171.445 178.406 170.512 178.789 166.541C185.334 162.547 191.021 157.293 195.52 151.085C196.432 154.445 196.429 154.565 195.947 160.166C191.181 167.126 185.067 173.059 177.966 177.613V177.608Z" fill="#0F0F0F"/>
<path d="M140.522 48.9951C110.366 48.9951 85.9199 74.4975 85.9199 105.955C85.9199 137.411 110.366 162.915 140.522 162.915C170.677 162.915 195.125 137.411 195.125 105.955C195.125 74.4975 170.678 48.9951 140.522 48.9951Z" fill="white"/>
<path d="M193.6 100.523C189.68 65.2367 159.608 45.0495 129.776 50.6175C121.729 52.1199 116.865 54.8655 116.72 54.5743C116.516 54.1727 123.382 50.9551 129.558 49.5615C159.638 42.7727 191.82 63.2703 196.144 100.301C199.58 175.001 116.996 179.181 92.3179 134.936C79.7323 112.376 82.8459 81.4799 103.923 62.7519C108.537 58.6511 115.268 54.8527 115.464 55.2207C115.883 55.8687 80.7435 72.0911 87.5579 114.197C89.1411 126.155 94.7746 137.211 103.52 145.52C113.056 155.072 125.848 160.049 135.636 160.569C141.332 161.154 147.082 160.87 152.692 159.728C182.273 154.893 194.707 130.477 193.6 100.523Z" fill="#0F0F0F"/>
<path d="M105.316 130.729C97.9564 116.888 99.4924 100.093 112.328 86.8366C113.779 85.3374 113.3 85.4334 112.798 83.4254C107.936 63.9774 115.107 58.9582 126.164 77.4398C127.198 79.1678 127.723 79.3486 129.248 79.155C144.27 77.2542 144.388 77.3358 145.556 76.8286C149.024 75.3246 150.873 69.6286 154.235 66.355C156.568 64.0894 160.414 62.835 163.067 64.7086C164.488 65.9224 165.489 67.5542 165.928 69.371C169.54 80.2926 167.566 86.8958 168.393 88.6878C169.22 90.4798 172.689 90.9966 174.707 101.272C176.648 111.153 175.966 117.222 173.064 124.841C168.342 137.238 163.06 140.181 150.435 144.126C137.268 148.24 115.235 147.993 107.804 136.141C106.193 133.286 104.981 130.224 104.201 127.04L105.316 130.729Z" fill="#FDFE1F"/>
<path d="M101.256 107.376C104.246 111.574 108.889 112.294 112.357 109.835C113.941 108.715 115.105 106.997 116.867 106.181C122.965 103.355 127.965 111.742 133.107 113.573C143.013 117.093 147.765 104.195 156.353 104.27C158.332 104.424 160.222 105.156 161.789 106.375C163.356 107.593 164.53 109.245 165.166 111.125C168.801 120.789 161.419 133.93 154.369 141.477C150.293 145.842 128.592 146.456 123.169 145.304C119.73 144.408 116.422 143.071 113.325 141.328C111.165 139.685 109.215 137.783 107.52 135.664C100.8 126.442 100.992 106.33 101.134 108.304L101.256 107.376Z" fill="white"/>
<path d="M122.902 126.496C124.168 126.976 125.809 127.035 126.453 128.227C126.597 128.561 126.723 128.904 126.825 129.251C127.768 131.699 137.705 136.251 133.325 140.113C131.941 141.115 130.266 141.632 128.558 141.585C122.736 141.473 117.749 134.293 116.982 128.07C116.895 127.699 116.913 127.311 117.033 126.949C117.154 126.587 117.373 126.265 117.665 126.021C120.854 122.4 119.95 125.374 122.902 126.496Z" fill="#FFC5F6"/>
<path d="M169.099 86.3871C171.489 73.9231 165.625 48.3311 148.526 69.8079C140.379 80.1727 149.166 74.5391 136.112 76.5519C133.417 76.9603 130.772 77.6516 128.222 78.6143C126.285 74.1967 123.789 69.6991 119.821 66.9343C117.873 65.5807 115.173 64.2303 112.99 65.1263C109.224 66.6719 110.32 73.3279 110.75 77.3311C111.91 87.6223 113.409 85.2271 111.621 86.7487C106.897 90.7597 103.317 95.9483 101.245 101.789C97.4495 113.408 100.829 131.68 110.349 141.173C118.64 148.488 126.803 148.873 137.832 148.109C145.945 147.51 154.712 145.677 161.713 141.408C168.819 137.267 172.155 131.472 174.425 124.808C178.097 111.547 179.304 95.6159 169.099 86.3871ZM173.085 112.808C171.965 123.192 168.744 132.888 159.733 138.155C148.853 144.707 126.613 147.014 116.67 141.515C105.387 135.267 97.6303 111.829 106.137 96.3951C111.933 85.9439 120.117 82.4191 119.803 81.8767C119.752 81.7759 118.926 82.0111 117.485 82.7519C116.29 83.3705 115.141 84.0736 114.046 84.8559C113.374 80.4114 112.983 75.9289 112.877 71.4351C116.062 71.4943 118.84 81.9615 119.712 81.7103C120.537 81.5295 117.894 72.3167 114.933 70.4975C113.237 69.4495 112.741 70.5775 113.137 69.0927C113.176 68.7887 113.279 68.4966 113.441 68.236C113.602 67.9754 113.817 67.7525 114.072 67.5823C114.838 67.1743 116.966 68.1727 118.337 69.0863C121.928 71.4687 124.4 75.5743 126.547 79.3023C124.238 80.3263 123.027 81.2223 123.137 81.4623C123.499 82.2991 132.272 78.3263 142.944 78.9503C141.582 82.0095 141.184 84.1551 141.693 84.3455C142.952 84.8143 155.545 61.3535 161.693 65.3055C163.261 66.2943 164.413 69.3183 164.936 71.0895C168.296 82.7279 164.616 93.5151 165.709 93.9407C166.097 94.1007 167.149 92.7151 168.089 90.1007C173.483 96.2415 173.99 104.725 173.085 112.808Z" fill="#0F0F0F"/>
<path d="M151.772 81.9471C153.16 79.3871 155.096 75.5279 157.824 74.3839C158.82 73.9663 159.563 74.4719 159.488 74.6527C159.368 74.9471 158.176 74.0479 155.843 78.1727C155.033 79.6031 154.51 80.8415 153.388 83.2111C152.625 85.2079 154.041 85.5775 158.908 88.5775C159.052 88.6627 159.211 88.7179 159.376 88.7398C159.542 88.7618 159.71 88.7499 159.87 88.7051C160.031 88.6602 160.181 88.5832 160.311 88.4788C160.441 88.3744 160.548 88.2447 160.627 88.0975C161.081 87.3391 161.212 80.6655 160.604 76.7487C160.462 75.8399 160.18 75.3999 160.308 75.2815C161.662 73.6335 163.875 86.3055 162.526 89.0415C162.325 89.459 162.039 89.8302 161.687 90.132C161.335 90.4338 160.925 90.6596 160.481 90.7951C160.039 90.9319 159.572 90.976 159.112 90.9248C158.651 90.8736 158.206 90.7282 157.804 90.4975C152.904 87.4991 149.566 86.0239 151.772 81.9471Z" fill="#0F0F0F"/>
<path d="M167.005 111.901C165.526 106.019 162.326 104.048 158.646 103.197C150.541 102.52 147.202 109.235 141.298 111.773C137.845 113.261 133.618 113.397 130.68 111.133C128.03 109.094 126.04 105.109 121.104 104.843C113.424 104.432 112.038 113.497 105.328 110.545C104.246 110.065 103.698 109.627 103.578 109.745C103.482 109.833 103.818 110.507 104.899 111.291C109.938 114.936 114.046 109.566 117.099 107.83C118.324 107.176 119.716 106.9 121.098 107.039C122.48 107.177 123.79 107.723 124.861 108.608C127.525 110.824 129.501 114.888 135.699 115.072C146.048 115.382 150.478 104.75 157.635 105.334C164.722 105.91 166.194 114.318 164.906 121.472C163.442 129.606 158.907 134.688 159.371 135.072C160.226 135.888 169.947 123.605 167.005 111.901Z" fill="#0F0F0F"/>
<path d="M151.182 90.6975C150.222 84.5407 140.582 82.7679 136.117 88.5519C135.553 89.2778 135.251 90.1725 135.259 91.0914C135.267 92.0103 135.584 92.8997 136.16 93.6159C138.018 95.6559 139.938 94.2143 145.722 95.3407C149.702 96.0815 151.578 93.2879 151.182 90.6975ZM147.974 93.3583C147.014 93.7055 145.467 93.0559 143.586 92.7503C141.755 92.4527 139.645 92.8831 138.445 92.5055C137.205 92.1151 137.211 90.7455 137.89 89.7855C141.014 85.3615 149.026 86.0783 149.442 90.8943C149.493 91.408 149.379 91.9247 149.114 92.3684C148.85 92.812 148.451 93.159 147.974 93.3583Z" fill="#0F0F0F"/>
<path d="M124.611 88.3389C120.48 82.8797 111.465 84.4797 110.513 90.1933C110.361 91.0689 110.511 91.9702 110.939 92.7489C111.368 93.5275 112.049 94.1369 112.87 94.4765C114.539 95.0941 116.136 94.3501 117.83 94.1917C120.009 93.9613 121.272 94.4605 122.98 93.9965C123.534 93.8187 124.036 93.5073 124.441 93.0898C124.846 92.6723 125.143 92.1614 125.304 91.6024C125.465 91.0433 125.486 90.4532 125.365 89.8841C125.244 89.3149 124.985 88.7843 124.611 88.3389ZM123.308 91.0589C122.966 92.8365 120.038 91.8109 117.592 92.1789C115.832 92.4445 114.376 93.0381 113.484 92.7037C113.042 92.5124 112.672 92.1844 112.43 91.7677C112.187 91.3511 112.085 90.8677 112.137 90.3885C112.576 85.8733 120.076 85.3197 122.942 89.4669C123.262 89.9341 123.392 90.5037 123.308 91.0637V91.0589Z" fill="#0F0F0F"/>
<path d="M133.427 133.771C131.321 131.947 129.157 130.843 127.677 128.998C133.907 128.957 137.448 122.574 137.089 122.278C136.83 122.057 135.625 123.31 133.513 124.859C128.073 128.629 122.925 126.504 120.957 122.725C122.829 121.763 124.398 120.301 125.489 118.501C133.117 106.957 105.809 106.517 116.12 120.437C116.702 121.329 117.47 122.085 118.371 122.654C114.861 129.886 109.643 123.045 108.864 123.721C108.323 124.192 112.022 129.369 116.363 127.849C116.684 132.501 118.822 136.839 122.315 139.926C130.07 146.473 140.177 139.937 133.427 133.771ZM117.733 119.211C116.293 117.366 114.603 114.006 116.384 112.491C117.267 111.933 118.263 111.578 119.301 111.453C120.338 111.328 121.39 111.436 122.381 111.768C127.865 113.505 122.757 119.456 120.632 120.59C119.235 121.315 118.769 120.547 117.733 119.214V119.211ZM133.067 138.891C130.317 143.329 119.112 138.741 117.854 127.022C120.969 124.552 115.886 125.945 124.819 134.629C126.176 135.893 127.041 136.643 127.219 136.501C127.974 135.917 121.939 130.227 120.681 126C122.033 127.466 123.822 128.455 125.782 128.819C127.934 133.44 135.221 135.558 133.067 138.897V138.891Z" fill="#0F0F0F"/>
<path d="M117.141 95.8222C111.608 95.8222 111.603 104.189 117.141 104.189C122.678 104.189 122.68 95.8206 117.141 95.8206V95.8222Z" fill="#0F0F0F"/>
<path d="M138.814 96.6239C133.281 96.6239 133.273 104.99 138.814 104.99C144.355 104.99 144.352 96.6223 138.814 96.6223V96.6239Z" fill="#0F0F0F"/>
<path d="M280.758 121.048C278.826 88.3199 253.869 66.4655 226.538 67.1839C200.778 67.8607 173.926 90.0111 173.437 121.067C173.098 142.52 184.869 163.504 204.736 172.451C238.654 187.726 283.542 168.24 280.758 121.048Z" fill="#FDFE1F"/>
<path d="M231.608 78.7199C225.808 78.6337 220.061 79.8391 214.784 82.2487C209.508 84.6583 204.833 88.2117 201.099 92.6514C197.366 97.0911 194.667 102.306 193.198 107.918C191.729 113.53 191.527 119.398 192.607 125.097C194.05 132.721 197.729 139.743 203.174 145.27C208.62 150.797 215.586 154.579 223.187 156.136C230.789 157.691 238.681 156.951 245.861 154.008C253.04 151.066 259.182 146.054 263.506 139.611C267.829 133.168 270.138 125.583 270.138 117.824C270.213 107.529 266.196 97.6266 258.97 90.2935C251.745 82.9603 241.903 78.7973 231.608 78.7199Z" fill="white"/>
<path d="M240.616 154.666C262.155 149.454 275.101 124.494 265.915 102.211C260.626 89.3824 249.365 80.896 237.746 79.096C226.126 77.296 223.466 79.6032 223.32 78.992C223.251 78.7024 228.411 77.5136 232.774 77.648C261.242 78.5328 278.341 107.154 267.89 133.168C253.762 168.334 204.461 166.128 193.904 127.509C189.651 107.312 198.57 90.5008 212.885 82.6864C215.662 81.0818 218.692 79.9608 221.845 79.3712C222.096 80.0768 200.014 84.1264 195.016 110.802C194.331 115.4 194.399 120.078 195.218 124.654C195.285 125.211 196.219 128.917 196.43 129.454C202.413 147.84 220.79 159.461 240.616 154.666Z" fill="#0F0F0F"/>
<path d="M282.694 120.934C280.718 87.4624 255.189 64.4864 226.486 65.2448C200.346 65.9328 172.011 88.5136 171.498 121.035C171.134 143.944 184.173 165.318 203.939 174.219C239.52 190.24 285.55 169.339 282.694 120.934ZM269.29 149.07C273.815 143.331 277.043 136.679 278.752 129.573C278.155 138.884 275.077 147.865 269.837 155.584C268.8 152.96 269.648 150.752 269.29 149.07ZM231.742 164.765C206.56 164.765 186.074 143.552 186.074 117.477C186.074 78.2608 231.602 53.1408 262.971 84.0368C293.71 114.314 271.634 164.765 231.742 164.765ZM193.805 148.568C190.445 151.768 191.923 152.522 186.264 155C181.043 147.955 177.57 139.771 176.131 131.122C179.725 128.072 179.701 128.242 184.339 127.802C185.873 135.354 189.111 142.456 193.805 148.568ZM211.299 72.1008C200.624 77.3211 192.176 86.1988 187.491 97.12C184.666 98.2816 184.262 99.4912 180.555 99.4496C186.931 86.7391 197.933 76.9528 211.299 72.1008ZM179.04 102.869C182.442 101.2 182.419 100.669 186.08 100.776C183.512 108.287 182.709 116.289 183.733 124.16C179.877 126.118 181.483 126.651 175.68 127.84C174.72 119.367 175.874 110.787 179.04 102.869ZM188.25 157.496C192.654 152.123 191.054 154.357 196.25 151.507C200.563 156.323 205.79 160.233 211.627 163.011C210.72 167.773 212.571 166.507 209.098 172.131C200.969 169.193 193.77 164.141 188.243 157.496H188.25ZM212.168 173.131C212.488 167.44 212.829 168.853 215.126 164.491C223.97 167.834 233.616 168.434 242.806 166.213C244.539 169.661 244.462 169.198 244.003 173.222C233.585 176.143 222.561 176.111 212.16 173.131H212.168ZM247.158 172.238C245.376 168.776 245.784 169.155 246.142 165.278C253.997 162.723 261.065 158.197 266.672 152.131C268.139 154.682 268.005 155.253 267.579 158.547C262.153 164.896 255.087 169.632 247.152 172.238H247.158Z" fill="#0F0F0F"/>
<path d="M213.945 100.64C211.633 94.6801 214.717 90.6033 218.161 90.4849C224.513 90.2673 228.541 97.0961 228.702 97.2145C231.365 99.1617 230.87 89.1825 233.76 89.4321C234.262 89.4753 234.505 89.3217 235.069 89.8705C236.541 91.3105 236.189 92.2417 236.64 92.2577C237.75 92.2993 238.153 90.3377 239.696 89.6817C239.975 89.6338 240.261 89.6472 240.535 89.721C240.808 89.7947 241.063 89.9271 241.28 90.1089C241.659 90.4849 242.297 93.3009 243.161 93.3505C244.381 93.4209 244.677 92.3105 246.864 91.8321C247.955 91.5937 248.736 92.1345 248.651 93.2481C248.638 93.4081 247.35 98.1633 248.238 97.6673C251.238 95.9969 255.637 95.1601 257.806 97.8433C260.206 100.814 258.11 106.819 257.345 112.998C256.328 121.237 258.224 133.563 250.497 140.062C247.349 142.712 237.187 147.229 230.209 146.536C226.453 146.165 227.251 147.603 225.654 148.768C223.048 150.672 220.112 146.514 218.869 145.536C215.166 142.627 209.849 144.237 205.363 134.976C202.523 129.114 202.441 122.568 207.704 119.11C208.771 118.41 208.435 118.618 208.867 118.525C209.117 118.495 209.353 118.396 209.549 118.239C209.746 118.082 209.895 117.874 209.979 117.637C210.347 116.295 208.219 116.186 210.635 110.395C213.371 103.853 215.672 105.093 213.945 100.64Z" fill="#FDFE1F"/>
<path d="M235.118 125.341C236.207 126.375 237.553 127.098 239.017 127.434C240.481 127.77 242.008 127.706 243.438 127.25C253.128 125.677 257.72 134.81 249.427 141.275C245.694 144.184 238.824 145.894 233.461 145.963C226.344 146.054 227.246 147.467 225.489 148.523C222.609 150.245 219.889 146.037 218.016 144.867C214.646 142.771 213.187 144.707 208.539 138.75C205.293 134.59 202.288 129.835 203.953 124.813C204.581 123.212 205.587 121.788 206.886 120.661C208.184 119.534 209.736 118.739 211.409 118.342C216.928 116.835 225.584 117.872 235.118 125.341Z" fill="white"/>
<path d="M219.04 111.52C218.627 111.52 218.217 111.602 217.836 111.76C217.454 111.918 217.107 112.15 216.815 112.442C216.523 112.735 216.291 113.082 216.133 113.464C215.975 113.845 215.893 114.255 215.894 114.668C215.894 115.081 215.975 115.491 216.133 115.872C216.292 116.254 216.524 116.601 216.816 116.893C217.108 117.185 217.455 117.417 217.837 117.575C218.219 117.733 218.628 117.815 219.042 117.814C219.876 117.814 220.677 117.482 221.267 116.892C221.857 116.302 222.188 115.501 222.188 114.666C222.188 113.832 221.856 113.031 221.266 112.441C220.675 111.851 219.875 111.52 219.04 111.52Z" fill="#0F0F0F"/>
<path d="M233.405 115.19C232.57 115.191 231.77 115.522 231.18 116.113C230.589 116.703 230.258 117.504 230.258 118.338C230.259 119.173 230.59 119.974 231.181 120.564C231.771 121.154 232.572 121.485 233.406 121.485C234.241 121.485 235.041 121.153 235.631 120.562C236.222 119.972 236.553 119.172 236.553 118.337C236.552 117.502 236.221 116.702 235.63 116.112C235.04 115.522 234.239 115.19 233.405 115.19Z" fill="#0F0F0F"/>
<path d="M217.92 142.917C219.109 145.223 220.953 147.127 223.221 148.389C225.646 149.298 227.566 147.539 227.035 144.904C226.723 143.775 226.258 142.695 225.654 141.691C224.821 140.058 224.176 138.331 223.451 136.648C222.414 134.232 221.633 134.888 220.448 133.835C219.11 132.65 219.609 131.478 215.424 133.427C214.337 133.934 217.496 142.059 217.92 142.915V142.917Z" fill="#FFC5F6"/>
<path d="M222.205 122.854C218.525 121.786 215.376 122.51 215.245 122.078C215.189 121.891 215.918 121.427 217.272 121.118C223.697 119.678 229.233 125.278 228.496 125.918C228.16 126.219 225.885 123.923 222.205 122.854Z" fill="#0F0F0F"/>
<path d="M242.438 110.334C240.822 108.005 236.904 105.912 233.989 107.149C233.599 107.296 233.25 107.535 232.971 107.845C232.692 108.154 232.491 108.526 232.386 108.93C232.281 109.333 232.275 109.756 232.367 110.163C232.46 110.57 232.648 110.948 232.917 111.267C233.9 112.277 235.057 113.102 236.333 113.701C237.142 114.251 237.525 115.202 238.461 115.84C241.246 117.738 245.266 114.334 242.438 110.334ZM241.906 113.643C241.807 113.963 241.618 114.247 241.362 114.461C241.106 114.676 240.793 114.812 240.461 114.853C240.129 114.895 239.792 114.84 239.491 114.696C239.189 114.552 238.936 114.324 238.76 114.04C238.328 113.438 237.814 112.899 237.232 112.44C235.922 111.549 234.696 111.214 234.133 110.374C232.877 108.741 235.032 107.734 237.333 108.226C240.762 108.942 242.339 111.68 241.906 113.643Z" fill="#0F0F0F"/>
<path d="M224.88 104.96C222.861 102.526 218.366 102.611 215.91 103.915C214.041 104.888 212.71 107.181 213.805 109C215.702 112.13 218.677 109.843 219.795 109.707C221.203 109.758 222.609 109.556 223.945 109.11C224.331 108.951 224.672 108.701 224.94 108.382C225.209 108.063 225.397 107.684 225.488 107.277C225.58 106.871 225.572 106.448 225.467 106.044C225.361 105.641 225.159 105.269 224.88 104.96ZM223.27 107.766C221.957 108.491 220.817 107.493 217.481 108.896C217.195 109.065 216.866 109.148 216.533 109.136C216.201 109.125 215.878 109.019 215.604 108.83C215.33 108.642 215.115 108.38 214.984 108.074C214.853 107.768 214.813 107.431 214.867 107.102C215.816 103.534 221.883 103.262 223.777 105.81C223.919 105.955 224.02 106.135 224.072 106.331C224.124 106.527 224.124 106.733 224.073 106.93C224.022 107.126 223.922 107.306 223.781 107.452C223.64 107.599 223.465 107.706 223.27 107.765V107.766Z" fill="#0F0F0F"/>
<path d="M259.325 97.2352C256.84 93.504 252.373 93.6912 248.629 96.088C249.149 93.9408 249.574 92.712 248.747 91.5104C247.232 89.3344 243.281 92.8448 243.281 92.6784L242.961 91.4336C242.001 88.1504 239.726 87.9136 237.87 89.9696C236.802 91.1696 237.042 91.3696 236.898 91.208C235.594 88.7952 233.584 86.9072 231.995 89.1584C231.38 90.271 230.909 91.457 230.592 92.688C229.347 96.4288 230.238 96.552 229.014 95.1728C226.352 92.2368 220.685 88.2224 216.866 89.1984C213.894 89.9984 212.158 93.3712 212.472 96.7904C212.71 98.7207 213.139 100.623 213.752 102.469C214.085 103.581 213.982 103.4 213.536 103.787C210.091 106.734 208.011 111.443 209.128 117.827C206.587 118.784 204.477 120.627 203.188 123.017C201.899 125.407 201.518 128.183 202.115 130.832C203.526 135.433 206.475 139.409 210.467 142.096C212.776 143.701 215.359 144.871 218.09 145.546C221.586 150.858 226.688 150.813 228.118 147.29C235.397 147.658 244.826 145.902 250.582 141.632C260.083 134.573 257.115 123.21 258.32 113.754C259.109 107.826 262.782 102.643 259.325 97.2352ZM231.944 93.168C233.421 89.3792 233.606 88.224 235.579 92.232C237.774 96.6896 239.939 86.472 241.299 91.912C241.939 94.328 242.045 95.4064 244.806 93.7472C245.19 93.4848 247.046 92.2592 247.4 92.5632C247.806 93.168 246.547 97.4368 246.398 97.8576C245.509 98.7259 244.747 99.7167 244.138 100.8C237.757 97.712 233.856 98.792 231.886 97.8704C231.651 97.7616 230.979 97.3904 230.985 97.1392C231.091 95.7728 231.414 94.432 231.944 93.168ZM226.325 146.352C225.323 149.512 218.403 147.739 216.07 134.398C216.694 134.242 217.286 133.979 217.821 133.621C218.872 138.421 223.92 149.099 219.966 135.618C219.166 132.597 219.158 134.67 221.715 135.88C222.95 136.477 221.893 134.928 225.179 142.542C226.045 144.509 226.619 145.453 226.325 146.354V146.352ZM217.245 126.891C216.298 124.779 220.794 125.381 222.397 126.512C224.195 128 219.758 130.176 219.109 129.85C218.376 128.938 217.75 127.945 217.245 126.89V126.891ZM258.192 103.088C257.816 105.496 257.198 107.859 256.347 110.142C256.005 110.168 255.352 109.222 255.163 108.987C252.435 105.67 250.481 106.562 251.544 104.315C252.685 102.011 256.413 99.464 256.238 99.1456C255.997 98.6048 248.864 101.973 249.549 106.168C250.125 107.517 250.28 107.387 251.443 108.264C254.014 110.098 254.178 111.902 256 112.168C254.32 122.006 258.101 133.013 249.259 139.885C243.998 143.926 235.037 145.718 228.384 145.622C228.309 144.414 227.568 142.994 224.224 136.421C227.922 136.349 230.165 132.91 229.736 132.611C229.49 132.395 228.464 133.741 226.243 134.459C225.656 134.693 225.024 134.793 224.393 134.751C223.763 134.709 223.15 134.526 222.599 134.217C222.048 133.907 221.573 133.478 221.209 132.962C220.845 132.445 220.602 131.853 220.496 131.23C221.206 130.834 221.72 130.43 222.256 130.086C225.189 128.454 225.117 126.378 223.582 125.078C219.902 121.966 212.275 123.093 216.274 129.109C216.635 129.778 217.08 130.397 217.6 130.952C217.099 131.752 216.323 132.338 215.419 132.603C212.107 133.586 210.499 130.424 210.09 130.638C209.522 130.867 210.907 134.478 214.638 134.558C215.352 143.246 218.541 143.918 215.438 142.541C211.168 140.34 207.69 136.863 205.488 132.594C204.818 131.356 204.435 129.985 204.365 128.58C204.296 127.175 204.542 125.772 205.086 124.475C205.629 123.177 206.456 122.018 207.507 121.082C208.557 120.146 209.804 119.458 211.155 119.067C211.12 118.858 222.261 117.19 230.726 122.808C233.251 124.408 235.274 126.91 238.184 128.069C241.166 129.317 243.885 128.008 245.974 127.918C251.544 127.624 253.165 132.187 253.445 132.078C254.048 131.989 252.085 126.554 245.925 126.469C242.293 126.445 240.736 128.17 236.645 125.029C234.658 123.52 231.795 120.099 225.686 118.149C220.851 116.715 215.752 116.41 210.781 117.259C210.399 115.502 210.419 113.681 210.837 111.932C211.255 110.183 212.062 108.55 213.197 107.155C217.037 102.486 221.677 101.811 221.536 101.043C221.453 100.486 218.553 100.678 215.816 102.187C215.041 99.1472 213.797 95.7392 215.4 93.0896C217.229 93.0352 220.824 101.125 221.739 100.704C222.539 100.363 219.768 92.9408 217.057 91.552C218.285 91.2333 219.588 91.4097 220.686 92.0432C225.837 94.3376 227.382 97.3696 229.152 98.9632C227.014 99.3632 225.642 99.9968 225.715 100.355C225.819 100.923 228.834 100.747 232.494 100.658C232.654 100.69 241.362 102.258 242.534 102.846C246.893 105.005 243.974 105.282 247.014 101.016C251.395 95.1856 258.784 95.408 258.192 103.088Z" fill="#0F0F0F"/>
<path d="M271.445 108.357C269.251 111.798 270.029 115.448 272.651 117.317C274.987 118.978 275.171 119.245 273.451 121.654C272.482 123.129 272.133 124.926 272.479 126.656C272.825 128.386 273.839 129.91 275.301 130.898C276.534 131.797 278.162 132.498 278.557 133.968C278.669 134.884 278.621 135.812 278.414 136.712C278.107 140.149 281.04 142.979 283.442 142.822C285.166 142.709 288.219 140.192 289.117 138.856C290.478 136.829 291.792 129.773 292.176 127.483C292.798 123.771 292.069 123.594 291.432 121.454C290.672 118.894 291.501 115.922 290.13 113.634C289.528 112.892 289.027 112.073 288.64 111.2C288.138 109.405 290.24 106.52 286.24 100.451C284.331 97.5568 282.475 96.8544 281.171 96.8448C277.011 96.8144 280.643 99.2032 280.302 99.9232C278.632 103.418 274.088 104.21 271.445 108.357Z" fill="white"/>
<path d="M292.715 121.531C293.053 119.621 292.968 117.661 292.467 115.787C291.965 113.914 291.058 112.173 289.811 110.688C290.856 107.799 290.72 104.615 289.432 101.826C288.144 99.0373 285.808 96.869 282.931 95.7919C281.285 95.1039 272.771 92.9759 272.371 93.6671C272.133 94.0639 274.158 95.8703 277.133 96.9983C280.037 98.1823 283.755 98.8543 285.933 102.357C288.813 106.789 286.515 112.254 282.333 115.077C279.624 116.939 274.525 118 272.221 116.078C270.155 114.355 271.073 110.829 273.043 108.558C274.931 106.35 278.136 104.587 279.531 102.222C280.024 101.422 280.102 100.861 279.928 100.741C279.517 100.494 278.203 101.701 275.545 103.168C269.315 106.619 265.401 111.488 269.054 117.542C270.103 118.892 271.595 119.827 273.267 120.182C269.448 124.342 270.067 130.995 275.117 133.379C278.702 135.208 277.421 132.534 277.037 136.747C276.86 137.765 276.927 138.81 277.234 139.796C277.541 140.783 278.078 141.682 278.801 142.419C279.524 143.157 280.412 143.712 281.392 144.039C282.372 144.366 283.415 144.455 284.437 144.299C292.32 143.105 296.366 127.2 292.715 121.531ZM276.813 120.389C279.224 120.21 281.558 119.455 283.618 118.188C285.678 116.921 287.405 115.179 288.653 113.107C292.117 119.507 288.67 126.893 282.193 130.209C275.093 133.777 270.357 125.253 276.813 120.389ZM284 141.488C281.022 142 278.4 139.515 279.662 134.275C281.079 134.186 282.463 133.807 283.728 133.163C290.561 129.669 291.605 124.217 291.672 125.065C291.969 128.429 289.555 140.547 284 141.488Z" fill="#0F0F0F"/>
<path d="M279.281 199.701C278.083 201.502 276.426 202.951 274.481 203.898C273.486 204.491 272.739 204.746 271.865 203.912C268.406 200.616 274.657 193.158 271.641 193.352C270.985 193.392 270.041 194.942 267.981 195.138C267.43 195.207 266.871 195.118 266.369 194.882C265.867 194.646 265.443 194.271 265.145 193.803C264.745 192.794 264.708 191.678 265.041 190.645C266.457 183.666 266.641 182.237 267.441 180.696C268.662 178.314 268.451 178.243 267.387 176.896C266.666 175.899 266.37 174.657 266.564 173.442C266.758 172.227 267.426 171.139 268.422 170.416C269.414 169.845 270.507 169.472 271.641 169.317C274.128 168.818 275.683 168.712 278.617 171.27C280.628 173.03 282.297 175.283 281.361 177.795C280.614 179.798 279.136 179.256 279.846 180.49C281.502 183.442 282.324 186.79 282.224 190.173C282.125 193.557 281.108 196.85 279.281 199.701Z" fill="white"/>
<path d="M269.745 161.634C269.064 158.916 268.817 156.108 269.016 153.314C269.892 147.786 276.489 144.688 277.46 151.123C277.908 154.093 279.297 167.523 278.166 168.829C276.923 169.387 275.546 169.579 274.198 169.381C272.964 169.14 271.713 168.995 270.456 168.947C268.235 169.008 270.896 168.683 269.745 161.634Z" fill="#FFC5F6"/>
<path d="M281.136 179.61C284.816 177.21 282.814 172.315 279.128 169.75C277.834 168.883 279.264 170.658 278.909 159.402C278.826 156.842 278.658 151.472 277.469 149.206C277.165 148.486 276.675 147.859 276.048 147.391C275.421 146.923 274.681 146.631 273.904 146.544C273.127 146.456 272.341 146.577 271.626 146.893C270.911 147.209 270.293 147.71 269.835 148.344C267.01 151.658 269.171 154.904 268.702 168.723C264.608 170.95 264.099 176.11 267.624 178.227C265.064 181.466 265.016 187.267 264.648 188.475C264.043 189.805 263.627 191.213 263.411 192.658C263.442 193.616 263.816 194.531 264.464 195.237C265.112 195.943 265.992 196.393 266.944 196.506C271.147 197.01 272.328 191.81 269.91 197.643C268.16 201.87 269.582 206.661 274.032 206.069C281.256 204.518 288.107 189.173 281.136 179.61ZM270.637 158.61C270.67 155.158 269.851 151.69 271.526 149.762C271.697 149.498 271.921 149.273 272.184 149.101C272.447 148.929 272.743 148.814 273.053 148.764C273.363 148.714 273.68 148.73 273.984 148.81C274.288 148.89 274.571 149.034 274.816 149.23C275.142 149.494 275.389 149.845 275.526 150.242C276.966 152.902 277.173 165.378 277.126 168.67C276.258 168.303 275.349 168.04 274.419 167.886C268.117 166.88 270.88 172.102 270.637 158.61ZM278.072 199.41C273.242 206.162 270.701 202.968 272.462 198.709C273.027 197.408 273.504 196.072 273.89 194.709C275.41 189.093 273.808 185.488 273.272 185.659C272.814 185.766 273.078 187.693 272.386 190.779C271.355 191.73 269.414 194.627 267.216 194.325C266.809 194.271 266.431 194.083 266.144 193.789C265.857 193.495 265.677 193.113 265.634 192.704C265.894 191.477 266.278 190.28 266.778 189.13C267.557 186.507 266.888 180.69 271.525 177.397C275.347 174.701 270.934 175.406 268.736 177.147C268.007 176.701 267.479 175.99 267.262 175.163C267.045 174.336 267.157 173.457 267.573 172.71C269.722 168.533 277.458 169.275 280.546 174.243C281.506 175.832 281.597 177.283 280.154 178.432C278.939 176.936 277.195 175.965 275.283 175.72C272.038 175.574 275.763 176.882 277.216 178.44C282.323 183.757 282.586 192.894 278.08 199.402L278.072 199.41Z" fill="#0F0F0F"/>
<path d="M195.501 171.2C196.091 171.77 196.485 172.512 196.625 173.321C196.765 174.129 196.644 174.961 196.28 175.696C192.95 181.194 196.544 175.029 198.342 190.666C198.454 191.338 198.462 192.023 198.366 192.696C198.239 193.297 197.95 193.851 197.531 194.3C197.112 194.749 196.579 195.075 195.989 195.243C193.478 195.922 192.384 193.685 191.805 193.413C191.363 193.205 190.577 193.453 191.017 194.264C192.126 196.304 193.669 198.904 192.808 201.599C190.155 209.919 175.153 197.399 181.608 183.263C182.115 182.154 183.344 180.703 183.016 179.527C182.867 178.991 181.936 178.783 181.697 178.279C178.72 172.015 190.509 165.983 195.501 171.2Z" fill="white"/>
<path d="M185.054 165.981C185.88 153.51 185.838 151.512 186.862 149.563C187.226 148.944 187.761 148.444 188.403 148.124C189.045 147.803 189.766 147.675 190.479 147.757C191.192 147.838 191.867 148.125 192.42 148.582C192.973 149.039 193.382 149.646 193.597 150.331C194.498 152.84 193.722 165.938 193.558 168.382C193.482 169.555 191.611 168.878 188.118 169.4C185.6 169.776 184.682 171.605 185.054 165.981Z" fill="#FFC5F6"/>
<path d="M179.43 186.312C177.723 198.286 187.224 208.456 191.91 205.65C194.07 204.355 194.441 201.733 193.897 199.25C193.634 198.24 193.263 197.261 192.792 196.33C189.381 188.283 190.947 185.858 190.011 185.638C189.352 185.429 187.373 190.027 190.283 197.365C190.654 198.176 190.96 199.016 191.198 199.875C191.563 201.486 191.371 203.517 189.73 203.334C184.037 202.163 177.819 187.142 186.066 178.41C187.691 176.688 189.265 176.47 189.249 176.029C189.233 175.56 187.009 175.338 184.809 176.906C181.842 179.205 179.907 182.588 179.43 186.312Z" fill="#0F0F0F"/>
<path d="M196.32 196.506C197.274 196.398 198.156 195.949 198.805 195.242C199.455 194.535 199.827 193.617 199.853 192.658C199.647 191.21 199.231 189.801 198.616 188.475C198.038 186.456 198.502 178.154 192.44 175.971C190.857 175.402 189.795 175.757 189.806 176.042C189.793 176.362 190.664 176.611 191.747 177.376C196.368 180.648 195.709 186.472 196.493 189.11C196.992 190.261 197.376 191.458 197.637 192.685C197.594 193.094 197.415 193.476 197.128 193.771C196.84 194.065 196.462 194.253 196.054 194.306C194.525 194.515 193.062 193.122 192.149 192.122C191.208 191.09 190.622 190.362 190.331 190.488C189.561 190.843 191.84 197.088 196.32 196.506Z" fill="#0F0F0F"/>
<path d="M183.2 180.171L183.814 178.891C178.16 175.472 187.334 168.042 193.139 170.432C196.384 171.767 197.352 175.698 194.12 177.379L194.664 178.698C195.33 178.474 195.94 178.11 196.454 177.631C196.968 177.153 197.374 176.57 197.645 175.922C197.916 175.274 198.046 174.575 198.024 173.873C198.003 173.171 197.831 172.481 197.52 171.851C194.829 165.85 184.658 166.546 180.992 173.24C179.432 176.082 180.058 178.768 183.2 180.171Z" fill="#0F0F0F"/>
<path d="M184.741 170.021C187.166 169.861 185.576 171.544 186.368 159.498C186.528 157.045 186.867 151.877 187.744 150.243C187.882 149.847 188.128 149.497 188.455 149.233C188.782 148.97 189.177 148.803 189.593 148.752C190.011 148.702 190.433 148.77 190.814 148.949C191.194 149.128 191.516 149.41 191.744 149.763C193.997 152.392 191.656 156.89 193.153 169.224L194.574 169.11C194.053 155.03 196.262 151.709 193.43 148.346C192.973 147.711 192.355 147.209 191.64 146.892C190.924 146.575 190.138 146.455 189.36 146.542C188.583 146.63 187.843 146.923 187.216 147.392C186.59 147.86 186.099 148.487 185.795 149.208C183.873 152.866 184.253 165.422 184.741 170.021Z" fill="#0F0F0F"/>
<path d="M86.08 153.947C93.5696 158.235 95.8272 159.056 105.48 160.179C126.845 162.664 120.68 162.099 128.698 161.414C131.157 161.203 133.635 161.384 136.099 161.232C141.885 160.877 151.52 157.552 151.978 156.885C152.402 156.262 152.168 156.174 148.381 146.517C147.298 143.752 144.685 146.765 138.32 148.102C93.0048 157.632 85.2944 131.249 74.904 130.992C69.6288 130.861 62.4976 140.449 86.08 153.947Z" fill="#FFC5F6"/>
<path d="M162.4 162.064C159.888 163.245 157.453 160.41 156.179 159.824C153.712 158.688 149.414 150.741 149.299 147.64C149.018 140.43 146.482 136.699 152.869 135.05C157.418 133.875 157.976 134.102 160.48 129.506C163.629 123.73 171.006 114.318 177.317 113.574C180.25 113.229 183.595 114.918 184.162 117.816C184.672 120.432 182.898 122.898 182.326 125.496C184.899 126.973 188.112 124.992 191.061 125.309C191.927 125.46 192.749 125.804 193.464 126.315C194.18 126.826 194.772 127.492 195.196 128.262C195.621 129.033 195.867 129.888 195.916 130.767C195.965 131.645 195.817 132.523 195.482 133.336C195.04 134.234 195.027 134.549 196.066 135.186C197.203 135.887 198.163 136.841 198.872 137.974C199.581 139.106 200.019 140.387 200.153 141.717C200.287 143.046 200.112 144.389 199.643 145.64C199.174 146.891 198.423 148.017 197.448 148.931C196.018 150.262 195.749 151.022 197.376 152.075C205.141 157.096 201.878 164.046 197.909 164.2C195.376 164.298 188.536 160.115 174.856 159.552C171.998 159.434 168.658 159.264 167.038 156.906C164.845 157.76 164.536 161.062 162.4 162.064Z" fill="white"/>
<path d="M197.662 151.056C204.773 146.44 204.349 138.592 197.685 134.425C200.504 127.214 194.213 119.449 184.421 124.262C189.925 114.547 180.301 107.227 172.203 113.768C171.003 114.715 171.243 114.648 165.859 119.688C161.781 123.579 159.051 126.568 157.683 132.717C155.505 132.511 153.309 132.756 151.23 133.437C145.451 135.976 147.257 143.384 146.803 143.56C144.371 144.499 132.422 149.854 119.245 148.957C94.0429 147.664 85.0045 135.224 81.7357 132.533C77.7357 129.269 73.3965 130.014 72.2477 131.611C72.3693 130.913 64.3757 135.222 72.4221 145.094C84.8349 160.721 123.542 170.653 152.965 159.094C154.749 161.195 157.614 163.622 160.227 164.078C162.278 164.504 163.688 162.891 165.027 161.453C170.091 156.035 161.141 161.133 180.923 162.398C191.099 163.038 192.165 165.937 197.321 165.566C204.429 164.979 206.782 154.865 197.662 151.054V151.056ZM70.5597 134.888C70.9321 133.774 71.4775 132.725 72.1757 131.781C72.2333 132.125 73.3165 131.366 75.3357 131.557C79.7645 132.001 81.6989 136.081 86.4605 140.677C94.0461 147.918 111.488 154.221 129.91 151.745C135.917 150.997 141.782 149.375 147.32 146.929C147.898 150.253 149.123 153.43 150.925 156.281C108.251 170.651 67.5837 146.56 70.5597 134.891V134.888ZM163.144 159.624C161.206 161.413 161.083 161.513 159.702 160.744C151.645 156.424 146.673 139.267 152.281 135.96C153.887 135.339 155.581 134.98 157.301 134.897C156.181 143.318 159.093 152.47 165.006 157.617C164.429 158.326 163.806 158.997 163.144 159.624ZM197.089 162.742C195.009 162.883 192.609 161.797 189.923 160.832C183.937 158.709 176.699 159.529 172.592 158.144C161.814 155.177 157.269 138.768 162.645 128.469C164.085 126.03 165.9 123.833 168.024 121.958C168.269 121.723 173.817 116.323 174.08 116.109C178.08 112.784 183.395 114.029 183.376 118.702C183.331 120.256 182.936 121.779 182.221 123.158C181.505 124.538 180.488 125.738 179.245 126.67C174.067 128.878 169.989 130.099 170.112 130.891C170.197 131.773 176.579 131.662 183.581 128.371C185.821 127.331 188.445 125.677 190.577 126.059C191.63 126.103 192.637 126.507 193.429 127.203C194.22 127.898 194.75 128.844 194.929 129.883C196.069 136.811 187.739 138.203 183.249 139.989C172.819 143.894 188.161 142.709 193.349 139.526C194.342 138.923 195.235 138.167 195.993 137.286C197.513 138.213 198.672 139.63 199.278 141.304C201.849 149 184.821 152.504 184.977 153.784C185.072 154.675 190.278 154.494 194.985 152.473C203.88 155.401 201.502 162.549 197.089 162.742Z" fill="#0F0F0F"/>
<path d="M256.16 189.315C256.699 190.705 256.48 192.299 257.011 193.694C257.381 194.469 257.789 195.222 258.235 195.953C259.979 199.422 257.954 197.84 263.355 203.414C265.449 205.468 267.046 207.974 268.024 210.739C268.774 213.768 267.405 218.12 265.944 220.606C264.715 222.606 262.978 224.245 260.909 225.355C258.841 226.466 256.516 227.009 254.17 226.929C251.824 226.851 249.54 226.152 247.551 224.906C245.563 223.659 243.939 221.908 242.846 219.83C241.526 217.397 240.962 214.621 239.742 212.134C238.814 210.555 237.979 208.923 237.24 207.246C236.92 206.317 236.73 205.341 236.381 204.419C234.968 200.677 231.792 199.067 232.984 194.699C234.45 189.328 236.083 190.238 237.579 188.977C239.389 187.453 238.411 184.688 244.686 184.214C252.366 183.637 251.341 184.865 252.186 185.629C252.853 186.227 255.264 187.006 256.16 189.315Z" fill="white"/>
<path d="M249.215 175.502C249.013 172.872 248.346 168.76 245.075 169.282C241.887 169.789 242 174.29 241.875 176.741C241.723 179.565 241.677 182.393 241.738 185.221C241.802 188.166 241.728 193.256 245.843 193.13C250.299 192.987 250.357 190.453 249.215 175.502Z" fill="#FFC5F6"/>
<path d="M258.733 194.445C258.589 192.328 258.085 190.251 257.242 188.304C256.575 187.092 255.623 186.061 254.467 185.301C253.312 184.541 251.988 184.075 250.611 183.942C250.522 182.161 249.882 174.022 249.619 172.69C249.218 170.866 248.414 168.966 246.611 168.469C245.905 168.266 245.156 168.264 244.448 168.462C243.74 168.659 243.101 169.05 242.602 169.589C240.541 171.88 240.842 176.131 240.65 183.694C239.289 184.555 238.2 185.783 237.506 187.235C234.886 188.925 232.896 189.795 232.171 193.025C230.874 198.701 234.699 203.766 237.173 208.466C239.403 212.698 239.994 217.846 242.816 222.075C249.25 232.146 267.146 230.499 269.192 216.075C270.798 203.941 260.083 202.286 258.733 194.445ZM242.907 179.245C242.794 176.845 242.968 174.44 243.43 172.083C244.152 169.946 246.09 169.718 246.99 170.774C247.915 172.205 248.438 173.859 248.504 175.561C248.71 190.057 249.611 191.882 245.971 192.042C241.974 192.259 242.957 185.862 242.907 179.24V179.245ZM266.518 215.702C264.715 227.625 250.048 228.453 245.056 220.571C242.43 216.673 241.696 211.64 239.4 207.323C237.066 203.081 230.696 194.776 236.094 190.418C235.426 194.122 237.754 198.157 239.718 201.654C245.072 211.337 243.578 218.585 251.134 221.974C253.379 223.049 255.912 223.367 258.352 222.88C260.793 222.394 263.01 221.129 264.67 219.275C265.512 218.184 265.755 217.419 265.64 217.381C265.43 217.291 260.338 224.653 251.779 220.581C245.059 217.338 246.72 210.883 241.168 200.838C239.618 198.088 239.834 198.707 240.75 199.307C243.182 200.872 245.054 200.729 245.07 200.475C245.152 200.137 243.542 199.704 241.71 198.062C240.86 197.375 240.156 196.524 239.641 195.559C239.127 194.594 238.811 193.536 238.714 192.446C238.615 191.357 238.735 190.259 239.068 189.218C239.402 188.176 239.94 187.212 240.653 186.382C240.782 190.731 241.746 194.382 246.114 194.192C250.989 193.882 250.818 190.403 250.691 185.789C255.912 186.737 258.557 193.53 253.613 198.09C249.71 201.515 245.55 200.293 245.466 200.707C245.202 201.15 250.189 202.787 254.602 199.259C257.962 196.469 256.136 195.419 257.482 198.168C260.456 204.44 267.827 206.419 266.518 215.698V215.702Z" fill="#0F0F0F"/>
<path d="M218.451 183.829C223.664 183.861 224.792 187.285 225.577 188.011C226.152 188.438 226.777 188.793 227.44 189.065C230.222 190.568 231.233 194.208 230.707 197.326C229.865 202.315 226.582 205.144 222.571 215.211C219.557 222.779 218.145 225.467 208.557 226.939C205.229 227.449 202.24 227.232 198.697 222.262C194.926 216.982 194.707 212.182 196.181 208.797C198.035 204.534 202.757 202.064 204.648 197.816C205.669 195.521 205.76 192.925 206.521 190.529C206.864 189.262 207.533 188.107 208.463 187.18C209.392 186.254 210.549 185.588 211.817 185.249C213.928 184.39 216.174 183.909 218.451 183.829Z" fill="white"/>
<path d="M214.432 175.502C214.634 172.872 215.301 168.76 218.571 169.282C221.762 169.789 221.646 174.29 221.771 176.741C221.923 179.565 221.969 182.393 221.909 185.221C221.845 188.166 221.92 193.256 217.805 193.13C213.349 192.987 213.291 190.453 214.432 175.502Z" fill="#FFC5F6"/>
<path d="M231.478 193.021C230.749 189.779 228.758 188.92 226.139 187.229C225.446 185.776 224.357 184.55 222.997 183.689C222.806 176.038 223.069 171.832 221.046 169.585C220.547 169.046 219.907 168.656 219.199 168.459C218.491 168.261 217.742 168.263 217.035 168.465C215.23 168.965 214.429 170.865 214.027 172.685C213.816 173.76 213.168 181.289 213.035 183.937C211.658 184.07 210.333 184.537 209.177 185.298C208.02 186.058 207.067 187.09 206.4 188.302C205.559 190.251 205.054 192.328 204.907 194.445C203.917 200.197 198.09 202.414 195.525 208.032C194.295 210.675 193.895 213.628 194.377 216.503C194.86 219.378 196.201 222.04 198.226 224.137C200.25 226.234 202.863 227.669 205.719 228.252C208.575 228.836 211.541 228.54 214.226 227.405C223.066 223.984 223.173 214.718 226.469 208.462C228.981 203.704 232.778 198.71 231.478 193.021ZM215.142 175.557C215.477 172.926 216.102 169.565 218.653 170.277C220.392 170.707 220.603 173.624 220.672 175.417C220.715 176.36 220.862 185.15 220.742 187.293C220.605 189.769 220.144 192.176 217.675 192.037C214.008 191.87 214.941 189.851 215.142 175.557ZM224.248 207.318C221.96 211.638 221.218 216.669 218.59 220.566C213.523 228.566 198.91 227.505 197.13 215.697C195.718 205.721 204.64 203.912 206.787 196.561C207.511 197.82 208.504 198.901 209.697 199.729C210.89 200.556 212.251 201.107 213.683 201.344C216.6 201.813 218.275 200.848 218.19 200.704C216.765 200.615 215.345 200.445 213.939 200.195C204.979 197.614 205.939 187.062 212.963 185.784C212.867 189.246 212.493 192.24 215.261 193.605C215.999 193.969 216.807 194.17 217.629 194.194C218.452 194.219 219.27 194.066 220.029 193.747C222.544 192.521 222.92 189.173 223.003 186.376C223.716 187.205 224.255 188.169 224.588 189.211C224.921 190.253 225.042 191.351 224.942 192.44C224.845 193.529 224.529 194.587 224.014 195.552C223.5 196.517 222.796 197.368 221.946 198.056C220.11 199.697 218.502 200.136 218.586 200.469C218.598 200.832 221.166 200.733 223.61 198.785C222.023 201.37 220.664 204.087 219.549 206.907C218.299 210.576 217.594 214.973 215.41 217.733C214.069 219.341 212.3 220.537 210.307 221.18C208.315 221.824 206.181 221.891 204.152 221.371C199.603 220.289 198.392 217.211 198.008 217.371C197.726 217.469 199.342 221.129 203.837 222.502C206.112 223.216 208.548 223.239 210.837 222.568C213.126 221.897 215.164 220.563 216.694 218.734C219.17 215.669 219.883 211.065 221.122 207.445C222.757 202.28 228.566 196 227.554 190.408C232.79 194.632 226.754 202.766 224.248 207.318Z" fill="#0F0F0F"/>
<path d="M147.858 218.593C147.926 222.477 148.738 226.576 152.178 228.414C154.614 229.713 163.709 230.382 166.467 230.323C173.701 230.163 171.482 229.453 179.149 230.845C183.482 231.63 190.698 232.206 194.728 230.438C200.853 227.749 204.994 218.142 201.339 208.649C197.486 198.64 177.832 195.48 173.086 202.835C170.801 205.812 167.726 208.09 164.211 209.408C163.292 209.674 162.314 209.662 161.401 209.374C160.488 209.087 159.681 208.535 159.08 207.79C157.931 206.08 158.36 203.742 157.387 202.736C156.293 201.6 147.547 200.929 147.858 218.593Z" fill="white"/>
<path d="M155.424 192.67C155.702 195.942 157.344 204.448 158.611 206.893C159.045 207.891 159.792 208.722 160.738 209.261C161.684 209.8 162.779 210.018 163.859 209.882C166.634 209.778 168.426 208.632 168.874 205.835C169.328 203 167.562 194.136 166.878 190.568C165.366 182.661 165.226 179.893 163.109 178.72C156.766 175.2 154.81 185.474 155.424 192.67Z" fill="#FFC5F6"/>
<path d="M199.873 204.627C192.745 195.64 177.427 193.486 170.613 204.366C170.613 202.713 168.96 184.593 166.259 180.56C164.123 177.181 160.819 177.384 160.942 178.101C160.966 178.496 162.976 178.717 164.185 181.667C165.08 183.873 166.381 195.771 166.755 199.014C167.019 201.299 167.811 205.376 166.688 207.137C165.744 208.617 161.91 208.627 160.707 207.502C158.733 205.656 157.68 190.52 157.595 187.813C157.499 184.566 157.397 181.657 159.576 179.251C160.141 178.637 160.616 178.382 160.576 178.145C160.557 177.936 159.905 177.733 158.861 178.173C152.67 180.865 154.585 194.067 155.459 200.683C147.542 201.854 146.158 208.574 146.454 216.411C146.774 224.969 145.854 231.005 156.76 231.547C158.989 231.635 161.07 231.51 166.245 231.734C176.141 232.168 180.189 233.131 185.097 233.451C206.52 234.741 207.979 214.789 199.873 204.627ZM201.117 218.782C201.056 221.029 200.352 223.212 199.088 225.071C197.824 226.93 196.054 228.388 193.987 229.272C187.198 231.805 180.201 228.521 161.6 228.275C156.921 228.179 151.345 228.861 150.294 224.51C156.896 225.689 163.056 223.71 170.238 224.779C175.985 225.611 181.315 226.976 185.321 227.062C189.333 227.23 191.749 226.451 191.689 226.187C191.592 225.547 190.184 226.765 178.832 224.206C176.329 223.651 173.552 222.989 170.531 222.582C163.424 221.416 156.382 223.587 150.009 222.198C149.597 214.425 148.219 205.11 155.921 203.958C156.079 206.164 156.958 208.256 158.424 209.912C160.843 212.238 165.971 212.088 168.283 210.251C167.541 213.638 167.542 218.909 167.993 218.92C168.633 218.955 168.325 212.253 171.413 206.773C179.155 192.665 202.472 200.982 201.12 218.782H201.117Z" fill="#0F0F0F"/>
<path d="M233.545 60.1838C236.221 61.1214 237.875 61.083 238.115 61.5662C238.304 61.9454 237.816 62.291 237.424 62.451C231.486 64.8766 227.63 71.091 226.864 77.4542C226.691 78.8942 225.913 78.8574 225.654 78.5966C225.153 76.9434 224.544 75.3249 223.83 73.7518C222.685 72.1079 221.392 70.5724 219.966 69.1646C216.726 65.579 215.326 66.6046 213.035 65.4446C212.665 65.2574 211.998 65.2686 212.075 64.8622C212.285 63.723 215.323 62.8142 216.377 62.1742C218.665 60.7886 221.081 56.227 221.897 53.6942C222.309 52.0583 222.871 50.4639 223.576 48.931C224.296 48.7822 224.376 51.2462 224.43 51.4062C225.264 53.4176 226.504 55.2353 228.072 56.7457C229.641 58.256 231.504 59.4264 233.545 60.1838Z" fill="white"/>
<path d="M88.7088 36.2078C85.0096 43.6958 77.9888 45.1678 77.9392 46.1374C77.9056 46.8094 81.5776 48.0846 84.0416 49.4174C94.7232 55.1966 93.2304 64.2638 95.4624 64.2814C95.2704 58.2798 100.902 50.0414 102.541 48.323C104.742 46.3131 107.263 44.6839 110 43.5022C110.192 43.4046 109.8 43.067 109.733 42.8622C109.445 41.995 104.947 41.3006 104.01 41.0334C94.0896 38.2078 93 23.7374 91.8784 24.5246C91.304 24.9278 93.6704 26.1614 88.7088 36.2078Z" fill="white"/>
<path d="M268.19 76.2112C268.371 77.456 268.824 78.6464 269.518 79.696C271.525 82.736 273.39 81.8672 275.638 83.5968C272.684 85.4827 270.514 88.3755 269.529 91.7392C269.475 91.984 269.497 92.5104 269.248 92.5392C268.966 92.5696 268.985 92.2864 268.884 92.0224C266.635 86.2176 261.684 85.8592 261.812 85.0864C261.86 84.7856 263.381 84.0144 264.473 83.0256C267.856 79.9616 266.865 75.9376 268.19 76.2096V76.2112Z" fill="white"/>
<path d="M68.6541 117C69.6509 117.213 69.7037 117.675 69.5517 117.92C69.4189 118.133 69.0397 118.24 68.2717 118.656C64.3741 120.789 64.5085 124.384 63.6925 126.078C62.8765 127.773 62.1901 121.138 56.5885 119.95C54.6829 119.549 57.8685 117.848 58.0381 117.726C61.3613 115.294 61.2029 110.39 61.9565 110.846C62.461 112.355 63.3401 113.711 64.5114 114.787C65.6828 115.863 67.1082 116.625 68.6541 117Z" fill="white"/>
<path d="M233.704 59.4367C230.261 58.1215 227.318 55.8943 225.358 50.3519C224.176 46.9631 223.598 43.9839 223.101 44.0479C222.606 44.0687 222.461 47.1727 221.798 50.8463C219.481 64.1359 208.981 63.7103 209.225 65.0735C209.206 66.3839 219.704 64.8143 223.801 76.1423C225.017 79.4367 225.55 82.4303 226.041 82.3823C227.641 82.3823 225.241 68.8079 238.181 63.0383C241.325 61.6271 240.32 61.8463 233.704 59.4367ZM233.32 63.9647C229.374 67.2317 226.7 71.7805 225.765 76.8175C225.041 73.8362 223.489 71.1202 221.288 68.9828C219.088 66.8454 216.327 65.3737 213.326 64.7375C217.435 63.5007 221.974 59.1183 223.433 51.1375C223.645 49.9519 223.477 49.9903 223.792 50.9007C225.909 56.8783 229.216 59.4975 233.105 60.9807C239.285 63.2271 237.725 60.6399 233.32 63.9647Z" fill="#0F0F0F"/>
<path d="M110.3 41.9647C106.42 40.4879 101.465 39.5135 98.2844 35.6751C93.0908 29.4351 92.726 20.6559 91.5532 20.8111C89.6764 20.8831 92.2652 36.3775 81.7516 43.1615C78.006 45.7343 74.1132 46.3615 74.2316 47.0495C74.2204 47.7279 77.982 47.8335 82.0172 49.5295C94.3996 54.3199 93.2652 68.8095 95.2188 68.6479C96.5804 68.6479 95.7324 54.8207 105.563 47.3199C110.972 43.2559 115.36 43.8607 110.3 41.9647ZM94.8796 61.7087C93.9226 58.3649 92.2424 55.2722 89.958 52.6495C83.8332 45.7295 77.598 47.1855 79.718 46.5183C87.382 43.1215 91.094 36.4271 92.1452 28.5343C94.7916 37.1615 100.406 41.9615 109.163 43.2831C101.715 45.2927 96.3196 54.0959 94.8796 61.7087Z" fill="#0F0F0F"/>
<path d="M273.449 82.1007C266.702 79.5215 268.568 67.9615 266.845 77.5119C265.565 84.8863 259.949 84.2447 260.125 85.2591C260.125 86.0879 265.757 85.2591 267.945 91.3071C268.585 93.0511 268.905 94.5919 269.225 94.6559C270.078 94.8879 269.406 88.8207 273.816 85.4575C276.648 83.2735 278.913 84.0927 273.449 82.1007ZM273.142 84.5743C271.077 86.2718 269.646 88.6182 269.083 91.2319C268.696 89.9388 268.03 88.7465 267.131 87.7395C266.232 86.7325 265.123 85.9355 263.881 85.4047C262.248 84.7375 262.39 85.4463 263.941 84.4047C265.037 83.6128 265.958 82.6033 266.646 81.4393C267.334 80.2754 267.775 78.9819 267.941 77.6399C268.298 78.8933 268.947 80.0445 269.834 80.9996C270.721 81.9547 271.821 82.6867 273.045 83.1359C275.886 84.1599 275.208 83.0159 273.142 84.5743Z" fill="#0F0F0F"/>
<path d="M67.4446 116.189C60.6974 113.608 62.563 102.048 60.8398 111.6C59.5598 118.973 53.9438 118.331 54.1198 119.344C54.1198 120.174 59.7518 119.344 61.9406 125.395C62.5806 127.138 62.9086 128.678 63.2206 128.742C64.0734 128.974 63.4014 122.907 67.811 119.542C70.643 117.362 72.9086 118.181 67.4446 116.189ZM67.1374 118.662C65.0717 120.359 63.641 122.705 63.0782 125.318C62.6901 124.026 62.0231 122.834 61.1244 121.827C60.2256 120.82 59.117 120.023 57.8766 119.491C56.2382 118.819 56.387 119.531 57.9374 118.491C59.0335 117.699 59.9544 116.69 60.6427 115.526C61.3309 114.362 61.7717 113.068 61.9374 111.726C62.2949 112.98 62.9437 114.131 63.8307 115.086C64.7176 116.041 65.8178 116.773 67.0414 117.222C69.8686 118.24 69.2046 117.102 67.1374 118.662Z" fill="#0F0F0F"/>
<path d="M43.8204 238.56C43.8204 238.56 36.7804 244.587 44.1724 251.984C44.1724 251.984 31.6668 267.422 49.3884 278.064C49.3884 278.064 54.5884 280.747 59.8332 275.504C65.078 270.261 104.58 241.088 104.58 234.259C104.58 227.43 99.5308 211.984 83.7596 215.896C83.7596 215.896 88.5116 207.601 78.5436 204.763C78.5436 204.763 77.438 191.411 64.9532 194.464C64.7932 194.504 61.3468 183.813 54.1916 187.913C53.8159 188.109 53.4678 188.353 53.1564 188.64C52.9685 188.893 52.754 189.124 52.5164 189.331C50.846 190.398 48.8972 186.094 42.2284 189.152C36.6988 191.688 39.9724 195.421 37.9084 196.851C31.2972 201.445 36.5372 210.755 37.6348 211.283C38.02 211.492 38.3065 211.845 38.4316 212.265C38.5567 212.685 38.5101 213.137 38.302 213.523C37.6422 214.052 37.1009 214.713 36.7132 215.464C35.5193 217.413 34.7538 219.594 34.4676 221.861C34.1814 224.129 34.3811 226.432 35.0533 228.616C35.7255 230.801 36.855 232.817 38.3666 234.532C39.8781 236.246 41.7373 237.619 43.8204 238.56Z" fill="white"/>
<path d="M99.0398 218.002C92.7486 212.187 86.0446 214.528 85.7342 214.251C85.9339 213.558 86.0578 212.846 86.1038 212.126C86.371 207.909 83.667 205.246 79.6142 203.885C79.1694 200.388 77.4202 197.187 74.7166 194.925C72.5151 193.35 69.8003 192.664 67.115 193.005C65.355 193.325 65.675 193.395 65.4302 192.88C62.267 186.264 57.3758 183.626 51.9214 188.478C46.7806 184.638 36.707 188.765 37.899 195.552C31.763 198.707 31.819 208.749 37.739 212.341C30.1022 221.349 32.8542 232.981 41.7998 238.789C42.051 238.949 42.0302 238.77 41.7166 239.178C40.4592 240.776 39.7281 242.725 39.6238 244.757C39.7056 247.472 40.7627 250.067 42.6014 252.067C41.2975 253.958 40.2736 256.026 39.5614 258.21C38.5686 260.97 38.354 263.95 38.9409 266.823C39.5279 269.697 40.8938 272.354 42.8894 274.504C43.9246 275.598 45.0494 276.605 46.2494 277.514C47.8334 278.608 50.4942 281.144 55.5582 279.688C57.8848 278.879 59.974 277.504 61.6382 275.688C68.8782 269.112 104.856 242.29 105.843 234.936C106.379 230.922 103.968 222.504 99.0398 218.002ZM102.953 235.122C98.6334 243.653 67.8974 266.515 58.171 275.181C55.291 277.741 51.5198 277.901 49.971 276.838C45.7486 273.946 42.451 271.218 41.4446 266.133C40.4382 261.048 42.6542 256.086 45.7758 251.938C41.9646 247.667 39.8942 243.912 44.8606 239.197C49.5518 239.95 52.7614 237.683 52.499 237.19C52.0894 236.424 42.8574 240.304 37.5246 231.43C36.3081 229.478 35.5717 227.265 35.3756 224.972C35.1795 222.68 35.5294 220.374 36.3966 218.243C42.8686 206.765 49.315 209.347 49.3982 208.05C49.475 207.482 44.2142 206.195 39.1422 210.874C37.2907 209.165 36.1867 206.795 36.069 204.279C35.9513 201.762 36.8295 199.3 38.5134 197.426C39.4398 199.365 41.5262 202.157 40.7534 199.416C40.251 197.55 39.0318 195.384 40.0798 193.15C41.3374 190.026 47.7342 187.669 51.4398 190.125C53.2926 191.307 53.9054 192.8 54.2382 192.645C54.4222 192.622 54.4462 191.304 53.1902 189.736C58.3422 185.568 61.9902 189.454 64.2798 195.656C65.9785 195.269 67.7215 195.11 69.4622 195.186C72.7262 195.416 76.1006 197.931 77.1966 203.683C77.7422 206.547 76.5262 204.95 80.9902 207.078C85.3246 210.118 83.659 213.43 81.4526 217.579C85.8238 216.95 91.7646 214.813 97.275 219.946C101.64 223.965 103.848 231.906 102.947 235.118L102.953 235.122Z" fill="#0F0F0F"/>
<path d="M63.8638 212.499C61.3886 206.302 63.947 201.648 63.2862 201.329C62.5806 200.923 58.8414 207.67 62.4206 214.677C61.3159 216.662 60.6697 218.87 60.5294 221.137C53.8094 221.368 49.7806 227.187 50.6094 227.667C51.1598 228.045 54.2894 223.531 60.5406 223.347C60.979 229.19 64.6686 233.072 65.1182 232.651C65.387 232.437 64.4382 231.051 63.6062 228.606C58.6942 214.541 71.787 208.446 71.4814 207.725C71.3342 207.275 67.099 208.377 63.8638 212.499Z" fill="#0F0F0F"/>
<path d="M61.771 248.122C59.9518 247.771 58.6078 248.296 59.1822 248.061C57.5534 244.024 60.9806 241.131 60.6702 240.637C60.2014 239.661 55.1678 243.427 57.051 248.686C51.3998 251.048 51.1406 257.978 52.2862 257.922C52.6062 257.906 52.795 256.962 53.3662 255.645C56.531 248.157 63.9022 250.11 64.1854 249.395C64.2878 249.136 63.4606 248.43 61.771 248.122Z" fill="#0F0F0F"/>
<path d="M68.822 170.944C68.6892 168.704 61.9724 158.096 50.8396 152.035C48.55 148.878 49.3996 148.963 42.4844 141.826C37.166 136.336 25.6092 124.363 18.9164 134.226C16.5836 137.664 15.6924 142.501 15.4268 147.214C15.206 147.27 14.2012 147.482 15.4268 147.254C15.0445 153.98 15.5964 160.727 17.0668 167.301C13.2412 179.542 15.9596 191.832 17.3036 193.395C20.9996 197.696 31.7036 194.448 31.9292 194.806C34.878 199.63 36.1596 202.587 38.2732 202.314C38.7537 202.211 39.1934 201.97 39.5376 201.619C39.8819 201.269 40.1154 200.825 40.2092 200.342C40.3783 199.374 40.3236 198.379 40.0492 197.435C39.0764 193.107 38.2188 195.826 43.862 193.71C44.526 193.39 46.5212 200.469 50.0108 200.016C50.6205 199.887 51.1787 199.58 51.6155 199.136C52.0522 198.691 52.3483 198.127 52.4668 197.515C52.9132 195.677 52.0316 192.546 51.2588 190.133C52.683 189.238 53.955 188.122 55.0268 186.826C55.9624 188.141 56.8245 189.508 57.6092 190.918C60.5868 195.789 66.1068 193.742 60.1692 181.36C63.894 178.621 69.0188 174.261 68.822 170.944Z" fill="#FFC5F6"/>
<path d="M27.1741 161.051C28.6024 159.102 30.5526 157.597 32.7997 156.709C38.3661 154.928 44.1069 160.52 42.5085 167.514C40.8045 174.968 29.0045 174.65 27.2397 167.565C26.7949 165.803 26.3693 162.696 27.1741 161.051Z" fill="#92FCFF"/>
<path d="M31.3135 172.997C32.8575 173.773 34.5935 174.085 36.3119 173.896C38.0299 173.705 39.6559 173.021 40.9935 171.926C48.6735 165.686 41.5455 152.322 31.4543 156.246C26.9855 157.923 26.5583 162.213 26.9743 162.286C27.1439 162.326 27.3663 161.626 28.0095 160.59C28.9292 159.187 30.3426 158.181 31.9695 157.771C42.4799 154.704 45.9487 170.526 35.8095 171.83C33.7512 171.996 31.7089 171.357 30.1119 170.048C28.5149 168.739 27.4877 166.862 27.2463 164.811C27.0383 163.589 27.0415 162.864 26.8735 162.842C26.2767 162.746 25.0495 169.818 31.3135 172.997Z" fill="#0F0F0F"/>
<path d="M22.8142 164.488C22.6542 162.701 22.787 161.693 22.6734 161.678C22.3345 162.583 22.199 163.551 22.2767 164.514C22.3007 178.218 40.2942 183.234 46.9166 171.957C53.3902 161.182 42.1502 146.696 29.5006 152.494C28.5871 152.821 27.7645 153.36 27.1006 154.067C27.1678 154.17 28.0046 153.587 29.6958 152.992C32.583 151.84 35.7893 151.77 38.7239 152.795C41.6585 153.821 44.1238 155.872 45.6654 158.571C46.857 160.457 47.4965 162.639 47.5117 164.869C47.5268 167.1 46.9169 169.29 45.7511 171.192C44.5854 173.093 42.9102 174.631 40.9156 175.629C38.921 176.628 36.6865 177.048 34.4655 176.842C31.3811 176.48 28.5225 175.044 26.3918 172.785C24.2611 170.526 22.9944 167.588 22.8142 164.488Z" fill="#0F0F0F"/>
<path d="M69.707 168.888C65.7234 161.474 59.5872 155.44 52.107 151.582C47.2981 143.876 41.0622 137.159 33.7342 131.792C14.9326 119.57 10.0206 146.43 15.787 168.019C13.1479 175.955 12.9572 184.5 15.2398 192.546C16.3742 196.174 20.627 197.005 24.3086 196.968C33.6734 196.661 30.5742 193.749 33.3486 198.643C34.435 200.514 35.315 202.461 37.2238 203.088C37.8641 203.268 38.5466 203.223 39.1579 202.961C39.7692 202.699 40.2724 202.236 40.5838 201.648C40.953 200.798 41.1331 199.878 41.1115 198.951C41.09 198.024 40.8673 197.114 40.459 196.282C40.1598 195.408 40.0798 196.261 43.4718 195.054C44.2321 196.425 45.0763 197.747 45.9998 199.013C48.7758 202.477 52.3998 201.352 53.4222 198.131C54.0622 196.051 53.3806 193.618 52.5886 191.034C52.3758 190.333 52.7342 190.997 55.2798 188.336C57.0494 191.618 57.8846 193.296 59.5518 194.014C60.2777 194.298 61.0864 194.282 61.8005 193.97C62.5146 193.658 63.0759 193.075 63.3614 192.35C64.243 190.451 63.4622 187.87 62.6654 185.55C60.8398 180.235 60.0302 183.722 66.011 178.245C68.8302 175.546 71.443 172.378 69.707 168.888ZM19.475 136.728C23.299 128.952 29.7678 132.333 36.2862 138.141C34.2702 139.349 37.371 137.501 29.6638 142.155C21.9726 146.744 29.1278 144.482 37.7934 139.531C52.3278 153.32 57.683 168.936 57.4894 176.277C48.7982 180.544 48.2686 181.824 47.371 181.136C46.6139 180.552 45.7111 180.188 44.761 180.083C43.811 179.978 42.8502 180.135 41.9838 180.539C41.118 180.944 40.3802 181.58 39.8509 182.376C39.3215 183.172 39.0211 184.098 38.9822 185.053C36.6286 185.64 31.0222 187.251 28.9278 187.891C22.4862 180.794 16.2654 165.534 17.099 147.931C24.1662 146.502 29.931 143.459 22.619 144.978C21.179 145.309 19.3326 145.592 17.2334 145.938C17.4147 142.757 18.1743 139.636 19.475 136.728ZM18.0542 191.666C16.295 185.324 15.9557 178.672 17.0606 172.184C19.6014 179.544 24.7166 189.494 31.6462 193.579C27.9086 194.37 19.1454 195.294 18.0542 191.666ZM39.115 196.626C39.3918 197.888 39.8398 199.675 39.1262 200.757C37.5374 203.165 35.7662 199.275 33.0222 195.355C34.7822 194.726 33.6382 194.792 36.0446 195.538C39.3998 196.534 38.827 195.181 39.115 196.619V196.626ZM30.3886 189.355C42.1598 187.022 37.5278 184.699 40.3614 189.856C40.8142 190.656 41.1742 191.246 42.2606 193.056C38.8798 194.002 35.147 193.627 30.3886 189.349V189.355ZM51.3598 197.454C50.8286 199.098 49.3262 199.651 47.715 197.614C47.2974 197.098 47.235 196.974 43.9454 191.667C42.2526 188.846 38.7214 184.582 42.7406 182.104C43.3034 181.74 43.9649 181.559 44.6346 181.586C45.3042 181.613 45.9492 181.845 46.4814 182.253C48.7902 184.224 52.1854 194.88 51.3598 197.454ZM51.7086 188.485C48.1102 179.016 46.6398 185.544 57.3486 178.288C56.8359 182.279 54.8199 185.924 51.7118 188.48L51.7086 188.485ZM61.779 191.582C60.315 194.546 57.939 189.915 56.1486 187.339C56.7449 186.612 57.2801 185.837 57.7486 185.022C58.7214 183.338 57.8318 184.208 60.083 182.757C60.7166 184.451 62.6046 189.93 61.7822 191.582H61.779ZM67.3486 171.102C66.7902 174.451 62.291 178.195 59.6462 180.339C61.5662 172.762 57.9054 162.571 54.3662 155.637C62.5726 161.931 67.427 170.181 67.3598 171.101L67.3486 171.102Z" fill="#0F0F0F"/>
<path d="M43.6523 66.6446C44.287 67.2526 45.096 67.6468 45.966 67.7719C46.8359 67.897 47.7232 67.7467 48.5035 67.3422C60.7163 63.1998 67.5723 50.7678 66.7659 46.8046C66.3387 44.6974 61.6971 39.7182 58.2235 39.4062C53.5339 38.9838 47.3099 44.8942 44.0603 48.2398C34.3083 58.2894 37.4651 62.1566 43.6523 66.6446Z" fill="#FDFE1F"/>
<path d="M278.536 238.048C279.146 238.684 279.94 239.115 280.806 239.279C281.672 239.443 282.569 239.334 283.37 238.965C295.803 235.362 303.237 223.195 302.605 219.182C302.269 217.05 297.838 211.85 294.368 211.381C289.683 210.741 283.176 216.397 279.768 219.608C269.537 229.25 272.53 233.269 278.536 238.048Z" fill="#FDFE1F"/>
<path d="M180.83 26.1024C180.15 26.8937 179.735 27.8781 179.643 28.9175C179.55 29.9568 179.786 30.999 180.317 31.8976C186.008 46.1056 201.192 53.4304 205.84 52.2176C208.309 51.5776 213.912 45.7504 214.057 41.6128C214.253 36.0272 206.848 29.032 202.67 25.3968C190.131 14.488 185.75 18.4784 180.83 26.1024Z" fill="#FDFE1F"/>
<path d="M257.093 28.3919C257.582 28.8298 257.921 29.4096 258.065 30.0501C258.208 30.6907 258.148 31.36 257.893 31.9647C255.51 41.2927 246.641 47.107 243.643 46.7343C242.043 46.5343 238.078 43.3631 237.646 40.795C237.065 37.3279 241.11 32.3551 243.416 29.7455C250.337 21.9199 253.398 24.0399 257.093 28.3919Z" fill="#FDFE1F"/>
<path d="M42.0351 103.097C41.712 103.668 41.2188 104.123 40.6245 104.399C40.0302 104.676 39.3643 104.76 38.7199 104.64C29.0975 104.294 21.5311 96.8638 21.2591 93.8542C21.1135 92.2542 23.3679 87.7006 25.7871 86.7342C29.0527 85.4286 34.7695 88.323 37.8095 90.0222C46.9327 95.1198 45.5023 98.5598 42.0351 103.097Z" fill="#FDFE1F"/>
<path d="M299.425 175.881C298.855 176.206 298.198 176.344 297.545 176.276C296.892 176.209 296.277 175.939 295.785 175.504C287.696 170.283 284.997 160.027 286.302 157.302C286.997 155.862 291.262 153.094 293.837 153.502C297.31 154.051 300.741 159.464 302.477 162.48C307.715 171.534 304.725 173.76 299.425 175.881Z" fill="#FDFE1F"/>
<path d="M117.262 21.7839C117.508 22.3129 117.914 22.7516 118.421 23.0386C118.929 23.3255 119.514 23.4463 120.094 23.3839C128.645 23.7663 135.882 17.7231 136.338 15.0767C136.579 13.6703 134.907 9.47668 132.834 8.44308C130.034 7.05268 124.762 9.20948 121.946 10.4991C113.493 14.3663 114.515 17.5183 117.262 21.7839Z" fill="#FDFE1F"/>
<path d="M64.5245 41.44C60.1165 37.184 56.2221 36.3648 48.8813 41.9952C43.8797 45.8624 35.2301 54.4 36.9677 60.616C37.7133 63.5808 40.6477 65.576 43.1309 67.3648C43.7203 67.9369 44.4438 68.3521 45.2351 68.5724C46.0264 68.7926 46.8603 68.8109 47.6605 68.6256C58.3997 66.136 68.1933 54.28 68.2077 47.5392C68.2525 45.0032 66.2781 43.2 64.5245 41.44ZM39.7565 56.032C42.6813 49.4096 58.2573 36.2272 60.0925 42.0736C61.0269 44.8608 55.2717 51.8512 52.9997 54.1312C45.2909 61.8784 35.9325 64.8256 39.7565 56.0224V56.0304V56.032ZM64.8909 50.016C60.2813 62.0592 47.9149 67.3968 45.6589 66.7424C44.2349 66.344 40.0909 62.5952 40.6397 62.6784C47.6925 63.8144 62.3869 48.8016 61.5373 42.4672C65.8397 46.0304 65.9773 47.2672 64.8909 50.0064V50.0144V50.016Z" fill="#0F0F0F"/>
<path d="M300.592 213.699C296.366 209.232 292.493 208.242 284.885 213.557C279.656 217.237 270.645 225.397 272.105 231.701C272.721 234.712 275.577 236.84 277.981 238.741C278.546 239.339 279.252 239.787 280.034 240.043C280.817 240.299 281.651 240.355 282.461 240.206C293.341 238.189 303.693 226.739 304.006 219.981C304.171 217.44 302.275 215.545 300.592 213.699ZM275.099 227.217C278.281 220.797 294.534 208.139 296.125 214.131C296.939 216.968 290.854 223.731 288.472 225.909C280.4 233.336 270.88 235.864 275.099 227.217ZM301.283 219.891C301.166 224.726 292.333 235.881 282.112 238.243C281.574 238.377 281.011 238.365 280.48 238.208C279.948 238.051 279.469 237.755 279.091 237.35C277.789 236.315 276.592 235.154 275.517 233.885C283.105 235.705 298.077 220.264 297.552 214.581C298.771 215.68 301.355 218.24 301.28 219.891H301.283Z" fill="#0F0F0F"/>
<path d="M210.203 30.88C205.361 25.28 194.742 15.5856 187.604 17.9936C184.203 19.0384 182.025 22.6032 180.085 25.6288C179.462 26.3462 179.03 27.2082 178.827 28.136C178.624 29.0637 178.657 30.0275 178.923 30.9392C180.852 36.7081 184.268 41.8665 188.827 45.8944C192.536 49.1936 200.357 53.9792 205.046 53.7344C207.955 53.624 209.934 51.2112 211.868 49.0576C216.504 43.68 217.3 39.16 210.203 30.88ZM193.243 20.5984C198.886 22.7152 214.729 36.1664 212.405 43.1888C210.817 44.976 208.621 44.3696 206.462 43.3232C198.951 39.7606 192.621 34.1175 188.222 27.064C186.979 24.9968 186.168 22.5552 187.321 20.4272C188.266 20.0444 189.281 19.8612 190.3 19.8893C191.319 19.9174 192.322 20.1561 193.244 20.5904L193.243 20.5984ZM204.867 50.9984C199.349 51.392 184.904 42.5568 180.84 30.3872C180.607 29.7467 180.552 29.0549 180.682 28.3858C180.812 27.7167 181.121 27.0955 181.577 26.5888C182.692 24.7705 184.036 23.1035 185.577 21.6288C183.74 30.2544 204.224 47.6816 211.16 45.4864C210.269 46.7664 207.108 50.88 204.868 50.9952L204.867 50.9984Z" fill="#0F0F0F"/>
<path d="M257.637 27.9312C256.149 26.1712 254.502 24.0912 252.232 23.7008C246.25 22.5056 235.779 35.3648 236.533 40.8368C236.978 44.0752 241.787 48.072 244.274 47.8368C248.874 47.4736 257.528 39.984 258.85 31.2704C258.94 30.6569 258.877 30.0304 258.665 29.4475C258.453 28.8646 258.1 28.3435 257.637 27.9312ZM238.917 38.6672C240.214 34.4672 247.869 24.2 252.408 25.5344C256.101 30.9696 235.618 49.5232 238.92 38.6672H238.917ZM257.27 31.04C255.742 38.672 247.558 45.472 244.13 45.6592C243.072 45.736 242.014 44.7104 240.93 43.7712C239.795 42.76 240.429 43.9168 243.17 42.272C248.797 38.9456 255.077 30.8512 254.162 26.488C255.019 27.216 255.822 28.008 256.562 28.856C256.862 29.1251 257.086 29.4689 257.21 29.8525C257.335 30.2361 257.355 30.6458 257.27 31.04Z" fill="#0F0F0F"/>
<path d="M43.9533 93.4959C41.4493 90.3599 33.4781 85.8159 28.2957 85.3279C24.3453 85.0271 22.1869 87.6415 20.5293 91.7359C20.1593 92.6267 20.067 93.6086 20.2646 94.5528C20.4621 95.4969 20.9403 96.3594 21.6365 97.0271C25.2211 101.493 30.3682 104.431 36.0365 105.246C40.6941 105.802 41.5805 105.646 44.4653 100.992C45.2787 99.8831 45.6734 98.5223 45.5797 97.1503C45.486 95.7784 44.9099 94.4838 43.9533 93.4959ZM28.1325 87.5199C32.5037 87.8927 44.1613 93.1839 43.8349 97.9199C39.2685 102.707 16.9453 86.6159 28.1325 87.5199ZM41.4701 102.662C40.4605 103.942 40.0013 104.126 36.3133 103.514C31.1803 102.573 26.5667 99.792 23.3373 95.6927C21.8445 93.8047 22.0173 93.0367 23.9517 89.9327C25.1421 94.7839 38.3773 102.014 43.2749 99.8207C42.7453 100.813 42.1421 101.763 41.4701 102.666V102.662Z" fill="#0F0F0F"/>
<path d="M305.985 168.614C305.44 164.632 300.915 156.651 296.705 153.584C293.432 151.282 290.214 152.491 286.755 155.117C285.979 155.692 285.395 156.49 285.08 157.404C284.766 158.318 284.736 159.305 284.995 160.237C285.789 165.907 288.705 171.064 293.155 174.667C296.913 177.558 297.741 177.83 302.576 175.325C303.847 174.791 304.887 173.824 305.511 172.595C306.136 171.366 306.304 169.956 305.985 168.614ZM295.449 155.387C299.057 157.976 306.297 168.466 303.622 172.347C297.238 174.123 286.297 148.872 295.449 155.387ZM299.161 175.227C297.641 175.811 297.157 175.738 294.296 173.322C290.366 169.887 287.824 165.137 287.149 159.962C286.849 157.698 287.249 157.062 290.625 155.322C289.147 160.158 296.878 173.082 302.165 173.706C301.203 174.285 300.198 174.79 299.161 175.221V175.227Z" fill="#0F0F0F"/>
<path d="M136.414 11.136C134.686 7.37915 132.395 5.85595 126.381 7.61595C123.465 8.52795 118.462 10.624 116.174 13.0672C115.242 13.8898 114.631 15.0156 114.449 16.2453C114.267 17.4751 114.525 18.7296 115.179 19.7872C117.397 24.0704 118.089 24.3728 122.43 24.2192C127.541 23.9115 132.342 21.6694 135.859 17.9488C138.201 15.4272 137.659 13.9872 136.414 11.1344V11.136ZM130.694 9.10075C131.739 9.10075 133.211 9.48635 133.128 10.5312C132.893 13.456 120.417 19.4128 116.889 17.6464C112.937 15.68 124.614 9.11995 130.694 9.10235V9.10075ZM135.174 15.1808C133.608 19.5408 120.462 25.2352 117.854 21.4064C117.371 20.6224 116.937 19.808 116.557 18.9696C120.806 21.0048 132.465 15.8656 134.208 11.6704C134.656 12.5552 135.536 14.24 135.181 15.1744L135.174 15.1808Z" fill="#0F0F0F"/>
<path d="M131.882 214.08C136.603 224.741 136.56 236.814 136.437 248.48C136.395 252.288 135.832 254.797 130.067 256.946C125.773 258.494 121.251 259.316 116.686 259.378C90.3488 260.898 98.1904 260.208 87.7408 259.014C83.1136 258.486 77.9344 258.843 74.3888 255.814C73.6353 255.206 73.0464 254.419 72.676 253.525C72.3056 252.63 72.1656 251.657 72.2688 250.694C72.1584 246.712 72.0064 237.254 72.9088 233.358C74.0976 228.238 79.7984 219.8 82.2 217.752C85.56 214.886 99.736 208.755 109.283 212.885C110.81 213.546 115.843 216.661 117.923 213.222C119.326 210.894 116.232 203.987 123.859 205.835C127.859 206.808 130.221 210.333 131.882 214.08Z" fill="white"/>
<path d="M104.517 209.735C104.501 211.487 105.302 211.891 107.226 212.426C111.653 213.659 112.928 215.272 113.867 215.328C115.441 214.944 116.845 214.056 117.867 212.8C118.957 211.173 118.667 211.029 119.366 185.984C119.472 182.163 119.264 180.104 116.506 177.677C112.714 174.341 109.162 175.757 107.514 179.375C106.801 180.986 106.446 182.733 106.475 184.495C105.271 192.856 104.617 201.287 104.517 209.735Z" fill="#FFC5F6"/>
<path d="M137.92 238.069C137.067 229.616 136.568 218.259 131.824 210.488C128.526 205.453 125.72 204.37 120.464 204.01C121.178 191.522 123.2 177.68 115.68 175.766C114.581 175.478 113.958 175.658 113.92 175.866C113.878 176.104 114.4 176.371 115.126 176.934C120.246 180.878 117.29 187.157 116.782 212.426C115.806 212.938 114.883 213.541 114.022 214.229C111.671 212.843 109.124 211.822 106.467 211.2C106.458 201.235 107.683 193.342 108.032 184.32C108.406 175.28 113.278 176.8 113.392 175.792C113.477 175.022 106.192 173.325 104.981 184.056C104.317 190.136 103.178 202.976 103.142 210.597C86.1344 208.45 71.7824 219.504 70.4384 243.443C69.424 261.6 77.1344 260.734 97.12 261.006C144.651 261.654 139.544 254.24 137.92 238.069ZM90.24 257.563C83.7264 257.419 75.376 257.686 74.048 251.413C73.7648 250.074 74.3456 252.683 86.9808 253.013C97.672 253.194 110.992 253.314 121.192 251.544C126.286 250.704 129.323 249.645 129.25 249.304C129.075 248.462 86.6416 253.269 73.6912 248.078C71.52 206.4 114.03 203.694 124.259 229.218C126.256 234.35 126.045 237.566 126.371 237.538C127.171 237.558 127.213 224.021 116.371 215.813C120.666 212.422 124.371 212.715 124.418 211.923C124.464 211.181 121.574 211.123 120.128 211.362C120.168 209.936 120.222 208.51 120.288 207.085C133.475 207.155 133.701 229.405 135.261 245.267C136.15 254.272 136.357 258.582 90.24 257.563Z" fill="#0F0F0F"/>
</svg>
