<svg width="320" height="320" viewBox="0 0 320 320" fill="none" xmlns="http://www.w3.org/2000/svg">
<path d="M286.817 226.706C276.837 216.76 265.088 217.639 263.713 217.307C262.891 202.773 251.126 177.399 241.841 164.739C227.971 145.831 215.013 141.13 195.349 136.621C189.429 135.263 183.254 133.901 177.323 135.237C173.171 136.254 169.43 138.516 166.599 141.718C163.768 144.921 161.983 148.912 161.483 153.157C158.252 153.452 155.179 154.693 152.649 156.725C150.119 158.757 148.245 161.49 147.26 164.582C146.275 167.674 146.224 170.987 147.112 174.108C148.001 177.229 149.79 180.019 152.256 182.128C146.358 184.144 144.173 191.967 146.323 197.816C150.781 209.938 165.843 212.904 173.656 222.539C179.926 230.267 181.033 241.802 189.363 247.909C193.904 251.369 198.852 254.257 204.097 256.511C205.387 257.032 220.633 261.003 220.613 260.095C220.773 267.075 224.742 270.637 222.717 268.895C232.457 287.923 241.891 289.631 259.411 279.979C265.707 276.511 272.043 272.859 276.997 267.648C285.189 259.026 295.817 235.68 286.817 226.706Z" fill="white"/>
<path d="M217.178 248.16C212.104 246.827 208.312 243.61 208.642 243.175C208.936 242.784 212.52 245.247 217.594 246.579C222.667 247.912 226.997 247.531 227.063 248.019C227.123 248.471 222.611 249.591 217.178 248.16Z" fill="#0F0F0F"/>
<path d="M213.022 162.337C213.822 162.672 210.918 169.569 210.782 176.845C210.583 187.574 214.83 184.624 209.054 186.733C204.839 175.117 212.086 161.941 213.022 162.337Z" fill="#0F0F0F"/>
<path d="M291.521 232.677C288.673 223.493 274.982 217.027 264.19 216.297C262.938 199.87 254.734 182.747 246.05 168.737C234.106 149.233 216.273 138.321 193.817 134.497C183.842 132.771 172.255 132.549 165.044 139.789C163.379 141.403 162.074 143.351 161.214 145.504C160.354 147.658 159.958 149.969 160.054 152.286C147.626 153.877 137.001 169.033 149.974 181.304C141.186 184.686 143.513 197.211 148.975 205.005C154.478 212.649 161.721 211.534 170.626 221.904C179.86 232.509 176.988 239.517 189.036 249.424C197.623 256.384 207.522 260.784 219.129 260.904C218.82 263.132 219.234 265.401 220.31 267.377C226.377 279.734 234.658 289.617 248.039 286.937C278.729 280.758 295.471 245.853 291.521 232.677ZM287.726 242.224C285.63 250.475 281.739 258.161 276.332 264.736C270.924 271.31 264.132 276.611 256.441 280.259C243.047 286.227 233.806 286.681 222.782 266.163C221.782 264.585 221.394 262.695 221.69 260.851C234.764 260.19 244.847 252.829 244.478 252.289C244.108 251.715 236.34 257.441 224.31 258.305C205.962 259.745 188.374 248.397 182.43 235.987C180.06 231.075 178.401 225.851 173.105 219.768C164.081 209.264 156.289 209.581 151.647 203.115C146.956 196.446 144.406 185.035 153.119 183.864C155.716 185.705 165.716 191.616 168.471 193.232C172.22 195.381 173.271 193.694 169.734 191.243C160.106 184.648 156.409 182.472 154.105 180.635C140.626 169.87 149.756 156.795 160.45 154.504C162.45 163.505 178.961 166.387 195.383 177.355C193.632 179.498 192.151 181.849 190.975 184.355L193.935 185.741C199.082 174.734 206.988 170.381 206.38 169.393C206.023 168.777 201.474 171.014 197.591 174.905C187.543 168.105 174.231 162.987 167.164 158.377C161.385 154.555 162.601 146.857 167.359 142.097C177.943 131.155 206.559 139.217 219.774 147.057C234.042 155.47 241.374 166.257 248.762 179.43C255.802 192.001 264.511 212.659 261.962 226.79C260.082 236.87 253.322 243.854 253.764 244.222C254.142 244.542 263.374 234.83 264.265 223.849C264.34 222.934 264.378 220.369 264.327 218.801C271.438 219.67 278.146 222.578 283.642 227.173C288.878 231.729 289.266 235.507 287.719 242.224H287.726Z" fill="#0F0F0F"/>
<path d="M160.713 284.289C154.953 268.155 141.398 270.481 146.153 265.355C157.524 253.094 152.351 229.355 123.492 216.875C128.132 212.851 132.819 208.761 136.207 203.645C145.838 189.109 138.161 174.937 127.327 175.035C128.461 172.709 128.908 170.109 128.617 167.538C128.327 164.968 127.31 162.533 125.687 160.519C124.063 158.505 121.899 156.995 119.449 156.165C116.998 155.336 114.362 155.221 111.849 155.835C109.46 156.43 109.059 155.777 108.985 154.011C108.787 149.237 104.283 145.489 99.5707 144.691C88.9051 142.881 60.8843 155.435 44.2011 186.131C42.189 189.589 40.7039 193.328 39.7947 197.224C36.8283 211.889 49.2347 250.461 80.7547 276.797C72.0827 279.227 71.3627 296.593 75.9755 302.688C77.5161 304.562 79.4475 306.077 81.6347 307.126C94.3579 313.837 109.691 312.301 123.923 310.213C135.433 308.525 158.908 302.747 161.478 291.333C161.889 288.96 161.624 286.519 160.713 284.289Z" fill="white"/>
<path d="M132.416 249.749C133.008 257.403 129.216 262.456 128.797 262.182C128.231 261.816 131.405 257.886 130.788 249.875C130.252 242.941 127.156 237.888 127.636 237.651C128.048 237.398 131.871 242.699 132.416 249.749Z" fill="#0F0F0F"/>
<path d="M50.6825 222.301C51.2281 222.091 54.8313 231.987 63.1977 244.872C71.6985 257.966 79.1497 265.064 78.7177 265.488C78.5737 265.632 76.3449 263.744 73.1177 260.301C57.5353 243.651 50.0169 222.56 50.6825 222.301Z" fill="#0F0F0F"/>
<path d="M162.844 285.11C161.761 281.139 159.762 277.479 157.006 274.422C154.25 271.365 150.816 268.998 146.979 267.51C160.494 254.343 151.177 226.369 125.472 217.11C128.202 215.121 130.677 212.804 132.841 210.211C149.563 191.091 141.276 175.71 129.47 174.582C132.249 160.155 120.924 151.26 110.499 154.593C109.932 146.99 102.225 142.187 93.8988 143.073C71.8732 145.454 42.9324 177.291 38.7468 196.431C34.8956 213.927 52.8428 258.041 78.7468 276.014C73.7132 279.468 71.3004 283.95 71.3564 290.708C71.5356 298.204 73.8156 304.587 80.598 307.647C98.0076 315.623 123.424 312.398 141.752 307.67C155.092 304.235 166.003 298.409 162.844 285.11ZM152.353 299.734C141.171 305.788 104.552 312.78 85.0908 305.494C80.2076 303.521 76.7244 301.436 75.5276 295.18C73.5228 285.375 76.5612 279.991 84.926 275.831C91.254 272.694 98.9324 271.335 98.8188 270.649C98.718 270.044 88.2988 270.723 80.7724 274.798C55.9644 257.177 38.2284 213.663 41.918 197.145C47.094 173.625 90.238 133.377 105.446 149.641C108.443 152.796 108.36 155.916 106.44 159.753C102.997 166.096 98.2172 171.615 92.43 175.927L93.6732 177.622C100.296 172.86 108.852 163.66 110.313 156.955C118.297 154.555 127.516 160.332 126.548 171.815C125.878 181.523 118.019 188.561 111.299 194.79L112.64 196.409C119.641 191.107 126.526 185.049 128.972 176.667C131.526 177.079 133.873 178.321 135.651 180.201C137.428 182.081 138.537 184.494 138.806 187.067C140.051 196.641 132.982 205.996 126.464 213.118C124.032 215.921 122.545 215.846 122.668 216.191C121.995 215.988 115.148 214.084 114.945 214.74C114.475 216.302 134.316 219.743 144.532 235.34C151.18 245.347 152.843 258.99 143.139 266.54C132.777 264.678 111.587 268.398 111.66 269.017C111.776 269.991 128.006 269.033 134.22 269.151C138.484 269.039 142.728 269.767 146.71 271.294C157.028 275.868 166.601 292.179 152.353 299.734Z" fill="#0F0F0F"/>
<path d="M50.4141 48.924C51.3706 51.3921 53.2539 53.3885 55.6621 54.4872C56.6856 54.4631 57.6688 54.0835 58.4429 53.4136C59.3579 52.2078 59.9375 50.7814 60.1229 49.2792C59.6657 46.2606 58.9089 43.295 57.8637 40.4264C60.4181 41.7468 62.5834 43.7113 64.1453 46.1256C69.5853 54.5608 69.7101 59.124 68.4189 64.7304C65.8813 75.7448 54.9789 82.3496 43.4909 79.892C34.6813 78.0072 29.1149 68.948 29.2157 65.98C31.0974 67.5444 33.3274 68.6337 35.7181 69.156C37.0231 69.6619 38.4189 69.8915 39.8171 69.8301C41.2154 69.7686 42.5857 69.4176 43.8413 68.7992C44.4611 68.5429 44.9947 68.1148 45.3794 67.5655C45.7641 67.0161 45.9838 66.3682 46.0128 65.6982C46.0417 65.0281 45.8785 64.3637 45.5426 63.7833C45.2067 63.2028 44.7119 62.7304 44.1165 62.4216C41.2061 60.4616 36.6413 61.5 34.8445 58.6648C34.3899 57.658 34.1956 56.553 34.2794 55.4515C34.3633 54.35 34.7227 53.2872 35.3245 52.3608C36.1677 50.9432 43.1645 44.7464 33.0285 39.4952L34.3533 38.7976C37.0525 39.324 40.0829 38.564 42.5341 39.8088C43.4677 40.3793 44.3557 41.0212 45.1901 41.7288C46.7501 42.5608 48.0477 43.8088 48.9437 45.3336C49.6589 46.4264 50.1565 47.644 50.4157 48.924H50.4141Z" fill="#FDFE1F"/>
<path d="M66.4012 48.2637C62.5612 42.0461 57.502 39.7405 57.3548 40.0381C57.0348 40.2237 60.1244 45.2781 59.2316 50.0941C58.6588 53.2445 56.1916 54.3709 54.4924 53.3373C51.3724 51.5021 50.758 45.0925 46.7612 41.6189C40.1532 35.6509 31.7948 39.1341 32.1548 39.8461C32.1548 40.0221 32.9884 40.0621 34.2348 40.6749C34.9457 41.0063 35.5798 41.4819 36.097 42.0715C36.6142 42.6611 37.0031 43.3518 37.239 44.0998C37.4749 44.8477 37.5527 45.6366 37.4674 46.4162C37.3822 47.1959 37.1357 47.9493 36.7436 48.6285C35.6236 50.6717 33.1724 52.6285 32.9612 55.6429C32.566 62.2813 40.3852 62.2541 42.1692 62.7981C47.8444 64.5277 45.31 70.1821 36.6556 68.7453C31.6684 67.9309 29.2492 65.4029 28.9516 65.7389C28.6972 65.7757 29.1244 71.3565 34.8988 76.3789C52.8028 91.8157 80.0556 70.9533 66.4028 48.2637H66.4012ZM68.1036 61.1901C67.7052 71.5197 57.5628 80.4333 47.4972 79.6445C43.5216 79.3777 39.7034 77.9882 36.4862 75.6374C33.269 73.2866 30.785 70.0711 29.3228 66.3645C34.302 72.0301 47.302 72.4781 47.2764 65.5133C47.2764 61.9693 43.2764 60.6733 39.7564 60.1005C35.158 59.3405 34.1564 56.3085 35.6732 53.6589C36.9964 51.1949 39.9084 48.7629 38.958 44.7357C38.6932 43.4482 38.0384 42.2735 37.0825 41.3712C36.1267 40.4689 34.9162 39.8828 33.6156 39.6925C35.4109 39.36 37.2542 39.3855 39.0396 39.7677C46.3084 41.3485 47.6956 46.3725 49.9068 50.9837C55.4748 62.1293 65.9484 52.1661 58.7324 41.4733C57.8252 40.1277 68.6412 48.8893 68.1084 61.1901H68.1036Z" fill="#0F0F0F"/>
<path d="M96.2349 36.555C97.3549 37.6174 97.0797 39.387 97.0205 40.6926C96.5133 51.9438 105.43 48.0814 105.352 41.9326C107.227 43.3454 107.313 45.8558 107.736 47.563C108.408 49.6106 108.609 51.7839 108.321 53.9198C107.404 56.8138 105.844 59.4628 103.758 61.6686C89.7181 75.515 72.8333 57.1886 76.7181 48.5166C77.9421 49.3166 78.3453 50.8878 79.1581 52.1006C81.3981 55.4318 88.2301 54.0046 88.0141 51.5774C87.8541 49.7374 85.1421 48.8702 83.9021 46.8142C83.3605 45.7614 83.1945 44.5552 83.4317 43.3952C83.6688 42.2352 84.2948 41.1909 85.2061 40.435C87.7661 38.2622 92.7485 37.3022 88.6269 31.795C90.2973 30.8286 94.9597 35.3406 96.2349 36.555Z" fill="#FDFE1F"/>
<path d="M108.91 49.5123C108.27 44.2195 105.316 40.7763 104.993 41.0499C104.615 41.1203 104.98 43.3955 103.747 45.3699C102.247 47.7699 98.0618 48.4099 98.0026 43.3811C97.8922 37.9411 98.1706 33.1139 89.9658 31.4643C88.4778 31.1443 88.137 31.3235 88.9354 33.1411C90.721 37.2163 86.401 37.2003 83.697 40.7043C82.9072 41.6117 82.4322 42.7502 82.3428 43.9499C82.2534 45.1495 82.5544 46.3459 83.201 47.3603C84.4154 49.0515 86.8298 50.0931 86.7706 51.4035C86.8938 54.2835 80.5594 54.7011 77.6234 48.8819C77.1978 48.0019 77.0362 47.4419 76.873 47.4627C76.7642 47.4083 76.1914 48.1779 75.9226 49.8355C74.4554 58.9315 84.9898 69.5635 96.2234 66.9395C100.13 66.1398 103.597 63.909 105.945 60.6849C108.292 57.4607 109.349 53.476 108.91 49.5123ZM84.777 62.9219C82.4768 61.5761 80.543 59.6851 79.1462 57.4154C77.7493 55.1458 76.9324 52.5674 76.7674 49.9075C76.7514 46.4099 76.2202 52.8723 81.9386 54.9491C85.9546 56.3491 88.7946 54.1619 88.905 51.4131C88.9338 48.0755 84.6474 47.2883 84.465 44.7699C83.9338 39.5251 93.817 38.4387 89.6682 32.7139C88.7562 31.5939 88.8058 31.7539 89.6682 32.2611C91.3514 33.2003 91.7146 33.2819 92.673 33.9091C98.2506 37.5011 94.273 43.2067 96.7194 47.1443C99.1338 51.2499 106.499 48.8131 105.596 42.5491C112.881 58.2243 96.8538 70.3763 84.777 62.9219Z" fill="#0F0F0F"/>
<path d="M43.0653 158.669C41.2269 155.789 38.9965 153.021 35.6685 152.237C38.6925 159.001 35.0669 161.857 32.7501 160.024C29.8573 157.734 28.7101 148.763 21.6861 149.416C20.3005 149.544 18.7597 149 17.2909 150.561C16.9869 150.881 17.2349 151.102 17.6589 151.221C20.7149 152.072 22.3885 156.096 20.0909 160.099C19.4781 161.166 18.6205 162.277 18.8653 163.483C19.4845 166.523 25.4029 165.998 26.8013 167.441C29.9661 170.713 22.2637 175.209 16.3533 171.04C16.2813 171.549 16.4093 172.064 16.7101 172.48C19.5629 177.469 26.6077 181.872 35.5901 178.702C44.6221 175.52 46.6589 164.32 43.0653 158.669Z" fill="#FDFE1F"/>
<path d="M46.0811 165.707C45.7419 154.905 35.3755 150.924 35.1067 151.745C34.8395 152.049 36.3163 153.24 36.1195 156.251C36.0283 157.584 35.2795 159.644 34.2427 159.745C32.8443 160.1 31.7067 157.382 31.1803 156.041C30.2203 153.608 29.4859 151.707 27.1803 150.182C25.8159 149.238 24.213 148.697 22.5555 148.623C20.8979 148.548 19.2529 148.942 17.8091 149.76C16.0395 150.904 16.9291 150.907 18.1739 151.657C19.0885 152.189 19.781 153.033 20.125 154.033C20.4691 155.034 20.4415 156.125 20.0475 157.107C19.4843 158.646 16.2731 160.958 18.2235 164.488C20.2763 168.436 25.8571 166.332 26.2235 168.953C26.4683 170.937 22.8635 173.465 17.3003 170.947C15.7307 170.204 15.0603 169.62 16.4811 172.678C17.7417 175.181 19.6572 177.296 22.0238 178.797C24.3904 180.298 27.1196 181.129 29.9211 181.203C38.0811 181.616 46.4923 174.4 46.0811 165.707ZM39.7675 175.243C33.5755 181.046 23.1163 181.003 16.7643 171.592C20.5691 174.763 25.8555 174.009 27.6939 171.144C28.1998 170.409 28.4104 169.51 28.2838 168.627C28.1572 167.744 27.7027 166.941 27.0107 166.377C24.4987 164.358 21.3611 165.788 20.1067 163.478C18.8267 161.091 21.0955 159.993 21.7595 157.688C22.0333 156.957 22.1396 156.175 22.0709 155.398C22.0021 154.621 21.7599 153.869 21.3621 153.198C20.9643 152.527 20.421 151.954 19.7723 151.521C19.1237 151.088 18.3861 150.806 17.6139 150.696C18.9988 150.172 20.4922 150 21.96 150.195C23.4277 150.391 24.824 150.947 26.0235 151.816C29.3227 154.286 29.0107 159.715 32.5051 161.451C35.1387 162.812 37.8875 160.161 37.6603 156.243C37.4507 152.985 35.3979 151.952 37.0523 153.059C44.7147 158.209 46.8107 168.819 39.7659 175.243H39.7675Z" fill="#0F0F0F"/>
<path d="M211.417 235.159C213.611 233.226 215.078 230.602 215.577 227.721C219.988 210.006 212.436 192.991 208.232 180.164C204.811 169.727 179.187 95.8346 177.14 91.1354C174.624 85.353 173.686 79.6234 169.419 74.5578C166.259 70.6528 161.853 67.9536 156.939 66.913C149.476 65.537 123.64 69.937 114.768 72.329C92.4107 78.3546 69.6315 79.4746 61.3547 84.233C58.5004 86.0528 56.0845 88.4821 54.2805 91.3464C52.4765 94.2107 51.3293 97.439 50.9211 100.799C49.6411 110.767 58.6283 133.748 59.6555 139.577C59.9227 141.091 59.6907 142.579 59.9755 144.089C61.5883 152.473 69.8107 164.203 69.8107 169.393C70.8827 173.073 71.3339 176.795 72.8299 180.323C72.7883 180.207 72.9579 180.108 73.0683 180.163C73.6859 180.457 74.9979 187.972 77.1947 192.233C83.5195 204.505 83.5691 207.958 86.6347 216.118C88.6395 221.465 91.2843 226.563 93.0987 231.977C94.4107 235.895 95.2859 239.977 96.9067 243.771C101.574 254.708 108.627 255.537 119.347 254.235C140.52 251.663 142.892 251.729 146.944 249.391C148.883 250.398 147.96 250.102 193.416 241.851C199.334 240.78 206.788 239.172 211.417 235.159Z" fill="#FFC5F6"/>
<path d="M192.729 184.096C189.369 175.051 195.796 189.216 178.098 143.536C174.325 133.795 163.05 99.216 160.37 93.96C159.683 92.808 159.23 91.532 159.036 90.2048C158.638 89.0359 157.95 87.9874 157.036 87.158C156.121 86.3286 155.011 85.7457 153.809 85.464C151.541 85.0738 149.214 85.199 147.001 85.8304C84.6982 98.7264 83.0006 96.5504 77.3894 104.254C74.0966 108.779 77.2054 107.957 98.4374 175.678C99.175 178.03 100.794 180.158 101.625 182.531C103.349 187.458 101.738 184.918 108.378 203.419C114.081 219.312 111.913 216.942 113.845 220.578C114.921 222.555 116.642 224.105 118.721 224.97C121.169 225.848 123.843 225.869 126.305 225.029C133.353 223.32 155.301 220.389 156.005 220.28C158.994 219.846 159.081 219.056 178.565 215.736C194.034 213.099 194.585 212.936 195.721 212.24C197.453 210.858 198.734 208.992 199.401 206.878C199.885 204 193.727 186.778 192.729 184.096Z" fill="#92FCFF"/>
<path d="M135.402 98.851C143.426 96.659 141.951 98.0366 146.744 97.1966C148.143 96.9518 148.824 95.7566 152.229 98.0094C155.728 100.312 159.706 118.825 165.232 131.702C166.28 134.144 166.626 136.558 167.506 139.062C172.016 151.909 174.29 155.382 173.864 158.291C173.093 163.571 167.304 163.376 162.719 164.731C154.941 167.032 146.664 167.336 138.943 169.825C138.546 169.875 138.146 169.899 137.746 169.897C136.786 170.057 124.901 173.326 113.927 175.088C107.015 176.198 104.704 164.033 102.304 155.462C101.424 152.313 90.2769 123.973 90.0513 120.697C89.8113 120.35 89.1361 120.728 89.3057 121.113C89.4753 121.499 90.2097 121.256 90.1153 120.845C89.1313 116.601 87.0417 114.187 89.1073 110.344C91.9873 104.99 97.5457 106.91 116.762 102.646C128.24 100.102 129.293 100.518 135.402 98.851Z" fill="#FDFE1F"/>
<path d="M173.212 172.213C174.557 173.973 178.884 171.305 182.343 181.965C192.228 212.425 191.425 199.849 129.933 214.525C126.698 215.297 124.141 215.344 121.746 211.936C119.909 209.325 117.223 200.121 116.119 196.467C111.015 179.557 123.177 183.827 137.485 179.723C137.562 179.701 168.98 172.976 173.212 172.213Z" fill="#FDFE1F"/>
<path d="M138.552 198.466C138.375 197.752 138.038 197.087 137.567 196.522C137.095 195.957 136.502 195.506 135.832 195.203C136.672 192.171 136.216 189.79 133.592 188.096C129.464 185.437 126.449 188.576 123.491 188.995C123.037 189.106 122.63 189.355 122.325 189.709C122.02 190.063 121.834 190.503 121.792 190.968C121.513 192.949 125.251 203.786 126.112 205.595C128.12 209.814 130.349 209.851 133.389 208.461C138.112 206.294 140.441 203.859 138.552 198.466Z" fill="white"/>
<path d="M153.105 193.12C153 193.086 153.073 193.317 153.169 193.259C153.265 193.201 153.245 193.059 153.211 192.952C151.488 187.534 151.27 186.619 150.523 185.496C148.789 182.891 145.896 183.305 145.291 185.131C144.592 187.254 147.721 191.605 148.952 194.833C150.222 198.166 148.71 199.793 147.693 199.725C145.99 199.597 143.517 193.723 142.993 190.36C142.731 188.67 142.629 186.51 140.977 185.483C140.607 185.255 140.187 185.119 139.753 185.086C139.32 185.053 138.884 185.123 138.483 185.292C138.082 185.46 137.727 185.722 137.447 186.055C137.168 186.389 136.971 186.784 136.875 187.208C136.744 187.776 136.798 188.369 137.029 188.904C138.933 193.243 139.147 200.825 143.229 203.944C144.167 204.625 145.262 205.06 146.412 205.207C147.562 205.355 148.731 205.21 149.811 204.787C150.891 204.365 151.848 203.679 152.593 202.79C153.339 201.901 153.848 200.839 154.075 199.702C154.398 197.46 154.061 195.173 153.105 193.12Z" fill="white"/>
<path d="M152.251 182.612C151.62 182.862 151.1 183.329 150.786 183.93C150.471 184.53 150.382 185.224 150.536 185.884C150.637 186.323 150.84 186.729 151.131 187.073C153.2 189.369 155.437 191.509 157.824 193.473C158.416 193.984 158.56 194.244 158.376 195.241C157.483 200.057 157.2 200.865 157.638 201.729C157.912 202.198 158.297 202.593 158.758 202.88C159.22 203.167 159.744 203.337 160.286 203.376C162.225 203.273 162.733 201.027 163.07 199.393C164.549 192.24 168.238 185.105 166.001 181.204C165.867 180.878 165.668 180.582 165.418 180.334C165.167 180.085 164.87 179.89 164.542 179.758C164.215 179.626 163.864 179.562 163.511 179.569C163.159 179.577 162.811 179.656 162.489 179.801C161.389 180.441 161.169 181.929 160.419 184.68C159.683 187.374 158.089 187.268 157.12 185.99C155.909 184.409 154.851 181.689 152.251 182.612Z" fill="white"/>
<path d="M106.21 171.147L87.3615 115.782C87.0595 114.828 86.9603 113.822 87.0704 112.827C87.1804 111.833 87.4973 110.872 88.0005 110.008C88.5038 109.143 89.1823 108.393 89.9926 107.806C90.8029 107.219 91.727 106.808 92.7055 106.6L146.958 95.9691C148.657 95.6124 150.428 95.8834 151.943 96.7317C153.457 97.5801 154.613 98.9484 155.197 100.584C176.184 160.34 175.526 157.174 173.522 160.743C171.33 164.656 172.597 163.606 114.544 176.011C112.798 176.391 110.973 176.102 109.43 175.201C107.887 174.3 106.738 172.854 106.21 171.147ZM89.4095 110.827C87.5999 113.924 88.2895 111.128 107.765 170.644C108.176 171.961 109.062 173.077 110.251 173.775C111.44 174.474 112.847 174.705 114.197 174.424L168.395 162.67C169.168 162.506 169.897 162.179 170.533 161.712C171.17 161.244 171.699 160.646 172.086 159.958C172.474 159.269 172.709 158.505 172.777 157.718C172.844 156.93 172.742 156.138 172.477 155.393C159.619 118.88 186.765 195.409 153.646 101.12C153.191 99.8594 152.296 98.806 151.126 98.1528C149.956 97.4997 148.59 97.2907 147.278 97.5643C89.4847 109.372 91.2015 107.753 89.4079 110.822L89.4095 110.827Z" fill="#0F0F0F"/>
<path d="M158.973 88.0956C157 86.1652 154.372 85.0508 151.613 84.9756C150.121 84.9276 154.061 83.8956 86.2575 97.3852C83.8962 97.6025 81.6366 98.4502 79.7151 99.8397C78.2685 100.967 77.1418 102.453 76.4469 104.15C75.7519 105.847 75.5129 107.697 75.7535 109.515C75.9775 111.26 112.419 219.872 112.885 220.715C114.069 223.119 116.125 224.982 118.635 225.923C122.123 227.24 124.371 226.441 128.235 225.742C183.595 215.71 205.889 210.592 152.029 219.884C121.104 225.22 122.329 225.448 119.277 224.27C115.622 222.862 114.56 220.27 113.71 217.71C78.2991 110.88 77.8895 111.097 77.6559 109.246C77.4644 107.764 77.6625 106.257 78.2307 104.874C78.7988 103.492 79.7174 102.281 80.8959 101.361C83.3567 99.4989 79.2111 100.705 145.245 87.9212C148.837 87.2268 152.27 86.1148 155.117 87.7148C158.449 89.59 157.281 88.3052 161.814 100.696C202.302 211.363 199.621 205.336 198.325 208.288C196.491 212.475 192.75 212.584 190.838 213.044C171.291 217.758 193.688 213.516 195.419 212.681C197.248 211.762 198.677 210.204 199.436 208.303C200.195 206.401 200.232 204.288 199.539 202.361C185.472 161.094 159.992 89.4588 158.973 88.0956Z" fill="#0F0F0F"/>
<path d="M127.455 215.729C125.717 215.728 124.025 215.165 122.634 214.122C121.243 213.08 120.227 211.615 119.738 209.947L114.225 192.723C113.879 191.656 113.762 190.529 113.88 189.414C113.999 188.3 114.351 187.222 114.914 186.253C115.477 185.283 116.237 184.443 117.146 183.787C118.055 183.131 119.092 182.673 120.189 182.444L171.985 171.958C173.924 171.584 175.932 171.925 177.639 172.919C179.345 173.913 180.633 175.492 181.265 177.363C184.233 185.878 182.969 181.859 187.569 195.212C187.93 196.26 188.064 197.372 187.962 198.475C187.861 199.578 187.526 200.647 186.98 201.611C186.435 202.575 185.691 203.413 184.798 204.068C183.905 204.723 182.883 205.181 181.799 205.411C175.751 206.696 129.071 215.729 127.455 215.729ZM173.575 173.44C172.628 173.44 176.166 172.849 120.513 184.051C119.639 184.234 118.814 184.6 118.092 185.125C117.369 185.649 116.766 186.32 116.321 187.094C115.875 187.867 115.597 188.725 115.505 189.612C115.412 190.5 115.508 191.397 115.786 192.244L121.298 209.468C121.758 211.025 122.787 212.351 124.181 213.183C125.574 214.015 127.23 214.292 128.818 213.958C181.66 203.441 172.262 205.771 181.458 203.817C182.316 203.636 183.124 203.274 183.831 202.755C184.537 202.237 185.126 201.574 185.556 200.811C185.988 200.049 186.254 199.203 186.334 198.331C186.414 197.458 186.308 196.578 186.022 195.75C181.41 182.364 182.697 186.44 179.721 177.905C179.288 176.614 178.464 175.49 177.362 174.689C176.261 173.889 174.937 173.452 173.575 173.44Z" fill="#0F0F0F"/>
<path d="M161.601 204.339C161.062 204.611 160.462 204.741 159.858 204.716C159.254 204.691 158.666 204.511 158.152 204.195C157.637 203.878 157.212 203.434 156.917 202.907C156.621 202.38 156.465 201.786 156.464 201.182C157.228 195.361 157.036 196.775 157.396 194.259C157.588 193.873 151.291 189.851 150.366 185.927C150.078 184.702 150.769 183.766 150.929 183.847C151.593 184.054 149.017 184.967 154.497 189.679C156.643 191.524 159.179 193.359 159.172 193.58C158.273 201.74 158.009 201.811 159.131 202.54C160.035 203.121 161.051 202.953 161.627 201.07C161.676 200.91 164.526 189.782 165.42 186.03C167.001 179.393 163.82 180.491 164.036 179.831C163.936 179.671 167.904 179.075 166.756 186.289C166.395 188.563 165.913 191.393 165.172 194.387C163.529 201.043 163.564 203.212 161.601 204.339Z" fill="#0F0F0F"/>
<path d="M160.579 181.548C161.497 179.243 163.952 179.32 163.905 179.816C163.918 180.08 162.728 180.192 162.145 181.507C161.665 182.593 162.579 180.091 160.969 186.054C160.889 186.352 160.747 186.631 160.552 186.871C160.357 187.111 160.115 187.308 159.839 187.448C159.564 187.589 159.262 187.67 158.954 187.687C158.645 187.703 158.336 187.655 158.048 187.545C157.661 187.397 157.325 187.144 157.075 186.814C154.107 183.572 154.214 183.262 153.369 183.083C152.137 182.822 151.289 183.852 151.03 183.686C150.721 183.494 151.552 181.776 153.457 181.726C154.787 181.692 155.537 182.568 156.497 183.523C159.748 186.702 158.462 186.867 160.579 181.548Z" fill="#0F0F0F"/>
<path d="M121.351 194.211C120.291 190.745 119.731 189.356 125.641 187.516C128.385 186.662 131.201 186.803 131.129 187.187C131.097 187.507 129.465 187.007 126.009 188.527C120.612 190.899 121.563 190.057 124.705 198.719C126.563 203.839 127.47 207.9 130.027 208.244C131.783 208.324 133.523 207.883 135.03 206.979C135.969 206.498 136.776 205.794 137.381 204.93C137.986 204.065 138.37 203.066 138.499 202.019C138.629 200.972 138.5 199.909 138.124 198.923C137.749 197.937 137.137 197.058 136.343 196.363C135.262 195.268 135.187 195.673 135.531 194.401C135.807 193.348 135.782 192.239 135.46 191.199C135.137 190.159 134.53 189.23 133.707 188.518C132.371 187.449 131.243 187.398 131.291 187.206C131.275 187.124 132.439 186.839 134.171 187.868C135.238 188.62 136.063 189.666 136.546 190.879C137.029 192.092 137.149 193.419 136.891 194.699C136.833 195.031 137.067 194.796 138.204 196.187C142.284 201.174 140.097 207.977 133.068 209.841C125.651 211.809 124.961 205.995 121.351 194.211Z" fill="#0F0F0F"/>
<path d="M147.74 198.944C148.96 197.984 145.652 189.683 144.931 187.765C143.39 183.665 148.995 182.95 146.995 184.173C144.68 185.411 146.494 187.785 147.566 190.232C148.782 193.006 151.137 198.209 149.065 200.336C143.523 204.976 141.756 186.859 141.537 186.456C141.163 185.768 140.707 185.477 140.784 185.347C140.867 185.096 142.18 185.621 142.601 186.809C143.116 188.561 146.102 200.227 147.74 198.944Z" fill="#0F0F0F"/>
<path d="M147.737 206.219C139.404 206.723 137.547 195.995 136.401 188.475C135.761 185.494 139.089 184.635 139.137 185.065C139.191 185.225 138.308 185.299 137.673 186.291C137.038 187.283 137.334 187.766 138.219 191.397C139.179 195.307 140.604 200.456 143.396 202.872C144.249 203.617 145.296 204.104 146.415 204.276C147.534 204.448 148.679 204.298 149.716 203.844C150.753 203.389 151.639 202.649 152.271 201.709C152.903 200.769 153.254 199.669 153.284 198.537C153.54 194.377 150.785 186.955 150.001 185.435C149.42 184.315 148.721 184.006 148.775 183.873C148.775 183.75 149.735 183.843 150.617 185.011C153.247 189.096 154.774 193.791 155.051 198.641C155.058 200.608 154.299 202.5 152.933 203.915C151.568 205.33 149.704 206.157 147.739 206.219H147.737Z" fill="#0F0F0F"/>
<path d="M131.318 193.001C131.161 192.637 130.899 192.327 130.566 192.111C130.233 191.895 129.844 191.782 129.447 191.787C129.05 191.792 128.664 191.915 128.337 192.14C128.01 192.364 127.756 192.681 127.609 193.049C127.193 192.729 126.809 192.659 126.73 192.805C126.556 193.059 127.118 193.741 127.53 194.67C127.969 195.589 128.121 196.457 128.426 196.489C128.586 196.52 128.762 196.213 128.806 195.733C130.62 195.651 131.641 194.312 131.318 193.001ZM130.004 194.281C129.665 194.643 129.249 194.926 128.788 195.109C128.691 194.461 128.404 193.856 127.964 193.371C130.204 192.064 130.71 193.393 130.004 194.283V194.281Z" fill="#0F0F0F"/>
<path d="M134.328 201.158C134.253 200.87 134.116 200.602 133.925 200.373C133.734 200.144 133.495 199.961 133.224 199.836C132.954 199.712 132.66 199.649 132.362 199.652C132.064 199.655 131.771 199.724 131.503 199.854C131.147 200.03 130.848 200.307 130.649 200.652C130.285 200.28 129.92 200.147 129.818 200.278C129.61 200.504 130.062 201.26 130.333 202.241C130.628 203.214 130.652 204.096 130.948 204.174C131.099 204.228 131.321 203.95 131.428 203.482C133.253 203.678 134.451 202.493 134.328 201.158ZM132.84 202.229C132.45 202.54 131.997 202.757 131.513 202.869C131.515 202.214 131.322 201.573 130.958 201.028C133.368 200.05 133.662 201.457 132.839 202.229H132.84Z" fill="#0F0F0F"/>
<path d="M218.765 211.577C217.219 195.432 205.262 169.443 180.024 94.7663C175.602 81.7119 172.328 73.8575 164.576 68.5583C155.202 62.1167 146.95 64.5215 75.1856 79.2607C68.0384 80.7263 62.9744 81.2655 56.9968 86.3871C54.3605 88.5354 52.3125 91.3178 51.0448 94.4735C48.4704 102.806 51.1968 115.642 53.3216 124.074C57.8832 141.904 88.4208 226.126 96.8592 247.142C98.2643 250.336 100.647 253.001 103.665 254.753C106.682 256.504 110.178 257.253 113.648 256.889C124.848 255.44 199.81 242.544 200.483 242.363C212.136 239.427 220.453 228.667 218.765 211.579V211.577ZM66.5248 84.7407C70.0096 82.3279 68.3904 83.0671 94.9504 77.6655C105.072 75.6095 149.416 65.4559 159.066 68.3311C163.352 70.4342 167.042 73.5787 169.798 77.4767C174.648 84.9647 180.13 104.79 183.592 114.397C206.142 177.938 223.163 220.869 213.08 223.746C193.899 227.63 138.053 237.851 118.822 240.531C107.654 242.131 106.202 234.299 103.71 227.685C98.2832 213.296 58.3616 110.202 60.6832 94.7615C60.8343 92.7578 61.4386 90.8147 62.4506 89.0787C63.4626 87.3428 64.8557 85.8595 66.5248 84.7407ZM186.666 241.499C107.466 255.23 110.61 255.4 105.182 252.261C99.8 249.206 99.0192 244.721 96.0528 237.016C52.1376 121.235 41.2928 94.8559 64.2928 84.5359C53.3392 93.7487 60.7728 111.378 77.3696 160.482C88.9552 193.893 104.515 235.003 106.064 237.16C107.439 239.259 109.405 240.904 111.714 241.887C114.022 242.87 116.57 243.149 119.037 242.686C134.438 240.483 214.275 225.003 214.437 224.971C209.616 240.099 196.578 239.712 186.666 241.499Z" fill="#0F0F0F"/>
<path d="M97.6418 135.508C98.8754 138.838 100.296 142.83 104.095 143.937C105.175 144.24 106.316 144.257 107.405 143.987C108.494 143.718 109.495 143.171 110.311 142.4C111.042 151.59 110.951 152.662 111.802 153.888C112.096 154.364 112.56 154.712 113.1 154.86C113.64 155.009 114.216 154.947 114.712 154.688C111.794 156.732 108.288 168.3 110.199 173.66C110.768 174.074 111.422 174.357 112.114 174.488C112.805 174.619 113.517 174.596 114.199 174.42C173.328 161.796 169.123 162.699 170.432 161.78C169.912 157.491 167.072 152.747 160.592 149.276C158.776 148.302 162.061 147.526 159.005 140.835C158.249 139.087 157.387 137.387 156.424 135.744C154.835 133.155 156.81 133.395 157.44 131.86C157.819 130.709 157.755 129.458 157.262 128.35C156.769 127.243 155.881 126.359 154.771 125.87C156.967 123.414 159.427 122.859 158.181 117.532C156.947 112.267 153.568 108.368 148.29 110.392C147.568 107.947 145.043 106.608 142.995 105.092C142.439 104.678 142.421 104.462 142.562 103.812C142.977 102.058 142.762 100.214 141.954 98.6029C140.923 98.8045 141.221 99.0477 140.941 97.6205C139.463 96.8205 138.555 97.6205 137.779 99.0061C133.847 106.012 137.023 101.032 135.587 97.4733C135.519 97.2382 135.402 97.0199 135.245 96.8324C135.087 96.645 134.892 96.4924 134.672 96.3846C134.453 96.2768 134.213 96.216 133.968 96.2062C133.723 96.1964 133.479 96.2378 133.251 96.3277C129.571 97.1085 128.754 100.808 119.067 107.732C113.184 111.939 103.485 114.974 104.971 125.164C100.527 124.232 95.1922 128.896 97.6418 135.508Z" fill="white"/>
<path d="M151.425 157.908C148.417 159.318 146.804 161.507 141.921 162.492C137.663 163.353 134.951 162.139 131.261 162.492C124.46 163.153 123.991 170.374 124.685 170.172C124.949 170.183 125.165 164.195 131.372 163.574C134.757 163.235 137.81 164.431 142.133 163.553C149.935 161.967 152.785 154.975 158.284 160.1C159.658 161.38 160.293 162.438 160.442 162.34C160.801 162.164 157.281 155.164 151.426 157.908H151.425Z" fill="#0F0F0F"/>
<path d="M160.696 148.502C161.673 143.528 159.232 138.123 156.331 134.016C157.068 133.576 157.668 132.938 158.062 132.175C158.457 131.413 158.63 130.555 158.562 129.699C158.495 128.842 158.189 128.022 157.68 127.331C157.171 126.639 156.479 126.104 155.681 125.785C163.132 121.305 156.776 105.974 148.896 109.769C147.891 108.23 146.644 106.864 145.201 105.724C142.937 103.98 143.294 105.142 143.35 102.862C143.5 96.6219 139.068 94.0811 136.489 100.334C136.486 99.4188 136.383 98.5068 136.182 97.6139C136.096 97.2071 135.921 96.8244 135.669 96.494C135.416 96.1635 135.093 95.8936 134.723 95.7039C134.353 95.5143 133.946 95.4096 133.53 95.3976C133.115 95.3857 132.702 95.4667 132.321 95.6347C130.072 96.4347 128.657 98.4043 126.95 99.9819C117.964 108.292 111.42 111.342 108.55 113.651C106.875 114.904 105.585 116.602 104.828 118.551C104.07 120.501 103.874 122.624 104.264 124.68C98.2572 124.16 92.1612 130.56 99.2652 141.072C102.536 145.836 107.321 145.956 109.665 143.6C109.995 146.361 110.167 149.139 110.179 151.92C110.204 152.782 110.544 153.605 111.136 154.232C111.728 154.86 112.529 155.249 113.388 155.324C113.91 155.347 113.524 155.052 112.108 157.51C108.492 163.643 109.376 170.059 109.868 170.024C110.595 169.972 109.748 161.489 116.307 154.616C116.857 161.324 123.558 161.862 125.153 153.028C126.182 155.042 127.958 156.573 130.102 157.294C132.245 158.014 134.586 157.867 136.622 156.884C145.731 161.987 157.537 157.524 160.302 149.958C166.284 152.275 169.192 159.532 169.592 159.427C170.585 159.232 167.448 150.56 160.697 148.502H160.696ZM154.355 125.249C152.74 124.7 152.982 124.833 152.928 124.318C155.948 122.625 156.099 116.507 151.977 116.244C151.177 116.244 151.624 116.612 150.942 114.324C151.153 114.153 151.402 114.035 151.667 113.979C151.933 113.924 152.208 113.932 152.47 114.004C152.95 114.108 153.204 114.288 153.248 114.23C153.44 114.054 151.952 113.009 150.748 113.713C150.428 112.69 150.005 111.701 149.486 110.763C156.107 108.708 160.688 121.56 154.355 125.249ZM152.809 123.409C152.545 121.638 151.992 118.854 151.624 117.081C154.806 117.059 154.848 121.531 152.809 123.409ZM149.142 113.659C150.232 116.379 151.34 121.624 152.502 124.558C149.361 123.187 151.017 121.928 148.886 120.51C149.139 117.84 147.286 113.982 146.228 112.324C148.74 112.47 148.001 110.782 149.142 113.659ZM106.281 119.36C108.265 113.868 113.022 114.08 124.4 104.444C129.721 99.9547 132.268 95.8811 134.171 96.9403C136.955 98.1099 133.977 111.459 135.931 104.707C136.672 102.1 135.758 102.947 137.995 99.5307C139.755 96.8811 142.008 97.8891 141.777 102.816C141.672 105.056 141.355 105.04 142.55 105.88C144.674 107.194 146.478 108.966 147.83 111.067C147.056 111.223 146.268 111.304 145.478 111.308C141.171 106.376 136.651 111.212 132.62 112.79C126.58 115.208 120.38 115.601 118.081 118.744C114.423 121.501 110.34 123.642 105.992 125.084C105.565 123.185 105.665 121.206 106.281 119.36ZM106.494 132C107.242 134.093 107.913 136.212 108.505 138.355C108.147 138.636 107.725 138.825 107.277 138.906C106.828 138.988 106.367 138.958 105.932 138.82C103.22 137.952 102.915 132.708 106.494 132ZM109.398 142.203C108.678 143.017 107.693 143.551 106.617 143.711C105.541 143.87 104.444 143.645 103.518 143.075C101.232 141.843 99.6892 138.976 98.422 135.955C95.822 129.59 100.12 125.593 104.491 125.848C105.892 131.993 107.158 130.108 103.785 130.473C100.008 130.833 100.329 134.745 100.76 134.566C100.974 134.584 99.9116 130.699 105.568 131.227C105.702 131.24 105.772 131.342 105.664 131.323C102.15 132.051 101.92 138.507 105.664 139.67C106.178 139.825 106.72 139.864 107.251 139.782C107.781 139.701 108.287 139.502 108.731 139.2C109.02 140.184 109.243 141.184 109.396 142.198V142.203H109.398ZM106.177 125.883C108.432 125.301 110.618 124.481 112.699 123.436C118.611 120.446 117.019 119.116 116.808 122.828C116.675 126.27 117.163 130.668 119.424 133.283C117.078 136.481 114.211 139.262 110.944 141.51C109.508 134.478 107.041 129.339 106.177 125.878V125.883ZM135.654 154.577C123.939 145.729 132.424 133.745 131.932 133.446C130.51 135.295 129.493 137.423 128.946 139.691C128.4 141.959 128.336 144.317 128.76 146.611C129.645 150.394 131.901 153.716 135.091 155.934C134.045 156.212 132.954 156.275 131.883 156.119C130.812 155.963 129.784 155.591 128.862 155.025C127.939 154.46 127.141 153.713 126.515 152.83C125.89 151.947 125.451 150.946 125.224 149.888C124.806 147.689 124.638 150.961 124.008 152.918C123.508 154.409 122.289 157.34 120.832 157.918C119.267 158.542 118.172 156.694 117.931 154.99C117.131 149.854 117.844 153.07 118.777 148.203C118.992 146.966 118.923 146.267 118.82 146.256C118.718 146.246 118.553 146.907 118.161 148.048C117.73 149.51 117.032 150.881 116.104 152.091V152.128C114.064 154.881 111.899 154.321 111.654 151.718C111.766 148.584 111.58 145.446 111.097 142.348C114.747 140.343 117.821 137.434 120.024 133.9C121.048 134.872 122.361 135.476 123.764 135.62C126.03 135.764 127.204 134.18 128.71 132.82C129.201 132.364 129.729 131.94 130.196 131.432C130.313 131.835 130.521 132.206 130.803 132.516C131.085 132.827 131.435 133.069 131.825 133.224C134.588 134.209 137.076 132.307 138.36 132.009C140.316 131.558 141.388 133.582 141.606 133.403C141.413 132.672 140.961 132.037 140.334 131.615C139.708 131.193 138.949 131.014 138.2 131.11C136.772 131.283 134.276 132.838 132.358 131.976C131.942 131.701 131.644 131.281 131.522 130.797C131.401 130.314 131.466 129.802 131.704 129.364C132.556 127.02 136.232 125.5 138.489 124.192C141.307 122.56 144.064 121.188 146.692 121.384C147.992 121.395 148.796 122.014 148.932 123.012C149.262 125.452 146.808 126.566 145.785 127.504C145.484 127.741 145.243 128.046 145.082 128.395C144.921 128.743 144.845 129.124 144.86 129.508C144.875 129.891 144.98 130.266 145.167 130.601C145.355 130.935 145.618 131.221 145.937 131.435C146.081 131.371 145.617 130.756 145.505 129.697C145.336 127.609 149.758 127.638 150.254 123.747C151.812 126.612 158.459 126.467 156.918 130.99C155.753 134.4 135.988 140.884 133.958 149.016C133.724 149.947 133.638 149.896 134.235 149.088C137.262 144.992 134.5 148.044 140.761 151.345C149.441 155.905 159.068 149.281 153.529 140.009C154.029 139.608 154.419 139.087 154.662 138.494C154.905 137.902 154.995 137.257 154.921 136.62C154.878 134.732 154.48 135.23 155.148 134.82C168.08 153.876 147.251 162.275 135.654 154.577ZM152.528 148.465C150.113 151.558 145.808 151.806 142.172 150.353C144.195 147.132 151.124 146.249 152.528 148.465ZM142.315 141.995C144.345 140.715 146.036 139.787 148.142 138.673C149.102 140.056 147.878 142.332 146.472 142.9C145.763 143.152 144.999 143.201 144.264 143.041C143.529 142.881 142.854 142.519 142.315 141.995ZM149.094 138.171C150.756 137.296 152.419 136.424 154.054 135.473C154.542 140.065 151.123 140.932 149.094 138.171ZM137.396 147.07C137.147 146.806 136.909 146.532 136.683 146.248C138.104 144.903 139.652 143.699 141.304 142.651C141.656 143.213 141.817 143.874 141.763 144.536C141.708 145.197 141.441 145.823 141.002 146.321C140.562 146.818 139.973 147.159 139.324 147.295C138.674 147.43 137.998 147.351 137.396 147.07Z" fill="#0F0F0F"/>
<path d="M153.423 30.0801C165.887 36.9601 168.243 42.2401 165.423 56.6241C164.219 62.4683 161.603 67.9287 157.802 72.5281C154.001 77.1274 149.131 80.7256 143.618 83.0081C141.834 83.842 139.901 84.3066 137.933 84.374C135.965 84.4414 134.005 84.1101 132.168 83.4001C113.077 77.5521 110.747 67.8241 116.706 50.5281C121.096 37.7969 134.301 28.5921 141.123 28.0081C145.309 28.0225 149.464 28.7217 153.424 30.0801H153.423Z" fill="#92FCFF"/>
<path d="M167.857 44.2111C164.436 32.5727 146.638 18.0831 128.393 32.5823C116.001 42.6223 105.79 67.4031 117.921 77.4127C122.369 80.9871 132.841 86.0015 137.63 85.9567C154.97 85.8655 171.21 58.9663 167.857 44.2111ZM165.513 47.2335C163.188 45.9759 162.03 45.5183 161.866 45.3551C160.284 44.4239 158.346 43.1487 156.994 42.5151C157.11 40.4253 156.801 38.3338 156.086 36.3668C155.371 34.3998 154.265 32.598 152.834 31.0703C158.73 33.9839 165.601 40.7807 165.513 47.2335ZM117.281 73.4799C112.414 65.7423 115.098 54.8143 119.102 47.0479C126.514 32.6655 141.574 25.0623 150.063 30.5423C167.29 41.4735 138.103 96.5055 117.281 73.4799ZM127.5 80.2383C131.379 80.4816 135.231 79.4457 138.465 77.2895C140.616 78.7372 142.845 80.0672 145.14 81.2735C138.356 84.6127 134.401 83.4399 127.503 80.2383H127.5ZM147.316 80.0783C143.588 79.4159 142.588 79.1839 140.175 76.0495C142.709 73.9652 144.972 71.5728 146.913 68.9279C151.041 71.0431 149.076 68.9359 154.846 73.5871C152.677 76.1143 150.139 78.3005 147.319 80.0719L147.316 80.0783ZM156.161 71.9999C149.268 68.9359 153.37 71.0303 148.161 67.1791C150.411 63.8978 152.306 60.3869 153.815 56.7055C160.065 59.6991 157.055 57.7695 162.194 61.8655C160.619 65.4843 158.592 68.8894 156.162 71.9999H156.161ZM162.97 59.9999C156.25 56.9807 158.529 57.5375 154.598 54.7039C155.806 51.4653 156.581 48.0814 156.903 44.6399C161.326 45.7359 162.114 46.3167 165.457 49.5663C165.135 53.1461 164.297 56.6605 162.967 59.9999H162.97Z" fill="#0F0F0F"/>
<path d="M146.614 60.2818C137.282 76.4642 124.664 76.7362 120.387 70.8802C114.389 62.677 122.787 46.429 123.474 46.8226C123.634 46.9154 115.758 62.4866 121.464 70.0578C124.134 73.6002 131.202 74.6242 138.331 68.1506C149.552 57.9698 155.842 36.0258 142.722 33.9346C137.066 33.0322 133.227 35.8338 129.696 39.245C127.484 41.5494 125.445 44.0143 123.597 46.6194C124.868 43.619 126.716 40.8976 129.037 38.6098C142.936 24.0146 160.411 36.357 146.614 60.2818Z" fill="#0F0F0F"/>
<path d="M143.554 41.9198C144.924 40.3198 144.863 38.4814 144.455 38.4158C144.077 38.3534 143.58 39.387 142.876 40.5374C142.372 41.3646 142.962 41.0942 140.53 39.7374C142.754 36.5966 141.32 35.643 139.33 39.1246C138.239 38.6206 138.039 38.6606 137.552 38.3694C136.112 40.6654 133.613 46.0494 131.173 49.9854C131.013 50.1454 125.148 58.9614 124.056 61.323C125.956 62.227 125.68 61.9022 125.359 62.5262C124.418 64.3502 124.613 66.9198 126.572 63.1502C126.892 62.5262 126.695 62.5998 127.333 62.9502C129.413 64.0894 129.445 63.5262 129.149 64.051C127.116 67.763 129.128 66.9214 130.34 64.715C130.76 63.9646 130.5 64.0974 130.991 64.1422C137.612 64.8046 140.572 57.1454 138.178 52.2702C137.733 51.4254 137.57 51.643 138.296 51.595C143.864 51.163 147.173 45.7934 143.554 41.9198ZM127.592 60.0094C128.861 56.8264 130.361 53.7408 132.08 50.7774C133.744 51.2254 135.266 52.0974 136.493 53.3086C139.668 57.5838 135.693 66.6366 127.592 60.0094ZM138.303 49.6206C136.742 49.3622 135.224 48.8917 133.791 48.2222C135.439 45.8702 137.276 43.4814 138.607 41.6382C140.516 42.259 142.863 43.003 143.551 44.8382C144.524 47.2782 141.951 50.1022 138.303 49.6222V49.6206Z" fill="#0F0F0F"/>
<path d="M61.1636 145.28C84.8436 138.824 66.9235 83.7313 41.3987 91.4609C35.9534 93.516 31.0731 96.8335 27.1587 101.141C22.7283 106.438 22.6787 110.728 23.5507 116.117C24.8105 124.106 27.7326 131.742 32.1283 138.531C34.9843 142.432 42.1571 149.611 48.2723 150.064C54.8723 150.56 62.5219 143.896 61.1636 145.28Z" fill="#92FCFF"/>
<path d="M61.6918 127.762C66.2838 123.005 60.759 115.362 55.3494 115.133C58.623 110.222 55.3062 104.733 50.503 105.187C49.9238 103.189 48.3942 102.232 48.103 102.526C47.8118 102.821 48.4374 103.877 49.1878 105.45C46.7318 106.158 47.2294 106.446 46.9638 105.843C45.5478 102.643 44.3158 103.594 45.9014 106.784C45.0038 107.264 44.671 107.643 44.3494 107.797C44.3494 107.814 48.767 115.728 50.4294 119.278C56.8454 132.976 55.2294 131.598 57.2662 130.374C58.2726 132.736 61.0326 134.162 58.479 129.83C59.2466 129.528 59.9751 129.134 60.6486 128.658C62.7222 132.888 63.3782 130.437 61.6918 127.762ZM50.4278 116.179C49.4054 113.59 48.4582 110.832 47.6742 108.752C48.4982 108.162 49.3702 107.643 50.2806 107.2C50.8763 106.906 51.5436 106.788 52.2041 106.86C52.8646 106.932 53.4907 107.191 54.0089 107.607C54.5272 108.023 54.916 108.578 55.1296 109.207C55.3433 109.836 55.3729 110.513 55.215 111.158C54.7222 113.76 52.3974 114.934 50.4278 116.179ZM56.7494 127.642C54.8305 124.88 53.1114 121.984 51.6054 118.978C52.8634 117.989 54.3722 117.371 55.9622 117.194C61.3622 117.36 66.1366 125.502 56.7494 127.642Z" fill="#0F0F0F"/>
<path d="M41.6186 122.04C31.0026 97.3618 50.3114 84.4306 62.4586 107.931C63.1962 109.15 63.7362 110.478 64.0586 111.866C63.9402 111.919 63.3114 110.546 61.9034 108.242C52.0522 92.1122 41.2634 95.0098 40.2858 106.253C39.3114 117.424 49.0954 138.746 60.0394 137.034C64.0842 136.394 65.6794 132.347 66.3114 128.33C67.8154 118.786 63.921 113.29 64.561 113.042C65.2826 114.267 65.8634 115.57 66.2922 116.925C73.6154 139.783 53.3274 149.259 41.6186 122.04Z" fill="#0F0F0F"/>
<path d="M73.1934 122.191C70.7294 103.728 57.6734 85.2306 40.5838 90.3282C34.427 92.1682 24.6462 99.0418 22.675 105.16C17.0318 121.76 38.091 160.095 57.3214 149.171C66.3774 144.168 75.715 141.778 73.1934 122.191ZM36.2206 95.0754C40.0718 92.9186 33.835 95.3266 33.5006 106.595C32.883 106.939 34.1774 106.115 24.1246 112.904C23.8414 106.672 25.3022 101.373 36.2206 95.0754ZM24.3214 115.259C27.7982 111.391 28.7678 110.619 33.499 108.859C33.6014 112.415 34.1326 115.943 35.083 119.37C33.8206 120.159 32.0958 121.551 30.667 122.583C30.507 122.583 26.8798 125.002 26.7198 125.112C25.5551 121.928 24.7507 118.623 24.3214 115.259ZM33.9582 138.856C31.3129 135.223 29.1328 131.274 27.4686 127.099C30.5758 123.511 31.1886 122.939 35.6718 121.339C36.9014 125.211 38.6893 128.882 40.979 132.237C37.9646 136.173 38.771 136.453 33.9502 138.856H33.9582ZM35.1678 140.371C36.8558 138.829 38.131 137.317 38.2926 137.317C39.5854 136.221 41.3454 134.952 42.2926 134.01C44.6098 137.015 47.5078 139.524 50.8142 141.387C47.7182 145.547 47.643 145.418 43.1902 147.061C40.1314 145.334 37.4107 143.068 35.1598 140.371H35.1678ZM56.1966 147.147C54.5878 148.104 52.7829 148.683 50.9179 148.84C49.0529 148.997 47.1765 148.729 45.4302 148.056C46.3342 147.359 47.339 146.501 48.2078 145.816C53.3598 142.197 52.8958 142.559 52.539 142.247C62.1038 146.536 66.5102 140.853 56.1886 147.147H56.1966ZM54.6494 141.506C35.6414 134.56 28.915 100.296 41.1582 92.9282C70.2094 84.3826 84.0238 153.319 54.6414 141.506H54.6494Z" fill="#0F0F0F"/>
<path d="M262.69 195.659C271.217 187.121 274.735 179.993 268.874 170.342C265.377 164.582 262.265 158.293 256.234 155.289C247.765 151.073 237.548 146.862 229.077 152.435C225.225 154.968 212.501 169.011 217.668 179.038C220.809 185.137 224.004 190.736 228.988 195.449C235.597 201.699 244.188 205.349 253.148 204.249C259.927 203.408 260.338 198.013 262.69 195.659Z" fill="#92FCFF"/>
<path d="M259.494 179.2C258.901 178.701 258.974 178.968 259.142 178.464C261.093 172.855 254.342 168.645 249.203 169.427C248.168 169.611 248.339 169.877 248.451 169.119C249.145 164.09 244.467 160.187 240.099 162.386C238.819 160.786 237.029 160.466 236.88 160.851C236.733 161.205 237.629 161.906 238.613 162.792C239.216 163.331 239.065 162.792 237.349 164.509C234.742 161.807 233.584 163.039 236.451 165.509C235.837 166.283 235.585 166.827 235.416 167.016C237.352 168.813 242.061 172.165 245.392 175.216C245.701 175.376 252.301 182.234 254.91 184.128C256.121 182.496 255.71 182.703 256.35 183.2C258.048 184.538 260.379 184.653 257.192 182.13C256.766 181.795 256.768 181.941 257.126 181.579C258.707 179.989 258.129 179.837 258.616 180.243C261.742 182.831 261.441 180.819 259.494 179.2ZM240.659 164.32C243.648 161.347 248.062 164.677 246.52 168.691C245.948 170.033 245.167 171.275 244.205 172.371C242.285 170.395 240.365 168.235 238.857 166.631C239.39 165.81 239.992 165.037 240.659 164.32ZM254.401 180.48C251.585 178.678 248.9 176.68 246.366 174.499C247.156 173.153 248.311 172.06 249.699 171.346C254.763 169.565 262.241 175.2 254.401 180.48Z" fill="#0F0F0F"/>
<path d="M272.641 177.194C267.896 154.026 236.001 136.864 220.849 158.602C209.572 174.629 216.267 183.243 229.649 197.139C232.414 199.758 235.661 201.816 239.209 203.2C243.999 205.085 249.129 205.95 254.272 205.742C259.302 205.174 261.152 201.298 266.379 194.062C270.721 188 274.1 184.346 272.641 177.194ZM268.112 172.253C271.672 180.026 270.643 183.453 267.193 188.477C254.593 204.331 229.224 182.907 224.844 169.088C217.787 146.298 254.905 143.309 268.104 172.253H268.112ZM223.396 159.293C222.179 163.442 222.488 167.89 224.267 171.832C221.918 177.2 222.577 176.288 218.827 180.083C215.548 172.722 218.528 165.704 223.388 159.291H223.396V159.293ZM219.844 182.118C220.499 181.075 222.161 177.859 222.624 177.395C223.435 176.331 224.524 175.115 225.332 174.078C226.853 176.869 228.704 179.466 230.844 181.814C228.764 184.952 230.577 184.194 225.244 189.826C223.208 187.429 221.399 184.849 219.841 182.117L219.844 182.118ZM226.588 191.408C226.848 190.947 228.569 187.52 228.955 187.136C229.945 185.79 231.499 184.371 232.34 183.411C234.912 186.022 237.74 188.369 240.78 190.414C239.036 195.152 239.072 195.083 235.118 198.845C231.94 196.775 229.066 194.271 226.58 191.406L226.588 191.408ZM236.952 199.862C238.26 197.888 239.382 195.542 239.544 195.542C240.456 194.23 241.705 192.693 242.492 191.515C245.375 193.444 248.614 194.776 252.019 195.434C250.153 199.778 250.76 198.856 247.409 203.074C243.768 202.583 240.233 201.497 236.944 199.861L236.952 199.862ZM261.067 197.142C256.849 203.077 256.296 203.894 249.436 203.306C251.656 197.982 251.534 199.549 254.252 195.69C263.417 196.19 266.561 189.357 261.059 197.136L261.067 197.142Z" fill="#0F0F0F"/>
<path d="M237.601 182.043C225.215 171.441 224.724 157.403 233.105 154.87C244.331 150.649 256.305 161.622 256.004 161.961C255.703 162.301 244.187 151.902 233.582 156.139C224.684 158.795 228.19 177.051 247.74 187.149C260.031 193.496 273.34 184.864 259.702 166.251C258.041 163.985 256.878 162.915 256.969 162.817C257.484 162.177 269.996 175.457 265.694 185.013C264.455 187.214 262.515 188.938 260.183 189.91C251.959 192.8 244.396 187.862 237.601 182.043Z" fill="#0F0F0F"/>
<path d="M270.391 17.8592C247.671 29.8752 227.415 22.8608 220.311 8.77441C221.007 16.4232 218.733 24.0465 213.96 30.0639C209.188 36.0813 202.282 40.0311 194.676 41.0944C190.287 41.7936 181.556 41.4912 178.94 39.584C173.223 35.4096 174.474 35.8 174.78 38.112C174.863 38.744 174.692 37.4496 174.828 43.552C175.013 51.9136 175.316 53.6016 174.716 59.808C173.605 71.2656 170.53 74.424 166.984 79.84C162.546 86.624 158.776 90.448 145.212 94.024C148.928 95.8544 153.783 95.5376 156.514 98.856C166.348 110.797 170.815 112.709 170.778 130.91C170.778 132.766 170.559 134.626 170.543 136.464C170.679 138.416 170.623 140.374 170.372 142.314C170.042 143.914 169.412 145.406 169.119 146.995C167.981 153.206 164.159 154.374 174.32 148.899C176.021 147.982 180.4 148.171 179.164 148.072C184.54 146.536 190.285 146.936 195.396 149.205C197.346 149.868 199.057 151.093 200.314 152.725C206.394 158.901 204.165 155.765 206.789 160.426C207.439 161.642 208.218 162.784 209.109 163.835C210.368 157.955 211.93 154.853 217.589 150.371C228.557 141.696 237.983 142.867 239.143 141.558C243.274 140.24 248.839 142.733 253.293 143.238C254.453 143.27 255.586 143.594 256.586 144.182C260.804 146.312 262.378 147.074 263.786 147.942C267.743 150.376 265.386 150.426 266.32 145.752C270.632 124.301 297.439 120.53 297.917 120.312C300.82 119.032 306.312 122.779 301.288 118.194C292.407 110.085 293.368 90.5936 295.613 78.9504C296.226 75.7712 295.8 76.5344 296.244 75.3824C297.397 72.5627 298.704 69.8082 300.159 67.1312C300.159 66.0112 294.008 65.6912 290.642 63.8048C289.941 63.3534 289.217 62.9375 288.474 62.5584C287.583 62.1712 286.605 62.0352 285.682 61.736C282.735 60.784 281.253 58.4672 279.095 56.4928C278.142 55.7592 277.24 54.9611 276.396 54.104C259.949 34.664 270.76 23.496 270.645 18.2544C270.384 18.4 270.66 17.7168 270.391 17.8592Z" fill="#FDFE1F"/>
<path d="M303.873 120.268C294.406 110.486 293.935 87.3725 297.5 74.5965C300.606 63.0956 303.9 68.7948 291.204 63.2972C274.258 55.8732 267.175 41.4972 269.146 27.1756C270.746 15.3196 275.492 16.5836 263.15 20.2316C228.548 30.2284 221.727 7.32764 220.239 7.99964C219.554 8.03164 220.434 17.5036 214.458 27.3276C210.732 33.3756 205.166 38.4108 193.732 40.4092C180.863 42.5372 175.156 35.342 174.505 36.2716C173.054 36.3676 176.868 57.1868 170.505 72.5181C162.025 92.3308 143.228 93.398 143.278 94.1884C143.118 95.0237 153.678 95.4588 161.51 105.356C169.404 115.209 171.254 130.124 169.19 142.552C167.5 152.896 165.105 154.2 168.898 152.276C181.633 145.876 191.972 148.056 201.036 154.868C207.102 160.017 208.681 165.168 209.38 164.9C210.07 164.889 209.345 160.609 213.03 155.764C217.99 148.816 232.262 142.116 246.55 142.955C260.084 143.827 265.402 150.561 266.07 149.752C266.54 149.752 266.535 147.192 268.31 142.366C271.761 133.683 280.345 126.862 288.598 123.806C291.156 122.792 293.812 122.041 296.522 121.566C302.738 120.497 305.21 121.649 303.873 120.27V120.268ZM296.289 119.654C292.25 119.683 284.887 121.678 278.161 126.337C269.302 132.331 265.156 141.932 265.69 147.606C265.839 151.502 267.057 147.832 257.804 143.387C238.193 134.123 209.302 146.971 209.004 162.084C208.95 163.737 209.458 162.424 206.546 157.772C195.042 142.14 176.694 144.11 168.306 151.393C166.706 152.796 169.057 151.273 171.073 142.931C175.414 125.12 169.494 103.251 153.935 96.4188C144.886 92.1981 144.802 96.2956 154.191 92.3868C166.169 87.3148 175.007 76.31 176.33 59.1068C176.757 51.6353 176.235 44.1397 174.775 36.7996C184.098 48.2908 215.324 45.3132 220.407 18.134C220.858 15.5468 221.012 12.9164 220.862 10.294C222.369 13.6318 224.594 16.5952 227.38 18.9724C228.673 20.128 230.121 21.0984 231.681 21.8556C243.897 28.598 262.161 24.7612 270.574 18.5292C263.62 28.3116 264.804 49.0604 280.782 60.1788C288.09 65.2796 297.134 67.2796 299.951 66.8348C290.748 74.1948 289.266 110.702 302.031 119.851C302.927 120.515 301.514 119.3 296.289 119.654Z" fill="#0F0F0F"/>
<path d="M207.807 73.7355C203.345 68.4555 198.154 61.3099 193.567 59.9483C191.572 59.1817 189.395 59.0214 187.309 59.4875C182.103 61.3307 179.857 67.3755 178.729 72.7835C177.449 78.9595 174.973 97.4875 178.026 102.94C178.84 104.393 180.091 105.552 181.6 106.252C183.11 106.953 184.803 107.16 186.437 106.844C187.522 106.634 188.551 106.198 189.457 105.567C190.364 104.935 191.128 104.12 191.701 103.176C192.273 102.23 192.641 101.175 192.781 100.08C192.922 98.9838 192.831 97.8707 192.514 96.8123C192.199 95.7532 191.665 94.772 190.946 93.9323C193.709 94.4 196.545 93.7752 198.855 92.1899C199.852 93.9006 201.062 95.478 202.457 96.8843C205.436 99.8875 207.466 99.7403 210.625 97.7835C213.589 95.9483 214.994 94.4443 215.236 90.8715C215.681 84.4955 211.935 78.6107 207.807 73.7355ZM194.401 79.6443C193.441 81.0203 194.081 83.1339 189.839 82.1675C189.652 82.1129 189.487 81.9998 189.369 81.8449C189.251 81.6901 189.186 81.5014 189.183 81.3067C189.159 79.4667 188.703 76.8875 190.415 76.6043C192.127 76.3211 193.165 77.4475 194.255 78.5627C194.393 78.7028 194.482 78.8841 194.509 79.0792C194.535 79.2743 194.497 79.4727 194.401 79.6443Z" fill="white"/>
<path d="M208.105 51.4907C196.585 58.2363 209.921 80.5547 219.098 88.0635C221.866 90.3291 223.686 90.7147 226.778 89.3579C228.556 88.7015 230.019 87.3953 230.872 85.7028C231.725 84.0103 231.904 82.0574 231.374 80.2379C230.722 77.6942 229.66 75.274 228.228 73.0731C245.89 60.6235 234.343 36.1339 208.105 51.4907ZM223.99 60.5035C223.497 62.0315 220.31 63.3499 219.425 63.5099C219.065 63.5446 218.706 63.4482 218.412 63.2386C218.117 63.029 217.909 62.7202 217.825 62.3691C217.461 62.0029 217.061 61.6733 216.633 61.3851C216.433 61.2637 216.289 61.0696 216.229 60.8437C216.17 60.6179 216.2 60.3778 216.314 60.1739C216.391 60.0391 216.5 59.9261 216.633 59.8459C218.284 59.0459 219.807 57.5947 221.788 57.9867C222.956 58.2203 224.444 59.0939 223.99 60.5035Z" fill="white"/>
<path d="M234.866 48.3596C235.026 49.9292 235.125 49.9164 241.49 66.2988C247.261 81.1516 251.491 80.7948 258.709 79.6076C260.254 79.528 261.724 78.9164 262.869 77.8764C264.827 77.9843 266.75 77.3248 268.23 76.038C276.25 69.7308 272.12 61.958 264.71 63.0076C261.942 63.5995 259.325 64.7552 257.022 66.4028C256.584 65.3341 256.064 64.3007 255.467 63.3116C257.291 62.39 259.266 61.8108 261.158 61.0396C270.837 57.0924 268.81 49.078 262.136 48.4268C257.098 47.934 251.488 51.2748 249.547 52.238L248.235 49.038C269.31 44.702 258.155 27.67 240.251 36.5132C240.322 36.35 234.346 43.166 234.866 48.3596Z" fill="white"/>
<path d="M184.435 120.48C189.155 119.03 200.638 118.769 196.709 125.221C193.229 130.934 185.057 135.721 180.28 132.281C175.502 128.841 179.563 121.977 184.435 120.48Z" fill="white"/>
<path d="M213.536 113.392C212.623 111.61 211.432 109.985 210.008 108.579C208.831 106.931 207.443 105.445 205.878 104.16C202.766 102.009 198.998 102.976 198.534 107.062C197.788 113.589 204.92 136.905 207.352 139.734C208.512 140.811 209.965 141.521 211.527 141.773C213.09 142.025 214.693 141.809 216.132 141.152C217.611 140.44 218.826 139.278 219.605 137.834C220.383 136.39 220.686 134.736 220.468 133.11C220.228 131.577 214.416 115.59 213.536 113.392Z" fill="white"/>
<path d="M249.566 124.777C242.982 127.486 240.636 124.009 235.121 121.777C235.558 124.825 238.603 126.172 236.336 129.768C233.235 134.684 228.572 135.297 224.512 132.756C219.441 129.585 217.952 123.104 216.22 118.036C215.009 114.489 213.484 110.961 213.34 107.216C213.02 98.6972 219.873 94.3116 229.07 99.6748C229.508 97.9036 229.204 96.0268 229.52 94.2348C229.718 93.1188 230.152 92.058 230.793 91.1227C231.434 90.1875 232.266 89.3994 233.235 88.8108C234.203 88.2221 235.286 87.847 236.412 87.7104C237.537 87.5738 238.678 87.679 239.76 88.0188C244.328 89.4588 246.398 94.2156 248.518 98.062C253.345 106.816 258.824 120.974 249.566 124.777Z" fill="white"/>
<path d="M274.784 90.5021C275.9 89.3137 276.558 87.7676 276.641 86.1393C276.723 84.5109 276.225 82.9062 275.235 81.6109C268.651 71.4317 251.198 83.2285 251.395 98.6845C251.384 102.673 252.529 106.579 254.691 109.931C256.853 113.283 259.939 115.937 263.577 117.572C273.804 121.779 289.108 111.475 286.726 100.12C286.345 98.2006 285.393 96.4417 283.993 95.0746C282.594 93.7074 280.813 92.7961 278.886 92.4605C275.95 92.1005 273.758 93.5341 271.107 94.2749C271.492 92.8509 273.841 91.6797 274.784 90.5021Z" fill="white"/>
<path d="M198.225 121.977C197.537 116.537 180.326 117.731 177.555 125.321C175.493 130.907 180.813 136.46 188.656 133.374C193.281 131.572 199.211 126.788 198.225 121.977ZM181.881 131.016C178.384 129.156 178.598 123.524 187.47 121.478C189.606 120.984 196.251 120.11 196.497 122.26C197.057 127.152 186.521 133.46 181.881 131.016Z" fill="#0F0F0F"/>
<path d="M216.406 88.7343C215.657 81.2015 205.963 68.3679 201.262 63.9151C191.576 54.9247 181.862 57.5599 178.382 67.8975C176.68 74.4538 175.623 81.161 175.227 87.9231C174.907 93.8271 174.734 101.853 178.84 106.137C184.504 111.931 195.969 107.013 192.843 95.7039C194.902 95.4506 196.856 94.6513 198.502 93.3887C203.059 105.849 217.592 98.9487 216.406 88.7343ZM213.539 92.6639C211.381 98.4719 203.347 101.248 199.939 92.1231C202.409 89.6287 204.057 85.7935 203.427 85.4191C202.078 84.6191 198.947 93.1199 189.422 93.6719C187.662 93.7791 186.485 93.6495 186.349 94.0271C186.23 94.3471 187.246 95.1759 189.272 95.5919C189.847 95.7099 190.431 95.7763 191.017 95.7903C193.558 105.217 184.558 108.963 180.497 104.525C175.142 98.6719 178.779 75.3503 180.944 68.7439C183.494 60.8383 190 59.5935 195.613 62.9103C202.208 66.7231 211.133 80.3759 212.968 85.0047C214.155 87.3842 214.36 90.1346 213.539 92.6639Z" fill="#0F0F0F"/>
<path d="M197.799 77.7146C197.716 77.3658 196.247 77.4154 194.793 78.5466C193.993 76.2922 190.727 74.2362 189.338 76.1658C188.417 77.9291 188.18 79.971 188.673 81.8986C186.578 82.4442 185.729 84.2186 186.081 84.4282C186.596 84.7866 187.455 82.9082 190.751 83.4074C193.649 83.8106 195.35 85.2842 195.586 84.8474C195.823 84.4106 195.562 84.2074 195.47 84.2282C194.982 83.6047 194.37 83.0893 193.673 82.7146C194.118 81.8339 194.671 81.0122 195.319 80.2682C196.53 78.9562 197.959 78.161 197.799 77.7146ZM192.908 82.329C191.86 81.8707 190.717 81.6688 189.575 81.7402C190.287 77.8218 189.93 75.3882 193.348 78.2202C194.404 79.113 194.274 78.9898 194.119 79.1514C193.709 79.5689 193.39 80.0667 193.182 80.6136C192.973 81.1604 192.88 81.7444 192.908 82.329Z" fill="#0F0F0F"/>
<path d="M225.029 59.2474C224.069 55.3946 217.509 56.7514 215.294 60.217C213.808 59.8234 212.734 60.3514 212.797 60.617C212.881 61.1466 214.677 60.7898 216.763 62.9434C218.565 64.7418 218.672 66.9146 219.109 66.9754C219.589 67.0554 219.678 65.521 219.496 64.6746C222.307 64.1946 225.704 61.8906 225.029 59.2458V59.2474ZM223.398 60.4538C222.438 62.0125 220.915 63.1427 219.145 63.6106C218.592 62.344 217.627 61.3019 216.406 60.6538C219.091 57.857 224.305 57.9434 223.398 60.4538Z" fill="#0F0F0F"/>
<path d="M235.936 52.9085C231.312 43.8781 218.742 44.5885 209.603 49.1165C205.713 51.0845 202.68 53.2765 202.131 57.7661C201.065 65.7661 209.715 79.6701 214.329 85.4333C218.843 90.9933 224.041 93.8141 229.87 89.6045C235.512 85.4445 233.55 79.3533 229.755 73.4285C237.589 67.9421 239.061 58.8285 235.936 52.9085ZM230.081 85.4397C229.644 86.238 229.047 86.9371 228.326 87.4932C227.606 88.0493 226.778 88.4503 225.895 88.6709C225.012 88.8915 224.093 88.927 223.196 88.7751C222.299 88.6233 221.443 88.2874 220.681 87.7885C215.561 84.4989 208.742 72.2589 207 68.4669C201.856 57.2845 205.141 53.9885 210.621 51.1309C233.925 39.2061 244.221 61.3709 227.347 72.6365C223.216 75.3565 219.347 76.3517 219.473 76.9005C219.645 77.6365 224.464 76.3981 227.433 74.8381C229.379 77.8781 231.774 82.2573 230.081 85.4397Z" fill="#0F0F0F"/>
<path d="M272.962 65.1039C269.701 59.7071 262.525 61.8399 257.097 65.1647C256.962 64.6459 256.753 64.1491 256.477 63.6895C261.757 62.3455 268.509 59.6895 268.348 54.2703C267.828 44.9903 257.69 46.5391 249.735 51.5711C249.704 51.3951 249.321 49.7999 249.159 49.7999C255.377 48.6911 262.447 44.7279 260.541 38.6847C257.567 29.2447 236.364 32.0543 233.712 43.9999C232.215 50.9263 239.722 67.5039 242.717 73.2287C244.45 76.4735 246.549 79.4399 249.981 80.8127C259.439 84.5503 278.996 74.5247 272.962 65.1039ZM271.647 69.3839C270.994 74.2751 264.112 76.9135 259.367 78.3023C251.957 80.3455 248.301 78.1183 245.109 71.9615C242.367 66.6815 235.029 50.4175 236.309 44.5487C237.552 38.8431 243.425 36.3887 249.193 35.5887C260.772 33.9343 263.008 45.5327 248.023 48.1855C246.303 46.3935 244.24 46.2431 244.152 46.6111C244.012 47.0399 246.447 47.9711 247.693 50.5231C248.973 53.0623 248.226 55.5631 248.653 55.7103C249.133 55.9263 249.728 54.1631 249.808 53.1951C253.186 51.4351 258.22 49.2511 261.986 49.6863C262.729 49.7788 263.439 50.046 264.058 50.466C264.677 50.8859 265.188 51.4467 265.549 52.1023C265.911 52.758 266.111 53.4904 266.133 54.2388C266.155 54.9872 265.999 55.7302 265.677 56.4063C263.917 59.4255 258.745 61.2799 255.455 62.4367C253.498 60.6767 250.655 61.2015 250.639 61.6031C250.445 62.4639 257.234 61.3151 255.312 70.3759C255.056 72.0591 257.073 69.8079 257.273 67.1439C260.372 65.3343 265.29 62.9839 268.709 64.2943C269.698 64.6897 270.526 65.4068 271.057 66.3298C271.589 67.2529 271.795 68.3282 271.64 69.3823H271.647V69.3839Z" fill="#0F0F0F"/>
<path d="M220.783 127.81C219.302 122.898 213.361 110.558 210.419 106.941C208.369 104.397 205.012 101.341 201.855 102.181C196.689 103.57 196.99 108.886 198.035 114.008C199.284 120.17 202.401 136.496 206.881 140.8C208.425 142.226 210.421 143.064 212.521 143.168C214.62 143.271 216.689 142.633 218.366 141.365C222.633 138.17 222.231 132.885 220.783 127.81ZM219.073 134.478C219.058 135.427 218.822 136.358 218.385 137.2C217.948 138.042 217.321 138.77 216.554 139.328C215.787 139.886 214.901 140.257 213.965 140.414C213.03 140.57 212.071 140.507 211.164 140.229C206.535 139.066 204.548 132.045 200.137 113.544C199.235 109.8 198.279 105.042 202.251 104.005C208.707 102.762 219.361 127.373 219.073 134.478Z" fill="#0F0F0F"/>
<path d="M255.759 113.823C254.694 107.103 247.647 90.4264 241.679 87.0584C235.7 83.6024 228.257 88.7768 228.239 95.7688C228.212 99.6312 230.108 97.8616 223.599 96.1912C222.474 95.8155 221.286 95.6677 220.103 95.7565C218.921 95.8452 217.767 96.1687 216.711 96.708C208.001 101.518 213.761 116.708 217.858 126.542C224.916 143.422 242.054 133.665 237.548 124.375C250.382 130.366 257.281 123.534 255.759 113.823ZM252.822 119.458C249.996 128.036 237.772 122.466 230.316 117.343C226.854 114.966 224.942 113.154 224.63 113.42C224.37 113.641 225.823 115.98 229.134 118.86C233.98 123.082 233.71 121.353 235.332 124.378C237.593 128.745 233.745 132.849 229.772 132.895C225.986 132.868 222.892 131.876 220.372 125.487C218.249 120.399 213.596 108.258 215.162 103.007C217.762 93.7 229.67 100.729 236.894 107.295C240.079 110.196 241.74 112.326 242.089 112.108C242.764 111.687 238.207 104.054 230.298 99.1384C228.738 91.6184 235.738 86.7304 240.353 89.4328C245.502 92.2472 255.022 112.618 252.822 119.458Z" fill="#0F0F0F"/>
<path d="M287.766 99.8558C287.507 97.7093 286.523 95.7157 284.976 94.2045C283.43 92.6934 281.414 91.7553 279.262 91.5454C274.672 91.0174 273.734 93.9182 275.987 90.8094C279.497 85.867 278.443 80.4094 273.976 77.8622C268.313 74.4702 257.453 77.2014 252.094 89.0302C246.24 101.907 253.046 116.621 265.894 119.574C278.995 122.669 289.981 110.23 287.766 99.8542V99.8558ZM281.429 112.016C272.509 121.68 258.763 117.105 254.272 106.489C247.521 91.019 263.361 74.7614 272.641 80.1694C276.208 82.1934 276.344 86.1006 274.129 89.5342C271.712 93.2718 268.15 94.4686 263.795 95.2718C262.035 95.5726 261.017 95.7086 261.017 95.9118C261.017 96.115 262.022 96.3134 263.881 96.3326C267.76 96.2942 267.125 95.3934 265.118 97.7438C264.185 98.7136 263.551 99.9309 263.29 101.251C263.029 102.571 263.153 103.938 263.646 105.19C264.139 106.443 264.98 107.527 266.071 108.315C267.162 109.103 268.456 109.561 269.8 109.635C274.867 109.966 278.337 105.022 277.558 104.496C276.981 104.105 274.24 107.768 269.95 107.461C264.288 107.033 261.79 98.6702 275.145 93.7582C284.251 90.6254 289.677 103.013 281.429 112.021V112.014V112.016Z" fill="#0F0F0F"/>
<path d="M67.2102 236.189C66.7158 231.686 65.2358 209.949 66.7622 206.589C68.2214 203.374 79.303 196.528 83.8582 188.33C86.0102 184.458 87.8358 177.557 93.2854 175.96C99.1094 174.254 103.703 179.32 107.242 183.8C109.786 186.537 111.36 190.034 111.722 193.754C113.738 205.979 113.69 210.786 104.961 227.962C120.225 236.584 126.905 253.218 126.068 253.882C125.908 254.01 125.663 253.666 125.865 253.634C127.064 255.584 127.935 257.718 128.444 259.95C129.154 263.083 127.548 264.061 124.274 263.8C117.541 263.264 99.4166 261.824 93.1622 259.459C86.3814 256.902 68.0006 243.36 67.2102 236.189Z" fill="white"/>
<path d="M87.3414 197.993C82.5862 203.433 77.5222 206.486 77.303 206.13C77.0166 205.738 81.5078 202.185 86.111 196.918C90.7142 191.65 93.631 186.722 94.0598 186.953C94.4406 187.122 92.0967 192.55 87.3414 197.993Z" fill="#0F0F0F"/>
<path d="M106.859 227.454C118.808 207.481 116.02 181.971 100.678 175.976C97.8723 174.75 94.7476 174.457 91.7629 175.139C84.1309 177.24 86.6909 185.099 76.2077 195.092C72.8957 198.246 69.9997 199.616 67.8717 202.486C67.4077 203.094 67.8589 202.988 66.8797 201C65.626 198.478 63.6267 196.403 61.1533 195.057C58.0461 193.339 54.0541 193.052 53.9933 193.673C53.8893 194.246 61.2637 195.672 64.1053 202.284C65.2793 205.526 65.8187 208.964 65.6941 212.409C66.1901 239.072 67.3629 237.316 68.3213 208.177C69.2813 202.5 73.5341 201.734 78.2573 197.297C90.9725 185.691 86.4493 174.865 98.6429 178.676C114.659 185.145 113.708 209.032 104.454 225.094C103.526 220.974 100.278 218.361 99.8893 218.819C99.5053 219.22 101.265 221.172 103.057 225.454C101.617 224.785 94.2445 221.883 93.9469 222.795C93.4669 224.139 114.561 230.721 124.097 250.819C126.353 254.913 128.323 261.908 128.948 261.793C130.232 261.6 128.001 239.788 106.859 227.454Z" fill="#0F0F0F"/>
<path d="M182.241 171.576C183.873 174.404 183.484 176.924 186.691 179.235C187.729 179.896 188.718 180.63 189.652 181.432C188.89 181.78 188.065 181.968 187.227 181.987C186.389 182.005 185.556 181.852 184.779 181.537C184.002 181.223 183.298 180.753 182.708 180.158C182.119 179.562 181.658 178.852 181.352 178.072C180.318 180.002 178.591 181.467 176.518 182.173C174.446 182.878 172.183 182.771 170.187 181.872C170.794 183.226 171.122 184.689 171.152 186.174C171.182 187.658 170.912 189.133 170.36 190.511C169.807 191.889 168.983 193.141 167.936 194.194C166.89 195.247 165.642 196.078 164.267 196.638C171.222 199.233 174.076 208.547 170.784 214.388C170.276 212.532 169.916 210.336 169.353 208.339C167.547 201.939 163.128 198.116 160.073 197.428C155.625 197.257 162.657 196.995 166.344 191.046C167.395 189.406 167.949 187.497 167.939 185.549C167.929 183.601 167.355 181.698 166.288 180.068C163.284 175.696 163.665 177.064 170.104 178.761C174.193 179.841 177.507 179.241 180.576 174.964C181.432 173.787 180.971 173.062 182.241 171.576ZM182.502 168.758C181.022 170.081 179.961 171.81 179.452 173.729C174.867 180.497 171.292 176.676 161.603 175.02C164.72 181.624 165.628 181.26 166.062 183.385C167.361 188.302 163.56 193.384 159.416 194.905C158.126 195.385 157.777 195.817 155.232 198.105C156.74 198.557 158.286 198.87 159.851 199.041C162.646 199.739 165.785 203.521 166.878 206.158C168.158 209.244 167.838 209.755 170.26 218.638C172.161 215.265 175.572 210.612 172.731 203.118C171.974 201.242 170.843 199.539 169.406 198.115C166.649 195.366 167.326 197.993 170.366 193.849C171.994 191.613 172.856 188.91 172.822 186.144C172.782 183.558 172.097 184.224 173.827 184.224C175.716 184.238 177.568 183.709 179.164 182.699C182.524 180.598 180.11 180.428 182.569 182.164C183.916 183.107 185.519 183.612 187.163 183.612C189.054 183.508 190.882 182.894 192.452 181.836C187.155 176.756 186.568 178.22 185.187 174.441C184.568 172.429 183.666 170.516 182.507 168.758H182.502Z" fill="#0F0F0F"/>
<path d="M186.694 179.235C183.494 176.963 183.854 174.368 182.245 171.576C180.936 173.101 181.48 173.722 180.586 174.967C175.179 182.506 169.226 177.983 164.426 177.162C165.365 179.151 167.133 180.682 167.662 183.024C169.85 192.703 159.056 196.879 158.65 197.245C159.374 197.416 163.29 197.162 167.298 203.464C169.504 206.899 169.942 211.269 170.795 214.391C172.276 211.367 172.539 207.891 171.531 204.68C170.523 201.468 168.32 198.766 165.378 197.131C163.731 196.259 163.918 197.099 166.042 195.717C168.24 194.302 169.869 192.159 170.644 189.662C171.42 187.166 171.291 184.477 170.282 182.066C170.059 181.57 170.098 182.109 172.315 182.477C174.094 182.793 175.928 182.538 177.553 181.747C179.177 180.955 180.509 179.67 181.357 178.074C181.665 178.852 182.127 179.561 182.717 180.156C183.306 180.75 184.01 181.22 184.786 181.535C185.562 181.85 186.394 182.003 187.232 181.986C188.07 181.969 188.895 181.781 189.658 181.434C188.72 180.635 187.73 179.901 186.694 179.235Z" fill="#FDFE1F"/>
<path d="M236.9 249.268C231.01 254.116 207.839 243.572 203.647 222.699C172.596 220.556 162.344 191.723 176.672 184.571C181.372 182.225 186.456 183.843 191.29 184.801C204.477 187.416 210.021 185.419 217.04 188.929C220.439 191.31 222.098 195.436 224.816 198.572C227.261 201.039 229.931 203.272 232.791 205.243C238.917 210.099 250.973 232.224 236.664 249.544C236.41 248.836 236.623 249.968 236.9 249.268Z" fill="white"/>
<path d="M202.619 193.932C190.728 193.704 180.099 190.641 180.219 190.118C180.336 189.638 190.214 192.038 202.649 192.299C211.376 192.483 211.851 192.729 217.336 198.19C220.603 201.443 226 206.95 216.549 199.036C210.737 194.166 211.883 194.112 202.619 193.932Z" fill="#0F0F0F"/>
<path d="M226.526 198.239C219.769 190.505 219.584 185.387 206.972 184.678C201.429 184.649 195.902 184.073 190.472 182.959C184.552 181.751 177.942 180.507 172.908 184.865C162.289 194.159 172.809 222.326 202.617 223.529C204.185 230.4 207.653 236.692 212.625 241.687C221.171 250.31 232.219 251.288 232.372 250.327C232.63 248.963 212.067 245.251 206.224 224.46C210.259 227.417 215.513 226.435 215.312 225.74C215.209 225.07 212.112 225.673 207.292 223.478C211.66 223.209 214.172 222.455 214.131 222.132C214.033 221.267 204.268 222.403 194.131 219.267C172.531 212.664 168.531 193.062 175.067 187.334C178.993 183.892 185.068 185.185 189.819 186.169C204.968 189.38 211.948 185.924 217.716 191.881C219.916 194.121 221.088 196.284 224.87 199.852C229.448 204.124 232.963 205.814 233.179 205.478C233.465 205.067 230.48 202.727 226.526 198.239Z" fill="#0F0F0F"/>
</svg>
