<svg width="320" height="320" viewBox="0 0 320 320" fill="none" xmlns="http://www.w3.org/2000/svg">
<path d="M19.475 78.1054C21.5822 76.8254 23.8062 75.7582 26.0254 74.6878C33.9982 70.8478 36.3614 71.2382 42.0366 73.6622C46.1102 75.403 61.5774 81.8222 63.1566 85.8798C63.6366 87.1182 63.5166 86.891 63.6206 102.869C63.6558 108.184 62.899 107.853 62.3854 110.587C61.6414 114.552 62.8382 115.942 58.1678 118.366C52.0263 121.832 45.3104 124.163 38.3422 125.246C36.29 125.852 34.1366 126.035 32.0116 125.786C29.8865 125.537 27.8339 124.86 25.9774 123.797C22.9886 122.382 11.0558 115.488 9.46541 112.608C8.50541 110.859 8.68141 110.19 8.28141 94.5966C7.92621 80.5854 6.64301 85.8846 19.475 78.1054Z" fill="#FFC5F6"/>
<path d="M60.1376 79.6601C37.7472 70.1641 36.8112 68.8905 32.5456 70.6681L11.4256 79.4681C9.91151 80.0965 8.61798 81.16 7.70881 82.524C6.79964 83.8881 6.31573 85.4913 6.31837 87.1305V110.915C6.31602 112.554 6.80061 114.158 7.71071 115.521C8.62081 116.885 9.91541 117.948 11.4304 118.575C34.5632 128.219 33.5104 128.023 35.7616 128.023C38.0128 128.023 36.6512 128.343 60.0928 118.575C61.607 117.948 62.9007 116.884 63.8099 115.521C64.7191 114.157 65.2029 112.554 65.2 110.915V87.3017C65.2014 85.6713 64.7218 84.0766 63.8213 82.7174C62.9209 81.3581 61.6395 80.2947 60.1376 79.6601ZM33.8352 73.7593C34.4438 73.5059 35.097 73.3763 35.7563 73.3782C36.4156 73.3802 37.068 73.5135 37.6752 73.7705C60.7824 83.5833 59.0912 82.8153 59.6544 83.1993L35.7648 92.2921L11.872 83.0217C12.4544 82.6345 10.7744 83.3705 33.8352 73.7577V73.7593ZM12.72 115.481C11.8181 115.106 11.0478 114.472 10.5066 113.659C9.96546 112.846 9.67775 111.891 9.67997 110.915C9.67997 85.4217 9.43517 86.3433 10.2656 84.7945L34.6464 94.2537C34.6464 127.676 34.984 124.761 33.8608 124.294L12.72 115.481ZM61.84 110.915C61.8418 111.891 61.5539 112.846 61.0128 113.659C60.4716 114.472 59.7015 115.106 58.8 115.481L37.6656 124.294C36.5456 124.763 36.8784 127.691 36.8784 94.2585L61.264 84.9785C62.0704 86.4857 61.8464 85.4745 61.8464 110.915H61.84Z" fill="#0F0F0F"/>
<path d="M90.7196 127.2C88.7996 124.8 81.0156 120.952 75.4876 119.3C71.2476 118.035 71.2316 119.489 68.6076 120.555C70.6076 115.382 67.0732 107.987 62.8908 104.075C57.4428 98.9867 58.1292 96.7755 54.5708 97.4555C54.1026 97.6076 53.672 97.8574 53.3077 98.1884C52.9433 98.5194 52.6534 98.9241 52.4572 99.3755C50.486 102.828 56.6764 107.124 57.7532 109.812C57.9951 110.409 58.0671 111.061 57.9612 111.695C57.8553 112.33 57.5756 112.924 57.1532 113.409C55.3932 114.676 52.8108 113.372 51.5628 112.004C50.3148 110.636 49.55 108.952 48.3724 107.555C45.6172 104.288 42.1708 105.166 40.8348 107.699C40.142 109.016 41.3484 111.297 42.1724 112.531C47.1324 119.963 47.814 121.11 49.2124 122.568C52.4124 125.918 57.0268 127.118 59.1324 126.728C60.2862 126.389 61.3922 125.906 62.4236 125.288C62.814 125.608 63.2188 125.91 63.6364 126.195C63.1434 127.28 62.8714 128.453 62.8364 129.644C63.2908 136.291 75.5404 142.5 79.7324 144.844C82.6316 146.468 85.0492 142.193 83.958 140.352C83.0508 138.82 77.9804 138.272 74.6236 134.739C72.606 132.616 72.8236 130.6 73.8556 129.619C74.5982 129.11 75.436 128.757 76.3185 128.58C77.2011 128.403 78.1103 128.407 78.9916 128.59C81.2426 129.455 83.3567 130.64 85.2684 132.11C87.2476 133.582 88.4252 134.03 90.2284 132.14C91.7148 130.598 92.1596 129.008 90.7196 127.2Z" fill="#FDFE1F"/>
<path d="M92.2451 128.783C92.224 128.185 92.0228 127.607 91.6681 127.124C91.3133 126.642 90.8213 126.278 90.2563 126.079C86.0307 121.619 77.5539 116.115 70.8963 117.51C72.2259 110.329 63.2867 102.43 58.4995 98.3323C57.9715 97.8843 58.2723 97.6107 57.1363 97.0331C54.3811 95.6347 50.9331 98.3658 51.6755 101.081C52.6131 104.761 56.8163 108.591 57.0179 111.433C57.1187 112.945 56.3699 113.443 55.0387 113.073C52.0611 112.235 47.8579 106.033 46.1939 105.276C42.4947 103.612 38.6083 107.516 40.8083 110.94C41.3411 111.723 44.2051 119.943 50.8883 125.009C54.0371 127.345 57.6787 128.865 61.3075 127.422C61.1179 129.27 61.3929 131.137 62.1077 132.852C62.8224 134.568 63.9542 136.077 65.4003 137.244C68.4915 139.991 76.9395 144.252 79.2403 145.126C79.6291 145.971 81.5779 146.609 83.7203 143.902C85.8307 141.239 84.3347 139.342 83.4403 139.233C81.8643 137.806 75.8467 134.215 74.7043 131.982C74.0211 130.599 75.0243 129.572 76.4355 129.329C79.0323 128.865 83.9555 132.348 86.7827 133.401C88.5219 135.715 92.5491 132.159 92.2451 128.783ZM42.3027 111.663C41.9715 110.559 40.9491 108.873 42.5651 107.305C43.1254 106.833 43.8004 106.517 44.5219 106.389C45.2434 106.262 45.9857 106.327 46.6739 106.579C47.3619 109.891 52.3219 116.79 56.7075 115.897C55.4947 119.219 57.2803 122.486 59.7475 125.017C52.4355 127.113 43.8915 113.583 42.3027 111.657V111.663ZM74.7011 135.839C81.4867 140.743 83.2611 139.103 83.4355 140.575C83.5139 141.244 83.2035 141.855 82.4099 142.859C80.2515 145.591 79.9075 144.583 79.3699 144.228C73.0931 139.051 63.5091 135.519 64.0099 128.412C66.3153 129.893 69.0493 130.562 71.7779 130.311C71.3603 132.662 72.8243 134.414 74.7011 135.839ZM87.2675 132.851C86.0499 131.004 80.1395 126.305 76.3395 126.588C76.4759 126.067 76.489 125.52 76.3779 124.993C76.2669 124.465 76.0346 123.971 75.6995 123.548C75.1251 122.924 74.0051 121.959 74.8499 124.092C75.0177 124.578 75.0507 125.1 74.9453 125.603C74.8399 126.106 74.6002 126.571 74.2515 126.948C70.4803 131.315 56.5587 122.284 58.6371 116.033C59.5187 113.145 61.8275 113.502 61.9507 113.169C62.0867 112.945 60.9907 112.337 59.6787 112.767C59.9308 111.122 59.5369 109.442 58.5795 108.079C56.9677 105.741 55.0204 103.652 52.8003 101.881C52.7434 101.291 52.8397 100.696 53.0799 100.155C53.3201 99.6128 53.6961 99.1422 54.1715 98.7883C55.0339 98.2291 56.0776 98.0213 57.0883 98.2075C59.8083 102.326 68.1523 109.478 68.2723 115.911C68.3127 116.479 68.2339 117.049 68.041 117.585C67.8482 118.121 67.5455 118.61 67.1523 119.022C66.2659 117.629 65.4603 116.187 64.7395 114.702C63.7267 113.214 62.4611 113.014 62.3395 113.342C62.1795 113.662 62.7619 114.302 63.0963 115.526C63.4018 117.575 64.2442 119.507 65.5379 121.126C66.2411 122.042 67.1832 122.746 68.2607 123.161C69.3382 123.576 70.5093 123.685 71.6451 123.478C73.2915 123.036 74.8003 122.83 73.4051 122.052C72.2323 121.359 70.9379 122.009 69.5555 121.123C69.3491 120.998 69.3827 121.041 69.4643 120.918C76.4435 117.471 85.6051 124.668 90.1395 127.009C91.7827 129.201 89.2083 133.407 87.2675 132.857V132.851Z" fill="#0F0F0F"/>
<path d="M267.818 77.9964C269.925 76.7164 272.148 75.6476 274.368 74.5788C282.341 70.7388 284.706 71.1276 290.38 73.5516C294.453 75.2924 309.92 81.7116 311.5 85.7692C311.98 87.0076 311.86 86.7804 311.964 102.758C311.999 108.073 311.242 107.742 310.728 110.476C309.984 114.441 311.181 115.832 306.511 118.256C300.369 121.721 293.653 124.051 286.685 125.136C284.633 125.741 282.48 125.924 280.355 125.675C278.23 125.426 276.177 124.749 274.32 123.686C271.332 122.272 259.399 115.377 257.808 112.497C256.848 110.748 257.026 110.081 256.626 94.486C256.269 80.4796 254.986 85.774 267.818 77.9964Z" fill="#FFC5F6"/>
<path d="M308.616 79.6599C286.147 70.1303 285.256 68.9015 281.023 70.6679L259.902 79.4679C258.388 80.0962 257.095 81.1597 256.186 82.5238C255.277 83.8879 254.794 85.4912 254.797 87.1303V110.914C254.794 112.553 255.277 114.156 256.186 115.52C257.095 116.884 258.388 117.947 259.902 118.575C283.035 128.22 281.982 128.023 284.234 128.023C286.59 128.023 286.154 127.919 308.565 118.575C310.079 117.947 311.372 116.884 312.281 115.52C313.191 114.156 313.675 112.553 313.672 110.914V87.3015C313.674 85.6719 313.195 84.0779 312.296 82.7189C311.396 81.3598 310.117 80.2958 308.616 79.6599ZM282.312 73.7591C282.921 73.5069 283.574 73.378 284.233 73.3799C284.892 73.3818 285.545 73.5145 286.152 73.7703C309.266 83.5719 307.571 82.8103 308.136 83.1879L284.245 92.2871L260.352 83.0167C260.92 82.6407 259.064 83.4535 282.312 73.7591ZM261.192 115.476C260.29 115.102 259.519 114.468 258.978 113.655C258.437 112.842 258.149 111.886 258.152 110.91C258.152 85.3591 257.917 86.3239 258.738 84.7895L283.12 94.2487C283.12 127.671 283.456 124.756 282.333 124.289L261.192 115.476ZM310.312 110.91C310.315 111.886 310.027 112.842 309.486 113.655C308.945 114.468 308.174 115.102 307.272 115.476L286.136 124.289C285.016 124.758 285.35 127.686 285.35 94.2535L309.734 84.9735C310.549 86.4855 310.323 85.4759 310.323 110.914L310.312 110.91Z" fill="#0F0F0F"/>
<path d="M279.488 105.07C279.14 104.012 277.185 101.55 275.691 101.55C272.651 101.53 269.689 109.59 265.892 109.842C265.359 109.893 264.822 109.784 264.351 109.529C263.879 109.274 263.494 108.885 263.244 108.41C261.896 105.409 269.15 98.6504 268.364 96.4264C267.704 95.5072 266.9 94.7001 265.984 94.036C264.555 93.2968 263.144 94.4472 262.051 95.4872C249.713 107.217 251.772 104.825 250.916 110.908C250.627 112.159 250.686 113.466 251.088 114.686C248.233 114.353 245.342 114.538 242.553 115.231C241.016 115.782 240.176 116.393 234.044 120.324C232.524 121.3 229.641 122.22 229.107 124.614C228.697 126.441 230.081 129.734 232.014 129.561C233.604 129.42 233.065 128.009 240.014 125.58C241.236 125.049 242.562 124.799 243.894 124.847C244.558 124.889 245.191 125.145 245.697 125.578C246.203 126.011 246.554 126.597 246.697 127.247C246.896 129.015 243.054 134.015 239.641 134.804C238.564 135.054 237.227 135.124 236.721 136.102C236.256 137.012 236.848 138.086 237.422 138.932C239.155 141.492 240.286 141.249 241.628 140.422C252.555 133.702 253.308 133.369 254.428 132.068C255.771 130.519 257.948 125.606 257.609 122.862C257.942 122.468 258.328 122.122 258.753 121.833C261.288 120.506 263.929 125.329 271.168 118.687C273.208 116.815 274.804 114.343 277.934 109.932C278.966 108.479 280.04 106.748 279.488 105.07Z" fill="#FDFE1F"/>
<path d="M280.536 104.788C280.457 103.802 280.03 102.876 279.331 102.176C278.632 101.475 277.706 101.047 276.72 100.967C276.037 100.882 275.345 100.977 274.71 101.242C274.076 101.507 273.521 101.933 273.102 102.478C271.641 103.959 265.989 110.838 264.153 109.028C260.633 106.369 273.39 97.4683 267.493 93.4699C265.31 91.9563 262.552 93.1739 262.461 94.1787C257.173 98.6011 250.059 105.015 249.697 111.889C249.587 113.897 250.283 113.614 249.129 113.447C242.512 112.575 234.409 117.959 230.451 122.135C230.021 122.254 229.633 122.492 229.331 122.82C226.302 126.003 231.696 132.42 233.917 129.46C236.721 128.404 241.683 124.926 244.261 125.388C245.701 125.638 246.661 126.676 245.992 128.041C244.854 130.265 238.813 133.886 237.256 135.292C236.281 135.411 234.878 137.311 236.974 139.961C239.197 142.759 241.115 141.948 241.454 141.187C246.362 139.114 251.008 136.467 255.294 133.302C256.741 132.135 257.873 130.625 258.588 128.909C259.303 127.194 259.578 125.327 259.389 123.478C263.014 124.918 266.656 123.406 269.808 121.067C274.422 117.571 276.537 113.718 279.117 108.535C280.211 106.307 280.589 106.012 280.536 104.788ZM233.44 128.915C231.505 129.462 228.923 125.244 230.571 123.068C235.449 120.55 244.302 113.537 251.246 116.979C251.328 117.099 251.36 117.057 251.155 117.183C249.752 118.051 248.473 117.42 247.305 118.111C246.856 118.363 246.715 118.63 246.781 118.788C246.846 118.947 247.125 119.017 247.491 119.108C248.988 119.756 250.671 119.832 252.221 119.323C256.72 117.297 257.181 112.975 257.611 111.593C257.945 110.371 258.531 109.737 258.369 109.412C258.254 109.081 256.987 109.284 255.969 110.771C255.246 112.254 254.44 113.696 253.557 115.091C253.445 115.021 253.332 114.953 253.217 114.887C249.638 108.631 259.963 99.2299 262.995 95.1483C263.752 94.1387 263.499 94.2827 263.913 94.2363C264.358 94.1578 264.814 94.1693 265.254 94.27C265.695 94.3707 266.11 94.5586 266.477 94.8225C266.843 95.0865 267.153 95.4213 267.388 95.807C267.623 96.1927 267.778 96.6215 267.845 97.0683C267.981 98.3083 268.177 97.4907 265.249 100.351C263.395 102.252 261.272 104.623 260.958 107.259C260.755 109.439 261.568 108.742 260.286 108.699C259.157 108.638 258.686 109.127 258.755 109.243C258.827 109.441 259.341 109.374 260.057 109.679C261.939 110.47 263.299 113.545 261.278 116.735C259.563 119.497 254.955 123.417 250.841 124.046C246.702 124.774 245.059 121.993 245.854 120.167C246.139 119.451 246.587 119.116 246.481 118.94C246.31 118.476 243.697 119.683 244.363 122.668C240.63 122.372 234.654 127.068 233.44 128.915ZM240.757 140.819C239.669 140.769 239.046 139.868 238.299 138.923C237.166 137.483 237.126 136.931 237.408 136.015C239.744 135.807 249.843 131.577 248.942 126.375C251.67 126.626 254.404 125.957 256.709 124.476C257.245 132.187 245.051 136.412 240.755 140.819H240.757ZM260.96 121.07C263.432 118.532 265.206 115.262 264 111.95C267.379 112.636 270.56 109.047 272.408 106.15C274.781 102.379 273.262 102.702 274.857 102.47C277.849 102.004 279.633 104.268 278.833 106.483C277.633 110.087 267.715 123.015 260.96 121.07Z" fill="#0F0F0F"/>
<path d="M120.587 220.022C120.384 218.027 119.691 216.1 119.536 214.102C119.409 212.483 119.638 210.857 119.645 209.233C119.672 201.758 114.792 197.142 109.744 197.451C108.987 193.42 107.997 188.999 104.697 186.563C103.294 185.457 101.648 184.702 99.8953 184.36C98.1423 184.017 96.333 184.098 94.6174 184.595C94.1166 177.431 89.459 169.985 82.0494 171.065C71.9694 172.535 52.6398 197.875 48.595 205.945C45.019 213.084 43.3582 221.633 45.4718 229.188C41.9998 223.871 34.9534 229.801 34.8286 241.076C34.7385 242.263 34.8961 243.455 35.2914 244.578C35.6866 245.701 36.3109 246.729 37.1246 247.598C39.6178 251.167 42.364 254.553 45.3422 257.729C48.6558 260.875 58.7918 267.759 65.7166 269.807C76.0254 272.855 84.0606 268.745 85.5966 265.116C86.0766 263.979 86.0766 263.169 86.5566 257.668C86.7406 255.526 86.6174 253.475 84.571 252.809C99.3326 249.075 103.787 234.831 104.105 234.486C105.86 232.918 108.001 231.847 110.307 231.382C116.867 231.052 121.249 226.559 120.587 220.022ZM54.8046 242.615C58.0971 245.44 61.6072 248 65.3022 250.273C61.3445 248.417 57.7806 245.817 54.8046 242.615ZM67.9006 251.575C71.6631 253.187 75.758 253.869 79.8398 253.566C75.3774 255.399 72.7998 253.975 67.9006 251.579V251.575Z" fill="white"/>
<path d="M119.723 212.285C123.737 206.717 119.228 196.562 113.111 196.033C112.804 189.041 104.151 181.549 96.2586 183.308C96.2233 179.667 94.7919 176.179 92.2598 173.564C89.7277 170.948 86.288 169.404 82.6506 169.25C77.1434 169.044 73.353 172.546 69.8362 176.781C57.9434 191.452 39.841 207.269 43.0058 225.901C33.4058 227.866 27.3978 242.012 40.7962 255.58C49.7354 264.353 68.2698 276.985 79.9962 272.132C82.0665 271.295 83.9259 270.011 85.4413 268.37C86.9566 266.73 88.0903 264.775 88.761 262.645C89.6111 259.681 89.3146 256.505 87.9306 253.749C96.2346 250.305 102.033 241.94 106.347 233.996C110.908 232.618 116.028 232.652 119.673 228.501C123.679 224.047 123.395 217.119 119.723 212.285ZM111.779 202.061C112.26 201.089 112.62 200.061 112.851 199.001C115.476 200.365 118.291 205.733 117.529 209.964C115.229 208.018 112.5 206.647 109.566 205.964C108.319 205.641 109.651 206.316 111.779 202.061ZM109.303 196.693C109.184 199.974 107.794 203.079 105.428 205.354C101.469 205.118 97.4998 205.568 93.6938 206.682C77.6762 211.369 85.1066 214.325 79.081 208.028C87.1162 201.881 95.1466 194.823 96.1706 186.194C102.467 185.389 109.163 191.698 109.303 196.693ZM85.7978 261.769C85.193 263.375 84.2534 264.835 83.0412 266.05C81.8291 267.265 80.3723 268.209 78.7674 268.818C68.8074 272.7 51.033 260.105 43.4682 252.858C31.9578 241.524 36.4522 230.473 43.5818 228.49C47.7882 243.82 68.3818 259.705 85.4298 254.636C86.4637 256.878 86.5955 259.432 85.7978 261.769ZM116.942 226.153C113.068 230.813 103.966 228.797 92.849 238.621C90.8154 240.426 89.9242 241.652 90.0922 241.839C90.5274 242.327 94.8618 238.455 102.497 235.372C97.0154 243.722 91.7578 250.423 82.1994 251.991C66.2778 254.335 46.4698 237.333 46.5354 221.69C46.4922 208.122 59.353 195.042 68.1706 184.706C73.8954 178.076 78.9002 168.855 87.8986 174.503C93.1786 177.749 95.1626 186.255 89.7226 193.796C86.026 198.397 81.817 202.562 77.177 206.21C69.5626 199.469 61.177 200.121 61.1626 201.138C61.1386 202.711 69.0922 201.329 79.393 213.218C77.5946 214.325 65.4058 222.761 66.0634 223.681C66.449 224.223 73.2458 219.769 79.601 216.349C112.673 198.575 123.572 218.178 116.942 226.153Z" fill="#0F0F0F"/>
<path d="M69.3482 194.131C69.6106 200.236 70.265 207.006 74.7882 211.105C78.5834 214.539 84.0682 215.128 88.929 216.705C101.03 220.633 100.315 225.878 148.462 242.728C159.081 246.445 160.988 245.353 168.39 242.046C178.809 237.389 188.638 233.76 198.47 227.966C203.414 225.051 209.649 223.233 214.694 220.496C223.246 215.856 233.449 214.851 241.827 209.9C244.707 208.2 245.566 205.421 246.524 202.221C247.124 199.725 247.143 197.123 246.577 194.617C244.459 181.267 247.659 167.925 246.484 154.457C245.132 138.937 249.335 123.385 246.278 108.113C245.587 106.321 244.449 104.735 242.974 103.505C241.385 102.005 238.924 101.989 236.961 101.029C235.193 100.376 233.508 99.5169 231.942 98.4685C226.575 94.0653 212.742 93.3293 184.179 79.1917C178.596 76.4285 167.379 71.9757 161.209 71.0957C151.548 69.7165 147.996 73.7101 139.063 77.6397C119.556 86.2189 107.239 91.5709 96.5146 96.6317C85.553 101.803 73.0698 101.557 71.1514 111.417C70.6202 114.137 69.3674 138.753 69.1834 143.79C68.573 160.566 68.628 177.359 69.3482 194.131Z" fill="#FFC5F6"/>
<path d="M132.746 124.674C133.894 125.66 135.205 126.436 136.621 126.967C137.975 127.428 138 124.263 138.08 123.447C138.21 122.108 138.56 121.022 137.989 120.974C136.549 120.847 135.812 121.849 134.757 122.606C134.228 122.978 132.42 123.849 132.746 124.674Z" fill="#92FCFF"/>
<path d="M170.421 222.64C167.101 223.001 166.381 224.105 166.232 226.241C166.019 229.281 166.957 232.59 167.526 233.051C167.736 233.17 167.97 233.241 168.211 233.257C168.451 233.274 168.693 233.236 168.917 233.147C178.885 230.737 178.645 230.363 178.646 227.654C178.646 226.553 178.632 222.461 177.901 221.629C176.45 219.973 170.701 222.07 168.688 223.229L170.421 222.64Z" fill="#92FCFF"/>
<path d="M226.13 126.63H226.271C226.082 125.041 228.607 124.686 229.258 124.502C229.552 124.419 236.379 121.384 237.6 122.46C238.351 123.121 237.671 124.985 237.76 126.87C238.008 131.872 245.341 138.633 233.784 141.59C229.981 142.563 227.255 143.79 227.927 140.824C228.994 136.128 223.36 134.056 226.13 126.632V126.63Z" fill="#92FCFF"/>
<path d="M248.809 111.088C248.899 108.981 248.337 106.898 247.199 105.123C246.061 103.347 244.404 101.966 242.452 101.168L163.334 69.6924C157.8 67.4908 161.363 67.2924 75.3917 102.436C73.4163 103.208 71.7097 104.541 70.4817 106.27C69.2537 107.999 68.5578 110.05 68.4797 112.169V203.321C68.3954 205.393 68.9394 207.441 70.0401 209.198C71.1409 210.954 72.747 212.337 74.6477 213.164L153.769 246.414C155.085 246.963 156.497 247.242 157.922 247.235C159.347 247.229 160.757 246.936 162.067 246.376L242.08 211.889C244.005 211.09 245.661 209.756 246.852 208.045C248.043 206.334 248.719 204.318 248.8 202.235L248.809 111.088ZM244.86 176.422L219.404 187.348V158.028L244.86 147.011V176.422ZM187.187 201.235V171.913L216.673 159.2C217.342 159.46 217.169 153.856 217.169 188.307L187.187 201.235ZM217.169 190.747V218.368L187.187 231.292V203.67L217.169 190.747ZM157.92 213.852C128.748 201.6 131.664 203.31 131.664 201.726L158.59 190.72L184.875 201.176C184.992 200.886 184.952 200.756 184.952 202.2L157.92 213.852ZM159.552 95.326L185.792 107.177C179.697 110.036 172.22 113.577 160.388 119.2C157.936 120.363 162.736 121.752 131.662 107.606L159.552 95.326ZM128.94 106.366C120.573 102.558 112.189 98.7882 103.788 95.0556L132.033 83.51L156.435 94.2572L128.94 106.366ZM161.768 93.8732L186.014 82.926L214.24 94.1516C202.384 99.5068 196.294 102.272 188.47 105.928L161.768 93.8732ZM217.169 156.556C216.411 156.876 219.609 157.968 189.286 145.904V108.752L217.169 121.342V156.556ZM184.952 198.796L159.702 188.752V160.752L184.952 170.795V198.796ZM131.71 136.443C132.659 134.283 129.563 137.075 153.505 125.036C155.105 124.236 156.446 123.531 157.521 123.004V158.129C157.521 158.492 159.532 157.52 131.664 168.912C131.664 135.016 131.55 136.372 131.71 136.443ZM159.76 157.083V121.948C166.849 118.588 180.009 112.361 187.051 109.057V145.92L159.76 157.083ZM159.702 158.275L159.737 158.364L159.702 158.35V158.275ZM131.664 171.326L157.467 160.779V188.764L131.664 199.31V171.326ZM187.416 169.382L161.12 158.923L188.168 147.867L213.729 158.036L187.416 169.382ZM189.222 108.723C187.462 108.723 187.444 108.873 188.48 108.388L189.222 108.723ZM156.068 121.256C151.176 123.668 141.624 128.644 130.614 133.518L101.723 120.8L128.923 108.819C141.15 114.372 151.691 119.233 156.068 121.256ZM129.428 135.438V170.126L100.06 157.784V122.504L129.428 135.438ZM97.8253 156.844L72.4797 146.192C72.7421 109.041 72.6397 111.713 72.9357 110.558L97.8253 121.52V156.844ZM72.3549 148.609L97.8253 159.268V188.6L72.3549 177.852V148.609ZM100.06 160.208L129.428 172.55C129.428 202.747 129.363 200.611 129.428 200.771C129.428 202.361 133.86 203.745 100.06 189.539V160.208ZM129.428 204.305V231.94L100.06 219.6V191.964L129.428 204.305ZM244.982 144.569L219.404 155.593V120.923L245.016 109.36C245.316 110.56 245.241 108.019 244.982 144.569ZM244.113 107.315C215.286 120.331 218.102 118.835 218.369 119.432L191.15 107.14C198.585 103.68 204.902 100.817 217.12 95.3004C243.425 105.76 242.572 104.99 244.113 107.315ZM156.888 73.3516C160.248 71.9804 160.504 72.7772 183.128 81.7772L158.694 92.8172L134.908 82.334L156.888 73.3516ZM100.918 96.2316C109.363 99.973 117.789 103.754 126.198 107.576L98.9517 119.576L73.8477 108.518C75.3693 106.254 74.4765 107.04 100.918 96.23V96.2316ZM72.1597 203.348V180.27L97.8317 191.025V218.66L76.1597 209.558C74.9489 209.041 73.9207 208.173 73.2077 207.066C72.4948 205.96 72.1297 204.665 72.1597 203.348ZM131.664 232.88V205.246L156.929 215.907V243.244C155.782 243.064 157.42 243.705 131.664 232.88ZM159.166 243.224V215.704L184.96 204.64V232.256C158.372 243.71 160.256 243.027 159.166 243.224ZM240.536 208.297L219.404 217.404V189.784L244.657 178.864V202.206C244.632 203.511 244.229 204.78 243.498 205.861C242.766 206.942 241.737 207.788 240.536 208.297Z" fill="#0F0F0F"/>
<path d="M179.159 223.536C179.206 222.599 178.967 221.67 178.475 220.872C178.171 220.522 177.773 220.266 177.329 220.135C176.885 220.004 176.412 220.003 175.967 220.132C176.385 214.052 166.443 214.862 167.422 222.681C164.732 224.036 165.167 227.59 165.483 230.769C165.484 231.426 165.683 232.068 166.054 232.61C166.425 233.152 166.95 233.57 167.563 233.809C169.081 234.044 170.636 233.801 172.011 233.113C178.185 230.964 179.763 231.284 179.159 223.536ZM169.263 220.262C170.063 218.182 174.244 216.446 174.476 220.544C167.743 222.497 170.07 221.806 168.835 222.144C168.892 221.5 169.036 220.867 169.263 220.262ZM171.503 231.4C169.593 231.952 168.251 232.531 167.663 231.552C167.343 231.027 166.587 225.558 168.143 224.512C168.441 224.324 175.46 222.112 175.758 222.024C177.401 221.395 177.379 221.995 177.609 223.699C178.519 230.352 177.439 229.588 171.51 231.4H171.503Z" fill="#0F0F0F"/>
<path d="M172.707 225.142C171.402 225.107 171.619 229.265 172.916 229.092C174.213 228.92 174.015 225.179 172.707 225.142Z" fill="#0F0F0F"/>
<path d="M138.796 120.16C138.032 119.624 136.916 120.331 135.611 121.101C132.47 115.969 130.675 111.197 128.921 116.835C128.612 117.824 127.668 120.094 127.752 120.254C127.766 120.28 127.742 120.315 127.699 120.293C119.596 114.152 117.724 113.952 126.532 121.725C126.945 121.997 127.244 122.576 128.132 122.507C128.439 122.474 128.73 122.35 128.965 122.15C129.2 121.951 129.37 121.685 129.452 121.387C130.166 118.795 130.124 119.542 130.878 117.163L133.996 122.24C130.208 124.893 131.518 125.662 135.116 127.189C138.164 128.501 138.428 128.859 139.307 122.491C139.395 121.857 139.555 120.689 138.796 120.16ZM136.982 125.974C136.926 126.221 137.102 126.294 136.137 125.814C135.977 125.734 133.75 124.705 133.59 124.651C134.858 123.586 136.233 122.654 137.692 121.87C137.646 122.398 137.374 124.201 136.982 125.973V125.974Z" fill="#0F0F0F"/>
<path d="M240.586 133.814C240.266 130.988 238.006 129.905 238.009 124.444C237.999 121.244 238.969 120.379 232.001 122.905C227.99 124.369 226.185 124.942 225.502 128.084C224.391 133.057 227.298 135.977 227.671 137.889C228.567 142.209 224.369 145.518 233.724 142.316C238.017 140.87 241.055 138.35 240.586 133.814ZM238.554 138.862C236.677 139.208 234.839 139.744 233.07 140.462C226.562 142.688 228.13 143.76 229.114 140.782C230.089 137.555 229.097 136.131 228.118 134.048C227.064 131.436 226.652 128.61 226.916 125.806C228.217 126.36 234.74 124.526 237.306 122.364C236.687 123.74 236.379 125.236 236.405 126.745C236.43 128.254 236.788 129.738 237.454 131.092C239.359 135.011 239.082 134.139 238.559 138.862H238.554Z" fill="#0F0F0F"/>
<path d="M235.025 127.973C234.785 127.274 228.615 129.397 228.855 130.096C229.095 130.795 235.265 128.672 235.025 127.973Z" fill="#0F0F0F"/>
<path d="M235.736 131.286C235.504 130.585 229.742 132.487 229.976 133.188C230.209 133.889 235.968 131.988 235.736 131.286Z" fill="#0F0F0F"/>
<path d="M233.76 134.518C230.512 135.531 229.008 137.166 234.093 135.585C239.144 134.005 237.016 133.499 233.76 134.518Z" fill="#0F0F0F"/>
<path d="M145.515 14.3305C147.622 13.0505 149.844 11.9817 152.063 10.9129C160.038 7.07294 162.403 7.46174 168.076 9.88734C172.15 11.6265 187.617 18.0473 189.196 22.1033C189.676 23.3417 189.556 23.1161 189.66 39.0921C189.694 44.4089 188.939 44.0761 188.425 46.8105C187.681 50.7753 188.876 52.1657 184.207 54.5897C178.065 58.0548 171.35 60.3853 164.382 61.4697C162.329 62.0744 160.176 62.2576 158.051 62.0082C155.926 61.7588 153.873 61.082 152.017 60.0185C149.028 58.6041 137.095 51.7097 135.505 48.8313C134.545 47.0809 134.723 46.4137 134.323 30.8185C133.966 16.8089 132.683 22.1097 145.515 14.3305Z" fill="#FFC5F6"/>
<path d="M186.271 16.5675C163.879 7.07467 162.943 5.79947 158.677 7.57547L137.557 16.3755C136.043 17.004 134.749 18.0678 133.84 19.4322C132.932 20.7966 132.448 22.4001 132.451 24.0395V47.8235C132.449 49.4623 132.933 51.0651 133.841 52.4289C134.75 53.7926 136.043 54.856 137.557 55.4843C160.643 65.1099 159.637 64.9323 161.888 64.9323C164.139 64.9323 162.957 65.1819 186.219 55.4843C187.734 54.8564 189.027 53.7932 189.936 52.4294C190.846 51.0656 191.329 49.4626 191.327 47.8235V24.2107C191.328 22.5808 190.85 20.9866 189.95 19.6272C189.051 18.2679 187.771 17.2036 186.271 16.5675ZM159.968 10.6715C160.577 10.4195 161.23 10.2909 161.89 10.2931C162.549 10.2953 163.201 10.4282 163.808 10.6843C186.882 20.4843 185.234 19.7243 185.792 20.1003L161.898 29.1995L138.003 19.9307C138.581 19.5467 136.851 20.3083 159.968 10.6715ZM138.848 52.3899C137.947 52.015 137.176 51.3809 136.635 50.5681C136.094 49.7552 135.806 48.8 135.808 47.8235C135.808 22.2715 135.573 23.2379 136.394 21.7035L160.776 31.1627C160.776 64.5707 161.114 61.6699 159.989 61.2027L138.848 52.3899ZM187.968 47.8235C187.971 48.8002 187.684 49.7557 187.142 50.5688C186.601 51.3818 185.83 52.0157 184.928 52.3899L163.792 61.2027C162.672 61.6715 163.005 64.5995 163.005 31.1675L187.391 21.8875C188.203 23.3915 187.978 22.3835 187.978 47.8235H187.968Z" fill="#0F0F0F"/>
<path d="M307.99 229.861C306.702 226.262 303.54 223.72 300.524 221.373C299.49 220.338 298.094 219.745 296.631 219.718C296.073 223.733 297.164 217.349 293.123 206.782C291.523 202.603 288.5 196.334 285.015 193.163C284.366 192.571 276.479 185.541 271.137 181.139C262.07 173.667 252.375 165.909 240.751 164.201C238.098 163.72 235.369 163.851 232.774 164.584C225.214 167.011 226.729 173.064 225.174 176.44C224.308 177.908 223.342 179.315 222.283 180.651C217.651 187.918 222.425 198.433 233.228 200.715C231.763 204.715 224.799 200.075 225.095 210.406C225.484 223.973 229.095 223.44 233.782 228.907C236.039 231.541 237.383 234.827 239.294 237.707C243.276 243.744 253.579 251.76 256.894 253.045C264.043 255.816 273.15 251.576 279.614 248.493C272.969 253.392 269.625 251.969 264.94 254.497C262.18 255.987 261.075 257.209 264.043 261.697C279.075 284.456 313.236 244.523 307.99 229.861Z" fill="white"/>
<path d="M309.76 233.572C309.28 226.681 304.907 219.972 298.317 218.31C298.87 184.924 238.889 149.903 226.533 165.955C225.493 167.378 224.796 169.021 224.495 170.757C224.194 172.494 224.296 174.276 224.795 175.966C219.689 178.42 218.152 185.483 219.8 191.198C218.728 192.616 217.965 194.243 217.562 195.975C217.159 197.706 217.124 199.503 217.459 201.249C217.795 202.995 218.492 204.651 219.507 206.11C220.521 207.57 221.831 208.8 223.35 209.723C221.27 216.311 223.67 221.211 228.245 226.465C234.339 233.46 230.713 227.758 241.325 241.446C246.624 248.303 252.438 254.827 261.165 255.859C262.885 268.767 276.416 273.639 287.765 267.156C296.126 262.451 310.493 247.155 309.76 233.572ZM225.814 178.502C229.368 185.222 236.957 187.559 243.424 189.782C247.579 191.238 251.654 192.911 255.633 194.795C253.233 197.75 251.129 200.933 249.35 204.299C238.992 199.537 239.781 203.057 230.825 198.323C220.649 192.927 221.649 181.969 225.819 178.502H225.814ZM221.43 194.982C223.534 198.242 226.681 200.693 230.357 201.934C227.948 202.857 225.93 204.58 224.64 206.814C223.133 205.285 222.047 203.393 221.486 201.321C220.926 199.249 220.91 197.067 221.44 194.987L221.43 194.982ZM250.792 246.359C246.206 242.054 242.389 235.959 238.11 231.107C234.689 227.215 228.998 222.699 227.101 217.644C225.501 213.59 227.056 208.126 230.473 206.035C235.273 202.919 243.627 205.315 248.921 207.676C265.317 215.124 271.885 232.345 273.121 231.695C273.345 231.58 272.605 229.438 270.707 225.801C267.305 219.433 264.872 217.161 265.667 217.667C272.718 222.105 279.173 224.427 279.478 223.711C279.921 222.697 260.827 211.471 259.101 210.527C256.836 208.534 254.336 206.824 251.657 205.435C260.035 191.919 266.601 186.614 265.877 185.793C265.499 185.3 261.131 188.193 256.246 194.113C254.542 192.967 252.766 191.93 250.931 191.007C245.171 187.638 240.339 186.572 235.462 183.751C230.457 180.831 226.461 176.091 228.038 170.567C230.037 163.766 238.206 165.787 244.961 167.419C256.326 170.59 266.728 176.526 275.238 184.699C284.461 193.516 294.061 204.319 294.398 216.993C295.067 238.497 268.48 263.331 250.797 246.364L250.792 246.359ZM303.272 244.777C300.118 250.74 292.665 259.886 285.861 263.844C277.003 269.063 266.341 266.244 263.889 256.004C280.453 255.867 296.381 238.257 298.152 221.076C304.293 223.486 309.733 232.726 303.277 244.782L303.272 244.777Z" fill="#0F0F0F"/>
<path d="M195.214 208.561C194.66 209.457 193.614 210.677 194.27 210.876C200.041 212.636 205.334 209.663 217.904 214.508C224.164 216.921 231.4 221.329 235.489 227.069C238.71 231.594 239.185 234.994 239.68 233.989C241.235 230.833 240.128 230.789 243.246 227.151C246.766 223.036 250.828 221.513 256.444 219.485C262.475 217.309 268.972 214.602 275.497 215.29C278.697 215.628 277.097 214.01 275.177 204.367C273 193.477 276.51 184.847 284.792 179.012C285.619 178.396 286.498 177.853 287.419 177.389C288.329 177.076 289.179 176.612 289.936 176.017C292.051 174.108 274.416 173.364 264.475 161.863C261.755 158.636 259.616 154.961 258.153 151.002C257.337 149.042 256.766 146.905 255.83 145.005C254.278 141.858 254.744 137.207 253.537 138.383C249.228 142.585 248.211 147.375 240.908 149.881C227.822 154.373 213.787 156.929 200.059 155.161C207.616 172.508 200.192 200.535 195.214 208.561Z" fill="white"/>
<path d="M291.273 175.621C291.603 174.406 278.188 171.446 267.273 160.718C255.105 148.755 255.388 136.158 254.239 136.205C253.663 135.973 251.359 141.384 245.099 145.629C243.702 146.544 242.241 147.358 240.727 148.062C218.54 158.84 200.105 153.323 199.779 154.768C199.017 155.077 201.497 159.601 202.276 172.304C203.799 197.133 192.383 210.032 193.662 210.926C193.524 212.705 209.735 211.822 220.147 216.635C225.836 219.298 230.803 223.287 234.63 228.269C241.19 236.83 237.563 236.545 243.615 229.697C256.99 214.376 277.375 216.95 277.467 215.232C280.047 214.752 269.1 194.321 285.924 179.723C288.969 177.056 291.423 176.118 291.273 175.621ZM284.492 177.83C275.969 183.313 270.379 194.79 274.676 208.822C275.26 210.926 276.061 212.964 277.067 214.902C271.862 212.6 250.939 213.867 241.721 228.272C237.185 235.272 241.614 235.489 236.585 226.939C233.824 222.415 230.056 218.591 225.574 215.762C221.092 212.934 216.018 211.179 210.747 210.633C186.939 207.704 193.452 217.008 201.023 200.029C207.835 184.75 205.889 162.717 200.297 155.214C204.58 157.437 217.553 159.243 230.745 155.457C237.334 153.598 245.59 149.925 250.193 144.547C255.924 137.827 252.451 136.067 254.446 144.902C257.044 156.854 267.516 168.851 282.779 174.022C291.583 177.008 290.207 174.137 284.492 177.83Z" fill="#0F0F0F"/>
<path d="M173.526 43.2662C172.811 41.439 172.063 41.0022 170.375 41.039C168.831 41.071 167.015 41.583 166.535 43.0534C166.215 44.0518 166.731 51.1574 165.158 53.6758C164.969 54.05 164.686 54.3682 164.336 54.5989C163.986 54.8295 163.582 54.9645 163.163 54.9904C162.745 55.0163 162.327 54.9322 161.952 54.7464C161.576 54.5607 161.255 54.2799 161.022 53.9318C156.262 49.0486 160.478 40.631 155.622 40.7126C154.497 40.756 153.429 41.2166 152.625 42.0046C151.822 42.7925 151.34 43.8515 151.275 44.975C151.209 46.111 151.457 47.247 151.324 48.383C150.769 53.1302 149.715 48.9558 152.359 60.855C153.036 63.903 153.849 66.5462 157.406 68.215C152.606 69.655 151.905 76.8374 151.326 82.4438C150.791 87.703 151.646 91.4198 156.825 93.3494C159.668 94.4086 159.724 93.727 159.51 94.3878C158.133 93.7064 156.626 93.3246 155.091 93.2678C150.089 92.847 148.851 103.711 149.033 108.356C149.147 111.204 150.196 111.789 152.412 111.77C154.065 111.754 154.871 111.535 155.462 110.058C156.508 107.455 156.433 103.703 160.151 104.159C161.911 104.375 162.431 105.237 162.574 106.93C162.809 109.722 160.494 111.362 163.281 112.361C167.049 113.708 168.999 114.585 169.454 103.961C169.728 101.524 169.233 99.0626 168.039 96.9206C168.302 95.839 168.471 94.735 168.547 93.623C170.019 93.3862 171.759 93.6838 173.222 90.567C175.715 85.2534 174.371 75.575 172.686 69.847C172.441 69.0134 172.219 68.7574 171.364 68.583C168.919 68.0838 169.188 68.647 169.124 68.0294C177.259 65.2182 175.799 49.0854 173.526 43.2662Z" fill="#FDFE1F"/>
<path d="M173.498 41.5992C173.045 41.0902 172.483 40.6901 171.854 40.4286C171.225 40.1671 170.545 40.051 169.865 40.089C169.185 40.127 168.522 40.318 167.926 40.648C167.33 40.9779 166.816 41.4382 166.423 41.9944C165.722 43.1464 165.995 44.4056 165.771 47.4136C165.013 57.1016 161.291 55.3368 160.093 51.2648C159.008 47.452 159.261 42.548 157.781 41.0248C157.346 40.6508 156.838 40.3708 156.289 40.2024C155.741 40.0341 155.163 39.981 154.593 40.0465C154.023 40.112 153.473 40.2947 152.977 40.5831C152.481 40.8715 152.05 41.2594 151.711 41.7224C150.167 44.0104 146.944 63.0568 155.439 68.5288C151.978 70.9288 150.909 76.6888 150.504 80.9032C150.074 85.2552 150.73 89.8392 154.171 92.5592C147.469 96.2856 147.375 110.023 149.429 111.935C151.437 113.833 155.443 113.236 155.855 110.366C156.701 108.874 157.151 107.166 157.861 106.046C158.896 104.414 160.207 104.65 160.706 105.156C161.547 106.004 160.706 111.801 161.632 112.124C162.635 114.607 167.042 114.729 168.341 112.284C169.679 110.684 172.448 99.6696 169.088 95.4248C169.127 95.2728 169.163 95.1208 169.197 94.9672C177.01 93.0344 176.179 83.4216 175.757 76.116C175.531 73.172 174.975 69.652 172.509 68.0296C179.68 61.9384 176.179 44.5736 173.498 41.5976V41.5992ZM161.41 102.126C159.026 102.574 157.928 99.7 157.616 99.7544C157.351 99.7784 157.263 101.185 158.29 102.455C155.459 103.511 154.621 107.687 154.719 110.446C154.372 110.789 153.952 111.049 153.491 111.206C153.029 111.363 152.538 111.414 152.054 111.354C151.57 111.294 151.107 111.124 150.697 110.859C150.288 110.594 149.945 110.239 149.693 109.822C149.627 109.662 149.712 109.94 150.149 107.508C151.208 102.052 151.875 95.2328 157.229 94.2056C157.647 94.3528 158.055 94.4712 158.451 94.5704C157.707 95.7504 157.255 97.091 157.133 98.4808C157.189 99.0968 157.41 99.3848 157.576 99.3736C157.767 99.364 157.896 99.0696 158.131 98.6632C159.023 97.0504 160.4 96.1656 161.179 94.0712C162.821 89.7768 159.325 86.052 159.117 82.916C159.007 81.4392 160.155 78.9448 158.44 80.4904C155.328 83.2888 158.725 88.2824 159.011 91.4568C158.251 91.4437 157.492 91.5069 156.744 91.6456C151.944 88.548 152.77 82.1016 153.911 76.332C154.44 73.5832 155.298 70.892 157.783 69.612C158.471 69.8328 159.171 70.004 159.883 70.124C159.832 71.1768 159.274 75.4392 160.299 75.1896C160.779 75.0824 163.741 69.9096 161.936 63.8296C161.462 62.2676 160.892 60.7366 160.227 59.2456C159.88 59.108 159.234 60.108 159.288 61.7384C159.288 63.1432 159.882 65.7224 159.882 67.2792C152.064 66.4792 152.275 54.5912 152.362 46.6392C152.434 42.1272 152.042 42.9096 152.581 42.5192C152.934 42.1835 153.357 41.9304 153.82 41.7785C154.283 41.6266 154.774 41.5795 155.257 41.6408C155.74 41.7021 156.204 41.8701 156.614 42.1327C157.024 42.3954 157.371 42.746 157.629 43.1592C157.896 43.5784 155.563 55.356 161.805 56.9544C160.403 57.4024 160.045 58.7912 160.365 58.8568C160.549 58.9528 160.845 58.508 161.485 58.2904C162.851 57.8264 165.759 59.0104 167.168 62.5464C168.591 66.3782 168.568 70.5974 167.104 74.4136C165.8 77.22 162.906 77.9336 161.213 76.2696C160.68 75.7656 160.523 75.2776 160.315 75.3096C159.933 75.3096 159.931 77.3304 161.933 78.4296C160.315 78.5896 157.84 80.276 160.842 79.7944C169.075 78.428 168.736 100.754 161.41 102.121V102.126ZM167.919 103.702C167.119 112.182 167.759 111.078 167.439 111.426C167.095 111.755 166.687 112.009 166.24 112.172C165.794 112.336 165.318 112.406 164.844 112.378C164.369 112.35 163.905 112.224 163.481 112.009C163.057 111.794 162.682 111.494 162.379 111.127C163.202 109.018 164.085 105.617 162.8 103.751C165.032 102.724 166.824 100.936 167.856 98.7064C168.168 100.354 168.189 102.042 167.919 103.697V103.702ZM172.642 72.1816C173.242 74.3672 174.114 85.5848 172.403 89.5608C171.856 90.9396 170.841 92.0819 169.536 92.788C169.915 88.3464 168.736 80.82 164.65 78.932C168.875 78.3624 170.554 73.74 170.803 69.4648C171.281 69.7649 171.691 70.1611 172.007 70.6283C172.324 71.0955 172.539 71.6234 172.64 72.1784L172.642 72.1816ZM170.679 66.0536C170.199 62.5 168.499 58.6296 165.139 57.2536C164.042 56.7736 163.898 57.0344 164.45 56.8088C168.29 55.2728 168.375 46.4088 166.584 43.4216C168.629 41.5816 170.133 41.052 173.335 42.8344C173.072 47.8296 176.347 61.0216 170.679 66.0504V66.0552V66.0536Z" fill="#0F0F0F"/>
<path d="M209.86 192.62C209.527 195.66 209.98 196.497 212.086 198.182C233.012 214.924 241.113 214.895 260.671 206.697C264.121 205.257 264.611 204.257 264.937 201.521C268.012 175.678 268.179 176.052 267.647 174.615C266.503 171.524 256.98 167.095 253.996 165.655C242.875 160.3 241.321 159.345 238.907 159.135C234.311 158.735 220.222 164.668 215.979 166.513C213.628 167.534 213.665 168.817 213.017 172.084C211.667 178.88 210.614 185.732 209.86 192.62Z" fill="#92FCFF"/>
<path d="M265.724 168.729C244.406 157.023 243.601 155.662 239.179 157.001L217.279 163.63C215.709 164.101 214.315 165.028 213.272 166.294C212.23 167.559 211.587 169.106 211.425 170.737L209.025 194.396C208.858 196.026 209.178 197.67 209.945 199.118C210.711 200.567 211.89 201.755 213.332 202.534C234.886 214.198 234.575 214.43 237.436 214.43C239.196 214.43 238.305 214.537 261.747 207.441C263.316 206.968 264.71 206.041 265.752 204.776C266.794 203.51 267.438 201.965 267.601 200.334L269.982 176.843C270.149 175.221 269.835 173.587 269.077 172.143C268.32 170.7 267.154 169.512 265.724 168.729ZM240.15 160.209C240.781 160.019 241.443 159.957 242.098 160.025C242.753 160.094 243.388 160.292 243.966 160.607C265.951 172.671 264.371 171.766 264.887 172.195L240.203 178.836L217.364 167.204C217.977 166.879 216.203 167.457 240.15 160.209ZM214.936 199.585C214.076 199.121 213.373 198.413 212.915 197.55C212.459 196.686 212.268 195.706 212.367 194.734C214.947 169.294 214.615 170.246 215.585 168.814L238.887 180.684C235.519 213.923 236.147 211.073 235.075 210.492L214.936 199.585ZM264.271 199.999C264.176 200.972 263.793 201.894 263.171 202.649C262.55 203.403 261.718 203.956 260.782 204.236C237.014 211.436 238.665 210.966 238.062 211.041L241.116 180.91L266.313 174.131C266.958 175.713 266.838 174.687 264.271 199.999Z" fill="#0F0F0F"/>
<path d="M233.544 185.467C233.158 183.463 233.142 183.137 232.669 182.801C231.8 182.187 230.546 183.014 229.778 183.34C226.109 184.9 224.912 185.668 228.658 188.289L225.618 193.249C224.107 186.422 224.114 186.251 223.802 185.959C223.558 185.683 223.223 185.504 222.857 185.457C222.492 185.41 222.122 185.497 221.816 185.702C220.267 186.78 208.216 203.883 221.923 188.358C222.68 187.502 222.138 186.815 223.922 194.703C224.384 196.745 225.934 196.395 226.526 195.54L230.274 189.42C233.416 191.283 234.709 191.495 233.544 185.467ZM228.25 185.873C232.286 184.259 231.47 183.579 231.898 185.785C232.058 186.644 232.306 188.111 232.352 188.654C230.891 187.872 229.516 186.94 228.25 185.873Z" fill="#0F0F0F"/>
<path d="M233.32 204.181C218.616 210.485 227.382 223.637 233.066 229.549C234.853 231.408 239.33 232.795 240.992 234.768C242.917 237.36 245.018 239.816 247.282 242.118C249.102 243.794 294.626 251.472 260.45 214.851C253.866 207.797 242.198 200.373 233.32 204.181Z" fill="white"/>
<path d="M233.935 226.787C228.447 221.254 224.913 216.979 227.19 210.441C230.699 200.361 246.051 205.398 254.761 211.425C263.787 217.665 272.065 232.249 273.126 231.7C274.443 231.019 266.919 215.06 257.014 208.227C245.71 200.436 227.977 196.028 223.507 209.121C220.596 217.646 224.71 223.083 231.161 229.543C239.161 237.553 239.131 238.782 244.268 244.219C247.851 248.009 250.756 249.633 251.06 249.225C251.403 248.766 249.278 246.539 246.398 242.454C239.26 232.335 239.235 232.129 233.935 226.787Z" fill="#0F0F0F"/>
<path d="M120.099 226.146C126.483 218.296 113.259 203.876 98.3391 207.527C89.1215 209.783 64.8511 222.917 63.4591 227.103C62.7839 229.143 64.7391 231.221 65.8143 233.077C66.9705 234.895 68.4765 236.466 70.2447 237.697C75.1887 241.415 80.7599 247.037 86.6159 245.044C90.3535 243.772 94.0719 237.684 97.6319 236.104C98.1567 235.874 116.907 230.069 120.099 226.146Z" fill="white"/>
<path d="M94.6258 210.164C85.1634 212.587 77.573 217.511 69.877 221.918C64.901 224.766 64.8978 224.094 69.005 220.668C107.885 188.241 131.699 214.972 119.677 228.5C117.299 231.177 114.397 232.131 110.891 232.911C96.253 236.174 90.7986 242.627 90.0914 241.839C89.9314 241.652 90.813 240.425 92.8482 238.622C103.856 228.878 113.027 230.86 116.941 226.153C122.922 218.963 114.837 204.993 94.6258 210.164Z" fill="#0F0F0F"/>
<path d="M129.759 181.791C129.032 173.617 131.199 137.694 130.098 135.719C129.498 134.647 126.578 133.542 119.431 130.279C116.951 129.148 114.194 128.694 111.728 127.495C107.485 125.439 104.555 123.815 100.378 121.627C98.3842 120.585 94.6178 120.447 92.7619 119.179C86.9472 115.51 80.7168 112.547 74.2018 110.351C71.8306 109.635 70.9538 110.724 70.4994 113.071C70.2402 114.406 70.5522 113.849 70.5202 115.183C70.2882 124.783 69.8579 117.945 70.2723 133.206C70.5059 141.795 70.8514 143.361 70.0146 145.609C72.0466 168.769 66.0978 175.049 75.229 181.118C81.5794 185.335 99.2547 188.713 112.285 195.572C117.245 198.185 122.314 200.835 127.845 201.761C129.01 201.956 129.883 201.694 130.122 199.411C130.631 196.543 130.872 193.635 130.842 190.723C130.597 187.774 129.759 184.753 129.759 181.791Z" fill="white"/>
<path d="M79.4947 175.212C75.5587 173.581 76.7299 173.216 77.5603 120.124C79.5107 120.012 81.0899 121.762 82.8195 122.668C106.196 134.904 122.103 138.575 122.711 139.5C123.013 139.96 122.143 189.74 121.911 190.501C121.079 193.269 120.138 191.301 119.191 191.141C117.519 190.762 115.905 190.164 114.391 189.362C109.296 187.162 103.792 185.581 98.6979 183.381C88.3891 178.933 94.3379 181.364 79.4947 175.212Z" fill="#92FCFF"/>
<path d="M86.7192 158.866C86.7768 158.209 86.9512 155.356 86.4104 154.962C85.6407 154.743 84.9223 154.372 84.2971 153.872C83.6719 153.372 83.1524 152.753 82.7688 152.05C82.4787 151.523 82.3271 150.931 82.328 150.329C82.329 149.727 82.4826 149.135 82.7744 148.608C83.0663 148.082 83.4868 147.638 83.9968 147.318C84.5067 146.998 85.0894 146.813 85.6904 146.78C86.1352 146.7 87.9864 146.62 88.0696 146.855C85.0552 138.45 82.54 134.282 89.9128 139.063C91.492 135.724 91.4968 135.607 91.8568 135.33C94.0552 133.629 95.4504 139.473 97.4568 136.881C98.0968 136.061 98.148 134.423 98.508 133.932C98.9192 133.372 100.337 133.327 100.639 135.418C100.836 136.786 100.383 139.881 102.038 140.154C102.722 140.146 103.386 139.922 103.935 139.514C106.362 138.266 108.14 139.866 107.86 140.954C107.769 141.309 107.38 141.717 107.609 142.085C108.625 141.441 109.852 141.217 111.03 141.461C111.328 141.715 111.537 142.059 111.623 142.441C111.71 142.824 111.67 143.224 111.51 143.581C110.881 145.073 109.43 145.181 109.449 146.233C109.449 146.553 109.423 146.431 110.817 149.303C111.252 149.687 111.526 150.22 111.582 150.797C113.838 150.797 114.089 150.492 115.134 151.956C115.494 152.507 115.724 153.133 115.806 153.787C115.889 154.44 115.821 155.104 115.609 155.727C115.397 156.351 115.046 156.918 114.582 157.386C114.118 157.853 113.554 158.209 112.932 158.426C109.788 159.461 113.929 159.741 112.969 166.079C112.62 168.375 112.735 171.556 110.614 172.479C109.887 172.799 109.458 173.047 110.262 174.153C111.356 175.658 111.982 175.306 112.822 178.711C113.307 180.218 113.431 181.818 113.183 183.381C112.956 186.69 114.615 189.193 113.193 188.807C110.308 188.202 107.558 187.073 105.081 185.474C104.921 185.402 94.4184 181.813 82.5448 176.231C78.9016 174.517 84.5593 169.095 89.9049 168.711C91.7369 168.58 90.6136 167.458 89.4248 166.229C85.8488 162.501 86.5592 160.706 86.7192 158.866Z" fill="#FDFE1F"/>
<path d="M86.8638 149.247C85.1774 149.204 84.3422 150.834 84.699 150.991C84.9102 151.108 85.6366 150.162 86.8398 150.191C87.0862 150.198 87.3278 150.257 87.5486 150.367C87.2529 150.458 86.9894 150.632 86.7896 150.868C86.5897 151.104 86.4618 151.392 86.421 151.699C86.3802 152.006 86.4283 152.318 86.5596 152.598C86.6908 152.878 86.8997 153.114 87.1614 153.279C87.6974 153.574 88.0782 153.418 88.0718 153.302C88.091 153.065 86.9022 152.607 87.4318 151.558C87.5838 151.238 87.6654 151.31 87.7902 151.35C90.2958 152.494 89.8702 152.585 89.475 151.257C89.2999 150.694 88.9554 150.198 88.4883 149.838C88.0213 149.478 87.4545 149.271 86.8654 149.246L86.8638 149.247Z" fill="#0F0F0F"/>
<path d="M132.058 136.887C132.058 131.27 128.858 133.334 75.9224 108.918C75.1916 108.578 74.3869 108.428 73.5827 108.481C72.7785 108.534 72.0006 108.789 71.3208 109.222C68.156 111.223 69.2088 108.751 68.6168 176.015C68.605 176.975 68.8802 177.916 69.4071 178.718C69.9339 179.52 70.6884 180.146 71.5736 180.516C129.204 204.734 126.934 204.779 130.01 202.739C133.087 200.699 132.078 203.167 132.058 136.887ZM126.77 200.075C69.1064 175.839 72.6552 177.439 72.2904 176.983C74.1128 176.235 76.5 174.211 76.0424 173.623C75.5848 173.036 72.6424 174.918 71.9752 175.399C72.4552 108.999 72.3912 113.179 72.4984 112.839C73.1576 114.359 76.2728 119.913 77.0872 119.379C77.8344 118.887 75.0312 113.865 73.4728 111.887C74.1624 111.673 70.3128 110.127 127.393 135.342C126.199 135.822 122.143 137.862 122.495 138.63C122.882 139.471 127.345 137.239 128.625 136.419C128.735 136.753 128.75 132.343 128.809 198.716C128.809 199.676 128.801 198.611 126.367 195.887C123.193 192.316 118.303 189.327 125.116 197.007C126.207 198.228 127.214 199.315 127.986 200.047C127.798 200.14 127.591 200.19 127.381 200.195C127.171 200.2 126.963 200.159 126.77 200.075Z" fill="#0F0F0F"/>
<path d="M78.2394 146.779C78.5082 111.284 76.5354 111.214 76.2698 146.712C76.121 151.816 76.169 173.32 76.3658 173.344C77.8698 173.54 78.2218 147.347 78.2394 146.779Z" fill="#0F0F0F"/>
<path d="M121.843 191.26C123.227 191.42 123.562 166.351 123.589 165.331C123.853 130.694 121.88 130.623 121.619 165.265C121.531 168.479 121.464 191.22 121.843 191.26Z" fill="#0F0F0F"/>
<path d="M114.131 188.319C114.706 183.802 113.849 179.219 111.68 175.215C110.136 172.714 109.693 173.492 110.64 172.975C113.077 171.647 113.424 169.43 113.397 166.681C113.784 165.495 113.927 164.243 113.817 163.001C113.707 161.758 113.346 160.551 112.757 159.452C112.403 158.865 113.328 159.612 115.065 157.99C118.565 154.842 115.689 148.598 111.976 150.057C111.512 147.303 109.533 147.473 110.515 146.436C110.858 146.15 111.174 145.833 111.459 145.489C113.48 142.815 112.216 140.01 108.992 140.922C107.806 141.337 108.544 141.442 108.443 140.194C108.315 138.468 105.963 136.871 102.449 139.266C101.633 139.85 101.846 139.906 101.649 138.815C101.312 136.916 100.891 134.234 99.9662 133.442C99.467 132.932 98.6526 132.786 97.8542 133.889C97.3863 134.649 97.0154 135.465 96.7502 136.318C96.2318 137.578 96.0206 136.46 94.5694 134.97C93.2686 133.634 91.6894 133.615 90.8014 135.23C90.4654 135.948 90.2046 136.698 90.0222 137.47C89.9796 137.664 89.8991 137.848 89.7854 138.012C88.691 137.759 87.5998 136.14 86.0334 135.961C82.5854 135.746 85.3246 140.99 87.2046 145.996C81.2158 144.897 79.3166 153.586 86.1374 155.892C85.3102 160.433 86.2574 165.095 89.8174 167.956C85.635 168.49 81.8894 170.804 80.9374 174.964C60.6174 168.049 120.342 193.702 121.08 191.94C121.185 191.665 118.501 190.29 114.131 188.319ZM109.837 171.567C106.694 173.303 93.8478 172.038 93.7038 166.356C93.6334 163.575 94.8238 160.986 98.387 158.86C98.2598 159.322 98.2791 159.813 98.4422 160.264C98.6052 160.715 98.904 161.104 99.2974 161.378C101.641 162.631 102.765 161.103 103.334 163.722C103.424 164.118 103.582 164.33 103.694 164.303C103.806 164.276 103.885 164.084 103.987 163.734C105.294 159.254 97.9742 161.249 100.336 158.614C101.387 157.399 107.669 157.231 109.656 158.828C111.745 160.521 107.243 160.313 106.406 162.274C106.086 163.039 106.187 164.578 106.454 164.655C106.821 164.761 107.046 163.351 107.437 162.86C108.216 161.879 111.129 162.422 111.757 160.14C112.257 161.41 112.437 162.783 112.281 164.14C111.91 168.865 109.192 168.194 104.837 167.996C83.451 166.49 107.033 170.742 110.617 169.503C111.769 169.135 111.917 168.486 111.577 169.503C111.437 169.944 111.211 170.353 110.912 170.706C110.613 171.06 110.248 171.351 109.837 171.562V171.567ZM96.7262 157.913C96.1929 157.61 95.7359 157.189 95.3901 156.683C95.0443 156.177 94.8189 155.598 94.731 154.991C97.8126 154.759 97.3822 154.727 97.3934 154.882C97.4558 155.78 97.3054 156.23 98.4334 156.084C99.5614 155.938 99.3342 155.489 99.2798 154.785C101.336 154.998 101.464 155.388 102.16 155.105C101.877 156.466 101.862 156.172 101.077 156.37C100.257 156.542 99.5184 156.984 98.979 157.625C98.4862 157.808 98.0052 158.022 97.539 158.265C97.2596 158.166 96.9879 158.047 96.7262 157.908V157.913ZM104.96 155.999C101.739 156.025 103.013 156.561 102.808 154.822C103.166 154.886 105.406 154.671 106.232 154.62C106.166 154.78 106.261 155.042 106.321 155.601C106.365 155.994 108.27 156.21 108.205 155.441C108.179 155.161 108.141 154.913 108.109 154.687C108.79 154.775 110.15 155.082 110.203 155.084C108.76 157.572 109.467 156.074 104.96 155.999ZM110.619 152.441C111.109 153.508 110.577 154.302 110.139 154.154C108.304 153.672 106.383 153.618 104.523 153.994C101.782 154.295 103.91 154.444 102.947 152.234C103.335 151.548 103.903 150.981 104.589 150.592C105.275 150.204 106.053 150.01 106.841 150.03C107.63 150.051 108.397 150.285 109.062 150.709C109.727 151.132 110.264 151.729 110.616 152.434L110.619 152.441ZM102.238 153.561C102.179 154.681 101.262 154.098 100.006 153.948C97.3438 153.593 94.5966 154.447 94.2814 154.202C93.6206 153.846 94.5086 150.102 98.2622 150.124C100.605 150.121 102.4 152.234 102.24 153.548L102.238 153.561ZM113.262 151.412C115.779 152.278 115.694 157.366 111.718 158.247C111.605 158.153 110.237 157.177 109.971 157.031C110.577 156.42 110.974 155.631 111.104 154.78C111.186 154.716 111.261 154.644 111.328 154.564C111.377 154.724 111.473 154.865 111.604 154.969C111.735 155.073 111.894 155.136 112.061 155.148C112.134 155.1 112.307 155.449 112.208 155.655C112.014 156.124 111.184 156.545 111.307 156.794C111.416 157.114 112.651 156.975 113.093 155.994C113.168 155.822 113.205 155.635 113.201 155.446C113.197 155.258 113.152 155.073 113.07 154.903C112.988 154.734 112.87 154.584 112.724 154.464C112.579 154.345 112.409 154.258 112.227 154.21C112.387 153.98 113.083 153.81 113.326 154.182C113.734 154.842 114.001 154.572 113.966 153.982C113.905 152.954 112.566 152.759 111.763 153.354C111.774 152.903 111.678 152.455 111.481 152.049C111.39 151.86 112.361 151.09 113.257 151.399L113.262 151.412ZM91.5022 137.919C91.627 137.502 92.059 135.59 92.4878 135.495C93.6958 134.617 96.1438 141.895 98.2254 135.929C98.2798 135.769 98.8654 134.142 99.0894 134.182C99.6798 133.257 101.04 142.697 100.673 144.193C100.64 144.353 100.632 144.247 89.1054 146.207C89.2142 146.511 88.6254 145.015 88.5038 144.694C88.8238 144.644 99.6286 142.551 99.5806 142.161C99.5214 141.649 92.403 142.532 88.3134 144.204C82.627 129.546 89.5502 144.546 91.5038 137.919H91.5022ZM87.3102 156.138C89.787 156.404 90.7102 154.689 89.9006 154.961C86.8446 155.99 82.5502 152.881 83.6734 149.37C84.4734 146.871 87.6158 147.054 89.5454 148.418C91.1454 149.572 91.3374 151.012 91.5838 150.958C91.6894 150.95 91.8014 150.59 91.691 149.934C91.4814 149.096 91.0768 148.321 90.5102 147.67C101.934 145.607 101.541 145.686 101.825 145.27C102.24 144.026 102.313 142.695 102.037 141.414C103.696 140.454 104.84 139.334 106.408 139.839C108.36 140.594 103.941 144.082 104.769 144.591C104.937 144.791 106.033 143.894 107.869 142.857C109.653 141.91 111.411 141.775 110.633 143.614C110.086 144.962 109.144 145.01 108.662 146.212C107.846 148.191 110.133 148.207 110.545 150.692C110.01 150.133 109.353 149.704 108.626 149.438C107.899 149.172 107.121 149.075 106.351 149.155C105.581 149.236 104.84 149.491 104.183 149.902C103.527 150.313 102.973 150.868 102.565 151.526C102.026 150.685 101.248 150.025 100.332 149.631C99.4149 149.236 98.4011 149.124 97.4205 149.31C96.4399 149.496 95.5373 149.971 94.8288 150.674C94.1203 151.377 93.6382 152.276 93.4446 153.255C93.4094 153.735 93.3006 154.596 94.0286 154.902C93.9742 155.694 94.1695 156.484 94.587 157.16C95.0045 157.836 95.6234 158.365 96.3566 158.671C96.9486 158.911 96.6382 158.446 94.8174 160.207C93.9804 160.999 93.3174 161.956 92.8709 163.018C92.4243 164.08 92.204 165.223 92.2238 166.375C92.2126 167.951 93.1422 168.498 91.5166 167.295C87.9598 164.702 87.1454 160.534 87.3118 156.138H87.3102ZM89.899 178.257C91.2339 177.351 92.7647 176.776 94.3656 176.577C95.9664 176.379 97.5915 176.564 99.107 177.116C105.622 179.316 107.267 183.63 107.769 183.414C108.118 183.27 107.193 180.622 104.553 178.718C97.8814 173.782 91.5614 175.007 89.2638 178.012C86.8471 177.079 84.4169 176.18 81.9742 175.318C83.7966 171.308 87.0942 170.038 91.3502 168.959C92.083 169.345 92.8558 169.65 93.6542 169.868C96.123 172.847 99.4142 173.143 103.024 173.708C104.948 174.062 106.922 174.049 108.841 173.67C111.966 177.442 112.665 182.876 112.953 187.782C106.104 184.729 97.0734 181.022 89.8974 178.257H89.899Z" fill="#0F0F0F"/>
<path d="M122.367 139.283C122.727 138.385 79.0328 120.04 78.644 120.915C77.9688 122.433 121.759 140.79 122.369 139.283H122.367Z" fill="#0F0F0F"/>
<path d="M186.513 101.574C187.724 99.6991 188.71 99.8959 189.571 101.094C192.382 104.982 204.06 121.456 203.249 126.24C202.896 127.417 202.261 128.49 201.4 129.367C200.54 130.245 199.478 130.899 198.308 131.275C197.176 131.619 195.588 132.481 194.468 132.846C193.188 133.497 191.944 134.214 190.739 134.993C186.8 136.753 182.328 133.553 174.531 128.949C172.537 127.773 173.081 126.057 174.051 124.021C177.703 116.271 181.867 108.772 186.513 101.574Z" fill="#92FCFF"/>
<path d="M185.726 157.832C186.336 159.086 187.196 161.152 188.894 160.494C189.875 160.113 190.07 158.852 190.508 157.897C191.024 156.976 191.67 156.137 192.428 155.403C193.968 153.656 204.158 137.283 203.136 135.243C202.464 133.9 198.849 137.088 193.417 139.144C191.438 140.069 189.259 140.485 187.078 140.355C184.897 140.224 182.783 139.551 180.928 138.396C177.022 136.39 174.94 134.91 173.256 135.95C172.425 136.464 172.662 136.43 173.025 137.443C177.329 149.356 183.472 153.192 185.726 157.832Z" fill="#92FCFF"/>
<path d="M172.227 128.959C173.737 131.14 186.147 136.799 187.998 136.546C188.128 136.546 188.238 136.458 188.385 136.546L188.753 136.442C199.523 131.322 208.641 131.111 202.033 119.642C197.677 112.497 189.539 98.5417 188.651 99.0585C187.592 98.3913 175.502 118.514 174.933 119.505C173.28 122.532 171.067 126.209 172.227 128.959ZM187.211 133.5C182.931 131.952 178.817 129.98 174.929 127.614C174.304 127.158 175.027 127.225 177.462 126.762C182.077 125.886 186.291 124.812 187.499 124.657C187.537 134.937 188.093 133.783 187.211 133.502V133.5ZM189.073 133.105C187.904 133.601 188.478 134.662 188.819 124.599C190.552 124.678 196.339 126.295 201.16 127.055C199.84 129.305 192.203 131.778 189.073 133.106V133.105ZM191.238 105.865C198.609 121.31 201.43 122.73 201.433 125.937C201.421 126.774 202.536 126.463 191.237 123.516C190.46 123.319 189.667 123.196 188.867 123.148C189 118.631 189.256 103.866 188.726 99.9577C189.435 101.98 190.274 103.953 191.238 105.866V105.865ZM174.942 126.313C176.051 122.81 184.91 109.108 188.222 100.884C187.685 105.948 187.499 117.564 187.494 123.196C184.555 123.532 174.849 126.61 174.942 126.314V126.313Z" fill="#0F0F0F"/>
<path d="M204.607 132.755C204.357 132.591 204.068 132.495 203.77 132.476C203.471 132.458 203.173 132.517 202.905 132.649C198.895 134.621 194.709 136.413 189.673 138.79C187.511 139.813 188.658 139.899 184.962 138.47C171.873 133.39 173.882 130.566 171.833 131.489C167.513 133.441 183.162 158 187.725 161.336C190.714 163.52 202.669 141.256 204.41 137.613C205.175 135.979 206.049 133.702 204.607 132.755ZM176.461 139.667C174.282 135.187 173.885 137.283 183.906 141.169C186.525 142.185 186.586 142.209 186.967 142.326C188.37 142.806 187.407 140.646 187.37 151.109C187.321 154.103 187.444 157.097 187.74 160.077C186.161 156.992 181.157 149.318 176.461 139.667ZM188.212 161.152C187.837 159.824 188.78 163.635 188.823 151.113C188.857 141.478 188.108 142.579 188.773 142.376L201.753 136.435C196.593 147.281 188.557 160.088 188.212 161.152Z" fill="#0F0F0F"/>
<path d="M155.536 203.907C153.589 203.033 151.818 201.809 150.312 200.297C149.322 198.825 148.194 197.45 146.944 196.191C144.583 193.473 142.625 190.428 141.131 187.151C140.531 185.622 140.36 184.244 138.818 176.055C137.423 168.649 136.135 159.715 142.543 154.628C147.635 150.585 157.323 151.822 161.583 153.703C167.051 156.119 174.618 164.278 176.869 174.913C177.853 179.553 178.528 191.79 176.643 196.143C172.88 204.827 157.311 204.479 155.536 203.907Z" fill="#FDFE1F"/>
<path d="M166.58 155.348C159.929 149.151 154.292 150.228 145.471 151.603C131.783 153.729 134.314 193.855 154.129 204.004C157.14 205.515 163.601 204.865 166.957 204.19C171.455 203.23 173.357 202.659 175.668 199.927C182.276 191.119 178.719 166.151 166.58 155.348ZM143.906 154.604C145.084 153.844 151.298 153.047 152.421 152.939C151.127 153.811 150.021 154.934 149.169 156.242C148.317 157.55 147.736 159.016 147.461 160.553C143.858 161.267 144.225 161.673 140.225 160.942C140.817 158.657 141.919 155.892 143.906 154.604ZM139.839 162.643C144.895 162.014 141.953 162.108 147.068 162.435C146.56 166.002 146.548 169.623 147.033 173.195C143.239 174.155 143.949 174.491 139.57 174.009C139.065 170.229 139.156 166.394 139.839 162.643ZM139.809 175.678C145.409 174.505 143.649 175.241 147.292 175.084C147.877 178.709 148.781 182.275 149.994 185.74C145.378 186.465 147.138 186.414 142.508 185.846C141.288 182.55 140.384 179.146 139.81 175.679L139.809 175.678ZM143.189 187.572C148.322 186.635 148.301 187.604 150.697 187.614C151.825 190.546 153.295 193.335 155.074 195.924C151.605 197.086 152.337 196.66 148.596 196.694C146.345 193.945 144.525 190.869 143.199 187.572H143.189ZM149.909 198.132C153.289 197.027 154.709 197.867 156.377 197.561C158.341 199.834 160.899 201.517 163.764 202.42C157.449 203.1 154.212 202.492 149.909 198.139V198.132ZM176.85 191.212C175.639 199.724 172.021 200.875 167.199 201.875C156.945 201.527 151.789 188.628 149.476 178.619C143.034 150.694 159.028 145.499 170.521 163.199C175.823 171.519 178.061 181.427 176.85 191.219V191.212Z" fill="#0F0F0F"/>
<path d="M173.423 179.12C174.05 184.6 173.924 192.72 169.933 196.457C169.473 196.934 168.923 197.314 168.314 197.574C167.398 197.967 166.385 198.076 165.406 197.889C164.427 197.701 163.526 197.225 162.82 196.521C151.735 187.584 146.905 153.161 160.193 157.24C165.383 158.832 169.249 166.078 171.322 171.096C173.333 176.091 173.524 175.996 171.86 170.899C165.14 150.923 150.1 150.606 150.637 169.235C151.149 182.725 161.426 206.59 170.769 197.345C174.997 193.195 175.068 184.942 173.989 179.03C172.941 173.726 172.748 173.851 173.423 179.12Z" fill="#0F0F0F"/>
<path d="M164.273 175.415C164.963 174.747 165.459 173.904 165.707 172.976C165.954 172.048 165.944 171.069 165.677 170.147C165.411 169.224 164.898 168.391 164.193 167.738C163.489 167.084 162.619 166.635 161.679 166.439C161.5 164.694 160.377 163.674 160.079 163.879C159.743 164.097 160.207 165.498 160.442 166.353C158.557 166.362 158.885 166.673 158.767 166.177C158.085 163.362 156.861 163.937 157.633 166.689C157.18 166.936 156.709 167.15 156.225 167.329C156.772 169.495 158.649 174.025 159.569 177.729C162.999 191.537 161.399 188.079 163.479 187.996C163.943 190.204 165.941 191.59 164.785 188.13C164.685 187.841 164.655 187.898 164.877 187.865C166.629 187.604 166.33 187.254 166.452 187.705C167.161 190.308 168.407 190.218 167.631 187.366C167.479 186.812 167.412 187.023 167.805 186.726C171.922 183.7 168.077 176.727 164.273 175.415ZM159.002 168.727C159.633 168.388 160.33 168.192 161.045 168.154C161.76 168.115 162.475 168.235 163.138 168.505C163.599 168.773 163.984 169.154 164.257 169.611C164.531 170.068 164.685 170.587 164.705 171.119C164.723 171.652 164.606 172.181 164.364 172.656C164.122 173.132 163.763 173.538 163.321 173.836C162.328 174.446 161.235 174.876 160.093 175.106C159.663 172.881 159.319 170.537 159.002 168.727ZM163.62 185.599C162.457 183.051 161.473 180.425 160.674 177.74C161.807 177.258 163.057 177.124 164.266 177.354C168.509 178.703 171.287 186.065 163.62 185.599Z" fill="#0F0F0F"/>
<path d="M204.762 263.485C206.87 262.205 209.092 261.136 211.311 260.067C219.286 256.227 221.65 256.616 227.324 259.04C231.398 260.781 246.865 267.2 248.444 271.257C248.924 272.496 248.804 272.27 248.908 288.246C248.942 293.563 248.186 293.23 247.673 295.965C246.929 299.929 248.124 301.32 243.455 303.744C237.313 307.209 230.598 309.539 223.63 310.624C221.577 311.229 219.424 311.412 217.299 311.163C215.174 310.913 213.121 310.236 211.265 309.173C208.276 307.758 196.343 300.864 194.753 297.984C193.793 296.235 193.97 295.568 193.57 279.973C193.214 265.963 191.93 271.264 204.762 263.485Z" fill="#FFC5F6"/>
<path d="M245.519 264.556C223.119 255.063 222.191 253.787 217.925 255.564L196.805 264.364C195.291 264.992 193.997 266.056 193.088 267.42C192.179 268.784 191.695 270.387 191.698 272.027V295.807C191.696 297.446 192.181 299.049 193.09 300.413C193.999 301.777 195.292 302.84 196.805 303.47C219.938 313.115 218.885 312.91 221.136 312.91C223.387 312.91 222.027 313.238 245.467 303.47C246.981 302.84 248.274 301.777 249.183 300.413C250.092 299.049 250.576 297.446 250.575 295.807V272.198C250.578 270.568 250.099 268.973 249.2 267.614C248.301 266.254 247.02 265.191 245.519 264.556ZM219.215 258.66C219.824 258.408 220.477 258.279 221.136 258.281C221.795 258.283 222.447 258.416 223.055 258.671C246.165 268.479 244.474 267.711 245.039 268.089L221.147 277.187L197.255 267.918C197.834 267.531 196.16 268.267 219.215 258.66ZM198.095 300.377C197.192 300.003 196.422 299.369 195.88 298.556C195.339 297.743 195.052 296.787 195.055 295.811C195.055 270.318 194.81 271.239 195.64 269.691L220.023 279.15C220.023 312.558 220.36 309.657 219.235 309.19L198.095 300.377ZM247.215 295.811C247.217 296.787 246.93 297.743 246.389 298.556C245.847 299.369 245.077 300.003 244.175 300.377L223.04 309.19C221.92 309.659 222.255 312.587 222.255 279.155L246.639 269.875C247.451 271.379 247.226 270.388 247.226 295.811H247.215Z" fill="#0F0F0F"/>
<path d="M111.115 263.484C113.223 262.204 115.445 261.136 117.664 260.067C125.637 256.227 128.003 256.616 133.677 259.04C137.751 260.78 153.218 267.2 154.797 271.257C155.277 272.496 155.157 272.27 155.261 288.246C155.295 293.563 154.539 293.23 154.026 295.964C153.28 299.929 154.477 301.32 149.808 303.744C143.666 307.209 136.951 309.539 129.983 310.624C127.93 311.228 125.777 311.412 123.652 311.162C121.527 310.913 119.474 310.236 117.618 309.172C114.629 307.758 102.696 300.864 101.106 297.984C100.146 296.235 100.323 295.568 99.9234 279.972C99.5666 265.963 98.2834 271.264 111.115 263.484Z" fill="#FFC5F6"/>
<path d="M151.871 264.701C129.482 255.207 128.541 253.933 124.277 255.709L103.157 264.509C101.643 265.137 100.35 266.201 99.4412 267.565C98.5323 268.928 98.0486 270.531 98.0515 272.17V295.951C98.0492 297.59 98.533 299.193 99.4418 300.557C100.351 301.921 101.644 302.984 103.157 303.613C126.29 313.26 125.237 313.061 127.488 313.061C129.845 313.061 129.421 312.953 151.82 303.613C153.334 302.985 154.627 301.921 155.536 300.557C156.445 299.193 156.929 297.59 156.927 295.951V272.345C156.929 270.715 156.45 269.12 155.551 267.761C154.652 266.401 153.372 265.337 151.871 264.701ZM125.568 258.805C126.177 258.553 126.83 258.424 127.489 258.426C128.149 258.428 128.801 258.561 129.408 258.817C152.498 268.609 150.823 267.855 151.392 268.234L127.503 277.333L103.604 268.063C104.175 267.679 102.319 268.497 125.568 258.805ZM104.448 300.524C103.547 300.148 102.777 299.513 102.236 298.7C101.695 297.887 101.407 296.932 101.408 295.956C101.408 270.405 101.173 271.37 101.994 269.836L126.376 279.297C126.376 312.717 126.714 309.804 125.589 309.335L104.448 300.524ZM153.568 295.956C153.57 296.932 153.282 297.888 152.741 298.701C152.2 299.514 151.43 300.148 150.528 300.524L129.392 309.335C128.272 309.804 128.604 312.733 128.604 279.301L152.991 270.013C153.804 271.527 153.578 270.517 153.578 295.956H153.568Z" fill="#0F0F0F"/>
<path d="M229.92 264.909C229.8 262.88 226.891 257.171 224.284 251.893C223.592 250.089 222.259 248.605 220.54 247.723C219.624 247.098 218.576 246.692 217.478 246.535C216.38 246.379 215.261 246.476 214.206 246.821C211.828 247.32 212.32 247.414 211.684 246.646C213.124 246.517 213.838 246.177 214.8 244.318C218.296 237.565 214.937 235.323 213.66 229.918C213.339 227.566 212.726 225.263 211.836 223.062C210.088 218.422 209.833 215.048 204.064 218.32C202.518 219.197 202.406 219.819 202.961 221.233C203.848 223.489 206.393 230.576 205.934 232.966C205.895 233.446 205.722 233.906 205.435 234.293C205.148 234.68 204.759 234.979 204.311 235.156C203.863 235.334 203.374 235.382 202.9 235.296C202.426 235.209 201.985 234.992 201.628 234.669C198.872 232.846 198.894 230.155 198.47 227.971C197.923 225.166 195.716 220.574 192.95 220.259C192.269 220.249 191.601 220.449 191.036 220.832C190.473 221.215 190.042 221.763 189.8 222.4C189.107 225.337 195.56 241.781 197.552 244.067C198.815 245.414 200.485 246.31 202.307 246.617C203.142 251.43 204.03 249.485 202.246 250.777C201.594 251.472 201.13 252.321 200.898 253.245C200.666 254.169 200.674 255.137 200.921 256.057C201.683 260.304 208.979 268.857 210.643 269.992C213.892 272.222 218.06 271.139 216.638 267.465C216.147 266.456 215.531 265.512 214.804 264.656C211.313 259.777 214.547 256.061 217.224 256.816C219.454 257.438 219.944 260.363 220.632 261.973C221.639 264.209 223.112 266.205 224.952 267.827C225.436 268.23 226.033 268.473 226.66 268.524C227.288 268.574 227.916 268.43 228.459 268.11C229.002 267.792 229.434 267.313 229.696 266.74C229.957 266.167 230.035 265.528 229.92 264.909Z" fill="#FDFE1F"/>
<path d="M230.34 262.62C229.744 257.419 223.994 245.129 216.42 244.852C219.77 238.024 213.802 222.708 211.031 218.745C211.394 215.091 204.119 214.817 202.722 218.622C201.855 221.033 205.696 229.888 205.503 232.507C205.431 234.033 204.14 234.507 202.943 233.54C201.495 232.369 198.904 225.18 196.984 222.99C196.934 222.503 196.788 222.031 196.555 221.601C196.321 221.171 196.005 220.791 195.625 220.484C195.244 220.176 194.806 219.947 194.337 219.809C193.867 219.671 193.375 219.628 192.888 219.681C190.1 219.825 188.888 222.633 189.784 223.841C187.935 225.822 193.16 240.7 195.656 244.336C196.244 245.289 197.018 246.115 197.932 246.762C198.845 247.41 199.88 247.867 200.975 248.105C201.341 249.427 201.538 249.545 201.378 249.401C200.593 250.306 200.044 251.391 199.78 252.559C199.515 253.727 199.543 254.942 199.861 256.097C201.02 260.897 208.692 270.904 210.703 270.315C210.922 270.686 211.236 270.993 211.612 271.203C214.631 273.081 219.341 270.387 217.01 267.462C216.21 264.902 213.642 259.216 216.138 258.851C219.229 258.398 220.701 264.756 223.048 266.718C223.514 269.278 229.677 270.718 230.055 267.358C230.478 265.816 230.575 264.202 230.34 262.62ZM193.045 230.164C190.917 222.468 189.604 224.574 190.688 222.694C190.92 222.288 191.255 221.95 191.66 221.715C192.064 221.48 192.523 221.356 192.991 221.355C193.649 221.342 194.301 221.49 194.889 221.787C195.477 222.083 195.984 222.519 196.365 223.056C196.322 224.761 198.53 230.947 199.154 232.576C199.432 233.465 199.901 234.284 200.528 234.974C201.157 235.662 201.928 236.206 202.789 236.564C200.389 238.715 200.135 242.804 200.516 245.822C196.394 241.82 194.792 236.448 193.045 230.164ZM216.335 268.112C216.26 269.18 216.22 269.532 214.789 270.011C213.472 270.26 212.117 270.224 210.815 269.905C210.495 268.715 203.338 258.664 202.58 255.452C202.288 254.405 202.367 253.289 202.802 252.292C204.824 255.568 208.746 258.836 212.562 258.852C211.839 261.652 214.346 266.587 216.335 268.112ZM228.92 267.024C228.194 268.289 225.258 267.329 224.316 266.798C223.196 266.169 224.016 266.718 222.792 263.046C221.772 260.222 220.578 256.68 217.152 256.11C217.655 254.934 217.25 253.924 217.024 253.979C216.797 253.992 216.759 254.556 216.306 255.224C213.295 259.747 203.263 253.441 202.975 243.355C202.596 234.897 207.746 237.043 207.885 236.875C207.991 236.78 207.844 236.216 206.962 235.72C209.888 232.776 207.077 227.856 205.522 224.225C204.952 222.745 204.173 221.354 203.208 220.096C203.978 218.58 205.218 217.376 208.448 217.536C209.282 217.577 209.624 217.987 210.239 218.572C209.714 223.574 218.839 240.222 212.332 245.656C210.957 242.643 210.874 238.755 208.948 237.313C207.25 236.043 208.207 238.113 208.386 239.803C208.818 243.873 208.935 247.417 212.479 250.251C213.565 251.1 214.314 251.494 214.954 252.033C216.221 252.993 216.612 253.889 217.008 253.873C217.687 253.801 217.263 251.945 216.413 250.7C215.647 249.772 214.824 248.892 213.949 248.067C216.285 247.163 218.909 247.587 221.517 250.545C224.092 253.414 230.282 264.508 228.92 267.024Z" fill="#0F0F0F"/>
<path d="M153.993 229.322C153.089 228.205 151.813 227.452 150.399 227.199C146.761 227.018 146.347 234.144 144.078 236.959C142.462 238.964 140.254 238.788 139.678 237.868C139.313 236.666 139.354 235.378 139.795 234.202C140.695 232.52 141.367 230.725 141.793 228.864C142.471 227.122 142.49 225.193 141.849 223.437C141.223 222.132 138.052 221.399 136.358 223.138C135.593 224.1 135.046 225.218 134.758 226.413C133.417 230.271 127.006 240.311 133.457 244.973C133.065 247.533 133.323 247.116 132.543 246.893C126.476 245.176 118.494 262.332 118.489 264.367C118.526 264.976 118.763 265.555 119.163 266.016C119.564 266.476 120.105 266.791 120.703 266.911C123.974 267.608 125.561 263.871 126.668 262.143C128.391 259.453 130.438 259.272 131.244 259.816C131.802 260.432 132.186 261.184 132.357 261.997C132.528 262.809 132.481 263.652 132.22 264.44C131.751 265.98 130.151 267.925 131.236 269.588C132.372 271.332 133.012 271.445 134.103 271.461C137.009 271.506 135.798 271.736 138.774 268.64C140.605 266.229 142.267 263.692 143.747 261.05C144.768 259.127 145.042 256.894 144.518 254.78C143.993 252.667 142.707 250.822 140.905 249.599C141.305 248.064 141.001 248.445 141.793 248.589C144.487 248.641 147.12 247.781 149.265 246.149C150.808 244.024 151.981 241.654 152.737 239.14C153.017 238.127 153.166 237.082 153.441 236.069C153.975 234.148 155.372 231.418 153.993 229.322Z" fill="#FDFE1F"/>
<path d="M155.171 229.377C154.267 226.755 150.79 225.281 148.67 227.231C146.658 227.579 143.246 238.475 141.31 237.678C138.763 236.787 143.982 227.438 143.134 224.331C142.957 223.763 142.66 223.239 142.264 222.795C141.868 222.351 141.382 221.996 140.838 221.755C140.295 221.513 139.706 221.389 139.111 221.392C138.516 221.394 137.928 221.524 137.387 221.771C135.376 222.785 123.598 237.497 131.126 245.91C126.486 246.689 124.726 249.353 122.635 252.764C121.083 255.35 117.448 262.31 117.861 265.195C118.235 268.102 122.883 268.969 124.147 266.764C124.947 266.715 126.534 265.185 127.912 263.134C128.177 262.602 128.606 262.169 129.135 261.898C129.664 261.627 130.266 261.533 130.853 261.628C134.336 262.684 129.547 267.782 130.795 268.947C130.876 269.539 131.099 270.104 131.444 270.592C131.789 271.08 132.247 271.478 132.779 271.751C133.311 272.026 133.901 272.167 134.499 272.162C135.097 272.158 135.685 272.009 136.213 271.727C139.253 269.977 148.816 258.185 144.203 250.897C150.942 250.049 152.698 243.799 154.146 237.655C154.363 236.694 155.84 230.102 155.171 229.377ZM123.64 266.26C121.251 266.675 119.883 266.351 118.651 264.262C121.051 261.836 125.754 251.609 128.515 249.844C129.509 249.202 130.633 248.79 131.806 248.638C131.594 249.621 131.215 250.56 130.686 251.415C127.741 256.11 129.125 259.105 133.07 252.871C135.086 249.622 134.896 246.091 135.582 243.035C136.222 240.113 137.117 239.316 136.813 238.766C136.384 237.927 133.467 238.825 132.674 243.379C128.194 237.019 137.352 225.947 136.762 222.979C138.707 223.031 140.134 222.307 142.362 225.219C140.514 226.339 136.97 234.58 137.859 237.585C137.568 237.745 136.882 238.329 137.048 238.635C137.23 238.974 138.043 238.807 138.56 238.932C142.166 238.932 140.058 259.27 132.64 259.011C130.045 258.873 130.216 256.513 129.635 256.473C129.258 256.409 128.597 257.545 129.05 258.943C125.92 259.788 123.467 264.737 123.64 266.26ZM136.502 270.561C134.322 270.63 133.528 270.764 131.702 268.86C132.953 268.149 133.921 267.03 134.445 265.69C134.97 264.35 135.018 262.871 134.582 261.5C138.637 260.596 140.606 256.23 141.734 252.236C145.459 257.579 137.355 265.964 136.502 270.559V270.561ZM153.088 232.9C149.979 240.923 149.931 248.191 142.718 248.201C143.239 245.596 143.174 242.908 142.53 240.331C145.675 239.273 148.216 232.91 148.888 229.662C149.299 227.545 148.802 228.044 149.688 227.862C150.532 227.816 151.375 227.975 152.145 228.325C152.914 228.676 153.588 229.207 154.107 229.875C154.501 230.311 154.366 229.599 153.088 232.9Z" fill="#0F0F0F"/>
</svg>
