<svg width="320" height="320" viewBox="0 0 320 320" fill="none" xmlns="http://www.w3.org/2000/svg">
<path d="M145.331 211.389C160.276 253.984 73.8877 309.369 49.7513 307.4C34.819 306.177 59.5668 247.696 63.3771 238.84C71.7444 219.331 84.778 190.155 109.152 187.658C116.952 187.091 124.721 189.109 131.26 193.398C137.799 197.687 142.744 204.009 145.331 211.389Z" fill="#FDFE1F"/>
<path d="M39.9938 286.321C45.2458 263.536 62.9394 216.165 80.6072 197.107C86.0329 190.476 93.4378 185.756 101.739 183.637C110.04 181.517 118.801 182.109 126.741 185.326C134.681 188.543 141.384 194.217 145.869 201.516C150.353 208.816 152.384 217.359 151.665 225.896C150.332 242.032 137.357 260.711 125.584 272.296C103.212 294.244 27.6295 346.057 39.9938 286.321ZM51.7208 300.893C68.5583 301.247 106.282 274.266 117.552 263.897C175.936 209.96 116.49 173.524 89.4121 205.152C71.873 225.632 49.9959 288.31 51.7208 300.893Z" fill="#0F0F0F"/>
<path d="M74.8338 269.792C77.241 260.215 90.6415 219.589 106.288 208.319C121.736 197.377 136.443 207.321 128.764 226.405C120.146 248.655 86.7668 268.28 76.2498 271.717C74.0357 272.438 74.6793 270.603 74.8338 269.792ZM115.267 237.611C125.565 224.429 129.118 207.752 116.554 210.32C98.7448 213.719 87.3975 251.146 76.2433 270.443C84.3724 263.227 103.34 252.762 115.267 237.598V237.611Z" fill="#0F0F0F"/>
<path d="M223.7 256.379C215.977 261.399 193.823 254.834 184.908 250.753C161.834 240.172 162.124 261.631 148.556 267.964C143.407 270.346 135.863 268.544 134.653 263.028C133.006 255.536 143.754 248.057 139.686 241.549C87.2109 199.79 87.7193 197.351 81.7593 203.807C76.7389 209.233 72.9221 217.967 65.5461 217.542C59.3993 217.156 55.8915 209.683 57.0243 203.639C59.3543 191.539 74.2545 183.751 72.2914 170.904C71.6478 166.695 70.5729 165.523 54.8488 139.07C47.6208 126.905 50.1825 122.676 56.7798 117.308C108.708 75.0731 115.351 81.1104 129.858 73.3868C142.486 66.6672 167.189 35.0132 224.865 18.0856C254.511 9.38363 265.994 19.2441 270.821 38.6819C287.62 106.199 239.926 134.352 249.098 172.462C254.054 192.961 230.78 251.79 223.7 256.385V256.379Z" fill="#92FCFF"/>
<path d="M212.076 147.669C214.593 140.054 218.281 129.055 215.474 121.531C212.9 114.579 198.907 99.9688 185.816 99.4668C181.211 99.5011 176.679 100.62 172.588 102.732C168.496 104.844 164.96 107.891 162.265 111.625C155.856 121.661 152.763 133.456 153.421 145.345C155.842 152.702 171.16 164.905 187.747 163.367C212.115 161.037 217.785 132.794 212.076 147.662V147.669Z" fill="#FFC5F6"/>
<path d="M149.038 133.432C148.965 140.682 151.241 147.761 155.527 153.609C159.813 159.457 165.878 163.759 172.814 165.871C177.356 167.263 182.138 167.694 186.856 167.139C191.574 166.584 196.125 165.054 200.22 162.647C204.315 160.239 207.864 157.006 210.643 153.154C213.422 149.301 215.37 144.913 216.363 140.267C217.277 135.17 216.691 132.331 216.15 132.299C215.507 132.254 214.927 134.938 213.125 139.308C199.847 171.426 157.644 162.737 157.773 133.451C157.858 128.389 159.273 123.439 161.877 119.097C164.48 114.756 168.18 111.175 172.605 108.716C177.03 106.257 182.025 105.005 187.086 105.086C192.148 105.168 197.1 106.579 201.443 109.18C207.13 112.091 211.539 117.005 213.82 122.973C215.301 127.375 215.59 130.162 216.266 130.149C217.496 130.214 220.54 114.49 204.681 103.934C199.321 100.306 193.074 98.2063 186.611 97.8586C180.148 97.5109 173.713 98.9289 167.994 101.96C162.276 104.992 157.491 109.523 154.151 115.067C150.812 120.611 149.044 126.96 149.038 133.432Z" fill="#0F0F0F"/>
<path d="M133.99 149.464C149.502 197.016 220.514 193.405 231.9 142.346C233.005 138.832 233.311 135.116 232.795 131.468C232.357 131.417 232.01 135.285 229.918 141.805C226.621 153.169 219.444 163.017 209.636 169.637C199.829 176.256 188.011 179.228 176.239 178.035C167.811 176.929 159.861 173.489 153.284 168.104C146.708 162.72 141.767 155.604 139.019 147.561C136.271 139.518 135.825 130.867 137.732 122.584C139.639 114.301 143.822 106.715 149.811 100.683C157.81 91.9375 168.696 86.3717 180.469 85.0084C192.242 83.645 204.112 86.5758 213.898 93.2622C219.69 96.8923 222.316 99.7564 222.651 99.4282C220.778 96.2458 218.174 93.5544 215.056 91.5758C173.046 59.6322 119.019 103.554 133.99 149.464Z" fill="#0F0F0F"/>
<path d="M60.6673 109.553C80.5851 89.9847 105.331 76.0427 132.388 69.1451C155.668 45.543 212.07 3.32693 245.024 6.13318C300.634 9.2355 280.713 108.703 253.179 161.526C258.09 206.767 238.311 253.219 229.049 258.773C212.314 268.807 187.245 260.183 170.478 250.676C161.261 261.534 147.667 280.135 136.706 271.041C127.998 263.89 133.154 252.755 138.509 244.092C122.012 238.299 91.7484 216.48 85.9493 207.134C79.4292 214.465 75.3936 219.685 68.5711 220.953C65.6363 221.385 62.6495 220.644 60.2572 218.89C57.8649 217.136 56.2595 214.511 55.7885 211.582C54.0957 203.774 59.1483 194.847 64.0592 186.86C75.2907 168.606 75.3872 182.251 57.7065 156.886C39.9036 130.162 47.7623 122.252 60.6673 109.553ZM264.893 84.9528C239.933 73.7922 220.958 57.5983 246.91 69.3704C251.975 71.7969 258.598 74.3843 266.09 77.4287C273.633 22.8806 253.938 3.24967 201.456 32.2197C226.925 56.5105 248.493 77.551 219.677 57.1091C210.92 50.6216 202.564 43.6103 194.653 36.1137C148.684 63.3524 101.088 104.899 91.6583 157.561C121.693 181.715 153.355 203.771 186.421 223.573C218.184 201.123 253.307 149.632 264.893 84.9528ZM224.904 246.892C236.308 224.974 243.08 200.945 244.799 176.298C229.351 201.354 202.621 233.124 174.99 243.68C188.255 249.408 218.184 258.889 224.936 246.898H224.904V246.892ZM138.914 263.105C142.609 272.882 152.797 260.53 157.843 255.896C167.498 246.589 166.906 248.662 164.054 246.756C157.158 247.992 150.068 247.602 143.349 245.617C141.096 250.766 136.996 257.994 138.94 263.105H138.908H138.914ZM90.2745 184.092C91.4524 199.642 94.973 203.626 104.158 210.14C134.254 231.676 151.555 244.62 180.75 227.261C150.371 213.017 105.529 178.254 90.7057 164.184C89.9141 170.788 89.7725 177.456 90.2745 184.092ZM75.664 209.567C87.9639 197.621 81.5597 208.28 80.3175 184.716C80.1887 182.226 80.9611 183.706 75.9665 178.64C53.1818 213.963 63.6087 220.947 75.664 209.567ZM80.4912 171.078C84.4383 138.098 98.3608 107.109 120.397 82.256C101.216 90.9704 83.687 102.936 68.584 117.624C58.8715 127.143 47.6915 129.962 80.4719 171.084H80.4848L80.4912 171.078Z" fill="#0F0F0F"/>
</svg>
