<svg width="320" height="320" viewBox="0 0 320 320" fill="none" xmlns="http://www.w3.org/2000/svg">
<path d="M58.973 125.518L58.7522 126.208C61.021 123.989 57.9634 120.622 61.7202 117.416C65.7202 114.003 73.2066 110.507 76.4034 111.24C77.8856 111.722 79.1477 112.716 79.9634 114.045C85.1426 114.197 90.4098 109.201 108.551 110.989C115.384 111.662 115.271 111.693 115.656 111.595C116.711 111.323 118.328 109.035 120.992 108.757C125.997 108.246 136.768 113.077 141.952 117.208C148.231 122.213 144.727 125.472 144.738 126.155C145.17 127.283 145.799 128.323 146.599 129.227C149.559 132.702 156.467 135.947 160.935 155.446C163.541 166.829 163.309 172.576 160.445 182.347C148.416 223.376 122.536 222.355 119.536 226.771C116.147 231.763 109.511 232.038 104.016 232.115C99.2482 232.182 94.4354 232.803 92.8674 229.973C92.2274 228.825 92.3586 228.515 90.8114 228.147C86.6514 227.161 73.8354 222.347 73.4722 222.181C68.7762 220.038 65.8562 216.408 63.8722 215.91C61.6818 215.361 58.933 217.232 57.2834 215.34C55.141 212.884 51.0338 214.598 42.4338 196.433C39.8738 191.027 37.1186 184.825 39.8018 179.048C40.6722 177.173 43.0274 174.347 41.9074 171.776C40.3474 168.217 40.301 142.011 58.973 125.518Z" fill="#92FCFF"/>
<path d="M119.648 165.16C117.656 164.585 115.606 164.233 113.536 164.11C115.082 162.31 117.536 161.651 119.578 160.441C121.164 159.535 122.482 158.225 123.399 156.645C124.317 155.066 124.8 153.271 124.8 151.444C124.676 149.963 124.363 148.503 123.869 147.1C121.75 140.155 120.368 139.081 115.848 137.297C114.003 136.826 112.226 136.121 110.56 135.2C109.312 134.208 108.781 131.641 108.17 130.208C103.53 119.328 96.64 129.408 99.1008 136.916L96.0608 137.556C95.3152 134.153 94.3632 130.43 91.512 128.436C88.312 126.196 85.3808 130.553 85.064 133.945C84.8816 135.937 86.3232 138.004 83.544 138.281C81.7959 138.458 80.0983 138.971 78.544 139.79C74.1008 142.136 76.3344 146.046 78.7648 147.035C80.9632 147.928 81.8128 147.806 81.8528 151.71C81.9152 157.745 83.5856 163.836 84.8128 169.7C85.44 172.683 88.1072 187.729 87.7712 188.465C87.4704 189.123 85.4032 189.745 83.9312 191.273C83.4872 191.635 83.1373 192.099 82.9116 192.626C82.6858 193.152 82.5909 193.726 82.635 194.297C82.679 194.868 82.8606 195.42 83.1644 195.906C83.4681 196.391 83.8849 196.796 84.3792 197.086C88.7856 200.491 93.616 198.764 94.6752 200.118C95.6016 201.3 95.4 205.262 97.3952 208.086C100.493 212.472 107.594 210.265 105.438 198.043L109.134 197.228C111.686 212.632 121.578 209.843 121.302 202.651C121.133 198.192 119.195 198.032 123.202 195.344C126.156 193.675 128.372 190.953 129.408 187.723C129.923 184.248 129.896 180.714 129.326 177.248C128.307 172 124.875 166.88 119.65 165.16H119.648ZM97.048 156.2C96.6325 154.041 96.0783 151.912 95.3888 149.825C94.6656 146.804 98.792 146.427 100.776 145.883C112.374 142.713 117.315 155.955 98.3984 157.55C98.0402 157.547 97.6975 157.404 97.4447 157.15C97.1918 156.896 97.0493 156.553 97.048 156.195V156.2ZM106.915 187.088C106.441 187.08 105.967 187.036 105.499 186.958C105.67 186.512 104.219 187.856 102.867 186.513C100.922 184.593 100.787 178.083 99.8048 176.561C97.9904 173.758 112.266 169.23 114.272 179.03C115.104 183.1 111.306 188.1 106.915 187.083V187.088Z" fill="white"/>
<path d="M164.122 164.414C163.248 152.846 157.597 136.894 145.97 126.291C152.763 116.144 121.354 100.704 115.04 110.528C104.44 108.107 92.3297 108.108 81.8977 111.875C81.3889 112.126 80.8305 112.259 80.2641 112.265C79.8689 112.134 79.3169 109.054 75.1601 109.582C70.0989 110.729 65.3773 113.047 61.3745 116.35C59.6497 117.766 58.0289 119.054 58.5553 121.886C59.4641 126.062 58.1489 122.502 50.8401 132.686C42.5014 144.588 38.972 159.204 40.9601 173.6C30.7041 180.688 41.8593 200.099 48.9601 210.4C52.7489 215.792 58.5009 219.724 64.1937 216.787C71.3874 223.493 80.5428 227.713 90.3137 228.828C92.3377 237.272 118.917 234.542 121.202 227.848C122.349 224.488 120.528 228.446 132.587 221.529C152.64 214.438 165.335 181.313 164.122 164.414ZM160.335 173.108C156.815 189.268 152.952 201.356 141.09 212.992C138.474 215.393 135.496 217.368 132.266 218.843C130.269 219.643 127.898 221.672 121.531 224.142C120.034 218.393 107.226 219.841 107.391 220.87C107.498 221.564 120.882 221.372 118.695 226.219C116.866 231.27 89.3569 233.286 93.2993 226.232C95.5105 223.112 102.794 222.636 102.765 221.929C102.741 221.176 91.9921 220.736 90.3793 226.507C81.7251 224.22 73.5295 220.459 66.1521 215.39C66.9217 214.649 67.5735 213.795 68.0849 212.857C77.2929 219.694 86.4353 221.888 86.5793 221.321C86.7233 220.755 78.9153 218.996 68.7793 211.328C71.7825 203.168 64.4977 194.166 64.1745 194.336C63.4385 194.721 68.1985 201.96 67.1921 207.92C66.3601 212.921 62.4481 216.257 57.7089 214.217C53.3569 212.483 49.4273 205.537 46.3665 200.169C42.8145 193.88 36.6561 180.95 42.0465 176.184C44.4465 173.934 48.7905 173.169 53.0465 175.928C56.6833 178.347 58.4449 181.972 58.8417 181.782C59.4081 181.512 55.9441 172.806 48.2497 171.862C47.2897 163.92 49.1249 158.473 48.5969 158.316C48.1361 158.171 45.8017 164.272 46.5921 171.792C45.3697 171.824 44.1617 172.064 43.0209 172.502C40.8673 141.268 60.8961 126.832 61.5873 125.641C63.0481 122.921 61.1681 121.321 61.9265 120.284C62.8977 118.3 74.6417 111.668 76.8289 112.854C76.8129 112.841 76.9009 112.87 77.1729 113.334C81.0209 119.977 86.4257 107.702 114.328 112.625C113.837 117.377 123.963 121.457 124.199 120.32C124.341 119.728 114.032 114.768 117.674 111.547C122.895 107.11 139.754 115.742 143.17 120.827C145.472 124.11 143.762 128.433 134.21 125.678C132.639 125.222 131.751 124.902 131.632 125.108C131.205 125.824 139.458 130.948 144.387 127.816C157.375 140.716 162.88 161.571 160.335 173.108Z" fill="#0F0F0F"/>
<path d="M69.4578 127.742C63.7922 125.879 57.1666 135.671 57.9378 136.062C58.0514 136.119 58.5266 135.322 59.573 134.054C65.493 127.004 73.1026 126.425 69.8882 136.222C69.8206 135.824 69.6728 135.444 69.4538 135.105C69.2349 134.765 68.9493 134.474 68.6145 134.249C68.2797 134.023 67.9025 133.868 67.5059 133.793C67.1094 133.718 66.7016 133.724 66.3074 133.81C62.3506 134.327 63.1394 137.65 56.1234 146.71C53.0226 150.897 56.2018 152.71 58.373 152.222C53.4482 155.684 50.821 153.009 51.213 149.428C51.7122 144.719 54.6258 140.714 54.3154 140.506C54.005 140.298 50.741 145.054 50.0578 149.306C49.4674 153.119 51.9474 155.447 54.6578 155.342C63.765 154.919 78.301 130.522 69.4578 127.742ZM58.0802 151.409C56.6994 151.569 55.4834 150.689 55.8402 149.329C56.277 147.615 58.3426 146.263 61.6562 140.543C62.4514 138.915 63.3968 137.365 64.4802 135.913C64.9388 135.35 65.5905 134.977 66.3085 134.868C67.0265 134.758 67.7595 134.92 68.365 135.321C71.4194 138.338 62.0626 150.89 58.0802 151.409Z" fill="#0F0F0F"/>
<path d="M146.589 143.189C146.293 143.357 151.549 152.856 149.733 156.267C148.861 157.966 147.034 158.269 144.978 155.947C145.746 155.656 146.388 155.104 146.791 154.388C147.194 153.672 147.333 152.837 147.184 152.029C146.936 150.029 143.135 142.798 142.984 142.528C140.877 138.754 137.578 138.786 136.299 140.718C135.979 136.406 139.042 134.25 143.512 139.102C147.28 142.982 143.471 137.701 142.28 136.742C138.28 132.891 133.568 136.496 135.138 142.771C135.979 146.17 141.047 153.907 143.653 156.872C147.642 161.411 151.755 158.4 151.504 154.376C151.259 149.965 146.997 142.864 146.589 143.189ZM136.48 141.936C136.762 141.954 136.557 141.005 137.835 140.506C140.815 139.242 142.81 144.666 143.578 146.168C145.287 149.653 146.005 150.899 146.2 152.168C146.36 152.816 146.266 153.501 145.937 154.082C145.608 154.664 145.07 155.097 144.432 155.294C142.349 152.662 137.21 145.102 136.48 141.936Z" fill="#0F0F0F"/>
<path d="M142.731 191.344C140.499 193.536 136.935 200.921 135.786 204.269C134.186 209.491 138.365 211.281 141.375 209.229C144.671 207.006 148.123 200.525 147.661 200.341C147.349 200.165 142.464 208.437 139.085 208.585C137.464 208.68 136.467 207.496 137.239 204.998C137.82 205.425 138.53 205.642 139.251 205.613C139.972 205.584 140.661 205.311 141.207 204.838C141.975 204.182 142.634 203.408 143.159 202.544C145.399 199.184 149.648 194.001 146.227 191.773C145.884 191.533 145.487 191.381 145.071 191.329C147.779 189.529 150.293 190.678 149.775 193.995C149.695 194.715 149.554 195.427 149.352 196.123C148.232 200.737 150.333 195.774 150.68 194.133C151.723 189.24 146.866 187.264 142.731 191.344ZM144.112 192.189C145.055 191.763 146.538 192.561 146.488 194.353C146.488 195.891 145.487 197.041 142.269 201.961C141.818 202.743 141.253 203.453 140.592 204.069C140.187 204.466 139.65 204.7 139.083 204.726C138.516 204.752 137.96 204.568 137.52 204.209C138.49 201.68 142.01 194.115 144.08 192.131L144.112 192.189Z" fill="#0F0F0F"/>
<path d="M52.4353 183.059C48.8097 178.338 44.8401 179.25 44.3601 183.31C44.1225 186.394 45.0255 189.457 46.8977 191.918C47.2801 191.731 44.8033 187.816 45.5041 183.504C45.7153 182.131 46.5761 180.93 48.0257 181.307C47.9953 189.43 50.4049 193.336 54.2209 199.168C56.067 202.115 58.5681 204.596 61.5297 206.419C61.5567 206.839 61.4866 207.26 61.3248 207.648C61.1631 208.036 60.914 208.382 60.5969 208.659C58.1969 209.814 54.9969 204.848 53.2113 202.589C48.5857 196.885 55.1153 207.003 56.4609 208.376C59.7425 211.832 63.7585 210.179 62.9025 204.446C62.3297 200.853 58.6609 191.178 52.4353 183.059ZM52.7249 194.821C50.3221 190.822 48.9702 186.281 48.7953 181.619C52.9553 183.89 61.1713 200.949 61.5201 205.51C57.3777 202.608 55.3297 198.939 52.7249 194.821Z" fill="#0F0F0F"/>
<path d="M137.939 123.61C138.358 123.564 138.753 123.394 139.075 123.123C139.398 122.852 139.632 122.491 139.749 122.087C140.389 119.632 131.315 115.634 131.109 116.101C130.999 116.335 138.517 121.026 138.309 121.723C138.101 122.523 136.461 121.8 135.701 121.475C133.762 120.691 122.615 115.69 122.682 113.731C122.704 112.771 126.663 113.959 126.757 113.795C126.917 113.512 124.677 112.195 122.746 112.41C121.416 112.471 120.709 114.403 123.039 116.37C126.12 118.888 135.547 123.919 137.939 123.61Z" fill="#0F0F0F"/>
<path d="M96.3904 227.493C96.3728 227.931 100.541 228.422 105.658 227.888C110.774 227.353 114.758 226.041 114.653 225.614C114.547 225.16 110.493 225.75 105.491 226.254C100.49 226.758 96.4016 227.025 96.3904 227.493Z" fill="#0F0F0F"/>
<path d="M131.45 182.685C131.402 171.992 125.733 163.485 114.029 163.949C135.277 157.155 125.946 135.702 110.931 134.849C110 130.499 109.086 125.501 104.835 124.312C100.835 123.163 95.9792 126.808 97.8592 136.489C97.677 136.519 97.4956 136.553 97.3152 136.592C94.5824 123.737 82.8432 123.646 84.7072 136.323C73.6912 137.11 72.7168 143.843 76.4576 146.712C82.5088 151.248 78.7328 140.814 83.16 168.774C86.8048 191.776 87.5088 187.635 85.1392 189.08C79.8048 192.334 80.5536 198.752 89.1312 200.827C95.3984 202.293 93.7712 199.321 94.784 204.347C97.464 216.238 109.21 211.337 106.52 198.678C106.944 198.651 107.39 198.611 107.986 198.518C108.285 209.398 116.248 211.813 119.912 208.541C120.796 207.744 121.466 206.739 121.862 205.617C122.258 204.495 122.367 203.292 122.179 202.117C121.859 200.925 120.976 199.318 120.803 198.693C123.998 197.428 126.731 195.217 128.634 192.356C130.536 189.495 131.519 186.12 131.45 182.685ZM126.946 189.885C123.387 196.387 114.498 197.941 114.69 199.145C114.798 199.837 117.154 199.517 118.128 199.267C118.52 200.637 119.278 201.801 119.525 202.777C119.584 203.458 119.49 204.143 119.248 204.781C119.007 205.42 118.624 205.996 118.13 206.467C117.363 206.978 116.436 207.191 115.523 207.068C114.611 206.945 113.774 206.494 113.17 205.798C111.058 203.862 110.75 200.475 110.71 197.851C111.435 197.593 113.533 196.627 113.283 196.078C113.034 195.529 110.048 196.209 106.755 196.469C103.235 196.771 100.243 197.131 100.25 197.768C100.25 198.158 101.637 198.577 103.725 198.699C106.038 207.681 99.4688 213.227 96.6592 203.861C94.4752 196.32 92.4592 190.792 93.712 198.539C86.832 198.838 80.7392 194.837 86.2304 190.675C89.7216 188.115 93.5088 187.888 93.5152 187.448C93.5152 187.273 92.6976 187.048 91.2064 187.157C90.2971 187.234 89.3968 187.395 88.5168 187.637C87.3376 176.707 84.536 159.093 82.3088 148.638C86.2672 149.013 88.6064 148.235 88.5488 147.966C88.5264 147.536 85.4768 147.768 80.976 146.526C74.36 144.579 76.0368 139.499 85.0832 139.037L85.0384 138.077C85.128 138.488 85.7776 141.24 86.1888 141.149C86.8992 140.997 85.016 132.297 87.7888 129.917C90.7488 127.377 93.9216 133.437 94.7072 137.48C93.0512 138.296 92.1472 139.307 92.3824 139.653C92.7248 140.171 94.9104 139.353 97.6368 138.761C100.357 138.131 102.68 137.936 102.768 137.321C102.826 136.921 101.648 136.409 99.88 136.361C99.7616 134.352 99.688 130.699 100.659 128.937C101.691 127.017 103.571 126.15 105.386 127.595C107.05 128.909 107.552 131.168 108.978 134.883C107.4 135.029 106.534 135.446 106.589 135.601C106.621 136.045 109.485 135.683 113.525 137.192C116.103 138.088 118.396 139.654 120.167 141.73C121.939 143.806 123.125 146.316 123.605 149.003C125.859 162.713 100.261 164.584 112.128 165.153C116.96 165.473 121.694 166.158 124.76 169.918C128.504 174.312 130.434 183.768 126.946 189.889V189.885Z" fill="#0F0F0F"/>
<path d="M112.269 149.616C111.031 142.736 100.519 143.065 95.5393 146.784C95.0385 146.177 93.3265 144.558 92.9409 144.995C92.5249 145.465 95.0689 148.184 95.7681 152.475C96.5921 156.744 95.1361 160.182 95.6929 160.475C96.1569 160.734 97.1329 158.971 97.4817 157.993C105.325 159.417 113.41 155.115 112.269 149.616ZM97.8817 156.544C98.4577 153.601 97.923 150.549 96.3809 147.977C99.6913 146.017 105.074 145.656 107.458 146.833C113.546 149.79 108.81 157.348 97.8817 156.544Z" fill="#0F0F0F"/>
<path d="M115.896 178.221C114.395 172.589 106.368 169.403 99.1954 174.611C98.1378 173.491 97.2754 173.079 97.0882 173.261C96.597 173.76 101.943 180.01 100.411 187.858C100.123 189.402 99.6114 190.306 99.8434 190.515C100.035 190.719 101.104 190.071 101.883 188.338C102.923 186.027 101.186 187.285 105.49 188.047C112.663 189.299 117.291 183.378 115.896 178.221ZM113.055 183.197C111.354 185.904 107.615 187.296 102.775 185.586C102.146 185.365 103.949 181.026 100.151 175.762C109.135 170.594 116.64 177.523 113.055 183.2V183.197Z" fill="#0F0F0F"/>
<path d="M97.9807 103.35C100.362 103.401 103.451 104.79 106.971 104.878C109.674 104.947 112.464 103.918 112.87 103.049C113.19 102.382 111.611 94.5006 111.475 93.8318C111.304 92.9966 110.934 92.6078 109.654 93.219C103.166 96.3182 98.2143 93.5214 95.2831 92.9678C91.8287 92.315 89.8271 93.7422 89.5903 94.7358C89.7343 96.6078 89.9903 98.4686 90.3551 100.31C90.5439 101.355 90.6127 103.881 91.4303 104.64C92.5935 105.721 94.7279 103.28 97.9807 103.35Z" fill="#FFC5F6"/>
<path d="M113.618 103.179C112.406 99.2445 112.658 97.3661 111.731 91.9405C111.579 91.0381 106.045 95.2605 99.7664 93.5789C96.8464 92.7965 92.104 90.8685 88.6864 93.7389C88.5894 101.686 90.0409 109.577 92.96 116.969C87.0848 115.169 81.6416 117.246 81.84 117.8C82.0384 118.353 87.6 116.329 93.7472 118.995C97.0992 120.449 96.5536 120.694 96.8656 120.35C100.419 114.259 104.066 114.673 103.906 113.95C103.85 113.377 99.0192 114.211 96.28 118.27C95.8336 114.894 94.4864 109.411 93.424 104.894C98.3008 102.459 99.6032 105.425 107.426 105.493C109.672 105.633 111.893 104.958 113.682 103.592C113.794 103.499 113.627 103.317 113.618 103.179ZM112.15 103.083C109.963 105.033 103.603 104.293 100.707 103.665C90.2848 101.376 95.288 110.744 90.7968 94.3581C95.7888 92.2253 101.197 98.4365 110.53 93.8413L110.549 93.8845C110.584 94.0445 110.677 94.7613 110.912 96.4525C111.168 98.6893 111.584 100.904 112.15 103.083Z" fill="#0F0F0F"/>
<path d="M308.303 141.982C309.963 138.462 304.888 138.496 302.485 131.707C300.903 127.227 302.848 114.373 302.471 114.182C302.311 114.101 299.751 112.384 299.591 112.262C284.968 101.921 284.504 104.603 281.89 90.9822C280.73 84.9438 280.909 86.5022 281.805 80.3934C282.045 78.7646 282.616 77.6958 281.307 77.6382C272.285 77.2494 264.027 73.5294 259.84 69.7182C251.762 62.3582 249.629 58.9646 247.051 53.9278C245.896 51.0985 245.109 48.1323 244.711 45.1022C244.611 43.6526 244.539 44.4206 237.223 44.859C230.228 46.032 223.053 45.4621 216.331 43.1998C208.491 40.3838 202.762 36.2878 196.919 24.4478C196.599 23.7822 196.439 23.0398 196.083 22.3838C195.371 21.0894 179.359 26.979 167.989 25.1886C162.839 24.1466 157.817 22.5528 153.008 20.435C149.895 18.859 142.992 14.211 140.528 11.1022C139.463 9.76302 138.416 7.36782 137.056 8.30702C130.44 12.883 116.136 18.2622 108.522 17.0542C79.5058 12.4606 85.3074 4.77582 81.9202 11.1006C75.9522 22.2526 55.893 28.0606 40.7714 18.8126C40.082 18.3076 39.2935 17.9542 38.4578 17.7758C39.0978 27.5214 39.3298 26.0798 36.125 37.0302C35.3655 40.4084 33.8011 43.5531 31.565 46.1966C28.7362 50.1678 25.165 53.5566 21.053 56.1774C23.7388 57.4954 26.3296 58.9988 28.8066 60.6766C37.3682 66.1982 42.181 70.1742 41.4546 83.2462C41.3346 85.3838 41.0242 87.2462 40.0562 93.939C62.421 81.459 75.4642 99.6334 75.6258 99.7534C77.6162 95.5934 83.877 90.6334 87.2674 89.0718C91.4882 87.1246 103.544 84.8974 111.015 87.1742C117.058 89.0174 121.763 93.2702 122.215 93.3822C122.959 93.5662 124.603 91.603 125.341 91.1838C130.64 88.1662 135.101 84.1822 147.383 87.2574C153.263 88.7278 157.285 93.9886 160.823 98.9086C169.667 91.4782 187.597 94.1614 195.319 102.651C198.92 106.613 198.155 110.491 198.699 110.921C199.199 111.32 201.999 110.441 203.938 110.192C208.843 109.563 213.624 111.749 218.088 113.872C224.589 116.973 222.067 117.974 225.429 119.641C225.589 119.721 257.757 126.334 247.157 143.142C263.88 159.048 259.991 162.909 259.957 162.747C260.597 165.646 281.09 170.008 283.266 179.486C296.099 160.139 307.535 170.712 306.786 166.846C306.315 164.385 305.059 164.369 304.576 160.446C303.831 154.409 305.719 147.451 308.303 141.982Z" fill="#FDFE1F"/>
<path d="M269.179 147.04C265.237 145.794 264.36 139.654 269.894 135.965C272.235 134.405 275.045 133.654 279.288 132.309C281.266 131.682 283.48 131.067 285.344 131.979C287.856 133.208 288.946 136.845 286.662 140.438C288.79 142.333 293.128 139.918 293.674 144.226C294.434 150.235 295.365 148.386 288.294 153.109C285.341 155.08 280.381 158.44 276.834 158.467C269.422 158.526 272.973 148.082 272.893 147.451C272.741 146.258 271.453 147.758 269.179 147.04Z" fill="white"/>
<path d="M283.173 114.426C281.95 107.386 274.213 103.136 269.034 105.224C251.299 112.371 250.104 137.29 271.898 130.688C273.713 130.312 275.345 129.329 276.526 127.901C280.693 123.43 284.134 119.97 283.173 114.426ZM271.715 120.101C263.254 127.621 259.832 122.475 268.413 116.077C270.046 114.859 271.832 113.021 274.042 113.298C274.396 113.308 274.734 113.454 274.985 113.705C275.236 113.956 275.382 114.293 275.392 114.648C275.446 116.96 273.293 118.698 271.715 120.101Z" fill="white"/>
<path d="M264.749 84.7074C258.8 73.7922 244.64 79.5202 237.987 95.4818C232.29 109.143 243.69 118.451 254.16 111.224C258.64 108.133 263.938 100.082 265.36 96.061C266.05 94.2294 266.352 92.2744 266.247 90.32C266.142 88.3656 265.632 86.4544 264.749 84.7074ZM256.357 94.0226C255.002 97.181 250.109 103.943 247.968 105.074C247.657 105.246 247.292 105.292 246.948 105.203C246.604 105.114 246.308 104.896 246.12 104.594C244.031 101.421 247.784 97.445 249.112 94.741C250.723 91.4562 254.616 86.3538 256.819 89.1762C257.888 90.5394 256.946 92.6498 256.357 94.0226Z" fill="white"/>
<path d="M209.947 64.7232C202.315 77.9744 201.482 79.1552 200.779 81.6832C199.203 87.3584 202.784 91.152 206.277 90.5472C210.757 89.7744 213.784 82.7504 215.296 79.008C214.968 80.4587 215.152 81.9781 215.816 83.3088C216.392 84.0196 217.176 84.5321 218.058 84.7743C218.94 85.0165 219.876 84.9763 220.734 84.6592C222.437 83.9868 223.977 82.9573 225.248 81.64C224.594 87.968 215.789 96.2 221.336 100.606C222.709 101.625 224.407 102.105 226.11 101.958C227.813 101.81 229.403 101.045 230.581 99.8064C232.904 97.1984 239.875 77.064 240.04 74.1664C240.166 71.9264 239.288 67.1728 237.717 65.7536C234.368 62.7296 229.47 67.296 224.363 70.9408L222.965 62.4C222.461 59.3136 220.461 55.6144 216.643 56.7616C213.6 57.6784 211.392 62.216 209.947 64.7232Z" fill="white"/>
<path d="M177.975 46.363C174.794 55.8431 174.653 66.0351 174.546 76.0335C174.421 76.8654 174.519 77.7156 174.831 78.4969C175.143 79.2782 175.657 79.9626 176.32 80.4798C180.141 83.8654 188.013 84.2735 188.743 84.1279C190.823 83.7151 191.533 81.5119 191.783 79.4223C192.127 76.4815 191.536 74.267 188.344 72.8942C183.32 70.7326 183.642 74.0719 184.587 68.2991C187.365 68.6415 192.669 68.3103 193.931 65.9439C194.237 65.2018 194.388 64.4056 194.377 63.6034C194.365 62.8011 194.191 62.0096 193.864 61.2767C192.955 59.9807 187.899 58.5359 186.378 58.1087C186.644 56.6556 186.981 55.2165 187.389 53.7967C190.378 53.5471 194.719 55.0863 197.117 52.4207C197.832 51.4353 198.168 50.2258 198.065 49.013C197.962 47.8001 197.426 46.6648 196.555 45.8143C193.675 42.7743 187.915 42.5471 183.738 42.7279C180.355 42.8799 179.101 43.003 177.975 46.363Z" fill="white"/>
<path d="M154.053 50.7456C157.619 33.4656 152.154 29.3696 148.944 32.864C148.202 33.7823 147.657 34.8439 147.344 35.9824C144.15 45.1519 142.238 54.7185 141.661 64.4112C141.352 67.9664 141.136 71.8096 143.045 74.8256C143.522 75.6561 144.237 76.3248 145.098 76.7456C146.401 77.2066 147.82 77.2218 149.133 76.7888C151.191 75.9696 151.976 73.5216 152.485 71.368C153.435 68.1104 153.813 64.712 153.6 61.3248C154.603 61.232 158.314 61.1328 158.88 61.6928C159.301 62.112 159.163 62.0592 157.469 72.7152C156.767 77.1264 163.669 82.2752 167.282 78.0992C169.904 75.0688 172.055 56.0096 171.261 42.7792C171.114 40.3408 170.749 36.6992 168.315 35.9872C163.296 34.5264 162.135 45.7056 160.987 51.3296C158.693 50.9728 156.375 50.7776 154.053 50.7456Z" fill="white"/>
<path d="M63.7185 72.2608C64.7025 75.8656 65.7329 81.4192 70.4497 81.8272C73.5633 82.096 76.4929 79.4944 75.2737 73.4656C73.8737 66.5424 69.9937 60.3664 68.0833 53.5664C67.6074 51.0523 66.7369 48.6293 65.5041 46.3872C67.1409 45.4416 75.4129 40.44 75.7697 38.4032C76.0561 36.7552 73.4033 33.8064 71.7489 33.3216C66.7521 31.8576 44.2177 40.3392 44.3665 48.8576C44.4321 52.5984 48.8241 52.4528 52.4913 51.7648C53.4929 51.5776 55.4305 50.512 56.3665 50.664C57.5489 50.856 57.9457 55.8224 58.3489 57.1648C59.8929 62.2832 62.3121 67.096 63.7185 72.2608Z" fill="white"/>
<path d="M105.933 48.6738C105.114 44.3491 103.613 40.182 101.487 36.3282C96.4129 28.4418 82.2865 26.7058 78.1601 42.845C76.8528 47.6125 76.9361 52.6545 78.4001 57.3762C79.2561 60.0962 82.4753 67.1362 84.4417 69.1762C87.4353 72.2818 94.1553 74.6482 98.7409 72.0674C102.741 69.8194 104.047 65.1874 104.866 60.6834C105.705 56.738 106.064 52.7054 105.933 48.6738ZM94.6769 63.1074C91.9009 67.3282 89.3361 57.6338 88.2209 52.7506C85.9985 43.0194 89.7281 37.3906 93.0209 40.453C95.0881 42.4002 97.1201 59.3938 94.6769 63.1074Z" fill="white"/>
<path d="M123.949 39.3812C121.715 39.3111 119.53 38.7077 117.576 37.6212C114.432 35.5204 112.949 29.61 121.896 29.1108C128.631 28.7348 141.354 27.7092 141.567 33.8884C141.521 34.7922 141.215 35.6635 140.685 36.3971C140.155 37.1307 139.425 37.6954 138.581 38.0228C136.883 38.647 135.078 38.9308 133.271 38.858C133.679 41.0884 133.931 43.3428 134.024 45.6084C133.98 46.8416 134.01 48.0764 134.114 49.306C134.392 50.0724 134.578 50.8692 134.664 51.6788C134.511 57.317 134.034 62.9417 133.235 68.5252C132.125 76.2868 126.368 75.4964 123.861 69.5092C120.402 61.2532 122.61 51.2292 124.218 39.5364L123.949 39.3812Z" fill="white"/>
<path d="M306.147 159.066C305.56 148.552 309.933 140.582 308.818 140.016C309.224 139.357 306.786 138.134 304.539 132.936C300.511 123.613 304.08 114.837 302.947 114.413C303.714 112.693 287.149 107.878 283.295 91.5217C281.4 83.4849 283.026 77.9921 282.163 77.8065C282.205 76.7921 268.48 76.0913 258.227 66.7153C245.456 54.8065 245.795 44.0737 244.562 44.1729C244.376 42.8337 229.959 45.7169 215.983 41.2049C209.746 38.9452 204.398 34.7462 200.723 29.2241C194.251 20.0577 199.263 21.5713 186.712 22.8801C175.439 24.0433 163.643 23.4801 153.447 18.7601C143.215 13.9201 138.519 7.36806 137.778 8.00006C136.901 6.80646 128.471 14.9281 110.578 15.1665C93.0049 15.1905 83.9457 7.45286 83.1569 8.62086C82.5537 8.24326 80.1361 12.5313 75.0897 16.1553C72.0801 18.2881 69.3922 19.7569 62.517 20.6689C56.1634 21.5057 51.3665 22.0033 45.3041 20.0289C36.5233 17.0017 38.3217 14.6561 37.5729 24.0721C34.7825 50.7873 19.6801 54.6497 20.5601 56.4417C20.2049 57.8481 38.3201 61.4401 40.6833 79.9409C42.6129 95.0049 34.6417 96.1009 45.5137 92.6641C67.4593 86.1281 74.4865 100.755 75.6433 100.16C76.5073 100.547 81.7473 88.6001 97.3921 87.2129C112.592 85.6801 121.816 94.4513 122.559 93.5969C123.271 94.3793 130.906 87.1585 142.933 88.5409C154.274 89.7185 160.167 99.4049 161.08 98.8049C161.711 99.8273 169.917 93.8193 183.107 97.3537C188.039 98.6337 192.976 101.096 195.786 105.339C200.139 111.99 196.045 111.47 203.008 111.667C209.443 111.714 215.721 113.654 221.061 117.245C226.191 120.838 223.735 119.445 229.885 121.405C249.946 127.723 246.291 143.438 247.416 143.73C247.498 144.186 248.818 144.379 250.549 145.73C256.904 150.805 257.503 151.97 258.935 159.97C259.621 164.186 259.735 164.312 264.055 166.118C269.077 168.267 273.706 169.821 277.867 173.562C281.488 176.802 282.656 180.632 283.442 180.419C285.133 180.909 286.426 169.594 302.773 168.219C309.647 167.709 306.693 168.84 306.147 159.066ZM284.067 175.819C283.045 178.347 283.847 178.314 282.811 175.763C281.203 172.248 278.486 169.358 275.077 167.536C269.531 164.43 261.971 163.123 260.421 163.579C261.363 162.232 261.435 157.675 261.149 155.469C260.966 153.56 260.368 151.715 259.395 150.063C258.422 148.411 257.099 146.993 255.519 145.907C253.629 144.547 250.12 142.448 247.923 143.258C248.725 141.652 249.092 139.865 248.987 138.074C248.987 129.29 241.165 120.562 230.389 119.133C227.229 118.707 225.144 119.022 224.699 119.387C224.47 117.893 223.729 116.525 222.602 115.517C218.515 110.835 209.962 107.893 202.795 109.354C197.835 110.363 199.167 112.042 199.115 109.31C198.842 96.5329 179.415 89.8225 166.912 94.8641C156.555 98.9249 164.938 101.182 157.792 92.9057C154.085 88.6463 148.919 85.9264 143.309 85.2801C132.269 84.0113 123.271 90.7809 122.546 93.3665C119.826 86.3489 93.3889 76.3457 79.2833 92.7745C72.3329 100.842 78.6177 101.192 72.9361 94.5425C66.4209 86.4417 50.0833 85.4225 41.0577 92.7825C49.4769 78.0497 37.6721 58.0017 21.9329 56.3217C31.0305 53.4881 40.5553 40.5937 39.8865 24.1169C39.3249 15.4481 36.4481 18.2177 44.4241 22.1969C50.4753 25.0769 56.3553 24.8017 62.9457 23.9345C73.3889 22.5505 79.7265 17.0801 82.6385 10.7009C84.0641 7.51526 81.2817 9.24006 90.1377 13.7809C96.4993 16.9135 103.507 18.5107 110.598 18.4443C117.688 18.3779 124.665 16.6497 130.967 13.3985C142.573 7.01446 133.242 5.84646 143.591 15.5073C162.191 32.8417 193.085 24.9969 195.911 22.3025C195.579 24.2033 198.471 32.2481 204.688 38.1281C217.6 50.4449 241.834 46.0801 244.392 44.3841C242.435 49.4753 249.021 67.9809 265.352 75.1441C269.717 77.0641 278.338 79.2865 281.877 78.0161C280.887 79.3489 279.24 85.2017 280.333 92.1457C283.203 107.307 299.069 114.456 302.592 114.525C298.795 117.395 297.749 132.008 304.8 138.101C309.6 142.261 309.21 137.418 306.005 143.414C301.293 152.277 302.515 162.32 305.967 166.68C298.773 163.778 287.84 166.997 284.075 175.819H284.067Z" fill="#0F0F0F"/>
<path d="M289.24 140.19C287.623 140.253 288.28 141.032 289.039 137.701C289.291 136.959 289.393 136.175 289.339 135.393C289.286 134.612 289.077 133.849 288.727 133.149C288.376 132.448 287.889 131.824 287.294 131.315C286.698 130.805 286.007 130.419 285.261 130.181C281.261 128.883 273.699 132.453 269.984 134.379C261.015 139 265.104 148.757 270.389 148.238C272.442 148.048 271.314 146.838 270.72 151.598C270.093 157.278 273.867 160.246 278.757 159.341C283.112 158.499 293.187 153.078 295.077 149.067C295.728 147.608 295.801 145.956 295.281 144.446C294.761 142.935 293.687 141.678 292.275 140.93C291.342 140.432 290.298 140.178 289.24 140.19ZM292.896 148.045C291.487 151.168 279.333 158.459 275.346 156.8C268.683 154.014 278.73 138.941 278.373 138.602C277.936 138.16 274.802 141.162 272.739 145.173C267.919 149.086 263.805 140.122 271.096 136.506C278.499 132.656 288.331 129.173 286.682 137.218C285.032 144.688 279.119 149.245 279.663 149.97C280.143 150.595 284.943 146.93 287.491 141.944C288.101 141.791 288.736 141.764 289.357 141.866C289.977 141.969 290.57 142.198 291.099 142.539C291.627 142.88 292.08 143.326 292.429 143.849C292.778 144.372 293.015 144.962 293.127 145.581C293.277 146.408 293.197 147.26 292.896 148.045Z" fill="#0F0F0F"/>
<path d="M66.413 46.614C71.7138 44.7484 78.2626 41.1612 76.461 35.846C74.8386 31.0076 66.869 32.1868 61.9842 33.5772C57.4357 35.1018 53.1217 37.2526 49.1666 39.9676C43.2066 44.0988 41.1666 49.654 45.5266 52.47C48.7442 54.614 52.0866 53.1644 55.5874 51.59C57.3666 50.79 55.6082 49.6124 59.9426 66.0108C62.7234 76.5132 63.5986 79.2108 65.6466 81.302C69.5602 85.2508 79.045 82.51 76.4114 71.382C75.4226 67.2604 68.1266 50.5212 66.413 46.614ZM74.0834 76.854C73.5746 79.5884 69.645 81.51 67.541 79.3532C64.981 76.8476 59.077 53.6348 58.2002 50.1532C59.5874 49.27 60.2658 48.5788 60.1506 48.3724C59.8306 47.7724 52.7906 50.9164 49.5346 50.9804C46.2434 51.046 44.4514 48.4204 47.4914 45.0156C50.6434 41.478 59.6386 36.302 67.077 35.278C74.013 34.3708 74.8242 37.1132 73.5954 39.1708C72.4418 41.0796 68.7218 43.318 66.7778 44.4316C62.5426 46.7772 60.1458 48.5644 64.7106 47.1756C71.6802 66.2668 74.9778 71.7468 74.0802 76.8556L74.0834 76.854Z" fill="#0F0F0F"/>
<path d="M83.8561 31.2961C73.2225 37.9585 75.0417 60.7809 83.6961 69.7889C90.4657 76.8833 101.247 76.2625 104.776 64.7745C112.371 40.9905 97.7025 22.6897 83.8561 31.2961ZM104.618 53.2705C104.458 63.8929 100.869 74.9185 90.7409 71.6049C78.0801 67.4753 75.3329 39.9073 85.3105 33.6001C94.9153 27.5969 104.8 37.7121 104.618 53.2705Z" fill="#0F0F0F"/>
<path d="M95.7873 45.8784C94.1329 38.9984 90.6001 39.1888 90.6673 39.6896C90.6913 39.888 91.4369 39.9344 92.1761 41.0016C94.7937 44.648 95.6689 62.8032 93.3873 63.1808C92.9249 63.1472 92.5873 62.7008 92.1985 62.2064C90.8407 60.1523 89.9604 57.8199 89.6225 55.3808C86.5185 39.8992 90.5825 40.6224 90.4833 39.7136C90.4273 39.2816 87.0433 39.6928 86.6433 46.7952C86.3697 52.0752 87.1473 61.7008 91.2161 65.1344C91.8432 65.6714 92.6525 65.947 93.4769 65.9044C94.3014 65.8618 95.078 65.5043 95.6465 64.9056C98.7201 61.5264 96.8177 50.3056 95.7873 45.8784Z" fill="#0F0F0F"/>
<path d="M261.083 105.941C279.51 84.8917 253.688 63.8613 238.907 90.8677C229.222 108.884 243.694 125.572 261.083 105.94V105.941ZM252.443 111.092C245.133 115.468 238.898 111.031 238.312 104.052C237.462 96.2389 243.714 86.0005 250.358 82.2597C251.689 81.4583 253.195 80.9907 254.745 80.8968C256.296 80.8029 257.847 81.0855 259.265 81.7205C260.683 82.3554 261.926 83.3239 262.889 84.5434C263.852 85.7628 264.505 87.1971 264.794 88.7237C265.798 94.7045 262.118 104.226 252.44 111.092H252.443Z" fill="#0F0F0F"/>
<path d="M257.082 88.6863C256.816 88.4607 256.618 88.4511 256.584 88.5039C256.495 88.6415 256.947 89.0415 256.904 90.0735C256.832 93.6639 247.285 106.976 246.429 103.984C245.551 100.944 249.823 94.3295 251.709 91.7727C254.861 87.5007 256.227 88.8015 256.464 88.4239C256.699 88.2239 254.411 86.4895 250.509 90.7951C239.907 102.587 244.509 110.622 250.559 104.523C253.28 101.698 260.243 91.3295 257.082 88.6863Z" fill="#0F0F0F"/>
<path d="M267.591 132.8C282.859 129.572 291.258 114.063 278.128 104.861C269.008 99.6612 255.157 110.408 254.608 120.9C254.192 127.896 259.347 134.669 267.591 132.8ZM260.088 129.304C249 119.202 270.93 96.4228 280.568 111.064C287.84 120.775 268.138 136.781 260.088 129.296V129.304Z" fill="#0F0F0F"/>
<path d="M270.019 122.88C278.455 116.16 275.285 113.538 275.117 113.787C274.439 114.319 277.271 115.242 268.811 121.267C261.247 126.6 263.549 120.093 270.691 114.887C273.794 112.621 274.751 113.909 275.031 113.68C275.33 113.554 273.871 111.368 269.861 113.581C258.109 120.087 260.763 130.101 270.019 122.88Z" fill="#0F0F0F"/>
<path d="M139.819 39.0494C140.744 38.5441 141.518 37.8025 142.062 36.9004C142.607 35.9983 142.902 34.968 142.918 33.9145C142.935 32.8609 142.671 31.8219 142.155 30.9035C141.639 29.985 140.888 29.2199 139.979 28.6862C136.471 26.4158 132.048 26.8094 127.907 26.9646C125.315 27.1054 118.197 27.6158 115.96 28.9374C111.4 31.6974 111.584 40.8334 123 40.1198C121.845 46.9289 121.232 53.8187 121.167 60.7246C121.189 67.6142 121.592 74.5727 128.439 75.4287C135.551 76.3343 135.869 62.6462 135.639 55.483C134.683 31.795 131.011 43.5806 139.819 39.0494ZM129.981 39.283C130.027 39.5166 130.8 39.7118 132.199 39.8606C132.906 46.3374 135.111 73.411 128.65 72.7006C121.917 71.9102 123.387 57.7198 124.85 39.9086C125.927 39.715 126.514 39.4478 126.503 39.2398C126.488 38.843 124.743 38.6718 122.085 38.235C118.813 37.627 115.451 36.7454 115.951 33.4094C116.287 31.0942 118.368 30.7806 120.546 30.4574C124.45 29.883 131.832 29.1902 135.402 29.8174C140.949 30.8094 141.275 35.1838 138.546 36.8702C136.192 38.3294 129.808 38.3262 129.981 39.283Z" fill="#0F0F0F"/>
<path d="M172.728 40.3426C171.608 33.0978 165.034 32.0338 162.671 40.957C161.773 44.157 160.911 47.085 160.247 50.2786C158.672 49.8546 157.047 49.6498 155.416 49.6722C156.367 44.693 157.336 36.2578 154.383 32.1234C154.068 31.6946 153.668 31.3358 153.208 31.0698C152.747 30.8038 152.236 30.6362 151.708 30.5779C151.179 30.5195 150.644 30.5716 150.137 30.7308C149.63 30.8899 149.161 31.1528 148.76 31.5026C146.803 32.9986 145.827 36.2466 144.488 40.4786C141.777 49.0478 140.291 57.9573 140.074 66.9426C139.773 79.4786 148.111 80.7602 151.952 75.9666C154.362 72.965 154.192 68.893 154.549 62.1154C160.301 63.3954 157.589 59.6642 156.797 70.1346C156.647 73.0146 156.675 76.1922 158.603 78.3538C159.392 79.1931 160.382 79.8159 161.48 80.1625C162.578 80.509 163.747 80.5678 164.874 80.333C168.514 79.533 169.807 75.9074 170.474 72.2642C171.421 66.6722 173.72 45.9202 172.728 40.3426ZM170.346 46.501C168.41 70.045 168.439 79.6754 162.165 77.7874C161.485 77.5933 160.87 77.2217 160.381 76.7108C159.893 76.1998 159.549 75.568 159.386 74.8802C158.472 71.5746 159.247 65.7202 160.045 62.365C160.905 62.3411 161.74 62.0658 162.445 61.573C163.315 60.773 163.061 60.8194 156.589 60.2194C153.251 59.9762 150.693 59.2162 150.392 59.7394C150.107 60.293 151.968 61.2738 152.792 61.5954C152.067 68.0658 152.21 72.1106 150.151 74.4914C147.688 77.4258 144.328 75.9682 143.247 72.7394C141.728 68.453 143.375 50.0706 149.007 35.4722C149.504 34.2386 150.631 32.6178 151.856 33.1234C152.618 33.2594 153.343 35.4658 153.704 36.989C154.419 41.213 154.365 45.5298 153.544 49.7346C152.744 49.7906 149.733 50.0994 149.959 50.8658C150.159 51.6066 157.818 51.709 162.002 52.6722C163.223 52.9522 164.021 53.1922 164.194 52.9282C164.538 52.429 162.744 51.285 161.983 50.925C162.511 48.8866 165.293 38.9762 166.903 37.5778C167.952 36.6818 169.291 36.8898 169.911 39.437C170.435 41.7522 170.583 44.1378 170.346 46.501Z" fill="#0F0F0F"/>
<path d="M178.944 42.8444C175.64 44.95 172.662 71.7836 172.704 75.7276C172.668 76.847 172.899 77.9589 173.378 78.9713C173.857 79.9838 174.57 80.8677 175.458 81.55C178.178 83.3868 185.802 86.4332 189.576 84.6204C190.905 83.7718 191.925 82.5175 192.484 81.0436C193.044 79.5697 193.114 77.9547 192.683 76.438C192.398 75.4315 191.901 74.4975 191.226 73.6988C189.366 72.2799 187.128 71.4446 184.794 71.2988C185.152 70.5388 185.363 69.7148 185.416 68.8764C196.642 72.3292 199.566 60.5212 191.016 57.9196C186.376 56.6396 187.258 58.5052 187.798 55.822C188.2 53.8332 186.776 54.7372 191.958 55.0716C194.246 55.2156 196.52 55.0908 197.979 53.3116C198.563 52.5792 198.95 51.7092 199.102 50.7849C199.254 49.8605 199.167 48.9126 198.848 48.0316C197.522 41.4396 183.05 40.1468 178.944 42.8444ZM187.653 52.6876C187.182 51.0876 185.904 49.822 185.483 50.1388C184.97 50.5308 186.248 52.7212 185.643 55.4108C185.082 58.1196 183.563 60.2748 184.064 60.6908C184.474 61.0476 185.674 59.8908 186.166 59.2844C188.235 59.646 191.066 60.1356 192.418 61.6844C194.275 63.8828 192.75 66.566 189.762 67.0476C188.254 67.2136 186.73 67.1624 185.237 66.8956C185.067 66.2668 184.483 65.0284 183.99 65.2188C183.419 65.4604 183.712 67.4188 183.09 69.6156C182.544 71.8316 181.31 73.3932 181.694 73.8796C182.035 74.3116 183.171 73.4988 183.669 72.9788C186.738 73.3692 190.195 74.2396 190.693 77.1388C191.078 79.4252 190.013 82.6092 187.39 82.7596C184.67 82.974 180.784 81.4012 178.341 80.1884C177.413 79.879 176.615 79.2672 176.076 78.451C175.537 77.6347 175.287 76.6611 175.366 75.686C176.059 66.2068 177.419 56.7883 179.437 47.5004C179.981 45.1724 179.606 44.51 184.984 44.19C188.726 44.03 193.995 44.51 196.131 47.5948C198.678 53.3996 193.909 53.718 187.653 52.6876Z" fill="#0F0F0F"/>
<path d="M238.979 82.134C240.112 78.3292 241.527 74.5468 241.259 70.246C240.709 60.95 232.003 61.8844 225.338 68.5484C224.827 68.2924 226.019 55.4204 218.167 55.2684C212.611 55.2108 209.098 63.038 206.256 67.8732C203.968 71.6359 201.984 75.5754 200.323 79.654C196.405 90.6236 205.648 93.414 209.258 90.622C211.704 88.9468 213.119 85.902 214.178 83.1244C214.666 81.8284 214.16 82.4844 214.999 83.982C215.39 84.7029 215.994 85.2852 216.729 85.649C217.464 86.0128 218.294 86.1403 219.104 86.014C220.855 85.6449 222.491 84.8565 223.871 83.7164C221.674 87.6412 218.32 93.7516 218.419 96.9324C218.555 98.152 218.997 99.3173 219.705 100.319C220.414 101.321 221.365 102.127 222.469 102.662C223.573 103.197 224.795 103.444 226.02 103.379C227.245 103.315 228.434 102.941 229.475 102.292C233.835 99.2956 237.341 87.4844 238.979 82.1324V82.134ZM234.808 86.7532C233.453 90.9244 230.52 100.446 226.282 101.105C225.281 101.171 224.281 100.972 223.382 100.528C222.483 100.083 221.718 99.4101 221.162 98.5756C220.859 98.0166 220.676 97.4007 220.625 96.7671C220.573 96.1335 220.654 95.4961 220.863 94.8956C222.087 90.1116 228.165 80.2268 227.994 80.126C228.986 79.062 231.639 75.6556 231.154 75.31C230.669 74.9676 217.755 89.2588 216.467 81.6364C216.088 79.4636 216.994 67.854 216.115 67.7932C215.511 67.7516 214.709 75.1692 214.648 75.726C213.283 79.886 211.418 86.4668 208.088 88.8332C205.565 90.6284 200.501 88.4412 201.848 82.726C202.795 78.3388 209.352 67.734 211.28 64.5132C212.672 62.1132 215.256 57.8972 218.138 57.9644C222.749 58.0876 222.479 67.1244 223.179 74.8124C224.389 73.4844 226.231 71.4044 227.373 70.4108C235.906 62.7628 240.407 65.5996 238.034 75.894C237.6 77.7692 235.442 84.7996 234.808 86.7532Z" fill="#0F0F0F"/>
<path d="M156.062 117.152C155.674 114.388 155.933 111.572 156.819 108.925C157.185 107.703 157.895 106.611 158.863 105.78C159.831 104.949 161.018 104.414 162.282 104.237C169.642 102.674 181.642 107.437 183.829 109.168C185.307 110.443 186.506 112.011 187.349 113.771C187.914 115.691 186.56 120.08 185.8 122.699C185.729 123.273 185.465 123.805 185.05 124.207C184.635 124.609 184.095 124.858 183.52 124.911C170.614 128.296 160.243 120.111 158.51 119.439C157.943 119.295 157.42 119.009 156.992 118.609C156.564 118.209 156.245 117.707 156.062 117.151V117.152Z" fill="#92FCFF"/>
<path d="M265.834 204.789C263.008 209.056 261.994 212.864 266.333 216.275C266.943 216.878 267.735 217.261 268.585 217.366C269.436 217.472 270.297 217.292 271.035 216.856C279.37 213.287 283.675 204.536 283.21 201.259C282.843 198.722 279.008 195.677 277.362 195.547C275.835 195.426 271.319 197.611 269.712 199.285C268.263 201.004 266.965 202.846 265.834 204.789Z" fill="#92FCFF"/>
<path d="M207.04 297.87C207.168 299.8 207.861 301.649 209.032 303.187C211.367 304.217 213.928 304.624 216.467 304.368C219.887 303.763 223.149 302.472 226.056 300.573C227.941 299.182 228.534 297.813 227.166 294.514C226.046 291.829 225.006 290.386 222.147 290.106C219.099 289.81 214.467 291.298 211.573 292.331C210.257 292.509 209.057 293.18 208.216 294.208C207.374 295.236 206.954 296.545 207.04 297.87Z" fill="#92FCFF"/>
<path d="M87.3026 265.475C87.8178 274.155 90.8082 276.195 96.3106 276.581C106.307 277.274 110.487 276.755 122.093 270.512C122.688 270.313 123.205 269.931 123.569 269.42C123.933 268.909 124.125 268.296 124.119 267.669C124.599 263.285 123.858 256.907 119.943 254.842C117.328 253.462 86.429 250.77 87.3026 265.475Z" fill="#92FCFF"/>
<path d="M41.7601 234.841C41.3901 235.33 41.1807 235.921 41.161 236.533C41.1412 237.146 41.312 237.749 41.6497 238.26C47.3793 250.1 60.5489 255.937 63.5809 255.46C64.9409 255.248 68.0609 252.084 68.9153 251.161C69.8355 250.406 70.485 249.371 70.7659 248.214C71.0467 247.057 70.9436 245.84 70.4721 244.747C67.8897 236.595 56.0209 229.067 52.7025 228.009C47.0129 226.196 44.1473 230.326 41.7601 234.841Z" fill="#92FCFF"/>
<path d="M57.821 281.207C57.6751 281.913 57.7826 282.648 58.1247 283.283C58.4667 283.918 59.0214 284.412 59.6914 284.679C68.8866 289.88 80.0898 287.09 81.0322 285.559C81.2082 285.271 81.1602 285.365 81.8578 280.828C82.2466 278.3 82.1778 276.68 79.925 275.008C76.373 272.37 66.6754 271.648 62.005 272.917C58.3362 273.92 57.8642 278.01 57.821 281.207Z" fill="#92FCFF"/>
<path d="M13.7969 170.619C15.8438 169.567 18.1365 169.086 20.4337 169.227C24.0977 170.187 28.2417 179.398 29.2017 184.933C29.9041 188.984 28.5713 190.213 26.0241 191.088C24.342 191.738 22.5772 192.15 20.7809 192.31C15.1553 191.768 6.92174 174.72 13.7969 170.619Z" fill="#92FCFF"/>
<path d="M33.8386 119.36C32.8418 121.36 33.3138 122.492 34.7298 124.543C36.2786 126.783 37.2898 127.644 39.7234 127.183C48.0082 125.613 53.141 116.402 53.0962 114.97C53.0578 113.706 50.6626 111.32 49.4706 110.418C49.0807 110.04 48.5866 109.788 48.0519 109.693C47.5173 109.598 46.9665 109.666 46.4706 109.887C41.5026 111.375 36.2258 114.578 33.8386 119.359V119.36Z" fill="#92FCFF"/>
<path d="M185.28 109.032C179.749 105.032 167.896 102.573 162.672 103.502C160.875 103.645 159.187 104.419 157.907 105.688C156.627 106.957 155.838 108.638 155.68 110.434C155.347 112.541 155.24 114.678 155.36 116.808C156.178 120.496 168.183 128.794 181.738 126.291C184.562 125.771 186.442 124.802 187.378 122.059C189.266 116.653 189.456 112.168 185.28 109.032ZM183.592 122.88C179.621 125.48 165.672 124.589 158.037 117.629C157.629 117.269 157.325 116.806 157.156 116.289C156.987 115.771 156.96 115.218 157.077 114.686C157.186 113.058 157.455 111.445 157.877 109.869C160.514 116.565 181.063 120.84 185.799 116.909C185.586 118.512 184.97 122.016 183.592 122.88ZM185.37 115.491C182.498 118.995 161.882 115.227 159.13 109.493C158.471 108.133 158.787 107.875 159.29 107.381C164.48 102.262 189.647 110.502 185.37 115.494V115.491Z" fill="#0F0F0F"/>
<path d="M63.4928 256.502C65.9952 256.292 67.5792 254.171 69.144 252.264C70.8286 250.464 71.7996 248.112 71.8752 245.648C71.5952 238.665 55.1184 224.025 47.488 227.012C44.6368 228.044 42.9664 231.134 41.4496 233.76C40.9451 234.398 40.6083 235.152 40.4699 235.953C40.3316 236.755 40.3961 237.578 40.6576 238.348C44.1792 248.67 56.7424 257.169 63.4928 256.502ZM47.4272 229.384C54.336 225.584 74.2016 245.345 68.0816 247.961C63.7808 249.908 44.6928 235.822 47.4272 229.384ZM44.5216 241.475C41.5872 236.734 41.4336 236.092 45.184 231.395C47.4352 228.692 42.1136 233.409 54.4496 243.44C57.36 245.809 64.4096 250.243 67.8464 249.416C64.7008 254.081 63.4976 254.27 60.728 253.483C54.0425 251.59 48.2789 247.32 44.5216 241.475Z" fill="#0F0F0F"/>
<path d="M125.28 261.805C124.055 254.885 121.047 251.491 110.319 251.774C103.01 251.998 88.9777 254.105 86.3825 261.073C85.0641 264.337 86.4513 268.237 87.5537 271.587C87.7145 272.511 88.1053 273.379 88.6899 274.112C89.2746 274.845 90.0345 275.419 90.8993 275.781C96.5209 277.893 102.6 278.485 108.523 277.497C113.767 276.641 122.007 273.531 124.618 269.942C126.352 267.641 125.728 264.613 125.28 261.805ZM110.4 254.44C114.327 254.456 119.147 254.64 121.133 257.742C122.319 264.933 91.3729 270.737 88.0849 262.8C89.6257 256.36 103.779 254.577 110.4 254.44ZM122.431 268.382C119.136 273.091 103.263 278.329 91.6881 273.969C91.0514 273.751 90.4864 273.363 90.0542 272.847C89.6219 272.331 89.3388 271.707 89.2353 271.041C88.5339 269.058 88.0918 266.992 87.9201 264.896C93.6801 272.032 119.631 266.459 122.122 260.136C122.615 261.849 123.69 266.645 122.426 268.382H122.431Z" fill="#0F0F0F"/>
<path d="M283.871 200.214C282.992 198.875 281.973 197.633 280.831 196.51C279.932 195.493 278.702 194.826 277.359 194.629C276.016 194.432 274.646 194.717 273.493 195.433C269.959 197.182 263.893 203.913 262.33 208.822C261.21 212.582 263.309 215.222 266.882 217.657C267.663 218.201 268.59 218.496 269.542 218.503C270.494 218.511 271.426 218.231 272.216 217.7C281.52 213.161 285.027 202.809 283.871 200.214ZM264.418 209.44C265.519 205.875 268.869 201.998 271.483 199.278C275.607 195.19 279.931 195.232 277.627 200.377C273.357 209.76 262.106 217.032 264.418 209.44ZM282.531 201.907C281.021 209.451 272.931 216.155 269.56 216.339C268.48 216.417 267.341 215.288 266.402 214.473C265.312 213.5 265.967 214.585 268.61 212.995C274.151 209.72 280.362 201.729 279.459 197.414C280.303 198.134 281.093 198.915 281.821 199.75C282.121 200.014 282.346 200.353 282.471 200.732C282.596 201.112 282.617 201.518 282.531 201.908V201.907Z" fill="#0F0F0F"/>
<path d="M20.3921 168.48C17.3185 167.493 11.7057 170.067 10.8545 172.381C9.21131 176.637 12.1969 187.546 19.3761 192.426C19.8838 192.768 20.4686 192.979 21.0779 193.039C21.6873 193.1 22.3021 193.008 22.8673 192.773C25.0657 192.2 27.6209 191.621 28.9473 189.768C32.5553 184.946 25.5841 170.141 20.3921 168.48ZM22.5089 191.413C20.9457 191.797 20.4753 191.661 17.9777 188.949C14.548 185.105 12.6397 180.14 12.6113 174.989C12.6001 173.19 12.5377 172.357 16.5841 170.874C14.5377 175.438 20.5361 189.042 25.6401 190.293C24.6257 190.742 23.5793 191.115 22.5089 191.408V191.413ZM27.5217 188.778C27.3409 189.043 27.2177 189.382 26.0817 189.064C21.9041 187.896 15.9041 173.595 18.0817 170.92C20.9601 167.178 30.5601 184.13 27.5201 188.773L27.5217 188.778Z" fill="#0F0F0F"/>
<path d="M54.2112 115.641C54.2006 114.814 54.0222 113.997 53.687 113.241C53.3518 112.484 52.8666 111.803 52.2608 111.24C49.6672 108.04 47.0896 107.198 41.8064 110.318C35.952 113.937 29.6224 119.438 34.0592 124.691C37.2672 128.292 38.0288 128.344 42.0768 127.161C48.9152 124.971 53.8192 118.748 54.2112 115.641ZM34.312 121.865C33.1392 116.945 48.368 107.553 48.9712 111.465C49.5296 114.419 37.8096 124.262 34.312 121.865ZM38.8432 126.268C38.5053 126.329 38.1574 126.297 37.8361 126.176C37.5148 126.055 37.2321 125.85 37.0176 125.582C36.3647 124.949 35.7518 124.277 35.1824 123.568C39.856 124.5 49.6688 116.547 50.2848 112.28C52.5584 114.934 52.3376 115.368 51.5152 116.876C50.2128 119.269 48.4042 121.349 46.2157 122.971C44.0271 124.593 41.5112 125.718 38.8432 126.268Z" fill="#0F0F0F"/>
<path d="M228.563 294.476C227.443 290.449 225.383 288.652 219.232 289.418C216.211 289.86 210.943 291.132 208.298 293.18C207.249 293.842 206.469 294.853 206.095 296.036C205.721 297.218 205.777 298.494 206.253 299.639C207.767 304.241 208.421 304.621 212.699 305.156C217.789 305.66 222.88 304.208 226.939 301.097C229.677 298.962 229.323 297.418 228.563 294.476ZM225.472 292.773C225.855 296.031 209.983 300.933 207.605 297.116C208.32 292.889 223.031 289.479 225.472 292.773ZM226.731 298.269C224.475 302.332 210.571 305.821 208.626 301.666C208.269 300.807 207.968 299.927 207.723 299.029C211.624 301.767 224.023 298.418 226.327 294.617C226.627 295.58 227.234 297.404 226.731 298.269Z" fill="#0F0F0F"/>
<path d="M81.6529 275.897C78.4529 271.553 61.7713 269.43 58.2369 274.584C56.8769 276.462 57.1473 279.123 57.3137 281.446C57.2684 282.069 57.3796 282.694 57.6372 283.263C57.8949 283.832 58.2908 284.328 58.7889 284.705C65.4513 289.737 77.0289 289.71 81.0017 286.395C82.9521 284.821 83.6097 278.541 81.6529 275.897ZM80.3729 278.137C80.1825 279.473 78.9009 279.897 77.5665 280.144C72.1937 281.217 60.1265 280.35 59.3665 276.016C61.7857 271.68 78.8577 273.6 80.3745 278.134L80.3729 278.137ZM79.6001 284.76C76.9041 287.112 66.2945 287.949 59.7441 283.454C59.4012 283.227 59.125 282.912 58.9442 282.543C58.7634 282.173 58.6843 281.762 58.7153 281.352C58.6477 280.201 58.6691 279.047 58.7793 277.899C61.6593 282.52 77.0193 283.769 80.6289 280.317C80.6001 281.76 80.5041 284 79.6017 284.757L79.6001 284.76Z" fill="#0F0F0F"/>
<path d="M213.263 211.005C207.384 202.509 199.899 201.773 195.576 204.765C193.984 201.794 191.917 199.104 189.456 196.8C188.213 195.66 186.714 194.836 185.085 194.398C183.457 193.96 181.746 193.921 180.099 194.284C178.27 194.926 176.599 195.951 175.199 197.292C172.901 188.552 156.301 186.909 147.32 210.052C144.792 216.565 143.447 222.642 140.496 229.202L140.28 228.9C138.539 231.808 137.194 234.936 136.28 238.2C133.25 245.204 132.575 250.285 134.546 257.759C137.49 268.927 141.187 267.311 135.41 272.768C132.519 275.652 130.704 279.438 130.264 283.497C129.825 287.556 130.789 291.644 132.995 295.079C133.842 296.703 134.968 298.165 136.322 299.399C140.219 302.516 157.371 309.509 172.261 310.666C172.083 311.612 173.445 311.98 174.407 311.928C180.299 311.618 186.872 310.991 190.743 306.536C196.674 299.706 192.215 289.044 192.863 288.06C193.107 287.688 193.183 287.74 198.157 285.844C198.283 285.998 198.437 286.126 198.611 286.223C225.163 262.76 223.816 226.256 213.263 211.005Z" fill="white"/>
<path d="M221.133 229.992C218.711 205.066 204.09 198.002 195.778 202.098C194.668 199.298 192.766 196.882 190.305 195.145C187.844 193.409 184.93 192.427 181.92 192.32C179.714 192.493 177.58 193.183 175.69 194.333C174.819 194.836 175.488 194.308 173.002 192.68C167.837 189.48 159.595 190.05 152.928 197.106C145.298 204.866 144.743 215.946 140.106 225.426C136.888 231.986 132.243 238.946 132.554 250.429C132.602 256.586 134.547 262.579 138.122 267.592C129.173 277.512 124.747 288.087 133.77 297.791C142.912 307.695 173.664 319.431 188.072 310.605C194.04 307.032 197.704 299.967 194.781 288.242C215.559 281.012 223.075 251.951 221.133 229.992ZM214.927 259.432C208.131 282.516 192.847 293.032 167.373 285.052C159.04 282.359 154.667 279.685 154.44 280.092C154.239 280.461 174.331 293.41 192.306 288.954C196.439 311.135 178.301 313.405 156.832 306.452C128.464 297.012 127.506 285.135 139.722 269.57C143.843 274.268 149.619 277.696 149.842 277.324C150.624 276.244 134.987 269.05 135.253 250.381C135.363 236.277 141.994 232.471 146.848 217.602C150.093 207.464 152.288 200.832 160.642 195.957C165.743 193.632 169.97 194.644 172.087 196.815C161.983 205.084 157.816 217.704 153.703 230.002C149.383 229.6 145.101 230.517 145.199 231.354C145.317 232.53 152.671 231.951 161.399 235.994L163.01 232.52C160.905 231.551 158.691 230.839 156.416 230.4C160.443 221.157 163.987 211.026 170.618 203.573C173.274 200.58 177.338 196.84 181.25 196.02C185.717 195.018 191.707 199.127 193.517 203.568C187.597 208.423 184.57 222.468 184.207 229.418L188.031 229.599C188.335 223.434 191.231 209.941 196.229 206.248C202.247 201.576 215.234 207.656 217.623 230.341C218.571 240.124 217.656 249.997 214.927 259.439V259.432Z" fill="#0F0F0F"/>
<path d="M199.162 186.899C211.283 193.179 216.034 199.614 221.661 204.323C224.966 207.091 228.499 209.145 230.902 212.724C230.733 212.643 230.717 212.974 230.829 213.124C234.72 218.34 232.066 215.787 240.178 214.539C244.474 213.878 249.21 213.433 252.658 216.34C257.84 220.71 250.701 227.54 245.938 233.264C246.171 234.739 247.538 241.086 248.498 241.643C248.814 241.777 249.166 241.809 249.502 241.732C254.035 241.222 256.019 242.521 262.958 245.329C267.14 246.701 270.793 249.337 273.413 252.873C274.319 253.902 275.056 255.069 275.595 256.329C267.875 257.643 264.829 257.753 262.755 259.929C262.389 259.907 262.499 260.507 262.755 260.777C264.773 262.688 266.393 264.98 267.52 267.52C270.272 273.187 273.184 279.387 271.294 285.662C269.894 285.281 268.576 284.646 267.405 283.788C265.814 282.868 264.12 283.336 262.579 282.331C255.363 277.628 246.854 281.454 248.395 291.532C249.195 296.721 235.886 288.854 230.205 284.152C220.486 276.108 224.746 271.056 221.245 271.512C218.314 271.662 215.376 271.536 212.469 271.137C211.96 275.617 209.734 278.787 206.781 282.096C203.261 286.044 200.418 286.657 196.661 281.984C194.762 279.899 193.104 277.607 191.718 275.152C191.398 275.057 191.648 275.736 191.925 275.552C192.202 275.368 192.115 274.947 192 274.636C184.891 255.564 180.96 260.376 160.394 247.651C137.557 233.529 133.6 218.784 128.214 212.212C121.885 204.488 115.586 191.02 117.046 181.068C117.939 174.98 122.152 169.046 128.173 167.78C131.122 167.161 134 166.118 137.006 166.321C176.029 168.96 178.115 176 199.162 186.899Z" fill="#92FCFF"/>
<path d="M161.635 196.561C164.7 195.492 168.017 195.377 171.149 196.23C174.28 197.084 177.08 198.867 179.178 201.344C185.098 208.971 181.194 221.171 172.938 225.419C170.064 226.887 166.809 227.438 163.612 226.997C160.416 226.556 157.431 225.145 155.062 222.953C147.445 215.424 149.976 200.649 161.365 196.654L161.635 196.561Z" fill="#FFC5F6"/>
<path d="M222.781 260.352C223.675 256.012 225.736 251.997 228.742 248.741C231.748 245.485 235.585 243.111 239.84 241.873C242.43 241.239 245.09 240.932 247.757 240.961C259.846 240.885 271.222 248.493 275.214 255.336C275.746 256.246 275.574 256.79 274.509 256.84C269.272 257.089 263.344 258.88 262.917 259.56C262.613 260.04 263.09 260.629 263.514 261.013C266.736 263.99 269.144 267.742 270.507 271.912C271.87 276.083 272.144 280.532 271.302 284.838C271.131 285.665 270.754 285.784 270.032 285.43C263.674 282.32 252.4 277.168 248.811 283.19C246.194 287.587 251.235 293.95 246.091 292.79C242.826 292.177 239.639 291.207 236.586 289.897C227.382 285.55 220.338 272.32 222.781 260.352Z" fill="#FDFE1F"/>
<path d="M220.135 246.355C217.373 244.115 218.168 243.921 216.157 246.684C215.688 247.357 215.232 248.039 214.791 248.731C214.57 249.102 214.885 249.152 217.165 250.54C217.463 250.721 217.619 250.396 217.771 250.164C220.088 246.62 220.547 246.691 220.135 246.355Z" fill="#0F0F0F"/>
<path d="M215.248 254.125C212.19 252.696 212.664 252.553 211.995 254.136C211.491 255.315 211.051 256.521 210.675 257.747C210.55 258.152 210.814 258.12 213.427 258.902C213.731 258.993 213.803 258.742 213.907 258.385C214.973 254.833 215.814 254.39 215.248 254.125Z" fill="#0F0F0F"/>
<path d="M212.488 262.814C209.003 262.201 209.56 261.803 209.254 264.355C208.901 267.31 208.886 267.813 209.328 267.824C213.018 267.921 212.181 268.472 212.453 265.376C212.622 263.454 212.976 262.901 212.488 262.814Z" fill="#0F0F0F"/>
<path d="M234.651 235.143C233.224 232.031 233.626 232.317 232.47 232.882C230.437 233.876 228.424 234.86 228.715 235.328C230.139 237.618 230.189 237.909 230.55 237.682C234.064 235.476 234.909 235.703 234.651 235.143Z" fill="#0F0F0F"/>
<path d="M222.915 243.283C223.275 243.645 223.261 243.179 225.976 240.936C226.49 240.52 227.037 240.221 226.776 239.888C225.154 237.777 225.056 237.464 224.72 237.725C223.435 238.733 222.206 239.811 221.04 240.955C220.741 241.251 220.989 241.352 222.915 243.283Z" fill="#0F0F0F"/>
<path d="M275.37 255.166C272.49 248.235 262.912 240.64 248.81 239.747C248.389 237.393 247.655 235.106 246.627 232.947C260.877 223.227 257.773 213.96 247.685 213.059C243.01 212.872 238.333 213.392 233.813 214.6C180.616 153.264 78.9921 141.243 127.349 216.403C139.829 235.629 157.845 251.909 185.389 263.182C186.989 271.493 196.83 291.227 205.13 285.83C207.069 284.377 208.64 282.489 209.717 280.318C216.818 268.277 208.448 273.547 221.293 272.478C222.684 277.647 225.517 282.313 229.46 285.931C233.404 289.55 238.296 291.972 243.565 292.914C249.989 293.766 247.922 293.152 249.25 287.488C250.347 283.078 251.901 281.576 258.741 282.784C263.555 283.739 268.093 285.762 272.021 288.704C272.757 287.091 273.366 285.424 273.848 283.718C274.83 278.205 273.632 272.526 270.507 267.878C268.86 265.279 266.974 262.838 264.875 260.587C264.63 260.378 264.442 260.403 265.106 259.992C273.781 256.181 276.494 257.907 275.37 255.166ZM245.39 230.526C242.672 225.703 239.476 221.165 235.851 216.981C253.171 215.68 258.248 218.435 245.39 230.528V230.526ZM131.75 216.32C131.814 209.109 133.459 202.24 140.091 192.669C144.944 185.723 142.011 188.25 138.878 191.709C133.438 197.746 129.758 206.069 130.2 213.949C126.26 207.768 123.001 201.179 120.48 194.296C114.664 177.45 122.08 168.346 136.838 168.304C146.259 168.273 155.628 169.703 164.61 172.544C166.499 173.118 166.154 172.67 163.33 173.526C156.933 175.789 151.096 179.395 146.21 184.102C134.219 195.741 154.354 178.906 163.958 175.442C165.689 174.821 167.473 174.363 169.288 174.074C194.662 182.968 218.75 201.019 235.728 221.402C215.843 227.344 200.528 244.602 200.397 265.843C171.634 255.11 149.094 242.168 131.75 216.32ZM206.79 278.482C203.282 283.523 201.87 285.018 197.12 279.043C193.65 274.563 190.771 269.655 188.557 264.438C195.605 267.158 203.267 270.347 210.594 271.773C209.491 274.099 208.218 276.34 206.784 278.478L206.79 278.482ZM201.864 266.384C202.997 245.034 217.661 229.318 236.768 222.669C237.389 223.437 241.931 229.549 241.464 229.659C240.862 229.794 239.307 230.211 237.784 230.712C237.382 230.846 237.563 231.045 238.45 233.622C238.635 234.16 238.883 233.586 243.173 232.643C243.22 232.632 243.264 232.611 243.302 232.581C243.34 232.55 243.37 232.511 243.39 232.467C244.696 234.709 245.652 237.137 246.226 239.667C235.688 239.667 229.53 243.494 225.152 249.616C221.092 255.582 219.507 262.891 220.731 270.003C214.264 270.04 207.852 268.81 201.858 266.381L201.864 266.384ZM271.784 256.038C267.623 256.078 263.557 257.29 260.054 259.536C265.781 266.714 271.832 273.95 270.099 282.998C269.928 283.131 260.997 277.798 253.12 279.499C248.118 280.587 246.744 285.282 247.378 290.334C247.741 293.152 248.498 292.734 247.058 292.357C222.248 285.837 216.842 259.139 233.954 246.339C245.171 240.563 262.824 241.939 274.707 255.57C275.52 256.509 275.699 255.794 271.784 256.035V256.038Z" fill="#0F0F0F"/>
<path d="M165.168 188.096C160.386 188.979 155.632 191.776 155.888 192.206C156.144 192.637 159.618 190.312 165.399 189.627C168.878 189.177 172.414 189.613 175.68 190.893C195.106 197.19 189.28 224.066 173.667 232.267C158.829 240.043 140.597 225.149 145.92 205.4C147.608 199.618 150.637 196.944 150.285 196.614C149.874 196.213 146.136 200.27 144.45 204.918C135.97 229.787 167.586 250.787 184.915 224.453C198.295 204.115 184.175 184.682 165.168 188.096Z" fill="#0F0F0F"/>
<path d="M150.025 213.889C151.321 229.275 171.293 233.133 179.587 220.638C187.941 208.624 179.718 193.494 165.389 195.409C161.008 196.049 160.133 196.429 165.456 196.157C168.883 195.976 172.281 196.857 175.189 198.68C185.409 205.313 181.409 221.429 170.83 225.27C158.933 229.544 148.392 218.885 152.238 206.822C153.276 203.553 155.329 200.7 158.099 198.677C162.366 195.654 161.581 195.797 157.686 198.048C155.044 199.696 152.923 202.058 151.567 204.862C150.212 207.665 149.677 210.795 150.025 213.889Z" fill="#0F0F0F"/>
<path d="M256.928 169.44C261.349 173.685 260.643 180.379 259.92 185.92C257.851 201.789 257.815 204.432 255.368 205.376C250.925 207.093 247.824 206.059 246.829 206.363C246.321 206.572 245.867 206.896 245.504 207.309C242.152 210.48 238.293 210.912 234.291 212.589C230.829 214.037 221.811 214.259 220.954 216.003C220.803 216.307 220.879 216.323 222.021 221.947C221.869 221.891 222.525 221.961 222.53 221.798C223.795 226.265 224.552 230.861 224.786 235.497C224.915 235.987 224.874 236.505 224.671 236.969C224.468 237.432 224.113 237.813 223.666 238.049C219.176 241.174 213.586 242.501 206.333 244.592C202.848 245.597 199.146 246.606 195.648 245.645C185.637 242.896 185.234 227.264 198.915 225.712C197.538 219.758 194.435 219.379 193.845 210.352C193.66 209.22 193.73 208.062 194.049 206.961C194.368 205.86 194.929 204.844 195.69 203.987C198.204 200.636 201.416 197.87 205.103 195.88C203.229 194.857 186.84 201.518 177.743 197.553C172.463 195.254 171.139 190.12 173.525 187.077C174.984 185.579 176.873 184.573 178.93 184.197C224.256 171.12 213.01 182.929 183.427 157.672C178.738 153.672 169.975 145.907 170.298 139.406C170.765 129.966 187.055 138.539 195.762 142.238C201.643 133.419 201.859 128.377 204.562 124.92C211.61 115.885 239.475 118.749 247.527 124.473C250.887 126.864 257.805 136.299 259.472 141.934C260.424 145.619 260.736 149.441 260.392 153.233C260.107 154.153 259.314 155.025 259.607 155.944C260.282 158.053 261.847 159.254 261.519 161.443C260.781 164.556 259.072 167.354 256.64 169.432C256.541 169.393 256.861 169.381 256.928 169.44Z" fill="#FFC5F6"/>
<path d="M232.704 150.774C233.922 143.201 227.048 133.78 224.464 131.607C221.119 128.793 212.144 126.511 205.424 129.091C193.584 133.638 188.279 162.518 206.007 166.003C212.771 167.332 215.683 167.071 221.799 164.191C229.155 160.729 231.528 158.079 232.704 150.774Z" fill="#92FCFF"/>
<path d="M258.307 169.904C261.455 165.833 263.501 160.022 260.824 155.691C264.549 142.891 256.261 109.726 208.664 119.872H208.631C207.082 120.571 205.656 121.516 204.408 122.67C201.938 125.308 201.554 128.528 199.632 131.241C197.321 134.221 195.559 137.588 194.427 141.185C182.347 135.464 177.663 132.614 172.579 134.382C171.413 134.771 170.401 135.523 169.692 136.528C168.984 137.533 168.615 138.738 168.64 139.968C168.651 144.507 172.16 147.624 175.259 150.923C184.481 160.467 194.957 168.713 206.4 175.435C176.891 182.795 174.362 182.836 171.709 186.768C169.269 190.435 171.109 195.956 176.624 198.313C180.36 200.233 185.655 200.307 189.851 199.913C200.506 198.889 200.587 197.523 197.666 199.632C190.866 204.5 191.33 211.771 195.053 219.227C195.685 221.051 196.461 222.822 197.373 224.523C195.49 224.639 193.668 225.228 192.074 226.236C190.239 227.614 188.839 229.49 188.042 231.641C187.244 233.792 187.082 236.127 187.576 238.368C189.53 247.318 197.496 248.416 206.344 246.384C214.442 244.411 222.471 240.04 224.378 238.339C224.925 237.802 225.325 237.134 225.541 236.399C225.757 235.663 225.781 234.885 225.611 234.137C224.845 227.987 223.515 221.921 221.637 216.016C236.224 213.313 240.981 212.363 244.517 209.694C248.485 206.846 244.656 206.985 250.951 207.467C259.139 207.972 259.615 201.46 260.941 192.729C261.861 186.56 263.003 174.008 258.307 169.904ZM212.192 121.798C234.248 122.278 238.603 138.067 239.418 137.736C239.869 137.556 236.251 125.502 223.341 121.651C219.923 120.574 218.563 120.851 223.181 120.635C238.851 119.987 251.471 124.806 257.443 139.441C260.68 147.251 259.616 154.161 259.33 153.932C256.531 151.532 252.912 151.841 252.93 152.22C252.906 152.7 259.229 152.899 259.96 158.641C260.653 164.081 255.64 170.052 251.144 173.179C239.92 180.883 232.779 167.542 243.547 157.212C245.402 155.41 247.616 154.02 250.045 153.132C251.779 152.515 252.842 152.435 252.839 152.219C252.871 151.739 247.661 151.302 242.266 155.764C238.813 158.627 241.306 158.193 241.762 151.124C241.984 149.523 241.867 147.893 241.419 146.34C241.232 146.35 241.349 148.052 240.915 151.035C237.875 171.094 215.245 175.515 203.485 168.86C202.566 167.976 201.717 167.021 200.946 166.004C215.917 173.248 232.315 162.793 233.586 150.931C234.086 145.37 232.465 139.826 229.046 135.413C225.628 130.999 220.666 128.042 215.157 127.136C211.509 126.534 207.768 126.857 204.277 128.075C205.842 124.601 207.2 122.811 212.192 121.798ZM211.437 174.176H211.408C206.795 172.083 211.872 174.854 220.592 173.329C226.583 172.327 232.063 169.34 236.152 164.849C235.566 166.695 235.47 168.662 235.873 170.556C236.277 172.451 237.165 174.208 238.451 175.656C224.973 179.59 211.651 175.064 211.437 174.176ZM202.72 131.443C203.053 132.097 204.898 129.873 210.597 129.51C214.363 129.148 218.152 129.892 221.502 131.649C224.852 133.407 227.617 136.102 229.459 139.406C238.807 156.193 220.624 170.163 205.123 164.872C199.584 163.038 198.255 160.67 198.034 160.939C191.071 144.756 202.104 132.555 202.72 131.443ZM171.304 139.964C171.282 136.664 174.866 135.964 178.119 136.673C180.687 137.283 181.387 137.736 193.959 142.961C192.245 150.179 193.253 157.775 196.791 164.296C198.391 167.217 198.611 166.44 197.839 167.132C198.947 168.344 171.399 146.836 171.298 139.964H171.304ZM222.72 236.593C217.499 239.923 211.759 242.356 205.736 243.793C200.834 244.886 194.338 245.38 191.586 241.171C190.259 239.178 189.732 236.758 190.11 234.393C190.487 232.029 191.741 229.894 193.623 228.412C195.883 226.739 199.122 227.633 200.517 225.961C199.983 225.707 200.375 225.88 200.258 225.817C200.765 225.017 200.759 225.156 199.651 223.198C194.191 213.539 198.947 222.769 213.77 218.2C215.008 217.851 219.05 215.377 219.431 215.696C220.061 215.766 221.111 221.243 221.237 221.87C221.677 224.297 224.445 234.963 222.72 236.593ZM245.309 204.675C242.962 209.209 236.973 210.233 232.067 211.446C217.667 214.92 221.704 214.35 220.098 213.91C218.323 213.568 216.53 214.732 214.365 215.76C211.635 216.723 208.765 217.227 205.871 217.248C201.685 217.408 197.72 215.577 196.219 216.161C192.112 203.904 199.021 201.281 209.696 196.432C217.655 194.312 213.347 195.488 226.21 193.824C233.493 192.811 236.48 191.84 226.067 192.283C217.354 192.732 220.447 193.457 227.848 188.852C230.216 187.35 231.389 186.332 231.298 186.188C230.599 185.068 220.688 194.604 189.607 197.244C184.53 197.681 177.255 197.355 174.336 193.166C172.367 190.36 173 187.102 178.935 185.18C180.301 184.747 178.493 185.217 211.767 176.913C220.963 180.28 231.049 180.31 240.266 176.998C241.539 177.683 242.95 178.073 244.394 178.142C245.821 190.23 248.32 199.228 245.307 204.675H245.309ZM258.227 192.316C256.043 206.672 255.667 205.001 248.051 205.3C250.941 199.102 248.712 190.555 246.303 178.057C250.501 177.499 254.328 174.515 257.147 171.308C260.466 175.076 258.973 187.376 258.226 192.32L258.227 192.316Z" fill="#0F0F0F"/>
<path d="M153.76 250.462C156.416 248.879 156.733 248.943 157.37 245.233C159.325 233.852 171.051 224.177 177.914 223.153C184.043 222.238 188.827 226.071 187.424 234.599C186.677 237.534 186.248 240.541 186.144 243.567C186.403 248.506 189.598 252.93 189.867 257.871C190.027 260.839 189.354 262.975 186.453 275.758C185.598 279.519 184.445 280.002 181.973 280.134C177.828 280.479 173.66 280.445 169.522 280.031C164.741 279.375 160.15 277.724 156.046 275.185C151.943 272.646 148.417 269.275 145.696 265.289C145.096 264.418 148.301 253.713 153.76 250.462Z" fill="white"/>
<path d="M180.544 238.684C180.274 235.736 180.224 233.884 179.974 233.872C179.771 233.856 179.41 235.705 179.384 238.734C179.29 245.632 181.315 254.644 182.019 261.945C182.32 264.892 182.398 266.745 182.645 266.745C182.85 266.758 183.184 264.904 183.178 261.878C183.2 255.08 181.179 246.097 180.544 238.684Z" fill="#0F0F0F"/>
<path d="M190.49 259.105C190.245 253.057 188.685 247.176 188.286 240.96C187.909 235.489 189.28 230.734 187.006 226.107C182.854 217.579 173.43 221.104 165.794 227.126C159.667 232.313 155.773 239.66 154.923 247.643C148.771 252.107 146.864 258.225 147.573 258.523C148.232 258.816 149.912 255.174 154.613 251.302C154.272 258.289 155.616 268.38 156.533 268.342C157.552 268.3 157.368 257.726 158.152 251.04C159.112 242.652 161.57 235.43 168.232 230.08C173.427 225.987 180.688 221.814 183.557 227.793C185.296 231.299 184.056 235.668 184.453 241.201C184.877 247.835 186.432 253.888 186.954 259.304C187.499 265.673 184.664 276.208 185.952 276.396C186.72 276.489 190.677 266.227 190.49 259.105Z" fill="#0F0F0F"/>
</svg>
