<svg xmlns="http://www.w3.org/2000/svg" xmlns:xlink="http://www.w3.org/1999/xlink" width="500" zoomAndPan="magnify" viewBox="0 0 375 374.999991" height="500" preserveAspectRatio="xMidYMid meet" version="1.0"><defs><g/><clipPath id="9e053ddc44"><path d="M 27.589844 199 L 29 199 L 29 206 L 27.589844 206 Z M 27.589844 199 " clip-rule="nonzero"/></clipPath><clipPath id="5c729a37f5"><path d="M 113 274 L 118 274 L 118 277.308594 L 113 277.308594 Z M 113 274 " clip-rule="nonzero"/></clipPath></defs><path fill="#5ce1e6" d="M 72.585938 81.808594 C 75.558594 78.914062 80.457031 73.855469 81.773438 71.773438 C 81.832031 71.660156 81.878906 71.492188 81.878906 71.367188 C 80.46875 71.402344 67.734375 84.550781 67.683594 86.023438 C 68.195312 85.984375 70.632812 83.710938 72.585938 81.808594 " fill-opacity="1" fill-rule="nonzero"/><path fill="#5ce1e6" d="M 60.25 98.886719 C 62.84375 95.84375 67.089844 90.335938 68.144531 87.617188 C 68.199219 87.417969 68.277344 87.113281 68.1875 87.011719 C 67.710938 86.484375 64.457031 89.9375 61.714844 93.496094 C 58.203125 98.054688 55.648438 102.210938 55.902344 102.957031 C 56.453125 103.203125 58.863281 100.511719 60.25 98.886719 " fill-opacity="1" fill-rule="nonzero"/><path fill="#5ce1e6" d="M 126.621094 42.050781 C 126.6875 41.984375 126.757812 41.863281 126.757812 41.769531 C 124.914062 41.746094 108.117188 50.53125 108.039062 51.5625 C 108.785156 51.574219 112.460938 49.820312 114.585938 48.773438 C 118.296875 46.941406 124.847656 43.5 126.621094 42.050781 " fill-opacity="1" fill-rule="nonzero"/><path fill="#5ce1e6" d="M 108.597656 52.984375 C 108.683594 52.800781 108.789062 52.574219 108.675781 52.460938 C 107.511719 51.320312 92.273438 61.628906 91.507812 64.074219 C 91.210938 65.019531 93.746094 63.992188 97.660156 61.574219 C 101.324219 59.3125 107.136719 55.152344 108.597656 52.984375 " fill-opacity="1" fill-rule="nonzero"/><path fill="#5ce1e6" d="M 82.554688 76.992188 C 85.886719 74.496094 91.113281 69.683594 92.296875 66.796875 C 92.359375 66.554688 92.441406 66.226562 92.3125 66.039062 C 90.9375 64.050781 77.335938 75.675781 76.832031 79.269531 C 76.644531 80.59375 79 79.65625 82.554688 76.992188 " fill-opacity="1" fill-rule="nonzero"/><path fill="#5ce1e6" d="M 146.210938 34.304688 C 145.847656 34.417969 145.316406 34.59375 144.667969 34.816406 C 145.191406 34.640625 145.722656 34.464844 146.222656 34.300781 L 146.210938 34.304688 " fill-opacity="1" fill-rule="nonzero"/><path fill="#5ce1e6" d="M 120.417969 47.097656 C 119.636719 48.476562 122.738281 48.234375 127.640625 46.535156 C 131.871094 45.066406 138.527344 42.011719 140.089844 39.820312 C 140.144531 39.691406 140.234375 39.503906 140.207031 39.367188 C 139.769531 37.082031 122.199219 43.945312 120.417969 47.097656 " fill-opacity="1" fill-rule="nonzero"/><path fill="#5ce1e6" d="M 103.171875 59.929688 C 102.546875 61.820312 105.519531 61.683594 110.078125 59.617188 C 114.027344 57.828125 120.167969 53.953125 121.472656 50.933594 C 121.53125 50.675781 121.613281 50.320312 121.449219 50.054688 C 119.792969 47.414062 104.589844 55.628906 103.171875 59.929688 " fill-opacity="1" fill-rule="nonzero"/><path fill="#5ce1e6" d="M 87.824219 75.007812 C 86.917969 77.757812 89.8125 77.972656 94.273438 75.480469 C 98.488281 73.128906 103.605469 68.488281 104.519531 65.089844 C 104.558594 64.761719 104.609375 64.308594 104.425781 63.964844 C 102.710938 60.714844 89.679688 69.386719 87.824219 75.007812 " fill-opacity="1" fill-rule="nonzero"/><path fill="#5ce1e6" d="M 160.0625 32.085938 C 160.128906 32.015625 160.203125 31.90625 160.230469 31.816406 C 159.371094 30.4375 139.667969 35.84375 139.148438 37.601562 C 139.582031 38.296875 145.125 37.019531 146.816406 36.609375 C 150.957031 35.609375 158.214844 33.496094 160.0625 32.085938 " fill-opacity="1" fill-rule="nonzero"/><path fill="#5ce1e6" d="M 134.289062 45.917969 C 133.058594 48.140625 136.605469 48.949219 142.199219 47.722656 C 146.648438 46.742188 153.519531 44.027344 154.867188 41.054688 C 154.910156 40.855469 154.964844 40.574219 154.921875 40.375 C 154.082031 36.550781 136.921875 41.160156 134.289062 45.917969 " fill-opacity="1" fill-rule="nonzero"/><path fill="#5ce1e6" d="M 116.621094 58.4375 C 115.003906 61.617188 118.492188 62.867188 124.085938 61.113281 C 128.324219 59.789062 134.78125 56.183594 135.875 52.316406 C 135.902344 52.058594 135.9375 51.707031 135.878906 51.453125 C 134.804688 46.921875 119.6875 52.40625 116.621094 58.4375 " fill-opacity="1" fill-rule="nonzero"/><path fill="#5ce1e6" d="M 100.679688 73.597656 C 98.753906 77.777344 102.097656 79.53125 107.691406 77.273438 C 111.652344 75.671875 117.582031 71.378906 118.363281 66.832031 C 118.375 66.414062 118.390625 65.847656 118.152344 65.34375 C 116.140625 61.101562 103.734375 66.964844 100.679688 73.597656 " fill-opacity="1" fill-rule="nonzero"/><path fill="#5ce1e6" d="M 153.6875 36.167969 C 152.285156 37.738281 155.78125 38.457031 161.488281 37.765625 C 165.941406 37.226562 172.914062 35.527344 174.46875 33.441406 C 174.527344 33.304688 174.605469 33.101562 174.578125 32.957031 C 174.074219 30.121094 156.695312 32.792969 153.6875 36.167969 " fill-opacity="1" fill-rule="nonzero"/><path fill="#5ce1e6" d="M 157.925781 52.371094 C 162.410156 51.882812 169.21875 49.511719 170.316406 45.773438 C 170.339844 45.507812 170.367188 45.140625 170.308594 44.882812 C 169.226562 40.261719 154.035156 42.203125 149.988281 47.480469 C 147.507812 50.710938 151.367188 53.085938 157.925781 52.371094 " fill-opacity="1" fill-rule="nonzero"/><path fill="#5ce1e6" d="M 139.75 65.8125 C 144.230469 64.917969 150.90625 61.625 151.726562 57.097656 C 151.734375 56.773438 151.738281 56.332031 151.65625 56.015625 C 150.304688 50.761719 136.316406 53.53125 131.960938 59.917969 C 128.992188 64.269531 132.851562 67.191406 139.75 65.8125 " fill-opacity="1" fill-rule="nonzero"/><path fill="#5ce1e6" d="M 122.855469 81.933594 C 127.125 80.738281 133.378906 76.742188 133.910156 71.59375 C 133.894531 71.230469 133.871094 70.734375 133.769531 70.382812 C 132.125 64.621094 118.867188 68.398438 115.105469 75.703125 C 112.550781 80.65625 116.390625 83.746094 122.855469 81.933594 " fill-opacity="1" fill-rule="nonzero"/><path fill="#5ce1e6" d="M 168.839844 38.355469 C 166.921875 40.585938 170.609375 42.464844 176.738281 42.375 C 181.195312 42.308594 188.0625 40.960938 189.375 38.160156 C 189.417969 37.957031 189.46875 37.675781 189.425781 37.472656 C 188.597656 33.480469 172.4375 34.175781 168.839844 38.355469 " fill-opacity="1" fill-rule="nonzero"/><path fill="#5ce1e6" d="M 174.339844 60.085938 C 178.84375 60 185.542969 57.9375 186.347656 53.636719 C 186.351562 53.472656 186.371094 53.253906 186.359375 53.09375 C 185.949219 47.378906 172.242188 46.738281 166.800781 52.179688 C 162.882812 56.097656 166.828125 60.234375 174.339844 60.085938 " fill-opacity="1" fill-rule="nonzero"/><path fill="#5ce1e6" d="M 156.695312 73.226562 C 161.214844 72.742188 167.824219 69.804688 168.367188 64.789062 C 168.359375 64.605469 168.363281 64.355469 168.339844 64.167969 C 167.570312 57.707031 153.753906 58.222656 148.628906 64.90625 C 144.976562 69.671875 149.199219 74.027344 156.695312 73.226562 " fill-opacity="1" fill-rule="nonzero"/><path fill="#5ce1e6" d="M 139.714844 89.136719 C 144.226562 88.304688 150.699219 84.601562 150.96875 78.976562 C 150.953125 78.769531 150.941406 78.492188 150.910156 78.285156 C 149.859375 71.644531 137.03125 72.613281 131.84375 79.722656 C 127.644531 85.476562 131.914062 90.578125 139.714844 89.136719 " fill-opacity="1" fill-rule="nonzero"/><path fill="#5ce1e6" d="M 184.988281 43.3125 C 181.707031 46.152344 185.503906 49.585938 192.507812 50.117188 C 196.945312 50.453125 203.664062 49.375 204.714844 45.925781 C 204.726562 45.792969 204.753906 45.617188 204.753906 45.484375 C 204.671875 40.695312 189.894531 39.070312 184.988281 43.3125 " fill-opacity="1" fill-rule="nonzero"/><path fill="#5ce1e6" d="M 183.496094 59.996094 C 178.925781 64.03125 183.050781 69.46875 190.980469 69.859375 C 195.464844 70.078125 202.015625 68.292969 202.546875 63.632812 C 202.246094 56.648438 188.9375 55.191406 183.496094 59.996094 " fill-opacity="1" fill-rule="nonzero"/><path fill="#5ce1e6" d="M 173.945312 82.710938 C 178.476562 82.542969 184.980469 79.890625 185.261719 74.519531 C 184.578125 66.671875 171.097656 66.347656 165.882812 72.308594 C 161.539062 77.273438 165.984375 83.007812 173.945312 82.710938 " fill-opacity="1" fill-rule="nonzero"/><path fill="#5ce1e6" d="M 149.464844 86.726562 C 144.351562 92.667969 148.898438 99.277344 157.445312 98.316406 C 161.996094 97.804688 168.410156 94.394531 168.429688 88.414062 C 167.425781 80.277344 154.972656 80.332031 149.464844 86.726562 " fill-opacity="1" fill-rule="nonzero"/><path fill="#5ce1e6" d="M 208.40625 60.140625 C 212.800781 60.78125 219.332031 59.9375 220.097656 56.058594 C 220.175781 49.875 205.917969 47.34375 200.964844 51.324219 C 197.082031 54.445312 200.976562 59.058594 208.40625 60.140625 " fill-opacity="1" fill-rule="nonzero"/><path fill="#5ce1e6" d="M 73.71875 110.546875 C 72.484375 115.421875 75.558594 117.355469 80.296875 114.683594 C 83.648438 112.792969 88.453125 107.726562 88.640625 102.378906 C 88.585938 101.648438 88.53125 100.898438 88.019531 100.164062 C 85.140625 96.027344 75.648438 102.917969 73.71875 110.546875 " fill-opacity="1" fill-rule="nonzero"/><path fill="#5ce1e6" d="M 94.160156 119.445312 C 97.859375 117.933594 103.058594 113.121094 103.019531 107.164062 C 102.957031 106.613281 102.867188 105.859375 102.53125 105.148438 C 99.960938 99.714844 90.082031 103.992188 86.984375 111.882812 C 84.597656 117.960938 88.285156 121.851562 94.160156 119.445312 " fill-opacity="1" fill-rule="nonzero"/><path fill="#5ce1e6" d="M 109.839844 126.644531 C 113.871094 125.449219 119.429688 120.863281 119.160156 114.394531 C 119.125 114.160156 119.089844 113.839844 119.042969 113.605469 C 117.539062 106.488281 106.976562 107.796875 102.425781 115.667969 C 98.390625 122.640625 102.550781 128.796875 109.839844 126.644531 " fill-opacity="1" fill-rule="nonzero"/><path fill="#5ce1e6" d="M 136.984375 123.648438 C 136.9375 123.394531 136.890625 123.054688 136.832031 122.804688 C 134.972656 115.117188 123.523438 115.550781 118.8125 123.492188 C 114.664062 130.472656 119.472656 137.515625 127.242188 135.84375 C 131.582031 134.910156 137.472656 130.507812 136.984375 123.648438 " fill-opacity="1" fill-rule="nonzero"/><path fill="#5ce1e6" d="M 62.546875 111.722656 C 62.113281 115.058594 64.636719 115.472656 68.292969 112.65625 C 71.285156 110.355469 75.679688 105.015625 76.085938 100.351562 C 76.070312 99.730469 76.054688 99.082031 75.640625 98.550781 C 73.09375 95.25 63.425781 104.976562 62.546875 111.722656 " fill-opacity="1" fill-rule="nonzero"/><path fill="#5ce1e6" d="M 53.386719 115.367188 C 53.429688 117.230469 55.34375 116.507812 58.152344 113.578125 C 60.601562 111.019531 64.722656 105.421875 65.347656 101.304688 C 65.371094 100.789062 65.394531 100.261719 65.078125 99.933594 C 62.996094 97.765625 53.269531 110.601562 53.386719 115.367188 " fill-opacity="1" fill-rule="nonzero"/><path fill="#5ce1e6" d="M 99.945312 92.847656 C 96.859375 99.132812 100.929688 103.230469 107.867188 100.816406 C 112.210938 99.308594 118.441406 94.429688 118.691406 88.304688 C 118.65625 87.871094 118.601562 87.289062 118.476562 86.871094 C 116.546875 80.417969 104.074219 84.441406 99.945312 92.847656 " fill-opacity="1" fill-rule="nonzero"/><path fill="#5ce1e6" d="M 85.820312 91.71875 C 84.136719 96.664062 87.675781 98.714844 93.246094 96.019531 C 97.234375 94.089844 103.078125 88.914062 103.585938 83.441406 C 103.574219 82.941406 103.550781 82.257812 103.269531 81.652344 C 100.847656 76.457031 88.617188 83.507812 85.820312 91.71875 " fill-opacity="1" fill-rule="nonzero"/><path fill="#5ce1e6" d="M 195.695312 36.574219 C 200.464844 36.976562 207.890625 36.613281 209.484375 34.542969 C 209.542969 34.386719 209.613281 34.164062 209.585938 34 C 208.980469 30.496094 190.382812 29.5 187.226562 32.796875 C 185.730469 34.359375 189.53125 36.054688 195.695312 36.574219 " fill-opacity="1" fill-rule="nonzero"/><path fill="#5ce1e6" d="M 195.226562 29.625 C 195.296875 29.539062 195.40625 29.402344 195.394531 29.289062 C 195.164062 27.1875 174.925781 28.140625 172.601562 30.363281 C 171.617188 31.304688 175.222656 31.925781 180.988281 31.808594 C 185.789062 31.710938 193.378906 30.96875 195.226562 29.625 " fill-opacity="1" fill-rule="nonzero"/><path fill="#5ce1e6" d="M 124.257812 107.339844 C 128.570312 106.28125 134.636719 102.03125 134.628906 95.902344 C 134.574219 95.460938 134.492188 94.863281 134.355469 94.4375 C 132.21875 87.96875 120.769531 89.917969 116.335938 97.503906 C 112.652344 103.808594 116.945312 109.136719 124.257812 107.339844 " fill-opacity="1" fill-rule="nonzero"/><path fill="#5ce1e6" d="M 133.886719 104.539062 C 129.1875 111.144531 133.96875 118.011719 142.273438 116.585938 C 146.8125 115.804688 153.09375 111.785156 152.851562 105.289062 C 152.816406 105.050781 152.777344 104.726562 152.726562 104.488281 C 151.117188 97.121094 139.140625 97.15625 133.886719 104.539062 " fill-opacity="1" fill-rule="nonzero"/><path fill="#5ce1e6" d="M 74.371094 92.660156 C 73.703125 95.832031 76.402344 96.183594 80.511719 93.464844 C 83.84375 91.261719 88.847656 86.207031 89.546875 81.855469 C 89.566406 81.277344 89.589844 80.679688 89.183594 80.1875 C 86.734375 77.21875 75.660156 86.546875 74.371094 92.660156 " fill-opacity="1" fill-rule="nonzero"/><path fill="#5ce1e6" d="M 64.238281 96.496094 C 64.171875 98.148438 66.339844 97.34375 69.511719 94.53125 C 72.503906 91.882812 77.117188 86.566406 78.015625 83.03125 C 78.074219 82.566406 78.128906 82.125 77.8125 81.875 C 75.695312 80.195312 64.402344 92.355469 64.238281 96.496094 " fill-opacity="1" fill-rule="nonzero"/><path fill="#5ce1e6" d="M 214.328125 29.167969 C 214.371094 29.148438 214.425781 29.125 214.46875 29.105469 C 214.472656 29.0625 214.476562 29.003906 214.480469 28.960938 C 212.628906 27.863281 195.753906 26.804688 193.722656 27.660156 C 193.722656 27.703125 193.71875 27.761719 193.71875 27.804688 C 194.597656 28.285156 198.800781 28.6875 201.230469 28.886719 C 205.308594 29.21875 212.46875 29.585938 214.328125 29.167969 " fill-opacity="1" fill-rule="nonzero"/><path fill="#5ce1e6" d="M 215.207031 33.609375 C 219.5 34.417969 226.25 35.097656 227.816406 34.0625 C 227.878906 33.980469 227.964844 33.847656 227.953125 33.746094 C 227.703125 31.480469 209.660156 28.578125 207.632812 30.476562 C 206.773438 31.285156 210.027344 32.628906 215.207031 33.609375 " fill-opacity="1" fill-rule="nonzero"/><path fill="#5ce1e6" d="M 229.46875 41.273438 C 233.683594 42.476562 240.214844 43.457031 241.539062 41.859375 C 241.5625 41.789062 241.609375 41.699219 241.621094 41.628906 C 242.136719 38.511719 225.964844 33.890625 222.179688 36.070312 C 220.222656 37.203125 223.5625 39.582031 229.46875 41.273438 " fill-opacity="1" fill-rule="nonzero"/><path fill="#5ce1e6" d="M 236.777344 44.5 C 234.328125 45.84375 237.742188 49.160156 243.9375 51.464844 C 248.046875 52.988281 254.3125 54.207031 255.386719 52.136719 C 256.074219 48.261719 241.117188 42.121094 236.777344 44.5 " fill-opacity="1" fill-rule="nonzero"/><path fill="#5ce1e6" d="M 211.238281 43.945312 C 215.582031 44.71875 222.242188 44.6875 223.457031 42.1875 C 223.476562 42.085938 223.515625 41.957031 223.523438 41.855469 C 223.738281 37.816406 208.242188 34.847656 203.785156 38.074219 C 201.199219 39.945312 204.824219 42.800781 211.238281 43.945312 " fill-opacity="1" fill-rule="nonzero"/><path fill="#5ce1e6" d="M 219.289062 46.402344 C 216.132812 48.546875 219.839844 52.503906 226.628906 54.242188 C 230.894531 55.335938 237.332031 55.519531 238.285156 52.503906 C 238.714844 47.121094 223.757812 43.367188 219.289062 46.402344 " fill-opacity="1" fill-rule="nonzero"/><path fill="#5ce1e6" d="M 209.019531 81.949219 C 213.441406 82.402344 219.785156 80.835938 220.050781 75.945312 C 219.421875 69.078125 207.164062 66.40625 201.703125 70.503906 C 196.425781 74.464844 200.664062 81.097656 209.019531 81.949219 " fill-opacity="1" fill-rule="nonzero"/><path fill="#5ce1e6" d="M 192.726562 94.515625 C 197.21875 94.582031 203.5625 92.152344 203.589844 86.550781 C 202.59375 78.691406 190.238281 77.066406 184.777344 82.398438 C 179.683594 87.371094 184.289062 94.394531 192.726562 94.515625 " fill-opacity="1" fill-rule="nonzero"/><path fill="#5ce1e6" d="M 168.3125 97.15625 C 163.449219 102.988281 168.386719 110.332031 176.832031 109.828125 C 181.378906 109.558594 187.679688 106.375 187.457031 100.152344 C 186.109375 91.585938 173.585938 90.832031 168.3125 97.15625 " fill-opacity="1" fill-rule="nonzero"/><path fill="#5ce1e6" d="M 171.757812 116.351562 C 170.183594 107.820312 158.476562 107.222656 153.054688 113.523438 C 147.4375 120.042969 152.535156 128.496094 161.441406 127.433594 C 166.007812 126.890625 172.226562 123.089844 171.757812 116.351562 " fill-opacity="1" fill-rule="nonzero"/><path fill="#5ce1e6" d="M 236.652344 68.644531 C 236.339844 62.316406 223.359375 58.730469 218.289062 62.207031 C 213.824219 65.265625 217.84375 70.945312 225.570312 72.511719 C 229.878906 73.382812 236.167969 72.761719 236.652344 68.644531 " fill-opacity="1" fill-rule="nonzero"/><path fill="#5ce1e6" d="M 235.074219 57.105469 C 231.398438 59.316406 235.140625 64.210938 242.222656 66.449219 C 246.382812 67.769531 252.546875 68.136719 253.222656 64.832031 C 253.242188 59.144531 239.726562 54.304688 235.074219 57.105469 " fill-opacity="1" fill-rule="nonzero"/><path fill="#5ce1e6" d="M 149.433594 73.601562 L 149.316406 73.535156 L 149.304688 73.550781 Z M 149.433594 73.601562 " fill-opacity="1" fill-rule="nonzero"/><path fill="#5ce1e6" d="M 132.292969 77.800781 L 132.179688 77.929688 L 132.292969 77.816406 C 132.292969 77.8125 132.292969 77.808594 132.292969 77.800781 " fill-opacity="1" fill-rule="nonzero"/><path fill="#5ce1e6" d="M 76.214844 130.992188 C 73.75 137.265625 77.136719 141.609375 82.566406 139.140625 C 85.773438 137.6875 90.171875 133.023438 89.914062 127.222656 C 89.820312 126.617188 89.707031 125.863281 89.34375 125.148438 C 86.890625 120.300781 79.039062 123.796875 76.214844 130.992188 " fill-opacity="1" fill-rule="nonzero"/><path fill="#5ce1e6" d="M 63.5625 130.054688 C 62.636719 134.828125 65.496094 136.789062 69.5625 134.167969 C 72.1875 132.476562 76.324219 127.777344 76.261719 122.375 C 76.238281 122.015625 76.164062 120.925781 75.554688 120.082031 C 72.8125 116.277344 64.964844 122.800781 63.5625 130.054688 " fill-opacity="1" fill-rule="nonzero"/><path fill="#5ce1e6" d="M 210.9375 106.460938 C 215.152344 106.691406 221.015625 104.578125 220.855469 99.148438 C 220.160156 92.53125 209.484375 89.28125 203.804688 93.960938 C 198.398438 98.417969 202.730469 106.011719 210.9375 106.460938 " fill-opacity="1" fill-rule="nonzero"/><path fill="#5ce1e6" d="M 236.425781 88.75 C 235.570312 82.210938 224.484375 79.171875 219.554688 82.75 C 214.703125 86.273438 218.511719 92.878906 226.132812 94.148438 C 230.339844 94.847656 236.316406 93.636719 236.425781 88.75 " fill-opacity="1" fill-rule="nonzero"/><path fill="#5ce1e6" d="M 227.976562 31.960938 C 228.375 32.699219 232.449219 34.007812 234.839844 34.722656 C 235.785156 35.003906 244.140625 37.472656 246.175781 37.105469 C 246.234375 37.074219 246.3125 37.011719 246.339844 36.949219 C 246.324219 36.914062 246.308594 36.863281 246.289062 36.832031 C 245.152344 35.144531 228.378906 30.679688 227.976562 31.960938 " fill-opacity="1" fill-rule="nonzero"/><path fill="#5ce1e6" d="M 97.699219 146.1875 C 100.984375 145.023438 105.691406 140.976562 105.199219 134.589844 C 105.109375 134.109375 104.992188 133.464844 104.828125 133.003906 C 102.703125 127.039062 94.082031 128.78125 90.632812 135.871094 C 87.664062 141.980469 90.9375 148.582031 97.699219 146.1875 " fill-opacity="1" fill-rule="nonzero"/><path fill="#5ce1e6" d="M 46.601562 120.398438 C 46.746094 121.285156 48.4375 119.300781 49.96875 117.148438 C 51.707031 114.703125 55.210938 109.230469 56.003906 106 C 56.054688 105.613281 56.105469 105.28125 55.886719 105.195312 C 54.359375 104.589844 46.203125 117.949219 46.601562 120.398438 " fill-opacity="1" fill-rule="nonzero"/><path fill="#5ce1e6" d="M 53.421875 130.777344 C 53.191406 134.132812 55.257812 134.585938 58.339844 131.859375 C 60.359375 130.070312 64.222656 125.355469 64.375 120.308594 C 64.328125 119.632812 64.285156 118.996094 63.886719 118.464844 C 61.585938 115.382812 53.859375 124.472656 53.421875 130.777344 " fill-opacity="1" fill-rule="nonzero"/><path fill="#5ce1e6" d="M 235.445312 74.832031 C 231.835938 77.28125 234.597656 83 241.863281 84.890625 C 244.523438 85.582031 251.511719 86.347656 251.847656 81.625 C 251.285156 75.65625 239.871094 71.824219 235.445312 74.832031 " fill-opacity="1" fill-rule="nonzero"/><path fill="#5ce1e6" d="M 248.046875 42.386719 C 251.140625 43.644531 257.375 45.800781 258.839844 44.964844 C 258.867188 44.921875 258.917969 44.871094 258.933594 44.824219 C 259.59375 42.898438 244.320312 36.796875 241.730469 37.953125 C 240.464844 38.515625 243.121094 40.378906 248.046875 42.386719 " fill-opacity="1" fill-rule="nonzero"/><path fill="#5ce1e6" d="M 205.273438 112.570312 C 203.789062 104.5 192.949219 103.761719 188.285156 108.238281 C 183.28125 113.039062 186.800781 121.523438 195.695312 121.308594 C 201.53125 121.167969 205.828125 117.246094 205.273438 112.570312 " fill-opacity="1" fill-rule="nonzero"/><path fill="#5ce1e6" d="M 146.640625 145.867188 C 150.621094 145.171875 156.292969 141.660156 155.617188 134.824219 C 154.335938 126.726562 143.140625 126.597656 138.480469 132.863281 C 134.023438 138.863281 138.003906 147.371094 146.640625 145.867188 " fill-opacity="1" fill-rule="nonzero"/><path fill="#5ce1e6" d="M 107.140625 143.09375 C 103 149.703125 107.28125 157.011719 114.296875 155.3125 C 119.226562 154.121094 122.917969 148.804688 122.195312 143.9375 C 122.144531 143.691406 122.089844 143.359375 122.023438 143.113281 C 120.238281 136.410156 111.335938 136.398438 107.140625 143.09375 " fill-opacity="1" fill-rule="nonzero"/><path fill="#5ce1e6" d="M 268.625 64.222656 C 268.890625 60.007812 256.34375 54.253906 252.664062 55.855469 C 250 57.015625 252.96875 60.828125 258.546875 63.410156 C 261.960938 64.992188 267.714844 66.613281 268.625 64.222656 " fill-opacity="1" fill-rule="nonzero"/><path fill="#5ce1e6" d="M 45.289062 133.992188 C 45.429688 135.632812 46.953125 135.078125 48.996094 132.640625 C 51.777344 129.324219 54.320312 123.980469 54.433594 121.203125 C 54.425781 120.695312 54.414062 120.214844 54.121094 119.902344 C 52.160156 117.816406 44.894531 129.40625 45.289062 133.992188 " fill-opacity="1" fill-rule="nonzero"/><path fill="#5ce1e6" d="M 267.167969 77.933594 C 266.859375 73.203125 256.515625 67.882812 251.792969 70.027344 C 248.03125 71.738281 251.527344 76.90625 258.035156 79.246094 C 261.570312 80.519531 266.746094 80.953125 267.167969 77.933594 " fill-opacity="1" fill-rule="nonzero"/><path fill="#5ce1e6" d="M 255.472656 46.8125 C 253.820312 47.433594 256.757812 50.179688 261.757812 52.691406 C 265.097656 54.367188 270.511719 56.339844 271.519531 55.25 C 271.523438 55.242188 271.527344 55.238281 271.53125 55.230469 C 272.511719 52.699219 258.855469 45.539062 255.472656 46.8125 " fill-opacity="1" fill-rule="nonzero"/><path fill="#5ce1e6" d="M 189.992188 128.578125 C 188.851562 121.328125 178.261719 119.253906 173.078125 125.265625 C 167.992188 131.160156 172.796875 139.15625 180.988281 138.429688 C 185.082031 138.0625 190.578125 134.769531 189.992188 128.578125 " fill-opacity="1" fill-rule="nonzero"/><path fill="#5ce1e6" d="M 72.027344 158.683594 C 75.6875 157.167969 78.671875 151.785156 78.167969 147.613281 C 78.101562 147.230469 78.003906 146.71875 77.875 146.355469 C 76.226562 141.726562 69.988281 142.882812 66.984375 149.96875 C 64.300781 156.296875 67.648438 160.5 72.027344 158.683594 " fill-opacity="1" fill-rule="nonzero"/><path fill="#5ce1e6" d="M 60.019531 153.589844 C 62.429688 152.015625 65.648438 147.328125 65.429688 142.632812 C 65.34375 141.785156 65.109375 141.09375 64.730469 140.570312 C 62.324219 137.257812 56.457031 142.335938 55.074219 148.933594 C 54.015625 154 56.910156 155.625 60.019531 153.589844 " fill-opacity="1" fill-rule="nonzero"/><path fill="#5ce1e6" d="M 237.988281 112.078125 C 237.269531 106.613281 227.988281 102.65625 222.664062 107 C 217.746094 111.007812 221.605469 118.003906 229.113281 118.695312 C 233.011719 119.050781 238.261719 116.953125 237.988281 112.078125 " fill-opacity="1" fill-rule="nonzero"/><path fill="#5ce1e6" d="M 243.855469 106.785156 C 248.738281 107.640625 252.921875 105.308594 252.640625 101.898438 C 251.683594 96.183594 242.15625 92.582031 237.425781 96.148438 C 232.90625 99.558594 237.523438 105.679688 243.855469 106.785156 " fill-opacity="1" fill-rule="nonzero"/><path fill="#5ce1e6" d="M 265.765625 46.878906 C 267.078125 47.585938 273.703125 51.109375 275.359375 50.984375 C 275.386719 50.964844 275.4375 50.953125 275.457031 50.921875 C 276.273438 49.816406 262.207031 42.402344 260.402344 42.992188 C 259.691406 43.222656 261.75 44.710938 265.765625 46.878906 " fill-opacity="1" fill-rule="nonzero"/><path fill="#5ce1e6" d="M 252.703125 88.257812 C 248.945312 90.414062 251.804688 96.191406 258.902344 97.976562 C 262.125 98.785156 266.945312 98.664062 267.011719 95 C 266.300781 89.6875 256.769531 85.921875 252.703125 88.257812 " fill-opacity="1" fill-rule="nonzero"/><path fill="#5ce1e6" d="M 223.246094 125.285156 C 222.242188 118.890625 212.308594 116.324219 207.609375 121.246094 C 203.050781 126.019531 207.578125 133.433594 214.953125 133.261719 C 218.445312 133.179688 223.785156 130.945312 223.246094 125.285156 " fill-opacity="1" fill-rule="nonzero"/><path fill="#5ce1e6" d="M 86.660156 165.667969 C 90.589844 164.144531 93.269531 159.402344 92.632812 155.097656 C 92.546875 154.671875 92.433594 154.105469 92.285156 153.699219 C 90.347656 148.296875 83.320312 149.488281 80.351562 155.71875 C 77.375 161.964844 81.089844 167.824219 86.660156 165.667969 " fill-opacity="1" fill-rule="nonzero"/><path fill="#5ce1e6" d="M 49.855469 151.105469 C 52.59375 148.449219 54.683594 143.6875 54.511719 140.496094 C 54.453125 139.964844 54.359375 139.074219 53.832031 138.574219 C 51.589844 136.441406 45.972656 144.367188 45.820312 149.878906 C 45.734375 152.941406 47.433594 153.457031 49.855469 151.105469 " fill-opacity="1" fill-rule="nonzero"/><path fill="#5ce1e6" d="M 281.824219 77.597656 C 282.148438 74.089844 271.714844 67.558594 267.867188 68.867188 C 265.171875 69.78125 267.367188 73.828125 273.394531 76.871094 C 276.070312 78.222656 281.273438 80.113281 281.824219 77.597656 " fill-opacity="1" fill-rule="nonzero"/><path fill="#5ce1e6" d="M 39.132812 139.058594 C 39.292969 139.835938 40.328125 138.664062 41.898438 135.929688 C 42.285156 135.257812 45.695312 129.238281 46.238281 125.4375 C 46.261719 125.035156 46.28125 124.660156 46.089844 124.53125 C 44.800781 123.664062 38.625 136.5625 39.132812 139.058594 " fill-opacity="1" fill-rule="nonzero"/><path fill="#5ce1e6" d="M 102.363281 174.925781 C 105.433594 174.167969 109.707031 170.769531 108.882812 164.503906 C 108.882812 164.503906 108.882812 164.5 108.882812 164.5 C 108.878906 164.5 108.878906 164.5 108.878906 164.5 C 108.878906 164.496094 108.878906 164.496094 108.878906 164.496094 C 108.878906 164.496094 108.878906 164.496094 108.878906 164.492188 C 108.878906 164.492188 108.878906 164.488281 108.878906 164.488281 C 108.878906 164.488281 108.878906 164.488281 108.878906 164.484375 C 108.65625 163.523438 108.195312 161.53125 106.367188 160.179688 C 102.003906 156.949219 93.644531 161.316406 94.761719 169.75 C 94.761719 169.75 94.761719 169.75 94.761719 169.753906 C 94.765625 169.753906 94.765625 169.753906 94.765625 169.753906 C 94.765625 169.757812 94.765625 169.757812 94.765625 169.757812 C 94.765625 169.757812 94.765625 169.757812 94.765625 169.761719 C 94.765625 169.765625 94.765625 169.765625 94.765625 169.765625 C 94.765625 169.769531 94.765625 169.769531 94.765625 169.769531 C 96.253906 176.234375 101.742188 175.078125 102.363281 174.925781 " fill-opacity="1" fill-rule="nonzero"/><path fill="#5ce1e6" d="M 132.554688 165.648438 C 136.078125 165.035156 141.363281 161.546875 140.542969 154.808594 C 138.707031 146.960938 129.101562 147 125.074219 153.128906 C 120.953125 159.40625 125.425781 166.894531 132.554688 165.648438 " fill-opacity="1" fill-rule="nonzero"/><path fill="#5ce1e6" d="M 174.847656 146.800781 C 173.507812 139.554688 163.09375 138.027344 158.460938 144.398438 C 154.019531 150.5 159.023438 158.179688 166.699219 157.035156 C 171.183594 156.363281 175.5625 152.550781 174.847656 146.800781 " fill-opacity="1" fill-rule="nonzero"/><path fill="#5ce1e6" d="M 253.582031 39.132812 C 256.121094 40.191406 262.1875 42.691406 263.699219 43.003906 C 263.734375 43.007812 263.785156 43.007812 263.824219 43.011719 C 263.824219 42.984375 263.824219 42.949219 263.824219 42.921875 C 262.535156 41.878906 248.6875 36.027344 247.832031 36.515625 C 248.046875 36.667969 248.554688 37.03125 253.582031 39.132812 " fill-opacity="1" fill-rule="nonzero"/><path fill="#5ce1e6" d="M 43.648438 123.8125 C 47.230469 116.90625 48.09375 114.9375 48.464844 113.917969 C 48.464844 113.914062 48.464844 113.914062 48.464844 113.914062 C 48.464844 113.910156 48.464844 113.910156 48.464844 113.910156 C 48.464844 113.910156 48.46875 113.910156 48.46875 113.910156 C 48.46875 113.910156 48.46875 113.90625 48.46875 113.90625 C 48.496094 113.808594 48.535156 113.675781 48.546875 113.574219 C 48.527344 113.566406 48.492188 113.558594 48.46875 113.554688 C 47.113281 114.988281 41.277344 127.058594 41.058594 128.484375 C 41.179688 128.429688 41.273438 128.386719 43.648438 123.8125 " fill-opacity="1" fill-rule="nonzero"/><path fill="#5ce1e6" d="M 269.632812 58.105469 C 267.839844 58.617188 269.605469 61.429688 275.015625 64.65625 C 275.328125 64.839844 282.648438 69.179688 283.804688 67.304688 C 284.3125 64.082031 272.511719 57.292969 269.632812 58.105469 " fill-opacity="1" fill-rule="nonzero"/><path fill="#5ce1e6" d="M 38.742188 152.371094 C 38.742188 152.371094 38.742188 152.371094 38.742188 152.375 C 38.742188 152.378906 38.742188 152.378906 38.742188 152.378906 C 38.742188 152.378906 38.742188 152.382812 38.742188 152.382812 C 38.75 152.492188 38.753906 152.636719 38.765625 152.75 C 38.945312 154.292969 40.074219 153.871094 41.640625 151.679688 C 43.863281 148.574219 45.644531 143.910156 45.613281 141.28125 C 45.582031 140.8125 45.550781 140.328125 45.296875 140.023438 C 43.910156 138.347656 38.851562 146.859375 38.742188 152.371094 " fill-opacity="1" fill-rule="nonzero"/><path fill="#5ce1e6" d="M 281.183594 91.554688 C 281.128906 91.027344 281.046875 90.230469 279.953125 88.886719 C 276.039062 84.066406 266.742188 81.351562 266.410156 85.910156 C 266.410156 85.910156 266.410156 85.914062 266.410156 85.914062 C 266.410156 85.914062 266.410156 85.917969 266.410156 85.917969 C 266.410156 85.917969 266.410156 85.917969 266.410156 85.921875 C 266.796875 89.6875 272.382812 92.148438 273.019531 92.417969 C 276.960938 94.082031 281.183594 94.132812 281.183594 91.554688 " fill-opacity="1" fill-rule="nonzero"/><path fill="#5ce1e6" d="M 287.011719 61.28125 C 287.289062 60.082031 275.347656 51.066406 272.898438 52.277344 C 272.898438 52.277344 272.898438 52.277344 272.894531 52.277344 C 272.894531 52.277344 272.894531 52.277344 272.894531 52.28125 C 272.894531 52.277344 272.894531 52.28125 272.894531 52.28125 C 272.289062 53.324219 277.816406 56.964844 278.449219 57.375 C 280.441406 58.675781 285.859375 61.933594 286.945312 61.398438 C 286.964844 61.363281 287 61.320312 287.011719 61.28125 " fill-opacity="1" fill-rule="nonzero"/><path fill="#5ce1e6" d="M 208.660156 141.167969 C 206.832031 133.394531 197.101562 133.246094 193.207031 137.84375 C 189.160156 142.628906 192.8125 150.632812 200.570312 150.101562 C 205.824219 149.742188 209.453125 145.734375 208.660156 141.167969 " fill-opacity="1" fill-rule="nonzero"/><path fill="#5ce1e6" d="M 194.339844 159.238281 C 192.664062 152.78125 184.375 150.917969 179.804688 155.964844 C 174.535156 161.78125 179.773438 169.292969 186.636719 168.699219 C 190.375 168.375 195.128906 164.90625 194.339844 159.238281 " fill-opacity="1" fill-rule="nonzero"/><path fill="#5ce1e6" d="M 152.445312 176.863281 C 157.34375 176.207031 161.121094 171.21875 160.214844 166.605469 C 158.464844 159.976562 149.824219 158.394531 145.304688 163.878906 C 139.972656 170.34375 145.355469 177.816406 152.445312 176.863281 " fill-opacity="1" fill-rule="nonzero"/><path fill="#5ce1e6" d="M 120.214844 185.492188 C 124.460938 184.691406 127.648438 179.792969 126.78125 175.414062 C 125.078125 168.90625 117.386719 167.65625 113.5 173.257812 C 109.0625 179.65625 114.039062 186.65625 120.214844 185.492188 " fill-opacity="1" fill-rule="nonzero"/><path fill="#5ce1e6" d="M 283.421875 71.292969 C 281.125 71.609375 284.132812 75.332031 288.203125 78.15625 C 291.125 80.183594 295.46875 82.246094 296.035156 80.847656 C 296.136719 77.875 286.824219 70.820312 283.421875 71.292969 " fill-opacity="1" fill-rule="nonzero"/><path fill="#5ce1e6" d="M 63.25 177.335938 C 66.203125 176.136719 68.570312 171.378906 68.03125 167.730469 C 67.964844 167.386719 67.867188 166.929688 67.75 166.605469 C 66.335938 162.734375 61.539062 163.257812 59.101562 168.855469 C 56.601562 174.585938 59.488281 178.867188 63.25 177.335938 " fill-opacity="1" fill-rule="nonzero"/><path fill="#5ce1e6" d="M 39.984375 132.710938 C 40 132.609375 40.015625 132.472656 40.015625 132.371094 C 39.992188 132.355469 39.957031 132.339844 39.929688 132.328125 C 38.726562 133.554688 35 144.203125 34.632812 146.625 C 34.652344 146.648438 34.679688 146.675781 34.699219 146.699219 C 34.960938 146.296875 35.570312 144.878906 36.515625 142.492188 C 36.816406 141.746094 39.441406 135.097656 39.984375 132.710938 " fill-opacity="1" fill-rule="nonzero"/><path fill="#5ce1e6" d="M 282.480469 83.140625 C 279.984375 83.941406 282.585938 87.863281 287.449219 90.636719 C 290.09375 92.140625 294.429688 93.730469 294.800781 91.578125 C 294.550781 88.066406 285.800781 82.074219 282.480469 83.140625 " fill-opacity="1" fill-rule="nonzero"/><path fill="#5ce1e6" d="M 33.679688 157.726562 C 34.023438 158.320312 35.242188 155.789062 35.605469 155 C 37.015625 151.953125 38.589844 147.332031 38.679688 145.179688 C 38.675781 144.835938 38.671875 144.480469 38.496094 144.375 C 37.238281 143.609375 32.734375 156.089844 33.679688 157.726562 " fill-opacity="1" fill-rule="nonzero"/><path fill="#5ce1e6" d="M 254.796875 124.792969 C 253.59375 119.398438 245.324219 116.734375 241.179688 120.40625 C 237.152344 123.980469 240.886719 130.230469 247.332031 130.699219 C 251.726562 131.019531 255.285156 128.203125 254.796875 124.792969 " fill-opacity="1" fill-rule="nonzero"/><path fill="#5ce1e6" d="M 268.421875 114.832031 C 267.460938 110.019531 259.585938 106.78125 255.453125 109.5 C 251.378906 112.183594 254.75 118.027344 260.996094 119.121094 C 265.226562 119.863281 268.765625 117.816406 268.421875 114.832031 " fill-opacity="1" fill-rule="nonzero"/><path fill="#5ce1e6" d="M 48.183594 167.28125 C 47.199219 172.007812 49.574219 173.882812 52.207031 172.101562 C 54.730469 170.394531 56.671875 165.867188 56.277344 162.601562 C 56.167969 161.984375 56.066406 161.398438 55.652344 160.796875 C 53.679688 157.925781 49.351562 161.679688 48.183594 167.28125 " fill-opacity="1" fill-rule="nonzero"/><path fill="#5ce1e6" d="M 285.847656 63.820312 C 284.59375 64.03125 286.652344 66.539062 290.53125 69.527344 C 290.597656 69.578125 297.136719 74.597656 298.1875 73.652344 C 298.730469 71.667969 288.351562 63.398438 285.847656 63.820312 " fill-opacity="1" fill-rule="nonzero"/><path fill="#5ce1e6" d="M 39.929688 168.300781 C 39.964844 170.964844 41.324219 171.453125 43.164062 169.464844 C 44.621094 167.886719 46.710938 164.144531 46.492188 160.308594 C 46.445312 159.847656 46.304688 159.007812 45.871094 158.574219 C 43.976562 156.671875 39.863281 163.398438 39.929688 168.300781 " fill-opacity="1" fill-rule="nonzero"/><path fill="#5ce1e6" d="M 281.71875 108.167969 C 281.304688 103.992188 272.945312 99.953125 269.296875 102.167969 C 266.296875 103.988281 268.832031 109.023438 274.699219 110.65625 C 277.5625 111.453125 281.789062 111.445312 281.71875 108.167969 " fill-opacity="1" fill-rule="nonzero"/><path fill="#5ce1e6" d="M 240.957031 137.832031 C 239.949219 132.210938 231.363281 129.921875 227.246094 134.179688 C 223.503906 138.050781 226.796875 145.136719 233.804688 144.941406 C 237.015625 144.851562 241.574219 142.886719 240.957031 137.832031 " fill-opacity="1" fill-rule="nonzero"/><path fill="#5ce1e6" d="M 76.78125 184.582031 C 79.03125 183.789062 82.332031 180.566406 81.617188 175.308594 C 81.550781 174.933594 81.417969 174.371094 81.179688 173.804688 C 79.320312 169.386719 73.757812 170.25 71.425781 175.316406 C 68.957031 180.675781 72.160156 186.21875 76.78125 184.582031 " fill-opacity="1" fill-rule="nonzero"/><path fill="#5ce1e6" d="M 282.679688 54.523438 C 285.777344 56.65625 289.71875 59.269531 290.882812 59.621094 C 290.917969 59.605469 290.96875 59.585938 291.003906 59.574219 C 290.578125 58.320312 279.277344 50.808594 278.277344 51.109375 C 278.328125 51.25 278.457031 51.625 282.679688 54.523438 " fill-opacity="1" fill-rule="nonzero"/><path fill="#5ce1e6" d="M 293.921875 65.074219 C 293.984375 65.128906 300.160156 70.257812 301.324219 70.265625 C 301.34375 70.25 301.367188 70.230469 301.386719 70.214844 C 301.453125 68.757812 290.609375 59.992188 289.667969 60.738281 C 289.617188 61.378906 292.308594 63.730469 293.921875 65.074219 " fill-opacity="1" fill-rule="nonzero"/><path fill="#5ce1e6" d="M 33.664062 152.277344 C 33.6875 151.941406 33.6875 151.941406 33.601562 151.851562 C 32.824219 152.644531 30.046875 163.882812 30.375 164.921875 C 30.449219 164.785156 30.582031 164.554688 31.460938 161.375 C 32.730469 156.804688 33.472656 153.742188 33.664062 152.277344 " fill-opacity="1" fill-rule="nonzero"/><path fill="#5ce1e6" d="M 180.121094 178.925781 C 178.691406 172.765625 170.390625 171.179688 166.242188 176.269531 C 161.785156 181.742188 166.203125 189.234375 173.292969 188.242188 C 176.707031 187.761719 181.082031 184.558594 180.121094 178.925781 " fill-opacity="1" fill-rule="nonzero"/><path fill="#5ce1e6" d="M 85.257812 189.148438 C 85.257812 189.152344 85.257812 189.152344 85.257812 189.15625 C 85.257812 189.15625 85.257812 189.15625 85.257812 189.160156 C 85.257812 189.160156 85.257812 189.164062 85.257812 189.164062 C 85.257812 189.164062 85.257812 189.167969 85.257812 189.167969 C 85.257812 189.171875 85.261719 189.171875 85.261719 189.171875 C 85.261719 189.175781 85.261719 189.175781 85.261719 189.179688 C 85.261719 189.179688 85.261719 189.179688 85.261719 189.183594 C 86.699219 194.933594 91.328125 194.03125 91.855469 193.910156 C 94.414062 193.308594 97.90625 190.40625 97.03125 184.859375 C 96.578125 182.675781 95.421875 181.503906 94.773438 181 C 90.675781 177.820312 84.199219 182.234375 85.253906 189.144531 C 85.253906 189.148438 85.253906 189.148438 85.257812 189.148438 " fill-opacity="1" fill-rule="nonzero"/><path fill="#5ce1e6" d="M 294.710938 105 C 294.476562 101.617188 286.921875 96.96875 283.480469 98.09375 C 280.613281 99.027344 282.648438 103.339844 288.132812 105.6875 C 290.636719 106.757812 294.636719 107.519531 294.710938 105 " fill-opacity="1" fill-rule="nonzero"/><path fill="#5ce1e6" d="M 298.390625 77.304688 C 296.949219 77.261719 298.902344 80.066406 302.566406 83.308594 C 304.449219 84.976562 308.539062 88.15625 309.144531 87.34375 C 309.355469 85.261719 300.914062 77.378906 298.390625 77.304688 " fill-opacity="1" fill-rule="nonzero"/><path fill="#5ce1e6" d="M 34.082031 171.058594 C 34.375 172.027344 35.25 171.445312 36.3125 169.570312 C 37.207031 167.996094 38.875 164.164062 38.800781 160.945312 C 38.800781 160.945312 38.800781 160.945312 38.800781 160.941406 C 38.800781 160.941406 38.800781 160.9375 38.800781 160.9375 C 38.800781 160.9375 38.800781 160.9375 38.800781 160.933594 C 38.800781 160.929688 38.800781 160.929688 38.800781 160.929688 C 38.800781 160.929688 38.800781 160.925781 38.800781 160.925781 C 38.757812 160.542969 38.695312 159.902344 38.371094 159.6875 C 36.746094 158.609375 33.179688 168.066406 34.082031 171.058594 " fill-opacity="1" fill-rule="nonzero"/><path fill="#5ce1e6" d="M 227.21875 153.53125 C 227.21875 153.53125 227.21875 153.53125 227.21875 153.527344 C 227.21875 153.527344 227.214844 153.527344 227.214844 153.523438 C 227.214844 153.523438 227.214844 153.519531 227.214844 153.519531 C 227.214844 153.519531 227.214844 153.515625 227.214844 153.515625 C 227.214844 153.511719 227.210938 153.511719 227.210938 153.507812 C 227.210938 153.507812 227.210938 153.507812 227.210938 153.503906 C 227.210938 153.503906 227.210938 153.503906 227.210938 153.5 C 227.210938 153.5 227.210938 153.496094 227.210938 153.496094 C 225.355469 146.609375 216.605469 146.667969 213.40625 150.847656 C 209.773438 155.597656 214 162.09375 220.363281 161.535156 C 223.429688 161.269531 228 158.859375 227.21875 153.53125 " fill-opacity="1" fill-rule="nonzero"/><path fill="#5ce1e6" d="M 34.964844 144.707031 L 34.835938 145.148438 C 34.933594 144.820312 35.03125 144.480469 35.132812 144.164062 L 34.964844 144.707031 " fill-opacity="1" fill-rule="nonzero"/><path fill="#5ce1e6" d="M 139.640625 196.730469 C 143.976562 195.917969 146.84375 191.613281 145.902344 187.332031 C 143.953125 180.394531 135.675781 180.097656 132.308594 185.300781 C 128.695312 190.886719 133.21875 197.933594 139.640625 196.730469 " fill-opacity="1" fill-rule="nonzero"/><path fill="#5ce1e6" d="M 296.769531 85.878906 C 295.046875 86.230469 297.296875 89.535156 301.3125 92.554688 C 303.214844 93.988281 307.273438 96.476562 307.664062 95.035156 C 307.859375 92.753906 299.742188 85.273438 296.769531 85.878906 " fill-opacity="1" fill-rule="nonzero"/><path fill="#5ce1e6" d="M 108.679688 204.738281 C 111.957031 204.355469 115.046875 200.644531 114.234375 195.921875 C 112.722656 190.46875 106.730469 188.914062 103.367188 193.097656 C 99.105469 198.398438 103.253906 205.367188 108.679688 204.738281 " fill-opacity="1" fill-rule="nonzero"/><path fill="#5ce1e6" d="M 30.105469 175.394531 C 30.355469 175.851562 31.097656 173.800781 31.316406 173.164062 C 32.21875 170.550781 33.210938 166.394531 33.191406 164.617188 C 33.175781 164.355469 33.152344 163.917969 32.945312 163.914062 C 31.914062 163.910156 29.386719 174.101562 30.105469 175.394531 " fill-opacity="1" fill-rule="nonzero"/><path fill="#5ce1e6" d="M 213.699219 171.511719 C 213.699219 171.507812 213.699219 171.507812 213.699219 171.507812 C 213.699219 171.503906 213.695312 171.503906 213.695312 171.5 C 213.695312 171.5 213.695312 171.5 213.695312 171.496094 C 213.695312 171.496094 213.695312 171.492188 213.695312 171.492188 C 213.695312 171.492188 213.695312 171.488281 213.695312 171.488281 C 213.695312 171.488281 213.691406 171.484375 213.691406 171.484375 C 213.691406 171.484375 213.691406 171.480469 213.691406 171.480469 C 213.691406 171.480469 213.691406 171.476562 213.691406 171.476562 C 211.945312 165.46875 203.71875 164.21875 200.148438 169.414062 C 196.40625 174.863281 201.5625 180.816406 207.402344 179.960938 C 210.535156 179.503906 214.464844 176.3125 213.699219 171.511719 " fill-opacity="1" fill-rule="nonzero"/><path fill="#5ce1e6" d="M 296.722656 97.765625 C 294.734375 98.355469 297.0625 101.847656 301.089844 104.328125 C 302.960938 105.476562 306.894531 107.242188 307.125 105.363281 C 306.746094 102.285156 299.460938 96.960938 296.722656 97.765625 " fill-opacity="1" fill-rule="nonzero"/><path fill="#5ce1e6" d="M 301.078125 72.761719 C 301.078125 72.761719 301.078125 72.761719 301.074219 72.761719 C 301.074219 72.765625 301.074219 72.765625 301.074219 72.765625 C 300.765625 73.503906 304.191406 76.90625 305.25 77.933594 C 305.460938 78.140625 310.5 83.015625 311.371094 82.777344 C 311.382812 82.753906 311.402344 82.722656 311.410156 82.695312 C 311.578125 81.691406 302.804688 72.066406 301.078125 72.761719 " fill-opacity="1" fill-rule="nonzero"/><path fill="#5ce1e6" d="M 56.082031 194.503906 C 57.789062 193.710938 59.945312 190.804688 59.398438 186.824219 C 59.292969 186.261719 59.105469 185.699219 58.878906 185.273438 C 57.28125 182.304688 53.691406 183.601562 52.257812 187.671875 C 50.730469 192.003906 52.945312 195.960938 56.082031 194.503906 " fill-opacity="1" fill-rule="nonzero"/><path fill="#5ce1e6" d="M 259.5 133.257812 C 256.085938 136.410156 259.613281 141.785156 265.132812 141.839844 C 267.792969 141.863281 271.355469 140.300781 270.945312 136.738281 C 270.132812 132.367188 262.859375 130.15625 259.5 133.257812 " fill-opacity="1" fill-rule="nonzero"/><path fill="#5ce1e6" d="M 42.71875 184.804688 C 42.046875 188.515625 43.640625 190.746094 45.878906 189.226562 C 47.828125 187.90625 49.179688 184.308594 48.769531 181.535156 C 48.6875 181.085938 48.539062 180.335938 48.089844 179.769531 C 46.496094 177.765625 43.484375 180.589844 42.71875 184.804688 " fill-opacity="1" fill-rule="nonzero"/><path fill="#5ce1e6" d="M 283.449219 126.964844 C 282.480469 122.570312 275.160156 120.492188 272.363281 122.933594 C 269.777344 125.1875 272.355469 129.929688 277.644531 130.621094 C 280.746094 131.03125 283.851562 129.75 283.449219 126.964844 " fill-opacity="1" fill-rule="nonzero"/><path fill="#5ce1e6" d="M 68.4375 202.097656 C 70.265625 201.476562 72.726562 198.960938 72.007812 194.566406 C 71.964844 194.359375 71.84375 193.902344 71.839844 193.898438 C 70.480469 189.421875 65.945312 189.929688 64.015625 193.640625 C 61.664062 198.160156 64.433594 203.453125 68.4375 202.097656 " fill-opacity="1" fill-rule="nonzero"/><path fill="#5ce1e6" d="M 295.675781 120.558594 C 295.246094 117.1875 288.367188 113.867188 285.457031 115.625 C 283.023438 117.09375 285.125 121.21875 289.917969 122.582031 C 292.3125 123.261719 295.820312 123.285156 295.675781 120.558594 " fill-opacity="1" fill-rule="nonzero"/><path fill="#5ce1e6" d="M 258.140625 149.605469 C 256.675781 143.992188 249.230469 143.6875 246.4375 146.925781 C 243.546875 150.28125 246.441406 156.039062 252.183594 155.773438 C 256.097656 155.589844 258.769531 152.824219 258.140625 149.605469 " fill-opacity="1" fill-rule="nonzero"/><path fill="#5ce1e6" d="M 35.652344 185.421875 C 35.789062 187.535156 36.769531 187.953125 38.039062 186.441406 C 39.375 184.855469 40.5625 181.652344 40.242188 179.035156 C 40.179688 178.632812 40.066406 177.960938 39.714844 177.585938 C 38.25 176.027344 35.40625 181.519531 35.652344 185.421875 " fill-opacity="1" fill-rule="nonzero"/><path fill="#5ce1e6" d="M 30.984375 187.609375 C 31.210938 188.363281 31.761719 187.960938 32.410156 186.554688 C 33.101562 185.058594 34.078125 181.929688 33.921875 179.449219 C 33.882812 179.070312 33.789062 178.585938 33.558594 178.429688 C 32.433594 177.695312 30.296875 185.328125 30.984375 187.609375 " fill-opacity="1" fill-rule="nonzero"/><path fill="#5ce1e6" d="M 309.640625 100.949219 C 308.417969 101.21875 310.242188 103.972656 313.386719 106.609375 C 315.863281 108.683594 318.574219 110.210938 318.664062 109.171875 C 318.445312 106.734375 311.617188 100.511719 309.640625 100.949219 " fill-opacity="1" fill-rule="nonzero"/><path fill="#5ce1e6" d="M 29.601562 171.554688 C 29.601562 171.265625 29.601562 171.265625 29.542969 171.195312 C 29.070312 171.941406 27.785156 181.597656 28.066406 182.304688 C 28.132812 182.054688 28.183594 181.726562 28.574219 179.15625 C 29.191406 175.097656 29.53125 172.863281 29.601562 171.554688 " fill-opacity="1" fill-rule="nonzero"/><path fill="#5ce1e6" d="M 302.15625 118.125 C 304.785156 119.304688 307.621094 119.421875 307.492188 117.703125 C 306.933594 114.65625 300.574219 110.855469 298.039062 112.050781 C 295.988281 113.023438 298.257812 116.371094 302.15625 118.125 " fill-opacity="1" fill-rule="nonzero"/><path fill="#5ce1e6" d="M 312.335938 86.628906 C 311.5 86.480469 312.964844 88.738281 315.742188 91.882812 C 315.785156 91.933594 320.417969 97.128906 321.035156 96.753906 C 321.289062 95.359375 314.054688 86.9375 312.335938 86.628906 " fill-opacity="1" fill-rule="nonzero"/><path fill="#5ce1e6" d="M 166.101562 199.625 C 164.128906 193.078125 156.5625 193.34375 153.453125 197.207031 C 149.820312 201.726562 153.15625 209.175781 159.953125 208.210938 C 164.351562 207.589844 167.109375 203.738281 166.101562 199.625 " fill-opacity="1" fill-rule="nonzero"/><path fill="#5ce1e6" d="M 319.464844 101.703125 C 319.503906 99.691406 312.226562 92.039062 310.414062 92.179688 C 309.46875 92.253906 310.660156 94.511719 314.226562 98.023438 C 314.421875 98.214844 318.980469 102.6875 319.464844 101.703125 " fill-opacity="1" fill-rule="nonzero"/><path fill="#5ce1e6" d="M 132.753906 207.996094 C 131.261719 202.109375 124.300781 201.414062 121.355469 205.578125 C 118.0625 210.230469 121.984375 216.964844 127.527344 216.171875 C 130.109375 215.800781 133.804688 213.253906 132.753906 207.996094 " fill-opacity="1" fill-rule="nonzero"/><path fill="#5ce1e6" d="M 305.144531 70.421875 C 305.175781 70.4375 305.21875 70.433594 305.25 70.4375 C 304.828125 69.492188 295.820312 61.875 295.105469 61.859375 C 295.234375 62.074219 295.835938 62.640625 298.746094 65.136719 C 303.507812 69.222656 304.601562 70.097656 305.144531 70.421875 " fill-opacity="1" fill-rule="nonzero"/><path fill="#5ce1e6" d="M 200.09375 191.128906 C 198.085938 184.53125 190.21875 185.078125 187.390625 189.328125 C 184.125 194.246094 188.285156 200.371094 194.242188 199.414062 C 198.351562 198.753906 201.027344 194.960938 200.09375 191.128906 " fill-opacity="1" fill-rule="nonzero"/><path fill="#5ce1e6" d="M 245.394531 165.1875 C 243.820312 159.675781 236.519531 159.207031 233.605469 163.230469 C 230.550781 167.4375 234.441406 172.941406 239.910156 172.152344 C 242.417969 171.789062 246.125 169.578125 245.394531 165.1875 " fill-opacity="1" fill-rule="nonzero"/><path fill="#5ce1e6" d="M 82.601562 211.683594 C 85.09375 211.179688 87.335938 208.414062 86.582031 204.285156 C 85.402344 199.207031 80.359375 198.667969 77.957031 202.152344 C 75.050781 206.363281 78.089844 212.601562 82.601562 211.683594 " fill-opacity="1" fill-rule="nonzero"/><path fill="#5ce1e6" d="M 308.636719 75.960938 C 308.683594 76.011719 313.527344 81.039062 314.375 81.371094 C 314.375 81.371094 314.375 81.371094 314.421875 81.355469 C 314.464844 80.273438 306.113281 71.710938 305.214844 71.90625 C 305.179688 72.292969 307.34375 74.613281 308.636719 75.960938 " fill-opacity="1" fill-rule="nonzero"/><path fill="#5ce1e6" d="M 221.152344 181.613281 C 218.054688 186.347656 222.507812 191.265625 227.445312 190.378906 C 230.015625 189.914062 233.449219 187.261719 232.648438 183.039062 C 231.480469 178.445312 224.296875 176.808594 221.152344 181.613281 " fill-opacity="1" fill-rule="nonzero"/><path fill="#5ce1e6" d="M 98.800781 222.660156 C 101.394531 222.320312 103.703125 219.507812 102.917969 215.5625 C 101.839844 211.304688 96.691406 209.128906 93.832031 212.953125 C 90.539062 217.347656 94.363281 223.246094 98.800781 222.660156 " fill-opacity="1" fill-rule="nonzero"/><path fill="#5ce1e6" d="M 29.746094 183.023438 C 29.707031 182.605469 29.667969 182.488281 29.5625 182.449219 C 28.785156 182.839844 27.9375 190.628906 28.316406 191.628906 C 28.339844 191.632812 28.367188 191.636719 28.386719 191.640625 C 28.445312 191.558594 28.601562 191.34375 28.980469 189.441406 C 29.121094 188.730469 29.816406 185.089844 29.746094 183.023438 " fill-opacity="1" fill-rule="nonzero"/><path fill="#5ce1e6" d="M 310.40625 112.015625 C 308.824219 112.285156 310.234375 114.941406 313.839844 117.289062 C 316.136719 118.78125 318.585938 119.621094 318.542969 118.375 C 318.203125 116.117188 312.496094 111.660156 310.40625 112.015625 " fill-opacity="1" fill-rule="nonzero"/><path fill="#5ce1e6" d="M 318.195312 88.789062 C 319.757812 90.726562 322.472656 94 323.082031 94.144531 C 323.613281 93.550781 316.425781 84.648438 315.3125 84.527344 C 315.234375 84.601562 315 84.835938 318.195312 88.789062 " fill-opacity="1" fill-rule="nonzero"/><path fill="#5ce1e6" d="M 277.101562 145.097656 C 274.789062 147.5 277.085938 151.726562 281.660156 151.601562 C 283.441406 151.554688 286.695312 150.609375 286.234375 147.386719 C 285.453125 143.6875 279.417969 142.683594 277.101562 145.097656 " fill-opacity="1" fill-rule="nonzero"/><path fill="#5ce1e6" d="M 52.242188 204.246094 C 52.183594 204.007812 52.109375 203.6875 52.023438 203.457031 C 50.988281 200.566406 48.320312 201.210938 47.160156 203.78125 C 45.835938 206.730469 47.226562 210.914062 49.863281 209.953125 C 51.121094 209.496094 52.789062 207.597656 52.242188 204.246094 " fill-opacity="1" fill-rule="nonzero"/><path fill="#5ce1e6" d="M 293.074219 140.808594 C 295.601562 141.070312 298 140.027344 297.636719 137.828125 C 296.808594 134.425781 291.152344 132.980469 288.945312 134.914062 C 286.871094 136.726562 288.878906 140.375 293.074219 140.808594 " fill-opacity="1" fill-rule="nonzero"/><path fill="#5ce1e6" d="M 38.675781 200.421875 C 38.167969 203.167969 39.191406 205.605469 40.980469 204.425781 C 42.429688 203.46875 43.261719 200.96875 42.875 198.734375 C 42.796875 198.371094 42.667969 197.769531 42.335938 197.304688 C 41.238281 195.757812 39.21875 197.476562 38.675781 200.421875 " fill-opacity="1" fill-rule="nonzero"/><path fill="#5ce1e6" d="M 61.15625 217.816406 C 62.570312 217.472656 64.429688 215.679688 63.765625 212.144531 C 62.65625 207.960938 59.203125 208.171875 57.75 210.671875 C 55.835938 213.972656 58.03125 218.582031 61.15625 217.816406 " fill-opacity="1" fill-rule="nonzero"/><path fill="#5ce1e6" d="M 186.652344 211.796875 C 185.054688 206.066406 177.980469 206.335938 175.3125 209.921875 C 172.292969 213.984375 175.691406 220.5 181.644531 219.355469 C 183.863281 218.929688 187.765625 216.800781 186.652344 211.796875 " fill-opacity="1" fill-rule="nonzero"/><path fill="#5ce1e6" d="M 329.09375 116.207031 C 328.996094 114.472656 323.289062 107.75 321.90625 107.742188 C 321.210938 107.738281 322.125 109.558594 324.859375 112.609375 C 324.898438 112.65625 328.800781 117.003906 329.09375 116.207031 " fill-opacity="1" fill-rule="nonzero"/><path fill="#5ce1e6" d="M 322.960938 101.976562 C 322.378906 101.921875 323.511719 103.867188 325.78125 106.8125 C 326.140625 107.285156 329.335938 111.417969 329.976562 111.476562 C 329.988281 111.460938 330.003906 111.445312 330.015625 111.429688 C 330.101562 110.125 324.097656 102.085938 322.960938 101.976562 " fill-opacity="1" fill-rule="nonzero"/><path fill="#5ce1e6" d="M 141.609375 218.28125 C 138.746094 222.195312 141.90625 228.683594 147.609375 227.875 C 149.816406 227.5625 153.691406 225.613281 152.539062 220.480469 C 150.503906 214.242188 143.875 215.1875 141.609375 218.28125 " fill-opacity="1" fill-rule="nonzero"/><path fill="#5ce1e6" d="M 265.21875 158.402344 C 262.621094 161.558594 265.722656 165.871094 270.171875 165.289062 C 272.183594 165.023438 275.167969 163.378906 274.617188 160.089844 C 273.753906 156.363281 267.78125 155.289062 265.21875 158.402344 " fill-opacity="1" fill-rule="nonzero"/><path fill="#5ce1e6" d="M 116.90625 234.453125 C 119.757812 234.054688 121.617188 230.914062 120.808594 227.863281 C 119.335938 223.335938 114.160156 221.878906 111.578125 225.261719 C 108.421875 229.398438 112.507812 235.0625 116.90625 234.453125 " fill-opacity="1" fill-rule="nonzero"/><path fill="#5ce1e6" d="M 32.859375 200.972656 C 33.085938 202.285156 33.765625 202.464844 34.523438 201.40625 C 35.140625 200.539062 36.019531 198.296875 35.738281 195.972656 C 35.617188 195.210938 35.386719 194.894531 35.210938 194.757812 C 34.039062 193.851562 32.390625 198.207031 32.859375 200.972656 " fill-opacity="1" fill-rule="nonzero"/><path fill="#5ce1e6" d="M 300.757812 128.027344 C 298.703125 129.21875 300.734375 132.3125 304.203125 133.277344 C 306.511719 133.921875 308.925781 133.417969 308.6875 131.671875 C 308.074219 129.019531 303.035156 126.703125 300.757812 128.027344 " fill-opacity="1" fill-rule="nonzero"/><path fill="#5ce1e6" d="M 77.363281 222.09375 C 76.324219 218.605469 72.886719 217.238281 70.910156 219.53125 C 68.125 222.761719 70.859375 227.921875 74.289062 227.683594 C 76.488281 227.53125 78.011719 224.765625 77.363281 222.09375 " fill-opacity="1" fill-rule="nonzero"/><path fill="#5ce1e6" d="M 252.664062 178.085938 C 252.664062 178.089844 252.664062 178.089844 252.664062 178.089844 C 252.664062 178.09375 252.664062 178.09375 252.667969 178.09375 C 252.664062 178.09375 252.667969 178.09375 252.667969 178.09375 C 252.667969 178.09375 252.667969 178.097656 252.667969 178.097656 C 252.667969 178.101562 252.667969 178.101562 252.667969 178.101562 C 253.632812 181.070312 256.625 181.738281 258.402344 181.464844 C 261.335938 181.007812 263.519531 178.132812 262.894531 175.550781 C 262.730469 175.027344 262.382812 173.9375 260.972656 173.035156 C 257.050781 170.519531 251.847656 173.683594 252.664062 178.085938 " fill-opacity="1" fill-rule="nonzero"/><path fill="#5ce1e6" d="M 209.445312 201.050781 C 206.003906 205.617188 210.183594 210.6875 215.066406 209.789062 C 217.980469 209.25 220.652344 206.363281 219.886719 202.632812 C 218.394531 198.121094 212.34375 197.203125 209.445312 201.050781 " fill-opacity="1" fill-rule="nonzero"/><path fill="#5ce1e6" d="M 324.839844 98.917969 C 324.710938 99.328125 326.621094 102.1875 327.445312 103.394531 C 327.480469 103.445312 330.910156 108.449219 331.445312 108.585938 C 331.679688 107.617188 325.695312 98.855469 324.839844 98.917969 " fill-opacity="1" fill-rule="nonzero"/><path fill="#5ce1e6" d="M 319.195312 129.109375 C 318.753906 127.113281 314.121094 124.050781 312.054688 124.835938 C 310.222656 125.53125 312.589844 128.273438 315.464844 129.46875 C 317.316406 130.238281 319.308594 130.25 319.195312 129.109375 " fill-opacity="1" fill-rule="nonzero"/><path fill="#5ce1e6" d="M 328.785156 122.621094 C 328.746094 121.234375 323.519531 115.683594 321.828125 115.71875 C 320.746094 115.738281 322.570312 118.222656 324.804688 120.261719 C 326.128906 121.472656 328.65625 123.40625 328.785156 122.621094 " fill-opacity="1" fill-rule="nonzero"/><path fill="#5ce1e6" d="M 30.21875 201.414062 C 30.664062 200.054688 31.039062 197.523438 30.875 196.175781 C 30.835938 195.929688 30.769531 195.515625 30.566406 195.453125 C 29.65625 195.164062 28.953125 201.203125 29.460938 202.308594 C 29.664062 202.753906 29.984375 202.136719 30.21875 201.414062 " fill-opacity="1" fill-rule="nonzero"/><path fill="#5ce1e6" d="M 317.921875 82.925781 C 317.941406 82.9375 317.972656 82.953125 317.992188 82.964844 C 317.738281 82.386719 311.207031 75.253906 310.40625 74.882812 C 310.5 75.015625 310.5 75.015625 313.238281 77.960938 C 316.746094 81.726562 317.578125 82.625 317.921875 82.925781 " fill-opacity="1" fill-rule="nonzero"/><path fill="#5ce1e6" d="M 321.5 88.835938 C 325.03125 93.472656 325.441406 93.820312 325.738281 94.074219 C 326.007812 93.582031 319.910156 85.609375 319.214844 85.546875 C 319.207031 85.625 319.195312 85.8125 321.5 88.835938 " fill-opacity="1" fill-rule="nonzero"/><path fill="#5ce1e6" d="M 332.890625 118.070312 C 332.652344 118.265625 333.320312 119.492188 335.292969 122.4375 C 335.710938 123.0625 337.8125 126.183594 338.207031 126.328125 C 338.214844 126.316406 338.222656 126.308594 338.230469 126.296875 C 338.308594 125.714844 333.894531 118.1875 332.890625 118.070312 " fill-opacity="1" fill-rule="nonzero"/><path fill="#5ce1e6" d="M 89.417969 238.777344 C 89.464844 238.78125 93.941406 238.546875 92.609375 233.597656 C 90.867188 227.894531 86.304688 230.363281 85.753906 230.902344 C 83.867188 232.746094 84.871094 238.523438 89.417969 238.777344 " fill-opacity="1" fill-rule="nonzero"/><path fill="#5ce1e6" d="M 328.84375 130.0625 C 328.542969 128.542969 324.277344 125.117188 322.917969 125.300781 C 321.886719 125.441406 323.007812 127.394531 325.417969 129.035156 C 326.003906 129.429688 328.910156 131.34375 328.84375 130.0625 " fill-opacity="1" fill-rule="nonzero"/><g clip-path="url(#9e053ddc44)"><path fill="#5ce1e6" d="M 28.242188 204.199219 C 28.351562 201.660156 28.367188 200.523438 28.296875 199.6875 C 28.253906 199.257812 28.226562 199.242188 28.175781 199.214844 C 27.851562 199.785156 27.933594 205.101562 28.125 205.871094 C 28.160156 205.824219 28.171875 205.804688 28.242188 204.199219 " fill-opacity="1" fill-rule="nonzero"/></g><path fill="#5ce1e6" d="M 131.144531 238.398438 C 130.574219 239.160156 129.453125 241.253906 131.414062 244.230469 C 132.058594 245.207031 133.5625 246.785156 136.402344 246.382812 C 140.121094 245.851562 140.625 242.855469 139.925781 240.457031 C 138.226562 235.613281 132.859375 236.113281 131.144531 238.398438 " fill-opacity="1" fill-rule="nonzero"/><path fill="#5ce1e6" d="M 163.460938 230.902344 C 161.496094 233.273438 162.613281 239.894531 168.984375 239.230469 C 169.042969 239.226562 174.757812 238.375 173.335938 232.816406 C 171.550781 226.875 165.109375 228.910156 163.460938 230.902344 " fill-opacity="1" fill-rule="nonzero"/><path fill="#5ce1e6" d="M 197.605469 222.128906 C 197.292969 222.585938 195.832031 225.007812 197.742188 227.765625 C 198.578125 228.972656 200.144531 230.285156 202.851562 229.703125 C 206.363281 228.945312 207.957031 226.429688 207.011719 223.140625 C 205.28125 218.308594 199.46875 219.398438 197.605469 222.128906 " fill-opacity="1" fill-rule="nonzero"/><path fill="#5ce1e6" d="M 241.957031 192.714844 C 240.351562 195.464844 241.839844 200.394531 246.777344 199.328125 C 249.339844 198.777344 251.582031 196.605469 250.917969 193.523438 C 249.554688 188.671875 243.578125 189.933594 241.957031 192.714844 " fill-opacity="1" fill-rule="nonzero"/><path fill="#5ce1e6" d="M 333.125 107.277344 C 333.136719 107.277344 333.148438 107.261719 333.160156 107.253906 C 333.136719 106.457031 328.957031 99.605469 327.714844 98.65625 C 327.773438 99.070312 328.324219 100.050781 329.902344 102.546875 C 332.144531 106.089844 332.867188 107.152344 333.125 107.277344 " fill-opacity="1" fill-rule="nonzero"/><path fill="#5ce1e6" d="M 38.472656 213.46875 C 38.410156 213.203125 38.304688 212.753906 38.082031 212.433594 C 37.519531 211.632812 36.347656 211.90625 35.882812 213.933594 C 35.484375 215.660156 36.125 218.027344 37.425781 217.226562 C 38.222656 216.738281 38.855469 215.382812 38.472656 213.46875 " fill-opacity="1" fill-rule="nonzero"/><path fill="#5ce1e6" d="M 332.320312 123.203125 C 332.554688 123.851562 333.003906 124.738281 334.675781 126.824219 C 336.039062 128.53125 337.6875 130.480469 337.78125 130.085938 C 337.78125 130.085938 337.78125 130.082031 337.78125 130.078125 C 337.734375 129.222656 333.023438 122.480469 332.320312 123.203125 " fill-opacity="1" fill-rule="nonzero"/><path fill="#5ce1e6" d="M 333.929688 114.851562 C 334.128906 115.570312 334.726562 116.726562 336.214844 119.269531 C 338.726562 123.554688 338.871094 123.605469 339.007812 123.65625 L 339.011719 123.65625 C 339.097656 123.023438 334.925781 115.351562 333.929688 114.851562 " fill-opacity="1" fill-rule="nonzero"/><path fill="#5ce1e6" d="M 46.488281 219.257812 C 46.457031 219.125 46.421875 218.996094 46.382812 218.863281 C 45.851562 217.152344 44.101562 216.257812 43.035156 218.433594 C 42.097656 220.351562 43.230469 223.589844 45.0625 223 C 45.402344 222.890625 47.066406 222.199219 46.488281 219.257812 " fill-opacity="1" fill-rule="nonzero"/><path fill="#5ce1e6" d="M 304.488281 145.144531 C 303.261719 146.09375 303.644531 148.945312 307.507812 149.273438 C 307.546875 149.277344 310.957031 149.257812 310.636719 146.992188 C 310.082031 144.410156 305.878906 144.0625 304.488281 145.144531 " fill-opacity="1" fill-rule="nonzero"/><path fill="#5ce1e6" d="M 293.820312 155.160156 C 293.808594 155.175781 292.605469 156.625 293.566406 157.988281 C 293.910156 158.480469 294.828125 159.78125 296.972656 159.636719 C 297.136719 159.628906 300.957031 159.339844 300.449219 156.378906 C 299.769531 153.480469 295.300781 153.410156 293.820312 155.160156 " fill-opacity="1" fill-rule="nonzero"/><path fill="#5ce1e6" d="M 56.683594 227.363281 C 55.871094 224.480469 53.613281 224.355469 52.570312 225.800781 C 51.398438 227.421875 52.460938 231.40625 55.003906 231.074219 C 56.554688 230.875 57.199219 229.449219 56.683594 227.363281 " fill-opacity="1" fill-rule="nonzero"/><path fill="#5ce1e6" d="M 230.757812 212.34375 C 229.34375 214.5625 230.285156 219.492188 235.324219 218.640625 C 236.152344 218.5 240.109375 216.9375 238.933594 212.875 C 237.328125 208.191406 231.992188 210.402344 230.757812 212.34375 " fill-opacity="1" fill-rule="nonzero"/><path fill="#5ce1e6" d="M 109.710938 246.160156 C 108.117188 241.417969 104.027344 242.628906 103.074219 243.378906 C 100.824219 245.144531 102.207031 250.589844 106.703125 250.875 C 107.398438 250.917969 110.902344 250.234375 109.710938 246.160156 " fill-opacity="1" fill-rule="nonzero"/><path fill="#5ce1e6" d="M 325.726562 92.210938 C 328.496094 95.980469 328.496094 95.980469 328.699219 96.210938 C 328.722656 96.230469 328.75 96.261719 328.777344 96.273438 C 328.523438 95.675781 324.484375 90.253906 323.980469 89.832031 C 324.496094 90.675781 325.144531 91.417969 325.726562 92.210938 " fill-opacity="1" fill-rule="nonzero"/><path fill="#5ce1e6" d="M 339.972656 121.964844 C 340.132812 121.675781 336.765625 114.785156 335.867188 113.972656 C 335.800781 114.195312 336.320312 115.25 337.589844 117.6875 C 339.367188 121.105469 339.792969 121.863281 339.972656 121.964844 " fill-opacity="1" fill-rule="nonzero"/><path fill="#5ce1e6" d="M 31.332031 213.339844 C 31.492188 214.480469 31.789062 214.703125 32.261719 214.050781 C 32.273438 214.035156 33.160156 212.605469 32.800781 210.558594 C 32.753906 210.3125 32.648438 209.800781 32.433594 209.640625 C 31.90625 209.25 31.050781 211.335938 31.332031 213.339844 " fill-opacity="1" fill-rule="nonzero"/><path fill="#5ce1e6" d="M 317.472656 142.199219 C 318.84375 142.449219 320.445312 142.449219 320.28125 141.042969 C 319.871094 138.902344 315.792969 138.054688 314.785156 138.832031 C 313.839844 139.5625 314.523438 141.667969 317.472656 142.199219 " fill-opacity="1" fill-rule="nonzero"/><path fill="#5ce1e6" d="M 67.140625 241.121094 C 68.164062 241.085938 69.773438 240.589844 69.066406 237.667969 C 67.757812 233.40625 64.792969 235.152344 64.441406 235.542969 C 63.15625 236.964844 64.339844 241.214844 67.140625 241.121094 " fill-opacity="1" fill-rule="nonzero"/><path fill="#5ce1e6" d="M 335.050781 132.773438 C 335.136719 132.859375 335.25 132.96875 335.335938 133.050781 C 337.371094 135.015625 337.597656 134.898438 337.59375 134.636719 C 337.433594 133.625 333.816406 129.714844 332.988281 129.65625 C 332.613281 129.632812 332.609375 130.378906 335.050781 132.773438 " fill-opacity="1" fill-rule="nonzero"/><path fill="#5ce1e6" d="M 283.082031 168.304688 C 281.863281 170.144531 283.019531 173.644531 286.6875 172.886719 C 288.601562 172.488281 290.445312 171.242188 289.878906 168.929688 C 288.828125 165.414062 284.1875 166.628906 283.082031 168.304688 " fill-opacity="1" fill-rule="nonzero"/><path fill="#5ce1e6" d="M 272.5 184.105469 C 271.207031 186.308594 272.804688 189.660156 276.195312 188.652344 C 277.570312 188.242188 279.785156 187.140625 279.152344 184.359375 C 278.15625 180.765625 273.558594 182.300781 272.5 184.105469 " fill-opacity="1" fill-rule="nonzero"/><path fill="#5ce1e6" d="M 186.628906 243.003906 C 184.816406 244.980469 185.414062 250.042969 191.105469 249.601562 C 192.710938 249.480469 194.015625 247.535156 194.027344 247.515625 C 194.804688 246.269531 194.484375 245.089844 194.3125 244.457031 C 192.875 240.101562 188.15625 241.332031 186.628906 243.003906 " fill-opacity="1" fill-rule="nonzero"/><path fill="#5ce1e6" d="M 29.566406 210.617188 C 29.535156 210.441406 29.472656 210.082031 29.382812 210.089844 C 29.25 210.101562 29.105469 210.933594 29.09375 212.253906 C 29.089844 212.902344 29.179688 214.421875 29.347656 214.492188 C 29.386719 214.449219 29.425781 214.378906 29.507812 213.871094 C 29.507812 213.851562 29.777344 212.023438 29.566406 210.617188 " fill-opacity="1" fill-rule="nonzero"/><path fill="#5ce1e6" d="M 324.855469 136.019531 C 324.605469 136.105469 324.085938 136.398438 324.675781 137.195312 C 325 137.636719 325.59375 138.289062 326.9375 138.832031 C 327.898438 139.21875 329.5 139.71875 329.425781 138.722656 C 329.214844 137.390625 325.917969 135.640625 324.855469 136.019531 " fill-opacity="1" fill-rule="nonzero"/><path fill="#5ce1e6" d="M 152.625 251.613281 C 151.863281 252.703125 151.828125 254.871094 152.355469 255.632812 C 152.851562 256.34375 154.363281 258.511719 157.125 258.066406 C 159.347656 257.710938 161.183594 256.074219 160.265625 253.210938 C 158.601562 248.691406 153.757812 249.992188 152.625 251.613281 " fill-opacity="1" fill-rule="nonzero"/><path fill="#5ce1e6" d="M 332.757812 103.816406 C 332.777344 103.851562 334.855469 107.417969 335.230469 107.8125 C 335.242188 107.8125 335.257812 107.8125 335.269531 107.8125 C 335.167969 107.230469 332.046875 101.839844 331.300781 101.125 C 331.289062 101.128906 331.273438 101.128906 331.265625 101.132812 C 331.328125 101.359375 331.703125 102.011719 332.757812 103.816406 " fill-opacity="1" fill-rule="nonzero"/><path fill="#5ce1e6" d="M 128.191406 259.3125 C 127.082031 255.945312 123.609375 255.636719 122.019531 257.226562 C 120.246094 258.992188 122.140625 263.195312 125.398438 263.140625 C 126.042969 263.128906 129.210938 262.890625 128.191406 259.3125 " fill-opacity="1" fill-rule="nonzero"/><path fill="#5ce1e6" d="M 81.445312 252.570312 C 82.28125 252.582031 84.144531 252.296875 83.410156 249.5 C 82.425781 246.234375 79.652344 246.320312 78.695312 247.226562 C 77.234375 248.613281 78.832031 252.546875 81.445312 252.570312 " fill-opacity="1" fill-rule="nonzero"/><path fill="#5ce1e6" d="M 220.050781 233.25 C 218.59375 235.542969 220.382812 239.507812 223.984375 238.507812 C 224.914062 238.25 227.878906 237.144531 226.933594 233.75 C 225.664062 229.925781 221.253906 231.355469 220.050781 233.25 " fill-opacity="1" fill-rule="nonzero"/><path fill="#5ce1e6" d="M 262.203125 202.007812 C 261.152344 203.664062 261.8125 207.257812 265.46875 206.386719 C 265.503906 206.378906 269.144531 205.359375 268.195312 202.117188 C 266.972656 198.550781 263.011719 200.734375 262.203125 202.007812 " fill-opacity="1" fill-rule="nonzero"/><path fill="#5ce1e6" d="M 335.664062 139.191406 C 335.875 139.34375 337.703125 140.671875 337.703125 140.023438 C 337.503906 139.066406 334.757812 137.058594 334.152344 137.089844 C 334.140625 137.089844 333.199219 137.375 335.664062 139.191406 " fill-opacity="1" fill-rule="nonzero"/><path fill="#5ce1e6" d="M 35.425781 225.386719 C 35.402344 225.285156 35.375 225.183594 35.34375 225.085938 C 35.035156 224.175781 34.5625 224.402344 34.339844 224.84375 C 33.976562 225.566406 34.273438 227.34375 35.046875 227.089844 C 35.050781 227.085938 35.695312 226.710938 35.425781 225.386719 " fill-opacity="1" fill-rule="nonzero"/><path fill="#5ce1e6" d="M 99.410156 262.203125 C 98.773438 260.46875 96.617188 259.246094 95.285156 260.371094 C 93.929688 261.519531 95.191406 264.617188 97.628906 264.839844 C 99.488281 265.011719 99.863281 263.640625 99.410156 262.203125 " fill-opacity="1" fill-rule="nonzero"/><path fill="#5ce1e6" d="M 252.066406 221.917969 C 251.023438 224.015625 252.675781 226.367188 255.222656 225.386719 C 256.878906 224.746094 257.660156 223.277344 257.164062 221.730469 C 256.105469 218.910156 252.820312 220.390625 252.066406 221.917969 " fill-opacity="1" fill-rule="nonzero"/><path fill="#5ce1e6" d="M 41.890625 231.382812 C 41.554688 230.039062 40.707031 229.824219 40.277344 230.265625 C 39.523438 231.039062 40.1875 233.167969 41.164062 233.117188 C 41.570312 233.09375 42.183594 232.703125 41.890625 231.382812 " fill-opacity="1" fill-rule="nonzero"/><path fill="#5ce1e6" d="M 175.816406 264.433594 C 174.835938 265.746094 175.953125 268.84375 178.796875 268.390625 C 180.214844 268.164062 181.765625 267.429688 181.078125 265.207031 C 180.046875 262.320312 176.738281 263.195312 175.816406 264.433594 " fill-opacity="1" fill-rule="nonzero"/><path fill="#5ce1e6" d="M 147.71875 272.289062 C 146.730469 269.507812 143.695312 270.152344 143.011719 271.09375 C 143.003906 271.105469 142.195312 272.308594 143.289062 273.792969 C 143.535156 274.125 144.28125 275.136719 145.882812 274.976562 C 146.851562 274.882812 148.382812 274.40625 147.71875 272.289062 " fill-opacity="1" fill-rule="nonzero"/><path fill="#5ce1e6" d="M 50.628906 239.710938 C 50.011719 237.644531 48.613281 238.453125 48.601562 238.460938 C 47.933594 238.996094 48.445312 241.277344 49.800781 241.402344 C 50.195312 241.4375 51.066406 241.347656 50.628906 239.710938 " fill-opacity="1" fill-rule="nonzero"/><path fill="#5ce1e6" d="M 300.023438 175.929688 C 299.5 176.847656 300.027344 178.761719 302.023438 178.121094 C 302.660156 177.917969 304.097656 177.285156 303.703125 175.8125 C 303.058594 173.824219 300.523438 175.050781 300.023438 175.929688 " fill-opacity="1" fill-rule="nonzero"/><path fill="#5ce1e6" d="M 31.347656 223.734375 C 31.429688 223.558594 31.601562 223.0625 31.425781 222.191406 C 31.394531 222.050781 31.332031 221.761719 31.234375 221.707031 C 30.984375 221.574219 30.835938 222.90625 31.09375 223.660156 C 31.175781 223.898438 31.257812 223.921875 31.347656 223.734375 " fill-opacity="1" fill-rule="nonzero"/><path fill="#5ce1e6" d="M 309.496094 163.011719 C 308.9375 163.667969 309 165.484375 311.179688 165.222656 C 311.203125 165.222656 313.339844 164.863281 312.957031 163.265625 C 312.484375 161.695312 310.140625 162.253906 309.496094 163.011719 " fill-opacity="1" fill-rule="nonzero"/><path fill="#5ce1e6" d="M 328.722656 148.878906 C 329.226562 148.960938 330.390625 149.0625 330.28125 148.285156 C 330.0625 147.28125 328.011719 147.042969 327.554688 147.433594 C 327.132812 147.792969 327.398438 148.671875 328.722656 148.878906 " fill-opacity="1" fill-rule="nonzero"/><path fill="#5ce1e6" d="M 318.648438 153.515625 C 318.476562 153.714844 318.148438 154.242188 318.707031 154.859375 C 318.945312 155.121094 319.414062 155.417969 320.304688 155.347656 C 320.734375 155.3125 322.121094 155.117188 321.886719 154.03125 C 321.484375 152.621094 319.167969 152.898438 318.648438 153.515625 " fill-opacity="1" fill-rule="nonzero"/><path fill="#5ce1e6" d="M 209.722656 254.71875 C 209.050781 255.851562 209.574219 258.902344 212.699219 258.226562 C 212.726562 258.21875 215.386719 257.523438 214.625 255.039062 C 213.617188 252.214844 210.414062 253.558594 209.722656 254.71875 " fill-opacity="1" fill-rule="nonzero"/><path fill="#5ce1e6" d="M 290.683594 191.671875 C 290.277344 192.753906 290.597656 193.042969 291 193.40625 C 291.199219 193.589844 291.777344 193.964844 292.769531 193.550781 C 293.859375 193.097656 294.429688 192.101562 294.148438 191.132812 C 294.132812 191.089844 294.113281 191.027344 294.09375 190.980469 C 293.546875 189.695312 291.253906 190.160156 290.683594 191.671875 " fill-opacity="1" fill-rule="nonzero"/><path fill="#5ce1e6" d="M 61.753906 250.292969 C 61.316406 248.847656 60.121094 248.402344 59.53125 248.808594 C 58.96875 249.191406 59.25 250.335938 59.257812 250.347656 C 59.261719 250.359375 59.898438 251.5625 60.71875 251.734375 C 61.105469 251.816406 62.128906 251.726562 61.753906 250.292969 " fill-opacity="1" fill-rule="nonzero"/><path fill="#5ce1e6" d="M 74.839844 262.292969 C 74.316406 260.820312 73.066406 260.921875 72.800781 261.117188 C 72.253906 261.53125 72.761719 263.1875 73.9375 263.441406 C 74.167969 263.492188 75.277344 263.664062 74.839844 262.292969 " fill-opacity="1" fill-rule="nonzero"/><g clip-path="url(#5c729a37f5)"><path fill="#5ce1e6" d="M 116.9375 275.609375 C 116.402344 274.117188 114.617188 273.804688 113.882812 274.472656 C 113.066406 275.210938 114.113281 277.328125 115.667969 277.394531 C 116.367188 277.421875 117.460938 277.230469 116.9375 275.609375 " fill-opacity="1" fill-rule="nonzero"/></g><path fill="#5ce1e6" d="M 242.367188 242.8125 C 241.832031 243.882812 242.679688 245.820312 244.484375 245.117188 C 245.1875 244.84375 246.296875 244.175781 245.859375 242.757812 C 245.113281 240.675781 242.824219 241.894531 242.367188 242.8125 " fill-opacity="1" fill-rule="nonzero"/><path fill="#5ce1e6" d="M 281.640625 209.480469 C 281.609375 209.554688 281.359375 210.238281 281.800781 210.699219 C 282.160156 211.074219 282.585938 211.164062 283.066406 210.964844 C 283.082031 210.960938 284.523438 210.351562 284.1875 209.109375 C 284.167969 209.050781 284.144531 208.988281 284.117188 208.929688 C 283.574219 207.765625 281.984375 208.609375 281.640625 209.480469 " fill-opacity="1" fill-rule="nonzero"/><g fill="#5ce1e6" fill-opacity="1"><g transform="translate(70.896196, 309.654451)"><g><path d="M 21.171875 -20.6875 L 21.171875 0 L 17.328125 0 L 17.328125 -8.875 L 6.625 -8.875 L 6.625 0 L 2.78125 0 L 2.78125 -20.6875 L 6.625 -20.6875 L 6.625 -12.15625 L 17.328125 -12.15625 L 17.328125 -20.6875 Z M 21.171875 -20.6875 "/></g></g></g><g fill="#5ce1e6" fill-opacity="1"><g transform="translate(94.833457, 309.654451)"><g><path d="M 16.203125 -4.796875 L 5.859375 -4.796875 L 3.8125 0 L -0.140625 0 L 9.171875 -20.6875 L 12.953125 -20.6875 L 22.296875 0 L 18.265625 0 Z M 14.921875 -7.796875 L 11.03125 -16.84375 L 7.15625 -7.796875 Z M 14.921875 -7.796875 "/></g></g></g><g fill="#5ce1e6" fill-opacity="1"><g transform="translate(116.968042, 309.654451)"><g><path d="M 16.3125 0 L 12.09375 -6.0625 C 11.914062 -6.039062 11.648438 -6.03125 11.296875 -6.03125 L 6.625 -6.03125 L 6.625 0 L 2.78125 0 L 2.78125 -20.6875 L 11.296875 -20.6875 C 13.085938 -20.6875 14.644531 -20.390625 15.96875 -19.796875 C 17.300781 -19.210938 18.320312 -18.367188 19.03125 -17.265625 C 19.75 -16.160156 20.109375 -14.847656 20.109375 -13.328125 C 20.109375 -11.773438 19.726562 -10.4375 18.96875 -9.3125 C 18.207031 -8.1875 17.117188 -7.347656 15.703125 -6.796875 L 20.453125 0 Z M 16.234375 -13.328125 C 16.234375 -14.648438 15.796875 -15.664062 14.921875 -16.375 C 14.054688 -17.082031 12.785156 -17.4375 11.109375 -17.4375 L 6.625 -17.4375 L 6.625 -9.1875 L 11.109375 -9.1875 C 12.785156 -9.1875 14.054688 -9.546875 14.921875 -10.265625 C 15.796875 -10.992188 16.234375 -12.015625 16.234375 -13.328125 Z M 16.234375 -13.328125 "/></g></g></g><g fill="#5ce1e6" fill-opacity="1"><g transform="translate(138.570688, 309.654451)"><g><path d="M 11.296875 -20.6875 C 13.085938 -20.6875 14.644531 -20.390625 15.96875 -19.796875 C 17.300781 -19.210938 18.320312 -18.367188 19.03125 -17.265625 C 19.75 -16.160156 20.109375 -14.847656 20.109375 -13.328125 C 20.109375 -11.828125 19.75 -10.519531 19.03125 -9.40625 C 18.320312 -8.300781 17.300781 -7.453125 15.96875 -6.859375 C 14.644531 -6.265625 13.085938 -5.96875 11.296875 -5.96875 L 6.625 -5.96875 L 6.625 0 L 2.78125 0 L 2.78125 -20.6875 Z M 11.109375 -9.21875 C 12.785156 -9.21875 14.054688 -9.570312 14.921875 -10.28125 C 15.796875 -11 16.234375 -12.015625 16.234375 -13.328125 C 16.234375 -14.648438 15.796875 -15.664062 14.921875 -16.375 C 14.054688 -17.082031 12.785156 -17.4375 11.109375 -17.4375 L 6.625 -17.4375 L 6.625 -9.21875 Z M 11.109375 -9.21875 "/></g></g></g><g fill="#5ce1e6" fill-opacity="1"><g transform="translate(160.025566, 309.654451)"><g><path d="M 2.78125 -20.6875 L 6.625 -20.6875 L 6.625 -3.25 L 17.4375 -3.25 L 17.4375 0 L 2.78125 0 Z M 2.78125 -20.6875 "/></g></g></g><g fill="#5ce1e6" fill-opacity="1"><g transform="translate(177.727325, 309.654451)"><g><path d="M 16.203125 -4.796875 L 5.859375 -4.796875 L 3.8125 0 L -0.140625 0 L 9.171875 -20.6875 L 12.953125 -20.6875 L 22.296875 0 L 18.265625 0 Z M 14.921875 -7.796875 L 11.03125 -16.84375 L 7.15625 -7.796875 Z M 14.921875 -7.796875 "/></g></g></g><g fill="#5ce1e6" fill-opacity="1"><g transform="translate(199.861911, 309.654451)"><g><path d="M 17.4375 -10.765625 C 18.582031 -10.390625 19.488281 -9.757812 20.15625 -8.875 C 20.832031 -8 21.171875 -6.910156 21.171875 -5.609375 C 21.171875 -3.816406 20.476562 -2.429688 19.09375 -1.453125 C 17.71875 -0.484375 15.707031 0 13.0625 0 L 2.78125 0 L 2.78125 -20.6875 L 12.46875 -20.6875 C 14.914062 -20.6875 16.800781 -20.207031 18.125 -19.25 C 19.445312 -18.300781 20.109375 -16.988281 20.109375 -15.3125 C 20.109375 -14.289062 19.867188 -13.382812 19.390625 -12.59375 C 18.921875 -11.800781 18.269531 -11.191406 17.4375 -10.765625 Z M 6.625 -17.671875 L 6.625 -11.96875 L 12.0625 -11.96875 C 13.40625 -11.96875 14.4375 -12.207031 15.15625 -12.6875 C 15.875 -13.175781 16.234375 -13.882812 16.234375 -14.8125 C 16.234375 -15.757812 15.875 -16.472656 15.15625 -16.953125 C 14.4375 -17.429688 13.40625 -17.671875 12.0625 -17.671875 Z M 12.828125 -3.015625 C 15.804688 -3.015625 17.296875 -4.007812 17.296875 -6 C 17.296875 -7.988281 15.804688 -8.984375 12.828125 -8.984375 L 6.625 -8.984375 L 6.625 -3.015625 Z M 12.828125 -3.015625 "/></g></g></g><g fill="#5ce1e6" fill-opacity="1"><g transform="translate(222.351123, 309.654451)"><g><path d="M 9.1875 0.296875 C 7.59375 0.296875 6.050781 0.0703125 4.5625 -0.375 C 3.070312 -0.832031 1.894531 -1.4375 1.03125 -2.1875 L 2.359375 -5.171875 C 3.210938 -4.503906 4.253906 -3.957031 5.484375 -3.53125 C 6.710938 -3.101562 7.945312 -2.890625 9.1875 -2.890625 C 10.726562 -2.890625 11.878906 -3.132812 12.640625 -3.625 C 13.398438 -4.125 13.78125 -4.78125 13.78125 -5.59375 C 13.78125 -6.175781 13.566406 -6.660156 13.140625 -7.046875 C 12.710938 -7.429688 12.171875 -7.734375 11.515625 -7.953125 C 10.867188 -8.171875 9.988281 -8.414062 8.875 -8.6875 C 7.289062 -9.0625 6.007812 -9.4375 5.03125 -9.8125 C 4.0625 -10.1875 3.226562 -10.769531 2.53125 -11.5625 C 1.832031 -12.363281 1.484375 -13.445312 1.484375 -14.8125 C 1.484375 -15.957031 1.789062 -16.992188 2.40625 -17.921875 C 3.03125 -18.859375 3.96875 -19.601562 5.21875 -20.15625 C 6.46875 -20.707031 8 -20.984375 9.8125 -20.984375 C 11.070312 -20.984375 12.3125 -20.828125 13.53125 -20.515625 C 14.757812 -20.203125 15.816406 -19.75 16.703125 -19.15625 L 15.484375 -16.171875 C 14.578125 -16.703125 13.628906 -17.101562 12.640625 -17.375 C 11.660156 -17.65625 10.707031 -17.796875 9.78125 -17.796875 C 8.269531 -17.796875 7.144531 -17.539062 6.40625 -17.03125 C 5.664062 -16.519531 5.296875 -15.835938 5.296875 -14.984375 C 5.296875 -14.390625 5.503906 -13.90625 5.921875 -13.53125 C 6.347656 -13.164062 6.882812 -12.875 7.53125 -12.65625 C 8.1875 -12.4375 9.078125 -12.1875 10.203125 -11.90625 C 11.734375 -11.550781 12.992188 -11.179688 13.984375 -10.796875 C 14.972656 -10.421875 15.816406 -9.835938 16.515625 -9.046875 C 17.210938 -8.253906 17.5625 -7.191406 17.5625 -5.859375 C 17.5625 -4.710938 17.25 -3.675781 16.625 -2.75 C 16.007812 -1.820312 15.066406 -1.082031 13.796875 -0.53125 C 12.535156 0.0195312 11 0.296875 9.1875 0.296875 Z M 9.1875 0.296875 "/></g></g></g><g fill="#5ce1e6" fill-opacity="1"><g transform="translate(240.939448, 309.654451)"><g><path d="M 11.296875 -20.6875 C 13.085938 -20.6875 14.644531 -20.390625 15.96875 -19.796875 C 17.300781 -19.210938 18.320312 -18.367188 19.03125 -17.265625 C 19.75 -16.160156 20.109375 -14.847656 20.109375 -13.328125 C 20.109375 -11.828125 19.75 -10.519531 19.03125 -9.40625 C 18.320312 -8.300781 17.300781 -7.453125 15.96875 -6.859375 C 14.644531 -6.265625 13.085938 -5.96875 11.296875 -5.96875 L 6.625 -5.96875 L 6.625 0 L 2.78125 0 L 2.78125 -20.6875 Z M 11.109375 -9.21875 C 12.785156 -9.21875 14.054688 -9.570312 14.921875 -10.28125 C 15.796875 -11 16.234375 -12.015625 16.234375 -13.328125 C 16.234375 -14.648438 15.796875 -15.664062 14.921875 -16.375 C 14.054688 -17.082031 12.785156 -17.4375 11.109375 -17.4375 L 6.625 -17.4375 L 6.625 -9.21875 Z M 11.109375 -9.21875 "/></g></g></g><g fill="#5ce1e6" fill-opacity="1"><g transform="translate(262.394326, 309.654451)"><g><path d="M 16.203125 -4.796875 L 5.859375 -4.796875 L 3.8125 0 L -0.140625 0 L 9.171875 -20.6875 L 12.953125 -20.6875 L 22.296875 0 L 18.265625 0 Z M 14.921875 -7.796875 L 11.03125 -16.84375 L 7.15625 -7.796875 Z M 14.921875 -7.796875 "/></g></g></g><g fill="#5ce1e6" fill-opacity="1"><g transform="translate(284.528911, 309.654451)"><g><path d="M 11.703125 -7.296875 L 11.703125 0 L 7.859375 0 L 7.859375 -7.25 L -0.265625 -20.6875 L 3.84375 -20.6875 L 9.90625 -10.609375 L 16.015625 -20.6875 L 19.8125 -20.6875 Z M 11.703125 -7.296875 "/></g></g></g></svg>
