<svg xmlns="http://www.w3.org/2000/svg" xmlns:xlink="http://www.w3.org/1999/xlink" width="500" zoomAndPan="magnify" viewBox="0 0 375 374.999991" height="500" preserveAspectRatio="xMidYMid meet" version="1.0"><defs><g/><clipPath id="fafc386a45"><path d="M 115 291 L 119 291 L 119 294.75 L 115 294.75 Z M 115 291 " clip-rule="nonzero"/></clipPath></defs><path fill="#5ce1e6" d="M 73.027344 94.035156 C 76.082031 91.0625 81.121094 85.863281 82.472656 83.722656 C 82.53125 83.605469 82.578125 83.433594 82.578125 83.304688 C 81.128906 83.339844 68.039062 96.855469 67.988281 98.367188 C 68.515625 98.328125 71.019531 95.992188 73.027344 94.035156 " fill-opacity="1" fill-rule="nonzero"/><path fill="#5ce1e6" d="M 60.347656 111.589844 C 63.015625 108.464844 67.378906 102.800781 68.460938 100.007812 C 68.515625 99.800781 68.601562 99.488281 68.503906 99.382812 C 68.015625 98.84375 64.671875 102.394531 61.855469 106.050781 C 58.246094 110.734375 55.617188 115.007812 55.878906 115.773438 C 56.445312 116.027344 58.921875 113.261719 60.347656 111.589844 " fill-opacity="1" fill-rule="nonzero"/><path fill="#5ce1e6" d="M 128.570312 53.167969 C 128.640625 53.097656 128.710938 52.976562 128.710938 52.882812 C 126.816406 52.855469 109.550781 61.882812 109.46875 62.945312 C 110.234375 62.957031 114.015625 61.152344 116.199219 60.078125 C 120.015625 58.195312 126.75 54.660156 128.570312 53.167969 " fill-opacity="1" fill-rule="nonzero"/><path fill="#5ce1e6" d="M 110.042969 64.40625 C 110.132812 64.21875 110.242188 63.984375 110.121094 63.867188 C 108.929688 62.695312 93.261719 73.292969 92.476562 75.804688 C 92.175781 76.777344 94.777344 75.71875 98.800781 73.234375 C 102.566406 70.910156 108.542969 66.636719 110.042969 64.40625 " fill-opacity="1" fill-rule="nonzero"/><path fill="#5ce1e6" d="M 83.273438 89.085938 C 86.699219 86.519531 92.070312 81.574219 93.289062 78.605469 C 93.351562 78.355469 93.4375 78.019531 93.304688 77.828125 C 91.890625 75.785156 77.910156 87.730469 77.390625 91.425781 C 77.199219 92.785156 79.621094 91.824219 83.273438 89.085938 " fill-opacity="1" fill-rule="nonzero"/><path fill="#5ce1e6" d="M 148.707031 45.207031 C 148.335938 45.324219 147.789062 45.503906 147.121094 45.734375 C 147.660156 45.554688 148.203125 45.367188 148.71875 45.203125 L 148.707031 45.207031 " fill-opacity="1" fill-rule="nonzero"/><path fill="#5ce1e6" d="M 122.191406 58.355469 C 121.390625 59.773438 124.582031 59.527344 129.617188 57.777344 C 133.964844 56.265625 140.8125 53.125 142.414062 50.875 C 142.472656 50.742188 142.5625 50.550781 142.535156 50.410156 C 142.085938 48.0625 124.023438 55.117188 122.191406 58.355469 " fill-opacity="1" fill-rule="nonzero"/><path fill="#5ce1e6" d="M 104.464844 71.546875 C 103.824219 73.488281 106.878906 73.351562 111.566406 71.222656 C 115.625 69.386719 121.9375 65.402344 123.277344 62.300781 C 123.339844 62.03125 123.421875 61.667969 123.253906 61.394531 C 121.550781 58.683594 105.925781 67.125 104.464844 71.546875 " fill-opacity="1" fill-rule="nonzero"/><path fill="#5ce1e6" d="M 88.691406 87.046875 C 87.761719 89.871094 90.734375 90.09375 95.320312 87.53125 C 99.652344 85.117188 104.910156 80.34375 105.851562 76.851562 C 105.890625 76.511719 105.945312 76.050781 105.753906 75.695312 C 103.992188 72.355469 90.597656 81.265625 88.691406 87.046875 " fill-opacity="1" fill-rule="nonzero"/><path fill="#5ce1e6" d="M 162.945312 42.925781 C 163.011719 42.851562 163.09375 42.742188 163.117188 42.648438 C 162.238281 41.230469 141.980469 46.789062 141.445312 48.59375 C 141.894531 49.308594 147.59375 47.996094 149.328125 47.574219 C 153.585938 46.546875 161.046875 44.375 162.945312 42.925781 " fill-opacity="1" fill-rule="nonzero"/><path fill="#5ce1e6" d="M 136.453125 57.144531 C 135.1875 59.429688 138.835938 60.261719 144.582031 58.996094 C 149.15625 57.992188 156.21875 55.203125 157.605469 52.144531 C 157.648438 51.9375 157.707031 51.652344 157.660156 51.449219 C 156.800781 47.515625 139.15625 52.253906 136.453125 57.144531 " fill-opacity="1" fill-rule="nonzero"/><path fill="#5ce1e6" d="M 118.289062 70.011719 C 116.628906 73.277344 120.214844 74.566406 125.964844 72.765625 C 130.320312 71.402344 136.957031 67.695312 138.085938 63.722656 C 138.113281 63.457031 138.148438 63.09375 138.085938 62.832031 C 136.980469 58.175781 121.441406 63.8125 118.289062 70.011719 " fill-opacity="1" fill-rule="nonzero"/><path fill="#5ce1e6" d="M 101.90625 85.59375 C 99.925781 89.894531 103.359375 91.695312 109.113281 89.371094 C 113.183594 87.730469 119.277344 83.3125 120.082031 78.640625 C 120.09375 78.214844 120.109375 77.628906 119.863281 77.109375 C 117.796875 72.75 105.042969 78.777344 101.90625 85.59375 " fill-opacity="1" fill-rule="nonzero"/><path fill="#5ce1e6" d="M 156.390625 47.121094 C 154.949219 48.738281 158.546875 49.476562 164.410156 48.765625 C 168.988281 48.210938 176.15625 46.464844 177.753906 44.320312 C 177.8125 44.175781 177.894531 43.96875 177.867188 43.820312 C 177.347656 40.90625 159.484375 43.652344 156.390625 47.121094 " fill-opacity="1" fill-rule="nonzero"/><path fill="#5ce1e6" d="M 160.75 63.777344 C 165.359375 63.273438 172.355469 60.835938 173.484375 56.996094 C 173.511719 56.71875 173.539062 56.34375 173.476562 56.078125 C 172.367188 51.328125 156.75 53.324219 152.589844 58.75 C 150.042969 62.070312 154.007812 64.511719 160.75 63.777344 " fill-opacity="1" fill-rule="nonzero"/><path fill="#5ce1e6" d="M 142.066406 77.59375 C 146.671875 76.675781 153.535156 73.289062 154.378906 68.636719 C 154.382812 68.300781 154.386719 67.847656 154.304688 67.523438 C 152.914062 62.121094 138.539062 64.96875 134.0625 71.535156 C 131.007812 76.007812 134.976562 79.007812 142.066406 77.59375 " fill-opacity="1" fill-rule="nonzero"/><path fill="#5ce1e6" d="M 124.699219 94.167969 C 129.089844 92.9375 135.515625 88.828125 136.0625 83.535156 C 136.046875 83.160156 136.023438 82.652344 135.917969 82.289062 C 134.226562 76.367188 120.601562 80.25 116.730469 87.757812 C 114.109375 92.851562 118.054688 96.027344 124.699219 94.167969 " fill-opacity="1" fill-rule="nonzero"/><path fill="#5ce1e6" d="M 171.96875 49.371094 C 169.996094 51.664062 173.789062 53.59375 180.085938 53.5 C 184.667969 53.433594 191.730469 52.046875 193.078125 49.171875 C 193.121094 48.960938 193.171875 48.667969 193.128906 48.460938 C 192.277344 44.359375 175.664062 45.074219 171.96875 49.371094 " fill-opacity="1" fill-rule="nonzero"/><path fill="#5ce1e6" d="M 177.621094 71.707031 C 182.25 71.617188 189.136719 69.5 189.964844 65.078125 C 189.96875 64.910156 189.988281 64.683594 189.976562 64.519531 C 189.554688 58.644531 175.464844 57.988281 169.871094 63.582031 C 165.84375 67.605469 169.902344 71.859375 177.621094 71.707031 " fill-opacity="1" fill-rule="nonzero"/><path fill="#5ce1e6" d="M 159.484375 85.214844 C 164.132812 84.71875 170.925781 81.699219 171.480469 76.542969 C 171.472656 76.351562 171.476562 76.09375 171.457031 75.902344 C 170.660156 69.261719 156.460938 69.792969 151.191406 76.660156 C 147.4375 81.5625 151.777344 86.035156 159.484375 85.214844 " fill-opacity="1" fill-rule="nonzero"/><path fill="#5ce1e6" d="M 142.03125 101.570312 C 146.667969 100.710938 153.320312 96.90625 153.597656 91.125 C 153.582031 90.914062 153.570312 90.625 153.539062 90.414062 C 152.460938 83.589844 139.273438 84.582031 133.941406 91.890625 C 129.625 97.804688 134.011719 103.050781 142.03125 101.570312 " fill-opacity="1" fill-rule="nonzero"/><path fill="#5ce1e6" d="M 188.566406 54.46875 C 185.195312 57.382812 189.09375 60.914062 196.296875 61.457031 C 200.855469 61.804688 207.765625 60.695312 208.84375 57.148438 C 208.855469 57.015625 208.886719 56.835938 208.882812 56.699219 C 208.800781 51.773438 193.609375 50.105469 188.566406 54.46875 " fill-opacity="1" fill-rule="nonzero"/><path fill="#5ce1e6" d="M 187.035156 71.613281 C 182.335938 75.761719 186.578125 81.355469 194.726562 81.753906 C 199.335938 81.976562 206.070312 80.140625 206.613281 75.351562 C 206.304688 68.175781 192.625 66.675781 187.035156 71.613281 " fill-opacity="1" fill-rule="nonzero"/><path fill="#5ce1e6" d="M 177.214844 94.964844 C 181.871094 94.792969 188.558594 92.066406 188.847656 86.546875 C 188.144531 78.480469 174.289062 78.144531 168.925781 84.273438 C 164.460938 89.375 169.03125 95.269531 177.214844 94.964844 " fill-opacity="1" fill-rule="nonzero"/><path fill="#5ce1e6" d="M 152.054688 99.089844 C 146.792969 105.199219 151.46875 111.992188 160.257812 111.003906 C 164.929688 110.480469 171.527344 106.976562 171.546875 100.828125 C 170.515625 92.464844 157.714844 92.519531 152.054688 99.089844 " fill-opacity="1" fill-rule="nonzero"/><path fill="#5ce1e6" d="M 212.636719 71.761719 C 217.15625 72.421875 223.871094 71.554688 224.65625 67.566406 C 224.738281 61.210938 210.082031 58.605469 204.988281 62.703125 C 201 65.90625 205.003906 70.648438 212.636719 71.761719 " fill-opacity="1" fill-rule="nonzero"/><path fill="#5ce1e6" d="M 74.191406 123.578125 C 72.921875 128.585938 76.082031 130.574219 80.953125 127.828125 C 84.398438 125.886719 89.339844 120.679688 89.53125 115.179688 C 89.476562 114.433594 89.417969 113.65625 88.890625 112.902344 C 85.933594 108.652344 76.175781 115.734375 74.191406 123.578125 " fill-opacity="1" fill-rule="nonzero"/><path fill="#5ce1e6" d="M 95.203125 132.722656 C 99.007812 131.167969 104.347656 126.222656 104.3125 120.101562 C 104.242188 119.535156 104.15625 118.757812 103.808594 118.027344 C 101.167969 112.441406 91.011719 116.839844 87.828125 124.949219 C 85.375 131.199219 89.164062 135.195312 95.203125 132.722656 " fill-opacity="1" fill-rule="nonzero"/><path fill="#5ce1e6" d="M 111.320312 140.121094 C 115.464844 138.898438 121.179688 134.179688 120.902344 127.535156 C 120.863281 127.289062 120.832031 126.960938 120.78125 126.722656 C 119.234375 119.402344 108.378906 120.75 103.699219 128.839844 C 99.554688 136.007812 103.828125 142.335938 111.320312 140.121094 " fill-opacity="1" fill-rule="nonzero"/><path fill="#5ce1e6" d="M 139.222656 137.042969 C 139.175781 136.78125 139.128906 136.433594 139.066406 136.175781 C 137.15625 128.273438 125.386719 128.71875 120.542969 136.882812 C 116.28125 144.058594 121.222656 151.300781 129.210938 149.578125 C 133.671875 148.617188 139.726562 144.09375 139.222656 137.042969 " fill-opacity="1" fill-rule="nonzero"/><path fill="#5ce1e6" d="M 62.707031 124.785156 C 62.261719 128.214844 64.855469 128.640625 68.613281 125.746094 C 71.691406 123.378906 76.207031 117.890625 76.625 113.097656 C 76.609375 112.457031 76.59375 111.792969 76.167969 111.246094 C 73.550781 107.855469 63.609375 117.851562 62.707031 124.785156 " fill-opacity="1" fill-rule="nonzero"/><path fill="#5ce1e6" d="M 53.289062 128.53125 C 53.335938 130.445312 55.304688 129.707031 58.1875 126.691406 C 60.707031 124.0625 64.941406 118.308594 65.585938 114.074219 C 65.609375 113.546875 65.636719 113.003906 65.3125 112.667969 C 63.171875 110.4375 53.171875 123.632812 53.289062 128.53125 " fill-opacity="1" fill-rule="nonzero"/><path fill="#5ce1e6" d="M 101.148438 105.386719 C 97.976562 111.84375 102.164062 116.054688 109.292969 113.578125 C 113.757812 112.023438 120.160156 107.007812 120.421875 100.714844 C 120.382812 100.269531 120.328125 99.667969 120.199219 99.238281 C 118.214844 92.605469 105.394531 96.742188 101.148438 105.386719 " fill-opacity="1" fill-rule="nonzero"/><path fill="#5ce1e6" d="M 86.632812 104.222656 C 84.898438 109.304688 88.539062 111.414062 94.265625 108.644531 C 98.363281 106.660156 104.371094 101.339844 104.894531 95.714844 C 104.878906 95.203125 104.859375 94.5 104.566406 93.875 C 102.074219 88.535156 89.503906 95.785156 86.632812 104.222656 " fill-opacity="1" fill-rule="nonzero"/><path fill="#5ce1e6" d="M 199.574219 47.539062 C 204.472656 47.953125 212.109375 47.578125 213.746094 45.453125 C 213.804688 45.292969 213.882812 45.058594 213.851562 44.890625 C 213.230469 41.292969 194.113281 40.265625 190.867188 43.65625 C 189.332031 45.261719 193.238281 47.003906 199.574219 47.539062 " fill-opacity="1" fill-rule="nonzero"/><path fill="#5ce1e6" d="M 199.089844 40.398438 C 199.160156 40.304688 199.277344 40.167969 199.261719 40.050781 C 199.023438 37.890625 178.222656 38.867188 175.832031 41.152344 C 174.824219 42.121094 178.527344 42.757812 184.453125 42.640625 C 189.390625 42.539062 197.191406 41.777344 199.089844 40.398438 " fill-opacity="1" fill-rule="nonzero"/><path fill="#5ce1e6" d="M 126.140625 120.28125 C 130.574219 119.191406 136.808594 114.824219 136.800781 108.523438 C 136.746094 108.066406 136.664062 107.453125 136.519531 107.019531 C 134.324219 100.371094 122.554688 102.375 117.996094 110.171875 C 114.210938 116.648438 118.625 122.128906 126.140625 120.28125 " fill-opacity="1" fill-rule="nonzero"/><path fill="#5ce1e6" d="M 136.039062 117.402344 C 131.207031 124.191406 136.121094 131.25 144.660156 129.78125 C 149.324219 128.980469 155.785156 124.851562 155.535156 118.171875 C 155.496094 117.925781 155.457031 117.59375 155.40625 117.347656 C 153.75 109.777344 141.441406 109.808594 136.039062 117.402344 " fill-opacity="1" fill-rule="nonzero"/><path fill="#5ce1e6" d="M 74.863281 105.191406 C 74.175781 108.449219 76.949219 108.8125 81.175781 106.019531 C 84.597656 103.753906 89.742188 98.554688 90.460938 94.085938 C 90.484375 93.492188 90.503906 92.878906 90.085938 92.371094 C 87.570312 89.320312 76.1875 98.90625 74.863281 105.191406 " fill-opacity="1" fill-rule="nonzero"/><path fill="#5ce1e6" d="M 64.445312 109.132812 C 64.378906 110.832031 66.605469 110.003906 69.867188 107.113281 C 72.941406 104.390625 77.683594 98.925781 78.609375 95.292969 C 78.667969 94.816406 78.726562 94.363281 78.398438 94.105469 C 76.222656 92.378906 64.617188 104.878906 64.445312 109.132812 " fill-opacity="1" fill-rule="nonzero"/><path fill="#5ce1e6" d="M 218.722656 39.925781 C 218.769531 39.90625 218.828125 39.882812 218.871094 39.863281 C 218.875 39.820312 218.878906 39.757812 218.882812 39.714844 C 216.980469 38.585938 199.632812 37.5 197.546875 38.375 C 197.542969 38.421875 197.542969 38.480469 197.539062 38.523438 C 198.445312 39.015625 202.765625 39.433594 205.261719 39.636719 C 209.453125 39.976562 216.816406 40.355469 218.722656 39.925781 " fill-opacity="1" fill-rule="nonzero"/><path fill="#5ce1e6" d="M 219.628906 44.488281 C 224.039062 45.324219 230.980469 46.019531 232.589844 44.957031 C 232.65625 44.875 232.746094 44.738281 232.734375 44.632812 C 232.472656 42.300781 213.929688 39.320312 211.84375 41.273438 C 210.960938 42.101562 214.304688 43.484375 219.628906 44.488281 " fill-opacity="1" fill-rule="nonzero"/><path fill="#5ce1e6" d="M 234.289062 52.367188 C 238.621094 53.609375 245.335938 54.613281 246.699219 52.972656 C 246.722656 52.898438 246.769531 52.808594 246.78125 52.734375 C 247.308594 49.527344 230.6875 44.777344 226.796875 47.023438 C 224.785156 48.183594 228.21875 50.628906 234.289062 52.367188 " fill-opacity="1" fill-rule="nonzero"/><path fill="#5ce1e6" d="M 241.804688 55.6875 C 239.285156 57.066406 242.792969 60.476562 249.164062 62.84375 C 253.386719 64.414062 259.828125 65.664062 260.929688 63.535156 C 261.636719 59.554688 246.265625 53.242188 241.804688 55.6875 " fill-opacity="1" fill-rule="nonzero"/><path fill="#5ce1e6" d="M 215.550781 55.113281 C 220.015625 55.910156 226.863281 55.875 228.113281 53.308594 C 228.128906 53.207031 228.171875 53.070312 228.175781 52.96875 C 228.398438 48.816406 212.472656 45.765625 207.890625 49.082031 C 205.234375 51.003906 208.957031 53.9375 215.550781 55.113281 " fill-opacity="1" fill-rule="nonzero"/><path fill="#5ce1e6" d="M 223.824219 57.640625 C 220.582031 59.847656 224.390625 63.914062 231.371094 65.699219 C 235.753906 66.824219 242.375 67.011719 243.351562 63.914062 C 243.792969 58.382812 228.417969 54.519531 223.824219 57.640625 " fill-opacity="1" fill-rule="nonzero"/><path fill="#5ce1e6" d="M 213.269531 94.179688 C 217.8125 94.644531 224.332031 93.035156 224.609375 88.007812 C 223.960938 80.949219 211.363281 78.207031 205.75 82.417969 C 200.320312 86.488281 204.679688 93.304688 213.269531 94.179688 " fill-opacity="1" fill-rule="nonzero"/><path fill="#5ce1e6" d="M 196.519531 107.097656 C 201.140625 107.164062 207.660156 104.671875 207.6875 98.910156 C 206.664062 90.832031 193.964844 89.164062 188.351562 94.644531 C 183.113281 99.753906 187.847656 106.972656 196.519531 107.097656 " fill-opacity="1" fill-rule="nonzero"/><path fill="#5ce1e6" d="M 171.425781 109.8125 C 166.425781 115.808594 171.5 123.355469 180.183594 122.835938 C 184.855469 122.558594 191.332031 119.289062 191.105469 112.894531 C 189.722656 104.085938 176.847656 103.308594 171.425781 109.8125 " fill-opacity="1" fill-rule="nonzero"/><path fill="#5ce1e6" d="M 174.964844 129.542969 C 173.347656 120.773438 161.3125 120.160156 155.742188 126.632812 C 149.96875 133.339844 155.207031 142.027344 164.363281 140.933594 C 169.054688 140.375 175.449219 136.472656 174.964844 129.542969 " fill-opacity="1" fill-rule="nonzero"/><path fill="#5ce1e6" d="M 241.675781 80.503906 C 241.351562 74 228.011719 70.316406 222.796875 73.886719 C 218.210938 77.03125 222.339844 82.871094 230.28125 84.480469 C 234.710938 85.375 241.175781 84.734375 241.675781 80.503906 " fill-opacity="1" fill-rule="nonzero"/><path fill="#5ce1e6" d="M 240.050781 68.644531 C 236.273438 70.917969 240.117188 75.945312 247.398438 78.25 C 251.675781 79.605469 258.011719 79.984375 258.707031 76.585938 C 258.726562 70.742188 244.832031 65.761719 240.050781 68.644531 " fill-opacity="1" fill-rule="nonzero"/><path fill="#5ce1e6" d="M 152.019531 85.601562 L 151.902344 85.53125 L 151.886719 85.546875 Z M 152.019531 85.601562 " fill-opacity="1" fill-rule="nonzero"/><path fill="#5ce1e6" d="M 134.402344 89.917969 L 134.285156 90.050781 L 134.402344 89.933594 C 134.402344 89.929688 134.402344 89.921875 134.402344 89.917969 " fill-opacity="1" fill-rule="nonzero"/><path fill="#5ce1e6" d="M 76.757812 144.59375 C 74.226562 151.042969 77.703125 155.503906 83.289062 152.96875 C 86.582031 151.472656 91.101562 146.683594 90.835938 140.71875 C 90.742188 140.097656 90.625 139.320312 90.253906 138.585938 C 87.730469 133.601562 79.660156 137.195312 76.757812 144.59375 " fill-opacity="1" fill-rule="nonzero"/><path fill="#5ce1e6" d="M 63.75 143.628906 C 62.800781 148.535156 65.742188 150.550781 69.917969 147.855469 C 72.617188 146.117188 76.867188 141.289062 76.804688 135.734375 C 76.78125 135.367188 76.707031 134.246094 76.078125 133.378906 C 73.257812 129.46875 65.191406 136.171875 63.75 143.628906 " fill-opacity="1" fill-rule="nonzero"/><path fill="#5ce1e6" d="M 215.242188 119.378906 C 219.574219 119.613281 225.597656 117.441406 225.4375 111.863281 C 224.722656 105.058594 213.746094 101.714844 207.910156 106.527344 C 202.351562 111.109375 206.804688 118.914062 215.242188 119.378906 " fill-opacity="1" fill-rule="nonzero"/><path fill="#5ce1e6" d="M 241.441406 101.167969 C 240.558594 94.449219 229.167969 91.324219 224.097656 95.003906 C 219.109375 98.628906 223.027344 105.417969 230.859375 106.722656 C 235.1875 107.441406 241.328125 106.195312 241.441406 101.167969 " fill-opacity="1" fill-rule="nonzero"/><path fill="#5ce1e6" d="M 232.757812 42.796875 C 233.164062 43.558594 237.351562 44.902344 239.808594 45.636719 C 240.78125 45.925781 249.371094 48.460938 251.460938 48.085938 C 251.523438 48.050781 251.605469 47.988281 251.628906 47.921875 C 251.617188 47.886719 251.601562 47.835938 251.578125 47.804688 C 250.410156 46.070312 233.167969 41.480469 232.757812 42.796875 " fill-opacity="1" fill-rule="nonzero"/><path fill="#5ce1e6" d="M 98.84375 160.210938 C 102.21875 159.015625 107.058594 154.855469 106.550781 148.289062 C 106.460938 147.796875 106.335938 147.132812 106.167969 146.660156 C 103.984375 140.527344 95.121094 142.320312 91.578125 149.605469 C 88.527344 155.890625 91.890625 162.671875 98.84375 160.210938 " fill-opacity="1" fill-rule="nonzero"/><path fill="#5ce1e6" d="M 46.316406 133.703125 C 46.464844 134.613281 48.203125 132.574219 49.78125 130.359375 C 51.566406 127.847656 55.164062 122.222656 55.980469 118.902344 C 56.035156 118.507812 56.085938 118.164062 55.863281 118.074219 C 54.292969 117.453125 45.90625 131.183594 46.316406 133.703125 " fill-opacity="1" fill-rule="nonzero"/><path fill="#5ce1e6" d="M 53.328125 144.371094 C 53.089844 147.820312 55.214844 148.289062 58.382812 145.484375 C 60.460938 143.644531 64.429688 138.796875 64.589844 133.613281 C 64.539062 132.917969 64.496094 132.261719 64.085938 131.714844 C 61.71875 128.550781 53.777344 137.890625 53.328125 144.371094 " fill-opacity="1" fill-rule="nonzero"/><path fill="#5ce1e6" d="M 240.429688 86.863281 C 236.722656 89.382812 239.558594 95.257812 247.027344 97.203125 C 249.765625 97.914062 256.945312 98.699219 257.292969 93.847656 C 256.714844 87.710938 244.980469 83.773438 240.429688 86.863281 " fill-opacity="1" fill-rule="nonzero"/><path fill="#5ce1e6" d="M 253.386719 53.511719 C 256.566406 54.804688 262.972656 57.023438 264.480469 56.164062 C 264.507812 56.121094 264.558594 56.066406 264.578125 56.019531 C 265.257812 54.039062 249.554688 47.769531 246.890625 48.957031 C 245.589844 49.535156 248.320312 51.453125 253.386719 53.511719 " fill-opacity="1" fill-rule="nonzero"/><path fill="#5ce1e6" d="M 209.417969 125.65625 C 207.890625 117.363281 196.75 116.601562 191.957031 121.203125 C 186.8125 126.136719 190.429688 134.859375 199.570312 134.640625 C 205.574219 134.492188 209.988281 130.464844 209.417969 125.65625 " fill-opacity="1" fill-rule="nonzero"/><path fill="#5ce1e6" d="M 149.152344 159.882812 C 153.238281 159.167969 159.070312 155.558594 158.375 148.53125 C 157.0625 140.210938 145.550781 140.074219 140.761719 146.519531 C 136.179688 152.683594 140.273438 161.429688 149.152344 159.882812 " fill-opacity="1" fill-rule="nonzero"/><path fill="#5ce1e6" d="M 108.546875 157.03125 C 104.292969 163.824219 108.691406 171.339844 115.902344 169.59375 C 120.96875 168.367188 124.761719 162.902344 124.023438 157.902344 C 123.96875 157.644531 123.914062 157.304688 123.84375 157.050781 C 122.007812 150.160156 112.855469 150.148438 108.546875 157.03125 " fill-opacity="1" fill-rule="nonzero"/><path fill="#5ce1e6" d="M 274.535156 75.960938 C 274.808594 71.628906 261.914062 65.714844 258.132812 67.359375 C 255.394531 68.550781 258.445312 72.46875 264.175781 75.125 C 267.6875 76.753906 273.601562 78.414062 274.535156 75.960938 " fill-opacity="1" fill-rule="nonzero"/><path fill="#5ce1e6" d="M 44.96875 147.675781 C 45.109375 149.363281 46.679688 148.792969 48.78125 146.285156 C 51.640625 142.878906 54.25 137.382812 54.371094 134.53125 C 54.359375 134.007812 54.347656 133.515625 54.046875 133.191406 C 52.03125 131.050781 44.5625 142.960938 44.96875 147.675781 " fill-opacity="1" fill-rule="nonzero"/><path fill="#5ce1e6" d="M 273.042969 90.050781 C 272.726562 85.191406 262.089844 79.722656 257.238281 81.925781 C 253.367188 83.683594 256.964844 89 263.652344 91.402344 C 267.289062 92.710938 272.605469 93.15625 273.042969 90.050781 " fill-opacity="1" fill-rule="nonzero"/><path fill="#5ce1e6" d="M 261.019531 58.0625 C 259.320312 58.703125 262.339844 61.527344 267.480469 64.105469 C 270.914062 65.828125 276.476562 67.855469 277.515625 66.734375 C 277.515625 66.730469 277.523438 66.722656 277.527344 66.714844 C 278.535156 64.113281 264.5 56.753906 261.019531 58.0625 " fill-opacity="1" fill-rule="nonzero"/><path fill="#5ce1e6" d="M 193.710938 142.113281 C 192.539062 134.65625 181.652344 132.523438 176.324219 138.707031 C 171.097656 144.765625 176.039062 152.988281 184.457031 152.238281 C 188.660156 151.863281 194.3125 148.472656 193.710938 142.113281 " fill-opacity="1" fill-rule="nonzero"/><path fill="#5ce1e6" d="M 72.453125 173.058594 C 76.214844 171.496094 79.285156 165.96875 78.765625 161.679688 C 78.695312 161.285156 78.597656 160.757812 78.464844 160.382812 C 76.769531 155.625 70.355469 156.816406 67.269531 164.101562 C 64.511719 170.605469 67.953125 174.921875 72.453125 173.058594 " fill-opacity="1" fill-rule="nonzero"/><path fill="#5ce1e6" d="M 60.109375 167.824219 C 62.585938 166.203125 65.894531 161.386719 65.671875 156.558594 C 65.582031 155.6875 65.339844 154.976562 64.953125 154.441406 C 62.476562 151.03125 56.449219 156.253906 55.027344 163.035156 C 53.9375 168.242188 56.914062 169.914062 60.109375 167.824219 " fill-opacity="1" fill-rule="nonzero"/><path fill="#5ce1e6" d="M 243.046875 125.148438 C 242.308594 119.53125 232.765625 115.46875 227.292969 119.929688 C 222.238281 124.050781 226.207031 131.242188 233.925781 131.949219 C 237.929688 132.320312 243.328125 130.160156 243.046875 125.148438 " fill-opacity="1" fill-rule="nonzero"/><path fill="#5ce1e6" d="M 249.078125 119.710938 C 254.09375 120.589844 258.398438 118.195312 258.109375 114.6875 C 257.121094 108.808594 247.328125 105.109375 242.46875 108.777344 C 237.824219 112.28125 242.566406 118.574219 249.078125 119.710938 " fill-opacity="1" fill-rule="nonzero"/><path fill="#5ce1e6" d="M 271.597656 58.128906 C 272.949219 58.859375 279.761719 62.480469 281.460938 62.351562 C 281.492188 62.332031 281.539062 62.316406 281.558594 62.289062 C 282.402344 61.152344 267.941406 53.53125 266.085938 54.132812 C 265.359375 54.371094 267.46875 55.902344 271.597656 58.128906 " fill-opacity="1" fill-rule="nonzero"/><path fill="#5ce1e6" d="M 258.171875 100.664062 C 254.3125 102.882812 257.25 108.820312 264.542969 110.65625 C 267.855469 111.488281 272.8125 111.359375 272.882812 107.59375 C 272.148438 102.136719 262.351562 98.261719 258.171875 100.664062 " fill-opacity="1" fill-rule="nonzero"/><path fill="#5ce1e6" d="M 227.894531 138.726562 C 226.863281 132.152344 216.648438 129.515625 211.820312 134.574219 C 207.132812 139.480469 211.789062 147.101562 219.367188 146.925781 C 222.957031 146.84375 228.445312 144.542969 227.894531 138.726562 " fill-opacity="1" fill-rule="nonzero"/><path fill="#5ce1e6" d="M 87.496094 180.238281 C 91.535156 178.671875 94.289062 173.796875 93.632812 169.371094 C 93.546875 168.933594 93.425781 168.351562 93.273438 167.933594 C 91.28125 162.382812 84.058594 163.601562 81.011719 170.007812 C 77.949219 176.433594 81.769531 182.453125 87.496094 180.238281 " fill-opacity="1" fill-rule="nonzero"/><path fill="#5ce1e6" d="M 49.660156 165.269531 C 52.476562 162.535156 54.625 157.644531 54.445312 154.363281 C 54.386719 153.816406 54.292969 152.898438 53.75 152.386719 C 51.445312 150.195312 45.671875 158.34375 45.515625 164.007812 C 45.425781 167.15625 47.171875 167.683594 49.660156 165.269531 " fill-opacity="1" fill-rule="nonzero"/><path fill="#5ce1e6" d="M 288.109375 89.710938 C 288.441406 86.101562 277.714844 79.390625 273.761719 80.734375 C 270.988281 81.671875 273.246094 85.832031 279.441406 88.960938 C 282.191406 90.351562 287.542969 92.292969 288.109375 89.710938 " fill-opacity="1" fill-rule="nonzero"/><path fill="#5ce1e6" d="M 38.640625 152.882812 C 38.804688 153.683594 39.867188 152.480469 41.484375 149.667969 C 41.878906 148.976562 45.386719 142.789062 45.941406 138.882812 C 45.964844 138.472656 45.988281 138.082031 45.792969 137.949219 C 44.464844 137.0625 38.117188 150.320312 38.640625 152.882812 " fill-opacity="1" fill-rule="nonzero"/><path fill="#5ce1e6" d="M 103.636719 189.753906 C 106.792969 188.976562 111.183594 185.480469 110.335938 179.039062 C 110.335938 179.039062 110.335938 179.039062 110.335938 179.035156 C 110.332031 179.035156 110.332031 179.035156 110.332031 179.035156 C 110.332031 179.035156 110.332031 179.03125 110.332031 179.03125 C 110.332031 179.027344 110.332031 179.027344 110.332031 179.027344 C 110.332031 179.027344 110.332031 179.023438 110.332031 179.023438 C 110.332031 179.023438 110.332031 179.023438 110.332031 179.019531 C 110.105469 178.03125 109.632812 175.984375 107.753906 174.59375 C 103.265625 171.273438 94.675781 175.765625 95.820312 184.433594 C 95.820312 184.433594 95.820312 184.433594 95.820312 184.4375 C 95.824219 184.4375 95.824219 184.4375 95.824219 184.4375 C 95.824219 184.4375 95.824219 184.4375 95.824219 184.441406 C 95.824219 184.445312 95.824219 184.445312 95.824219 184.445312 C 95.824219 184.445312 95.824219 184.445312 95.828125 184.449219 C 95.828125 184.449219 95.828125 184.453125 95.828125 184.453125 C 97.355469 191.097656 102.996094 189.910156 103.636719 189.753906 " fill-opacity="1" fill-rule="nonzero"/><path fill="#5ce1e6" d="M 134.667969 180.21875 C 138.292969 179.585938 143.722656 176 142.878906 169.074219 C 140.992188 161.007812 131.121094 161.050781 126.980469 167.347656 C 122.742188 173.796875 127.339844 181.496094 134.667969 180.21875 " fill-opacity="1" fill-rule="nonzero"/><path fill="#5ce1e6" d="M 178.144531 160.84375 C 176.765625 153.394531 166.0625 151.824219 161.296875 158.371094 C 156.734375 164.648438 161.878906 172.539062 169.765625 171.359375 C 174.375 170.671875 178.878906 166.753906 178.144531 160.84375 " fill-opacity="1" fill-rule="nonzero"/><path fill="#5ce1e6" d="M 259.078125 50.167969 C 261.6875 51.257812 267.921875 53.828125 269.472656 54.148438 C 269.511719 54.152344 269.566406 54.152344 269.605469 54.15625 C 269.605469 54.128906 269.605469 54.09375 269.605469 54.066406 C 268.277344 52.992188 254.042969 46.976562 253.164062 47.476562 C 253.386719 47.636719 253.90625 48.011719 259.078125 50.167969 " fill-opacity="1" fill-rule="nonzero"/><path fill="#5ce1e6" d="M 43.28125 137.214844 C 46.964844 130.113281 47.851562 128.089844 48.230469 127.042969 C 48.230469 127.042969 48.230469 127.039062 48.234375 127.039062 C 48.234375 127.039062 48.234375 127.035156 48.234375 127.035156 C 48.234375 127.035156 48.234375 127.035156 48.234375 127.03125 C 48.265625 126.929688 48.304688 126.792969 48.320312 126.6875 C 48.296875 126.683594 48.261719 126.675781 48.238281 126.667969 C 46.84375 128.144531 40.84375 140.550781 40.621094 142.015625 C 40.742188 141.957031 40.839844 141.914062 43.28125 137.214844 " fill-opacity="1" fill-rule="nonzero"/><path fill="#5ce1e6" d="M 275.574219 69.671875 C 273.730469 70.195312 275.546875 73.089844 281.109375 76.40625 C 281.429688 76.59375 288.953125 81.054688 290.144531 79.128906 C 290.664062 75.816406 278.535156 68.835938 275.574219 69.671875 " fill-opacity="1" fill-rule="nonzero"/><path fill="#5ce1e6" d="M 38.238281 166.570312 C 38.238281 166.574219 38.238281 166.574219 38.238281 166.574219 C 38.238281 166.578125 38.238281 166.578125 38.238281 166.578125 C 38.25 166.691406 38.25 166.84375 38.261719 166.957031 C 38.445312 168.542969 39.609375 168.109375 41.21875 165.855469 C 43.5 162.664062 45.332031 157.871094 45.300781 155.167969 C 45.265625 154.6875 45.234375 154.1875 44.976562 153.875 C 43.550781 152.152344 38.351562 160.902344 38.238281 166.570312 " fill-opacity="1" fill-rule="nonzero"/><path fill="#5ce1e6" d="M 287.449219 104.054688 C 287.390625 103.511719 287.304688 102.695312 286.183594 101.3125 C 282.160156 96.355469 272.601562 93.566406 272.261719 98.25 C 272.261719 98.25 272.261719 98.25 272.261719 98.253906 C 272.261719 98.253906 272.261719 98.253906 272.261719 98.257812 C 272.261719 98.257812 272.261719 98.257812 272.261719 98.261719 C 272.660156 102.136719 278.402344 104.667969 279.054688 104.941406 C 283.105469 106.652344 287.445312 106.703125 287.449219 104.054688 " fill-opacity="1" fill-rule="nonzero"/><path fill="#5ce1e6" d="M 293.4375 72.9375 C 293.722656 71.703125 281.449219 62.4375 278.929688 63.679688 C 278.929688 63.679688 278.929688 63.679688 278.929688 63.683594 C 278.929688 63.683594 278.929688 63.683594 278.925781 63.683594 C 278.304688 64.753906 283.984375 68.5 284.636719 68.921875 C 286.6875 70.257812 292.253906 73.605469 293.371094 73.054688 C 293.390625 73.019531 293.425781 72.976562 293.4375 72.9375 " fill-opacity="1" fill-rule="nonzero"/><path fill="#5ce1e6" d="M 212.898438 155.054688 C 211.023438 147.0625 201.019531 146.90625 197.015625 151.636719 C 192.855469 156.554688 196.609375 164.78125 204.585938 164.234375 C 209.984375 163.863281 213.714844 159.746094 212.898438 155.054688 " fill-opacity="1" fill-rule="nonzero"/><path fill="#5ce1e6" d="M 198.179688 173.625 C 196.457031 166.992188 187.9375 165.074219 183.238281 170.261719 C 177.824219 176.238281 183.207031 183.960938 190.261719 183.351562 C 194.105469 183.019531 198.992188 179.453125 198.179688 173.625 " fill-opacity="1" fill-rule="nonzero"/><path fill="#5ce1e6" d="M 155.117188 191.746094 C 160.152344 191.066406 164.03125 185.945312 163.105469 181.203125 C 161.304688 174.386719 152.421875 172.761719 147.773438 178.394531 C 142.292969 185.042969 147.828125 192.726562 155.117188 191.746094 " fill-opacity="1" fill-rule="nonzero"/><path fill="#5ce1e6" d="M 121.988281 200.613281 C 126.347656 199.789062 129.628906 194.757812 128.734375 190.253906 C 126.984375 183.566406 119.078125 182.28125 115.085938 188.039062 C 110.523438 194.617188 115.636719 201.808594 121.988281 200.613281 " fill-opacity="1" fill-rule="nonzero"/><path fill="#5ce1e6" d="M 289.75 83.226562 C 287.386719 83.550781 290.476562 87.378906 294.664062 90.28125 C 297.664062 92.367188 302.132812 94.484375 302.710938 93.046875 C 302.816406 89.992188 293.246094 82.738281 289.75 83.226562 " fill-opacity="1" fill-rule="nonzero"/><path fill="#5ce1e6" d="M 63.429688 192.230469 C 66.464844 190.996094 68.898438 186.105469 68.34375 182.355469 C 68.273438 182.003906 68.175781 181.535156 68.054688 181.199219 C 66.601562 177.222656 61.671875 177.757812 59.164062 183.515625 C 56.597656 189.402344 59.5625 193.800781 63.429688 192.230469 " fill-opacity="1" fill-rule="nonzero"/><path fill="#5ce1e6" d="M 39.515625 146.359375 C 39.53125 146.257812 39.546875 146.113281 39.546875 146.007812 C 39.523438 145.996094 39.484375 145.980469 39.457031 145.964844 C 38.21875 147.226562 34.390625 158.171875 34.011719 160.660156 C 34.035156 160.683594 34.0625 160.714844 34.085938 160.738281 C 34.351562 160.324219 34.976562 158.867188 35.949219 156.414062 C 36.257812 155.644531 38.957031 148.8125 39.515625 146.359375 " fill-opacity="1" fill-rule="nonzero"/><path fill="#5ce1e6" d="M 288.78125 95.40625 C 286.214844 96.230469 288.890625 100.261719 293.890625 103.109375 C 296.605469 104.660156 301.0625 106.292969 301.445312 104.078125 C 301.1875 100.46875 292.191406 94.308594 288.78125 95.40625 " fill-opacity="1" fill-rule="nonzero"/><path fill="#5ce1e6" d="M 33.035156 172.074219 C 33.386719 172.683594 34.640625 170.082031 35.015625 169.269531 C 36.460938 166.136719 38.082031 161.390625 38.175781 159.175781 C 38.171875 158.824219 38.167969 158.457031 37.984375 158.347656 C 36.691406 157.5625 32.0625 170.390625 33.035156 172.074219 " fill-opacity="1" fill-rule="nonzero"/><path fill="#5ce1e6" d="M 260.324219 138.222656 C 259.089844 132.675781 250.585938 129.9375 246.328125 133.710938 C 242.183594 137.382812 246.027344 143.8125 252.652344 144.292969 C 257.167969 144.621094 260.828125 141.726562 260.324219 138.222656 " fill-opacity="1" fill-rule="nonzero"/><path fill="#5ce1e6" d="M 274.332031 127.980469 C 273.34375 123.035156 265.246094 119.707031 261 122.5 C 256.8125 125.257812 260.273438 131.265625 266.695312 132.390625 C 271.042969 133.152344 274.683594 131.050781 274.332031 127.980469 " fill-opacity="1" fill-rule="nonzero"/><path fill="#5ce1e6" d="M 47.945312 181.894531 C 46.929688 186.753906 49.371094 188.679688 52.078125 186.851562 C 54.671875 185.097656 56.667969 180.441406 56.261719 177.085938 C 56.152344 176.449219 56.046875 175.847656 55.621094 175.230469 C 53.589844 172.277344 49.144531 176.140625 47.945312 181.894531 " fill-opacity="1" fill-rule="nonzero"/><path fill="#5ce1e6" d="M 292.242188 75.546875 C 290.953125 75.761719 293.070312 78.339844 297.058594 81.410156 C 297.125 81.464844 303.84375 86.625 304.925781 85.652344 C 305.484375 83.613281 294.816406 75.113281 292.242188 75.546875 " fill-opacity="1" fill-rule="nonzero"/><path fill="#5ce1e6" d="M 39.457031 182.941406 C 39.496094 185.683594 40.894531 186.183594 42.785156 184.136719 C 44.28125 182.515625 46.429688 178.671875 46.207031 174.726562 C 46.15625 174.253906 46.011719 173.390625 45.566406 172.945312 C 43.617188 170.988281 39.390625 177.902344 39.457031 182.941406 " fill-opacity="1" fill-rule="nonzero"/><path fill="#5ce1e6" d="M 288 121.128906 C 287.574219 116.835938 278.976562 112.6875 275.226562 114.964844 C 272.144531 116.832031 274.75 122.011719 280.78125 123.6875 C 283.722656 124.507812 288.070312 124.5 288 121.128906 " fill-opacity="1" fill-rule="nonzero"/><path fill="#5ce1e6" d="M 246.101562 151.625 C 245.0625 145.84375 236.234375 143.492188 232.003906 147.867188 C 228.15625 151.851562 231.542969 159.132812 238.746094 158.933594 C 242.046875 158.839844 246.730469 156.820312 246.101562 151.625 " fill-opacity="1" fill-rule="nonzero"/><path fill="#5ce1e6" d="M 77.339844 199.679688 C 79.648438 198.863281 83.042969 195.550781 82.3125 190.148438 C 82.242188 189.761719 82.105469 189.179688 81.859375 188.601562 C 79.949219 184.0625 74.230469 184.945312 71.832031 190.152344 C 69.292969 195.664062 72.585938 201.359375 77.339844 199.679688 " fill-opacity="1" fill-rule="nonzero"/><path fill="#5ce1e6" d="M 288.984375 65.992188 C 292.171875 68.179688 296.21875 70.867188 297.417969 71.226562 C 297.453125 71.210938 297.503906 71.195312 297.542969 71.179688 C 297.101562 69.894531 285.488281 62.171875 284.460938 62.480469 C 284.511719 62.625 284.644531 63.007812 288.984375 65.992188 " fill-opacity="1" fill-rule="nonzero"/><path fill="#5ce1e6" d="M 300.539062 76.835938 C 300.605469 76.890625 306.957031 82.160156 308.152344 82.167969 C 308.171875 82.152344 308.195312 82.132812 308.214844 82.117188 C 308.28125 80.621094 297.136719 71.609375 296.167969 72.375 C 296.117188 73.039062 298.882812 75.453125 300.539062 76.835938 " fill-opacity="1" fill-rule="nonzero"/><path fill="#5ce1e6" d="M 33.019531 166.472656 C 33.042969 166.125 33.042969 166.125 32.957031 166.03125 C 32.152344 166.847656 29.300781 178.402344 29.636719 179.46875 C 29.714844 179.328125 29.847656 179.089844 30.757812 175.824219 C 32.058594 171.125 32.820312 167.976562 33.019531 166.472656 " fill-opacity="1" fill-rule="nonzero"/><path fill="#5ce1e6" d="M 183.566406 193.867188 C 182.09375 187.535156 173.558594 185.898438 169.296875 191.132812 C 164.71875 196.757812 169.257812 204.460938 176.546875 203.441406 C 180.054688 202.949219 184.550781 199.652344 183.566406 193.867188 " fill-opacity="1" fill-rule="nonzero"/><path fill="#5ce1e6" d="M 86.050781 204.375 C 86.050781 204.375 86.050781 204.378906 86.050781 204.378906 C 86.050781 204.378906 86.050781 204.382812 86.050781 204.382812 C 86.054688 204.386719 86.054688 204.386719 86.054688 204.386719 C 86.054688 204.390625 86.054688 204.390625 86.054688 204.394531 C 86.054688 204.394531 86.054688 204.398438 86.054688 204.398438 C 86.054688 204.398438 86.054688 204.402344 86.054688 204.402344 C 86.054688 204.402344 86.058594 204.40625 86.058594 204.40625 C 87.535156 210.320312 92.292969 209.390625 92.832031 209.265625 C 95.464844 208.652344 99.054688 205.667969 98.152344 199.964844 C 97.691406 197.71875 96.5 196.511719 95.835938 195.996094 C 91.621094 192.726562 84.964844 197.265625 86.050781 204.367188 C 86.050781 204.371094 86.050781 204.371094 86.050781 204.375 " fill-opacity="1" fill-rule="nonzero"/><path fill="#5ce1e6" d="M 301.355469 117.875 C 301.113281 114.398438 293.34375 109.621094 289.808594 110.773438 C 286.863281 111.738281 288.953125 116.167969 294.589844 118.582031 C 297.164062 119.683594 301.277344 120.464844 301.355469 117.875 " fill-opacity="1" fill-rule="nonzero"/><path fill="#5ce1e6" d="M 305.132812 89.40625 C 303.65625 89.363281 305.660156 92.246094 309.425781 95.578125 C 311.359375 97.292969 315.566406 100.558594 316.191406 99.726562 C 316.40625 97.585938 307.730469 89.484375 305.132812 89.40625 " fill-opacity="1" fill-rule="nonzero"/><path fill="#5ce1e6" d="M 33.449219 185.777344 C 33.75 186.773438 34.648438 186.171875 35.738281 184.246094 C 36.660156 182.628906 38.375 178.6875 38.300781 175.382812 C 38.300781 175.382812 38.300781 175.382812 38.300781 175.378906 C 38.300781 175.378906 38.300781 175.378906 38.300781 175.375 C 38.300781 175.371094 38.296875 175.371094 38.296875 175.371094 C 38.296875 175.371094 38.296875 175.371094 38.296875 175.367188 C 38.296875 175.367188 38.296875 175.363281 38.296875 175.363281 C 38.296875 175.363281 38.296875 175.359375 38.296875 175.359375 C 38.257812 174.96875 38.191406 174.3125 37.855469 174.089844 C 36.1875 172.980469 32.519531 182.703125 33.449219 185.777344 " fill-opacity="1" fill-rule="nonzero"/><path fill="#5ce1e6" d="M 231.976562 167.761719 C 231.972656 167.761719 231.972656 167.761719 231.972656 167.757812 C 231.972656 167.757812 231.972656 167.753906 231.972656 167.753906 C 231.972656 167.75 231.972656 167.75 231.972656 167.75 C 231.972656 167.746094 231.972656 167.746094 231.972656 167.742188 C 231.972656 167.742188 231.96875 167.742188 231.96875 167.738281 C 231.96875 167.738281 231.96875 167.734375 231.96875 167.734375 C 231.96875 167.734375 231.96875 167.730469 231.96875 167.730469 C 231.96875 167.726562 231.96875 167.726562 231.96875 167.722656 C 230.0625 160.648438 221.070312 160.703125 217.78125 165.003906 C 214.042969 169.886719 218.386719 176.558594 224.929688 175.988281 C 228.082031 175.714844 232.78125 173.238281 231.976562 167.761719 " fill-opacity="1" fill-rule="nonzero"/><path fill="#5ce1e6" d="M 34.355469 158.691406 L 34.222656 159.140625 C 34.324219 158.808594 34.425781 158.460938 34.527344 158.132812 L 34.355469 158.691406 " fill-opacity="1" fill-rule="nonzero"/><path fill="#5ce1e6" d="M 141.953125 212.167969 C 146.410156 211.332031 149.359375 206.90625 148.390625 202.503906 C 146.386719 195.375 137.878906 195.066406 134.417969 200.417969 C 130.703125 206.15625 135.351562 213.402344 141.953125 212.167969 " fill-opacity="1" fill-rule="nonzero"/><path fill="#5ce1e6" d="M 303.46875 98.21875 C 301.699219 98.582031 304.011719 101.980469 308.136719 105.082031 C 310.09375 106.554688 314.265625 109.113281 314.667969 107.628906 C 314.871094 105.289062 306.523438 97.597656 303.46875 98.21875 " fill-opacity="1" fill-rule="nonzero"/><path fill="#5ce1e6" d="M 110.128906 220.394531 C 113.496094 220.003906 116.671875 216.1875 115.839844 211.332031 C 114.285156 205.730469 108.121094 204.132812 104.664062 208.433594 C 100.285156 213.882812 104.550781 221.042969 110.128906 220.394531 " fill-opacity="1" fill-rule="nonzero"/><path fill="#5ce1e6" d="M 29.359375 190.234375 C 29.617188 190.707031 30.378906 188.597656 30.605469 187.941406 C 31.535156 185.253906 32.554688 180.984375 32.53125 179.15625 C 32.515625 178.886719 32.492188 178.4375 32.28125 178.433594 C 31.21875 178.429688 28.625 188.90625 29.359375 190.234375 " fill-opacity="1" fill-rule="nonzero"/><path fill="#5ce1e6" d="M 218.078125 186.242188 C 218.078125 186.238281 218.078125 186.238281 218.078125 186.238281 C 218.078125 186.234375 218.078125 186.234375 218.078125 186.234375 C 218.078125 186.230469 218.074219 186.230469 218.074219 186.226562 C 218.074219 186.226562 218.074219 186.226562 218.074219 186.222656 C 218.074219 186.222656 218.074219 186.222656 218.074219 186.21875 C 218.074219 186.21875 218.074219 186.214844 218.074219 186.214844 C 218.074219 186.214844 218.070312 186.210938 218.070312 186.210938 C 218.070312 186.210938 218.070312 186.207031 218.070312 186.207031 C 216.277344 180.03125 207.820312 178.746094 204.148438 184.089844 C 200.304688 189.6875 205.605469 195.808594 211.609375 194.929688 C 214.824219 194.457031 218.867188 191.175781 218.078125 186.242188 " fill-opacity="1" fill-rule="nonzero"/><path fill="#5ce1e6" d="M 303.421875 110.441406 C 301.375 111.042969 303.769531 114.636719 307.910156 117.183594 C 309.832031 118.367188 313.875 120.179688 314.113281 118.246094 C 313.726562 115.085938 306.234375 109.613281 303.421875 110.441406 " fill-opacity="1" fill-rule="nonzero"/><path fill="#5ce1e6" d="M 307.898438 84.734375 C 307.898438 84.734375 307.898438 84.738281 307.898438 84.738281 C 307.898438 84.738281 307.898438 84.738281 307.894531 84.738281 C 307.578125 85.496094 311.097656 89 312.183594 90.054688 C 312.40625 90.265625 317.582031 95.277344 318.476562 95.03125 C 318.488281 95.007812 318.511719 94.976562 318.515625 94.945312 C 318.691406 93.914062 309.671875 84.023438 307.898438 84.734375 " fill-opacity="1" fill-rule="nonzero"/><path fill="#5ce1e6" d="M 56.0625 209.878906 C 57.816406 209.0625 60.03125 206.074219 59.46875 201.980469 C 59.363281 201.40625 59.167969 200.824219 58.933594 200.390625 C 57.296875 197.335938 53.605469 198.671875 52.132812 202.855469 C 50.558594 207.304688 52.839844 211.375 56.0625 209.878906 " fill-opacity="1" fill-rule="nonzero"/><path fill="#5ce1e6" d="M 265.160156 146.921875 C 261.648438 150.164062 265.273438 155.6875 270.949219 155.742188 C 273.683594 155.769531 277.347656 154.160156 276.925781 150.5 C 276.089844 146.007812 268.613281 143.734375 265.160156 146.921875 " fill-opacity="1" fill-rule="nonzero"/><path fill="#5ce1e6" d="M 42.328125 199.90625 C 41.636719 203.722656 43.273438 206.015625 45.574219 204.453125 C 47.578125 203.09375 48.964844 199.398438 48.546875 196.546875 C 48.460938 196.085938 48.308594 195.3125 47.847656 194.730469 C 46.207031 192.671875 43.113281 195.574219 42.328125 199.90625 " fill-opacity="1" fill-rule="nonzero"/><path fill="#5ce1e6" d="M 289.777344 140.453125 C 288.78125 135.933594 281.253906 133.796875 278.382812 136.308594 C 275.722656 138.628906 278.375 143.5 283.808594 144.214844 C 286.996094 144.632812 290.1875 143.316406 289.777344 140.453125 " fill-opacity="1" fill-rule="nonzero"/><path fill="#5ce1e6" d="M 68.765625 217.683594 C 70.640625 217.046875 73.167969 214.460938 72.433594 209.945312 C 72.386719 209.726562 72.261719 209.257812 72.261719 209.253906 C 70.863281 204.652344 66.199219 205.175781 64.214844 208.988281 C 61.796875 213.632812 64.648438 219.078125 68.765625 217.683594 " fill-opacity="1" fill-rule="nonzero"/><path fill="#5ce1e6" d="M 302.34375 133.867188 C 301.902344 130.402344 294.832031 126.988281 291.839844 128.796875 C 289.339844 130.308594 291.496094 134.546875 296.425781 135.945312 C 298.886719 136.648438 302.496094 136.671875 302.34375 133.867188 " fill-opacity="1" fill-rule="nonzero"/><path fill="#5ce1e6" d="M 263.761719 163.726562 C 262.253906 157.953125 254.601562 157.644531 251.730469 160.972656 C 248.761719 164.417969 251.734375 170.339844 257.636719 170.0625 C 261.660156 169.875 264.40625 167.03125 263.761719 163.726562 " fill-opacity="1" fill-rule="nonzero"/><path fill="#5ce1e6" d="M 35.0625 200.542969 C 35.199219 202.714844 36.210938 203.144531 37.515625 201.589844 C 38.886719 199.960938 40.109375 196.667969 39.78125 193.976562 C 39.714844 193.5625 39.601562 192.871094 39.238281 192.484375 C 37.734375 190.882812 34.808594 196.53125 35.0625 200.542969 " fill-opacity="1" fill-rule="nonzero"/><path fill="#5ce1e6" d="M 30.265625 202.789062 C 30.5 203.566406 31.0625 203.152344 31.730469 201.707031 C 32.441406 200.167969 33.445312 196.949219 33.28125 194.402344 C 33.242188 194.011719 33.148438 193.511719 32.910156 193.355469 C 31.753906 192.597656 29.554688 200.445312 30.265625 202.789062 " fill-opacity="1" fill-rule="nonzero"/><path fill="#5ce1e6" d="M 316.699219 113.710938 C 315.441406 113.988281 317.316406 116.816406 320.550781 119.527344 C 323.09375 121.664062 325.882812 123.230469 325.972656 122.164062 C 325.75 119.660156 318.730469 113.261719 316.699219 113.710938 " fill-opacity="1" fill-rule="nonzero"/><path fill="#5ce1e6" d="M 28.839844 186.285156 C 28.84375 185.988281 28.84375 185.988281 28.78125 185.917969 C 28.296875 186.6875 26.976562 196.613281 27.265625 197.339844 C 27.332031 197.082031 27.382812 196.742188 27.785156 194.101562 C 28.421875 189.929688 28.769531 187.632812 28.839844 186.285156 " fill-opacity="1" fill-rule="nonzero"/><path fill="#5ce1e6" d="M 309.007812 131.367188 C 311.707031 132.578125 314.625 132.699219 314.488281 130.929688 C 313.917969 127.800781 307.378906 123.894531 304.773438 125.125 C 302.664062 126.121094 305 129.5625 309.007812 131.367188 " fill-opacity="1" fill-rule="nonzero"/><path fill="#5ce1e6" d="M 319.472656 98.992188 C 318.609375 98.835938 320.117188 101.15625 322.96875 104.390625 C 323.015625 104.445312 327.777344 109.78125 328.410156 109.398438 C 328.675781 107.964844 321.238281 99.308594 319.472656 98.992188 " fill-opacity="1" fill-rule="nonzero"/><path fill="#5ce1e6" d="M 169.152344 215.140625 C 167.125 208.410156 159.347656 208.683594 156.152344 212.65625 C 152.417969 217.300781 155.847656 224.957031 162.832031 223.96875 C 167.355469 223.328125 170.191406 219.367188 169.152344 215.140625 " fill-opacity="1" fill-rule="nonzero"/><path fill="#5ce1e6" d="M 326.796875 114.488281 C 326.835938 112.417969 319.359375 104.550781 317.492188 104.699219 C 316.523438 104.773438 317.746094 107.09375 321.414062 110.703125 C 321.613281 110.898438 326.296875 115.5 326.796875 114.488281 " fill-opacity="1" fill-rule="nonzero"/><path fill="#5ce1e6" d="M 134.875 223.746094 C 133.339844 217.695312 126.1875 216.980469 123.160156 221.261719 C 119.773438 226.042969 123.804688 232.964844 129.503906 232.148438 C 132.15625 231.769531 135.957031 229.152344 134.875 223.746094 " fill-opacity="1" fill-rule="nonzero"/><path fill="#5ce1e6" d="M 312.078125 82.332031 C 312.109375 82.347656 312.15625 82.34375 312.1875 82.347656 C 311.753906 81.375 302.492188 73.546875 301.757812 73.527344 C 301.894531 73.75 302.511719 74.332031 305.5 76.898438 C 310.394531 81.097656 311.519531 81.996094 312.078125 82.332031 " fill-opacity="1" fill-rule="nonzero"/><path fill="#5ce1e6" d="M 204.09375 206.40625 C 202.03125 199.625 193.941406 200.1875 191.039062 204.558594 C 187.679688 209.613281 191.957031 215.910156 198.082031 214.925781 C 202.300781 214.246094 205.054688 210.347656 204.09375 206.40625 " fill-opacity="1" fill-rule="nonzero"/><path fill="#5ce1e6" d="M 250.660156 179.742188 C 249.039062 174.078125 241.539062 173.597656 238.539062 177.730469 C 235.402344 182.054688 239.402344 187.710938 245.023438 186.898438 C 247.597656 186.527344 251.410156 184.257812 250.660156 179.742188 " fill-opacity="1" fill-rule="nonzero"/><path fill="#5ce1e6" d="M 83.324219 227.539062 C 85.882812 227.019531 88.1875 224.175781 87.414062 219.933594 C 86.199219 214.710938 81.015625 214.160156 78.546875 217.738281 C 75.5625 222.070312 78.6875 228.480469 83.324219 227.539062 " fill-opacity="1" fill-rule="nonzero"/><path fill="#5ce1e6" d="M 315.667969 88.027344 C 315.71875 88.078125 320.691406 93.246094 321.5625 93.585938 C 321.566406 93.585938 321.566406 93.585938 321.566406 93.585938 C 321.566406 93.585938 321.566406 93.585938 321.613281 93.570312 C 321.65625 92.460938 313.074219 83.65625 312.148438 83.859375 C 312.113281 84.253906 314.339844 86.640625 315.667969 88.027344 " fill-opacity="1" fill-rule="nonzero"/><path fill="#5ce1e6" d="M 225.738281 196.628906 C 222.554688 201.492188 227.132812 206.550781 232.210938 205.636719 C 234.851562 205.160156 238.378906 202.433594 237.558594 198.089844 C 236.359375 193.371094 228.972656 191.6875 225.738281 196.628906 " fill-opacity="1" fill-rule="nonzero"/><path fill="#5ce1e6" d="M 99.972656 238.820312 C 102.636719 238.46875 105.011719 235.578125 104.203125 231.523438 C 103.097656 227.148438 97.804688 224.910156 94.863281 228.839844 C 91.484375 233.359375 95.410156 239.421875 99.972656 238.820312 " fill-opacity="1" fill-rule="nonzero"/><path fill="#5ce1e6" d="M 28.988281 198.074219 C 28.949219 197.644531 28.914062 197.523438 28.804688 197.488281 C 28.003906 197.890625 27.132812 205.894531 27.523438 206.921875 C 27.542969 206.925781 27.570312 206.929688 27.59375 206.933594 C 27.652344 206.851562 27.816406 206.628906 28.203125 204.671875 C 28.347656 203.945312 29.066406 200.199219 28.988281 198.074219 " fill-opacity="1" fill-rule="nonzero"/><path fill="#5ce1e6" d="M 317.484375 125.085938 C 315.859375 125.363281 317.308594 128.09375 321.015625 130.507812 C 323.375 132.042969 325.894531 132.902344 325.851562 131.621094 C 325.5 129.300781 319.632812 124.71875 317.484375 125.085938 " fill-opacity="1" fill-rule="nonzero"/><path fill="#5ce1e6" d="M 325.492188 101.214844 C 327.101562 103.203125 329.890625 106.566406 330.515625 106.71875 C 331.0625 106.105469 323.675781 96.957031 322.527344 96.828125 C 322.449219 96.90625 322.207031 97.148438 325.492188 101.214844 " fill-opacity="1" fill-rule="nonzero"/><path fill="#5ce1e6" d="M 283.25 159.089844 C 280.875 161.5625 283.234375 165.90625 287.9375 165.777344 C 289.769531 165.730469 293.113281 164.757812 292.640625 161.445312 C 291.835938 157.644531 285.632812 156.609375 283.25 159.089844 " fill-opacity="1" fill-rule="nonzero"/><path fill="#5ce1e6" d="M 52.113281 219.894531 C 52.054688 219.648438 51.976562 219.320312 51.890625 219.082031 C 50.824219 216.109375 48.085938 216.769531 46.894531 219.414062 C 45.527344 222.445312 46.957031 226.742188 49.667969 225.757812 C 50.960938 225.289062 52.679688 223.339844 52.113281 219.894531 " fill-opacity="1" fill-rule="nonzero"/><path fill="#5ce1e6" d="M 299.667969 154.683594 C 302.269531 154.953125 304.734375 153.882812 304.359375 151.621094 C 303.507812 148.121094 297.695312 146.636719 295.425781 148.625 C 293.292969 150.488281 295.359375 154.238281 299.667969 154.683594 " fill-opacity="1" fill-rule="nonzero"/><path fill="#5ce1e6" d="M 38.167969 215.957031 C 37.648438 218.785156 38.703125 221.289062 40.539062 220.078125 C 42.03125 219.09375 42.886719 216.523438 42.484375 214.226562 C 42.40625 213.855469 42.273438 213.234375 41.933594 212.753906 C 40.804688 211.167969 38.730469 212.933594 38.167969 215.957031 " fill-opacity="1" fill-rule="nonzero"/><path fill="#5ce1e6" d="M 61.277344 233.84375 C 62.730469 233.488281 64.640625 231.644531 63.960938 228.011719 C 62.820312 223.707031 59.269531 223.929688 57.777344 226.496094 C 55.808594 229.890625 58.066406 234.625 61.277344 233.84375 " fill-opacity="1" fill-rule="nonzero"/><path fill="#5ce1e6" d="M 190.277344 227.652344 C 188.636719 221.761719 181.367188 222.039062 178.621094 225.726562 C 175.515625 229.902344 179.011719 236.597656 185.128906 235.421875 C 187.414062 234.984375 191.421875 232.796875 190.277344 227.652344 " fill-opacity="1" fill-rule="nonzero"/><path fill="#5ce1e6" d="M 336.695312 129.394531 C 336.597656 127.613281 330.730469 120.699219 329.308594 120.691406 C 328.59375 120.6875 329.53125 122.558594 332.339844 125.699219 C 332.382812 125.742188 336.394531 130.210938 336.695312 129.394531 " fill-opacity="1" fill-rule="nonzero"/><path fill="#5ce1e6" d="M 330.390625 114.769531 C 329.796875 114.710938 330.957031 116.707031 333.289062 119.738281 C 333.660156 120.222656 336.945312 124.472656 337.601562 124.53125 C 337.613281 124.515625 337.632812 124.5 337.644531 124.484375 C 337.730469 123.144531 331.558594 114.878906 330.390625 114.769531 " fill-opacity="1" fill-rule="nonzero"/><path fill="#5ce1e6" d="M 143.976562 234.320312 C 141.035156 238.339844 144.28125 245.011719 150.144531 244.179688 C 152.414062 243.855469 156.394531 241.855469 155.214844 236.578125 C 153.117188 230.164062 146.308594 231.140625 143.976562 234.320312 " fill-opacity="1" fill-rule="nonzero"/><path fill="#5ce1e6" d="M 271.039062 172.769531 C 268.367188 176.015625 271.554688 180.445312 276.128906 179.84375 C 278.195312 179.574219 281.265625 177.882812 280.699219 174.5 C 279.8125 170.671875 273.671875 169.570312 271.039062 172.769531 " fill-opacity="1" fill-rule="nonzero"/><path fill="#5ce1e6" d="M 118.582031 250.941406 C 121.515625 250.53125 123.429688 247.304688 122.59375 244.167969 C 121.082031 239.515625 115.761719 238.015625 113.105469 241.496094 C 109.863281 245.746094 114.066406 251.570312 118.582031 250.941406 " fill-opacity="1" fill-rule="nonzero"/><path fill="#5ce1e6" d="M 32.191406 216.527344 C 32.421875 217.875 33.125 218.058594 33.902344 216.972656 C 34.539062 216.082031 35.441406 213.773438 35.148438 211.386719 C 35.027344 210.605469 34.789062 210.277344 34.609375 210.140625 C 33.40625 209.207031 31.710938 213.683594 32.191406 216.527344 " fill-opacity="1" fill-rule="nonzero"/><path fill="#5ce1e6" d="M 307.566406 141.546875 C 305.457031 142.769531 307.542969 145.949219 311.113281 146.941406 C 313.484375 147.601562 315.960938 147.089844 315.722656 145.292969 C 315.089844 142.566406 309.910156 140.1875 307.566406 141.546875 " fill-opacity="1" fill-rule="nonzero"/><path fill="#5ce1e6" d="M 77.941406 238.238281 C 76.871094 234.648438 73.335938 233.246094 71.304688 235.605469 C 68.441406 238.921875 71.253906 244.230469 74.777344 243.984375 C 77.039062 243.828125 78.605469 240.980469 77.941406 238.238281 " fill-opacity="1" fill-rule="nonzero"/><path fill="#5ce1e6" d="M 258.132812 193 C 258.132812 193 258.132812 193 258.132812 193.003906 C 258.132812 193.003906 258.132812 193.003906 258.132812 193.007812 C 258.132812 193.007812 258.132812 193.011719 258.132812 193.011719 C 258.132812 193.011719 258.132812 193.015625 258.132812 193.015625 C 258.132812 193.015625 258.136719 193.015625 258.136719 193.015625 C 259.125 196.070312 262.207031 196.757812 264.03125 196.472656 C 267.046875 196.003906 269.289062 193.050781 268.648438 190.394531 C 268.480469 189.855469 268.121094 188.738281 266.671875 187.808594 C 262.640625 185.222656 257.292969 188.476562 258.132812 193 " fill-opacity="1" fill-rule="nonzero"/><path fill="#5ce1e6" d="M 213.707031 216.605469 C 210.167969 221.300781 214.46875 226.515625 219.484375 225.585938 C 222.480469 225.035156 225.226562 222.066406 224.441406 218.234375 C 222.90625 213.59375 216.6875 212.652344 213.707031 216.605469 " fill-opacity="1" fill-rule="nonzero"/><path fill="#5ce1e6" d="M 332.324219 111.625 C 332.191406 112.046875 334.152344 114.980469 335 116.222656 C 335.039062 116.277344 338.5625 121.417969 339.113281 121.558594 C 339.355469 120.566406 333.203125 111.558594 332.324219 111.625 " fill-opacity="1" fill-rule="nonzero"/><path fill="#5ce1e6" d="M 326.519531 142.65625 C 326.066406 140.605469 321.304688 137.457031 319.179688 138.265625 C 317.296875 138.980469 319.730469 141.796875 322.683594 143.027344 C 324.589844 143.820312 326.636719 143.828125 326.519531 142.65625 " fill-opacity="1" fill-rule="nonzero"/><path fill="#5ce1e6" d="M 336.375 135.988281 C 336.339844 134.5625 330.964844 128.855469 329.226562 128.890625 C 328.113281 128.914062 329.992188 131.464844 332.289062 133.5625 C 333.648438 134.804688 336.242188 136.792969 336.375 135.988281 " fill-opacity="1" fill-rule="nonzero"/><path fill="#5ce1e6" d="M 29.480469 216.980469 C 29.933594 215.582031 30.320312 212.984375 30.148438 211.597656 C 30.109375 211.34375 30.042969 210.917969 29.835938 210.851562 C 28.898438 210.554688 28.175781 216.761719 28.695312 217.898438 C 28.90625 218.355469 29.238281 217.722656 29.480469 216.980469 " fill-opacity="1" fill-rule="nonzero"/><path fill="#5ce1e6" d="M 325.210938 95.183594 C 325.234375 95.195312 325.265625 95.210938 325.285156 95.222656 C 325.023438 94.628906 318.308594 87.300781 317.484375 86.917969 C 317.582031 87.054688 317.582031 87.054688 320.398438 90.082031 C 324.003906 93.953125 324.859375 94.875 325.210938 95.183594 " fill-opacity="1" fill-rule="nonzero"/><path fill="#5ce1e6" d="M 328.886719 101.257812 C 332.519531 106.023438 332.941406 106.382812 333.246094 106.644531 C 333.523438 106.136719 327.253906 97.945312 326.539062 97.878906 C 326.535156 97.960938 326.519531 98.148438 328.886719 101.257812 " fill-opacity="1" fill-rule="nonzero"/><path fill="#5ce1e6" d="M 340.601562 131.3125 C 340.351562 131.511719 341.042969 132.769531 343.066406 135.800781 C 343.496094 136.441406 345.65625 139.648438 346.0625 139.796875 C 346.070312 139.789062 346.078125 139.777344 346.089844 139.769531 C 346.167969 139.167969 341.632812 131.429688 340.601562 131.3125 " fill-opacity="1" fill-rule="nonzero"/><path fill="#5ce1e6" d="M 90.328125 255.386719 C 90.378906 255.390625 94.980469 255.148438 93.609375 250.0625 C 91.816406 244.199219 87.128906 246.738281 86.5625 247.292969 C 84.625 249.1875 85.65625 255.125 90.328125 255.386719 " fill-opacity="1" fill-rule="nonzero"/><path fill="#5ce1e6" d="M 336.4375 143.636719 C 336.128906 142.074219 331.742188 138.554688 330.347656 138.742188 C 329.289062 138.886719 330.4375 140.894531 332.917969 142.582031 C 333.519531 142.988281 336.507812 144.957031 336.4375 143.636719 " fill-opacity="1" fill-rule="nonzero"/><path fill="#5ce1e6" d="M 27.445312 219.84375 C 27.558594 217.234375 27.570312 216.0625 27.5 215.207031 C 27.457031 214.765625 27.429688 214.746094 27.378906 214.722656 C 27.042969 215.304688 27.128906 220.773438 27.324219 221.5625 C 27.359375 221.515625 27.375 221.492188 27.445312 219.84375 " fill-opacity="1" fill-rule="nonzero"/><path fill="#5ce1e6" d="M 133.21875 255 C 132.632812 255.78125 131.484375 257.929688 133.5 260.992188 C 134.160156 261.996094 135.707031 263.617188 138.625 263.203125 C 142.445312 262.65625 142.964844 259.582031 142.25 257.113281 C 140.5 252.136719 134.984375 252.648438 133.21875 255 " fill-opacity="1" fill-rule="nonzero"/><path fill="#5ce1e6" d="M 166.4375 247.289062 C 164.417969 249.730469 165.570312 256.535156 172.117188 255.851562 C 172.175781 255.847656 178.050781 254.976562 176.589844 249.257812 C 174.757812 243.152344 168.132812 245.246094 166.4375 247.289062 " fill-opacity="1" fill-rule="nonzero"/><path fill="#5ce1e6" d="M 201.535156 238.273438 C 201.214844 238.746094 199.714844 241.234375 201.679688 244.066406 C 202.539062 245.308594 204.144531 246.660156 206.925781 246.058594 C 210.539062 245.28125 212.175781 242.695312 211.207031 239.3125 C 209.425781 234.347656 203.449219 235.46875 201.535156 238.273438 " fill-opacity="1" fill-rule="nonzero"/><path fill="#5ce1e6" d="M 247.125 208.039062 C 245.476562 210.867188 247.003906 215.929688 252.082031 214.835938 C 254.714844 214.269531 257.019531 212.039062 256.335938 208.867188 C 254.9375 203.882812 248.792969 205.179688 247.125 208.039062 " fill-opacity="1" fill-rule="nonzero"/><path fill="#5ce1e6" d="M 340.839844 120.214844 C 340.851562 120.21875 340.863281 120.199219 340.875 120.191406 C 340.851562 119.375 336.554688 112.332031 335.277344 111.351562 C 335.335938 111.777344 335.902344 112.789062 337.527344 115.355469 C 339.832031 118.996094 340.574219 120.085938 340.839844 120.214844 " fill-opacity="1" fill-rule="nonzero"/><path fill="#5ce1e6" d="M 37.960938 229.371094 C 37.898438 229.097656 37.789062 228.640625 37.558594 228.308594 C 36.980469 227.484375 35.777344 227.765625 35.300781 229.847656 C 34.890625 231.625 35.546875 234.058594 36.882812 233.234375 C 37.703125 232.730469 38.355469 231.339844 37.960938 229.371094 " fill-opacity="1" fill-rule="nonzero"/><path fill="#5ce1e6" d="M 340.011719 136.585938 C 340.253906 137.253906 340.714844 138.164062 342.429688 140.308594 C 343.835938 142.0625 345.527344 144.070312 345.625 143.664062 C 345.625 143.660156 345.625 143.65625 345.625 143.65625 C 345.578125 142.777344 340.734375 135.839844 340.011719 136.585938 " fill-opacity="1" fill-rule="nonzero"/><path fill="#5ce1e6" d="M 341.667969 128 C 341.871094 128.742188 342.484375 129.929688 344.015625 132.542969 C 346.597656 136.949219 346.746094 137 346.886719 137.050781 L 346.890625 137.050781 C 346.980469 136.402344 342.691406 128.515625 341.667969 128 " fill-opacity="1" fill-rule="nonzero"/><path fill="#5ce1e6" d="M 46.199219 235.324219 C 46.171875 235.1875 46.132812 235.050781 46.089844 234.917969 C 45.546875 233.15625 43.746094 232.238281 42.652344 234.476562 C 41.6875 236.445312 42.851562 239.773438 44.734375 239.171875 C 45.082031 239.058594 46.792969 238.347656 46.199219 235.324219 " fill-opacity="1" fill-rule="nonzero"/><path fill="#5ce1e6" d="M 311.402344 159.140625 C 310.140625 160.117188 310.539062 163.046875 314.507812 163.386719 C 314.546875 163.386719 318.050781 163.367188 317.722656 161.039062 C 317.152344 158.382812 312.835938 158.03125 311.402344 159.140625 " fill-opacity="1" fill-rule="nonzero"/><path fill="#5ce1e6" d="M 300.4375 169.433594 C 300.425781 169.449219 299.1875 170.941406 300.175781 172.34375 C 300.527344 172.847656 301.472656 174.183594 303.679688 174.039062 C 303.84375 174.027344 307.769531 173.730469 307.25 170.6875 C 306.550781 167.710938 301.957031 167.636719 300.4375 169.433594 " fill-opacity="1" fill-rule="nonzero"/><path fill="#5ce1e6" d="M 56.679688 243.652344 C 55.847656 240.691406 53.527344 240.5625 52.453125 242.046875 C 51.25 243.714844 52.339844 247.808594 54.953125 247.46875 C 56.546875 247.261719 57.210938 245.800781 56.679688 243.652344 " fill-opacity="1" fill-rule="nonzero"/><path fill="#5ce1e6" d="M 235.613281 228.214844 C 234.160156 230.496094 235.125 235.5625 240.308594 234.6875 C 241.160156 234.542969 245.226562 232.9375 244.019531 228.761719 C 242.367188 223.945312 236.882812 226.222656 235.613281 228.214844 " fill-opacity="1" fill-rule="nonzero"/><path fill="#5ce1e6" d="M 111.1875 262.972656 C 109.550781 258.101562 105.347656 259.34375 104.367188 260.117188 C 102.054688 261.929688 103.476562 267.527344 108.09375 267.820312 C 108.808594 267.867188 112.410156 267.164062 111.1875 262.972656 " fill-opacity="1" fill-rule="nonzero"/><path fill="#5ce1e6" d="M 333.234375 104.730469 C 336.082031 108.601562 336.082031 108.601562 336.289062 108.839844 C 336.3125 108.863281 336.34375 108.894531 336.371094 108.90625 C 336.109375 108.289062 331.960938 102.71875 331.4375 102.285156 C 331.96875 103.148438 332.632812 103.914062 333.234375 104.730469 " fill-opacity="1" fill-rule="nonzero"/><path fill="#5ce1e6" d="M 347.878906 135.3125 C 348.042969 135.015625 344.582031 127.933594 343.660156 127.097656 C 343.589844 127.324219 344.125 128.410156 345.429688 130.917969 C 347.257812 134.429688 347.691406 135.210938 347.878906 135.3125 " fill-opacity="1" fill-rule="nonzero"/><path fill="#5ce1e6" d="M 30.625 229.238281 C 30.785156 230.410156 31.089844 230.640625 31.578125 229.96875 C 31.589844 229.957031 32.503906 228.484375 32.128906 226.378906 C 32.082031 226.125 31.972656 225.601562 31.753906 225.4375 C 31.210938 225.035156 30.332031 227.179688 30.625 229.238281 " fill-opacity="1" fill-rule="nonzero"/><path fill="#5ce1e6" d="M 324.75 156.113281 C 326.160156 156.367188 327.804688 156.367188 327.636719 154.921875 C 327.214844 152.722656 323.023438 151.851562 321.988281 152.648438 C 321.015625 153.402344 321.714844 155.566406 324.75 156.113281 " fill-opacity="1" fill-rule="nonzero"/><path fill="#5ce1e6" d="M 67.429688 257.796875 C 68.480469 257.757812 70.136719 257.25 69.410156 254.246094 C 68.0625 249.863281 65.019531 251.660156 64.65625 252.0625 C 63.335938 253.523438 64.550781 257.894531 67.429688 257.796875 " fill-opacity="1" fill-rule="nonzero"/><path fill="#5ce1e6" d="M 342.820312 146.425781 C 342.90625 146.511719 343.023438 146.625 343.113281 146.707031 C 345.203125 148.726562 345.4375 148.605469 345.429688 148.339844 C 345.269531 147.300781 341.550781 143.28125 340.699219 143.222656 C 340.3125 143.195312 340.3125 143.964844 342.820312 146.425781 " fill-opacity="1" fill-rule="nonzero"/><path fill="#5ce1e6" d="M 289.398438 182.945312 C 288.144531 184.839844 289.332031 188.4375 293.105469 187.65625 C 295.070312 187.25 296.964844 185.96875 296.386719 183.589844 C 295.304688 179.976562 290.535156 181.222656 289.398438 182.945312 " fill-opacity="1" fill-rule="nonzero"/><path fill="#5ce1e6" d="M 278.519531 199.1875 C 277.191406 201.453125 278.835938 204.898438 282.320312 203.863281 C 283.734375 203.441406 286.011719 202.308594 285.359375 199.449219 C 284.335938 195.757812 279.609375 197.332031 278.519531 199.1875 " fill-opacity="1" fill-rule="nonzero"/><path fill="#5ce1e6" d="M 190.25 259.730469 C 188.390625 261.765625 189.007812 266.964844 194.855469 266.515625 C 196.503906 266.386719 197.847656 264.390625 197.859375 264.367188 C 198.660156 263.085938 198.328125 261.878906 198.148438 261.226562 C 196.675781 256.746094 191.824219 258.011719 190.25 259.730469 " fill-opacity="1" fill-rule="nonzero"/><path fill="#5ce1e6" d="M 28.804688 226.4375 C 28.777344 226.261719 28.710938 225.890625 28.617188 225.898438 C 28.480469 225.910156 28.332031 226.765625 28.320312 228.121094 C 28.316406 228.789062 28.410156 230.347656 28.582031 230.421875 C 28.625 230.382812 28.660156 230.308594 28.746094 229.785156 C 28.746094 229.765625 29.023438 227.886719 28.804688 226.4375 " fill-opacity="1" fill-rule="nonzero"/><path fill="#5ce1e6" d="M 332.335938 149.757812 C 332.082031 149.851562 331.546875 150.152344 332.152344 150.96875 C 332.488281 151.425781 333.097656 152.09375 334.476562 152.648438 C 335.46875 153.046875 337.113281 153.566406 337.039062 152.539062 C 336.820312 151.171875 333.429688 149.371094 332.335938 149.757812 " fill-opacity="1" fill-rule="nonzero"/><path fill="#5ce1e6" d="M 155.300781 268.582031 C 154.515625 269.703125 154.480469 271.929688 155.023438 272.714844 C 155.535156 273.445312 157.085938 275.671875 159.925781 275.214844 C 162.210938 274.847656 164.097656 273.164062 163.15625 270.222656 C 161.445312 265.574219 156.464844 266.914062 155.300781 268.582031 " fill-opacity="1" fill-rule="nonzero"/><path fill="#5ce1e6" d="M 340.460938 116.660156 C 340.480469 116.695312 342.617188 120.359375 343.003906 120.769531 C 343.015625 120.765625 343.03125 120.769531 343.042969 120.769531 C 342.9375 120.167969 339.730469 114.625 338.964844 113.890625 C 338.953125 113.894531 338.9375 113.898438 338.929688 113.898438 C 338.992188 114.132812 339.378906 114.800781 340.460938 116.660156 " fill-opacity="1" fill-rule="nonzero"/><path fill="#5ce1e6" d="M 130.183594 276.492188 C 129.046875 273.035156 125.476562 272.714844 123.839844 274.347656 C 122.015625 276.164062 123.964844 280.488281 127.3125 280.429688 C 127.976562 280.417969 131.230469 280.171875 130.183594 276.492188 " fill-opacity="1" fill-rule="nonzero"/><path fill="#5ce1e6" d="M 82.132812 269.566406 C 82.992188 269.574219 84.90625 269.28125 84.152344 266.40625 C 83.140625 263.054688 80.289062 263.136719 79.304688 264.074219 C 77.804688 265.5 79.449219 269.542969 82.132812 269.566406 " fill-opacity="1" fill-rule="nonzero"/><path fill="#5ce1e6" d="M 224.609375 249.703125 C 223.113281 252.0625 224.949219 256.136719 228.652344 255.109375 C 229.609375 254.84375 232.65625 253.707031 231.683594 250.21875 C 230.378906 246.285156 225.84375 247.757812 224.609375 249.703125 " fill-opacity="1" fill-rule="nonzero"/><path fill="#5ce1e6" d="M 267.9375 217.59375 C 266.859375 219.292969 267.535156 222.984375 271.292969 222.09375 C 271.332031 222.082031 275.070312 221.035156 274.097656 217.703125 C 272.839844 214.039062 268.769531 216.28125 267.9375 217.59375 " fill-opacity="1" fill-rule="nonzero"/><path fill="#5ce1e6" d="M 343.449219 153.019531 C 343.664062 153.175781 345.546875 154.542969 345.546875 153.875 C 345.34375 152.894531 342.519531 150.828125 341.894531 150.863281 C 341.882812 150.863281 340.914062 151.152344 343.449219 153.019531 " fill-opacity="1" fill-rule="nonzero"/><path fill="#5ce1e6" d="M 34.828125 241.621094 C 34.804688 241.519531 34.777344 241.414062 34.742188 241.3125 C 34.425781 240.378906 33.941406 240.609375 33.710938 241.066406 C 33.339844 241.804688 33.644531 243.632812 34.441406 243.375 C 34.445312 243.371094 35.105469 242.980469 34.828125 241.621094 " fill-opacity="1" fill-rule="nonzero"/><path fill="#5ce1e6" d="M 100.597656 279.46875 C 99.945312 277.683594 97.730469 276.425781 96.359375 277.585938 C 94.964844 278.761719 96.265625 281.945312 98.769531 282.175781 C 100.679688 282.351562 101.066406 280.945312 100.597656 279.46875 " fill-opacity="1" fill-rule="nonzero"/><path fill="#5ce1e6" d="M 257.515625 238.054688 C 256.445312 240.210938 258.144531 242.628906 260.761719 241.621094 C 262.464844 240.964844 263.269531 239.457031 262.757812 237.863281 C 261.667969 234.964844 258.292969 236.488281 257.515625 238.054688 " fill-opacity="1" fill-rule="nonzero"/><path fill="#5ce1e6" d="M 41.476562 247.785156 C 41.128906 246.40625 40.261719 246.183594 39.816406 246.640625 C 39.042969 247.433594 39.726562 249.621094 40.726562 249.566406 C 41.148438 249.542969 41.777344 249.144531 41.476562 247.785156 " fill-opacity="1" fill-rule="nonzero"/><path fill="#5ce1e6" d="M 179.136719 281.757812 C 178.128906 283.109375 179.28125 286.292969 182.203125 285.828125 C 183.664062 285.59375 185.253906 284.835938 184.546875 282.554688 C 183.488281 279.585938 180.089844 280.484375 179.136719 281.757812 " fill-opacity="1" fill-rule="nonzero"/><path fill="#5ce1e6" d="M 150.257812 289.832031 C 149.242188 286.976562 146.121094 287.636719 145.417969 288.605469 C 145.410156 288.617188 144.578125 289.855469 145.703125 291.378906 C 145.957031 291.71875 146.722656 292.757812 148.367188 292.597656 C 149.367188 292.5 150.9375 292.011719 150.257812 289.832031 " fill-opacity="1" fill-rule="nonzero"/><path fill="#5ce1e6" d="M 50.457031 256.347656 C 49.820312 254.222656 48.386719 255.050781 48.375 255.0625 C 47.6875 255.609375 48.210938 257.957031 49.605469 258.085938 C 50.011719 258.121094 50.90625 258.027344 50.457031 256.347656 " fill-opacity="1" fill-rule="nonzero"/><path fill="#5ce1e6" d="M 306.8125 190.785156 C 306.277344 191.726562 306.816406 193.695312 308.867188 193.039062 C 309.523438 192.828125 311 192.179688 310.597656 190.667969 C 309.933594 188.617188 307.328125 189.878906 306.8125 190.785156 " fill-opacity="1" fill-rule="nonzero"/><path fill="#5ce1e6" d="M 30.636719 239.921875 C 30.722656 239.746094 30.898438 239.234375 30.714844 238.335938 C 30.6875 238.191406 30.621094 237.894531 30.519531 237.839844 C 30.265625 237.703125 30.113281 239.074219 30.378906 239.847656 C 30.460938 240.089844 30.542969 240.113281 30.636719 239.921875 " fill-opacity="1" fill-rule="nonzero"/><path fill="#5ce1e6" d="M 316.546875 177.507812 C 315.976562 178.183594 316.039062 180.046875 318.28125 179.78125 C 318.304688 179.777344 320.503906 179.410156 320.109375 177.765625 C 319.621094 176.15625 317.210938 176.726562 316.546875 177.507812 " fill-opacity="1" fill-rule="nonzero"/><path fill="#5ce1e6" d="M 336.3125 162.980469 C 336.832031 163.0625 338.027344 163.167969 337.914062 162.367188 C 337.691406 161.335938 335.582031 161.089844 335.113281 161.492188 C 334.679688 161.863281 334.953125 162.765625 336.3125 162.980469 " fill-opacity="1" fill-rule="nonzero"/><path fill="#5ce1e6" d="M 325.957031 167.746094 C 325.785156 167.949219 325.445312 168.492188 326.019531 169.125 C 326.261719 169.394531 326.746094 169.699219 327.660156 169.628906 C 328.105469 169.59375 329.527344 169.390625 329.285156 168.277344 C 328.875 166.828125 326.492188 167.109375 325.957031 167.746094 " fill-opacity="1" fill-rule="nonzero"/><path fill="#5ce1e6" d="M 213.992188 271.773438 C 213.300781 272.9375 213.839844 276.070312 217.050781 275.378906 C 217.078125 275.371094 219.8125 274.65625 219.03125 272.105469 C 217.992188 269.199219 214.699219 270.582031 213.992188 271.773438 " fill-opacity="1" fill-rule="nonzero"/><path fill="#5ce1e6" d="M 297.214844 206.964844 C 296.792969 208.078125 297.121094 208.375 297.539062 208.75 C 297.746094 208.9375 298.335938 209.324219 299.355469 208.898438 C 300.476562 208.429688 301.0625 207.410156 300.773438 206.414062 C 300.757812 206.367188 300.738281 206.300781 300.71875 206.257812 C 300.15625 204.933594 297.796875 205.410156 297.214844 206.964844 " fill-opacity="1" fill-rule="nonzero"/><path fill="#5ce1e6" d="M 61.890625 267.222656 C 61.441406 265.738281 60.214844 265.277344 59.605469 265.695312 C 59.027344 266.089844 59.320312 267.265625 59.328125 267.28125 C 59.332031 267.289062 59.988281 268.527344 60.828125 268.703125 C 61.226562 268.789062 62.277344 268.699219 61.890625 267.222656 " fill-opacity="1" fill-rule="nonzero"/><path fill="#5ce1e6" d="M 75.34375 279.558594 C 74.808594 278.046875 73.519531 278.152344 73.25 278.351562 C 72.683594 278.773438 73.210938 280.480469 74.414062 280.742188 C 74.652344 280.789062 75.792969 280.96875 75.34375 279.558594 " fill-opacity="1" fill-rule="nonzero"/><g clip-path="url(#fafc386a45)"><path fill="#5ce1e6" d="M 118.613281 293.246094 C 118.066406 291.710938 116.234375 291.394531 115.476562 292.078125 C 114.636719 292.839844 115.710938 295.011719 117.3125 295.082031 C 118.03125 295.113281 119.152344 294.914062 118.613281 293.246094 " fill-opacity="1" fill-rule="nonzero"/></g><path fill="#5ce1e6" d="M 247.546875 259.535156 C 246.996094 260.632812 247.867188 262.625 249.726562 261.902344 C 250.445312 261.621094 251.585938 260.9375 251.136719 259.476562 C 250.371094 257.335938 248.019531 258.589844 247.546875 259.535156 " fill-opacity="1" fill-rule="nonzero"/><path fill="#5ce1e6" d="M 287.914062 225.269531 C 287.886719 225.347656 287.625 226.050781 288.082031 226.523438 C 288.449219 226.910156 288.886719 227 289.382812 226.796875 C 289.398438 226.792969 290.882812 226.167969 290.535156 224.890625 C 290.515625 224.828125 290.492188 224.765625 290.464844 224.707031 C 289.902344 223.511719 288.269531 224.375 287.914062 225.269531 " fill-opacity="1" fill-rule="nonzero"/><g fill="#5ce1e6" fill-opacity="1"><g transform="translate(71.290027, 329.004672)"><g><path d="M 21.765625 -21.28125 L 21.765625 0 L 17.8125 0 L 17.8125 -9.125 L 6.8125 -9.125 L 6.8125 0 L 2.859375 0 L 2.859375 -21.28125 L 6.8125 -21.28125 L 6.8125 -12.484375 L 17.8125 -12.484375 L 17.8125 -21.28125 Z M 21.765625 -21.28125 "/></g></g></g><g fill="#5ce1e6" fill-opacity="1"><g transform="translate(95.895353, 329.004672)"><g><path d="M 16.65625 -4.921875 L 6.015625 -4.921875 L 3.921875 0 L -0.15625 0 L 9.421875 -21.28125 L 13.3125 -21.28125 L 22.921875 0 L 18.78125 0 Z M 15.34375 -8.015625 L 11.328125 -17.328125 L 7.359375 -8.015625 Z M 15.34375 -8.015625 "/></g></g></g><g fill="#5ce1e6" fill-opacity="1"><g transform="translate(118.647694, 329.004672)"><g><path d="M 16.78125 0 L 12.4375 -6.234375 C 12.25 -6.210938 11.972656 -6.203125 11.609375 -6.203125 L 6.8125 -6.203125 L 6.8125 0 L 2.859375 0 L 2.859375 -21.28125 L 11.609375 -21.28125 C 13.453125 -21.28125 15.054688 -20.972656 16.421875 -20.359375 C 17.796875 -19.753906 18.847656 -18.882812 19.578125 -17.75 C 20.304688 -16.613281 20.671875 -15.265625 20.671875 -13.703125 C 20.671875 -12.109375 20.28125 -10.734375 19.5 -9.578125 C 18.71875 -8.421875 17.597656 -7.554688 16.140625 -6.984375 L 21.03125 0 Z M 16.6875 -13.703125 C 16.6875 -15.066406 16.238281 -16.113281 15.34375 -16.84375 C 14.457031 -17.570312 13.148438 -17.9375 11.421875 -17.9375 L 6.8125 -17.9375 L 6.8125 -9.453125 L 11.421875 -9.453125 C 13.148438 -9.453125 14.457031 -9.820312 15.34375 -10.5625 C 16.238281 -11.300781 16.6875 -12.347656 16.6875 -13.703125 Z M 16.6875 -13.703125 "/></g></g></g><g fill="#5ce1e6" fill-opacity="1"><g transform="translate(140.85325, 329.004672)"><g><path d="M 11.609375 -21.28125 C 13.453125 -21.28125 15.054688 -20.972656 16.421875 -20.359375 C 17.796875 -19.753906 18.847656 -18.882812 19.578125 -17.75 C 20.304688 -16.613281 20.671875 -15.265625 20.671875 -13.703125 C 20.671875 -12.160156 20.304688 -10.816406 19.578125 -9.671875 C 18.847656 -8.535156 17.796875 -7.660156 16.421875 -7.046875 C 15.054688 -6.441406 13.453125 -6.140625 11.609375 -6.140625 L 6.8125 -6.140625 L 6.8125 0 L 2.859375 0 L 2.859375 -21.28125 Z M 11.421875 -9.484375 C 13.148438 -9.484375 14.457031 -9.847656 15.34375 -10.578125 C 16.238281 -11.304688 16.6875 -12.347656 16.6875 -13.703125 C 16.6875 -15.066406 16.238281 -16.113281 15.34375 -16.84375 C 14.457031 -17.570312 13.148438 -17.9375 11.421875 -17.9375 L 6.8125 -17.9375 L 6.8125 -9.484375 Z M 11.421875 -9.484375 "/></g></g></g><g fill="#5ce1e6" fill-opacity="1"><g transform="translate(162.906913, 329.004672)"><g><path d="M 2.859375 -21.28125 L 6.8125 -21.28125 L 6.8125 -3.34375 L 17.9375 -3.34375 L 17.9375 0 L 2.859375 0 Z M 2.859375 -21.28125 "/></g></g></g><g fill="#5ce1e6" fill-opacity="1"><g transform="translate(181.102712, 329.004672)"><g><path d="M 16.65625 -4.921875 L 6.015625 -4.921875 L 3.921875 0 L -0.15625 0 L 9.421875 -21.28125 L 13.3125 -21.28125 L 22.921875 0 L 18.78125 0 Z M 15.34375 -8.015625 L 11.328125 -17.328125 L 7.359375 -8.015625 Z M 15.34375 -8.015625 "/></g></g></g><g fill="#5ce1e6" fill-opacity="1"><g transform="translate(203.855052, 329.004672)"><g><path d="M 17.9375 -11.0625 C 19.101562 -10.675781 20.03125 -10.03125 20.71875 -9.125 C 21.414062 -8.226562 21.765625 -7.113281 21.765625 -5.78125 C 21.765625 -3.9375 21.050781 -2.507812 19.625 -1.5 C 18.207031 -0.5 16.144531 0 13.4375 0 L 2.859375 0 L 2.859375 -21.28125 L 12.828125 -21.28125 C 15.335938 -21.28125 17.269531 -20.785156 18.625 -19.796875 C 19.988281 -18.816406 20.671875 -17.46875 20.671875 -15.75 C 20.671875 -14.6875 20.425781 -13.75 19.9375 -12.9375 C 19.445312 -12.132812 18.78125 -11.507812 17.9375 -11.0625 Z M 6.8125 -18.171875 L 6.8125 -12.3125 L 12.40625 -12.3125 C 13.78125 -12.3125 14.835938 -12.554688 15.578125 -13.046875 C 16.316406 -13.546875 16.6875 -14.269531 16.6875 -15.21875 C 16.6875 -16.195312 16.316406 -16.929688 15.578125 -17.421875 C 14.835938 -17.921875 13.78125 -18.171875 12.40625 -18.171875 Z M 13.1875 -3.09375 C 16.25 -3.09375 17.78125 -4.117188 17.78125 -6.171875 C 17.78125 -8.210938 16.25 -9.234375 13.1875 -9.234375 L 6.8125 -9.234375 L 6.8125 -3.09375 Z M 13.1875 -3.09375 "/></g></g></g><g fill="#5ce1e6" fill-opacity="1"><g transform="translate(226.971917, 329.004672)"><g><path d="M 9.453125 0.296875 C 7.804688 0.296875 6.21875 0.0664062 4.6875 -0.390625 C 3.164062 -0.859375 1.957031 -1.476562 1.0625 -2.25 L 2.4375 -5.3125 C 3.300781 -4.625 4.363281 -4.0625 5.625 -3.625 C 6.894531 -3.195312 8.171875 -2.984375 9.453125 -2.984375 C 11.035156 -2.984375 12.210938 -3.234375 12.984375 -3.734375 C 13.765625 -4.242188 14.15625 -4.914062 14.15625 -5.75 C 14.15625 -6.351562 13.9375 -6.851562 13.5 -7.25 C 13.070312 -7.644531 12.519531 -7.953125 11.84375 -8.171875 C 11.175781 -8.398438 10.269531 -8.65625 9.125 -8.9375 C 7.5 -9.320312 6.179688 -9.707031 5.171875 -10.09375 C 4.171875 -10.476562 3.3125 -11.078125 2.59375 -11.890625 C 1.875 -12.710938 1.515625 -13.820312 1.515625 -15.21875 C 1.515625 -16.394531 1.832031 -17.460938 2.46875 -18.421875 C 3.113281 -19.390625 4.078125 -20.15625 5.359375 -20.71875 C 6.648438 -21.289062 8.226562 -21.578125 10.09375 -21.578125 C 11.382812 -21.578125 12.65625 -21.414062 13.90625 -21.09375 C 15.164062 -20.769531 16.253906 -20.300781 17.171875 -19.6875 L 15.921875 -16.625 C 14.992188 -17.164062 14.019531 -17.578125 13 -17.859375 C 11.988281 -18.148438 11.007812 -18.296875 10.0625 -18.296875 C 8.5 -18.296875 7.335938 -18.03125 6.578125 -17.5 C 5.816406 -16.976562 5.4375 -16.28125 5.4375 -15.40625 C 5.4375 -14.800781 5.65625 -14.304688 6.09375 -13.921875 C 6.53125 -13.535156 7.082031 -13.226562 7.75 -13 C 8.414062 -12.78125 9.328125 -12.53125 10.484375 -12.25 C 12.066406 -11.882812 13.363281 -11.503906 14.375 -11.109375 C 15.382812 -10.710938 16.25 -10.109375 16.96875 -9.296875 C 17.6875 -8.484375 18.046875 -7.390625 18.046875 -6.015625 C 18.046875 -4.835938 17.726562 -3.769531 17.09375 -2.8125 C 16.457031 -1.863281 15.488281 -1.109375 14.1875 -0.546875 C 12.894531 0.015625 11.316406 0.296875 9.453125 0.296875 Z M 9.453125 0.296875 "/></g></g></g><g fill="#5ce1e6" fill-opacity="1"><g transform="translate(246.079025, 329.004672)"><g><path d="M 11.609375 -21.28125 C 13.453125 -21.28125 15.054688 -20.972656 16.421875 -20.359375 C 17.796875 -19.753906 18.847656 -18.882812 19.578125 -17.75 C 20.304688 -16.613281 20.671875 -15.265625 20.671875 -13.703125 C 20.671875 -12.160156 20.304688 -10.816406 19.578125 -9.671875 C 18.847656 -8.535156 17.796875 -7.660156 16.421875 -7.046875 C 15.054688 -6.441406 13.453125 -6.140625 11.609375 -6.140625 L 6.8125 -6.140625 L 6.8125 0 L 2.859375 0 L 2.859375 -21.28125 Z M 11.421875 -9.484375 C 13.148438 -9.484375 14.457031 -9.847656 15.34375 -10.578125 C 16.238281 -11.304688 16.6875 -12.347656 16.6875 -13.703125 C 16.6875 -15.066406 16.238281 -16.113281 15.34375 -16.84375 C 14.457031 -17.570312 13.148438 -17.9375 11.421875 -17.9375 L 6.8125 -17.9375 L 6.8125 -9.484375 Z M 11.421875 -9.484375 "/></g></g></g><g fill="#5ce1e6" fill-opacity="1"><g transform="translate(268.132688, 329.004672)"><g><path d="M 16.65625 -4.921875 L 6.015625 -4.921875 L 3.921875 0 L -0.15625 0 L 9.421875 -21.28125 L 13.3125 -21.28125 L 22.921875 0 L 18.78125 0 Z M 15.34375 -8.015625 L 11.328125 -17.328125 L 7.359375 -8.015625 Z M 15.34375 -8.015625 "/></g></g></g><g fill="#5ce1e6" fill-opacity="1"><g transform="translate(290.885029, 329.004672)"><g><path d="M 12.03125 -7.5 L 12.03125 0 L 8.078125 0 L 8.078125 -7.453125 L -0.28125 -21.28125 L 3.953125 -21.28125 L 10.1875 -10.90625 L 16.46875 -21.28125 L 20.359375 -21.28125 Z M 12.03125 -7.5 "/></g></g></g></svg>
