<svg xmlns="http://www.w3.org/2000/svg" xmlns:xlink="http://www.w3.org/1999/xlink" width="500" zoomAndPan="magnify" viewBox="0 0 375 374.999991" height="500" preserveAspectRatio="xMidYMid meet" version="1.0"><defs><g/><clipPath id="f9a852160e"><path d="M 58.523438 138 L 61 138 L 61 156 L 58.523438 156 Z M 58.523438 138 " clip-rule="nonzero"/></clipPath><clipPath id="d897378794"><path d="M 174 288 L 184 288 L 184 289.5 L 174 289.5 Z M 174 288 " clip-rule="nonzero"/></clipPath><clipPath id="62f3a27c6b"><path d="M 184 287 L 192 287 L 192 289.5 L 184 289.5 Z M 184 287 " clip-rule="nonzero"/></clipPath><clipPath id="443cfea5f0"><path d="M 197 289 L 203 289 L 203 289.5 L 197 289.5 Z M 197 289 " clip-rule="nonzero"/></clipPath><clipPath id="4873a6205b"><path d="M 128 37.5 L 136 37.5 L 136 42 L 128 42 Z M 128 37.5 " clip-rule="nonzero"/></clipPath><clipPath id="9fb65b0bc9"><path d="M 257 217 L 260.273438 217 L 260.273438 221 L 257 221 Z M 257 217 " clip-rule="nonzero"/></clipPath></defs><path fill="#5ce1e6" d="M 102.871094 253.410156 C 100.539062 251.011719 96.460938 247.0625 94.78125 246.003906 C 94.691406 245.957031 94.554688 245.917969 94.453125 245.917969 C 94.480469 247.054688 105.082031 257.324219 106.269531 257.363281 C 106.242188 256.949219 104.40625 254.988281 102.871094 253.410156 " fill-opacity="1" fill-rule="nonzero"/><path fill="#5ce1e6" d="M 116.644531 263.355469 C 114.191406 261.265625 109.75 257.839844 107.558594 256.992188 C 107.394531 256.949219 107.152344 256.882812 107.066406 256.957031 C 106.644531 257.339844 109.429688 259.964844 112.296875 262.175781 C 115.972656 265.007812 119.324219 267.066406 119.925781 266.863281 C 120.125 266.417969 117.953125 264.476562 116.644531 263.355469 " fill-opacity="1" fill-rule="nonzero"/><path fill="#5ce1e6" d="M 70.8125 209.839844 C 70.757812 209.785156 70.664062 209.730469 70.585938 209.726562 C 70.566406 211.214844 77.648438 224.757812 78.484375 224.820312 C 78.492188 224.222656 77.078125 221.257812 76.234375 219.542969 C 74.757812 216.550781 71.984375 211.265625 70.8125 209.839844 " fill-opacity="1" fill-rule="nonzero"/><path fill="#5ce1e6" d="M 79.628906 224.371094 C 79.480469 224.300781 79.300781 224.214844 79.207031 224.308594 C 78.289062 225.246094 86.601562 237.535156 88.570312 238.152344 C 89.335938 238.390625 88.503906 236.347656 86.554688 233.191406 C 84.730469 230.238281 81.378906 225.546875 79.628906 224.371094 " fill-opacity="1" fill-rule="nonzero"/><path fill="#5ce1e6" d="M 98.988281 245.371094 C 96.976562 242.683594 93.09375 238.472656 90.765625 237.515625 C 90.574219 237.464844 90.308594 237.398438 90.15625 237.503906 C 88.554688 238.613281 97.925781 249.582031 100.824219 249.988281 C 101.890625 250.136719 101.136719 248.238281 98.988281 245.371094 " fill-opacity="1" fill-rule="nonzero"/><path fill="#5ce1e6" d="M 64.566406 194.042969 C 64.660156 194.332031 64.800781 194.761719 64.980469 195.285156 C 64.839844 194.863281 64.695312 194.4375 64.5625 194.03125 L 64.566406 194.042969 " fill-opacity="1" fill-rule="nonzero"/><path fill="#5ce1e6" d="M 74.882812 214.839844 C 75.996094 215.46875 75.800781 212.96875 74.429688 209.015625 C 73.242188 205.605469 70.78125 200.234375 69.015625 198.980469 C 68.910156 198.933594 68.757812 198.859375 68.648438 198.882812 C 66.804688 199.234375 72.339844 213.402344 74.882812 214.839844 " fill-opacity="1" fill-rule="nonzero"/><path fill="#5ce1e6" d="M 85.230469 228.746094 C 86.753906 229.25 86.644531 226.855469 84.976562 223.175781 C 83.535156 219.996094 80.410156 215.042969 77.976562 213.988281 C 77.765625 213.941406 77.480469 213.875 77.265625 214.007812 C 75.136719 215.34375 81.761719 227.601562 85.230469 228.746094 " fill-opacity="1" fill-rule="nonzero"/><path fill="#5ce1e6" d="M 97.390625 241.121094 C 99.605469 241.851562 99.777344 239.519531 97.769531 235.921875 C 95.875 232.523438 92.128906 228.398438 89.390625 227.660156 C 89.125 227.628906 88.761719 227.589844 88.484375 227.734375 C 85.863281 229.121094 92.855469 239.628906 97.390625 241.121094 " fill-opacity="1" fill-rule="nonzero"/><path fill="#5ce1e6" d="M 62.78125 182.871094 C 62.722656 182.820312 62.632812 182.757812 62.558594 182.734375 C 61.449219 183.429688 65.808594 199.316406 67.222656 199.738281 C 67.785156 199.386719 66.753906 194.917969 66.425781 193.554688 C 65.617188 190.214844 63.914062 184.359375 62.78125 182.871094 " fill-opacity="1" fill-rule="nonzero"/><path fill="#5ce1e6" d="M 73.929688 203.65625 C 75.726562 204.648438 76.378906 201.785156 75.386719 197.277344 C 74.597656 193.691406 72.40625 188.148438 70.007812 187.0625 C 69.847656 187.027344 69.625 186.980469 69.464844 187.015625 C 66.378906 187.691406 70.09375 201.53125 73.929688 203.65625 " fill-opacity="1" fill-rule="nonzero"/><path fill="#5ce1e6" d="M 84.027344 217.902344 C 86.589844 219.203125 87.597656 216.390625 86.1875 211.882812 C 85.117188 208.464844 82.207031 203.257812 79.09375 202.375 C 78.882812 202.351562 78.597656 202.324219 78.394531 202.375 C 74.742188 203.238281 79.164062 215.429688 84.027344 217.902344 " fill-opacity="1" fill-rule="nonzero"/><path fill="#5ce1e6" d="M 96.25 230.757812 C 99.621094 232.308594 101.035156 229.613281 99.214844 225.101562 C 97.925781 221.90625 94.460938 217.128906 90.792969 216.496094 C 90.460938 216.488281 90.003906 216.476562 89.59375 216.667969 C 86.175781 218.289062 90.902344 228.292969 96.25 230.757812 " fill-opacity="1" fill-rule="nonzero"/><path fill="#5ce1e6" d="M 66.070312 188.015625 C 67.335938 189.144531 67.914062 186.324219 67.359375 181.722656 C 66.921875 178.132812 65.554688 172.507812 63.871094 171.253906 C 63.761719 171.207031 63.597656 171.144531 63.480469 171.164062 C 61.195312 171.574219 63.347656 185.589844 66.070312 188.015625 " fill-opacity="1" fill-rule="nonzero"/><path fill="#5ce1e6" d="M 79.136719 184.59375 C 78.742188 180.980469 76.828125 175.488281 73.816406 174.605469 C 73.601562 174.582031 73.304688 174.5625 73.097656 174.609375 C 69.371094 175.480469 70.9375 187.730469 75.191406 190.996094 C 77.796875 192.996094 79.710938 189.882812 79.136719 184.59375 " fill-opacity="1" fill-rule="nonzero"/><path fill="#5ce1e6" d="M 89.972656 199.25 C 89.253906 195.640625 86.597656 190.253906 82.945312 189.59375 C 82.683594 189.589844 82.328125 189.585938 82.074219 189.652344 C 77.835938 190.742188 80.070312 202.019531 85.21875 205.53125 C 88.730469 207.925781 91.085938 204.8125 89.972656 199.25 " fill-opacity="1" fill-rule="nonzero"/><path fill="#5ce1e6" d="M 102.976562 212.875 C 102.011719 209.433594 98.785156 204.390625 94.636719 203.960938 C 94.339844 203.972656 93.941406 203.992188 93.660156 204.074219 C 89.011719 205.398438 92.058594 216.089844 97.949219 219.125 C 101.945312 221.183594 104.433594 218.089844 102.976562 212.875 " fill-opacity="1" fill-rule="nonzero"/><path fill="#5ce1e6" d="M 67.832031 175.792969 C 69.632812 177.34375 71.148438 174.367188 71.074219 169.425781 C 71.023438 165.832031 69.933594 160.292969 67.675781 159.234375 C 67.511719 159.199219 67.285156 159.160156 67.121094 159.195312 C 63.902344 159.863281 64.464844 172.894531 67.832031 175.792969 " fill-opacity="1" fill-rule="nonzero"/><path fill="#5ce1e6" d="M 85.359375 171.359375 C 85.285156 167.730469 83.625 162.324219 80.15625 161.675781 C 80.023438 161.671875 79.847656 161.660156 79.71875 161.667969 C 75.109375 161.996094 74.59375 173.050781 78.980469 177.4375 C 82.140625 180.597656 85.476562 177.414062 85.359375 171.359375 " fill-opacity="1" fill-rule="nonzero"/><path fill="#5ce1e6" d="M 95.953125 185.585938 C 95.5625 181.941406 93.195312 176.613281 89.148438 176.175781 C 89 176.183594 88.796875 176.179688 88.648438 176.195312 C 83.4375 176.820312 83.855469 187.960938 89.242188 192.089844 C 93.085938 195.039062 96.597656 191.632812 95.953125 185.585938 " fill-opacity="1" fill-rule="nonzero"/><path fill="#5ce1e6" d="M 108.78125 199.277344 C 108.109375 195.640625 105.125 190.421875 100.589844 190.203125 C 100.421875 190.21875 100.195312 190.226562 100.03125 190.253906 C 94.675781 191.097656 95.457031 201.441406 101.191406 205.625 C 105.828125 209.011719 109.945312 205.570312 108.78125 199.277344 " fill-opacity="1" fill-rule="nonzero"/><path fill="#5ce1e6" d="M 71.832031 162.773438 C 74.121094 165.417969 76.890625 162.359375 77.316406 156.710938 C 77.589844 153.132812 76.71875 147.714844 73.9375 146.867188 C 73.832031 146.859375 73.691406 146.832031 73.582031 146.835938 C 69.71875 146.902344 68.410156 158.816406 71.832031 162.773438 " fill-opacity="1" fill-rule="nonzero"/><path fill="#5ce1e6" d="M 85.28125 163.976562 C 88.539062 167.660156 92.921875 164.332031 93.238281 157.941406 C 93.414062 154.324219 91.972656 149.042969 88.214844 148.617188 C 82.585938 148.855469 81.410156 159.589844 85.28125 163.976562 " fill-opacity="1" fill-rule="nonzero"/><path fill="#5ce1e6" d="M 103.601562 171.679688 C 103.464844 168.023438 101.328125 162.777344 96.996094 162.554688 C 90.667969 163.105469 90.40625 173.972656 95.214844 178.179688 C 99.214844 181.683594 103.839844 178.097656 103.601562 171.679688 " fill-opacity="1" fill-rule="nonzero"/><path fill="#5ce1e6" d="M 106.839844 191.417969 C 111.632812 195.542969 116.957031 191.875 116.183594 184.980469 C 115.773438 181.3125 113.023438 176.140625 108.199219 176.125 C 101.640625 176.933594 101.683594 186.976562 106.839844 191.417969 " fill-opacity="1" fill-rule="nonzero"/><path fill="#5ce1e6" d="M 85.398438 143.890625 C 85.917969 140.347656 85.238281 135.078125 82.105469 134.460938 C 77.121094 134.398438 75.078125 145.894531 78.292969 149.890625 C 80.804688 153.019531 84.527344 149.878906 85.398438 143.890625 " fill-opacity="1" fill-rule="nonzero"/><path fill="#5ce1e6" d="M 126.046875 252.496094 C 129.976562 253.492188 131.535156 251.015625 129.382812 247.191406 C 127.859375 244.488281 123.773438 240.613281 119.460938 240.464844 C 118.871094 240.507812 118.265625 240.550781 117.675781 240.964844 C 114.339844 243.285156 119.894531 250.941406 126.046875 252.496094 " fill-opacity="1" fill-rule="nonzero"/><path fill="#5ce1e6" d="M 133.222656 236.011719 C 132 233.027344 128.121094 228.839844 123.320312 228.871094 C 122.875 228.921875 122.265625 228.992188 121.695312 229.265625 C 117.308594 231.335938 120.761719 239.304688 127.125 241.800781 C 132.023438 243.722656 135.160156 240.75 133.222656 236.011719 " fill-opacity="1" fill-rule="nonzero"/><path fill="#5ce1e6" d="M 139.027344 223.371094 C 138.066406 220.121094 134.363281 215.636719 129.148438 215.851562 C 128.957031 215.882812 128.703125 215.910156 128.511719 215.949219 C 122.773438 217.164062 123.828125 225.679688 130.175781 229.347656 C 135.800781 232.601562 140.761719 229.25 139.027344 223.371094 " fill-opacity="1" fill-rule="nonzero"/><path fill="#5ce1e6" d="M 136.609375 201.480469 C 136.40625 201.519531 136.132812 201.558594 135.929688 201.605469 C 129.730469 203.101562 130.082031 212.335938 136.484375 216.136719 C 142.113281 219.480469 147.792969 215.601562 146.445312 209.335938 C 145.691406 205.835938 142.140625 201.085938 136.609375 201.480469 " fill-opacity="1" fill-rule="nonzero"/><path fill="#5ce1e6" d="M 126.992188 261.507812 C 129.683594 261.855469 130.019531 259.820312 127.75 256.875 C 125.890625 254.460938 121.585938 250.914062 117.824219 250.589844 C 117.324219 250.601562 116.800781 250.613281 116.371094 250.945312 C 113.710938 253 121.554688 260.796875 126.992188 261.507812 " fill-opacity="1" fill-rule="nonzero"/><path fill="#5ce1e6" d="M 129.933594 268.894531 C 131.433594 268.859375 130.855469 267.3125 128.492188 265.050781 C 126.425781 263.074219 121.914062 259.75 118.59375 259.246094 C 118.179688 259.226562 117.753906 259.207031 117.488281 259.464844 C 115.738281 261.140625 126.089844 268.988281 129.933594 268.894531 " fill-opacity="1" fill-rule="nonzero"/><path fill="#5ce1e6" d="M 111.777344 231.347656 C 116.84375 233.835938 120.144531 230.554688 118.203125 224.960938 C 116.984375 221.457031 113.046875 216.433594 108.113281 216.230469 C 107.761719 216.261719 107.289062 216.304688 106.953125 216.40625 C 101.75 217.964844 104.996094 228.019531 111.777344 231.347656 " fill-opacity="1" fill-rule="nonzero"/><path fill="#5ce1e6" d="M 110.863281 242.738281 C 114.851562 244.097656 116.503906 241.242188 114.332031 236.75 C 112.777344 233.535156 108.601562 228.824219 104.191406 228.410156 C 103.789062 228.421875 103.234375 228.441406 102.746094 228.667969 C 98.554688 230.621094 104.242188 240.484375 110.863281 242.738281 " fill-opacity="1" fill-rule="nonzero"/><path fill="#5ce1e6" d="M 66.394531 154.136719 C 66.71875 150.292969 66.425781 144.304688 64.761719 143.019531 C 64.632812 142.972656 64.453125 142.914062 64.320312 142.9375 C 61.496094 143.425781 60.691406 158.421875 63.351562 160.96875 C 64.613281 162.171875 65.976562 159.109375 66.394531 154.136719 " fill-opacity="1" fill-rule="nonzero"/><path fill="#5ce1e6" d="M 60.792969 154.519531 C 60.722656 154.460938 60.613281 154.371094 60.523438 154.382812 C 58.828125 154.570312 59.59375 170.886719 61.386719 172.761719 C 62.148438 173.554688 62.648438 170.648438 62.554688 166 C 62.476562 162.128906 61.875 156.003906 60.792969 154.519531 " fill-opacity="1" fill-rule="nonzero"/><path fill="#5ce1e6" d="M 123.460938 211.742188 C 122.605469 208.269531 119.179688 203.375 114.238281 203.382812 C 113.878906 203.425781 113.398438 203.488281 113.058594 203.601562 C 107.839844 205.324219 109.414062 214.558594 115.53125 218.132812 C 120.613281 221.105469 124.910156 217.640625 123.460938 211.742188 " fill-opacity="1" fill-rule="nonzero"/><path fill="#5ce1e6" d="M 121.203125 203.980469 C 126.527344 207.769531 132.066406 203.914062 130.914062 197.21875 C 130.285156 193.558594 127.046875 188.492188 121.808594 188.6875 C 121.613281 188.714844 121.351562 188.746094 121.160156 188.789062 C 115.21875 190.085938 115.246094 199.742188 121.203125 203.980469 " fill-opacity="1" fill-rule="nonzero"/><path fill="#5ce1e6" d="M 111.625 251.96875 C 114.179688 252.507812 114.464844 250.332031 112.273438 247.019531 C 110.496094 244.332031 106.417969 240.296875 102.910156 239.734375 C 102.445312 239.71875 101.964844 239.699219 101.566406 240.027344 C 99.171875 242 106.691406 250.929688 111.625 251.96875 " fill-opacity="1" fill-rule="nonzero"/><path fill="#5ce1e6" d="M 114.714844 260.140625 C 116.050781 260.195312 115.398438 258.445312 113.132812 255.890625 C 110.996094 253.476562 106.707031 249.757812 103.859375 249.03125 C 103.484375 248.984375 103.128906 248.9375 102.925781 249.195312 C 101.574219 250.902344 111.378906 260.007812 114.714844 260.140625 " fill-opacity="1" fill-rule="nonzero"/><g clip-path="url(#f9a852160e)"><path fill="#5ce1e6" d="M 60.425781 139.117188 C 60.410156 139.082031 60.390625 139.035156 60.375 139 C 60.339844 138.996094 60.292969 138.996094 60.257812 138.992188 C 59.375 140.484375 58.519531 154.089844 59.210938 155.730469 C 59.246094 155.730469 59.289062 155.734375 59.324219 155.734375 C 59.710938 155.023438 60.039062 151.632812 60.195312 149.675781 C 60.464844 146.386719 60.761719 140.613281 60.425781 139.117188 " fill-opacity="1" fill-rule="nonzero"/></g><path fill="#5ce1e6" d="M 64.003906 138.40625 C 64.660156 134.945312 65.207031 129.5 64.371094 128.238281 C 64.304688 128.1875 64.199219 128.117188 64.117188 128.125 C 62.289062 128.328125 59.949219 142.878906 61.480469 144.511719 C 62.132812 145.207031 63.21875 142.582031 64.003906 138.40625 " fill-opacity="1" fill-rule="nonzero"/><path fill="#5ce1e6" d="M 70.183594 126.902344 C 71.15625 123.507812 71.945312 118.238281 70.660156 117.171875 C 70.601562 117.152344 70.53125 117.113281 70.472656 117.105469 C 67.957031 116.691406 64.230469 129.730469 65.992188 132.78125 C 66.902344 134.359375 68.824219 131.667969 70.183594 126.902344 " fill-opacity="1" fill-rule="nonzero"/><path fill="#5ce1e6" d="M 72.789062 121.011719 C 73.871094 122.984375 76.546875 120.234375 78.402344 115.238281 C 79.632812 111.925781 80.617188 106.871094 78.945312 106.007812 C 75.820312 105.453125 70.871094 117.511719 72.789062 121.011719 " fill-opacity="1" fill-rule="nonzero"/><path fill="#5ce1e6" d="M 72.339844 141.605469 C 72.964844 138.101562 72.9375 132.730469 70.921875 131.75 C 70.84375 131.734375 70.738281 131.703125 70.65625 131.699219 C 67.398438 131.527344 65.003906 144.019531 67.609375 147.613281 C 69.117188 149.699219 71.417969 146.777344 72.339844 141.605469 " fill-opacity="1" fill-rule="nonzero"/><path fill="#5ce1e6" d="M 74.324219 135.113281 C 76.050781 137.65625 79.242188 134.671875 80.644531 129.195312 C 81.523438 125.753906 81.671875 120.5625 79.242188 119.796875 C 74.902344 119.449219 71.875 131.511719 74.324219 135.113281 " fill-opacity="1" fill-rule="nonzero"/><path fill="#5ce1e6" d="M 102.984375 143.394531 C 103.351562 139.832031 102.089844 134.714844 98.144531 134.5 C 92.605469 135.003906 90.453125 144.890625 93.757812 149.292969 C 96.953125 153.550781 102.296875 150.132812 102.984375 143.394531 " fill-opacity="1" fill-rule="nonzero"/><path fill="#5ce1e6" d="M 113.121094 156.535156 C 113.171875 152.910156 111.214844 147.792969 106.695312 147.773438 C 100.359375 148.574219 99.050781 158.539062 103.347656 162.941406 C 107.359375 167.050781 113.019531 163.335938 113.121094 156.535156 " fill-opacity="1" fill-rule="nonzero"/><path fill="#5ce1e6" d="M 115.246094 176.21875 C 119.953125 180.140625 125.871094 176.160156 125.464844 169.347656 C 125.25 165.683594 122.683594 160.601562 117.664062 160.78125 C 110.757812 161.867188 110.148438 171.964844 115.246094 176.21875 " fill-opacity="1" fill-rule="nonzero"/><path fill="#5ce1e6" d="M 130.726562 173.441406 C 123.847656 174.710938 123.367188 184.152344 128.445312 188.523438 C 133.703125 193.050781 140.519531 188.941406 139.664062 181.761719 C 139.222656 178.078125 136.160156 173.0625 130.726562 173.441406 " fill-opacity="1" fill-rule="nonzero"/><path fill="#5ce1e6" d="M 92.257812 121.113281 C 87.15625 121.363281 84.265625 131.832031 87.066406 135.921875 C 89.53125 139.519531 94.113281 136.28125 95.375 130.046875 C 96.078125 126.574219 95.578125 121.503906 92.257812 121.113281 " fill-opacity="1" fill-rule="nonzero"/><path fill="#5ce1e6" d="M 82.953125 122.386719 C 84.738281 125.347656 88.679688 122.332031 90.488281 116.621094 C 91.550781 113.265625 91.847656 108.296875 89.183594 107.75 C 84.597656 107.734375 80.691406 118.632812 82.953125 122.386719 " fill-opacity="1" fill-rule="nonzero"/><path fill="#5ce1e6" d="M 96.257812 191.441406 L 96.199219 191.535156 L 96.214844 191.546875 Z M 96.257812 191.441406 " fill-opacity="1" fill-rule="nonzero"/><path fill="#5ce1e6" d="M 99.640625 205.265625 L 99.746094 205.355469 L 99.65625 205.265625 C 99.652344 205.265625 99.644531 205.265625 99.640625 205.265625 " fill-opacity="1" fill-rule="nonzero"/><path fill="#5ce1e6" d="M 142.53125 250.484375 C 147.59375 252.46875 151.09375 249.742188 149.105469 245.359375 C 147.929688 242.777344 144.171875 239.230469 139.492188 239.4375 C 139.003906 239.511719 138.398438 239.605469 137.820312 239.898438 C 133.910156 241.875 136.730469 248.207031 142.53125 250.484375 " fill-opacity="1" fill-rule="nonzero"/><path fill="#5ce1e6" d="M 141.777344 260.6875 C 145.625 261.433594 147.207031 259.125 145.09375 255.847656 C 143.730469 253.734375 139.941406 250.398438 135.582031 250.445312 C 135.292969 250.464844 134.417969 250.523438 133.734375 251.015625 C 130.667969 253.226562 135.929688 259.558594 141.777344 260.6875 " fill-opacity="1" fill-rule="nonzero"/><path fill="#5ce1e6" d="M 122.753906 141.847656 C 122.9375 138.449219 121.234375 133.722656 116.855469 133.851562 C 111.519531 134.410156 108.898438 143.019531 112.671875 147.601562 C 116.265625 151.960938 122.386719 148.464844 122.753906 141.847656 " fill-opacity="1" fill-rule="nonzero"/><path fill="#5ce1e6" d="M 108.46875 121.292969 C 103.199219 121.984375 100.746094 130.921875 103.632812 134.898438 C 106.472656 138.8125 111.800781 135.738281 112.824219 129.59375 C 113.386719 126.203125 112.410156 121.382812 108.46875 121.292969 " fill-opacity="1" fill-rule="nonzero"/><path fill="#5ce1e6" d="M 62.675781 128.109375 C 63.273438 127.789062 64.328125 124.503906 64.902344 122.574219 C 65.132812 121.8125 67.121094 115.074219 66.824219 113.433594 C 66.800781 113.386719 66.75 113.320312 66.699219 113.300781 C 66.671875 113.3125 66.632812 113.324219 66.605469 113.34375 C 65.246094 114.257812 61.644531 127.785156 62.675781 128.109375 " fill-opacity="1" fill-rule="nonzero"/><path fill="#5ce1e6" d="M 154.785156 233.160156 C 153.847656 230.511719 150.582031 226.714844 145.433594 227.113281 C 145.046875 227.183594 144.527344 227.28125 144.152344 227.410156 C 139.34375 229.125 140.75 236.078125 146.464844 238.855469 C 151.394531 241.25 156.714844 238.613281 154.785156 233.160156 " fill-opacity="1" fill-rule="nonzero"/><path fill="#5ce1e6" d="M 133.992188 274.363281 C 134.703125 274.246094 133.105469 272.882812 131.367188 271.648438 C 129.398438 270.246094 124.984375 267.421875 122.378906 266.78125 C 122.070312 266.738281 121.800781 266.703125 121.730469 266.875 C 121.242188 268.109375 132.015625 274.683594 133.992188 274.363281 " fill-opacity="1" fill-rule="nonzero"/><path fill="#5ce1e6" d="M 142.359375 268.863281 C 145.0625 269.050781 145.429688 267.382812 143.230469 264.898438 C 141.789062 263.269531 137.988281 260.152344 133.917969 260.03125 C 133.375 260.070312 132.859375 260.105469 132.429688 260.425781 C 129.945312 262.28125 137.277344 268.511719 142.359375 268.863281 " fill-opacity="1" fill-rule="nonzero"/><path fill="#5ce1e6" d="M 97.246094 122.085938 C 99.222656 124.996094 103.832031 122.769531 105.355469 116.910156 C 105.917969 114.765625 106.53125 109.132812 102.722656 108.859375 C 97.910156 109.3125 94.824219 118.515625 97.246094 122.085938 " fill-opacity="1" fill-rule="nonzero"/><path fill="#5ce1e6" d="M 71.082031 111.921875 C 72.097656 109.429688 73.835938 104.402344 73.160156 103.222656 C 73.128906 103.199219 73.085938 103.160156 73.046875 103.144531 C 71.496094 102.613281 66.578125 114.929688 67.507812 117.019531 C 67.960938 118.039062 69.464844 115.898438 71.082031 111.921875 " fill-opacity="1" fill-rule="nonzero"/><path fill="#5ce1e6" d="M 127.675781 146.414062 C 121.171875 147.613281 120.574219 156.351562 124.183594 160.113281 C 128.054688 164.148438 134.898438 161.308594 134.722656 154.140625 C 134.609375 149.433594 131.449219 145.96875 127.675781 146.414062 " fill-opacity="1" fill-rule="nonzero"/><path fill="#5ce1e6" d="M 154.527344 193.695312 C 153.96875 190.484375 151.136719 185.914062 145.621094 186.457031 C 139.09375 187.488281 138.988281 196.519531 144.042969 200.273438 C 148.878906 203.867188 155.742188 200.65625 154.527344 193.695312 " fill-opacity="1" fill-rule="nonzero"/><path fill="#5ce1e6" d="M 152.289062 225.546875 C 157.621094 228.882812 163.515625 225.433594 162.144531 219.773438 C 161.183594 215.800781 156.898438 212.824219 152.972656 213.40625 C 152.773438 213.449219 152.503906 213.492188 152.304688 213.542969 C 146.902344 214.984375 146.890625 222.164062 152.289062 225.546875 " fill-opacity="1" fill-rule="nonzero"/><path fill="#5ce1e6" d="M 88.691406 95.332031 C 85.292969 95.117188 80.65625 105.234375 81.945312 108.203125 C 82.878906 110.351562 85.953125 107.957031 88.039062 103.457031 C 89.3125 100.703125 90.621094 96.066406 88.691406 95.332031 " fill-opacity="1" fill-rule="nonzero"/><path fill="#5ce1e6" d="M 144.949219 275.421875 C 146.273438 275.308594 145.828125 274.078125 143.863281 272.429688 C 141.1875 270.1875 136.878906 268.140625 134.640625 268.046875 C 134.230469 268.054688 133.84375 268.0625 133.589844 268.300781 C 131.910156 269.882812 141.253906 275.738281 144.949219 275.421875 " fill-opacity="1" fill-rule="nonzero"/><path fill="#5ce1e6" d="M 99.746094 96.503906 C 95.933594 96.753906 91.644531 105.097656 93.375 108.902344 C 94.753906 111.9375 98.921875 109.117188 100.804688 103.871094 C 101.832031 101.019531 102.183594 96.847656 99.746094 96.503906 " fill-opacity="1" fill-rule="nonzero"/><path fill="#5ce1e6" d="M 74.652344 105.933594 C 75.15625 107.269531 77.371094 104.902344 79.394531 100.867188 C 80.746094 98.175781 82.335938 93.8125 81.457031 92.996094 C 81.453125 92.996094 81.445312 92.988281 81.441406 92.988281 C 79.398438 92.195312 73.625 103.207031 74.652344 105.933594 " fill-opacity="1" fill-rule="nonzero"/><path fill="#5ce1e6" d="M 140.585938 158.738281 C 134.738281 159.65625 133.066406 168.195312 137.914062 172.378906 C 142.667969 176.476562 149.117188 172.601562 148.527344 165.996094 C 148.234375 162.699219 145.578125 158.265625 140.585938 158.738281 " fill-opacity="1" fill-rule="nonzero"/><path fill="#5ce1e6" d="M 164.863281 253.859375 C 163.636719 250.910156 159.300781 248.5 155.9375 248.910156 C 155.628906 248.964844 155.214844 249.042969 154.921875 249.144531 C 151.1875 250.476562 152.121094 255.507812 157.835938 257.929688 C 162.9375 260.089844 166.328125 257.390625 164.863281 253.859375 " fill-opacity="1" fill-rule="nonzero"/><path fill="#5ce1e6" d="M 160.757812 263.542969 C 159.484375 261.601562 155.707031 259.003906 151.917969 259.179688 C 151.238281 259.25 150.679688 259.4375 150.257812 259.746094 C 147.585938 261.683594 151.679688 266.414062 157 267.53125 C 161.085938 268.386719 162.394531 266.050781 160.757812 263.542969 " fill-opacity="1" fill-rule="nonzero"/><path fill="#5ce1e6" d="M 127.28125 120.035156 C 122.875 120.613281 119.683594 128.101562 123.1875 132.394531 C 126.417969 136.359375 132.058594 133.246094 132.617188 127.191406 C 132.90625 124.046875 131.210938 119.8125 127.28125 120.035156 " fill-opacity="1" fill-rule="nonzero"/><path fill="#5ce1e6" d="M 123.015625 115.304688 C 123.703125 111.367188 121.824219 107.992188 119.074219 108.21875 C 114.460938 108.992188 111.558594 116.675781 114.4375 120.488281 C 117.183594 124.132812 122.121094 120.410156 123.015625 115.304688 " fill-opacity="1" fill-rule="nonzero"/><path fill="#5ce1e6" d="M 74.707031 97.636719 C 75.277344 96.578125 78.117188 91.234375 78.015625 89.902344 C 78.003906 89.878906 77.992188 89.839844 77.96875 89.824219 C 77.078125 89.164062 71.097656 100.507812 71.570312 101.960938 C 71.757812 102.53125 72.957031 100.875 74.707031 97.636719 " fill-opacity="1" fill-rule="nonzero"/><path fill="#5ce1e6" d="M 108.074219 108.171875 C 109.8125 111.199219 114.46875 108.894531 115.910156 103.171875 C 116.5625 100.574219 116.464844 96.6875 113.507812 96.628906 C 109.226562 97.207031 106.1875 104.890625 108.074219 108.171875 " fill-opacity="1" fill-rule="nonzero"/><path fill="#5ce1e6" d="M 137.929688 131.921875 C 132.773438 132.730469 130.703125 140.742188 134.671875 144.53125 C 138.523438 148.207031 144.5 144.554688 144.363281 138.609375 C 144.296875 135.792969 142.492188 131.488281 137.929688 131.921875 " fill-opacity="1" fill-rule="nonzero"/><path fill="#5ce1e6" d="M 170.496094 242.058594 C 169.265625 238.890625 165.441406 236.730469 161.96875 237.246094 C 161.628906 237.3125 161.171875 237.40625 160.84375 237.527344 C 156.488281 239.089844 157.445312 244.753906 162.46875 247.148438 C 167.507812 249.546875 172.234375 246.550781 170.496094 242.058594 " fill-opacity="1" fill-rule="nonzero"/><path fill="#5ce1e6" d="M 158.753906 271.738281 C 156.609375 269.53125 152.769531 267.847656 150.195312 267.984375 C 149.765625 268.03125 149.046875 268.109375 148.644531 268.53125 C 146.929688 270.339844 153.320312 274.871094 157.765625 274.992188 C 160.234375 275.0625 160.648438 273.695312 158.753906 271.738281 " fill-opacity="1" fill-rule="nonzero"/><path fill="#5ce1e6" d="M 99.476562 84.6875 C 96.648438 84.425781 91.382812 92.839844 92.4375 95.941406 C 93.175781 98.113281 96.4375 96.34375 98.890625 91.484375 C 99.980469 89.328125 101.507812 85.128906 99.476562 84.6875 " fill-opacity="1" fill-rule="nonzero"/><path fill="#5ce1e6" d="M 149.035156 280.386719 C 149.664062 280.257812 148.71875 279.421875 146.515625 278.15625 C 145.972656 277.84375 141.121094 275.09375 138.050781 274.65625 C 137.730469 274.636719 137.425781 274.621094 137.320312 274.777344 C 136.625 275.816406 147.027344 280.796875 149.035156 280.386719 " fill-opacity="1" fill-rule="nonzero"/><path fill="#5ce1e6" d="M 177.960938 229.398438 C 177.347656 226.921875 174.609375 223.480469 169.554688 224.140625 C 169.550781 224.144531 169.550781 224.144531 169.550781 224.144531 C 169.546875 224.144531 169.546875 224.144531 169.546875 224.144531 C 169.542969 224.144531 169.542969 224.144531 169.542969 224.144531 C 169.542969 224.144531 169.542969 224.144531 169.539062 224.144531 C 168.765625 224.324219 167.15625 224.695312 166.066406 226.167969 C 163.464844 229.6875 166.988281 236.429688 173.785156 235.527344 C 173.785156 235.527344 173.789062 235.527344 173.789062 235.527344 C 173.789062 235.527344 173.792969 235.527344 173.792969 235.527344 C 173.796875 235.527344 173.796875 235.527344 173.796875 235.527344 C 173.796875 235.527344 173.796875 235.527344 173.796875 235.523438 C 173.796875 235.523438 173.800781 235.523438 173.800781 235.523438 C 179.015625 234.324219 178.082031 229.898438 177.960938 229.398438 " fill-opacity="1" fill-rule="nonzero"/><path fill="#5ce1e6" d="M 170.480469 205.054688 C 169.984375 202.210938 167.171875 197.953125 161.738281 198.613281 C 155.410156 200.09375 155.441406 207.839844 160.382812 211.085938 C 165.445312 214.410156 171.484375 210.804688 170.480469 205.054688 " fill-opacity="1" fill-rule="nonzero"/><path fill="#5ce1e6" d="M 155.28125 170.949219 C 149.4375 172.027344 148.203125 180.425781 153.339844 184.164062 C 158.265625 187.746094 164.453125 183.710938 163.53125 177.523438 C 162.992188 173.90625 159.917969 170.371094 155.28125 170.949219 " fill-opacity="1" fill-rule="nonzero"/><path fill="#5ce1e6" d="M 68.460938 107.460938 C 69.316406 105.414062 71.328125 100.523438 71.582031 99.304688 C 71.585938 99.273438 71.585938 99.230469 71.585938 99.199219 C 71.566406 99.199219 71.539062 99.199219 71.515625 99.199219 C 70.671875 100.242188 65.953125 111.40625 66.347656 112.097656 C 66.472656 111.921875 66.765625 111.515625 68.460938 107.460938 " fill-opacity="1" fill-rule="nonzero"/><path fill="#5ce1e6" d="M 136.746094 276.746094 C 131.175781 273.855469 129.585938 273.160156 128.765625 272.863281 C 128.765625 272.863281 128.765625 272.863281 128.765625 272.859375 C 128.761719 272.859375 128.761719 272.859375 128.761719 272.859375 C 128.757812 272.859375 128.757812 272.859375 128.757812 272.859375 C 128.753906 272.859375 128.753906 272.859375 128.753906 272.859375 C 128.675781 272.835938 128.570312 272.804688 128.488281 272.792969 C 128.484375 272.8125 128.476562 272.839844 128.472656 272.855469 C 129.628906 273.953125 139.359375 278.65625 140.511719 278.832031 C 140.464844 278.738281 140.433594 278.660156 136.746094 276.746094 " fill-opacity="1" fill-rule="nonzero"/><path fill="#5ce1e6" d="M 83.761719 94.519531 C 84.171875 95.964844 86.441406 94.539062 89.042969 90.175781 C 89.191406 89.925781 92.691406 84.023438 91.179688 83.089844 C 88.578125 82.679688 83.101562 92.195312 83.761719 94.519531 " fill-opacity="1" fill-rule="nonzero"/><path fill="#5ce1e6" d="M 159.773438 280.699219 C 159.777344 280.699219 159.777344 280.699219 159.777344 280.699219 C 159.78125 280.699219 159.78125 280.699219 159.78125 280.699219 C 159.867188 280.695312 159.988281 280.691406 160.074219 280.683594 C 161.320312 280.539062 160.980469 279.625 159.214844 278.363281 C 156.707031 276.570312 152.949219 275.136719 150.828125 275.160156 C 150.449219 275.1875 150.0625 275.210938 149.8125 275.414062 C 148.464844 276.535156 155.328125 280.613281 159.773438 280.699219 " fill-opacity="1" fill-rule="nonzero"/><path fill="#5ce1e6" d="M 110.734375 85.203125 C 110.308594 85.25 109.664062 85.316406 108.578125 86.195312 C 104.691406 89.351562 102.503906 96.851562 106.179688 97.117188 C 106.179688 97.117188 106.183594 97.117188 106.183594 97.117188 C 106.1875 97.117188 106.1875 97.117188 106.1875 97.117188 C 109.226562 96.804688 111.210938 92.300781 111.429688 91.789062 C 112.769531 88.609375 112.808594 85.203125 110.734375 85.203125 " fill-opacity="1" fill-rule="nonzero"/><path fill="#5ce1e6" d="M 86.320312 80.503906 C 85.355469 80.28125 78.085938 89.910156 79.058594 91.886719 C 79.058594 91.886719 79.058594 91.886719 79.0625 91.886719 C 79.0625 91.886719 79.0625 91.886719 79.0625 91.890625 C 79.902344 92.375 82.839844 87.921875 83.171875 87.410156 C 84.21875 85.800781 86.847656 81.433594 86.414062 80.558594 C 86.386719 80.542969 86.351562 80.511719 86.320312 80.503906 " fill-opacity="1" fill-rule="nonzero"/><path fill="#5ce1e6" d="M 150.738281 143.683594 C 144.46875 145.15625 144.347656 153.003906 148.058594 156.144531 C 151.914062 159.40625 158.371094 156.460938 157.941406 150.207031 C 157.652344 145.972656 154.421875 143.046875 150.738281 143.683594 " fill-opacity="1" fill-rule="nonzero"/><path fill="#5ce1e6" d="M 165.308594 155.230469 C 160.101562 156.585938 158.597656 163.265625 162.671875 166.953125 C 167.359375 171.199219 173.417969 166.976562 172.9375 161.441406 C 172.679688 158.429688 169.882812 154.59375 165.308594 155.230469 " fill-opacity="1" fill-rule="nonzero"/><path fill="#5ce1e6" d="M 179.523438 189.011719 C 178.992188 185.0625 174.972656 182.019531 171.25 182.75 C 165.90625 184.160156 164.628906 191.128906 169.050781 194.773438 C 174.265625 199.074219 180.292969 194.734375 179.523438 189.011719 " fill-opacity="1" fill-rule="nonzero"/><path fill="#5ce1e6" d="M 186.476562 215.003906 C 185.832031 211.582031 181.882812 209.007812 178.355469 209.710938 C 173.105469 211.082031 172.097656 217.285156 176.613281 220.417969 C 181.773438 223.996094 187.417969 219.984375 186.476562 215.003906 " fill-opacity="1" fill-rule="nonzero"/><path fill="#5ce1e6" d="M 94.390625 83.398438 C 94.648438 85.25 97.652344 82.828125 99.929688 79.542969 C 101.5625 77.1875 103.226562 73.683594 102.097656 73.230469 C 99.699219 73.148438 94.011719 80.65625 94.390625 83.398438 " fill-opacity="1" fill-rule="nonzero"/><path fill="#5ce1e6" d="M 179.902344 260.9375 C 178.933594 258.558594 175.097656 256.648438 172.15625 257.082031 C 171.882812 257.136719 171.511719 257.214844 171.25 257.3125 C 168.128906 258.449219 168.550781 262.316406 173.066406 264.285156 C 177.683594 266.296875 181.136719 263.972656 179.902344 260.9375 " fill-opacity="1" fill-rule="nonzero"/><path fill="#5ce1e6" d="M 143.917969 279.699219 C 143.835938 279.6875 143.726562 279.675781 143.644531 279.675781 C 143.632812 279.695312 143.621094 279.722656 143.609375 279.742188 C 144.597656 280.714844 153.183594 283.71875 155.136719 284.015625 C 155.15625 284 155.179688 283.976562 155.199219 283.960938 C 154.871094 283.75 153.730469 283.261719 151.808594 282.496094 C 151.203125 282.253906 145.84375 280.136719 143.917969 279.699219 " fill-opacity="1" fill-rule="nonzero"/><path fill="#5ce1e6" d="M 103.949219 84.160156 C 104.59375 86.171875 107.757812 84.070312 109.992188 80.152344 C 111.207031 78.019531 112.488281 74.523438 110.75 74.222656 C 107.917969 74.425781 103.085938 81.480469 103.949219 84.160156 " fill-opacity="1" fill-rule="nonzero"/><path fill="#5ce1e6" d="M 164.089844 284.78125 C 164.570312 284.507812 162.527344 283.523438 161.890625 283.230469 C 159.433594 282.09375 155.710938 280.824219 153.972656 280.75 C 153.695312 280.753906 153.410156 280.757812 153.324219 280.898438 C 152.707031 281.914062 162.769531 285.542969 164.089844 284.78125 " fill-opacity="1" fill-rule="nonzero"/><path fill="#5ce1e6" d="M 137.535156 106.480469 C 133.183594 107.449219 131.035156 114.121094 133.996094 117.460938 C 136.878906 120.710938 141.921875 117.695312 142.296875 112.5 C 142.554688 108.957031 140.285156 106.085938 137.535156 106.480469 " fill-opacity="1" fill-rule="nonzero"/><path fill="#5ce1e6" d="M 129.5 95.492188 C 125.621094 96.269531 123.007812 102.621094 125.203125 105.953125 C 127.367188 109.234375 132.078125 106.519531 132.960938 101.484375 C 133.558594 98.070312 131.910156 95.214844 129.5 95.492188 " fill-opacity="1" fill-rule="nonzero"/><path fill="#5ce1e6" d="M 171.792969 273.085938 C 175.605469 273.882812 177.121094 271.96875 175.683594 269.84375 C 174.304688 267.808594 170.65625 266.246094 168.023438 266.5625 C 167.523438 266.648438 167.050781 266.730469 166.566406 267.066406 C 164.25 268.65625 167.28125 272.144531 171.792969 273.085938 " fill-opacity="1" fill-rule="nonzero"/><path fill="#5ce1e6" d="M 88.367188 81.441406 C 88.535156 82.453125 90.558594 80.792969 92.96875 77.664062 C 93.011719 77.613281 97.058594 72.339844 96.292969 71.492188 C 94.695312 71.054688 88.027344 79.425781 88.367188 81.441406 " fill-opacity="1" fill-rule="nonzero"/><path fill="#5ce1e6" d="M 172.617188 279.742188 C 174.765625 279.714844 175.160156 278.617188 173.554688 277.136719 C 172.28125 275.960938 169.265625 274.273438 166.171875 274.449219 C 165.800781 274.488281 165.125 274.601562 164.773438 274.953125 C 163.242188 276.480469 168.664062 279.796875 172.617188 279.742188 " fill-opacity="1" fill-rule="nonzero"/><path fill="#5ce1e6" d="M 124.128906 84.769531 C 120.757812 85.105469 117.503906 91.847656 119.289062 94.789062 C 120.757812 97.210938 124.816406 95.164062 126.132812 90.433594 C 126.777344 88.125 126.769531 84.714844 124.128906 84.769531 " fill-opacity="1" fill-rule="nonzero"/><path fill="#5ce1e6" d="M 148.046875 117.640625 C 143.515625 118.453125 141.667969 125.378906 145.101562 128.699219 C 148.226562 131.714844 153.9375 129.0625 153.78125 123.410156 C 153.710938 120.816406 152.125 117.144531 148.046875 117.640625 " fill-opacity="1" fill-rule="nonzero"/><path fill="#5ce1e6" d="M 185.746094 250.027344 C 185.105469 248.214844 182.507812 245.550781 178.269531 246.125 C 177.964844 246.179688 177.511719 246.289062 177.054688 246.480469 C 173.496094 247.980469 174.1875 252.464844 178.273438 254.347656 C 182.59375 256.339844 187.066406 253.753906 185.746094 250.027344 " fill-opacity="1" fill-rule="nonzero"/><path fill="#5ce1e6" d="M 80.871094 83.996094 C 82.589844 81.5 84.699219 78.320312 84.980469 77.382812 C 84.96875 77.355469 84.953125 77.3125 84.941406 77.285156 C 83.933594 77.628906 77.875 86.742188 78.117188 87.546875 C 78.230469 87.507812 78.53125 87.402344 80.871094 83.996094 " fill-opacity="1" fill-rule="nonzero"/><path fill="#5ce1e6" d="M 89.378906 74.933594 C 89.421875 74.882812 93.558594 69.898438 93.5625 68.960938 C 93.550781 68.945312 93.535156 68.929688 93.523438 68.914062 C 92.351562 68.859375 85.28125 77.601562 85.882812 78.363281 C 86.398438 78.40625 88.296875 76.230469 89.378906 74.933594 " fill-opacity="1" fill-rule="nonzero"/><path fill="#5ce1e6" d="M 159.695312 284.792969 C 159.425781 284.777344 159.425781 284.777344 159.351562 284.84375 C 159.992188 285.472656 169.054688 287.710938 169.894531 287.449219 C 169.78125 287.386719 169.597656 287.28125 167.035156 286.570312 C 163.347656 285.546875 160.875 284.949219 159.695312 284.792969 " fill-opacity="1" fill-rule="nonzero"/><path fill="#5ce1e6" d="M 181.1875 166.695312 C 176.21875 167.851562 174.9375 174.546875 179.042969 177.890625 C 183.453125 181.480469 189.5 177.921875 188.695312 172.203125 C 188.3125 169.449219 185.726562 165.921875 181.1875 166.695312 " fill-opacity="1" fill-rule="nonzero"/><path fill="#5ce1e6" d="M 189.429688 243.191406 C 189.429688 243.191406 189.433594 243.191406 189.433594 243.191406 C 189.433594 243.191406 189.433594 243.191406 189.4375 243.191406 C 189.4375 243.191406 189.4375 243.191406 189.441406 243.191406 C 189.441406 243.191406 189.441406 243.191406 189.445312 243.191406 C 189.445312 243.191406 189.445312 243.1875 189.449219 243.1875 C 189.449219 243.1875 189.449219 243.1875 189.453125 243.1875 C 189.453125 243.1875 189.453125 243.1875 189.457031 243.1875 C 194.09375 242.03125 193.367188 238.296875 193.265625 237.875 C 192.785156 235.808594 190.441406 232.992188 185.96875 233.699219 C 184.207031 234.0625 183.261719 234.996094 182.855469 235.519531 C 180.292969 238.824219 183.851562 244.046875 189.425781 243.195312 C 189.425781 243.195312 189.429688 243.195312 189.429688 243.191406 " fill-opacity="1" fill-rule="nonzero"/><path fill="#5ce1e6" d="M 121.574219 74.292969 C 118.84375 74.484375 115.097656 80.578125 116.003906 83.351562 C 116.757812 85.664062 120.234375 84.023438 122.128906 79.601562 C 122.992188 77.582031 123.605469 74.355469 121.574219 74.292969 " fill-opacity="1" fill-rule="nonzero"/><path fill="#5ce1e6" d="M 99.242188 71.328125 C 99.207031 72.488281 101.46875 70.917969 104.082031 67.960938 C 105.425781 66.445312 107.992188 63.148438 107.335938 62.65625 C 105.65625 62.484375 99.300781 69.292969 99.242188 71.328125 " fill-opacity="1" fill-rule="nonzero"/><path fill="#5ce1e6" d="M 174.839844 284.457031 C 175.621094 284.222656 175.152344 283.515625 173.640625 282.660156 C 172.371094 281.941406 169.28125 280.59375 166.6875 280.652344 C 166.6875 280.652344 166.683594 280.652344 166.683594 280.652344 C 166.679688 280.652344 166.679688 280.652344 166.679688 280.652344 C 166.679688 280.652344 166.679688 280.65625 166.675781 280.65625 C 166.675781 280.65625 166.675781 280.65625 166.671875 280.65625 C 166.671875 280.65625 166.667969 280.65625 166.667969 280.65625 C 166.359375 280.6875 165.847656 280.738281 165.671875 281 C 164.800781 282.3125 172.429688 285.1875 174.839844 284.457031 " fill-opacity="1" fill-rule="nonzero"/><path fill="#5ce1e6" d="M 160.710938 128.71875 C 160.707031 128.722656 160.707031 128.722656 160.707031 128.722656 C 160.703125 128.722656 160.703125 128.722656 160.703125 128.722656 C 160.699219 128.722656 160.699219 128.722656 160.699219 128.722656 C 160.695312 128.722656 160.695312 128.722656 160.695312 128.722656 C 160.691406 128.722656 160.691406 128.722656 160.691406 128.722656 C 160.6875 128.722656 160.6875 128.722656 160.6875 128.726562 C 160.683594 128.726562 160.683594 128.726562 160.683594 128.726562 C 160.679688 128.726562 160.679688 128.726562 160.679688 128.726562 C 155.125 130.222656 155.171875 137.277344 158.542969 139.855469 C 162.375 142.789062 167.609375 139.378906 167.164062 134.246094 C 166.949219 131.773438 165.003906 128.089844 160.710938 128.71875 " fill-opacity="1" fill-rule="nonzero"/><path fill="#5ce1e6" d="M 153.59375 283.75 L 153.945312 283.851562 C 153.683594 283.773438 153.410156 283.691406 153.15625 283.613281 L 153.59375 283.75 " fill-opacity="1" fill-rule="nonzero"/><path fill="#5ce1e6" d="M 195.542969 199.339844 C 194.886719 195.84375 191.414062 193.53125 187.960938 194.292969 C 182.371094 195.863281 182.128906 202.535156 186.328125 205.253906 C 190.828125 208.164062 196.511719 204.519531 195.542969 199.339844 " fill-opacity="1" fill-rule="nonzero"/><path fill="#5ce1e6" d="M 106.15625 72.636719 C 106.4375 74.023438 109.105469 72.210938 111.539062 68.972656 C 112.691406 67.4375 114.703125 64.167969 113.535156 63.851562 C 111.699219 63.691406 105.667969 70.238281 106.15625 72.636719 " fill-opacity="1" fill-rule="nonzero"/><path fill="#5ce1e6" d="M 201.996094 224.304688 C 201.691406 221.664062 198.695312 219.171875 194.890625 219.824219 C 190.492188 221.042969 189.238281 225.878906 192.613281 228.589844 C 196.886719 232.027344 202.503906 228.683594 201.996094 224.304688 " fill-opacity="1" fill-rule="nonzero"/><path fill="#5ce1e6" d="M 178.339844 287.667969 C 178.707031 287.464844 177.054688 286.867188 176.539062 286.6875 C 174.429688 285.960938 171.082031 285.160156 169.644531 285.175781 C 169.433594 285.1875 169.082031 285.210938 169.082031 285.375 C 169.074219 286.207031 177.292969 288.242188 178.339844 287.667969 " fill-opacity="1" fill-rule="nonzero"/><path fill="#5ce1e6" d="M 175.207031 139.621094 C 175.203125 139.621094 175.203125 139.621094 175.203125 139.621094 C 175.199219 139.621094 175.199219 139.625 175.199219 139.625 C 175.195312 139.625 175.195312 139.625 175.195312 139.625 C 175.195312 139.625 175.191406 139.625 175.191406 139.625 C 175.191406 139.625 175.1875 139.625 175.1875 139.625 C 175.1875 139.625 175.1875 139.625 175.183594 139.625 C 175.183594 139.625 175.183594 139.628906 175.179688 139.628906 C 175.179688 139.628906 175.179688 139.628906 175.175781 139.628906 C 170.335938 141.035156 169.324219 147.667969 173.515625 150.546875 C 177.90625 153.566406 182.710938 149.40625 182.019531 144.699219 C 181.652344 142.171875 179.078125 139.003906 175.207031 139.621094 " fill-opacity="1" fill-rule="nonzero"/><path fill="#5ce1e6" d="M 115.742188 72.671875 C 116.214844 74.277344 119.03125 72.402344 121.03125 69.152344 C 121.960938 67.644531 123.382812 64.472656 121.867188 64.285156 C 119.386719 64.589844 115.089844 70.46875 115.742188 72.671875 " fill-opacity="1" fill-rule="nonzero"/><path fill="#5ce1e6" d="M 95.578125 69.160156 C 95.578125 69.160156 95.578125 69.160156 95.578125 69.164062 C 96.175781 69.414062 98.921875 66.652344 99.75 65.796875 C 99.917969 65.625 103.847656 61.566406 103.652344 60.863281 C 103.632812 60.851562 103.609375 60.835938 103.585938 60.832031 C 102.777344 60.695312 95.015625 67.769531 95.578125 69.160156 " fill-opacity="1" fill-rule="nonzero"/><path fill="#5ce1e6" d="M 193.746094 266.71875 C 193.109375 265.34375 190.765625 263.605469 187.554688 264.046875 C 187.101562 264.128906 186.644531 264.28125 186.304688 264.464844 C 183.910156 265.75 184.957031 268.644531 188.238281 269.800781 C 191.730469 271.035156 194.921875 269.246094 193.746094 266.71875 " fill-opacity="1" fill-rule="nonzero"/><path fill="#5ce1e6" d="M 144.359375 102.6875 C 146.902344 105.441406 151.234375 102.597656 151.277344 98.148438 C 151.300781 96 150.039062 93.128906 147.167969 93.457031 C 143.640625 94.113281 141.859375 99.980469 144.359375 102.6875 " fill-opacity="1" fill-rule="nonzero"/><path fill="#5ce1e6" d="M 185.925781 277.492188 C 188.917969 278.035156 190.71875 276.75 189.492188 274.945312 C 188.425781 273.375 185.527344 272.285156 183.289062 272.613281 C 182.925781 272.683594 182.320312 272.800781 181.863281 273.164062 C 180.25 274.449219 182.527344 276.875 185.925781 277.492188 " fill-opacity="1" fill-rule="nonzero"/><path fill="#5ce1e6" d="M 139.285156 83.375 C 135.742188 84.15625 134.066406 90.0625 136.035156 92.316406 C 137.851562 94.402344 141.675781 92.320312 142.234375 88.058594 C 142.5625 85.558594 141.53125 83.054688 139.285156 83.375 " fill-opacity="1" fill-rule="nonzero"/><path fill="#5ce1e6" d="M 199.871094 256.753906 C 199.371094 255.28125 197.34375 253.296875 193.796875 253.875 C 193.628906 253.910156 193.261719 254.011719 193.257812 254.011719 C 189.648438 255.109375 190.058594 258.765625 193.050781 260.320312 C 196.695312 262.21875 200.964844 259.984375 199.871094 256.753906 " fill-opacity="1" fill-rule="nonzero"/><path fill="#5ce1e6" d="M 134.121094 73.519531 C 131.398438 73.863281 128.722656 79.410156 130.140625 81.757812 C 131.328125 83.71875 134.652344 82.027344 135.75 78.160156 C 136.300781 76.230469 136.316406 73.402344 134.121094 73.519531 " fill-opacity="1" fill-rule="nonzero"/><path fill="#5ce1e6" d="M 157.542969 103.785156 C 153.015625 104.96875 152.769531 110.96875 155.382812 113.222656 C 158.085938 115.554688 162.730469 113.21875 162.515625 108.589844 C 162.367188 105.433594 160.136719 103.277344 157.542969 103.785156 " fill-opacity="1" fill-rule="nonzero"/><path fill="#5ce1e6" d="M 186.425781 283.191406 C 188.125 283.082031 188.464844 282.292969 187.246094 281.265625 C 185.964844 280.191406 183.382812 279.234375 181.273438 279.492188 C 180.949219 279.542969 180.40625 279.632812 180.105469 279.917969 C 178.847656 281.097656 183.277344 283.390625 186.425781 283.191406 " fill-opacity="1" fill-rule="nonzero"/><path fill="#5ce1e6" d="M 188.1875 286.957031 C 188.796875 286.773438 188.472656 286.332031 187.335938 285.804688 C 186.128906 285.246094 183.605469 284.460938 181.609375 284.589844 C 181.300781 284.617188 180.910156 284.695312 180.785156 284.882812 C 180.191406 285.789062 186.347656 287.511719 188.1875 286.957031 " fill-opacity="1" fill-rule="nonzero"/><path fill="#5ce1e6" d="M 118.308594 62.257812 C 118.527344 63.242188 120.742188 61.773438 122.871094 59.234375 C 124.546875 57.238281 125.773438 55.054688 124.9375 54.980469 C 122.972656 55.15625 117.953125 60.664062 118.308594 62.257812 " fill-opacity="1" fill-rule="nonzero"/><g clip-path="url(#d897378794)"><path fill="#5ce1e6" d="M 175.238281 288.074219 C 175.007812 288.070312 175.007812 288.070312 174.953125 288.121094 C 175.554688 288.5 183.339844 289.535156 183.910156 289.308594 C 183.707031 289.257812 183.441406 289.214844 181.371094 288.902344 C 178.097656 288.402344 176.296875 288.128906 175.238281 288.074219 " fill-opacity="1" fill-rule="nonzero"/></g><path fill="#5ce1e6" d="M 132.15625 68.289062 C 133.109375 66.171875 133.203125 63.882812 131.816406 63.992188 C 129.359375 64.441406 126.292969 69.566406 127.261719 71.609375 C 128.042969 73.265625 130.742188 71.4375 132.15625 68.289062 " fill-opacity="1" fill-rule="nonzero"/><path fill="#5ce1e6" d="M 106.761719 60.082031 C 106.640625 60.757812 108.460938 59.578125 110.996094 57.339844 C 111.039062 57.300781 115.226562 53.566406 114.921875 53.070312 C 113.800781 52.863281 107.007812 58.695312 106.761719 60.082031 " fill-opacity="1" fill-rule="nonzero"/><path fill="#5ce1e6" d="M 197.875 178.003906 C 192.597656 179.59375 192.808594 185.695312 195.925781 188.199219 C 199.570312 191.128906 205.578125 188.441406 204.800781 182.960938 C 204.296875 179.414062 201.191406 177.1875 197.875 178.003906 " fill-opacity="1" fill-rule="nonzero"/><path fill="#5ce1e6" d="M 118.917969 54.335938 C 117.292969 54.304688 111.121094 60.171875 111.238281 61.632812 C 111.296875 62.394531 113.113281 61.4375 115.949219 58.558594 C 116.101562 58.402344 119.710938 54.726562 118.917969 54.335938 " fill-opacity="1" fill-rule="nonzero"/><path fill="#5ce1e6" d="M 204.625 204.894531 C 199.878906 206.097656 199.320312 211.707031 202.675781 214.082031 C 206.429688 216.742188 211.859375 213.578125 211.21875 209.105469 C 210.917969 207.027344 208.867188 204.042969 204.625 204.894531 " fill-opacity="1" fill-rule="nonzero"/><path fill="#5ce1e6" d="M 93.691406 65.882812 C 93.703125 65.859375 93.703125 65.820312 93.703125 65.796875 C 92.941406 66.136719 86.800781 73.402344 86.785156 73.980469 C 86.960938 73.871094 87.417969 73.386719 89.429688 71.042969 C 92.722656 67.203125 93.429688 66.320312 93.691406 65.882812 " fill-opacity="1" fill-rule="nonzero"/><path fill="#5ce1e6" d="M 191.023438 150.59375 C 185.703125 152.210938 186.144531 158.554688 189.574219 160.835938 C 193.539062 163.46875 198.480469 160.113281 197.707031 155.308594 C 197.175781 152 194.113281 149.839844 191.023438 150.59375 " fill-opacity="1" fill-rule="nonzero"/><path fill="#5ce1e6" d="M 170.109375 114.0625 C 165.664062 115.332031 165.285156 121.21875 168.527344 123.570312 C 171.921875 126.03125 176.359375 122.894531 175.722656 118.484375 C 175.429688 116.464844 173.648438 113.472656 170.109375 114.0625 " fill-opacity="1" fill-rule="nonzero"/><path fill="#5ce1e6" d="M 207.601562 245.332031 C 207.191406 243.324219 204.964844 241.515625 201.632812 242.125 C 197.539062 243.078125 197.105469 247.144531 199.914062 249.082031 C 203.308594 251.421875 208.339844 248.972656 207.601562 245.332031 " fill-opacity="1" fill-rule="nonzero"/><path fill="#5ce1e6" d="M 98.15625 63.066406 C 98.199219 63.027344 102.253906 59.125 102.519531 58.441406 C 102.519531 58.4375 102.519531 58.4375 102.519531 58.4375 C 102.519531 58.4375 102.519531 58.4375 102.507812 58.402344 C 101.636719 58.367188 94.730469 65.101562 94.890625 65.828125 C 95.199219 65.855469 97.070312 64.109375 98.15625 63.066406 " fill-opacity="1" fill-rule="nonzero"/><path fill="#5ce1e6" d="M 183.351562 133.613281 C 187.167969 136.109375 191.136719 132.519531 190.417969 128.535156 C 190.046875 126.464844 187.90625 123.695312 184.5 124.339844 C 180.800781 125.28125 179.476562 131.074219 183.351562 133.613281 " fill-opacity="1" fill-rule="nonzero"/><path fill="#5ce1e6" d="M 216.453125 232.273438 C 216.175781 230.179688 213.910156 228.320312 210.726562 228.953125 C 207.296875 229.820312 205.539062 233.972656 208.621094 236.28125 C 212.167969 238.933594 216.925781 235.851562 216.453125 232.273438 " fill-opacity="1" fill-rule="nonzero"/><g clip-path="url(#62f3a27c6b)"><path fill="#5ce1e6" d="M 184.488281 287.957031 C 184.152344 287.988281 184.058594 288.015625 184.027344 288.101562 C 184.34375 288.726562 190.625 289.414062 191.425781 289.105469 C 191.429688 289.089844 191.433594 289.070312 191.4375 289.050781 C 191.371094 289.003906 191.199219 288.878906 189.664062 288.574219 C 189.09375 288.460938 186.15625 287.898438 184.488281 287.957031 " fill-opacity="1" fill-rule="nonzero"/></g><path fill="#5ce1e6" d="M 127.230469 61.640625 C 127.449219 62.914062 129.589844 61.777344 131.480469 58.871094 C 132.6875 57.019531 133.363281 55.042969 132.359375 55.078125 C 130.535156 55.351562 126.941406 59.953125 127.230469 61.640625 " fill-opacity="1" fill-rule="nonzero"/><path fill="#5ce1e6" d="M 108.503906 55.359375 C 110.066406 54.097656 112.703125 51.910156 112.820312 51.417969 C 112.34375 50.988281 105.164062 56.785156 105.0625 57.683594 C 105.125 57.746094 105.3125 57.933594 108.503906 55.359375 " fill-opacity="1" fill-rule="nonzero"/><path fill="#5ce1e6" d="M 153.90625 88.496094 C 155.84375 90.359375 159.253906 88.507812 159.152344 84.820312 C 159.113281 83.382812 158.351562 80.757812 155.753906 81.132812 C 152.769531 81.761719 151.960938 86.625 153.90625 88.496094 " fill-opacity="1" fill-rule="nonzero"/><path fill="#5ce1e6" d="M 201.605469 269.816406 C 201.410156 269.863281 201.152344 269.921875 200.96875 269.992188 C 198.636719 270.828125 199.15625 272.976562 201.230469 273.910156 C 203.605469 274.980469 206.976562 273.859375 206.207031 271.734375 C 205.835938 270.71875 204.304688 269.375 201.605469 269.816406 " fill-opacity="1" fill-rule="nonzero"/><path fill="#5ce1e6" d="M 150.449219 75.617188 C 150.660156 73.578125 149.820312 71.644531 148.046875 71.9375 C 145.300781 72.605469 144.136719 77.164062 145.695312 78.945312 C 147.15625 80.617188 150.097656 78.996094 150.449219 75.617188 " fill-opacity="1" fill-rule="nonzero"/><path fill="#5ce1e6" d="M 198.515625 280.753906 C 200.734375 281.164062 202.699219 280.335938 201.75 278.898438 C 200.976562 277.726562 198.960938 277.054688 197.15625 277.367188 C 196.867188 277.429688 196.378906 277.535156 196.003906 277.800781 C 194.757812 278.6875 196.144531 280.316406 198.515625 280.753906 " fill-opacity="1" fill-rule="nonzero"/><path fill="#5ce1e6" d="M 212.546875 262.625 C 212.269531 261.488281 210.820312 259.988281 207.972656 260.523438 C 204.597656 261.417969 204.769531 264.203125 206.785156 265.371094 C 209.445312 266.917969 213.160156 265.144531 212.546875 262.625 " fill-opacity="1" fill-rule="nonzero"/><path fill="#5ce1e6" d="M 207.691406 161.433594 C 203.070312 162.71875 203.289062 168.421875 206.179688 170.574219 C 209.457031 173.011719 214.710938 170.269531 213.785156 165.46875 C 213.441406 163.679688 211.726562 160.53125 207.691406 161.433594 " fill-opacity="1" fill-rule="nonzero"/><path fill="#5ce1e6" d="M 130.609375 46.570312 C 129.210938 46.648438 123.789062 51.25 123.785156 52.367188 C 123.78125 52.925781 125.25 52.191406 127.710938 49.984375 C 127.746094 49.953125 131.253906 46.804688 130.609375 46.570312 " fill-opacity="1" fill-rule="nonzero"/><path fill="#5ce1e6" d="M 119.136719 51.515625 C 119.089844 51.984375 120.660156 51.070312 123.035156 49.242188 C 123.414062 48.953125 126.75 46.375 126.792969 45.859375 C 126.785156 45.847656 126.769531 45.835938 126.757812 45.824219 C 125.707031 45.757812 119.222656 50.601562 119.136719 51.515625 " fill-opacity="1" fill-rule="nonzero"/><path fill="#5ce1e6" d="M 212.921875 197.75 C 216.074219 200.0625 221.308594 197.511719 220.65625 192.914062 C 220.402344 191.132812 218.832031 188.011719 214.691406 188.9375 C 209.660156 190.582031 210.425781 195.925781 212.921875 197.75 " fill-opacity="1" fill-rule="nonzero"/><path fill="#5ce1e6" d="M 164.636719 98.074219 C 167.183594 100.171875 170.660156 97.671875 170.1875 94.082031 C 169.976562 92.460938 168.648438 90.054688 165.996094 90.496094 C 162.992188 91.195312 162.125 96.011719 164.636719 98.074219 " fill-opacity="1" fill-rule="nonzero"/><path fill="#5ce1e6" d="M 225.960938 217.671875 C 225.636719 215.371094 223.105469 213.871094 220.648438 214.527344 C 216.996094 215.710938 215.820312 219.886719 218.550781 221.96875 C 221.886719 224.511719 226.453125 221.21875 225.960938 217.671875 " fill-opacity="1" fill-rule="nonzero"/><path fill="#5ce1e6" d="M 198.964844 285.445312 C 200.023438 285.261719 200.167969 284.710938 199.3125 284.105469 C 198.613281 283.605469 196.804688 282.894531 194.929688 283.125 C 194.316406 283.21875 194.0625 283.40625 193.953125 283.546875 C 193.21875 284.492188 196.734375 285.820312 198.964844 285.445312 " fill-opacity="1" fill-rule="nonzero"/><path fill="#5ce1e6" d="M 140.140625 69.417969 C 141.101562 71.074219 143.597656 69.4375 144.375 66.640625 C 144.894531 64.777344 144.492188 62.835938 143.082031 63.023438 C 140.945312 63.519531 139.074219 67.582031 140.140625 69.417969 " fill-opacity="1" fill-rule="nonzero"/><path fill="#5ce1e6" d="M 215.992188 249.554688 C 213.179688 250.394531 212.078125 253.167969 213.929688 254.761719 C 216.53125 257.007812 220.695312 254.800781 220.503906 252.039062 C 220.378906 250.261719 218.148438 249.035156 215.992188 249.554688 " fill-opacity="1" fill-rule="nonzero"/><path fill="#5ce1e6" d="M 180.507812 108.203125 C 180.507812 108.203125 180.507812 108.203125 180.511719 108.203125 C 180.511719 108.203125 180.511719 108.203125 180.511719 108.199219 C 180.515625 108.203125 180.515625 108.199219 180.515625 108.199219 C 180.515625 108.199219 180.519531 108.199219 180.519531 108.199219 C 182.914062 107.421875 183.453125 105.003906 183.230469 103.574219 C 182.863281 101.207031 180.546875 99.449219 178.464844 99.949219 C 178.039062 100.085938 177.164062 100.363281 176.433594 101.5 C 174.40625 104.664062 176.957031 108.859375 180.507812 108.203125 " fill-opacity="1" fill-rule="nonzero"/><path fill="#5ce1e6" d="M 199.023438 143.050781 C 202.707031 145.828125 206.796875 142.453125 206.070312 138.519531 C 205.636719 136.167969 203.308594 134.015625 200.300781 134.628906 C 196.664062 135.835938 195.921875 140.714844 199.023438 143.050781 " fill-opacity="1" fill-rule="nonzero"/><path fill="#5ce1e6" d="M 116.671875 50 C 117 50.101562 119.304688 48.566406 120.277344 47.898438 C 120.320312 47.871094 124.351562 45.105469 124.464844 44.675781 C 123.683594 44.484375 116.617188 49.308594 116.671875 50 " fill-opacity="1" fill-rule="nonzero"/><path fill="#5ce1e6" d="M 141.015625 54.554688 C 139.402344 54.910156 136.9375 58.644531 137.570312 60.308594 C 138.128906 61.789062 140.339844 59.878906 141.304688 57.5625 C 141.925781 56.066406 141.933594 54.460938 141.015625 54.554688 " fill-opacity="1" fill-rule="nonzero"/><path fill="#5ce1e6" d="M 135.78125 46.820312 C 134.664062 46.847656 130.1875 51.066406 130.214844 52.429688 C 130.234375 53.300781 132.234375 51.828125 133.882812 50.027344 C 134.855469 48.960938 136.414062 46.925781 135.78125 46.820312 " fill-opacity="1" fill-rule="nonzero"/><path fill="#5ce1e6" d="M 199.320312 287.574219 C 198.222656 287.214844 196.183594 286.914062 195.097656 287.046875 C 194.894531 287.078125 194.5625 287.132812 194.511719 287.292969 C 194.28125 288.027344 199.148438 288.59375 200.039062 288.1875 C 200.398438 288.023438 199.902344 287.761719 199.320312 287.574219 " fill-opacity="1" fill-rule="nonzero"/><path fill="#5ce1e6" d="M 103.773438 55.578125 C 103.78125 55.5625 103.796875 55.539062 103.804688 55.519531 C 103.339844 55.726562 97.589844 60.996094 97.289062 61.640625 C 97.394531 61.5625 97.394531 61.5625 99.769531 59.355469 C 102.808594 56.527344 103.53125 55.855469 103.773438 55.578125 " fill-opacity="1" fill-rule="nonzero"/><path fill="#5ce1e6" d="M 108.539062 52.695312 C 112.277344 49.84375 112.558594 49.515625 112.765625 49.273438 C 112.367188 49.058594 105.9375 53.976562 105.886719 54.535156 C 105.953125 54.542969 106.101562 54.554688 108.539062 52.695312 " fill-opacity="1" fill-rule="nonzero"/><path fill="#5ce1e6" d="M 132.113281 43.507812 C 132.273438 43.703125 133.257812 43.160156 135.636719 41.570312 C 136.136719 41.234375 138.652344 39.542969 138.769531 39.222656 C 138.765625 39.214844 138.753906 39.207031 138.746094 39.203125 C 138.277344 39.140625 132.207031 42.699219 132.113281 43.507812 " fill-opacity="1" fill-rule="nonzero"/><path fill="#5ce1e6" d="M 229.449219 239.835938 C 229.449219 239.800781 229.261719 236.1875 225.269531 237.265625 C 220.671875 238.671875 222.664062 242.347656 223.097656 242.792969 C 224.582031 244.3125 229.242188 243.503906 229.449219 239.835938 " fill-opacity="1" fill-rule="nonzero"/><path fill="#5ce1e6" d="M 141.78125 46.773438 C 140.558594 47.015625 137.796875 50.457031 137.945312 51.550781 C 138.058594 52.382812 139.632812 51.480469 140.953125 49.535156 C 141.273438 49.0625 142.816406 46.71875 141.78125 46.773438 " fill-opacity="1" fill-rule="nonzero"/><g clip-path="url(#443cfea5f0)"><path fill="#5ce1e6" d="M 201.566406 289.167969 C 199.519531 289.082031 198.601562 289.070312 197.925781 289.125 C 197.578125 289.15625 197.566406 289.179688 197.546875 289.21875 C 198.003906 289.484375 202.292969 289.414062 202.914062 289.261719 C 202.875 289.234375 202.859375 289.222656 201.566406 289.167969 " fill-opacity="1" fill-rule="nonzero"/></g><path fill="#5ce1e6" d="M 229.144531 206.191406 C 229.757812 206.652344 231.445312 207.554688 233.847656 205.972656 C 234.632812 205.453125 235.902344 204.242188 235.578125 201.953125 C 235.152344 198.953125 232.738281 198.546875 230.800781 199.109375 C 226.898438 200.480469 227.300781 204.808594 229.144531 206.191406 " fill-opacity="1" fill-rule="nonzero"/><path fill="#5ce1e6" d="M 223.097656 180.132812 C 225.007812 181.71875 230.347656 180.816406 229.8125 175.679688 C 229.808594 175.632812 229.125 171.023438 224.640625 172.167969 C 219.847656 173.605469 221.492188 178.800781 223.097656 180.132812 " fill-opacity="1" fill-rule="nonzero"/><path fill="#5ce1e6" d="M 216.023438 152.601562 C 216.390625 152.851562 218.34375 154.027344 220.566406 152.488281 C 221.539062 151.8125 222.601562 150.550781 222.128906 148.371094 C 221.519531 145.539062 219.492188 144.25 216.835938 145.015625 C 212.941406 146.410156 213.820312 151.097656 216.023438 152.601562 " fill-opacity="1" fill-rule="nonzero"/><path fill="#5ce1e6" d="M 192.304688 116.835938 C 194.523438 118.128906 198.496094 116.929688 197.636719 112.945312 C 197.191406 110.882812 195.441406 109.074219 192.953125 109.609375 C 189.042969 110.707031 190.0625 115.527344 192.304688 116.835938 " fill-opacity="1" fill-rule="nonzero"/><path fill="#5ce1e6" d="M 123.410156 43.320312 C 123.410156 43.308594 123.398438 43.300781 123.390625 43.292969 C 122.75 43.308594 117.222656 46.679688 116.457031 47.679688 C 116.792969 47.636719 117.582031 47.191406 119.597656 45.917969 C 122.453125 44.109375 123.308594 43.527344 123.410156 43.320312 " fill-opacity="1" fill-rule="nonzero"/><path fill="#5ce1e6" d="M 209.039062 280.917969 C 208.824219 280.96875 208.464844 281.050781 208.203125 281.234375 C 207.558594 281.6875 207.78125 282.632812 209.414062 283.007812 C 210.808594 283.328125 212.714844 282.8125 212.070312 281.761719 C 211.675781 281.121094 210.582031 280.609375 209.039062 280.917969 " fill-opacity="1" fill-rule="nonzero"/><path fill="#5ce1e6" d="M 136.253906 43.96875 C 136.773438 43.78125 137.488281 43.417969 139.171875 42.070312 C 140.546875 40.96875 142.121094 39.640625 141.804688 39.566406 C 141.800781 39.566406 141.796875 39.566406 141.796875 39.566406 C 141.109375 39.601562 135.667969 43.402344 136.253906 43.96875 " fill-opacity="1" fill-rule="nonzero"/><path fill="#5ce1e6" d="M 129.515625 42.671875 C 130.097656 42.511719 131.03125 42.027344 133.078125 40.828125 C 136.535156 38.804688 136.578125 38.683594 136.617188 38.574219 C 136.109375 38.503906 129.921875 41.867188 129.515625 42.671875 " fill-opacity="1" fill-rule="nonzero"/><path fill="#5ce1e6" d="M 213.707031 274.457031 C 213.601562 274.480469 213.496094 274.507812 213.390625 274.539062 C 212.007812 274.96875 211.289062 276.378906 213.042969 277.238281 C 214.589844 277.996094 217.199219 277.082031 216.726562 275.605469 C 216.636719 275.332031 216.082031 273.988281 213.707031 274.457031 " fill-opacity="1" fill-rule="nonzero"/><path fill="#5ce1e6" d="M 153.945312 66.414062 C 154.710938 67.402344 157.007812 67.089844 157.273438 63.976562 C 157.277344 63.945312 157.261719 61.195312 155.433594 61.453125 C 153.351562 61.902344 153.074219 65.289062 153.945312 66.414062 " fill-opacity="1" fill-rule="nonzero"/><path fill="#5ce1e6" d="M 162.019531 75.015625 C 162.03125 75.023438 163.203125 75.992188 164.300781 75.21875 C 164.699219 74.941406 165.746094 74.203125 165.632812 72.472656 C 165.625 72.339844 165.390625 69.261719 163.003906 69.667969 C 160.667969 70.214844 160.609375 73.820312 162.019531 75.015625 " fill-opacity="1" fill-rule="nonzero"/><path fill="#5ce1e6" d="M 220.242188 266.234375 C 217.917969 266.886719 217.816406 268.707031 218.984375 269.550781 C 220.289062 270.496094 223.503906 269.636719 223.238281 267.589844 C 223.074219 266.339844 221.925781 265.820312 220.242188 266.234375 " fill-opacity="1" fill-rule="nonzero"/><path fill="#5ce1e6" d="M 208.132812 125.867188 C 209.921875 127.003906 213.894531 126.25 213.210938 122.183594 C 213.097656 121.515625 211.835938 118.324219 208.5625 119.273438 C 204.785156 120.566406 206.566406 124.871094 208.132812 125.867188 " fill-opacity="1" fill-rule="nonzero"/><path fill="#5ce1e6" d="M 235.398438 223.472656 C 231.578125 224.757812 232.554688 228.054688 233.160156 228.824219 C 234.582031 230.640625 238.972656 229.523438 239.203125 225.902344 C 239.238281 225.339844 238.6875 222.515625 235.398438 223.472656 " fill-opacity="1" fill-rule="nonzero"/><path fill="#5ce1e6" d="M 111.261719 49.285156 C 114.300781 47.050781 114.300781 47.050781 114.484375 46.890625 C 114.503906 46.871094 114.527344 46.847656 114.539062 46.824219 C 114.054688 47.03125 109.683594 50.285156 109.34375 50.695312 C 110.023438 50.277344 110.621094 49.757812 111.261719 49.285156 " fill-opacity="1" fill-rule="nonzero"/><g clip-path="url(#4873a6205b)"><path fill="#5ce1e6" d="M 135.253906 37.796875 C 135.019531 37.667969 129.464844 40.386719 128.808594 41.109375 C 128.988281 41.160156 129.839844 40.742188 131.804688 39.71875 C 134.558594 38.285156 135.171875 37.945312 135.253906 37.796875 " fill-opacity="1" fill-rule="nonzero"/></g><path fill="#5ce1e6" d="M 208.933594 286.675781 C 209.855469 286.546875 210.035156 286.308594 209.507812 285.925781 C 209.496094 285.917969 208.34375 285.199219 206.691406 285.492188 C 206.492188 285.53125 206.082031 285.613281 205.953125 285.789062 C 205.636719 286.210938 207.320312 286.902344 208.933594 286.675781 " fill-opacity="1" fill-rule="nonzero"/><path fill="#5ce1e6" d="M 151.570312 55.941406 C 151.769531 54.835938 151.769531 53.542969 150.636719 53.679688 C 148.910156 54.007812 148.226562 57.296875 148.851562 58.109375 C 149.441406 58.871094 151.140625 58.320312 151.570312 55.941406 " fill-opacity="1" fill-rule="nonzero"/><path fill="#5ce1e6" d="M 231.335938 257.800781 C 231.308594 256.976562 230.910156 255.675781 228.554688 256.246094 C 225.113281 257.304688 226.523438 259.691406 226.839844 259.976562 C 227.984375 261.011719 231.414062 260.058594 231.335938 257.800781 " fill-opacity="1" fill-rule="nonzero"/><path fill="#5ce1e6" d="M 143.96875 41.765625 C 144.035156 41.699219 144.125 41.609375 144.191406 41.535156 C 145.777344 39.898438 145.679688 39.710938 145.472656 39.71875 C 144.65625 39.84375 141.503906 42.761719 141.457031 43.429688 C 141.4375 43.734375 142.039062 43.734375 143.96875 41.765625 " fill-opacity="1" fill-rule="nonzero"/><path fill="#5ce1e6" d="M 172.621094 83.675781 C 174.105469 84.65625 176.925781 83.726562 176.316406 80.765625 C 175.996094 79.222656 174.988281 77.738281 173.125 78.191406 C 170.289062 79.039062 171.269531 82.78125 172.621094 83.675781 " fill-opacity="1" fill-rule="nonzero"/><path fill="#5ce1e6" d="M 185.359375 92.207031 C 187.140625 93.25 189.839844 91.957031 189.027344 89.226562 C 188.699219 88.117188 187.808594 86.332031 185.566406 86.839844 C 182.667969 87.644531 183.90625 91.355469 185.359375 92.207031 " fill-opacity="1" fill-rule="nonzero"/><path fill="#5ce1e6" d="M 232.855469 161.453125 C 234.449219 162.910156 238.53125 162.429688 238.175781 157.839844 C 238.078125 156.546875 236.511719 155.492188 236.492188 155.484375 C 235.488281 154.855469 234.539062 155.117188 234.027344 155.253906 C 230.515625 156.410156 231.507812 160.21875 232.855469 161.453125 " fill-opacity="1" fill-rule="nonzero"/><path fill="#5ce1e6" d="M 206.738281 288.101562 C 206.597656 288.125 206.308594 288.175781 206.316406 288.25 C 206.324219 288.355469 206.996094 288.472656 208.058594 288.480469 C 208.582031 288.484375 209.804688 288.410156 209.863281 288.273438 C 209.832031 288.242188 209.773438 288.214844 209.363281 288.148438 C 209.347656 288.144531 207.875 287.929688 206.738281 288.101562 " fill-opacity="1" fill-rule="nonzero"/><path fill="#5ce1e6" d="M 146.585938 49.988281 C 146.65625 50.191406 146.894531 50.609375 147.535156 50.132812 C 147.890625 49.871094 148.417969 49.394531 148.851562 48.3125 C 149.167969 47.535156 149.570312 46.242188 148.765625 46.300781 C 147.691406 46.472656 146.28125 49.132812 146.585938 49.988281 " fill-opacity="1" fill-rule="nonzero"/><path fill="#5ce1e6" d="M 239.796875 188.871094 C 240.679688 189.484375 242.425781 189.511719 243.039062 189.085938 C 243.613281 188.6875 245.359375 187.46875 245.003906 185.242188 C 244.714844 183.449219 243.394531 181.96875 241.085938 182.707031 C 237.441406 184.046875 238.492188 187.957031 239.796875 188.871094 " fill-opacity="1" fill-rule="nonzero"/><path fill="#5ce1e6" d="M 120.621094 43.617188 C 120.648438 43.601562 123.523438 41.925781 123.84375 41.621094 C 123.84375 41.613281 123.84375 41.601562 123.84375 41.589844 C 123.371094 41.671875 119.023438 44.1875 118.449219 44.792969 C 118.449219 44.800781 118.453125 44.8125 118.453125 44.816406 C 118.636719 44.769531 119.164062 44.464844 120.621094 43.617188 " fill-opacity="1" fill-rule="nonzero"/><path fill="#5ce1e6" d="M 246.003906 208.574219 C 243.292969 209.464844 243.042969 212.265625 244.324219 213.550781 C 245.746094 214.980469 249.140625 213.453125 249.09375 210.824219 C 249.082031 210.304688 248.890625 207.75 246.003906 208.574219 " fill-opacity="1" fill-rule="nonzero"/><path fill="#5ce1e6" d="M 240.570312 246.265625 C 240.578125 245.59375 240.347656 244.089844 238.09375 244.683594 C 235.460938 245.476562 235.527344 247.710938 236.261719 248.484375 C 237.378906 249.660156 240.550781 248.371094 240.570312 246.265625 " fill-opacity="1" fill-rule="nonzero"/><path fill="#5ce1e6" d="M 224.988281 134.496094 C 226.839844 135.671875 230.035156 134.230469 229.230469 131.328125 C 229.023438 130.578125 228.132812 128.1875 225.394531 128.949219 C 222.308594 129.972656 223.464844 133.53125 224.988281 134.496094 " fill-opacity="1" fill-rule="nonzero"/><path fill="#5ce1e6" d="M 199.800781 100.511719 C 201.132812 101.355469 204.03125 100.824219 203.328125 97.875 C 203.320312 97.847656 202.5 94.914062 199.882812 95.679688 C 197.011719 96.664062 198.773438 99.859375 199.800781 100.511719 " fill-opacity="1" fill-rule="nonzero"/><path fill="#5ce1e6" d="M 149.144531 41.273438 C 149.265625 41.101562 150.335938 39.625 149.8125 39.625 C 149.042969 39.789062 147.421875 42.003906 147.449219 42.492188 C 147.453125 42.5 147.679688 43.261719 149.144531 41.273438 " fill-opacity="1" fill-rule="nonzero"/><path fill="#5ce1e6" d="M 218.648438 283.375 C 218.566406 283.394531 218.488281 283.414062 218.40625 283.441406 C 217.671875 283.691406 217.855469 284.070312 218.210938 284.25 C 218.792969 284.542969 220.226562 284.304688 220.023438 283.679688 C 220.019531 283.675781 219.714844 283.160156 218.648438 283.375 " fill-opacity="1" fill-rule="nonzero"/><path fill="#5ce1e6" d="M 248.339844 231.78125 C 246.9375 232.292969 245.953125 234.03125 246.859375 235.109375 C 247.785156 236.199219 250.28125 235.183594 250.464844 233.21875 C 250.601562 231.71875 249.496094 231.414062 248.339844 231.78125 " fill-opacity="1" fill-rule="nonzero"/><path fill="#5ce1e6" d="M 215.851562 108.683594 C 217.542969 109.523438 219.441406 108.191406 218.648438 106.140625 C 218.132812 104.800781 216.949219 104.171875 215.703125 104.570312 C 213.425781 105.425781 214.621094 108.074219 215.851562 108.683594 " fill-opacity="1" fill-rule="nonzero"/><path fill="#5ce1e6" d="M 223.484375 278.160156 C 222.402344 278.433594 222.226562 279.113281 222.585938 279.464844 C 223.207031 280.070312 224.921875 279.535156 224.882812 278.75 C 224.863281 278.417969 224.550781 277.925781 223.484375 278.160156 " fill-opacity="1" fill-rule="nonzero"/><path fill="#5ce1e6" d="M 250.132812 170.167969 C 251.195312 170.960938 253.691406 170.058594 253.328125 167.765625 C 253.144531 166.621094 252.550781 165.371094 250.761719 165.925781 C 248.429688 166.757812 249.136719 169.425781 250.132812 170.167969 " fill-opacity="1" fill-rule="nonzero"/><path fill="#5ce1e6" d="M 256.46875 192.824219 C 254.226562 193.625 254.746094 196.070312 255.507812 196.621094 C 255.515625 196.628906 256.488281 197.28125 257.683594 196.398438 C 257.949219 196.199219 258.765625 195.597656 258.636719 194.308594 C 258.558594 193.523438 258.179688 192.289062 256.46875 192.824219 " fill-opacity="1" fill-rule="nonzero"/><path fill="#5ce1e6" d="M 230.199219 271.117188 C 228.535156 271.613281 229.183594 272.738281 229.191406 272.75 C 229.621094 273.289062 231.464844 272.878906 231.566406 271.785156 C 231.59375 271.464844 231.519531 270.761719 230.199219 271.117188 " fill-opacity="1" fill-rule="nonzero"/><path fill="#5ce1e6" d="M 178.769531 70.011719 C 179.507812 70.433594 181.050781 70.007812 180.535156 68.398438 C 180.371094 67.886719 179.863281 66.726562 178.675781 67.042969 C 177.070312 67.5625 178.058594 69.609375 178.769531 70.011719 " fill-opacity="1" fill-rule="nonzero"/><path fill="#5ce1e6" d="M 217.316406 286.664062 C 217.175781 286.597656 216.773438 286.457031 216.074219 286.601562 C 215.960938 286.625 215.726562 286.675781 215.683594 286.753906 C 215.574219 286.957031 216.652344 287.074219 217.257812 286.867188 C 217.449219 286.804688 217.46875 286.738281 217.316406 286.664062 " fill-opacity="1" fill-rule="nonzero"/><path fill="#5ce1e6" d="M 168.351562 62.375 C 168.882812 62.824219 170.34375 62.773438 170.136719 61.015625 C 170.132812 60.996094 169.847656 59.273438 168.558594 59.582031 C 167.292969 59.964844 167.742188 61.855469 168.351562 62.375 " fill-opacity="1" fill-rule="nonzero"/><path fill="#5ce1e6" d="M 156.957031 46.871094 C 157.023438 46.464844 157.105469 45.527344 156.476562 45.613281 C 155.667969 45.789062 155.476562 47.441406 155.789062 47.8125 C 156.082031 48.152344 156.789062 47.9375 156.957031 46.871094 " fill-opacity="1" fill-rule="nonzero"/><path fill="#5ce1e6" d="M 160.695312 54.996094 C 160.855469 55.128906 161.28125 55.394531 161.777344 54.945312 C 161.988281 54.753906 162.230469 54.375 162.171875 53.65625 C 162.144531 53.3125 161.988281 52.195312 161.113281 52.382812 C 159.972656 52.707031 160.199219 54.574219 160.695312 54.996094 " fill-opacity="1" fill-rule="nonzero"/><path fill="#5ce1e6" d="M 242.304688 142.828125 C 243.214844 143.367188 245.675781 142.949219 245.128906 140.429688 C 245.125 140.40625 244.566406 138.261719 242.5625 138.875 C 240.285156 139.6875 241.367188 142.273438 242.304688 142.828125 " fill-opacity="1" fill-rule="nonzero"/><path fill="#5ce1e6" d="M 191.460938 77.542969 C 192.335938 77.871094 192.566406 77.613281 192.863281 77.289062 C 193.007812 77.125 193.3125 76.664062 192.980469 75.863281 C 192.613281 74.980469 191.8125 74.523438 191.03125 74.75 C 190.992188 74.761719 190.941406 74.777344 190.90625 74.792969 C 189.867188 75.234375 190.242188 77.085938 191.460938 77.542969 " fill-opacity="1" fill-rule="nonzero"/><path fill="#5ce1e6" d="M 238.734375 262.144531 C 237.566406 262.5 237.207031 263.460938 237.535156 263.9375 C 237.84375 264.390625 238.765625 264.164062 238.777344 264.160156 C 238.785156 264.15625 239.757812 263.640625 239.894531 262.980469 C 239.960938 262.667969 239.890625 261.84375 238.734375 262.144531 " fill-opacity="1" fill-rule="nonzero"/><path fill="#5ce1e6" d="M 248.410156 251.59375 C 247.222656 252.015625 247.304688 253.023438 247.460938 253.238281 C 247.792969 253.679688 249.132812 253.265625 249.335938 252.320312 C 249.375 252.136719 249.515625 251.242188 248.410156 251.59375 " fill-opacity="1" fill-rule="nonzero"/><g clip-path="url(#9fb65b0bc9)"><path fill="#5ce1e6" d="M 259.148438 217.648438 C 257.941406 218.078125 257.691406 219.515625 258.230469 220.109375 C 258.828125 220.769531 260.53125 219.925781 260.585938 218.667969 C 260.609375 218.105469 260.453125 217.226562 259.148438 217.648438 " fill-opacity="1" fill-rule="nonzero"/></g><path fill="#5ce1e6" d="M 232.699219 116.503906 C 233.5625 116.9375 235.125 116.253906 234.558594 114.796875 C 234.339844 114.230469 233.800781 113.335938 232.65625 113.6875 C 230.976562 114.289062 231.960938 116.132812 232.699219 116.503906 " fill-opacity="1" fill-rule="nonzero"/><path fill="#5ce1e6" d="M 205.820312 84.835938 C 205.882812 84.859375 206.433594 85.0625 206.804688 84.707031 C 207.109375 84.417969 207.179688 84.074219 207.019531 83.6875 C 207.015625 83.671875 206.527344 82.511719 205.523438 82.78125 C 205.476562 82.796875 205.425781 82.816406 205.378906 82.835938 C 204.441406 83.277344 205.121094 84.558594 205.820312 84.835938 " fill-opacity="1" fill-rule="nonzero"/><g fill="#5ce1e6" fill-opacity="1"><g transform="translate(93.471146, 317.31405)"><g><path d="M 17.078125 -16.6875 L 17.078125 0 L 13.96875 0 L 13.96875 -7.15625 L 5.34375 -7.15625 L 5.34375 0 L 2.234375 0 L 2.234375 -16.6875 L 5.34375 -16.6875 L 5.34375 -9.796875 L 13.96875 -9.796875 L 13.96875 -16.6875 Z M 17.078125 -16.6875 "/></g></g></g><g fill="#5ce1e6" fill-opacity="1"><g transform="translate(112.774059, 317.31405)"><g><path d="M 13.0625 -3.859375 L 4.71875 -3.859375 L 3.078125 0 L -0.125 0 L 7.390625 -16.6875 L 10.4375 -16.6875 L 17.984375 0 L 14.734375 0 Z M 12.046875 -6.296875 L 8.890625 -13.59375 L 5.765625 -6.296875 Z M 12.046875 -6.296875 "/></g></g></g><g fill="#5ce1e6" fill-opacity="1"><g transform="translate(130.623302, 317.31405)"><g><path d="M 13.15625 0 L 9.75 -4.890625 C 9.601562 -4.867188 9.390625 -4.859375 9.109375 -4.859375 L 5.34375 -4.859375 L 5.34375 0 L 2.234375 0 L 2.234375 -16.6875 L 9.109375 -16.6875 C 10.554688 -16.6875 11.816406 -16.445312 12.890625 -15.96875 C 13.960938 -15.5 14.785156 -14.816406 15.359375 -13.921875 C 15.929688 -13.035156 16.21875 -11.976562 16.21875 -10.75 C 16.21875 -9.5 15.910156 -8.421875 15.296875 -7.515625 C 14.679688 -6.609375 13.800781 -5.929688 12.65625 -5.484375 L 16.5 0 Z M 13.09375 -10.75 C 13.09375 -11.8125 12.738281 -12.628906 12.03125 -13.203125 C 11.332031 -13.773438 10.3125 -14.0625 8.96875 -14.0625 L 5.34375 -14.0625 L 5.34375 -7.421875 L 8.96875 -7.421875 C 10.3125 -7.421875 11.332031 -7.707031 12.03125 -8.28125 C 12.738281 -8.863281 13.09375 -9.6875 13.09375 -10.75 Z M 13.09375 -10.75 "/></g></g></g><g fill="#5ce1e6" fill-opacity="1"><g transform="translate(148.043591, 317.31405)"><g><path d="M 9.109375 -16.6875 C 10.554688 -16.6875 11.816406 -16.445312 12.890625 -15.96875 C 13.960938 -15.5 14.785156 -14.816406 15.359375 -13.921875 C 15.929688 -13.035156 16.21875 -11.976562 16.21875 -10.75 C 16.21875 -9.539062 15.929688 -8.488281 15.359375 -7.59375 C 14.785156 -6.695312 13.960938 -6.007812 12.890625 -5.53125 C 11.816406 -5.050781 10.554688 -4.8125 9.109375 -4.8125 L 5.34375 -4.8125 L 5.34375 0 L 2.234375 0 L 2.234375 -16.6875 Z M 8.96875 -7.4375 C 10.3125 -7.4375 11.332031 -7.722656 12.03125 -8.296875 C 12.738281 -8.867188 13.09375 -9.6875 13.09375 -10.75 C 13.09375 -11.8125 12.738281 -12.628906 12.03125 -13.203125 C 11.332031 -13.773438 10.3125 -14.0625 8.96875 -14.0625 L 5.34375 -14.0625 L 5.34375 -7.4375 Z M 8.96875 -7.4375 "/></g></g></g><g fill="#5ce1e6" fill-opacity="1"><g transform="translate(165.34472, 317.31405)"><g><path d="M 2.234375 -16.6875 L 5.34375 -16.6875 L 5.34375 -2.625 L 14.0625 -2.625 L 14.0625 0 L 2.234375 0 Z M 2.234375 -16.6875 "/></g></g></g><g fill="#5ce1e6" fill-opacity="1"><g transform="translate(179.61935, 317.31405)"><g><path d="M 13.0625 -3.859375 L 4.71875 -3.859375 L 3.078125 0 L -0.125 0 L 7.390625 -16.6875 L 10.4375 -16.6875 L 17.984375 0 L 14.734375 0 Z M 12.046875 -6.296875 L 8.890625 -13.59375 L 5.765625 -6.296875 Z M 12.046875 -6.296875 "/></g></g></g><g fill="#5ce1e6" fill-opacity="1"><g transform="translate(197.468593, 317.31405)"><g><path d="M 14.0625 -8.671875 C 14.988281 -8.367188 15.722656 -7.863281 16.265625 -7.15625 C 16.804688 -6.457031 17.078125 -5.582031 17.078125 -4.53125 C 17.078125 -3.082031 16.519531 -1.960938 15.40625 -1.171875 C 14.289062 -0.390625 12.664062 0 10.53125 0 L 2.234375 0 L 2.234375 -16.6875 L 10.0625 -16.6875 C 12.03125 -16.6875 13.546875 -16.300781 14.609375 -15.53125 C 15.679688 -14.757812 16.21875 -13.695312 16.21875 -12.34375 C 16.21875 -11.519531 16.023438 -10.789062 15.640625 -10.15625 C 15.253906 -9.519531 14.726562 -9.023438 14.0625 -8.671875 Z M 5.34375 -14.265625 L 5.34375 -9.65625 L 9.734375 -9.65625 C 10.804688 -9.65625 11.632812 -9.847656 12.21875 -10.234375 C 12.800781 -10.628906 13.09375 -11.203125 13.09375 -11.953125 C 13.09375 -12.710938 12.800781 -13.285156 12.21875 -13.671875 C 11.632812 -14.066406 10.804688 -14.265625 9.734375 -14.265625 Z M 10.34375 -2.4375 C 12.75 -2.4375 13.953125 -3.238281 13.953125 -4.84375 C 13.953125 -6.445312 12.75 -7.25 10.34375 -7.25 L 5.34375 -7.25 L 5.34375 -2.4375 Z M 10.34375 -2.4375 "/></g></g></g><g fill="#5ce1e6" fill-opacity="1"><g transform="translate(215.603805, 317.31405)"><g><path d="M 7.421875 0.234375 C 6.128906 0.234375 4.882812 0.0507812 3.6875 -0.3125 C 2.488281 -0.675781 1.535156 -1.160156 0.828125 -1.765625 L 1.90625 -4.171875 C 2.59375 -3.628906 3.429688 -3.1875 4.421875 -2.84375 C 5.410156 -2.507812 6.410156 -2.34375 7.421875 -2.34375 C 8.660156 -2.34375 9.582031 -2.539062 10.1875 -2.9375 C 10.800781 -3.332031 11.109375 -3.851562 11.109375 -4.5 C 11.109375 -4.976562 10.9375 -5.375 10.59375 -5.6875 C 10.25 -6 9.816406 -6.238281 9.296875 -6.40625 C 8.773438 -6.582031 8.0625 -6.785156 7.15625 -7.015625 C 5.882812 -7.316406 4.851562 -7.617188 4.0625 -7.921875 C 3.28125 -8.222656 2.601562 -8.691406 2.03125 -9.328125 C 1.46875 -9.972656 1.1875 -10.847656 1.1875 -11.953125 C 1.1875 -12.867188 1.4375 -13.703125 1.9375 -14.453125 C 2.4375 -15.210938 3.191406 -15.8125 4.203125 -16.25 C 5.210938 -16.695312 6.453125 -16.921875 7.921875 -16.921875 C 8.929688 -16.921875 9.929688 -16.796875 10.921875 -16.546875 C 11.910156 -16.296875 12.757812 -15.929688 13.46875 -15.453125 L 12.5 -13.046875 C 11.757812 -13.472656 10.992188 -13.796875 10.203125 -14.015625 C 9.410156 -14.242188 8.640625 -14.359375 7.890625 -14.359375 C 6.671875 -14.359375 5.757812 -14.148438 5.15625 -13.734375 C 4.5625 -13.316406 4.265625 -12.769531 4.265625 -12.09375 C 4.265625 -11.613281 4.4375 -11.222656 4.78125 -10.921875 C 5.125 -10.617188 5.554688 -10.378906 6.078125 -10.203125 C 6.597656 -10.023438 7.3125 -9.828125 8.21875 -9.609375 C 9.457031 -9.328125 10.472656 -9.03125 11.265625 -8.71875 C 12.066406 -8.40625 12.75 -7.929688 13.3125 -7.296875 C 13.875 -6.660156 14.15625 -5.800781 14.15625 -4.71875 C 14.15625 -3.800781 13.90625 -2.96875 13.40625 -2.21875 C 12.90625 -1.46875 12.144531 -0.867188 11.125 -0.421875 C 10.113281 0.015625 8.878906 0.234375 7.421875 0.234375 Z M 7.421875 0.234375 "/></g></g></g><g fill="#5ce1e6" fill-opacity="1"><g transform="translate(230.593357, 317.31405)"><g><path d="M 9.109375 -16.6875 C 10.554688 -16.6875 11.816406 -16.445312 12.890625 -15.96875 C 13.960938 -15.5 14.785156 -14.816406 15.359375 -13.921875 C 15.929688 -13.035156 16.21875 -11.976562 16.21875 -10.75 C 16.21875 -9.539062 15.929688 -8.488281 15.359375 -7.59375 C 14.785156 -6.695312 13.960938 -6.007812 12.890625 -5.53125 C 11.816406 -5.050781 10.554688 -4.8125 9.109375 -4.8125 L 5.34375 -4.8125 L 5.34375 0 L 2.234375 0 L 2.234375 -16.6875 Z M 8.96875 -7.4375 C 10.3125 -7.4375 11.332031 -7.722656 12.03125 -8.296875 C 12.738281 -8.867188 13.09375 -9.6875 13.09375 -10.75 C 13.09375 -11.8125 12.738281 -12.628906 12.03125 -13.203125 C 11.332031 -13.773438 10.3125 -14.0625 8.96875 -14.0625 L 5.34375 -14.0625 L 5.34375 -7.4375 Z M 8.96875 -7.4375 "/></g></g></g><g fill="#5ce1e6" fill-opacity="1"><g transform="translate(247.894487, 317.31405)"><g><path d="M 13.0625 -3.859375 L 4.71875 -3.859375 L 3.078125 0 L -0.125 0 L 7.390625 -16.6875 L 10.4375 -16.6875 L 17.984375 0 L 14.734375 0 Z M 12.046875 -6.296875 L 8.890625 -13.59375 L 5.765625 -6.296875 Z M 12.046875 -6.296875 "/></g></g></g><g fill="#5ce1e6" fill-opacity="1"><g transform="translate(265.74373, 317.31405)"><g><path d="M 9.4375 -5.890625 L 9.4375 0 L 6.34375 0 L 6.34375 -5.84375 L -0.21875 -16.6875 L 3.09375 -16.6875 L 7.984375 -8.5625 L 12.921875 -16.6875 L 15.96875 -16.6875 Z M 9.4375 -5.890625 "/></g></g></g></svg>
