<svg width="144" height="39" viewBox="0 0 144 39" fill="none" xmlns="http://www.w3.org/2000/svg">
<g opacity="0.96">
<path d="M51.5147 5C48.4686 5 45.5473 6.21005 43.3934 8.36396L36.364 15.3934C34.2101 17.5473 33 20.4686 33 23.5147C33 29.8579 38.1421 35 44.4853 35C47.5314 35 50.4527 33.7899 52.6066 31.636L57.4689 26.7737C57.469 26.7738 57.4689 26.7736 57.4689 26.7737L71.636 12.6066C72.6647 11.5779 74.0599 11 75.5147 11C77.9503 11 80.0152 12.5874 80.7311 14.7841L85.2022 10.313C83.1625 7.11834 79.586 5 75.5147 5C72.4686 5 69.5473 6.21005 67.3934 8.36396L48.364 27.3934C47.3353 28.4221 45.9401 29 44.4853 29C41.4558 29 39 26.5442 39 23.5147C39 22.0599 39.5779 20.6647 40.6066 19.636L47.636 12.6066C48.6647 11.5779 50.0599 11 51.5147 11C53.9504 11 56.0152 12.5875 56.7311 14.7842L61.2023 10.3131C59.1626 7.1184 55.5861 5 51.5147 5Z" fill="#0F0F0F"/>
<path d="M72.364 27.3934C71.3353 28.4221 69.9401 29 68.4853 29C66.05 29 63.9853 27.413 63.2692 25.2167L58.7982 29.6877C60.838 32.8819 64.4143 35 68.4853 35C71.5314 35 74.4527 33.7899 76.6066 31.636L95.636 12.6066C96.6647 11.5779 98.0599 11 99.5147 11C102.544 11 105 13.4558 105 16.4853C105 17.9401 104.422 19.3353 103.393 20.364L96.364 27.3934C95.3353 28.4221 93.9401 29 92.4853 29C90.0498 29 87.985 27.4127 87.269 25.2162L82.798 29.6873C84.8377 32.8818 88.4141 35 92.4853 35C95.5314 35 98.4527 33.7899 100.607 31.636L107.636 24.6066C109.79 22.4527 111 19.5314 111 16.4853C111 10.1421 105.858 5 99.5147 5C96.4686 5 93.5473 6.21005 91.3934 8.36396L72.364 27.3934Z" fill="#0F0F0F"/>
</g>
</svg>
