<svg width="144" height="39" viewBox="0 0 144 39" fill="none" xmlns="http://www.w3.org/2000/svg">
<path fill-rule="evenodd" clip-rule="evenodd" d="M49.683 7.7778C49.683 6.86391 50.432 6.12305 51.3559 6.12305H54.2702C54.9278 6.12305 55.5651 6.34846 56.0736 6.76092L56.9601 7.48004L56.9823 7.50004C57.0027 7.49322 57.0232 7.48655 57.0437 7.48004C58.6431 6.97331 60.5836 6.87694 62.5642 6.87694C64.5448 6.87694 66.4854 6.97331 68.0848 7.48004C68.1053 7.48655 68.1258 7.49322 68.1462 7.50004L68.1684 7.48004L69.0549 6.76092C69.5634 6.34846 70.2007 6.12305 70.8582 6.12305H73.7725C74.6965 6.12305 75.4454 6.86391 75.4454 7.7778V8.80074C75.4454 9.59219 75.1084 10.347 74.5169 10.8801L73.8017 11.5247C73.4526 11.8394 73.0335 12.0684 72.5784 12.1933L72.4092 12.2397C73.0719 13.8038 73.438 15.4757 73.438 16.8282C73.438 22.2688 70.0348 24.6185 67.0362 26.6889C64.6747 28.3194 62.5642 29.7765 62.5642 32.4336C62.5642 29.7765 60.4537 28.3194 58.0923 26.6889C55.0937 24.6185 51.6905 22.2688 51.6905 16.8282C51.6905 15.4757 52.0566 13.8038 52.7193 12.2397L52.5501 12.1933C52.0949 12.0684 51.6759 11.8394 51.3267 11.5247L50.6115 10.8801C50.0201 10.347 49.683 9.59219 49.683 8.80074V7.7778ZM64.739 21.2761C64.739 21.5361 64.6244 21.7853 64.4205 21.9691C64.2166 22.1529 63.94 22.2562 63.6516 22.2562C63.4026 22.2562 63.1624 22.1792 62.9702 22.0398C63.2974 22.9061 64.1346 23.7269 65.4081 22.4069C66.5324 21.1804 65.3582 18.5935 64.2142 17.0584C63.8329 16.5467 63.2069 16.3005 62.5642 16.3005C61.9216 16.3005 61.2956 16.5467 60.9143 17.0584C59.7703 18.5935 58.5961 21.1804 59.7203 22.4069C60.9938 23.7269 61.8311 22.9061 62.1583 22.0398C61.9661 22.1792 61.7259 22.2562 61.4769 22.2562C61.1885 22.2562 60.9119 22.1529 60.708 21.9691C60.5041 21.7853 60.3895 21.5361 60.3895 21.2761H64.739ZM58.4001 13.6184H55.3709L57.7582 15.5092C58.2836 15.9253 59.0514 15.7923 59.3765 15.2289C59.787 14.5176 59.2418 13.6184 58.4001 13.6184ZM66.7283 13.6184H69.7576L67.3703 15.5092C66.8449 15.9253 66.077 15.7923 65.752 15.2289C65.3415 14.5176 65.8867 13.6184 66.7283 13.6184Z" fill="#0F0F0F"/>
<path d="M79.0541 24.7597H81.7378V14.6367H79.0541V24.7597ZM79.0541 13.0581H81.7378V10.6506H79.0541V13.0581Z" fill="#0F0F0F"/>
<path d="M83.467 28.0747H86.1507V23.6151H86.1902C86.7624 24.4833 87.6899 25.0556 89.1107 25.0556C91.7154 25.0556 93.4914 22.9836 93.4914 19.708C93.4914 16.5507 91.7746 14.3604 89.0909 14.3604C87.7096 14.3604 86.7624 15.0115 86.1113 15.8995H86.0521V14.6366H83.467V28.0747ZM88.5384 22.8258C86.94 22.8258 86.0915 21.6221 86.0915 19.7869C86.0915 17.9715 86.7624 16.531 88.4397 16.531C90.0973 16.531 90.7682 17.8728 90.7682 19.7869C90.7682 21.701 89.9 22.8258 88.5384 22.8258Z" fill="#0F0F0F"/>
<path d="M98.8449 25.0556C101.371 25.0556 103.107 23.8322 103.107 21.7997C103.107 19.4317 101.233 18.9581 99.5356 18.6029C98.0951 18.3069 96.7532 18.228 96.7532 17.3598C96.7532 16.6296 97.4439 16.235 98.4897 16.235C99.6342 16.235 100.325 16.6296 100.443 17.7149H102.87C102.673 15.6825 101.193 14.3604 98.5292 14.3604C96.2204 14.3604 94.405 15.4062 94.405 17.5966C94.405 19.8066 96.181 20.3 97.9964 20.6552C99.3777 20.9314 100.66 21.0301 100.66 21.997C100.66 22.7074 99.9894 23.1612 98.8054 23.1612C97.6017 23.1612 96.773 22.6482 96.5954 21.4839H94.109C94.2669 23.6348 95.9047 25.0556 98.8449 25.0556Z" fill="#0F0F0F"/>
<path d="M113.297 24.7595V14.6365H110.613V20.4774C110.613 21.8193 109.843 22.7664 108.58 22.7664C107.436 22.7664 106.903 22.1153 106.903 20.9313V14.6365H104.239V21.3851C104.239 23.5952 105.502 25.0357 107.752 25.0357C109.172 25.0357 109.962 24.5029 110.652 23.5755H110.712V24.7595H113.297Z" fill="#0F0F0F"/>
<path d="M115.032 24.7596H117.716V18.8792C117.716 17.5374 118.446 16.6691 119.532 16.6691C120.518 16.6691 121.09 17.2611 121.09 18.4056V24.7596H123.774V18.8792C123.774 17.5374 124.465 16.6691 125.59 16.6691C126.576 16.6691 127.148 17.2611 127.148 18.4056V24.7596H129.832V17.9517C129.832 15.7417 128.628 14.3604 126.497 14.3604C125.215 14.3604 124.149 15.0313 123.458 16.1363H123.419C122.926 15.0707 121.9 14.3604 120.617 14.3604C119.216 14.3604 118.229 15.0707 117.677 15.9982H117.617V14.6366H115.032V24.7596Z" fill="#0F0F0F"/>
<path d="M11.3005 24.7597H13.9842V10.6506H11.3005V24.7597Z" fill="#0F0F0F"/>
<path d="M20.5461 25.0556C23.6837 25.0556 25.8346 22.7271 25.8346 19.708C25.8346 16.6888 23.6837 14.3604 20.5461 14.3604C17.4086 14.3604 15.2577 16.6888 15.2577 19.708C15.2577 22.7271 17.4086 25.0556 20.5461 25.0556ZM20.5461 23.0034C18.8886 23.0034 17.9809 21.6813 17.9809 19.708C17.9809 17.7347 18.8886 16.3928 20.5461 16.3928C22.184 16.3928 23.1114 17.7347 23.1114 19.708C23.1114 21.6813 22.184 23.0034 20.5461 23.0034Z" fill="#0F0F0F"/>
<path d="M31.5416 28.2129C33.0414 28.2129 34.3437 27.8577 35.1922 27.0684C35.9421 26.3777 36.3959 25.4108 36.3959 23.99V14.6366H33.8109V15.7022H33.7715C33.1597 14.8537 32.2323 14.3604 30.9694 14.3604C28.4041 14.3604 26.5887 16.2942 26.5887 19.3133C26.5887 22.3719 28.7988 24.1479 31.0483 24.1479C32.331 24.1479 33.1005 23.6348 33.6925 22.9639H33.7517V24.069C33.7517 25.4503 33.0216 26.1804 31.5022 26.1804C30.259 26.1804 29.6868 25.687 29.4697 25.0556H26.8057C27.082 27.0289 28.779 28.2129 31.5416 28.2129ZM31.5022 21.997C30.1209 21.997 29.2132 20.9906 29.2132 19.2739C29.2132 17.5768 30.1209 16.5112 31.4824 16.5112C33.1005 16.5112 33.8899 17.7741 33.8899 19.2541C33.8899 20.7538 33.1992 21.997 31.5022 21.997Z" fill="#0F0F0F"/>
<path d="M42.919 25.0556C46.0566 25.0556 48.2075 22.7271 48.2075 19.708C48.2075 16.6888 46.0566 14.3604 42.919 14.3604C39.7815 14.3604 37.6306 16.6888 37.6306 19.708C37.6306 22.7271 39.7815 25.0556 42.919 25.0556ZM42.919 23.0034C41.2615 23.0034 40.3538 21.6813 40.3538 19.708C40.3538 17.7347 41.2615 16.3928 42.919 16.3928C44.5569 16.3928 45.4843 17.7347 45.4843 19.708C45.4843 21.6813 44.5569 23.0034 42.919 23.0034Z" fill="#0F0F0F"/>
<path d="M129.711 12.4262C129.711 11.9721 130.079 11.604 130.533 11.604H132.178C132.632 11.604 133 11.9721 133 12.4262C133 12.8803 132.632 13.2484 132.178 13.2484H130.533C130.079 13.2484 129.711 12.8803 129.711 12.4262Z" fill="#0F0F0F"/>
</svg>
