<svg width="144" height="39" viewBox="0 0 144 39" fill="none" xmlns="http://www.w3.org/2000/svg">
<g opacity="0.96">
<path d="M45.5449 25.8906H54.6512V23.1687H48.7815V12.916H45.5449V25.8906Z" fill="#0F0F0F"/>
<path d="M60.0467 24.076C58.7484 24.076 58.0718 22.951 58.0718 21.2634C58.0718 19.5758 58.7484 18.4325 60.0467 18.4325C61.345 18.4325 62.0398 19.5758 62.0398 21.2634C62.0398 22.951 61.345 24.076 60.0467 24.076ZM60.065 26.181C63.0821 26.181 65.057 24.0579 65.057 21.2634C65.057 18.4688 63.0821 16.3457 60.065 16.3457C57.0661 16.3457 55.0547 18.4688 55.0547 21.2634C55.0547 24.0579 57.0661 26.181 60.065 26.181Z" fill="#0F0F0F"/>
<path d="M70.2794 29.1027C71.6691 29.1027 72.8943 28.7942 73.7171 28.0683C74.4668 27.3969 74.9606 26.3807 74.9606 24.9834V16.5998H72.108V17.5979H72.0714C71.5228 16.8176 70.6817 16.3276 69.4383 16.3276C67.116 16.3276 65.5068 18.2511 65.5068 20.9731C65.5068 23.8221 67.4634 25.3827 69.5663 25.3827C70.7 25.3827 71.4131 24.929 71.9617 24.312H72.0348V25.2375C72.0348 26.3626 71.5046 27.0158 70.2428 27.0158C69.2554 27.0158 68.7617 26.5985 68.5971 26.1085H65.708C66.0006 28.0502 67.7011 29.1027 70.2794 29.1027ZM70.2611 23.187C69.1457 23.187 68.4143 22.2796 68.4143 20.8824C68.4143 19.467 69.1457 18.5596 70.2611 18.5596C71.5046 18.5596 72.1628 19.6121 72.1628 20.8642C72.1628 22.1708 71.5594 23.187 70.2611 23.187Z" fill="#0F0F0F"/>
<path d="M80.826 24.076C79.5277 24.076 78.8511 22.951 78.8511 21.2634C78.8511 19.5758 79.5277 18.4325 80.826 18.4325C82.1243 18.4325 82.8191 19.5758 82.8191 21.2634C82.8191 22.951 82.1243 24.076 80.826 24.076ZM80.8443 26.181C83.8614 26.181 85.8359 24.0579 85.8359 21.2634C85.8359 18.4688 83.8614 16.3457 80.8443 16.3457C77.8454 16.3457 75.834 18.4688 75.834 21.2634C75.834 24.0579 77.8454 26.181 80.8443 26.181Z" fill="#0F0F0F"/>
<path d="M86.7061 25.8906H89.6866V16.5997H86.7061V25.8906ZM86.7061 15.3113H89.6866V12.916H86.7061V15.3113Z" fill="#0F0F0F"/>
<path d="M90.9795 28.9575H93.9601V24.929H93.9966C94.5818 25.7093 95.4412 26.1811 96.6481 26.1811C99.0983 26.1811 100.726 24.2576 100.726 21.2453C100.726 18.4508 99.2081 16.3276 96.7212 16.3276C95.4412 16.3276 94.5269 16.8902 93.8869 17.7249H93.8321V16.5998H90.9795V28.9575ZM95.8801 23.8947C94.6001 23.8947 93.8686 22.8603 93.8686 21.3542C93.8686 19.848 94.5269 18.7048 95.8252 18.7048C97.1052 18.7048 97.7086 19.7573 97.7086 21.3542C97.7086 22.9329 97.0138 23.8947 95.8801 23.8947Z" fill="#0F0F0F"/>
<path d="M105.579 26.1811C108.029 26.1811 109.839 25.1286 109.839 23.0962C109.839 20.7191 107.901 20.3017 106.255 20.0295C105.067 19.8117 104.006 19.721 104.006 19.0677C104.006 18.4871 104.573 18.2149 105.304 18.2149C106.127 18.2149 106.694 18.4689 106.804 19.3036H109.547C109.4 17.4709 107.974 16.3276 105.323 16.3276C103.11 16.3276 101.281 17.3438 101.281 19.3036C101.281 21.4812 103.019 21.9167 104.646 22.1889C105.889 22.4067 107.023 22.4974 107.023 23.3321C107.023 23.931 106.456 24.2576 105.56 24.2576C104.573 24.2576 103.951 23.8039 103.841 22.8785H101.025C101.117 24.929 102.836 26.1811 105.579 26.1811Z" fill="#0F0F0F"/>
<path d="M113.888 26.1632C115.186 26.1632 116.009 25.6551 116.686 24.7478H116.741V25.891H119.593V16.6001H116.613V21.79C116.613 22.8969 115.991 23.659 114.967 23.659C114.016 23.659 113.559 23.0965 113.559 22.0803V16.6001H110.597V22.6973C110.597 24.766 111.73 26.1632 113.888 26.1632Z" fill="#0F0F0F"/>
<path d="M120.89 25.8908H123.87V20.6828C123.87 19.5758 124.419 18.7955 125.351 18.7955C126.247 18.7955 126.668 19.3762 126.668 20.3743V25.8908H129.649V20.6828C129.649 19.5758 130.179 18.7955 131.13 18.7955C132.026 18.7955 132.446 19.3762 132.446 20.3743V25.8908H135.427V19.848C135.427 17.7612 134.366 16.3276 132.245 16.3276C131.038 16.3276 130.033 16.8357 129.301 17.9608H129.265C128.789 16.9628 127.857 16.3276 126.631 16.3276C125.278 16.3276 124.382 16.9628 123.797 17.9245H123.742V16.5998H120.89V25.8908Z" fill="#0F0F0F"/>
<path d="M27.3603 5.49457L24.3637 4.69775L21.8385 14.0504L19.5586 5.60676L16.562 6.40359L19.0252 15.5263L12.8899 9.43771L10.6962 11.6147L17.4259 18.2931L9.04513 16.0646L8.24219 19.0383L17.3992 21.4733C17.2944 21.0245 17.2389 20.557 17.2389 20.0765C17.2389 16.6759 20.0168 13.9192 23.4436 13.9192C26.8703 13.9192 29.6482 16.6759 29.6482 20.0765C29.6482 20.5539 29.5934 21.0186 29.4899 21.4646L37.812 23.6775L38.6148 20.7038L29.4214 18.2592L37.8027 16.0305L36.9998 13.0568L27.8067 15.5012L33.942 9.41272L31.7483 7.23577L25.112 13.8216L27.3603 5.49457Z" fill="#0F0F0F"/>
<path d="M29.481 21.4995C29.2241 22.5774 28.6817 23.5457 27.9375 24.3216L33.9665 30.3046L36.1601 28.1277L29.481 21.4995Z" fill="#0F0F0F"/>
<path d="M27.877 24.3843C27.1238 25.1477 26.1719 25.7174 25.1045 26.011L27.2983 34.136L30.2949 33.3392L27.877 24.3843Z" fill="#0F0F0F"/>
<path d="M24.9928 26.0407C24.4975 26.167 23.9784 26.2342 23.4435 26.2342C22.8704 26.2342 22.3154 26.157 21.7886 26.0127L19.5928 34.1451L22.5893 34.9419L24.9928 26.0407Z" fill="#0F0F0F"/>
<path d="M21.6827 25.9823C20.6316 25.6741 19.6967 25.0972 18.9588 24.3315L12.915 30.3293L15.1087 32.5062L21.6827 25.9823Z" fill="#0F0F0F"/>
<path d="M18.9078 24.2788C18.1826 23.5084 17.6544 22.553 17.4029 21.4917L9.05371 23.7118L9.85664 26.6856L18.9078 24.2788Z" fill="#0F0F0F"/>
</g>
</svg>
