<svg width="144" height="39" viewBox="0 0 144 39" fill="none" xmlns="http://www.w3.org/2000/svg">
<g opacity="0.96">
<path d="M34.709 7.18164H38.3042V27.3778H44.2199V30.744H34.709V7.18164Z" fill="#0F0F0F"/>
<path d="M51.0128 31.0802C49.2479 31.0802 47.897 30.5641 46.96 29.5318C46.0231 28.4995 45.5547 27.041 45.5547 25.1559V12.769C45.5547 10.884 46.0231 9.42536 46.96 8.39311C47.897 7.36085 49.2479 6.84473 51.0128 6.84473C52.7777 6.84473 54.1286 7.36085 55.0656 8.39311C56.0025 9.42536 56.471 10.884 56.471 12.769V25.1559C56.471 27.041 56.0025 28.4995 55.0656 29.5318C54.1286 30.5641 52.7777 31.0802 51.0128 31.0802ZM51.0128 27.7142C52.2548 27.7142 52.8758 26.9399 52.8758 25.3916V12.5333C52.8758 10.985 52.2548 10.2108 51.0128 10.2108C49.7708 10.2108 49.1498 10.985 49.1498 12.5333V25.3916C49.1498 26.9399 49.7708 27.7142 51.0128 27.7142Z" fill="#0F0F0F"/>
<path d="M64.0017 31.0802C62.2586 31.0802 60.9295 30.5753 60.0143 29.5655C59.0992 28.5333 58.6416 27.0634 58.6416 25.1559V12.769C58.6416 10.8615 59.0992 9.40292 60.0143 8.39311C60.9295 7.36085 62.2586 6.84473 64.0017 6.84473C65.7449 6.84473 67.074 7.36085 67.9891 8.39311C68.9043 9.40292 69.3619 10.8615 69.3619 12.769V14.7886H65.9627V12.5333C65.9627 10.985 65.3417 10.2108 64.0997 10.2108C62.8578 10.2108 62.2368 10.985 62.2368 12.5333V25.4253C62.2368 26.9512 62.8578 27.7142 64.0997 27.7142C65.3417 27.7142 65.9627 26.9512 65.9627 25.4253V20.8138H64.1652V17.4478H69.3619V25.1559C69.3619 27.0634 68.9043 28.5333 67.9891 29.5655C67.074 30.5753 65.7449 31.0802 64.0017 31.0802Z" fill="#0F0F0F"/>
<path d="M76.8663 31.0802C75.1014 31.0802 73.7505 30.5641 72.8136 29.5318C71.8767 28.4995 71.4082 27.041 71.4082 25.1559V12.769C71.4082 10.884 71.8767 9.42536 72.8136 8.39311C73.7505 7.36085 75.1014 6.84473 76.8663 6.84473C78.6313 6.84473 79.9822 7.36085 80.9191 8.39311C81.8561 9.42536 82.3246 10.884 82.3246 12.769V25.1559C82.3246 27.041 81.8561 28.4995 80.9191 29.5318C79.9822 30.5641 78.6313 31.0802 76.8663 31.0802ZM76.8663 27.7142C78.1083 27.7142 78.7293 26.9399 78.7293 25.3916V12.5333C78.7293 10.985 78.1083 10.2108 76.8663 10.2108C75.6244 10.2108 75.0034 10.985 75.0034 12.5333V25.3916C75.0034 26.9399 75.6244 27.7142 76.8663 27.7142Z" fill="#0F0F0F"/>
<path d="M84.7627 7.18164H88.3579V30.744H84.7627V7.18164Z" fill="#0F0F0F"/>
<path d="M91.0508 7.18164H96.3455C98.132 7.18164 99.4721 7.67532 100.366 8.6627C101.259 9.65007 101.706 11.0975 101.706 13.0049V15.3274C101.706 17.2349 101.259 18.6822 100.366 19.6697C99.4721 20.657 98.132 21.1507 96.3455 21.1507H94.6463V30.744H91.0508V7.18164ZM96.3455 17.7846C96.9341 17.7846 97.3697 17.6163 97.6532 17.2798C97.9583 16.9431 98.1104 16.3709 98.1104 15.5631V12.7693C98.1104 11.9614 97.9583 11.3892 97.6532 11.0526C97.3697 10.716 96.9341 10.5477 96.3455 10.5477H94.6463V17.7846H96.3455Z" fill="#0F0F0F"/>
<path d="M108.459 31.0802C106.716 31.0802 105.398 30.5753 104.504 29.5655C103.611 28.5333 103.164 27.0634 103.164 25.1559V23.8095H106.563V25.4253C106.563 26.9512 107.184 27.7142 108.426 27.7142C109.037 27.7142 109.494 27.5346 109.799 27.1756C110.126 26.7941 110.289 26.1882 110.289 25.3579C110.289 24.3706 110.072 23.5066 109.636 22.7661C109.2 22.0031 108.394 21.0943 107.217 20.0396C105.735 18.6932 104.7 17.4814 104.112 16.4043C103.524 15.3047 103.23 14.0705 103.23 12.7016C103.23 10.8391 103.687 9.40292 104.602 8.39311C105.518 7.36085 106.847 6.84473 108.59 6.84473C110.311 6.84473 111.608 7.36085 112.479 8.39311C113.373 9.40292 113.819 10.8615 113.819 12.769V13.7451H110.42V12.5333C110.42 11.7255 110.268 11.142 109.963 10.783C109.658 10.4015 109.211 10.2108 108.623 10.2108C107.424 10.2108 106.825 10.9625 106.825 12.466C106.825 13.3187 107.043 14.1154 107.479 14.8559C107.936 15.5964 108.753 16.494 109.93 17.5487C111.433 18.8951 112.468 20.1182 113.035 21.2177C113.601 22.3173 113.885 23.6076 113.885 25.0886C113.885 27.0185 113.416 28.4995 112.479 29.5318C111.564 30.5641 110.224 31.0802 108.459 31.0802Z" fill="#0F0F0F"/>
<path d="M121.176 31.0805C119.433 31.0805 118.103 30.5756 117.188 29.5658C116.273 28.5336 115.815 27.0637 115.815 25.1563V7.18164H119.411V25.4256C119.411 26.2334 119.563 26.8169 119.868 27.176C120.195 27.5349 120.653 27.7145 121.241 27.7145C121.829 27.7145 122.276 27.5349 122.581 27.176C122.907 26.8169 123.071 26.2334 123.071 25.4256V7.18164H126.535V25.1563C126.535 27.0637 126.078 28.5336 125.163 29.5658C124.248 30.5756 122.918 31.0805 121.176 31.0805Z" fill="#0F0F0F"/>
<path d="M129.096 7.18164H134.227L136.515 24.0455H136.58L138.869 7.18164H144V30.744H140.6V12.9039H140.536L137.92 30.744H134.913L132.299 12.9039H132.234V30.744H129.096V7.18164Z" fill="#0F0F0F"/>
<path d="M0 30.7439C4.42303 30.7439 8.00857 27.0511 8.00857 22.496C8.00857 17.9408 4.42303 14.248 0 14.248V20.0216C1.3269 20.0216 2.40256 21.1294 2.40256 22.496C2.40256 23.8625 1.3269 24.9703 0 24.9703V30.7439Z" fill="#0F0F0F"/>
<path d="M26.6955 16.9974C25.3269 16.551 23.8695 16.3101 22.3575 16.3101C14.4329 16.3101 8.00879 22.9262 8.00879 31.0876C8.00879 31.9068 8.07352 32.7104 8.19795 33.4932H17.1132C16.795 32.7584 16.6181 31.9443 16.6181 31.0876C16.6181 27.823 19.1877 25.1766 22.3575 25.1766C24.09 25.1766 25.6431 25.9671 26.6955 27.217V16.9974Z" fill="#0F0F0F"/>
<path d="M1.4082 6C2.07217 12.1859 7.16441 16.9973 13.3478 16.9973C19.531 16.9973 24.6233 12.1859 25.2873 6H16.6963C16.1659 7.3693 14.8665 8.3369 13.3478 8.3369C11.8289 8.3369 10.5296 7.3693 9.99914 6H1.4082Z" fill="#0F0F0F"/>
</g>
</svg>
