<svg width="144" height="39" viewBox="0 0 144 39" fill="none" xmlns="http://www.w3.org/2000/svg">
<g opacity="0.96">
<path d="M46.167 13.0702H49.1912V25.2002H46.167V13.0702ZM50.3908 20.6202C50.3908 17.6202 52.2456 15.8302 55.1085 15.8302C57.9714 15.8302 59.8263 17.6202 59.8263 20.6202C59.8263 23.6202 58.0118 25.4202 55.1085 25.4202C52.2053 25.4202 50.3908 23.6702 50.3908 20.6202ZM56.792 20.6202C56.792 18.9702 56.1368 18.0002 55.1085 18.0002C54.0803 18.0002 53.4351 19.0002 53.4351 20.6202C53.4351 22.2402 54.0702 23.2202 55.1085 23.2202C56.1468 23.2202 56.792 22.3002 56.792 20.6302V20.6202ZM60.9654 25.7902H63.8686C64.0068 26.0947 64.2404 26.3468 64.5346 26.509C64.8289 26.6711 65.1681 26.7347 65.5017 26.6902C66.6509 26.6902 67.2557 26.0702 67.2557 25.1702V23.4902H67.1952C66.9543 24.0051 66.5633 24.4365 66.0727 24.7289C65.5822 25.0212 65.0146 25.161 64.4432 25.1302C62.2355 25.1302 60.7738 23.4602 60.7738 20.5902C60.7738 17.7202 62.165 15.9102 64.4835 15.9102C65.0728 15.8873 65.6551 16.0436 66.1524 16.3581C66.6497 16.6727 67.0382 17.1305 67.2658 17.6702V16.0002H70.29V25.1002C70.29 27.2902 68.3444 28.6502 65.4714 28.6502C62.8001 28.6502 61.1368 27.4602 60.9654 25.8002V25.7902ZM67.2658 20.6102C67.2658 19.1502 66.5904 18.2302 65.5218 18.2302C64.4533 18.2302 63.798 19.1402 63.798 20.6102C63.798 22.0802 64.4432 22.9102 65.5218 22.9102C66.6005 22.9102 67.2658 22.1002 67.2658 20.6202V20.6102ZM71.4291 20.6102C71.4291 17.6102 73.2839 15.8202 76.1468 15.8202C79.0097 15.8202 80.8747 17.6102 80.8747 20.6102C80.8747 23.6102 79.0601 25.4102 76.1468 25.4102C73.2335 25.4102 71.4291 23.6702 71.4291 20.6202V20.6102ZM77.8303 20.6102C77.8303 18.9602 77.1751 17.9902 76.1468 17.9902C75.1186 17.9902 74.5238 19.0002 74.5238 20.6302C74.5238 22.2602 75.1589 23.2302 76.1872 23.2302C77.2154 23.2302 77.8303 22.3002 77.8303 20.6302V20.6102ZM82.0239 13.8202C82.0159 13.5173 82.0988 13.2189 82.2621 12.9628C82.4254 12.7067 82.6616 12.5045 82.9408 12.3817C83.22 12.2589 83.5297 12.2212 83.8306 12.2732C84.1315 12.3253 84.41 12.4648 84.6309 12.6741C84.8519 12.8834 85.0051 13.153 85.0713 13.4488C85.1376 13.7446 85.1138 14.0532 85.0029 14.3356C84.8921 14.6179 84.6992 14.8613 84.4488 15.0348C84.1985 15.2083 83.9018 15.3042 83.5964 15.3102C83.394 15.324 83.1909 15.2961 82.9999 15.2283C82.8087 15.1605 82.6339 15.0543 82.4862 14.9162C82.3386 14.7782 82.2212 14.6113 82.1417 14.4261C82.0621 14.241 82.0219 14.0415 82.0239 13.8402V13.8202ZM82.0239 16.0202H85.048V25.2002H82.0239V16.0202ZM96.0259 20.6102C96.0259 23.6102 94.6851 25.3202 92.3868 25.3202C91.7974 25.3577 91.2106 25.2148 90.7058 24.9108C90.201 24.6067 89.8025 24.1562 89.5642 23.6202H89.5037V28.1402H86.4795V16.0002H89.5037V17.6402H89.5642C89.7914 17.0953 90.1823 16.6331 90.6837 16.3164C91.1851 15.9997 91.7727 15.8439 92.3666 15.8702C94.6851 15.9102 96.0662 17.6302 96.0662 20.6302L96.0259 20.6102ZM93.0017 20.6102C93.0017 19.1502 92.3263 18.2202 91.2678 18.2202C90.2093 18.2202 89.5339 19.1602 89.5238 20.6102C89.5138 22.0602 90.2093 22.9902 91.2678 22.9902C92.3263 22.9902 93.0017 22.0802 93.0017 20.6302V20.6102ZM101.217 15.8102C103.727 15.8102 105.25 16.9902 105.32 18.8802H102.568C102.568 18.2302 102.024 17.8202 101.187 17.8202C100.35 17.8202 99.9775 18.1402 99.9775 18.6102C99.9775 19.0802 100.31 19.2302 100.986 19.3702L102.921 19.7602C104.766 20.1502 105.552 20.8902 105.552 22.2802C105.552 24.1802 103.808 25.4002 101.238 25.4002C98.667 25.4002 96.9835 24.1802 96.8525 22.3102H99.7658C99.8565 22.9902 100.401 23.3902 101.288 23.3902C102.175 23.3902 102.578 23.1002 102.578 22.6202C102.578 22.1402 102.296 22.0402 101.57 21.8902L99.8263 21.5202C98.0218 21.1502 97.0743 20.2002 97.0743 18.8002C97.0944 17.0002 98.7174 15.8302 101.217 15.8302V15.8102ZM115.643 25.1802H112.729V23.4702H112.669C112.509 24.0443 112.156 24.5468 111.668 24.8943C111.18 25.2417 110.587 25.4132 109.988 25.3802C109.528 25.4061 109.068 25.3339 108.639 25.1684C108.211 25.0029 107.822 24.7481 107.501 24.421C107.18 24.094 106.934 23.7023 106.778 23.2726C106.623 22.8429 106.562 22.3851 106.6 21.9302V16.0002H109.625V21.2402C109.625 22.3302 110.189 22.9102 111.127 22.9102C111.346 22.9106 111.564 22.8645 111.765 22.7748C111.964 22.6851 112.144 22.5539 112.289 22.3901C112.433 22.2262 112.542 22.0335 112.605 21.8249C112.669 21.6162 112.688 21.3964 112.659 21.1802V16.0002H115.683L115.643 25.1802ZM117.104 16.0002H120.028V17.7702H120.088C120.249 17.2037 120.594 16.7059 121.07 16.3549C121.546 16.0039 122.127 15.8193 122.719 15.8302C123.323 15.7823 123.922 15.9614 124.399 16.332C124.875 16.7026 125.193 17.2374 125.29 17.8302H125.35C125.533 17.2311 125.912 16.7095 126.427 16.3474C126.941 15.9853 127.563 15.8033 128.193 15.8302C128.604 15.8165 129.014 15.8888 129.395 16.0424C129.777 16.1959 130.121 16.4274 130.406 16.7216C130.691 17.0159 130.911 17.3664 131.051 17.7503C131.19 18.1342 131.248 18.5431 131.217 18.9502V25.2002H128.193V19.7502C128.193 18.7502 127.74 18.2902 126.893 18.2902C126.704 18.2886 126.517 18.3272 126.344 18.4034C126.172 18.4796 126.018 18.5916 125.893 18.7319C125.768 18.8722 125.674 19.0374 125.619 19.2165C125.563 19.3957 125.548 19.5845 125.572 19.7702V25.2002H122.699V19.7102C122.699 18.7902 122.246 18.2902 121.419 18.2902C121.228 18.2903 121.039 18.3305 120.866 18.4082C120.691 18.486 120.535 18.5995 120.409 18.7412C120.282 18.8829 120.187 19.0497 120.13 19.2306C120.073 19.4114 120.055 19.6021 120.078 19.7902V25.2002H117.054L117.104 16.0002Z" fill="#0F0F0F"/>
<path d="M37.7099 13.6199C37.1969 12.4563 36.5179 11.3718 35.6937 10.3999C34.4755 8.92023 32.9551 7.71328 31.2327 6.85849C29.5104 6.00371 27.625 5.52046 25.7008 5.44055C23.7766 5.36064 21.8571 5.68588 20.0687 6.39488C18.2804 7.10387 16.6637 8.18054 15.325 9.55402C13.9863 10.9275 12.956 12.5666 12.3019 14.3636C11.6478 16.1605 11.3848 18.0745 11.5301 19.9795C11.6754 21.8846 12.2258 23.7375 13.1449 25.4163C14.0641 27.0952 15.3313 28.5619 16.8631 29.7199C17.846 30.4778 18.932 31.0939 20.0889 31.5499C21.7109 32.2093 23.4469 32.5489 25.1998 32.5499C28.8181 32.542 32.2857 31.1112 34.8424 28.5712C37.3991 26.0312 38.8363 22.5893 38.8389 18.9999C38.8415 17.1484 38.4571 15.3165 37.7099 13.6199ZM25.1897 8.18988C26.7639 8.18972 28.319 8.53102 29.7462 9.18988C29.3982 9.33905 29.0322 9.44324 28.6574 9.49989C27.4242 9.67698 26.2817 10.245 25.4006 11.1191C24.5194 11.9932 23.9469 13.1265 23.7683 14.3499C23.69 15.036 23.3754 15.6743 22.8777 16.1571C22.38 16.6399 21.7297 16.9375 21.0365 16.9999C19.8032 17.177 18.6607 17.745 17.7796 18.6191C16.8985 19.4932 16.3259 20.6265 16.1474 21.8499C16.0869 22.5023 15.8063 23.1154 15.351 23.5899C14.5654 21.9432 14.2124 20.126 14.3251 18.3076C14.4377 16.4892 15.0122 14.7286 15.9951 13.1896C16.978 11.6507 18.3375 10.3834 19.9469 9.50573C21.5562 8.62806 23.3633 8.16853 25.1998 8.16988L25.1897 8.18988ZM16.853 25.9999C16.974 25.8899 17.095 25.7899 17.2159 25.6699C18.1127 24.8074 18.6884 23.6688 18.849 22.4399C18.9141 21.7491 19.225 21.1039 19.726 20.6199C20.2082 20.1221 20.857 19.8162 21.5506 19.7599C22.7839 19.5828 23.9263 19.0148 24.8074 18.1407C25.6886 17.2666 26.2612 16.1333 26.4397 14.9099C26.4834 14.1874 26.7959 13.5067 27.3167 12.9999C27.8108 12.5117 28.4658 12.217 29.1615 12.1699C30.2944 12.0153 31.3511 11.5156 32.1857 10.7399C33.136 11.522 33.941 12.4628 34.5647 13.5199C34.5264 13.5712 34.4824 13.6182 34.4337 13.6599C33.9525 14.1621 33.3044 14.4747 32.6091 14.5399C31.3745 14.7139 30.2303 15.2809 29.3486 16.1555C28.4669 17.0302 27.8953 18.1652 27.7199 19.3899C27.6489 20.0783 27.3401 20.7212 26.846 21.2096C26.3517 21.6981 25.7025 22.002 25.0083 22.0699C23.7714 22.2456 22.6247 22.8125 21.7384 23.6862C20.8522 24.56 20.2737 25.694 20.0889 26.9199C20.0347 27.4086 19.8654 27.8779 19.5949 28.2899C18.5607 27.6807 17.6344 26.9071 16.853 25.9999ZM25.1897 29.8599C24.1668 29.861 23.1488 29.7196 22.1655 29.4399C22.5019 28.8179 22.7205 28.14 22.8107 27.4399C22.8813 26.753 23.1887 26.1113 23.6808 25.6231C24.173 25.1349 24.8198 24.83 25.5123 24.7599C26.7474 24.5848 27.8921 24.0177 28.7753 23.1434C29.6584 22.2692 30.2324 21.1347 30.4115 19.9099C30.4821 19.223 30.7895 18.5813 31.2816 18.0931C31.7738 17.6049 32.4207 17.3 33.1131 17.2299C34.0425 17.11 34.9284 16.7667 35.6937 16.2299C36.1187 17.8278 36.169 19.501 35.8409 21.1212C35.5128 22.7414 34.8148 24.2656 33.8007 25.5767C32.7866 26.8877 31.4833 27.951 29.9905 28.6848C28.4979 29.4186 26.8556 29.8035 25.1897 29.8099V29.8599Z" fill="#0F0F0F"/>
</g>
</svg>
