<svg width="144" height="39" viewBox="0 0 144 39" fill="none" xmlns="http://www.w3.org/2000/svg">
<g opacity="0.96">
<path d="M52.4147 24.1365V10.9136H50.2646V24.1365H52.4147Z" fill="#0F0F0F"/>
<path d="M53.7305 19.7288C53.7305 22.4303 55.5281 24.3497 58.2597 24.3497C60.9913 24.3497 62.7889 22.4303 62.7889 19.7288C62.7889 17.0274 60.9913 15.1079 58.2597 15.1079C55.5281 15.1079 53.7305 17.0274 53.7305 19.7288ZM55.8981 19.7288C55.8981 18.147 56.8322 17.0451 58.2597 17.0451C59.6872 17.0451 60.6212 18.147 60.6212 19.7288C60.6212 21.2928 59.6872 22.4125 58.2597 22.4125C56.8322 22.4125 55.8981 21.2928 55.8981 19.7288Z" fill="#0F0F0F"/>
<path d="M63.5117 19.551C63.5117 22.1103 65.1507 23.9586 67.6003 23.9586C68.8692 23.9586 69.9619 23.4432 70.5082 22.5901V24.083C70.5082 25.5226 69.6094 26.4824 68.1114 26.4824C66.772 26.4824 65.8556 25.8248 65.7323 24.6695H63.5646C63.8466 26.9622 65.5913 28.4551 67.9881 28.4551C70.8078 28.4551 72.6054 26.589 72.6054 23.692V15.3566H70.7021L70.5787 16.5474C70.05 15.6232 68.9573 15.0723 67.6708 15.0723C65.1859 15.0723 63.5117 16.9739 63.5117 19.551ZM65.697 19.4977C65.697 18.0403 66.6134 16.9739 67.9704 16.9739C69.4508 16.9739 70.4377 18.0581 70.4377 19.4977C70.4377 20.955 69.4508 22.0747 67.9704 22.0747C66.6311 22.0747 65.697 20.9728 65.697 19.4977Z" fill="#0F0F0F"/>
<path d="M73.6699 19.7288C73.6699 22.4303 75.4675 24.3497 78.1991 24.3497C80.9307 24.3497 82.7283 22.4303 82.7283 19.7288C82.7283 17.0274 80.9307 15.1079 78.1991 15.1079C75.4675 15.1079 73.6699 17.0274 73.6699 19.7288ZM75.8376 19.7288C75.8376 18.147 76.7716 17.0451 78.1991 17.0451C79.6266 17.0451 80.5607 18.147 80.5607 19.7288C80.5607 21.2928 79.6266 22.4125 78.1991 22.4125C76.7716 22.4125 75.8376 21.2928 75.8376 19.7288Z" fill="#0F0F0F"/>
<path d="M85.055 13.5614C85.7599 13.5614 86.3415 12.9927 86.3415 12.264C86.3415 11.5531 85.7599 10.9844 85.055 10.9844C84.3325 10.9844 83.7861 11.5531 83.7861 12.264C83.7861 12.9927 84.3325 13.5614 85.055 13.5614ZM83.98 24.1362H86.13V15.3565H83.98V24.1362Z" fill="#0F0F0F"/>
<path d="M88.0137 28.2061H90.111V22.9276C90.6573 23.834 91.8381 24.3672 93.1422 24.3672C95.7152 24.3672 97.2485 22.3767 97.2132 19.6397C97.1604 16.8849 95.5919 15.0898 93.1246 15.0898C91.8028 15.0898 90.6045 15.6763 90.0758 16.6894L89.9524 15.3564H88.0137V28.2061ZM90.1991 19.7463C90.1991 18.1645 91.1508 17.0626 92.6488 17.0626C94.1468 17.0626 95.0455 18.1823 95.0455 19.7463C95.0455 21.3103 94.1468 22.4122 92.6488 22.4122C91.1508 22.4122 90.1991 21.3281 90.1991 19.7463Z" fill="#0F0F0F"/>
<path d="M97.7588 21.5058C97.8293 23.2475 99.1687 24.3672 101.248 24.3672C103.293 24.3672 104.685 23.2653 104.685 21.5591C104.685 20.2973 103.909 19.4442 102.482 19.0887L100.949 18.7155C100.297 18.5378 99.856 18.3067 99.856 17.738C99.856 17.1337 100.332 16.7072 101.107 16.7072C101.918 16.7072 102.447 17.1693 102.447 17.9335H104.403C104.332 16.1918 103.046 15.0898 101.16 15.0898C99.292 15.0898 97.8998 16.1918 97.8998 17.8624C97.8998 18.9998 98.5518 19.9418 100.226 20.3861L101.742 20.7771C102.306 20.9371 102.658 21.2037 102.658 21.7013C102.658 22.3944 102.006 22.7143 101.213 22.7143C100.261 22.7143 99.715 22.27 99.715 21.5058H97.7588Z" fill="#0F0F0F"/>
<path d="M109.145 24.3672C110.326 24.3672 111.454 23.8163 111.965 22.9987L112.106 24.1362H114.115V15.3564H111.965V19.9596C111.965 21.5414 111.365 22.43 109.956 22.43C108.863 22.43 108.105 21.8968 108.105 20.084V15.3564H105.955V20.8482C105.955 22.9454 107.083 24.3672 109.145 24.3672Z" fill="#0F0F0F"/>
<path d="M118.162 24.1362V19.0887C118.162 17.6669 118.99 16.9915 120.012 16.9915C121.034 16.9915 121.704 17.6491 121.704 18.8932V24.1362H123.801V19.1065C123.801 17.6669 124.612 16.9915 125.634 16.9915C126.674 16.9915 127.344 17.6491 127.344 18.8932V24.1362H129.423V18.3956C129.423 16.3695 128.313 15.0898 126.198 15.0898C124.876 15.0898 123.837 15.7297 123.414 16.7605C122.938 15.7297 121.986 15.0898 120.541 15.0898C119.519 15.0898 118.602 15.5697 118.091 16.3517L117.986 15.3564H116.012V24.1362H118.162Z" fill="#0F0F0F"/>
<path d="M113.007 31.9827C113.328 31.9827 113.606 31.7107 113.606 31.3877C113.606 31.0562 113.328 30.7842 113.007 30.7842C112.679 30.7842 112.4 31.0562 112.4 31.3877C112.4 31.7107 112.679 31.9827 113.007 31.9827Z" fill="#0F0F0F"/>
<path d="M114.224 29.7894C114.224 31.0899 115.016 31.9654 116.171 31.9654C117.165 31.9654 117.924 31.3619 118.084 30.4609H117.325C117.182 30.9624 116.744 31.2599 116.221 31.2599C115.479 31.2599 115.007 30.6819 115.007 29.7809C115.007 28.8629 115.505 28.3019 116.238 28.3019C116.744 28.3019 117.182 28.5739 117.317 29.1094H118.075C117.941 28.1999 117.233 27.5879 116.246 27.5879C115.05 27.5879 114.224 28.4804 114.224 29.7894Z" fill="#0F0F0F"/>
<path d="M118.383 29.7812C118.383 31.0307 119.226 31.9657 120.49 31.9657C121.754 31.9657 122.597 31.0307 122.597 29.7812C122.597 28.5317 121.754 27.5967 120.49 27.5967C119.226 27.5967 118.383 28.5317 118.383 29.7812ZM119.184 29.7812C119.184 28.9312 119.698 28.3107 120.49 28.3107C121.282 28.3107 121.796 28.9312 121.796 29.7812C121.796 30.6312 121.282 31.2517 120.49 31.2517C119.698 31.2517 119.184 30.6312 119.184 29.7812Z" fill="#0F0F0F"/>
<path d="M124.067 31.8722V29.3732C124.067 28.7187 124.471 28.2937 125.061 28.2937C125.626 28.2937 125.98 28.6592 125.98 29.3137V31.8722H126.755V29.3817C126.755 28.7187 127.152 28.2937 127.75 28.2937C128.306 28.2937 128.66 28.6592 128.66 29.3137V31.8722H129.427V29.1437C129.427 28.1832 128.871 27.5967 127.927 27.5967C127.286 27.5967 126.789 27.9112 126.587 28.4212C126.376 27.9112 125.913 27.5967 125.238 27.5967C124.724 27.5967 124.269 27.8347 124.041 28.2427L123.982 27.7157H123.274V31.8722H124.067Z" fill="#0F0F0F"/>
<path fill-rule="evenodd" clip-rule="evenodd" d="M14.5322 19.8363L14.5337 19.6815L14.5368 19.5265L14.5414 19.3716L14.5476 19.2167L14.5554 19.0617L14.5647 18.9068L14.5757 18.752L14.5882 18.5971L14.6023 18.4423L14.618 18.2875L14.6352 18.133L14.654 17.9785L14.6744 17.8241L14.6964 17.6698L14.72 17.5157L14.7451 17.3619L14.7719 17.2081L14.8001 17.0547L14.83 16.9014L14.8614 16.7483L14.8944 16.5954L14.929 16.4429L14.9651 16.2907L15.0028 16.1387L15.0421 15.9871L15.0829 15.8357L15.1252 15.6847L15.1691 15.5341L15.2146 15.3839L15.2616 15.234L15.3102 15.0846L15.3602 14.9355L15.4119 14.7869L15.465 14.6388L15.5197 14.4911L15.5759 14.3439L15.6336 14.1973L15.6928 14.0511L15.7536 13.9055L15.8158 13.7604L15.8796 13.6158L15.9448 13.4718L16.0115 13.3285L16.0797 13.1857L16.1494 13.0435L16.2206 12.902L16.2932 12.7612L16.3673 12.6209L16.4428 12.4814L16.5198 12.3426L16.5982 12.2044L16.6781 12.067L16.7594 11.9303L16.8421 11.7944L16.9262 11.6592L17.0117 11.5249L17.0987 11.3913L17.187 11.2585L17.2767 11.1266L17.3678 10.9955L17.4602 10.8652L17.554 10.7358L17.6492 10.6073L17.7457 10.4797L17.8435 10.353L17.9427 10.2271L18.0432 10.1022L18.1449 9.9783L18.248 9.85533L18.3524 9.73332L18.4581 9.61231L18.565 9.4923L18.6732 9.37329L18.7826 9.25531L18.8933 9.13836L19.0052 9.02247L19.1183 8.90763L19.2327 8.79387L19.3482 8.6812L19.4649 8.56963L19.5828 8.45917L19.7019 8.34983L19.8221 8.24164L19.9435 8.13458L20.066 8.02868L20.1897 7.92396L20.3144 7.82042L20.4402 7.71807L20.5672 7.61693L20.6952 7.517L20.8242 7.41831L20.9544 7.32085L21.0856 7.22464L21.2178 7.1297L21.3509 7.03602L21.4852 6.94362L21.6203 6.85251L21.7565 6.76271L21.8937 6.67422L22.0318 6.58706L22.1708 6.50122L22.3108 6.41672L22.4516 6.33359L22.5934 6.25181L22.7361 6.1714L22.8796 6.09237L23.0239 6.01473L23.1691 5.93849L23.3152 5.86365L23.4621 5.79024L23.6097 5.71824L23.7582 5.64768L23.9074 5.57856L24.0574 5.51089L24.2081 5.44467L24.3596 5.37993L24.5118 5.31665L24.6647 5.25486L24.8182 5.19455L24.9725 5.13574L25.1273 5.07843L25.2829 5.02264L25.439 4.96836L25.5958 4.91559L25.7531 4.86437L25.911 4.81468L26.0696 4.76653L26.2286 4.71993L26.3882 4.67489L26.5483 4.6314L26.7089 4.58948L26.87 4.54914L27.0315 4.51038L27.1935 4.47318L27.356 4.43759L27.5188 4.40358L27.6821 4.37118L27.8458 4.34038L28.0098 4.31117L28.1743 4.28359L28.339 4.25762L28.504 4.23326L28.6694 4.21053L28.8351 4.18943L29.001 4.16996L29.1672 4.15211L29.3336 4.13591L29.5003 4.12135L29.6672 4.10842L29.8342 4.09714L30.7326 4.04541L30.7838 8.41029L30.8132 8.40995L30.9372 8.40977L31.0613 8.41083L31.1853 8.4131L31.3095 8.41662L31.4337 8.42136L31.5579 8.42733L31.6821 8.43454L31.8063 8.44299L31.9304 8.45265L32.0546 8.46356L32.1787 8.47571L32.3027 8.48909L32.4266 8.50371L32.5505 8.51956L32.6743 8.53664L32.7979 8.55495L32.9215 8.57451L33.0449 8.5953L33.1681 8.61731L33.2912 8.64056L33.4141 8.66504L33.5368 8.69076L33.6594 8.7177L33.7817 8.74586L33.9038 8.77525L34.0257 8.80587L34.1473 8.83771L34.2686 8.87077L34.3896 8.90505L34.5105 8.94054L34.6309 8.97724L34.7511 9.01516L34.8709 9.05429L34.9904 9.09463L35.1096 9.13616L35.2284 9.1789L35.3468 9.22283L35.4648 9.26797L35.5824 9.31428L35.6997 9.3618L35.8164 9.41049L35.9328 9.46037L36.0487 9.51142L36.1642 9.56365L36.2791 9.61704L36.3936 9.6716L36.5076 9.72732L36.6211 9.7842L36.734 9.84223L36.8464 9.90141L36.9583 9.96173L37.0696 10.0232L37.1803 10.0858L37.2905 10.1495L37.4001 10.2143L37.509 10.2803L37.6174 10.3474L37.7251 10.4155L37.8322 10.4849L37.9386 10.5552L38.0443 10.6267L38.1495 10.6992L38.2538 10.7728L38.3576 10.8475L38.4606 10.9232L38.5628 11L38.6644 11.0779L38.7651 11.1568L38.8652 11.2368L38.9644 11.3177L39.063 11.3997L39.1607 11.4828L39.2576 11.5668L39.3538 11.6518L39.4491 11.7378L39.5435 11.8248L39.6371 11.9128L39.7299 12.0017L39.8218 12.0916L39.9129 12.1825L40.0031 12.2743L40.0923 12.3671L40.1808 12.4607L40.2682 12.5553L40.3548 12.6508L40.4404 12.7472L40.525 12.8445L40.6088 12.9427L40.6915 13.0418L40.7734 13.1417L40.8542 13.2426L40.934 13.3442L41.0129 13.4466L41.0907 13.55L41.1676 13.6541L41.2434 13.7591L41.3181 13.8648L41.3919 13.9714L41.4646 14.0787L41.5362 14.1868L41.6068 14.2956L41.6763 14.4053L41.7446 14.5156L41.812 14.6267L41.8782 14.7385L41.9433 14.851L42.0073 14.9642L42.0702 15.0781L42.132 15.1927L42.1926 15.3079L42.252 15.4238L42.3103 15.5403L42.3675 15.6575L42.4235 15.7753L42.4784 15.8937L42.532 16.0127L42.5845 16.1323L42.6358 16.2525L42.6858 16.3733L42.7347 16.4945L42.7823 16.6164L42.8288 16.7387L42.874 16.8616L42.918 16.985L42.9607 17.1089L43.0023 17.2332L43.0426 17.3581L43.0816 17.4834L43.1193 17.6091L43.1558 17.7353L43.1911 17.8619L43.225 17.9889L43.2577 18.1163L43.2891 18.244L43.3192 18.3722L43.3481 18.5007L43.3756 18.6296L43.4018 18.7588L43.4267 18.8883L43.4503 19.0182L43.4727 19.1483L43.4937 19.2786L43.5134 19.4093L43.5318 19.5403L43.5488 19.6714L43.5645 19.8029L43.5789 19.9345L43.5919 20.0663L43.6037 20.1983L43.6141 20.3305L43.6231 20.4629L43.6308 20.5954L43.6372 20.728L43.6422 20.8608L43.6458 20.9936L43.6482 21.1266L43.6491 21.2597L43.6487 21.3928L43.647 21.526L43.6438 21.6593L43.6394 21.7926L43.6336 21.9259L43.6264 22.0592L43.6178 22.1924L43.608 22.3257L43.5967 22.459L43.5841 22.5922L43.5701 22.7253L43.5547 22.8583L43.538 22.9913L43.52 23.1241L43.5005 23.2569L43.4798 23.3895L43.4576 23.5219L43.4341 23.6542L43.4093 23.7864L43.3831 23.9183L43.3555 24.0501L43.3265 24.1816L43.2963 24.313L43.2647 24.444L43.2317 24.5748L43.1973 24.7054L43.1617 24.8356L43.1247 24.9656L43.0864 25.0953L43.0467 25.2247L43.0056 25.3537L42.9633 25.4824L42.9197 25.6107L42.8746 25.7386L42.8283 25.8662L42.7807 25.9933L42.7317 26.1201L42.6814 26.2464L42.6299 26.3723L42.577 26.4977L42.5228 26.6227L42.4673 26.7471L42.4106 26.8712L42.3525 26.9946L42.2932 27.1176L42.2325 27.2401L42.1707 27.3619L42.1074 27.4833L42.0431 27.604L41.9773 27.7242L41.9104 27.8438L41.8423 27.9628L41.7728 28.0812L41.7022 28.1989L41.6303 28.316L41.5571 28.4324L41.4828 28.5481L41.4073 28.6632L41.3306 28.7776L41.2526 28.8912L41.1735 29.0042L41.0932 29.1164L41.0117 29.2279L40.929 29.3386L40.8452 29.4486L40.7602 29.5577L40.6741 29.6661L40.5868 29.7737L40.4984 29.8804L40.4088 29.9863L40.3181 30.0914L40.2263 30.1957L40.1335 30.2991L40.0395 30.4016L39.9445 30.5032L39.8484 30.604L39.7512 30.7037L39.6529 30.8026L39.5536 30.9006L39.4533 30.9977L39.3519 31.0938L39.2495 31.1889L39.1461 31.2831L39.0417 31.3762L38.9363 31.4684L38.8299 31.5597L38.7225 31.6499L38.6142 31.739L38.5049 31.8271L38.3947 31.9142L38.2835 32.0002L38.1714 32.0851L38.0584 32.1691L37.9445 32.2519L37.8296 32.3336L37.7139 32.4142L37.5974 32.4938L37.48 32.5721L37.3617 32.6494L37.2426 32.7256L37.1227 32.8005L37.002 32.8744L36.8804 32.947L36.758 33.0186L36.6349 33.0889L36.511 33.158L36.3864 33.226L36.2609 33.2927L36.1348 33.3582L36.0079 33.4226L35.8803 33.4856L35.7521 33.5474L35.6231 33.6081L35.4935 33.6674L35.3632 33.7256L35.2323 33.7824L35.1007 33.8379L34.9685 33.8922L34.8357 33.9452L34.7023 33.9969L34.5683 34.0474L34.4338 34.0965L34.2986 34.1443L34.163 34.1907L34.0268 34.2359L33.89 34.2798L33.7528 34.3223L33.6151 34.3634L33.477 34.4032L33.3383 34.4417L33.1992 34.4789L33.0596 34.5146L32.9197 34.549L32.7793 34.582L32.6385 34.6137L32.4973 34.6439L32.3558 34.6728L32.2139 34.7004L32.0717 34.7265L31.9292 34.7511L31.7863 34.7745L31.6431 34.7964L31.4996 34.8169L31.356 34.836L31.212 34.8537L31.0677 34.8699L30.9233 34.8847L30.7786 34.8982L30.6338 34.9101L30.4887 34.9207L30.3435 34.9299L30.1981 34.9376L30.0526 34.9438L29.907 34.9486L29.7612 34.952L29.6154 34.954L29.4694 34.9545L29.3234 34.9536L29.1774 34.9512L29.0313 34.9474L28.8852 34.9421L28.739 34.9353L28.5929 34.9272L28.4469 34.9176L28.3008 34.9065L28.1548 34.894L28.0088 34.88L27.8629 34.8646L27.7172 34.8478L27.5715 34.8295L27.4259 34.8097L27.2806 34.7884L27.1353 34.7658L26.9903 34.7417L26.8454 34.7162L26.7006 34.6891L26.5562 34.6607L26.4119 34.6309L26.2679 34.5995L26.1241 34.5667L25.9807 34.5326L25.8375 34.497L25.6946 34.4599L25.552 34.4214L25.4098 34.3815L25.2679 34.3402L25.1263 34.2975L24.9851 34.2533L24.8444 34.2077L24.704 34.1607L24.564 34.1122L24.4245 34.0624L24.2854 34.0112L24.1468 33.9586L24.0086 33.9046L23.871 33.8492L23.7339 33.7924L23.5972 33.7342L23.4611 33.6747L23.3256 33.6138L23.1906 33.5515L23.0562 33.4879L22.9224 33.4229L22.7892 33.3565L22.6566 33.2888L22.5247 33.2198L22.3934 33.1494L22.2627 33.0778L22.1327 33.0048L22.0035 32.9304L21.8749 32.8548L21.747 32.7778L21.6199 32.6996L21.4935 32.62L21.3678 32.5393L21.243 32.4571L21.1188 32.3738L20.9956 32.2891L20.8731 32.2033L20.7514 32.1162L20.6306 32.0278L20.5106 31.9382L20.3915 31.8474L20.2733 31.7553L20.1559 31.6621L20.0395 31.5676L19.9239 31.4721L19.8093 31.3752L19.6956 31.2772L19.5829 31.1781L19.4711 31.0777L19.3603 30.9763L19.2505 30.8737L19.1417 30.77L19.0339 30.6652L18.9271 30.5592L18.8213 30.4521L18.7166 30.344L18.613 30.2348L18.5104 30.1245L18.4089 30.0131L18.3085 29.9007L18.2092 29.7873L18.111 29.6728L18.0139 29.5573L17.918 29.4409L17.8232 29.3233L17.7295 29.2049L17.6371 29.0854L17.5458 28.965L17.4557 28.8436L17.3667 28.7213L17.279 28.598L17.1926 28.4739L17.1073 28.3488L17.0233 28.2229L16.9405 28.096L16.859 27.9684L16.7787 27.8398L16.6997 27.7103L16.622 27.5801L16.5456 27.449L16.4705 27.3172L16.3967 27.1845L16.3242 27.051L16.2531 26.9167L16.1833 26.7818L16.1148 26.6461L16.0477 26.5096L15.9819 26.3724L15.9176 26.2345L15.8545 26.096L15.7929 25.9566L15.7327 25.8168L15.6738 25.6761L15.6164 25.535L15.5604 25.3931L15.5058 25.2506L15.4526 25.1076L15.4009 24.9639L15.3506 24.8197L15.3017 24.675L15.2543 24.5296L15.2084 24.3838L15.1639 24.2375L15.1209 24.0907L15.0793 23.9433L15.0393 23.7955L15.0007 23.6473L14.9636 23.4986L14.928 23.3495L14.894 23.1999L14.8614 23.0499L14.8303 22.8996L14.8008 22.749L14.7727 22.598L14.7462 22.4466L14.7213 22.2949L14.6978 22.1429L14.6759 21.9906L14.6555 21.838L14.6367 21.6852L14.6194 21.5321L14.6037 21.3788L14.5895 21.2253L14.5769 21.0715L14.5659 20.9176L14.5564 20.7635L14.5484 20.6093L14.542 20.4549L14.5372 20.3004L14.534 20.1458L14.5323 19.9911L14.5322 19.8363ZM29.3804 8.50172L29.3454 5.52657L29.3123 5.5298L29.1599 5.54615L29.008 5.56398L28.8561 5.58333L28.7049 5.60412L28.5538 5.62642L28.4028 5.65021L28.2523 5.67546L28.102 5.70222L27.9524 5.73037L27.8026 5.7601L27.6539 5.79116L27.5049 5.8238L27.3568 5.85781L27.2087 5.89334L27.0614 5.93023L26.9144 5.9686L26.7678 6.00841L26.6217 6.04965L26.4763 6.09227L26.3311 6.13636L26.1866 6.18182L26.0426 6.22873L25.8993 6.27693L25.7562 6.32666L25.614 6.37771L25.4724 6.43012L25.3311 6.48395L25.1907 6.5391L25.051 6.59558L24.9117 6.65351L24.7731 6.71276L24.6352 6.77335L24.498 6.83523L24.3615 6.89844L24.2258 6.96293L24.0906 7.02885L23.9564 7.09597L23.8228 7.16439L23.69 7.23411L23.558 7.30511L23.4269 7.37733L23.2963 7.45089L23.1666 7.52572L23.038 7.60162L22.9098 7.679L22.7829 7.75741L22.6568 7.83704L22.5312 7.91797L22.4067 8.00009L22.2831 8.0834L22.1607 8.1677L22.0387 8.25349L21.918 8.3402L21.7981 8.4281L21.6791 8.51721L21.5612 8.60738L21.4443 8.69863L21.3282 8.79117L21.2133 8.88458L21.0993 8.97923L20.9864 9.0749L20.8744 9.17168L20.7636 9.26939L20.6537 9.36834L20.5449 9.46817L20.4372 9.56915L20.3306 9.67098L20.2251 9.77392L20.1207 9.87778L20.0173 9.98267L19.915 10.0886L19.814 10.1953L19.7142 10.303L19.6152 10.4118L19.5176 10.5214L19.4212 10.6318L19.3258 10.7433L19.2318 10.8555L19.1388 10.9687L19.0471 11.0826L18.9566 11.1975L18.8673 11.3132L18.7792 11.4297L18.6924 11.547L18.6067 11.6652L18.5224 11.784L18.4392 11.9037L18.3573 12.0241L18.2768 12.1453L18.1974 12.2672L18.1194 12.3899L18.0426 12.5131L17.9671 12.6371L17.893 12.7618L17.8201 12.8872L17.7485 13.0133L17.6784 13.1399L17.6094 13.2671L17.5418 13.3951L17.4756 13.5236L17.4107 13.6527L17.3471 13.7823L17.2849 13.9125L17.2241 14.0433L17.1646 14.1746L17.1065 14.3064L17.0497 14.4387L16.9943 14.5716L16.9403 14.7048L16.8877 14.8386L16.8364 14.9728L16.7866 15.1074L16.7381 15.2425L16.6911 15.3778L16.6454 15.5138L16.6011 15.65L16.5583 15.7866L16.5169 15.9235L16.4768 16.0609L16.4382 16.1984L16.401 16.3363L16.3653 16.4745L16.3309 16.613L16.298 16.7518L16.2665 16.8908L16.2364 17.03L16.2078 17.1695L16.1806 17.3091L16.1548 17.449L16.1305 17.589L16.1076 17.7293L16.0861 17.8696L16.0661 18.0101L16.0475 18.1507L16.0304 18.2914L16.0146 18.4322L16.0004 18.5731L15.9875 18.7141L15.9761 18.855L15.9662 18.9961L15.9577 19.1372L15.9506 19.2783L15.9449 19.4194L15.9407 19.5604L15.9379 19.7014L15.9366 19.8424L15.9367 19.9833L15.9382 20.1241L15.9411 20.2649L15.9455 20.4055L15.9513 20.546L15.9585 20.6864L15.9672 20.8266L15.9773 20.9667L15.9887 21.1065L16.0016 21.2462L16.016 21.3858L16.0317 21.525L16.0488 21.6641L16.0673 21.8029L16.0873 21.9415L16.1086 22.0798L16.1313 22.2177L16.1554 22.3554L16.1809 22.4928L16.2078 22.6298L16.236 22.7666L16.2657 22.9029L16.2966 23.0389L16.329 23.1745L16.3627 23.3097L16.3978 23.4446L16.4342 23.5789L16.472 23.7129L16.5111 23.8464L16.5515 23.9795L16.5933 24.1121L16.6364 24.2441L16.6808 24.3757L16.7265 24.5068L16.7736 24.6374L16.8219 24.7673L16.8715 24.8968L16.9224 25.0257L16.9746 25.1541L17.0281 25.2818L17.0828 25.4089L17.1388 25.5355L17.1961 25.6615L17.2546 25.7867L17.3143 25.9114L17.3753 26.0353L17.4375 26.1586L17.5009 26.2813L17.5655 26.4032L17.6314 26.5244L17.6984 26.6449L17.7666 26.7647L17.836 26.8838L17.9066 27.002L17.9783 27.1195L18.0512 27.2363L18.1252 27.3522L18.2003 27.4674L18.2766 27.5818L18.354 27.6953L18.4325 27.808L18.5122 27.9199L18.5929 28.0309L18.6747 28.1411L18.7575 28.2504L18.8415 28.3588L18.9264 28.4663L19.0125 28.5729L19.0996 28.6787L19.1876 28.7835L19.2767 28.8874L19.3668 28.9903L19.458 29.0923L19.5501 29.1933L19.6431 29.2933L19.7371 29.3924L19.8321 29.4905L19.9281 29.5877L20.0249 29.6837L20.1227 29.7789L20.2214 29.8729L20.321 29.966L20.4215 30.058L20.5228 30.149L20.625 30.2389L20.7281 30.3277L20.8321 30.4155L20.9368 30.5022L21.0425 30.5879L21.1488 30.6724L21.256 30.7558L21.364 30.8382L21.4728 30.9194L21.5823 30.9995L21.6925 31.0784L21.8035 31.1562L21.9153 31.233L22.0277 31.3085L22.1409 31.3829L22.2547 31.4561L22.3693 31.5282L22.4845 31.5991L22.6003 31.6688L22.7168 31.7373L22.8339 31.8046L22.9517 31.8708L23.07 31.9357L23.189 31.9994L23.3084 32.062L23.4285 32.1233L23.5492 32.1833L23.6704 32.2422L23.7921 32.2999L23.9143 32.3563L24.037 32.4114L24.1603 32.4653L24.2839 32.5179L24.4081 32.5694L24.5327 32.6196L24.6578 32.6684L24.7833 32.7161L24.9091 32.7624L25.0354 32.8075L25.1621 32.8513L25.2892 32.8939L25.4166 32.9351L25.5442 32.9751L25.6724 33.0138L25.8008 33.0512L25.9295 33.0873L26.0585 33.1221L26.1878 33.1557L26.3174 33.1879L26.4471 33.2188L26.5772 33.2485L26.7075 33.2768L26.8379 33.3038L26.9686 33.3295L27.0995 33.354L27.2305 33.3771L27.3617 33.3988L27.493 33.4193L27.6245 33.4385L27.7561 33.4563L27.8878 33.473L28.0195 33.4882L28.1514 33.5021L28.2834 33.5148L28.4154 33.526L28.5474 33.5361L28.6794 33.5447L28.8115 33.5522L28.9436 33.5582L29.0756 33.563L29.2076 33.5665L29.3396 33.5685L29.4715 33.5694L29.6034 33.5689L29.7351 33.5671L29.8668 33.5641L29.9983 33.5597L30.1298 33.5541L30.2612 33.5471L30.3923 33.5389L30.5233 33.5294L30.6542 33.5185L30.7848 33.5064L30.9152 33.493L31.0455 33.4783L31.1754 33.4624L31.3052 33.4451L31.4347 33.4266L31.564 33.4068L31.693 33.3858L31.8217 33.3635L31.9501 33.3399L32.0781 33.3151L32.2059 33.289L32.3333 33.2617L32.4603 33.2332L32.587 33.2033L32.7133 33.1723L32.8392 33.1401L32.9647 33.1065L33.0898 33.0718L33.2145 33.0359L33.3387 32.9987L33.4626 32.9604L33.5859 32.9209L33.7088 32.8801L33.8311 32.8382L33.9529 32.7951L34.0743 32.7508L34.1952 32.7053L34.3155 32.6587L34.4352 32.6109L34.5544 32.562L34.673 32.5118L34.7911 32.4606L34.9085 32.4082L35.0253 32.3547L35.1416 32.3001L35.2572 32.2443L35.3722 32.1875L35.4866 32.1295L35.6002 32.0705L35.7132 32.0103L35.8256 31.9491L35.9372 31.8868L36.0481 31.8234L36.1583 31.759L36.268 31.6935L36.3766 31.6271L36.4848 31.5594L36.592 31.4909L36.6985 31.4213L36.8043 31.3507L36.9094 31.2789L37.0134 31.2065L37.1168 31.1328L37.2194 31.0583L37.3212 30.9828L37.4222 30.9062L37.5222 30.8288L37.6215 30.7503L37.7198 30.671L37.8173 30.5908L37.9141 30.5096L38.0099 30.4275L38.1046 30.3446L38.1987 30.2606L38.2917 30.176L38.3839 30.0903L38.4751 30.0039L38.5653 29.9166L38.6547 29.8284L38.7431 29.7394L38.8306 29.6496L38.9171 29.5589L39.0025 29.4676L39.087 29.3755L39.1706 29.2823L39.2531 29.1886L39.3347 29.0941L39.4151 28.9989L39.4947 28.9028L39.5731 28.8061L39.6505 28.7087L39.727 28.6105L39.8023 28.5117L39.8767 28.4121L39.9499 28.312L40.0221 28.2111L40.0934 28.1095L40.1633 28.0075L40.2323 27.9046L40.3001 27.8013L40.3669 27.6972L40.4328 27.5925L40.4973 27.4874L40.5607 27.3817L40.6232 27.2751L40.6843 27.1684L40.7445 27.0609L40.8035 26.9529L40.8613 26.8446L40.9181 26.7355L40.9737 26.6259L41.0281 26.5162L41.0814 26.4057L41.1336 26.2947L41.1845 26.1834L41.2343 26.0717L41.283 25.9595L41.3304 25.847L41.3768 25.7339L41.4219 25.6204L41.4658 25.5069L41.5086 25.3925L41.5501 25.2782L41.5905 25.1633L41.6298 25.0481L41.6678 24.9326L41.7045 24.8171L41.7402 24.7007L41.7745 24.5845L41.8077 24.4679L41.8397 24.3511L41.8705 24.2339L41.9 24.1167L41.9285 23.9991L41.9556 23.8812L41.9816 23.7633L42.0063 23.6451L42.0298 23.5269L42.052 23.4083L42.0731 23.2899L42.093 23.171L42.1116 23.0521L42.129 22.9332L42.1452 22.814L42.1602 22.695L42.174 22.5755L42.1864 22.4564L42.1978 22.3369L42.2078 22.2177L42.2167 22.0981L42.2244 21.9789L42.2308 21.8594L42.236 21.7398L42.24 21.6205L42.2428 21.5014L42.2444 21.3819L42.2448 21.2625L42.2439 21.1434L42.2418 21.0243L42.2385 20.9052L42.234 20.7866L42.2284 20.6675L42.2215 20.549L42.2133 20.4305L42.2041 20.3123L42.1936 20.1939L42.1819 20.0761L42.1691 19.9582L42.155 19.8407L42.1397 19.7232L42.1233 19.6061L42.1056 19.489L42.0868 19.3724L42.0669 19.2562L42.0458 19.1399L42.0234 19.024L41.9999 18.9085L41.9753 18.793L41.9496 18.6783L41.9226 18.5635L41.8946 18.4494L41.8652 18.3352L41.8349 18.2219L41.8034 18.1087L41.7708 17.9957L41.737 17.8834L41.7022 17.7715L41.6661 17.6597L41.6291 17.5487L41.5908 17.4379L41.5515 17.3277L41.5111 17.2177L41.4696 17.1085L41.427 16.9995L41.3833 16.8911L41.3386 16.7834L41.2929 16.6761L41.2458 16.569L41.1981 16.4629L41.149 16.3569L41.099 16.2519L41.048 16.1472L40.9958 16.043L40.9428 15.9396L40.8886 15.8367L40.8334 15.7342L40.7774 15.6328L40.7202 15.5315L40.6621 15.4312L40.6029 15.3312L40.543 15.2323L40.4817 15.1337L40.4198 15.0359L40.3568 14.9386L40.2929 14.8422L40.2281 14.7466L40.1622 14.6514L40.0955 14.5571L40.0279 14.4634L39.9593 14.3706L39.8899 14.2783L39.8196 14.187L39.7484 14.0963L39.6763 14.0064L39.6033 13.9173L39.5295 13.8289L39.4547 13.7414L39.3793 13.6546L39.303 13.5687L39.2259 13.4835L39.1477 13.399L39.0692 13.3157L38.9893 13.2329L38.9091 13.1512L38.828 13.0702L38.7461 12.9901L38.6632 12.9107L38.58 12.8325L38.4957 12.7549L38.4108 12.6782L38.3253 12.6026L38.239 12.5278L38.1518 12.4537L38.064 12.3807L37.9757 12.3086L37.8866 12.2374L37.7968 12.1671L37.7065 12.0979L37.6152 12.0293L37.5237 11.962L37.4314 11.8955L37.3383 11.8299L37.2449 11.7654L37.1505 11.7017L37.0561 11.6392L36.9607 11.5775L36.8649 11.5168L36.7683 11.4571L36.6714 11.3984L36.5739 11.3407L36.4761 11.2842L36.3773 11.2283L36.2786 11.1737L36.1789 11.12L36.0789 11.0674L35.9786 11.0159L35.8776 10.9653L35.7762 10.9157L35.6745 10.8672L35.5722 10.8197L35.4696 10.7733L35.3666 10.7279L35.2598 10.6821L35.1595 10.6403L35.055 10.598L34.9507 10.557L34.8456 10.5167L34.7405 10.4777L34.6349 10.4397L34.5291 10.4029L34.4228 10.3669L34.3165 10.3322L34.2096 10.2986L34.1026 10.2659L33.9955 10.2345L33.8879 10.204L33.7799 10.1746L33.6721 10.1464L33.5641 10.1192L33.4554 10.0931L33.347 10.0681L33.2381 10.0441L33.1293 10.0214L33.02 9.99959L32.9109 9.97897L32.8015 9.95942L32.6921 9.94101L32.5822 9.92362L32.4727 9.90739L32.3629 9.89223L32.2529 9.87816L32.143 9.86519L32.033 9.85334L31.923 9.84257L31.8129 9.83289L31.7027 9.82431L31.5924 9.81681L31.4825 9.81043L31.3724 9.80513L31.262 9.80092L31.1522 9.79782L31.0422 9.79579L30.9322 9.79486L30.8221 9.79502L30.8001 9.79527L30.8348 12.7488L30.8972 12.7485L30.9776 12.7489L31.058 12.7502L31.1384 12.7523L31.219 12.7551L31.2995 12.7588L31.38 12.7633L31.4606 12.7686L31.5412 12.7747L31.6218 12.7816L31.7025 12.7893L31.783 12.7978L31.8636 12.8071L31.9441 12.8173L32.0246 12.8282L32.105 12.84L32.1854 12.8525L32.2657 12.8659L32.346 12.8801L32.4262 12.8951L32.5062 12.9109L32.5862 12.9275L32.6661 12.9449L32.7459 12.9631L32.8255 12.9822L32.9051 13.0021L32.9844 13.0227L33.0636 13.0442L33.1427 13.0665L33.2216 13.0896L33.3004 13.1134L33.3789 13.1381L33.4572 13.1636L33.5354 13.1899L33.6134 13.217L33.6911 13.2449L33.7686 13.2736L33.8458 13.303L33.9229 13.3333L33.9997 13.3643L34.0762 13.3962L34.1525 13.4289L34.2285 13.4623L34.3042 13.4965L34.3796 13.5314L34.4547 13.5672L34.5295 13.6037L34.604 13.6411L34.6782 13.6792L34.7521 13.718L34.8255 13.7576L34.8987 13.798L34.9715 13.8391L35.0439 13.881L35.116 13.9236L35.1877 13.9671L35.259 14.0112L35.3299 14.0561L35.4004 14.1018L35.4705 14.1481L35.5401 14.1952L35.6094 14.243L35.6782 14.2916L35.7466 14.3408L35.8144 14.3908L35.8819 14.4416L35.9489 14.493L36.0154 14.5452L36.0814 14.598L36.1469 14.6515L36.212 14.7057L36.2765 14.7607L36.3405 14.8162L36.4041 14.8725L36.467 14.9294L36.5295 14.9871L36.5913 15.0453L36.6527 15.1043L36.7135 15.1639L36.7737 15.2241L36.8334 15.285L36.8925 15.3466L36.951 15.4088L37.0089 15.4716L37.0662 15.535L37.1229 15.5991L37.179 15.6637L37.2344 15.729L37.2893 15.7948L37.3435 15.8613L37.3971 15.9283L37.45 15.9959L37.5023 16.0642L37.5539 16.133L37.6049 16.2023L37.6552 16.2722L37.7048 16.3427L37.7537 16.4137L37.802 16.4852L37.8495 16.5573L37.8963 16.6299L37.9424 16.7031L37.9879 16.7767L38.0326 16.8508L38.0766 16.9255L38.1198 17.0006L38.1623 17.0762L38.2041 17.1523L38.2451 17.2289L38.2854 17.306L38.3249 17.3835L38.3636 17.4614L38.4016 17.5399L38.4389 17.6187L38.4753 17.6979L38.5109 17.7776L38.5458 17.8577L38.5799 17.9382L38.6131 18.0191L38.6456 18.1004L38.6772 18.1821L38.708 18.2641L38.7381 18.3465L38.7673 18.4293L38.7957 18.5124L38.8233 18.5959L38.85 18.6797L38.8759 18.7638L38.9009 18.8482L38.9251 18.933L38.9485 19.0181L38.9709 19.1035L38.9926 19.1891L39.0134 19.275L39.0333 19.3612L39.0524 19.4476L39.0706 19.5343L39.0879 19.6213L39.1043 19.7084L39.1198 19.7959L39.1345 19.8835L39.1483 19.9713L39.1612 20.0594L39.1732 20.1476L39.1843 20.236L39.1946 20.3246L39.2039 20.4134L39.2123 20.5023L39.2199 20.5914L39.2265 20.6805L39.2322 20.7699L39.237 20.8593L39.2409 20.9488L39.2439 21.0385L39.2459 21.1282L39.2471 21.2181L39.2473 21.3081L39.2466 21.398L39.245 21.488L39.2425 21.5781L39.239 21.6683L39.2347 21.7584L39.2294 21.8486L39.2232 21.9388L39.2161 22.029L39.2079 22.1192L39.199 22.2094L39.189 22.2995L39.1782 22.3896L39.1664 22.4797L39.1537 22.5697L39.1401 22.6596L39.1255 22.7495L39.11 22.8393L39.0935 22.929L39.0762 23.0186L39.0579 23.1081L39.0387 23.1975L39.0186 23.2868L38.9975 23.3759L38.9755 23.4648L38.9526 23.5537L38.9288 23.6423L38.9041 23.7308L38.8784 23.819L38.8518 23.9071L38.8243 23.9951L38.7958 24.0828L38.7664 24.1702L38.7362 24.2574L38.7051 24.3444L38.673 24.4311L38.6399 24.5176L38.6061 24.6038L38.5713 24.6897L38.5356 24.7754L38.4989 24.8608L38.4615 24.9458L38.4231 25.0306L38.3838 25.115L38.3436 25.1991L38.3026 25.2828L38.2606 25.3662L38.2177 25.4493L38.1741 25.5319L38.1295 25.6142L38.084 25.6961L38.0377 25.7776L37.9905 25.8587L37.9425 25.9394L37.8936 26.0196L37.8439 26.0995L37.7932 26.1789L37.7418 26.2578L37.6895 26.3363L37.6364 26.4143L37.5825 26.4919L37.5277 26.5689L37.472 26.6455L37.4156 26.7216L37.3584 26.7972L37.3003 26.8722L37.2415 26.9467L37.1818 27.0208L37.1213 27.0942L37.0601 27.1671L36.998 27.2394L36.9352 27.3112L36.8716 27.3824L36.8073 27.453L36.7421 27.523L36.6763 27.5925L36.6096 27.6613L36.5423 27.7295L36.4741 27.797L36.4053 27.864L36.3356 27.9303L36.2654 27.9959L36.1943 28.061L36.1225 28.1253L36.0501 28.189L35.977 28.252L35.9032 28.3143L35.8286 28.376L35.7535 28.4369L35.6775 28.4971L35.601 28.5566L35.5238 28.6154L35.446 28.6734L35.3674 28.7307L35.2883 28.7874L35.2086 28.8432L35.1282 28.8983L35.0471 28.9526L34.9655 29.0061L34.8833 29.0589L34.8006 29.1109L34.7171 29.1621L34.6332 29.2125L34.5486 29.2621L34.4636 29.3109L34.3779 29.3589L34.2917 29.4061L34.205 29.4525L34.1177 29.498L34.0299 29.5426L33.9416 29.5864L33.8528 29.6295L33.7635 29.6716L33.6737 29.7129L33.5834 29.7533L33.4927 29.7928L33.4014 29.8315L33.3098 29.8693L33.2177 29.9062L33.1251 29.9422L33.0322 29.9774L32.9388 30.0116L32.845 30.0449L32.7507 30.0773L32.6562 30.1088L32.5612 30.1393L32.4659 30.169L32.3701 30.1977L32.2741 30.2255L32.1777 30.2524L32.0809 30.2783L31.9838 30.3032L31.8864 30.3273L31.7887 30.3504L31.6907 30.3725L31.5924 30.3936L31.4938 30.4138L31.395 30.433L31.2959 30.4514L31.1965 30.4687L31.0969 30.485L30.9971 30.5003L30.8971 30.5146L30.7968 30.528L30.6963 30.5405L30.5957 30.5518L30.4949 30.5622L30.3939 30.5717L30.2927 30.5801L30.1914 30.5875L30.09 30.5939L29.9884 30.5993L29.8867 30.6037L29.7849 30.6071L29.683 30.6095L29.581 30.6109L29.4788 30.6113L29.3767 30.6107L29.2746 30.609L29.1723 30.6064L29.07 30.6027L28.9677 30.5979L28.8653 30.5922L28.763 30.5855L28.6607 30.5778L28.5584 30.569L28.4561 30.5592L28.3538 30.5483L28.2516 30.5365L28.1494 30.5237L28.0473 30.5098L27.9453 30.4949L27.8434 30.4789L27.7416 30.462L27.6398 30.444L27.5382 30.4251L27.4368 30.4051L27.3355 30.384L27.2342 30.362L27.1332 30.3389L27.0324 30.3148L26.9317 30.2897L26.8313 30.2636L26.731 30.2365L26.6309 30.2083L26.5311 30.1792L26.4315 30.1491L26.3321 30.1179L26.2331 30.0857L26.1343 30.0526L26.0357 30.0184L25.9375 29.9832L25.8395 29.9471L25.7418 29.9099L25.6445 29.8717L25.5475 29.8326L25.4508 29.7925L25.3545 29.7513L25.2586 29.7093L25.163 29.6662L25.0678 29.6221L24.973 29.5772L24.8786 29.5312L24.7846 29.4842L24.691 29.4363L24.5979 29.3875L24.5051 29.3376L24.4129 29.2869L24.3211 29.2352L24.2298 29.1825L24.1389 29.1289L24.0485 29.0744L23.9587 29.0189L23.8693 28.9625L23.7805 28.9052L23.6922 28.847L23.6045 28.7878L23.5173 28.7278L23.4307 28.6669L23.3446 28.6051L23.2591 28.5423L23.1742 28.4787L23.0898 28.4142L23.0062 28.3488L22.9231 28.2826L22.8407 28.2155L22.7588 28.1475L22.6776 28.0787L22.5971 28.0091L22.5172 27.9385L22.438 27.8672L22.3595 27.795L22.2817 27.7221L22.2045 27.6483L22.1281 27.5736L22.0524 27.4982L21.9774 27.422L21.9032 27.345L21.8296 27.2673L21.7568 27.1887L21.6849 27.1094L21.6136 27.0293L21.5431 26.9484L21.4735 26.8668L21.4045 26.7845L21.3365 26.7015L21.2691 26.6176L21.2027 26.5332L21.137 26.4479L21.0722 26.362L21.0082 26.2754L20.945 26.1881L20.8827 26.1001L20.8213 26.0115L20.7607 25.9222L20.701 25.8322L20.6422 25.7417L20.5843 25.6504L20.5273 25.5585L20.4712 25.466L20.4159 25.3729L20.3616 25.2793L20.3083 25.1849L20.2558 25.0901L20.2043 24.9946L20.1537 24.8986L20.1041 24.802L20.0555 24.7049L20.0078 24.6072L19.961 24.509L19.9153 24.4103L19.8705 24.311L19.8267 24.2114L19.7839 24.1111L19.7421 24.0104L19.7013 23.9092L19.6615 23.8076L19.6227 23.7054L19.5849 23.6029L19.5482 23.5L19.5125 23.3965L19.4778 23.2927L19.4441 23.1885L19.4115 23.0839L19.38 22.9789L19.3495 22.8735L19.32 22.7678L19.2916 22.6617L19.2643 22.5552L19.2381 22.4485L19.2129 22.3414L19.1888 22.234L19.1658 22.1263L19.1438 22.0184L19.123 21.9101L19.1032 21.8015L19.0846 21.6927L19.067 21.5837L19.0505 21.4744L19.0352 21.3649L19.0209 21.2552L19.0078 21.1452L18.9957 21.0351L18.9848 20.9249L18.975 20.8144L18.9664 20.7037L18.9588 20.593L18.9524 20.482L18.9471 20.371L18.9429 20.2599L18.9398 20.1486L18.9379 20.0372L18.9371 19.9257L18.9375 19.8142L18.939 19.7026L18.9416 19.5911L18.9454 19.4794L18.9503 19.3677L18.9564 19.256L18.9635 19.1443L18.9719 19.0326L18.9813 18.9209L18.992 18.8093L19.0037 18.6976L19.0166 18.5861L19.0307 18.4746L19.0459 18.3632L19.0622 18.2518L19.0797 18.1407L19.0983 18.0295L19.1181 17.9186L19.139 17.8077L19.1611 17.697L19.1842 17.5865L19.2086 17.476L19.2341 17.3658L19.2607 17.2558L19.2884 17.146L19.3173 17.0364L19.3473 16.927L19.3784 16.8179L19.4107 16.709L19.4441 16.6004L19.4786 16.492L19.5143 16.3839L19.551 16.2761L19.5889 16.1687L19.6279 16.0615L19.668 15.9546L19.7092 15.8481L19.7516 15.742L19.795 15.6362L19.8396 15.5308L19.8852 15.4257L19.9319 15.321L19.9798 15.2168L20.0287 15.113L20.0787 15.0096L20.1298 14.9066L20.1819 14.8041L20.2351 14.7021L20.2894 14.6005L20.3448 14.4994L20.4012 14.3988L20.4587 14.2987L20.5172 14.1991L20.5768 14.1001L20.6374 14.0015L20.6991 13.9036L20.7618 13.8061L20.8255 13.7093L20.8902 13.613L20.956 13.5173L21.0228 13.4222L21.0905 13.3277L21.1593 13.2339L21.229 13.1406L21.2998 13.0481L21.3716 12.9561L21.4443 12.8649L21.5179 12.7743L21.5925 12.6843L21.6682 12.5951L21.7447 12.5065L21.8222 12.4188L21.9006 12.3317L21.9799 12.2453L22.0602 12.1597L22.1415 12.0747L22.2235 11.9907L22.3065 11.9073L22.3904 11.8247L22.4752 11.7429L22.5609 11.6619L22.6474 11.5817L22.7348 11.5023L22.8231 11.4238L22.9121 11.3461L23.0021 11.2692L23.0929 11.1931L23.1845 11.118L23.2769 11.0436L23.3701 10.9702L23.4641 10.8976L23.5589 10.826L23.6545 10.7552L23.7509 10.6854L23.8479 10.6165L23.9459 10.5485L24.0445 10.4814L24.1438 10.4153L24.2439 10.3501L24.3447 10.2859L24.4462 10.2226L24.5484 10.1603L24.6513 10.099L24.7549 10.0387L24.8591 9.97938L24.964 9.92104L25.0695 9.86373L25.1757 9.80743L25.2826 9.75215L25.39 9.69789L25.498 9.64468L25.6067 9.5925L25.7159 9.54138L25.8257 9.49131L25.9362 9.44229L26.0471 9.39435L26.1586 9.34749L26.2706 9.30169L26.3831 9.25699L26.4962 9.21338L26.6098 9.17086L26.7238 9.12945L26.8384 9.08915L26.9534 9.04996L27.0689 9.01188L27.1847 8.97494L27.3011 8.93912L27.4179 8.90443L27.5351 8.87088L27.6527 8.83848L27.7707 8.80722L27.8891 8.77711L28.0078 8.74817L28.1269 8.72039L28.2464 8.69376L28.3661 8.66831L28.4862 8.64403L28.6066 8.62093L28.7273 8.59901L28.8483 8.57827L28.9696 8.55872L29.0911 8.54036L29.2129 8.52319L29.3349 8.50722L29.3804 8.50172ZM29.4319 12.8824L29.3968 9.89642L29.2968 9.91051L29.1893 9.92676L29.0817 9.94409L28.9748 9.96241L28.8678 9.98186L28.7613 10.0023L28.655 10.0238L28.5491 10.0463L28.4434 10.0698L28.338 10.0944L28.2329 10.1201L28.1282 10.1467L28.0236 10.1744L27.9232 10.202L27.8161 10.2327L27.7127 10.2634L27.6098 10.2951L27.5075 10.3277L27.4053 10.3614L27.3036 10.3961L27.2023 10.4317L27.1015 10.4682L27.0011 10.5059L26.9012 10.5444L26.8017 10.5839L26.7029 10.6243L26.6042 10.6658L26.5062 10.7082L26.4086 10.7514L26.3118 10.7956L26.2151 10.8409L26.1191 10.887L26.0238 10.9339L25.9287 10.9819L25.8346 11.0306L25.7407 11.0805L25.6477 11.1309L25.5548 11.1826L25.4629 11.2349L25.3715 11.2881L25.2806 11.3423L25.1905 11.3972L25.1007 11.4532L25.0119 11.5097L24.9235 11.5673L24.8359 11.6256L24.749 11.6847L24.6626 11.7448L24.5768 11.8057L24.492 11.8671L24.4076 11.9296L24.3239 11.9928L24.241 12.0568L24.1589 12.1215L24.0773 12.1871L23.9966 12.2533L23.9166 12.3203L23.8372 12.3882L23.7588 12.4566L23.681 12.5259L23.6039 12.5959L23.5277 12.6666L23.4523 12.7379L23.3774 12.8101L23.3036 12.8827L23.2305 12.9561L23.1581 13.0303L23.0866 13.105L23.0159 13.1805L22.946 13.2566L22.877 13.3332L22.8087 13.4106L22.7412 13.4886L22.6748 13.567L22.6091 13.6462L22.5442 13.7261L22.4802 13.8063L22.4172 13.8872L22.3548 13.9688L22.2934 14.0508L22.2329 14.1334L22.1733 14.2165L22.1145 14.3002L22.0567 14.3843L21.9998 14.469L21.9437 14.5542L21.8885 14.6399L21.8344 14.726L21.7811 14.8126L21.7287 14.8998L21.6772 14.9873L21.6267 15.0753L21.5771 15.1638L21.5285 15.2525L21.4807 15.3418L21.4338 15.4316L21.3881 15.5216L21.3432 15.6121L21.2993 15.703L21.2563 15.7941L21.2143 15.8858L21.1733 15.9776L21.1332 16.0699L21.094 16.1625L21.0559 16.2554L21.0188 16.3485L20.9825 16.4421L20.9473 16.5359L20.9131 16.63L20.8798 16.7244L20.8476 16.8189L20.8163 16.9138L20.786 17.0089L20.7566 17.1043L20.7284 17.1998L20.701 17.2955L20.6747 17.3914L20.6494 17.4876L20.625 17.5839L20.6017 17.6804L20.5794 17.7771L20.558 17.8738L20.5377 17.9708L20.5184 18.0679L20.5001 18.165L20.4827 18.2624L20.4664 18.3597L20.4511 18.4572L20.4368 18.5547L20.4234 18.6524L20.4111 18.75L20.3998 18.8478L20.3895 18.9455L20.3802 19.0434L20.3719 19.1412L20.3646 19.2389L20.3583 19.3368L20.353 19.4347L20.3487 19.5324L20.3454 19.6302L20.3431 19.7278L20.3418 19.8255L20.3415 19.9232L20.3422 20.0207L20.3439 20.1181L20.3465 20.2155L20.3502 20.3127L20.3548 20.4099L20.3605 20.507L20.3671 20.6038L20.3747 20.7006L20.3832 20.7972L20.3928 20.8936L20.4033 20.9899L20.4148 21.0861L20.4272 21.182L20.4407 21.2777L20.4551 21.3733L20.4704 21.4685L20.4867 21.5636L20.504 21.6585L20.5222 21.753L20.5414 21.8474L20.5615 21.9415L20.5825 22.0354L20.6045 22.1288L20.6275 22.222L20.6513 22.315L20.6761 22.4077L20.7018 22.4999L20.7285 22.5919L20.756 22.6836L20.7845 22.7749L20.8138 22.866L20.8441 22.9565L20.8753 23.0467L20.9073 23.1366L20.9402 23.226L20.9741 23.3151L21.0088 23.4038L21.0444 23.492L21.0808 23.5799L21.1182 23.6673L21.1564 23.7542L21.1954 23.8408L21.2353 23.9268L21.2761 24.0124L21.3176 24.0975L21.3601 24.1821L21.4033 24.2664L21.4473 24.3501L21.4922 24.4332L21.5379 24.5159L21.5844 24.598L21.6317 24.6796L21.6798 24.7607L21.7287 24.8413L21.7783 24.9213L21.8288 25.0007L21.88 25.0797L21.9319 25.1579L21.9847 25.2357L22.0381 25.3128L22.0923 25.3894L22.1473 25.4653L22.203 25.5407L22.2594 25.6154L22.3165 25.6896L22.3743 25.7631L22.4329 25.8359L22.4921 25.9082L22.552 25.9798L22.6126 26.0507L22.6739 26.1211L22.7358 26.1906L22.7984 26.2596L22.8616 26.3279L22.9256 26.3955L22.9901 26.4624L23.0553 26.5286L23.121 26.5941L23.1874 26.659L23.2545 26.7231L23.322 26.7865L23.3903 26.8492L23.459 26.9111L23.5283 26.9723L23.5983 27.0328L23.6688 27.0925L23.7398 27.1516L23.8114 27.2098L23.8835 27.2673L23.9561 27.324L24.0293 27.38L24.103 27.4352L24.1771 27.4896L24.2517 27.5432L24.3269 27.5961L24.4025 27.6481L24.4787 27.6994L24.5553 27.7499L24.6323 27.7996L24.7097 27.8485L24.7876 27.8966L24.8659 27.9439L24.9447 27.9903L25.0237 28.0359L25.1033 28.0807L25.1832 28.1247L25.2636 28.1679L25.3442 28.2102L25.4252 28.2516L25.5067 28.2924L25.5885 28.3322L25.6706 28.3712L25.753 28.4093L25.8358 28.4466L25.9188 28.483L26.0021 28.5185L26.0858 28.5533L26.1698 28.5872L26.2539 28.6201L26.3384 28.6523L26.4232 28.6836L26.5082 28.714L26.5934 28.7436L26.6789 28.7723L26.7645 28.8L26.8504 28.827L26.9366 28.853L27.0228 28.8782L27.1093 28.9026L27.1959 28.926L27.2827 28.9486L27.3697 28.9703L27.4568 28.9911L27.5441 29.011L27.6315 29.0301L27.719 29.0482L27.8066 29.0655L27.8944 29.0819L27.9822 29.0974L28.0701 29.1121L28.1581 29.1257L28.2461 29.1386L28.3342 29.1506L28.4224 29.1618L28.5106 29.172L28.5987 29.1813L28.687 29.1897L28.7753 29.1973L28.8636 29.2039L28.9518 29.2098L29.04 29.2147L29.1282 29.2188L29.2165 29.2219L29.3046 29.2243L29.3926 29.2257L29.4807 29.2262L29.5686 29.2259L29.6565 29.2247L29.7443 29.2226L29.832 29.2197L29.9197 29.2159L30.0071 29.2112L30.0944 29.2057L30.1816 29.1993L30.2688 29.192L30.3556 29.1839L30.4425 29.175L30.5291 29.1652L30.6156 29.1545L30.7018 29.143L30.7879 29.1307L30.8738 29.1175L30.9594 29.1034L31.0448 29.0886L31.1301 29.0728L31.2151 29.0563L31.2998 29.039L31.3844 29.0207L31.4685 29.0017L31.5525 28.9819L31.6362 28.9612L31.7196 28.9398L31.8028 28.9176L31.8856 28.8945L31.9681 28.8706L32.0503 28.8459L32.1322 28.8205L32.2137 28.7942L32.295 28.7672L32.3758 28.7394L32.4563 28.7108L32.5365 28.6814L32.6163 28.6513L32.6956 28.6204L32.7746 28.5887L32.8533 28.5562L32.9316 28.5231L33.0093 28.4892L33.0868 28.4546L33.1637 28.4192L33.2404 28.383L33.3165 28.3461L33.3921 28.3087L33.4675 28.2703L33.5422 28.2313L33.6166 28.1915L33.6903 28.1512L33.7637 28.1101L33.8366 28.0683L33.909 28.0258L33.9809 27.9826L34.0523 27.9388L34.1231 27.8942L34.1936 27.849L34.2634 27.8033L34.3327 27.7568L34.4016 27.7096L34.4698 27.6618L34.5374 27.6135L34.6046 27.5644L34.6711 27.5148L34.7372 27.4645L34.8027 27.4136L34.8674 27.3622L34.9318 27.3101L34.9956 27.2574L35.0585 27.2042L35.1212 27.1502L35.183 27.0959L35.2442 27.041L35.3051 26.9853L35.365 26.9293L35.4244 26.8727L35.4833 26.8155L35.5414 26.7579L35.5989 26.6996L35.6558 26.6409L35.7121 26.5816L35.7676 26.5219L35.8225 26.4616L35.8768 26.4009L35.9303 26.3398L35.9833 26.2779L36.0355 26.2158L36.087 26.1532L36.1379 26.09L36.1881 26.0266L36.2376 25.9626L36.2864 25.8982L36.3345 25.8333L36.3818 25.7681L36.4284 25.7026L36.4745 25.6363L36.5197 25.57L36.5642 25.5031L36.6081 25.4358L36.651 25.3684L36.6935 25.3004L36.7351 25.232L36.776 25.1634L36.8161 25.0943L36.8556 25.0249L36.8941 24.9554L36.9322 24.8852L36.9693 24.815L37.0056 24.7445L37.0414 24.6734L37.0762 24.6024L37.1105 24.5307L37.1437 24.4592L37.1765 24.387L37.2082 24.3149L37.2394 24.2422L37.2698 24.1695L37.2993 24.0966L37.3281 24.0233L37.3561 23.9499L37.3832 23.8764L37.4098 23.8024L37.4354 23.7284L37.4603 23.6542L37.4845 23.5798L37.5078 23.5052L37.5304 23.4304L37.5522 23.3556L37.5732 23.2805L37.5933 23.2054L37.6128 23.1301L37.6314 23.0547L37.6493 22.9792L37.6664 22.9034L37.6826 22.8277L37.6982 22.7519L37.7128 22.6761L37.7267 22.6001L37.7398 22.5239L37.7522 22.4479L37.7637 22.3717L37.7745 22.2955L37.7844 22.2193L37.7936 22.1431L37.8021 22.0666L37.8096 21.9906L37.8165 21.914L37.8226 21.8378L37.8278 21.7617L37.8323 21.6853L37.836 21.6091L37.8389 21.533L37.8411 21.4567L37.8424 21.3808L37.843 21.3046L37.8427 21.2286L37.8418 21.1527L37.8401 21.077L37.8375 21.0012L37.8342 20.9256L37.8302 20.8502L37.8254 20.7746L37.8198 20.6993L37.8135 20.6244L37.8063 20.5492L37.7985 20.4744L37.7898 20.3996L37.7804 20.3251L37.7703 20.2507L37.7595 20.1763L37.7478 20.1023L37.7355 20.0285L37.7224 19.9549L37.7085 19.8815L37.6939 19.808L37.6785 19.735L37.6625 19.6623L37.6457 19.5897L37.6282 19.5172L37.61 19.4453L37.591 19.3732L37.5714 19.3018L37.551 19.2304L37.53 19.1594L37.5082 19.0886L37.4857 19.018L37.4625 18.9479L37.4387 18.8781L37.414 18.8083L37.3889 18.7391L37.3629 18.6701L37.3363 18.6016L37.3091 18.5332L37.2811 18.4651L37.2525 18.3977L37.2232 18.3303L37.1933 18.2634L37.1627 18.197L37.1314 18.1307L37.0995 18.0648L37.0671 17.9995L37.0338 17.9343L37.0001 17.8698L36.9657 17.8057L36.9306 17.7416L36.8951 17.6783L36.8587 17.6153L36.8219 17.5528L36.7843 17.4905L36.7464 17.4289L36.7076 17.3675L36.6685 17.3067L36.6286 17.2464L36.5883 17.1865L36.5472 17.1269L36.5057 17.068L36.4637 17.0095L36.4209 16.9513L36.3778 16.8939L36.334 16.8368L36.2898 16.7803L36.2449 16.7241L36.1996 16.6685L36.1537 16.6134L36.1073 16.5588L36.0605 16.5049L36.013 16.4512L35.9652 16.3983L35.9167 16.3458L35.868 16.294L35.8185 16.2424L35.7688 16.1917L35.7184 16.1412L35.6676 16.0915L35.6165 16.0424L35.5649 15.9937L35.5127 15.9456L35.4601 15.8981L35.4072 15.8512L35.3536 15.8047L35.3001 15.7591L35.2457 15.7137L35.1911 15.6692L35.1361 15.6252L35.0806 15.5816L35.0248 15.5388L34.9688 15.4967L34.9121 15.455L34.855 15.4138L34.798 15.3735L34.7401 15.3336L34.6823 15.2945L34.624 15.2559L34.5653 15.2179L34.5063 15.1805L34.4471 15.1439L34.3873 15.1077L34.3275 15.0723L34.2671 15.0374L34.2068 15.0033L34.146 14.9698L34.0848 14.9368L34.0235 14.9045L33.9619 14.8729L33.9 14.8419L33.8378 14.8115L33.7755 14.7818L33.713 14.7529L33.6499 14.7243L33.5871 14.6967L33.5238 14.6696L33.4602 14.6431L33.3965 14.6174L33.3328 14.5924L33.2687 14.5679L33.2043 14.5441L33.14 14.521L33.0753 14.4986L33.0105 14.4768L32.9457 14.4557L32.8807 14.4353L32.8156 14.4155L32.75 14.3963L32.6847 14.3779L32.6192 14.3602L32.5535 14.3431L32.4878 14.3266L32.4217 14.3109L32.3558 14.2958L32.2899 14.2814L32.2237 14.2677L32.1574 14.2545L32.0914 14.2422L32.025 14.2305L31.9587 14.2194L31.8921 14.209L31.8259 14.1994L31.7592 14.1902L31.6929 14.182L31.6264 14.1742L31.5599 14.1672L31.4934 14.1609L31.4268 14.1552L31.3606 14.1501L31.2939 14.1458L31.2275 14.1421L31.1613 14.1391L31.0947 14.1367L31.0285 14.135L30.9623 14.134L30.8962 14.1336L30.851 14.1338L30.8853 17.0511L30.9057 17.0512L30.9437 17.0517L30.9818 17.0527L31.02 17.0539L31.0581 17.0557L31.0964 17.0578L31.1346 17.0602L31.1729 17.0632L31.2112 17.0665L31.2496 17.0702L31.288 17.0743L31.3264 17.0788L31.3648 17.0837L31.4032 17.089L31.4417 17.0948L31.4802 17.1009L31.5186 17.1075L31.557 17.1145L31.5955 17.1219L31.6339 17.1296L31.6723 17.1379L31.7107 17.1465L31.749 17.1555L31.7873 17.1649L31.8256 17.1747L31.8638 17.185L31.902 17.1957L31.9401 17.2067L31.9782 17.2182L32.0162 17.2301L32.0542 17.2425L32.0921 17.2553L32.1299 17.2684L32.1676 17.2819L32.2053 17.2959L32.2428 17.3103L32.2803 17.325L32.3177 17.3403L32.3549 17.3559L32.3921 17.3719L32.4291 17.3883L32.4661 17.4052L32.5029 17.4224L32.5396 17.4401L32.5762 17.4581L32.6127 17.4766L32.6489 17.4955L32.6851 17.5147L32.7211 17.5344L32.7569 17.5545L32.7926 17.575L32.8282 17.5959L32.8635 17.6171L32.8988 17.6388L32.9338 17.6609L32.9687 17.6834L33.0033 17.7062L33.0378 17.7295L33.0721 17.7532L33.1062 17.7772L33.1401 17.8017L33.1738 17.8265L33.2073 17.8517L33.2405 17.8772L33.2735 17.9032L33.3064 17.9295L33.339 17.9563L33.3713 17.9833L33.4035 18.0108L33.4354 18.0387L33.467 18.0669L33.4984 18.0954L33.5295 18.1244L33.5604 18.1537L33.591 18.1834L33.6214 18.2134L33.6514 18.2438L33.6813 18.2746L33.7108 18.3056L33.74 18.3371L33.769 18.3689L33.7976 18.4011L33.8261 18.4335L33.8541 18.4664L33.8818 18.4995L33.9094 18.533L33.9365 18.5668L33.9633 18.601L33.9898 18.6354L34.016 18.6703L34.0419 18.7054L34.0674 18.7408L34.0926 18.7765L34.1175 18.8126L34.142 18.849L34.1661 18.8857L34.19 18.9227L34.2135 18.96L34.2365 18.9975L34.2593 19.0354L34.2817 19.0736L34.3037 19.112L34.3253 19.1507L34.3466 19.1897L34.3675 19.229L34.388 19.2685L34.4081 19.3083L34.4279 19.3483L34.4472 19.3887L34.4661 19.4293L34.4846 19.4701L34.5028 19.5112L34.5206 19.5526L34.5379 19.5942L34.5548 19.636L34.5713 19.678L34.5874 19.7203L34.6031 19.7628L34.6184 19.8055L34.6331 19.8485L34.6475 19.8916L34.6615 19.9349L34.675 19.9785L34.6881 20.0222L34.7007 20.0662L34.7129 20.1104L34.7247 20.1547L34.736 20.1992L34.7469 20.2439L34.7573 20.2888L34.7672 20.3338L34.7767 20.3791L34.7858 20.4244L34.7943 20.4699L34.8024 20.5156L34.8101 20.5615L34.8173 20.6074L34.8239 20.6535L34.8301 20.6997L34.8359 20.7461L34.8412 20.7926L34.846 20.8392L34.8503 20.8858L34.8541 20.9327L34.8575 20.9797L34.8603 21.0266L34.8627 21.0738L34.8645 21.121L34.866 21.1683L34.8668 21.2156L34.8673 21.2631L34.8672 21.3105L34.8666 21.3581L34.8655 21.4058L34.8639 21.4535L34.8619 21.5012L34.8593 21.549L34.8562 21.5968L34.8526 21.6447L34.8485 21.6926L34.8439 21.7405L34.8388 21.7884L34.8331 21.8363L34.827 21.8843L34.8204 21.9323L34.8133 21.9802L34.8056 22.0281L34.7974 22.076L34.7888 22.1239L34.7796 22.1718L34.7699 22.2196L34.7596 22.2675L34.7489 22.3152L34.7377 22.363L34.7259 22.4107L34.7137 22.4583L34.701 22.5059L34.6876 22.5534L34.6738 22.6008L34.6595 22.6481L34.6447 22.6954L34.6294 22.7426L34.6135 22.7897L34.5972 22.8367L34.5803 22.8835L34.5629 22.9303L34.545 22.9769L34.5266 23.0235L34.5077 23.0699L34.4883 23.1162L34.4684 23.1623L34.4479 23.2084L34.427 23.2542L34.4056 23.2998L34.3836 23.3454L34.3612 23.3908L34.3382 23.436L34.3148 23.481L34.2908 23.5259L34.2663 23.5705L34.2414 23.615L34.216 23.6593L34.19 23.7034L34.1637 23.7473L34.1367 23.791L34.1093 23.8344L34.0815 23.8776L34.053 23.9207L34.0242 23.9634L33.9949 24.006L33.9651 24.0482L33.9347 24.0903L33.904 24.1321L33.8727 24.1736L33.841 24.2148L33.8088 24.2559L33.7762 24.2966L33.7431 24.337L33.7095 24.3772L33.6755 24.4171L33.6409 24.4566L33.606 24.4959L33.5706 24.5349L33.5347 24.5735L33.4985 24.6119L33.4617 24.65L33.4246 24.6877L33.3869 24.725L33.3489 24.7621L33.3104 24.7988L33.2715 24.8351L33.2322 24.8711L33.1924 24.9068L33.1522 24.9421L33.1116 24.977L33.0706 25.0116L33.0292 25.0458L32.9873 25.0797L32.9451 25.113L32.9025 25.1461L32.8595 25.1788L32.8161 25.2111L32.7723 25.2429L32.7281 25.2744L32.6836 25.3055L32.6386 25.3361L32.5934 25.3664L32.5477 25.3962L32.5016 25.4256L32.4552 25.4546L32.4085 25.4831L32.3613 25.5112L32.3139 25.5388L32.2661 25.566L32.2179 25.5928L32.1695 25.6191L32.1207 25.6449L32.0715 25.6703L32.022 25.6952L31.9723 25.7197L31.9222 25.7437L31.8718 25.7672L31.8211 25.7902L31.7701 25.8127L31.7188 25.8348L31.6673 25.8563L31.6154 25.8774L31.5632 25.8979L31.5108 25.918L31.4581 25.9375L31.4052 25.9566L31.352 25.9752L31.2985 25.9932L31.2448 26.0107L31.1908 26.0276L31.1367 26.0441L31.0822 26.0601L31.0276 26.0755L30.9727 26.0904L30.9176 26.1047L30.8623 26.1185L30.8067 26.1317L30.751 26.1445L30.6951 26.1566L30.639 26.1683L30.5827 26.1793L30.5262 26.1898L30.4696 26.1998L30.4127 26.2092L30.3558 26.218L30.2986 26.2263L30.2414 26.234L30.1839 26.2412L30.1264 26.2478L30.0687 26.2537L30.0108 26.2592L29.9529 26.264L29.8948 26.2684L29.8366 26.272L29.7784 26.2752L29.72 26.2777L29.6615 26.2796L29.6029 26.2809L29.5443 26.2817L29.4856 26.282L29.4268 26.2816L29.368 26.2806L29.309 26.2789L29.2501 26.2768L29.1911 26.274L29.132 26.2706L29.073 26.2667L29.0139 26.2621L28.9548 26.2569L28.8957 26.2511L28.8366 26.2448L28.7774 26.2378L28.7184 26.2302L28.6592 26.222L28.6001 26.2133L28.541 26.2038L28.482 26.1939L28.423 26.1833L28.3641 26.1721L28.3052 26.1603L28.2464 26.1479L28.1876 26.1349L28.1289 26.1212L28.0703 26.107L28.0117 26.0922L27.9532 26.0768L27.8949 26.0607L27.8366 26.0441L27.7785 26.0269L27.7204 26.009L27.6625 25.9906L27.6047 25.9715L27.547 25.9519L27.4895 25.9317L27.4322 25.9108L27.3749 25.8893L27.3179 25.8673L27.261 25.8447L27.2043 25.8214L27.1477 25.7976L27.0914 25.7732L27.0352 25.7482L26.9792 25.7226L26.9235 25.6964L26.8679 25.6696L26.8126 25.6422L26.7575 25.6142L26.7026 25.5857L26.648 25.5566L26.5936 25.5269L26.5394 25.4966L26.4855 25.4658L26.4318 25.4343L26.3785 25.4024L26.3254 25.3698L26.2726 25.3367L26.22 25.303L26.1678 25.2688L26.1158 25.2339L26.0642 25.1985L26.0129 25.1626L25.9619 25.1261L25.9112 25.0891L25.8608 25.0515L25.8108 25.0134L25.7612 24.9747L25.7118 24.9355L25.6628 24.8958L25.6142 24.8555L25.5659 24.8147L25.518 24.7734L25.4705 24.7315L25.4234 24.6891L25.3767 24.6462L25.3303 24.6028L25.2843 24.5589L25.2388 24.5145L25.1936 24.4696L25.1489 24.4242L25.1046 24.3783L25.0607 24.3318L25.0173 24.285L24.9743 24.2375L24.9318 24.1897L24.8896 24.1414L24.848 24.0926L24.8068 24.0434L24.766 23.9936L24.7258 23.9434L24.686 23.8928L24.6467 23.8417L24.6079 23.7901L24.5696 23.7381L24.5318 23.6857L24.4945 23.6329L24.4576 23.5796L24.4213 23.5259L24.3855 23.4718L24.3503 23.4172L24.3156 23.3623L24.2813 23.307L24.2477 23.2512L24.2145 23.1951L24.1819 23.1386L24.1499 23.0816L24.1184 23.0244L24.0875 22.9667L24.0571 22.9087L24.0273 22.8503L23.998 22.7915L23.9694 22.7325L23.9413 22.673L23.9138 22.6133L23.8869 22.5532L23.8607 22.4927L23.8349 22.4319L23.8098 22.3709L23.7853 22.3094L23.7614 22.2478L23.7381 22.1857L23.7155 22.1234L23.6934 22.0609L23.6719 21.998L23.6511 21.9349L23.6309 21.8715L23.6114 21.8078L23.5925 21.7439L23.5742 21.6797L23.5565 21.6152L23.5396 21.5505L23.5232 21.4856L23.5076 21.4205L23.4926 21.3552L23.4782 21.2896L23.4644 21.2238L23.4514 21.1578L23.439 21.0917L23.4273 21.0253L23.4162 20.9588L23.4059 20.8921L23.3962 20.8252L23.3871 20.7582L23.3789 20.691L23.3712 20.6237L23.3642 20.5561L23.3579 20.4885L23.3523 20.4207L23.3474 20.3529L23.3432 20.2849L23.3397 20.2168L23.3369 20.1487L23.3347 20.0804L23.3333 20.012L23.3327 19.9436L23.3326 19.875L23.3333 19.8064L23.3347 19.7378L23.3368 19.6691L23.3396 19.6003L23.3431 19.5316L23.3474 19.4628L23.3523 19.3939L23.3579 19.3251L23.3643 19.2562L23.3713 19.1874L23.3792 19.1185L23.3877 19.0497L23.3969 18.9809L23.4068 18.9121L23.4175 18.8434L23.4289 18.7747L23.4409 18.706L23.4537 18.6374L23.4673 18.5688L23.4815 18.5004L23.4965 18.432L23.5121 18.3637L23.5285 18.2955L23.5456 18.2274L23.5634 18.1594L23.582 18.0915L23.6012 18.0237L23.6211 17.956L23.6418 17.8886L23.6632 17.8212L23.6853 17.754L23.7081 17.687L23.7316 17.6201L23.7558 17.5534L23.7807 17.4868L23.8064 17.4205L23.8328 17.3544L23.8598 17.2884L23.8876 17.2227L23.916 17.1572L23.9452 17.0919L23.975 17.0268L24.0056 16.962L24.0367 16.8975L24.0687 16.8331L24.1013 16.7691L24.1346 16.7053L24.1685 16.6418L24.2032 16.5786L24.2386 16.5156L24.2746 16.4529L24.3113 16.3907L24.3487 16.3286L24.3867 16.2669L24.4255 16.2055L24.4648 16.1444L24.5048 16.0837L24.5455 16.0233L24.5869 15.9633L24.6289 15.9036L24.6716 15.8443L24.7149 15.7854L24.7588 15.7268L24.8034 15.6687L24.8486 15.6109L24.8945 15.5536L24.941 15.4965L24.988 15.44L25.0358 15.3839L25.0841 15.3282L25.1331 15.2729L25.1826 15.218L25.2328 15.1637L25.2836 15.1098L25.335 15.0563L25.387 15.0033L25.4396 14.9508L25.4927 14.8987L25.5465 14.8471L25.6008 14.7961L25.6556 14.7454L25.711 14.6954L25.7671 14.6458L25.8237 14.5968L25.8808 14.5482L25.9385 14.5002L25.9966 14.4527L26.0554 14.4058L26.1146 14.3594L26.1745 14.3136L26.2348 14.2683L26.2956 14.2235L26.357 14.1794L26.4188 14.1358L26.4812 14.0928L26.5441 14.0504L26.6074 14.0086L26.6712 13.9674L26.7356 13.9267L26.8003 13.8867L26.8656 13.8473L26.9313 13.8085L26.9975 13.7703L27.0641 13.7328L27.1311 13.6958L27.1986 13.6596L27.2665 13.624L27.3348 13.589L27.4036 13.5547L27.4728 13.521L27.5423 13.488L27.6123 13.4556L27.6826 13.4239L27.7534 13.3929L27.8245 13.3626L27.896 13.3329L27.9678 13.304L28.0401 13.2757L28.1126 13.2481L28.1855 13.2212L28.2588 13.1951L28.3324 13.1696L28.4063 13.1449L28.4805 13.1209L28.555 13.0975L28.6299 13.075L28.7049 13.0531L28.7803 13.032L28.856 13.0116L28.932 12.9919L29.0082 12.973L29.0847 12.9548L29.1615 12.9374L29.2384 12.9207L29.3156 12.9048L29.393 12.8897L29.4319 12.8824ZM30.3835 18.4926L29.5003 18.7054L29.4484 14.2936L29.4068 14.303L29.3441 14.3179L29.2815 14.3334L29.2194 14.3495L29.1573 14.3662L29.0956 14.3835L29.034 14.4015L28.9729 14.4199L28.9117 14.4391L28.8512 14.4586L28.7906 14.4789L28.7304 14.4998L28.6705 14.5212L28.6108 14.5431L28.5516 14.5656L28.4925 14.5888L28.4338 14.6125L28.3754 14.6366L28.3171 14.6615L28.2595 14.6867L28.202 14.7127L28.145 14.739L28.0881 14.7661L28.0317 14.7935L27.9754 14.8216L27.9198 14.8501L27.8644 14.8791L27.8094 14.9087L27.7547 14.9388L27.7004 14.9694L27.6465 15.0005L27.5931 15.032L27.5397 15.0643L27.487 15.0968L27.4348 15.1299L27.3828 15.1634L27.3312 15.1975L27.2801 15.232L27.2293 15.267L27.179 15.3024L27.1292 15.3383L27.0796 15.3747L27.0306 15.4115L26.982 15.4488L26.9338 15.4865L26.8861 15.5245L26.8389 15.5631L26.792 15.6021L26.7456 15.6416L26.6998 15.6813L26.6544 15.7216L26.6094 15.7621L26.5649 15.8032L26.5208 15.8446L26.4773 15.8865L26.4342 15.9286L26.3915 15.9712L26.3495 16.0141L26.3079 16.0575L26.2668 16.101L26.226 16.1452L26.186 16.1895L26.1463 16.2343L26.1072 16.2794L26.0686 16.3247L26.0305 16.3705L25.993 16.4164L25.9559 16.4629L25.9194 16.5095L25.8833 16.5566L25.8478 16.6039L25.8129 16.6515L25.7784 16.6993L25.7445 16.7474L25.7111 16.796L25.6782 16.8446L25.646 16.8937L25.6143 16.9428L25.5831 16.9923L25.5524 17.0421L25.5223 17.0921L25.4927 17.1424L25.4637 17.1927L25.4352 17.2435L25.4072 17.2944L25.38 17.3455L25.3531 17.3968L25.3269 17.4484L25.3012 17.5002L25.2761 17.552L25.2515 17.6042L25.2275 17.6565L25.2042 17.7089L25.1813 17.7616L25.159 17.8144L25.1373 17.8673L25.1161 17.9204L25.0956 17.9737L25.0755 18.0271L25.0561 18.0805L25.0373 18.1342L25.019 18.1879L25.0013 18.2418L24.9841 18.2957L24.9676 18.3499L24.9515 18.4041L24.9362 18.4582L24.9214 18.5126L24.907 18.5671L24.8934 18.6216L24.8803 18.6762L24.8677 18.7308L24.8558 18.7855L24.8444 18.8403L24.8336 18.895L24.8234 18.9498L24.8137 19.0047L24.8047 19.0595L24.7962 19.1144L24.7882 19.1694L24.7808 19.2242L24.7741 19.2792L24.7679 19.334L24.7622 19.3889L24.7572 19.4439L24.7526 19.4987L24.7487 19.5536L24.7454 19.6084L24.7425 19.6632L24.7403 19.7179L24.7386 19.7725L24.7375 19.8272L24.7369 19.8818L24.737 19.9362L24.7375 19.9906L24.7387 20.045L24.7404 20.0993L24.7426 20.1535L24.7454 20.2075L24.7487 20.2615L24.7526 20.3153L24.7571 20.3691L24.7621 20.4227L24.7676 20.4764L24.7736 20.5296L24.7802 20.583L24.7873 20.636L24.7951 20.6891L24.8033 20.7419L24.812 20.7946L24.8213 20.8472L24.8311 20.8995L24.8414 20.9518L24.8522 21.0037L24.8637 21.0556L24.8755 21.1072L24.888 21.1588L24.9008 21.2099L24.9143 21.2612L24.9282 21.3119L24.9426 21.3627L24.9575 21.4131L24.9729 21.4634L24.9889 21.5134L25.0053 21.5631L25.0222 21.6127L25.0396 21.662L25.0574 21.711L25.0758 21.76L25.0946 21.8086L25.1139 21.8569L25.1337 21.9049L25.1538 21.9527L25.1746 22.0003L25.1957 22.0476L25.2174 22.0945L25.2394 22.1412L25.2619 22.1876L25.2849 22.2339L25.3082 22.2796L25.3321 22.3251L25.3564 22.3704L25.3811 22.4153L25.4062 22.46L25.4317 22.5043L25.4577 22.5482L25.4842 22.5919L25.5109 22.6353L25.5381 22.6783L25.5658 22.721L25.5937 22.7633L25.6222 22.8055L25.6509 22.8469L25.6801 22.8884L25.7097 22.9293L25.7395 22.9699L25.77 23.0102L25.8006 23.0501L25.8316 23.0896L25.8631 23.1288L25.8949 23.1676L25.9269 23.206L25.9595 23.2441L25.9922 23.2818L26.0253 23.319L26.059 23.3559L26.0927 23.3923L26.1269 23.4286L26.1614 23.4643L26.1961 23.4996L26.2312 23.5345L26.2666 23.5691L26.3023 23.6032L26.3384 23.6369L26.3747 23.6702L26.4113 23.7031L26.4482 23.7356L26.4853 23.7677L26.5227 23.7993L26.5604 23.8306L26.5984 23.8614L26.6367 23.8918L26.6751 23.9217L26.7139 23.9512L26.7529 23.9803L26.7921 24.009L26.8316 24.0372L26.8713 24.065L26.9112 24.0924L26.9513 24.1192L26.9916 24.1457L27.0322 24.1717L27.0731 24.1974L27.114 24.2224L27.1552 24.2471L27.1966 24.2714L27.2381 24.2951L27.2798 24.3185L27.3218 24.3414L27.3639 24.3638L27.4061 24.3858L27.4485 24.4072L27.4912 24.4283L27.5338 24.4489L27.5767 24.4691L27.6197 24.4888L27.6628 24.5079L27.7062 24.5267L27.7496 24.545L27.7931 24.5629L27.8367 24.5803L27.8805 24.5971L27.9245 24.6136L27.9683 24.6296L28.0125 24.6451L28.0566 24.6601L28.1008 24.6747L28.1451 24.6888L28.1896 24.7025L28.234 24.7156L28.2785 24.7284L28.3232 24.7406L28.3679 24.7524L28.4126 24.7637L28.4573 24.7746L28.502 24.7849L28.5469 24.7948L28.5918 24.8043L28.6367 24.8133L28.6816 24.8219L28.7265 24.8299L28.7715 24.8376L28.8164 24.8447L28.8614 24.8514L28.9062 24.8576L28.9512 24.8633L28.9961 24.8686L29.0411 24.8735L29.086 24.8778L29.1309 24.8818L29.1757 24.8852L29.2205 24.8883L29.2653 24.8908L29.31 24.8929L29.3546 24.8946L29.3993 24.8958L29.4437 24.8965L29.4882 24.8968L29.5326 24.8967L29.5769 24.8961L29.6213 24.8951L29.6655 24.8936L29.7095 24.8917L29.7535 24.8893L29.7975 24.8866L29.8412 24.8833L29.8849 24.8797L29.9285 24.8756L29.972 24.8711L30.0154 24.8661L30.0585 24.8608L30.1017 24.855L30.1446 24.8487L30.1874 24.8421L30.2302 24.835L30.2727 24.8275L30.3151 24.8196L30.3574 24.8113L30.3995 24.8026L30.4414 24.7934L30.4831 24.7839L30.5248 24.774L30.5662 24.7636L30.6074 24.753L30.6485 24.7418L30.6893 24.7303L30.7302 24.7183L30.7706 24.7061L30.8108 24.6934L30.8511 24.6802L30.8909 24.6668L30.9306 24.653L30.9701 24.6388L31.0093 24.6242L31.0485 24.6092L31.0873 24.5939L31.1259 24.5782L31.1642 24.5622L31.2024 24.5458L31.2404 24.529L31.278 24.5119L31.3155 24.4945L31.3527 24.4767L31.3895 24.4585L31.4263 24.4401L31.4626 24.4213L31.4989 24.4021L31.5348 24.3826L31.5704 24.3628L31.6058 24.3427L31.6409 24.3222L31.6758 24.3015L31.7103 24.2804L31.7445 24.259L31.7785 24.2372L31.8123 24.2153L31.8457 24.193L31.8788 24.1704L31.9117 24.1474L31.9443 24.1243L31.9765 24.1009L32.0084 24.0771L32.0401 24.053L32.0714 24.0287L32.1024 24.0041L32.1332 23.9792L32.1636 23.9542L32.1937 23.9288L32.2234 23.9032L32.2528 23.8773L32.282 23.8512L32.3108 23.8248L32.3393 23.7982L32.3674 23.7714L32.3953 23.7442L32.4228 23.7169L32.45 23.6894L32.4768 23.6616L32.5032 23.6336L32.5294 23.6055L32.5553 23.5769L32.5806 23.5484L32.6058 23.5195L32.6306 23.4905L32.655 23.4613L32.6792 23.4318L32.7028 23.4023L32.7262 23.3725L32.7493 23.3426L32.7719 23.3124L32.7943 23.2821L32.8162 23.2517L32.8378 23.2209L32.8591 23.1901L32.8799 23.1593L32.9005 23.1281L32.9207 23.0968L32.9404 23.0655L32.9598 23.0339L32.9789 23.0023L32.9976 22.9704L33.016 22.9385L33.0339 22.9064L33.0516 22.8743L33.0688 22.8419L33.0857 22.8096L33.1021 22.7771L33.1183 22.7445L33.1341 22.7118L33.1495 22.6789L33.1645 22.646L33.1791 22.613L33.1934 22.58L33.2073 22.5468L33.2208 22.5137L33.2341 22.4802L33.2468 22.4471L33.2593 22.4134L33.2712 22.3802L33.283 22.3465L33.2943 22.3128L33.3052 22.2793L33.3158 22.2456L33.3259 22.212L33.3358 22.178L33.3452 22.1445L33.3544 22.1104L33.363 22.0768L33.3714 22.0428L33.3794 22.0088L33.3869 21.9751L33.3941 21.9414L33.401 21.9072L33.4076 21.8735L33.4137 21.8394L33.4194 21.8057L33.4249 21.7719L33.4299 21.7379L33.4346 21.704L33.4389 21.6702L33.4429 21.6365L33.4465 21.6029L33.4497 21.5689L33.4526 21.5353L33.4551 21.5016L33.4573 21.468L33.4591 21.4345L33.4606 21.401L33.4616 21.3677L33.4624 21.3342L33.4629 21.3007L33.463 21.2676L33.4626 21.2344L33.462 21.2013L33.461 21.1684L33.4597 21.1352L33.458 21.1027L33.4561 21.0694L33.4538 21.0371L33.4511 21.0045L33.4481 20.9718L33.4447 20.9394L33.4411 20.9073L33.4371 20.8748L33.4328 20.843L33.4281 20.8109L33.4232 20.7793L33.4178 20.7474L33.4122 20.7157L33.4063 20.6843L33.4001 20.653L33.3935 20.6216L33.3866 20.5907L33.3795 20.5597L33.372 20.5289L33.3643 20.4984L33.3561 20.4676L33.3478 20.4375L33.3391 20.4071L33.3301 20.3772L33.3208 20.3473L33.3112 20.3176L33.3014 20.288L33.2912 20.2585L33.2808 20.2294L33.2701 20.2004L33.2591 20.1714L33.2478 20.1428L33.2362 20.114L33.2245 20.086L33.2123 20.0576L33.2001 20.0297L33.1874 20.0021L33.1745 19.9744L33.1614 19.9471L33.148 19.9199L33.1344 19.8928L33.1205 19.8661L33.1063 19.8395L33.092 19.8131L33.0774 19.7869L33.0624 19.761L33.0474 19.7353L33.0321 19.7098L33.0165 19.6843L33.0007 19.6594L32.9847 19.6345L32.9684 19.6098L32.952 19.5853L32.9353 19.5612L32.9184 19.5372L32.9013 19.5135L32.884 19.49L32.8664 19.4667L32.8488 19.4437L32.8308 19.4208L32.8127 19.3983L32.7944 19.376L32.7759 19.3539L32.7572 19.332L32.7385 19.3105L32.7194 19.2892L32.7002 19.2681L32.6808 19.2471L32.6612 19.2266L32.6415 19.2062L32.6216 19.1861L32.6016 19.1663L32.5813 19.1467L32.561 19.1274L32.5403 19.1083L32.5198 19.0895L32.499 19.0709L32.478 19.0526L32.4569 19.0345L32.4357 19.0168L32.4143 18.9993L32.3928 18.9821L32.3712 18.9651L32.3495 18.9483L32.3276 18.9319L32.3056 18.9157L32.2835 18.8998L32.2613 18.8842L32.239 18.8687L32.2167 18.8536L32.1941 18.8388L32.1715 18.8242L32.1489 18.8099L32.1259 18.7958L32.1031 18.7821L32.0802 18.7686L32.0571 18.7554L32.0339 18.7425L32.0108 18.7298L31.9876 18.7173L31.9642 18.7052L31.9409 18.6934L31.9173 18.6817L31.8939 18.6704L31.8703 18.6595L31.8467 18.6486L31.823 18.6381L31.7992 18.6279L31.7756 18.618L31.7516 18.6083L31.7277 18.5989L31.7039 18.5898L31.68 18.5809L31.6561 18.5723L31.6321 18.564L31.6081 18.5558L31.5842 18.5481L31.5602 18.5405L31.5361 18.5333L31.5122 18.5263L31.488 18.5196L31.4641 18.5132L31.44 18.507L31.416 18.5011L31.3919 18.4954L31.3679 18.49L31.3439 18.4849L31.3199 18.48L31.296 18.4754L31.2721 18.4711L31.248 18.467L31.2242 18.4632L31.2002 18.4596L31.1765 18.4563L31.1526 18.4532L31.1288 18.4504L31.1052 18.4479L31.0815 18.4456L31.0579 18.4436L31.0343 18.4418L31.0108 18.4402L30.9872 18.4389L30.9638 18.4379L30.9406 18.4371L30.9172 18.4365L30.894 18.4362L30.8708 18.4361L30.8477 18.4364L30.8247 18.4368L30.8017 18.4374L30.7788 18.4383L30.7562 18.4394L30.7333 18.4408L30.7108 18.4423L30.6883 18.4441L30.6658 18.4462L30.6435 18.4484L30.6211 18.4509L30.5991 18.4536L30.577 18.4565L30.5551 18.4597L30.5332 18.4631L30.5115 18.4667L30.4898 18.4705L30.4684 18.4745L30.4469 18.4787L30.4257 18.4831L30.4045 18.4878L30.3835 18.4926Z" fill="#0F0F0F"/>
</g>
</svg>
