<svg width="144" height="39" viewBox="0 0 144 39" fill="none" xmlns="http://www.w3.org/2000/svg">
<g opacity="0.96">
<path d="M67.7607 34.3571H70.417V24.3007H67.7607V34.3571ZM67.7607 22.7324H70.417V20.3408H67.7607V22.7324Z" fill="#0F0F0F"/>
<path d="M72.1289 37.6506H74.7852V33.2203H74.8243C75.3907 34.0828 76.3087 34.6513 77.7149 34.6513C80.2931 34.6513 82.0509 32.593 82.0509 29.3388C82.0509 26.2023 80.3517 24.0264 77.6954 24.0264C76.3282 24.0264 75.3907 24.6733 74.7461 25.5554H74.6876V24.3008H72.1289V37.6506ZM77.1486 32.4361C75.5665 32.4361 74.7266 31.2404 74.7266 29.4172C74.7266 27.6138 75.3907 26.1827 77.0508 26.1827C78.6915 26.1827 79.3556 27.5157 79.3556 29.4172C79.3556 31.3188 78.4962 32.4361 77.1486 32.4361Z" fill="#0F0F0F"/>
<path d="M87.3497 34.6513C89.8497 34.6513 91.5685 33.4359 91.5685 31.4168C91.5685 29.0644 89.713 28.5939 88.0333 28.2411C86.6075 27.947 85.2793 27.8686 85.2793 27.0061C85.2793 26.2808 85.9629 25.8886 86.9982 25.8886C88.131 25.8886 88.8146 26.2808 88.9317 27.3589H91.3341C91.1388 25.3398 89.674 24.0264 87.0372 24.0264C84.752 24.0264 82.9551 25.0653 82.9551 27.2412C82.9551 29.4368 84.713 29.927 86.5098 30.2798C87.877 30.5542 89.1466 30.6523 89.1466 31.6128C89.1466 32.3185 88.4825 32.7694 87.3106 32.7694C86.1192 32.7694 85.2989 32.2598 85.1231 31.1031H82.6621C82.8184 33.2399 84.4395 34.6513 87.3497 34.6513Z" fill="#0F0F0F"/>
<path d="M101.653 34.3572V24.3008H98.9971V30.1033C98.9971 31.4363 98.2354 32.3773 96.9854 32.3773C95.8526 32.3773 95.3252 31.7304 95.3252 30.5541V24.3008H92.6885V31.0051C92.6885 33.2006 93.9385 34.6317 96.1651 34.6317C97.5714 34.6317 98.3526 34.1024 99.0363 33.181H99.0949V34.3572H101.653Z" fill="#0F0F0F"/>
<path d="M103.371 34.3573H106.027V28.5155C106.027 27.1824 106.75 26.32 107.824 26.32C108.801 26.32 109.367 26.908 109.367 28.045V34.3573H112.024V28.5155C112.024 27.1824 112.707 26.32 113.82 26.32C114.797 26.32 115.363 26.908 115.363 28.045V34.3573H118.02V27.5942C118.02 25.3986 116.828 24.0264 114.719 24.0264C113.449 24.0264 112.395 24.6929 111.711 25.7906H111.672C111.184 24.7321 110.168 24.0264 108.899 24.0264C107.512 24.0264 106.535 24.7321 105.988 25.6534H105.93V24.3008H103.371V34.3573Z" fill="#0F0F0F"/>
<path d="M67.7998 17.1325H70.4561V3.11621H67.7998V17.1325Z" fill="#0F0F0F"/>
<path d="M76.9512 17.4267C80.0568 17.4267 82.1857 15.1135 82.1857 12.1142C82.1857 9.11494 80.0568 6.80176 76.9512 6.80176C73.8458 6.80176 71.7168 9.11494 71.7168 12.1142C71.7168 15.1135 73.8458 17.4267 76.9512 17.4267ZM76.9512 15.388C75.3106 15.388 74.4122 14.0746 74.4122 12.1142C74.4122 10.1539 75.3106 8.82089 76.9512 8.82089C78.5724 8.82089 79.4904 10.1539 79.4904 12.1142C79.4904 14.0746 78.5724 15.388 76.9512 15.388Z" fill="#0F0F0F"/>
<path d="M87.8341 20.5633C89.3185 20.5633 90.6076 20.2104 91.4474 19.4262C92.1895 18.7401 92.6388 17.7796 92.6388 16.3682V7.0762H90.0802V8.13478H90.0411C89.4356 7.29183 88.5177 6.80176 87.2676 6.80176C84.7286 6.80176 82.9316 8.72288 82.9316 11.7222C82.9316 14.7607 85.1192 16.5249 87.3458 16.5249C88.6154 16.5249 89.3771 16.0153 89.963 15.3488H90.0216V16.4465C90.0216 17.8188 89.299 18.5441 87.795 18.5441C86.5645 18.5441 85.9982 18.054 85.7833 17.4267H83.1465C83.42 19.387 85.0997 20.5633 87.8341 20.5633ZM87.795 14.3882C86.4278 14.3882 85.5293 13.3885 85.5293 11.683C85.5293 9.99712 86.4278 8.93851 87.7755 8.93851C89.3771 8.93851 90.1583 10.1931 90.1583 11.6634C90.1583 13.1532 89.4747 14.3882 87.795 14.3882Z" fill="#0F0F0F"/>
<path d="M99.0958 17.4267C102.201 17.4267 104.33 15.1135 104.33 12.1142C104.33 9.11494 102.201 6.80176 99.0958 6.80176C95.9903 6.80176 93.8613 9.11494 93.8613 12.1142C93.8613 15.1135 95.9903 17.4267 99.0958 17.4267ZM99.0958 15.388C97.4551 15.388 96.5567 14.0746 96.5567 12.1142C96.5567 10.1539 97.4551 8.82089 99.0958 8.82089C100.717 8.82089 101.635 10.1539 101.635 12.1142C101.635 14.0746 100.717 15.388 99.0958 15.388Z" fill="#0F0F0F"/>
<path d="M106.658 13.2907H118.143V10.9971H106.658V13.2907Z" fill="#0F0F0F"/>
<path d="M118.985 22.5922C118.985 22.1411 119.35 21.7754 119.799 21.7754H121.427C121.876 21.7754 122.241 22.1411 122.241 22.5922C122.241 23.0433 121.876 23.409 121.427 23.409H119.799C119.35 23.409 118.985 23.0433 118.985 22.5922Z" fill="#0F0F0F"/>
<path fill-rule="evenodd" clip-rule="evenodd" d="M40.9354 0C51.6655 0 60.364 8.73044 60.364 19.5C60.364 30.2696 51.6655 39 40.9354 39C30.2053 39 21.5068 30.2696 21.5068 19.5C21.5068 8.73044 30.2053 0 40.9354 0ZM40.2332 1.45918C38.0167 1.77225 35.9062 3.5598 34.2679 6.54947C33.7927 7.41666 33.3639 8.37472 32.9902 9.40918C35.2179 8.84732 37.665 8.51606 40.2332 8.46482V1.45918ZM31.3482 9.87753C31.8128 8.41384 32.3813 7.06719 33.0373 5.87013C33.8494 4.38808 34.8133 3.10825 35.8992 2.12528C29.994 3.8466 25.3393 8.51837 23.6243 14.4453C24.6037 13.3554 25.8788 12.388 27.3555 11.5729C28.5481 10.9144 29.8899 10.3439 31.3482 9.87753ZM30.8815 11.5256C30.3217 13.7614 29.9917 16.2176 29.9407 18.7952H22.9607C23.2726 16.5705 25.0536 14.4522 28.0323 12.808C28.8963 12.331 29.8509 11.9007 30.8815 11.5256ZM31.3455 18.7952C31.4035 15.9822 31.8069 13.3413 32.4745 11.0079C34.7993 10.3379 37.4306 9.93291 40.2332 9.8747V12.9195C39.1876 15.606 37.0551 17.7462 34.3784 18.7952H31.3455ZM29.9407 20.2048H22.9607C23.2726 22.4295 25.0536 24.5477 28.0323 26.192C28.8963 26.669 29.8509 27.0993 30.8815 27.4744C30.3217 25.2386 29.9917 22.7824 29.9407 20.2048ZM32.4745 27.9921C31.8069 25.6587 31.4035 23.0178 31.3455 20.2048H34.3784C37.0551 21.2538 39.1877 23.394 40.2332 26.0805V29.1253C37.4306 29.0671 34.7993 28.6621 32.4745 27.9921ZM31.3482 29.1225C29.8899 28.6561 28.5481 28.0856 27.3555 27.4271C25.8788 26.612 24.6037 25.6446 23.6243 24.5547C25.3393 30.4816 29.994 35.1534 35.8992 36.8747C34.8133 35.8917 33.8494 34.6119 33.0373 33.1298C32.3813 31.9328 31.8128 30.5861 31.3482 29.1225ZM40.2332 37.5408C38.0167 37.2277 35.9062 35.4402 34.2679 32.4505C33.7927 31.5834 33.3639 30.6252 32.9902 29.5909C35.2179 30.1527 37.665 30.484 40.2332 30.5351V37.5408ZM45.9716 36.8747C47.0575 35.8917 48.0214 34.6119 48.8336 33.1298C49.4895 31.9328 50.058 30.5861 50.5226 29.1225C51.9809 28.6561 53.3227 28.0856 54.5154 27.4271C55.992 26.612 57.2672 25.6446 58.2465 24.5547C56.5315 30.4816 51.8768 35.1534 45.9716 36.8747ZM48.8806 29.5909C48.5069 30.6252 48.0781 31.5834 47.6029 32.4505C45.9647 35.4402 43.8542 37.2277 41.6376 37.5408V30.5351C44.2058 30.484 46.6529 30.1527 48.8806 29.5909ZM50.9893 27.4744C52.0199 27.0993 52.9745 26.669 53.8385 26.192C56.8172 24.5477 58.5982 22.4295 58.9101 20.2048H51.9301C51.8791 22.7824 51.549 25.2386 50.9893 27.4744ZM50.5254 20.2048C50.4674 23.0178 50.0639 25.6587 49.3963 27.9921C47.0715 28.6621 44.4403 29.0671 41.6376 29.1253V26.0827C42.6828 23.3952 44.8158 21.2541 47.4933 20.2048H50.5254ZM51.9301 18.7952H58.9101C58.5982 16.5705 56.8172 14.4522 53.8385 12.808C52.9745 12.331 52.0199 11.9007 50.9893 11.5256C51.549 13.7614 51.8791 16.2176 51.9301 18.7952ZM49.3963 11.0079C50.0639 13.3413 50.4674 15.9822 50.5254 18.7952H47.4933C44.8158 17.7459 42.6828 15.6048 41.6376 12.9173V9.8747C44.4403 9.93291 47.0715 10.3379 49.3963 11.0079ZM50.5226 9.87753C51.9809 10.3439 53.3227 10.9144 54.5154 11.5729C55.992 12.388 57.2672 13.3554 58.2465 14.4453C56.5315 8.51837 51.8768 3.8466 45.9716 2.12528C47.0575 3.10825 48.0214 4.38808 48.8336 5.87013C49.4895 7.06719 50.058 8.41384 50.5226 9.87753ZM41.6376 1.45918C43.8542 1.77225 45.9647 3.5598 47.6029 6.54947C48.0781 7.41667 48.5069 8.37472 48.8806 9.40918C46.6529 8.84732 44.2058 8.51606 41.6376 8.46482V1.45918Z" fill="#0F0F0F"/>
</g>
</svg>
