<svg width="144" height="39" viewBox="0 0 144 39" fill="none" xmlns="http://www.w3.org/2000/svg">
<g opacity="0.96">
<path d="M12.1387 33.2128H39.5131V6.28369H12.1387V33.2128ZM34.2442 17.1572H28.4598V11.4669H34.2442V17.1572ZM17.4065 11.4669H23.1941V22.3393H34.2442V28.0296H17.4065V11.4669ZM57.339 6.28369C54.6318 6.28369 51.9855 7.07338 49.7347 8.55288C47.4839 10.0324 45.7296 12.1353 44.6936 14.5956C43.6576 17.056 43.3867 19.7631 43.9147 22.375C44.4429 24.9869 45.7464 27.386 47.6606 29.2691C49.5748 31.1522 52.0136 32.4345 54.6686 32.9541C57.3238 33.4736 60.0758 33.207 62.5768 32.1879C65.0778 31.1688 67.2154 29.443 68.7194 27.2287C70.2234 25.0145 71.0261 22.4112 71.0261 19.7482C71.0219 16.1785 69.5784 12.7562 67.0125 10.232C64.4466 7.70778 60.9677 6.28786 57.339 6.28369ZM57.339 28.0296C55.674 28.0296 54.0463 27.5439 52.6619 26.6339C51.2776 25.724 50.1986 24.4306 49.5614 22.9174C48.9243 21.4042 48.7576 19.7391 49.0824 18.1326C49.4072 16.5262 50.209 15.0506 51.3863 13.8924C52.5636 12.7343 54.0636 11.9455 55.6966 11.626C57.3296 11.3065 59.0222 11.4705 60.5605 12.0973C62.0987 12.7241 63.4135 13.7855 64.3385 15.1474C65.2635 16.5092 65.7572 18.1103 65.7572 19.7482C65.7538 21.9436 64.8658 24.0481 63.2878 25.6004C61.7098 27.1527 59.5705 28.0262 57.339 28.0296ZM120.005 6.28369C117.298 6.28349 114.652 7.07299 112.401 8.55237C110.15 10.0317 108.396 12.1345 107.359 14.5949C106.323 17.0551 106.052 19.7625 106.58 22.3744C107.108 24.9863 108.412 27.3856 110.326 29.2687C112.24 31.1519 114.679 32.4344 117.334 32.954C119.988 33.4736 122.741 33.207 125.242 32.188C127.743 31.1689 129.881 29.4431 131.384 27.2288C132.889 25.0146 133.692 22.4113 133.692 19.7482C133.687 16.1787 132.244 12.7565 129.679 10.2323C127.113 7.70818 123.634 6.28814 120.005 6.28369ZM120.005 28.0296C118.341 28.0298 116.713 27.5442 115.328 26.6344C113.944 25.7246 112.865 24.4313 112.227 22.9181C111.59 21.4049 111.423 19.7397 111.748 18.1332C112.072 16.5268 112.874 15.0511 114.051 13.8928C115.229 12.7345 116.729 11.9457 118.362 11.6261C119.995 11.3065 121.687 11.4704 123.225 12.0972C124.764 12.7239 126.079 13.7854 127.004 15.1473C127.929 16.5092 128.423 18.1103 128.423 19.7482C128.419 21.9434 127.532 24.0476 125.953 25.6C124.376 27.1523 122.237 28.026 120.005 28.0296ZM88.6717 6.28369C85.9645 6.28369 83.3182 7.07338 81.0675 8.55288C78.8166 10.0324 77.0623 12.1353 76.0263 14.5956C74.9904 17.056 74.7194 19.7631 75.2475 22.375C75.7756 24.9869 77.0791 27.386 78.9933 29.2691C80.9075 31.1522 83.3463 32.4345 86.0014 32.9541C88.6564 33.4736 91.4085 33.207 93.9095 32.1879C96.4106 31.1688 98.5481 29.443 100.052 27.2287C101.556 25.0145 102.359 22.4112 102.359 19.7482C102.355 16.1785 100.911 12.7562 98.3452 10.232C95.7793 7.70778 92.3005 6.28786 88.6717 6.28369ZM88.6717 28.0296C87.1203 28.0303 85.5991 27.6094 84.2757 26.8133C82.9523 26.0172 81.8781 24.8769 81.1719 23.5182C80.4659 22.1595 80.155 20.6352 80.2739 19.1137C80.3928 17.5921 80.9366 16.1325 81.8456 14.8959C82.7545 13.6593 83.9932 12.6938 85.4246 12.1059C86.8562 11.5181 88.425 11.3308 89.9579 11.5648C91.4909 11.7987 92.9282 12.4448 94.1114 13.4316C95.2947 14.4185 96.1777 15.7078 96.6631 17.1572H88.6717V22.3393H96.6631C96.1071 23.9932 95.0361 25.4329 93.6016 26.4543C92.1673 27.4757 90.4424 28.0267 88.6717 28.0296Z" fill="#0F0F0F"/>
</g>
</svg>
