<svg width="144" height="39" viewBox="0 0 144 39" fill="none" xmlns="http://www.w3.org/2000/svg">
<path fill-rule="evenodd" clip-rule="evenodd" d="M23 8V32H16V8H23Z" fill="#0F0F0F"/>
<path fill-rule="evenodd" clip-rule="evenodd" d="M25 8H39.4815C44.1861 8 48 11.5817 48 16C48 20.4183 44.1861 24 39.4815 24H31.8148V32H25V8ZM31.8148 17.6H39.4815C40.4225 17.6 41.1852 16.8836 41.1852 16C41.1852 15.1164 40.4225 14.4 39.4815 14.4H31.8148V17.6Z" fill="#0F0F0F"/>
<path fill-rule="evenodd" clip-rule="evenodd" d="M72.6206 8V20.4C72.6206 23.2719 75.029 25.6 77.9999 25.6C80.9708 25.6 83.3792 23.2719 83.3792 20.4V8H90V20.4C90 26.8065 84.6274 32 77.9999 32C71.3725 32 66 26.8065 66 20.4V8H72.6206Z" fill="#0F0F0F"/>
<path fill-rule="evenodd" clip-rule="evenodd" d="M50.3333 19.2C50.3333 13.0144 55.2955 8 61.4167 8H63V14.4H61.4167C58.7933 14.4 56.6667 16.5491 56.6667 19.2V20C56.6667 26.6274 51.35 32 44.7916 32H44V25.6H44.7916C47.8522 25.6 50.3333 23.0928 50.3333 20V19.2Z" fill="#0F0F0F"/>
<path d="M127 8C127 9.10457 125.881 10 124.5 10C123.119 10 122 9.10457 122 8C122 6.89543 123.119 6 124.5 6C125.881 6 127 6.89543 127 8Z" fill="#0F0F0F"/>
<path d="M96.7759 32L99.921 19.101L102.259 26.8611C103.653 31.4894 110.347 31.4894 111.741 26.8611L114.079 19.101L117.224 32H124L119.055 11.717C117.879 6.89358 110.939 6.71499 109.506 11.4714L107 19.7887L104.494 11.4714C103.062 6.71502 96.1211 6.89355 94.945 11.717L90 32H96.7759Z" fill="#0F0F0F"/>
</svg>
