<svg width="144" height="39" viewBox="0 0 144 39" fill="none" xmlns="http://www.w3.org/2000/svg">
<g opacity="0.96">
<path d="M36.0955 17.2258C38.3004 17.2258 38.7965 18.1836 38.7965 19.3781C38.7965 20.6443 38.1964 21.5514 36.1046 21.5514C34.0261 21.5514 33.4254 20.697 33.4254 19.3781C33.4254 18.0803 34.0802 17.2258 36.0955 17.2258Z" fill="#0F0F0F"/>
<path d="M59.1386 17.2258C61.3435 17.2258 61.8396 18.1836 61.8396 19.3781C61.8396 20.6443 61.2388 21.5514 59.1477 21.5514C57.0699 21.5514 56.4684 20.697 56.4684 19.3781C56.4684 18.0803 57.1233 17.2258 59.1386 17.2258Z" fill="#0F0F0F"/>
<path fill-rule="evenodd" clip-rule="evenodd" d="M16.5732 31.8282V6.91675H128V31.8282H16.5732ZM69.679 30.4229H126.595V8.32207H69.679V30.4229ZM36.106 23.6724C40.0205 23.6724 41.6661 21.9839 41.6661 19.3468C41.6661 16.6669 39.8125 15.0739 36.106 15.0739C32.4564 15.0739 30.5353 16.8039 30.5353 19.3468C30.5353 22.2165 32.5505 23.6724 36.106 23.6724ZM22.4961 15.2637V23.5459H30.3969V21.3403H25.3546V15.2637H22.4961ZM50.5084 23.5459L50.4346 22.7435C49.4784 23.4259 48.3145 23.7543 47.1427 23.6724C45.3811 23.6724 43.914 23.1447 43.0911 22.0795C42.5484 21.3018 42.2744 20.3682 42.3105 19.4206C42.2796 18.4929 42.5632 17.5819 43.115 16.8355C43.9477 15.8019 45.457 15.1161 47.7041 15.1161C50.2892 15.1161 51.8083 15.9073 52.4618 17.2367C52.6021 17.5498 52.6845 17.8857 52.7049 18.2282H49.9702C49.9013 18.0201 49.773 17.8367 49.6013 17.7005C49.0565 17.3393 48.406 17.1723 47.7547 17.2262C47.3727 17.1799 46.9851 17.2152 46.6177 17.3298C46.2504 17.4444 45.9115 17.6356 45.6235 17.8909C45.2965 18.3385 45.143 18.8895 45.1914 19.4417C45.1534 19.9685 45.2946 20.4927 45.5919 20.9292C45.8825 21.2 46.2279 21.405 46.6047 21.5306C46.9815 21.6562 47.3808 21.6994 47.7758 21.6572C48.5602 21.721 49.3389 21.479 49.9491 20.9819C50.0802 20.8181 50.1705 20.6254 50.2126 20.4198H47.2699V18.6399H52.7766V23.5459H50.5084ZM59.149 23.6724C63.0629 23.6724 64.7092 21.9839 64.7092 19.3468C64.7092 16.6669 62.8527 15.0739 59.149 15.0739C55.4994 15.0739 53.5784 16.8039 53.5784 19.3468C53.5784 22.2165 55.5936 23.6724 59.149 23.6724Z" fill="#0F0F0F"/>
<path d="M74.4938 23.5142V15.2319H76.5316V23.5142H74.4938Z" fill="#0F0F0F"/>
<path d="M86.9955 20.0534C86.4791 20.7286 85.5902 21.0371 84.3373 21.0448C84.0731 21.0448 80.5704 21.0343 80.5704 21.0343V23.514H78.5762V15.2317H84.3381C84.7998 15.1829 85.267 15.2319 85.7082 15.3754C86.1502 15.519 86.5564 15.754 86.9014 16.0651C87.3567 16.6583 87.578 17.3979 87.5239 18.1435C87.5703 18.8218 87.3841 19.4955 86.9955 20.0534ZM85.3604 17.3531C85.1496 17.0369 84.695 16.8612 83.9256 16.8612H80.5598V19.3823H83.9038C84.7266 19.3823 85.1602 19.2137 85.3604 18.8863C85.4792 18.6556 85.5305 18.3958 85.508 18.1372C85.5255 17.8675 85.475 17.5978 85.3604 17.3531Z" fill="#0F0F0F"/>
<path d="M93.4002 23.6409C89.6438 23.6409 88.4943 22.2356 88.4943 20.845H90.6254C90.6254 21.5308 91.5642 22.048 93.4951 22.048C95.4148 22.048 95.9214 21.71 95.9214 21.1612C95.9214 20.5492 95.542 20.3595 93.7586 20.1593C93.4073 20.1276 92.4509 20.0117 92.0919 19.959C89.5623 19.6737 88.5884 18.9247 88.5884 17.5847C88.5884 16.1709 90.0134 15.1057 93.1044 15.1057C96.4596 15.1057 97.7469 16.4246 97.7469 17.7962H95.6389C95.6389 17.0999 94.8477 16.6986 92.9801 16.6986C91.0597 16.6986 90.6486 16.9621 90.6486 17.4793C90.6486 18.0175 91.0702 18.1862 93.1079 18.4286C93.5724 18.4925 94.606 18.6085 94.8906 18.6394C97.0435 18.8607 98.0139 19.6414 98.0139 21.0235C98.0104 22.6699 96.5334 23.6409 93.4002 23.6409Z" fill="#0F0F0F"/>
<path d="M104.015 23.6301C101.262 23.6301 99.4677 22.5431 99.4677 20.2574V15.2319H101.482V20.2855C101.482 21.3303 102.337 22.026 104.099 22.026C105.692 22.026 106.642 21.3725 106.642 20.2855V15.2319H108.636V20.445C108.636 22.5227 106.969 23.6301 104.015 23.6301Z" fill="#0F0F0F"/>
<path d="M119.555 23.5142V17.9857L116.97 23.5142H115.008L112.497 17.9857V23.5142H110.6V15.2319H113.17L116.019 21.5411L118.931 15.2319H121.46V23.5142H119.555Z" fill="#0F0F0F"/>
</g>
</svg>
